<?xml version="1.0" encoding="utf-8"?>
<!-- Generator: Adobe Illustrator 16.0.0, SVG Export Plug-In . SVG Version: 6.00 Build 0)  -->
<!DOCTYPE svg PUBLIC "-//W3C//DTD SVG 1.1//EN" "http://www.w3.org/Graphics/SVG/1.1/DTD/svg11.dtd">
<svg version="1.1" id="Layer_1" xmlns="http://www.w3.org/2000/svg" xmlns:xlink="http://www.w3.org/1999/xlink" x="0px" y="0px"
	 width="76px" height="76px" viewBox="0 0 76 76" enable-background="new 0 0 76 76" xml:space="preserve">
<g>
	<path fill="#222222" d="M38,4.375C19.459,4.375,4.375,19.459,4.375,38c0,18.542,15.084,33.626,33.626,33.626
		S71.627,56.542,71.627,38C71.627,19.459,56.543,4.375,38,4.375z"/>
	<g>
		<path fill="#FFFFFF" d="M39.318,42.305c-0.354,0.283-0.791,0.438-1.243,0.438h-0.283c-0.452,0-0.89-0.154-1.242-0.438
			l-6.312-5.084l-8.877,14.394c0.129,0.014,0.255,0.038,0.388,0.038h32.086c0.144,0,0.276-0.026,0.414-0.043l-8.703-14.321
			L39.318,42.305z"/>
		<path fill="#FFFFFF" d="M55.406,24.262c-0.484-0.21-1.014-0.33-1.57-0.33H21.75c-0.484,0-0.942,0.1-1.372,0.261l17.557,14.14
			L55.406,24.262z"/>
		<path fill="#FFFFFF" d="M57.461,49.27c0.213-0.483,0.334-1.016,0.334-1.576v-19.8c0-0.149-0.027-0.291-0.043-0.435l-9.092,7.324
			L57.461,49.27z"/>
		<path fill="#FFFFFF" d="M17.855,27.247c-0.036,0.212-0.066,0.425-0.066,0.646v19.8c0,0.57,0.128,1.111,0.349,1.604l8.992-14.58
			L17.855,27.247z"/>
	</g>
</g>
</svg>
