<?xml version="1.0" encoding="utf-8"?>
<!-- Generator: Adobe Illustrator 16.0.0, SVG Export Plug-In . SVG Version: 6.00 Build 0)  -->
<!DOCTYPE svg PUBLIC "-//W3C//DTD SVG 1.1//EN" "http://www.w3.org/Graphics/SVG/1.1/DTD/svg11.dtd">
<svg version="1.1" id="Layer_1" xmlns="http://www.w3.org/2000/svg" xmlns:xlink="http://www.w3.org/1999/xlink" x="0px" y="0px"
	 width="76px" height="76px" viewBox="0 0 76 76" enable-background="new 0 0 76 76" xml:space="preserve">
<g>
	<path fill="#547BBC" d="M38,4.375C19.458,4.375,4.375,19.459,4.375,38c0,18.542,15.083,33.626,33.626,33.626
		S71.627,56.543,71.627,38C71.627,19.459,56.543,4.375,38,4.375z"/>
	<path fill="#FFFFFF" d="M29.38,31.951h3.693v-3.59c0-1.581,0.041-4.022,1.19-5.537c1.213-1.6,2.876-2.688,5.737-2.688
		c4.656,0,6.621,0.665,6.621,0.665l-0.924,5.472c0,0-1.541-0.446-2.977-0.446c-1.438,0-2.722,0.515-2.722,1.951v4.172h5.89
		l-0.414,5.344h-5.478v18.568h-6.926V37.296h-3.693L29.38,31.951L29.38,31.951z"/>
</g>
</svg>
