<?xml version="1.0" encoding="utf-8"?>
<!-- Generator: Adobe Illustrator 16.0.0, SVG Export Plug-In . SVG Version: 6.00 Build 0)  -->
<!DOCTYPE svg PUBLIC "-//W3C//DTD SVG 1.1//EN" "http://www.w3.org/Graphics/SVG/1.1/DTD/svg11.dtd">
<svg version="1.1" id="Layer_1" xmlns="http://www.w3.org/2000/svg" xmlns:xlink="http://www.w3.org/1999/xlink" x="0px" y="0px"
	 width="666.75px" height="77.25px" viewBox="0 0 666.75 77.25" enable-background="new 0 0 666.75 77.25" xml:space="preserve">
<g>
	<g>
		<polygon fill="#FFFFFF" points="245.113,0.752 260.947,31.949 276.294,0.752 260.703,14.065 		"/>
		<polygon fill="#FFFFFF" points="245.113,74.424 260.947,31.949 276.294,74.424 260.703,61.109 		"/>
		<polygon fill="#FFFFFF" points="299.192,19.033 260.947,31.949 299.192,44.469 282.872,31.751 		"/>
		<polygon fill="#FFFFFF" points="222.702,19.033 260.947,31.949 222.702,44.469 239.023,31.751 		"/>
	</g>
	<g>
		<path fill="#FFFFFF" d="M67.658,74.424V37.658L64.421,43.8L47.408,74.424h-9.959L20.518,43.8l-3.237-6.142v36.766H1.098V19.151
			h24.234l16.101,29.794l2.324,4.481l2.324-4.481l15.935-29.794h23.238v55.273H67.658z"/>
		<path fill="#FFFFFF" d="M147.505,74.424l-5.561-11.619h-27.636l-5.727,11.619H92.398l27.719-55.273h18.093l28.217,55.273H147.505z
			 M128.333,33.508l-9.378,19.171h18.507L128.333,33.508z"/>
		<path fill="#FFFFFF" d="M173.654,74.424V19.151h17.594v41.994h41.082v13.279H173.654z"/>
		<path fill="#FFFFFF" d="M341.142,74.424l-5.561-11.619h-27.637l-5.727,11.619h-16.184l27.72-55.273h18.092l28.218,55.273H341.142z
			 M321.97,33.508l-9.378,19.171h18.507L321.97,33.508z"/>
	</g>
	<g>
		<path fill="#FFFFFF" d="M387.61,31.766v11.37h24.234v10.125H387.61v21.163h-17.512V19.151h55.605v12.615H387.61z"/>
		<path fill="#FFFFFF" d="M435.916,74.424V19.151h17.596v55.273H435.916z"/>
		<path fill="#FFFFFF" d="M467.953,74.424V19.151h17.596v41.994h41.08v13.279H467.953z"/>
		<path fill="#FFFFFF" d="M536.594,74.424V19.151h56.518v12.615h-38.922v10.623h27.885v7.719h-27.885v11.037h38.922v13.279H536.594z
			"/>
		<path fill="#FFFFFF" d="M634.531,76.498c-13.029,0-24.98-3.236-33.611-7.469l5.229-10.54c8.631,3.901,19.254,6.722,27.885,6.722
			c10.457,0,14.441-2.986,14.441-5.975c0-9.959-45.066-2.904-45.066-23.653c0-10.292,13.031-18.507,31.205-18.507
			c12.947,0,21.994,3.319,30.459,7.552l-6.141,9.959c-7.221-3.652-16.682-6.308-24.982-6.308c-8.879,0-13.775,2.739-13.775,5.976
			c0,9.959,45.479,2.656,45.479,23.487C665.652,69.112,651.877,76.498,634.531,76.498z"/>
	</g>
</g>
</svg>
