<?xml version="1.0" encoding="utf-8"?>
<!-- Generator: Adobe Illustrator 16.0.3, SVG Export Plug-In . SVG Version: 6.00 Build 0)  -->
<!DOCTYPE svg PUBLIC "-//W3C//DTD SVG 1.1//EN" "http://www.w3.org/Graphics/SVG/1.1/DTD/svg11.dtd">
<svg version="1.1" id="Layer_1" xmlns="http://www.w3.org/2000/svg" xmlns:xlink="http://www.w3.org/1999/xlink" x="0px" y="0px"
	 width="100px" height="100px" viewBox="0 0 100 100" enable-background="new 0 0 100 100" xml:space="preserve">
<g>
	<defs>
		<circle id="SVGID_35_" cx="50" cy="50" r="50"/>
	</defs>
	<clipPath id="SVGID_2_">
		<use xlink:href="#SVGID_35_"  overflow="visible"/>
	</clipPath>
	<g clip-path="url(#SVGID_2_)">
		<rect x="-20.749" y="-0.535" fill="#244AA5" width="141.497" height="101.07"/>
		<path fill="#D0A650" d="M33.784,47.405c0.641-0.495,2.759,0.333,2.759-0.248c0-1.18,2.544-0.951,2.653-1.76
			c-0.037,0.277-1.681-1.519-1.514-1.519c-0.566,0,0.954-2.454,1.293-1.787c0.096,0.177,0.141,0.225,0.218,0.307
			c0.07,0.088,0.288,0.023,0.333-0.065c0.212-0.366,0.676-1.745,1.197-1.828c0.232-0.037,1.422,0.649,1.542,0.006
			c0.032-0.171,0.064-0.401,0.064-0.401c0.177-0.096,1.046-0.623,0.999-0.678c-0.093-0.103-0.595-1.223-0.589-1.179
			c-0.032-0.171-0.096-0.289,0.096-0.318c2.915-0.463-0.915-4.328-1.53-3.974c0.205-0.118,0.256-0.33,0.179-0.496
			c-0.113-0.242-0.826-0.42-0.64-0.66c0.385-0.498,1.327,0.216,1.69-0.118c0.046-0.042,1.469-0.624,1.664-0.731
			c0.363-0.2,0.763-1.26,1.178-0.919c0.395,0.311,1.263,0.314,1.715,0.33c-0.007-0.188-0.139-0.841-0.025-0.92
			c1.102-0.762,2.464,1.44,2.74,2.241c0,0,0.281,0.331-0.077,0.165c-0.493-0.227-1.309,0.194-1.127,0.236
			c0.531,0.123,0.235,0.342,0.103,0.495c-0.284-0.046-0.48,0.064-0.589,0.33c0,0.259,2.632,0.851,2.919,1.203
			c0.141,0.173,0.231,0.294,0.23,0.519l0.486,0.166c0.071,0.31,0.303,0.4,0.615,0.33c0.534-0.566,1.264-0.623,1.997-0.306
			c0.051,0.275,0.253,0.459,0.538,0.495c0,0,0.025,0.212,0.077,0.307c0.401,0.739,1.124-0.692,1.152-0.849
			c0.05-0.275,0.792,0.806,0.845,0.825c0.221,0.082,0.93-0.293,0.896,0.071c-0.048,0.527,0.489,3.939,0.743,4.032
			c0.131,0.048,0.407,0.53,0.614,0.377c0.311-0.229,0.432-0.607,0.461-0.99c0.559-0.003,1.793,1.218,1.357,1.886
			c-0.777,1.193,0.831,2.155,0.999,3.207c0.582-0.048,1.427-0.483,2.147-0.176c0.414,0.176,0.204,0.577,0.218,0.825
			c0.011,0.213,0.967,0.448,1.117,0.531c0.2,0.11,1.126-0.331,1.562-0.165c0.116,0.995-0.722,1.448-0.461,2.5
			c-0.027,0.036-0.543,0.354-0.512,0.212c-0.057,0.259,0.085,1.225,0.051,1.25c-0.264,0.194-0.944,0.519-0.64,0.919
			c0.19,0.251,0.374,0.258,0.486,0c0.719-0.183,1.372-0.156,1.792,0.424c0.184,0.254,0.291-0.685,0.563-0.283
			c0.913,1.345,2.701-0.286,3.38,0.754c0.077,0.118,0.333,0.307,0.153,0.448c-0.975,0.771,1.505,0.775,1.511,0.731
			c-0.04,0.296,0.339,1.562,0.794,1.202c0.226-0.178,0.285-0.444,0.23-0.708c1.5-0.684,2.627-0.769,3.047,0.779
			c0.066,0.243,0.464,0.279,0.589,0.565c0.229,0.529-0.948,0.488-1.05,0.613c-0.45,0.553,0.056,0.847-0.717,1.203
			c-0.215,0.099,0.484,0.987,0.614,1.132c-0.085,0.746-0.896,1.56-1.818,1.438c-0.179-0.023-0.102,0.283-0.051,0.401
			c0.039,0.091,0.639,0.786,0.32,0.811c-0.093,0.007-0.415-0.511-0.474-0.079c-0.137,1.006-1.637,1.514-2.125,2.263
			c-0.315,0.483,0.87,1.557,0.793,1.722c-0.149,0.321-0.839,1.653-1.357,1.462c-0.29-0.107-0.178-0.378-0.563-0.307
			c-0.401,0.074-0.418,0.727-0.563,0.708c-0.192-0.025-1.233-0.215-1.254-0.094c-0.044,0.248-0.225,1.213-0.192,1.448
			c0.176,1.253,0.536,0.685,1.139,0.666c0.203-0.006,0.811,1.639,0.967,1.931c-0.292,0.062-0.624,0.559-0.896,0.684
			c-0.004,0.001-0.898,0.129-0.896,0.13c-0.188-0.066-0.41-1.022-0.531-1.203c0.039,0.059-1.005-0.421-0.985-0.419
			c-0.532-0.036-0.154,0.324-0.378,0.407c-0.429,0.153-0.429-0.401-0.749-0.147c-0.122,0.094,0.192,0.153,0.115,0.318
			c-0.063,0.135-0.378,0.342-0.358,0.501c0.026,0.218,0.263,0.283,0.333,0.465c0.192,0.483-0.127,0.82-0.608,0.442
			c-0.269-0.212-0.32-0.607-0.736-0.578c-0.149,0.14-0.316,0.159-0.499,0.059c-0.293,0.102-0.989,1.414-1.312,1.675
			c-0.103,0.082-0.173-0.248-0.301-0.03c-0.262,0.403-0.208,1.368-0.474,1.745c-0.088,0.136-0.613,0.614-0.627,0.69
			c-0.013,0.082,0.16,0.147,0.205,0.201c0.031,0.035,0.378,0.635,0.396,0.689c0.032,0.088-0.07,0.083-0.032,0.183
			c0.007,0.029,0.211,0.294,0.211,0.3c0.013,0.089-0.391,0.271-0.48,0.271c-0.214,0.006,0.195-0.501-0.186-0.501
			c-0.136,0.115-0.212,0.261-0.23,0.437c-0.376,0.348-1.775,0.599-2.228,0.301c-0.398-0.254-0.157-1.119-0.192-1.38
			c-0.047-0.296-1.338-2.553-1.536-2.671c-0.167-0.097-1.32-0.418-1.46-0.418c-0.147,0.038-0.296,0.053-0.448,0.041
			c-0.665,0.455-1.166,1.026-1.716,1.574c-0.134,0.136-0.502,0.413-0.679,0.542c-1.094,0.27-2.109,0.688-3.111,1.015
			c-0.07,0.023-0.122-0.006-0.198-0.036c-1.02,1.255-0.797,0.845-2.336,1.173c-0.305,0.062-1.184,0.496-1.619,0.613
			c-0.288,0.088-0.143,0.408-0.198,0.459c-0.01,0.011-0.81,0.666-0.839,0.725c-0.07,0.177,0.205,0.343,0.179,0.413
			c-0.077,0.23-0.384,0.448-0.48,0.66c-0.184,0.422,0.268,3.367,0.346,3.461c0.144,0.173,0.778,0.554,0.806,0.736
			c-0.058-0.318-1.404,1.589-1.536,1.722c-0.103,0.106-0.186-0.036-0.289,0.012c-0.282,0.112-0.944,0.978-1.351,0.778
			c-0.069-0.165-0.15-0.324-0.243-0.478c-0.262-0.224-0.666-0.265-0.922,0.006c-0.153,0.169-0.478,0.74-0.723,0.696
			c-0.811-0.094-1.312-2.075-1.479-2.571c0.352-0.166,1.09-0.454,1.312-0.813c0.77-1.181-0.392-2.257-0.627-3.331
			c-0.139-1.026-1.206-1.491-1.293-2.465c-0.013-0.124,0.339-0.383,0.327-0.601c-0.006-0.07-0.224-0.283-0.179-0.401
			c0.044-0.124,0.269-0.401,0.262-0.537c-0.012-0.183-0.352-0.578-0.396-0.772c-0.02-0.095,0.134-0.171,0.096-0.236
			c-0.574-1.06-1.141-2.303-1.767-3.284c-0.669-1.079-1.283-1.313-2.318-1.946c-0.038-0.023-0.076-0.17-0.102-0.176
			c0.021,0.003-1.173-0.638-0.992-0.696c-0.084-0.038-1.159-0.41-1.159-0.401c0.045-0.1,0.032-0.183,0.039-0.283
			c-0.23-0.224-0.252-0.292-0.486-0.436c-0.268-0.02-0.906,0.571-1.069,0.478c-0.508-0.292-1.376,0.046-1.779-0.372
			c-0.051-0.053,0.141-0.643-0.384-0.885c0.122-0.094,0.25-0.159,0.365-0.248c0.125-0.253,0.001-0.843-0.122-1.084
			c-0.083-0.062-1.045-0.648-1.03-0.82c0.045-0.337,0.614-0.4,0.563-0.772c-0.063-0.41-0.972-1.797-1.056-1.873
			c-0.421-0.378-0.643-1.013-0.781-1.523c-0.631-0.581-2.746-0.958-2.746-2.104c0-0.641-0.214-1.654-0.109-2.235
			c0.084-0.41,1.234-1.37,1.107-1.603c-1.079-0.639-2.231-0.765-3.393-1.132c-0.051-0.041,0.026-0.183,0.032-0.236
			c-0.063-0.017-0.141,0.018-0.217,0c-0.339-0.083-0.211-0.389-0.301-0.589c-0.038-0.047-0.179-0.035-0.243-0.042
			c-0.019-0.006-0.025-0.035-0.019-0.047l0.032-0.023c0.057-0.089-0.147-0.313-0.141-0.342c0.013-0.071,0.429-0.135,0.486-0.142
			c0.125-0.345,0.094-0.574-0.211-0.802c0.062-0.517,0.83-0.493,0.992-1.014c0.181,0.003,0.34-0.01,0.506-0.042
			c0.429-0.091,0.658-0.463,1.076-0.607c0.504,0.219,0.978,0.513,1.427,0.761c0.613,0.326,1.456,0.168,2.131,0.324
			c0.064,0.012,0.115-0.124,0.16-0.118c0.192,0.029,0.199,0.106,0.455,0.082c0.013,0,0.135-0.719,0.256-0.754
			c0.071-0.018,0.263,0.171,0.321,0.183c0.033,0.008-0.175-0.649-0.167-0.701c-0.111,0.406,0.87-0.781,0.832-0.731
			c0.277-0.307,1.136-1.016,1.581-0.878c0.057,0.107,0.279,0.364,0.429,0.324c0.078-0.012,0.405-0.2,0.436-0.283
			c0.229-0.427,0.304-0.35,0.762-0.265c0.163,0.038,0.297-0.003,0.403-0.124L33.784,47.405z"/>
		<g>
			<polygon fill="#FFFFFF" points="58.408,18.113 57.047,13.922 55.686,18.113 51.28,18.113 54.844,20.702 53.482,24.893 
				57.047,22.303 60.611,24.893 59.25,20.702 62.814,18.113 			"/>
			<polygon fill="#FFFFFF" points="72.288,20.56 70.927,16.37 69.565,20.56 65.16,20.56 68.724,23.149 67.362,27.34 70.927,24.75 
				74.491,27.34 73.13,23.149 76.694,20.56 			"/>
			<polygon fill="#FFFFFF" points="89.938,25.38 85.532,25.38 84.171,21.19 82.81,25.38 78.404,25.38 81.968,27.97 80.606,32.16 
				84.171,29.57 87.735,32.16 86.374,27.97 			"/>
			<polygon fill="#FFFFFF" points="44.314,18.113 42.953,13.922 41.591,18.113 37.186,18.113 40.75,20.702 39.389,24.893 
				42.953,22.303 46.518,24.893 45.156,20.702 48.721,18.113 			"/>
			<polygon fill="#FFFFFF" points="30.435,20.56 29.073,16.37 27.711,20.56 23.306,20.56 26.87,23.149 25.509,27.34 29.073,24.75 
				32.638,27.34 31.276,23.149 34.841,20.56 			"/>
			<polygon fill="#FFFFFF" points="17.19,25.38 15.829,21.19 14.467,25.38 10.062,25.38 13.626,27.97 12.265,32.16 15.829,29.57 
				19.394,32.16 18.032,27.97 21.597,25.38 			"/>
		</g>
	</g>
</g>
</svg>
