<?xml version="1.0" encoding="utf-8"?>
<!-- Generator: Adobe Illustrator 16.0.3, SVG Export Plug-In . SVG Version: 6.00 Build 0)  -->
<!DOCTYPE svg PUBLIC "-//W3C//DTD SVG 1.1//EN" "http://www.w3.org/Graphics/SVG/1.1/DTD/svg11.dtd">
<svg version="1.1" id="Layer_1" xmlns="http://www.w3.org/2000/svg" xmlns:xlink="http://www.w3.org/1999/xlink" x="0px" y="0px"
	 width="100px" height="100px" viewBox="0 0 100 100" enable-background="new 0 0 100 100" xml:space="preserve">
<g>
	<defs>
		<circle id="SVGID_17_" cx="50" cy="50" r="50"/>
	</defs>
	<clipPath id="SVGID_2_">
		<use xlink:href="#SVGID_17_"  overflow="visible"/>
	</clipPath>
	<g clip-path="url(#SVGID_2_)">
		<rect x="-26.67" fill="#EC1C2E" width="153.342" height="109.528"/>
		<path fill="#FFFFFF" d="M50.002,54.763"/>
	</g>
	<path clip-path="url(#SVGID_2_)" d="M73.139,66.475c-0.61-0.566-1.395-0.566-2.223,0.262c-0.871,0.088-2.09,0.174-3.749,0.218
		c0.522-0.349,1.267-0.871,2.135-1.392c0.784,0.261,1.613-0.045,1.875-0.655c0.566-0.524,1.219-0.394,2.003-0.262
		c-0.087-1.263-1.045-1.395-2.395-0.872c-0.784-0.434-2.004,0-2.181,1.001c-0.521,0.742-1.568,1.179-2.744,1.961
		c-1.48-0.61-3.353-1.219-5.14-2.132c0.39-0.394,0.784-0.873,1.22-1.311c-2.905-1.451-5.111-2.959-6.101-6.098
		c-0.327-1.045,0.263-0.814,0.524-0.147c0.477,1.223,1.247,2.034,2.466,2.587c0.866,0.389,1.366-0.584,0.729-1.161
		c-0.641-0.586-1.221-1.572-1.25-2.765c-0.018-0.842,0.939-0.731,1.103-0.287c1.394,3.777,3.11,6.361,4.562,5.722
		c1.452-0.64,0.766-1.482,0-1.859c-1.481-0.729-2.324-2.934-2.414-4.066c-0.085-1.133,0.612-1.104,1.074-0.234
		c0.468,0.873,1.746,2.529,3.836,4.854c2.094,2.323,4.999,2.845,6.594,1.45c1.408-1.228,0.054-2.003-1.336-1.653
		c-2.672,0.666-5.43-2.094-7.087-6.363c-0.256-0.661,0.232-0.764,0.521-0.408c3.721,4.562,6.828,4.968,8.599,3.432
		c0.622-0.541,1.337-2.269-1.539-1.717c-3.104,0.597-4.966-1.742-7.144-4.939c-0.971-1.418-0.089-1.452,0.782-0.609
		c0.871,0.844,2.177,1.833,3.631,2.704c1.452,0.871,4.387,0.754,4.765-0.991c0.375-1.74-0.931-1.684-2.355-1.219
		c-2.471,0.809-4.297-0.902-6.068-2.933c-0.791-0.909-0.466-1.452,0.232-1.132c0.697,0.316,2.354,1.104,3.426,1.685
		c1.076,0.58,3.431,0.988,4.562-0.581c1.13-1.567-0.639-2.5-2.063-1.484c-1.423,1.02-4.91,0.089-6.274-1.711
		c-1.366-1.802,0.174-1.454,1.016-1.016c2.134,1.102,4.794,1.221,7.087-0.438c1.041-0.75,0.882-1.304,0.526-1.917
		c-0.205-0.348-0.902-0.436-1.802,0.116c-3.055,1.873-5.49,1.484-7.319-1.042c-0.731-1.007,0.172-1.079,1.016-0.669
		c3.554,1.718,7.203,0.638,8.277-1.918c0.505-1.199-0.639-2.558-1.802-1.045c-1.502,1.956-3.921,2.003-6.39,1.656
		c-1.185-0.167-1.196-1.667,0.058-1.829c2.702-0.348,6.971-2.121,8.248-4.301c1.065-1.804-1.074-3.923-2.204-1.771
		c-1.134,2.152-3.517,3.543-6.129,4.358c-0.923,0.287-1.25,0.262-1.279-0.031c-0.043-0.412-0.348-1.131-0.639-0.927
		c-0.728,0.405-3.34,1.305-4.619,1.769c-1.279,0.464-1.86,1.629-1.8,2.704c0.057,1.074,0.349,2.963-1.539,2.963
		c-3.023,0-1.758-4.882,0.027-6.356c1.381-1.143,2.874-1.692,4.008-1.664c1.134,0.03,2.488-0.433,2.615-1.462
		c0.278-0.055,0.8-0.185,1.337-0.185c0.407,0,1.176-0.423,1.553-0.755c0.376-0.337,0.828-0.873,0.45-1.19
		c-0.375-0.322-0.972,0.216-1.205,0.662c-0.232,0.452-0.735,0.775-0.987,0.806c-0.377,0.042-1.025,0.142-1.374,0.231
		c-0.35,0.086-0.916,0-1.062-0.176c-0.281-0.343,0.031-0.544,0.416-0.681c0.443-0.162,0.908-0.11,1.045,0.175
		c0.098,0.195,0.269,0.375,0.583,0.406c0.348-1.948-1.539-1.857-3.108-1.771c-0.933-1.482-3.342-0.468-4.997,0.318
		c-0.786,0.174-2.121,0.085-2.789-0.202c-0.667-0.293-0.639,0.057-0.406,0.376c0.234,0.321,1.074,0.9,1.424,0.987
		c0.347,0.089,0.232,0.261,0.114,0.408c-0.367,0.458-1.19,0.902-1.568,0.958c-0.377,0.058-0.491,0.232-0.29,0.377
		c0.203,0.143,0.492,0.319,0.784,0.405c0.291,0.089,0.261,0.203,0.089,0.435c-0.36,0.481-1.309,0.96-1.628,0.902
		c-0.319-0.054-0.349,0.118-0.232,0.263c0.114,0.147,0.552,0.345,0.786,0.345c0.229,0,0.252,0.045,0.056,0.292
		c-0.212,0.269-0.684,0.848-1.104,0.727c-0.566-0.166-0.711-0.022-0.533,0.216c0.408,0.566,0.386,0.813-0.426,0.948
		c-0.813-0.136-0.835-0.382-0.427-0.948c0.178-0.238,0.033-0.382-0.533-0.216c-0.417,0.122-0.891-0.458-1.105-0.727
		c-0.192-0.247-0.17-0.292,0.063-0.292c0.23,0,0.666-0.198,0.78-0.345c0.117-0.145,0.089-0.317-0.232-0.263
		c-0.317,0.059-1.266-0.421-1.626-0.902c-0.174-0.232-0.203-0.346,0.087-0.435c0.292-0.085,0.582-0.262,0.786-0.405
		c0.205-0.146,0.087-0.319-0.291-0.377c-0.379-0.056-1.203-0.5-1.569-0.958c-0.12-0.147-0.234-0.319,0.116-0.408
		c0.348-0.087,1.187-0.666,1.422-0.987c0.232-0.319,0.262-0.669-0.406-0.376c-0.668,0.287-2.003,0.376-2.789,0.202
		c-1.653-0.787-4.066-1.801-4.995-0.318c-1.572-0.086-3.458-0.177-3.108,1.771c0.312-0.031,0.482-0.21,0.581-0.406
		c0.138-0.285,0.604-0.336,1.045-0.175c0.385,0.136,0.699,0.337,0.414,0.681c-0.147,0.176-0.711,0.263-1.06,0.176
		c-0.35-0.089-0.997-0.189-1.372-0.231c-0.256-0.031-0.759-0.354-0.989-0.806c-0.234-0.446-0.826-0.983-1.207-0.662
		c-0.375,0.317,0.075,0.853,0.452,1.19c0.375,0.332,1.148,0.755,1.553,0.755c0.537,0,1.062,0.13,1.335,0.185
		c0.134,1.029,1.482,1.492,2.616,1.462c1.134-0.028,2.629,0.521,4.008,1.664c1.785,1.474,3.05,6.356,0.027,6.356
		c-1.887,0-1.597-1.889-1.539-2.963c0.06-1.074-0.522-2.239-1.802-2.704c-1.277-0.464-3.89-1.364-4.618-1.769
		c-0.29-0.204-0.597,0.516-0.638,0.927c-0.029,0.292-0.356,0.317-1.279,0.031c-2.613-0.815-4.995-2.206-6.129-4.358
		c-1.13-2.152-3.269-0.033-2.208,1.771c1.279,2.18,5.548,3.954,8.252,4.301c1.254,0.162,1.243,1.662,0.058,1.829
		c-2.469,0.347-4.884,0.3-6.39-1.656c-1.161-1.513-2.305-0.154-1.802,1.045c1.074,2.556,4.723,3.636,8.277,1.918
		c0.844-0.409,1.747-0.338,1.018,0.669c-1.832,2.527-4.266,2.916-7.321,1.042c-0.9-0.551-1.595-0.464-1.798-0.116
		c-0.363,0.613-0.521,1.167,0.521,1.917c2.295,1.659,4.955,1.539,7.089,0.438c0.844-0.438,2.382-0.786,1.016,1.016
		c-1.366,1.8-4.852,2.73-6.274,1.711c-1.424-1.016-3.195-0.083-2.063,1.484c1.134,1.569,3.485,1.161,4.56,0.581
		c1.076-0.581,2.731-1.369,3.429-1.685c0.697-0.319,1.021,0.224,0.232,1.132c-1.771,2.03-3.598,3.742-6.069,2.933
		c-1.424-0.465-2.734-0.521-2.355,1.219c0.379,1.746,3.311,1.862,4.763,0.991c1.453-0.871,2.762-1.86,3.632-2.704
		c0.871-0.842,1.751-0.809,0.786,0.609c-2.183,3.197-4.041,5.536-7.149,4.939c-2.874-0.552-2.159,1.176-1.539,1.717
		c1.772,1.537,4.879,1.13,8.6-3.432c0.289-0.356,0.777-0.252,0.521,0.408c-1.657,4.27-4.415,7.029-7.087,6.363
		c-1.392-0.35-2.745,0.425-1.335,1.653c1.595,1.396,4.501,0.873,6.594-1.45c2.09-2.324,3.368-3.98,3.834-4.854
		c0.466-0.871,1.165-0.899,1.074,0.234c-0.088,1.132-0.931,3.337-2.411,4.066c-0.766,0.377-1.45,1.219,0,1.859
		c1.452,0.639,3.168-1.945,4.56-5.722c0.165-0.444,1.129-0.555,1.105,0.287c-0.027,1.193-0.61,2.179-1.248,2.765
		c-0.639,0.577-0.138,1.55,0.726,1.161c1.221-0.554,1.988-1.364,2.471-2.587c0.261-0.667,0.847-0.898,0.521,0.147
		c-0.989,3.139-3.195,4.647-6.099,6.098c0.436,0.438,0.826,0.917,1.22,1.311c-1.789,0.913-3.662,1.522-5.143,2.132
		c-1.175-0.782-2.222-1.219-2.743-1.961c-0.174-1.001-1.395-1.436-2.181-1.001c-1.35-0.522-2.31-0.391-2.395,0.872
		c0.784-0.132,1.438-0.263,2.003,0.262c0.261,0.61,1.09,0.916,1.874,0.655c0.87,0.521,1.611,1.043,2.136,1.392
		c-1.655-0.044-2.877-0.129-3.749-0.218c-0.827-0.828-1.611-0.828-2.223-0.262c-1-0.217-1.785,0.251-2.047,1.118
		c0.755-0.087,1.454-0.347,1.945-0.087c0.408,0.757,1.54,0.786,2.266,0.234c1.103-0.029,3.251-0.06,3.747-0.06
		c-0.726,0.435-1.595,0.961-2.033,1.223c-1.714-0.353-2.642,0.316-2.529,1.567c-0.405,0.637-0.374,1.539,0.116,1.947
		c0.118-0.524,0.409-1.194,0.815-1.57c1.045,0.203,1.802-0.149,2.119-1.309c0.669-0.433,1.542-0.989,1.887-1.221
		c0.354-0.23,0.632-0.497,1.428-0.143c0.782,0.347,1.508,0.639,1.974,0.9c0.261,1.018,1.248,1.076,1.887,0.609
		c0.408,0.232,0.757,0.64,0.986,1.078c0.381-0.669,0.176-1.573-0.548-1.804c-0.263-0.783-1.192-1.047-1.86-0.667
		c-0.551-0.234-1.337-0.611-1.686-0.755c1.134-0.408,4.01-1.482,5.026-1.917c0.96,0.724,2.034,1.422,2.816,1.219
		c0.118-0.699,0.476-1.274,0.958-2.266c0.774-1.583,1.729-3.063,2.515-3.976c0.784-0.916,1.581-0.397,1.524,0.868
		c-0.13,3.05-2.382,7.611-5.692,7.785c-1.134,0.061-1.58,0.294-0.959,1.134c0.582,0.784,2.384,0.884,3.387,0.146
		c1-0.742,1.346-0.697,1.145,0.291c-0.203,0.987-1.339,1.362-2.181,1.422c-1.217,0.085-2.613,0.524-1.479,1.571
		c1.132,1.043,2.992,0.464,4.356-1.106c0.474-0.544,0.846-0.697,0.814,0.174c-0.058,1.51-0.959,2.471-1.889,2.675
		c-0.933,0.203-1.86,0.446-1.598,0.989c0.437,0.898,1.887,1.042,2.7,0.609c0.816-0.438,1.689-1.252,1.859-1.747
		c0.178-0.49,0.532-0.209,0.436,0.464c-0.201,1.455-1.217,1.427-1.217,2.617c0,1.194,0.987,2.353,2.148,3.66
		c1.161-1.307,2.15-2.466,2.15-3.66c0-1.19-1.016-1.162-1.217-2.617c-0.098-0.673,0.256-0.954,0.432-0.464
		c0.178,0.495,1.047,1.31,1.861,1.747c0.813,0.432,2.265,0.289,2.7-0.609c0.261-0.543-0.67-0.786-1.601-0.989
		C53.4,75.351,52.5,74.39,52.44,72.88c-0.032-0.871,0.342-0.718,0.815-0.174c1.364,1.571,3.225,2.149,4.356,1.106
		c1.134-1.047-0.261-1.486-1.482-1.571c-0.838-0.06-1.972-0.436-2.175-1.422c-0.205-0.987,0.143-1.033,1.146-0.291
		c1.003,0.739,2.801,0.639,3.382-0.146c0.626-0.84,0.176-1.073-0.956-1.134c-3.313-0.174-5.563-4.735-5.694-7.785
		c-0.053-1.265,0.74-1.784,1.524-0.868c0.785,0.913,1.743,2.393,2.513,3.976c0.484,0.992,0.843,1.567,0.96,2.266
		c0.782,0.203,1.856-0.495,2.815-1.219c1.018,0.436,3.892,1.509,5.026,1.917c-0.349,0.144-1.134,0.521-1.686,0.755
		c-0.667-0.379-1.596-0.116-1.858,0.667c-0.729,0.23-0.931,1.134-0.551,1.804c0.23-0.438,0.579-0.846,0.985-1.078
		c0.641,0.466,1.628,0.408,1.889-0.609c0.468-0.261,1.192-0.553,1.976-0.9c0.798-0.354,1.076-0.087,1.426,0.143
		c0.345,0.232,1.217,0.788,1.885,1.221c0.319,1.16,1.074,1.512,2.121,1.309c0.408,0.376,0.695,1.045,0.813,1.57
		c0.495-0.408,0.522-1.311,0.116-1.947c0.114-1.251-0.813-1.92-2.527-1.567c-0.434-0.262-1.307-0.788-2.033-1.223
		c0.496,0,2.644,0.031,3.747,0.06c0.724,0.551,1.858,0.523,2.266-0.234c0.494-0.259,1.188,0,1.943,0.087
		C74.924,66.726,74.141,66.257,73.139,66.475z M57.7,29.312c0.475-0.235,1.016-0.317,1.423-0.143
		c0.404,0.174,0.493,0.581,0.031,0.728c-0.468,0.146-1.078,0.146-1.396,0.058C57.439,29.867,57.294,29.519,57.7,29.312z
		 M42.245,29.954c-0.317,0.087-0.927,0.087-1.395-0.058c-0.463-0.147-0.377-0.554,0.031-0.728c0.406-0.174,0.945-0.092,1.422,0.143
		C42.709,29.519,42.564,29.867,42.245,29.954z"/>
</g>
</svg>
