<?xml version="1.0" encoding="utf-8"?>
<!-- Generator: Adobe Illustrator 16.0.3, SVG Export Plug-In . SVG Version: 6.00 Build 0)  -->
<!DOCTYPE svg PUBLIC "-//W3C//DTD SVG 1.1//EN" "http://www.w3.org/Graphics/SVG/1.1/DTD/svg11.dtd">
<svg version="1.1" id="Layer_1" xmlns="http://www.w3.org/2000/svg" xmlns:xlink="http://www.w3.org/1999/xlink" x="0px" y="0px"
	 width="100px" height="100px" viewBox="0 0 100 100" enable-background="new 0 0 100 100" xml:space="preserve">
<g>
	<defs>
		<circle id="SVGID_3_" cx="50" cy="50" r="50"/>
	</defs>
	<clipPath id="SVGID_2_">
		<use xlink:href="#SVGID_3_"  overflow="visible"/>
	</clipPath>
	<rect x="11.363" y="-7.627" clip-path="url(#SVGID_2_)" fill="#FFE152" width="74.757" height="112.134"/>
	<g clip-path="url(#SVGID_2_)">
		<g>
			<path fill="#FFE152" d="M45.199,23.274c0.426,0,0.898-0.003,1.101-0.294c0.319,0.423,0.405,0.911,0,1.434
				c-0.203-0.291-0.678-0.294-1.104-0.294v2.398c0,0.339-0.011,0.7,0.236,0.983l-0.657,0.905l-0.657-0.905
				c0.249-0.283,0.232-0.644,0.232-0.983V24.12c-0.425,0-0.896,0.003-1.1,0.294c-0.321-0.421-0.404-0.911,0-1.434
				c0.203,0.291,0.675,0.294,1.1,0.294c0-0.426,0-0.898-0.292-1.1c0.524-0.406,1.012-0.323,1.433,0
				C45.201,22.376,45.199,22.848,45.199,23.274z"/>
		</g>
		<g>
			<path fill="#FBB031" d="M50.51,72.257c0.991-0.72,2.578-1.649,3.522-2.194c-0.893-1.636-2.384-4.801-2.43-7.177
				c0.691,1.834,2.261,4.454,3.65,6.488c0.644-0.396,2.286-1.219,3.34-1.778c-1.876-1.974-4.874-5.719-5.819-8.611
				c-0.851,0.421-1.794,0.911-2.264,1.52c-0.47-0.609-1.415-1.099-2.264-1.52c-0.947,2.892-3.943,6.637-5.819,8.611
				c1.054,0.559,2.696,1.382,3.34,1.778c1.39-2.034,2.958-4.654,3.652-6.488c-0.049,2.376-1.539,5.541-2.43,7.177
				C47.932,70.607,49.518,71.537,50.51,72.257z"/>
			<path fill="#FBB031" d="M39.402,36.898c0,0,0,12.646,0,16.119c0,3.469-0.423,4.523-1.959,6.011
				c-0.142,2.589-0.869,3.632-2.676,4.336c-0.386,1.415-1.181,2.465-2.803,3.139c0,0,0-25.289,0-32.43
				c0-2.876,0.584-3.604,1.352-4.516c1.235-1.464,1.437-1.29,2.054-1.239c1.29,0.094,2.958,1.147,3.44,1.515
				c0.987,0.755,1.072,0.822,0.59,1.979c-0.428,1.025-0.555,1.557-0.311,2.35c2.324-0.403,2.595,1.526,4.52,1.99
				c2.8,0.677,4.338-0.82,4.652-3.338h4.496c0.316,2.518,1.856,4.015,4.654,3.338c1.927-0.464,2.194-2.393,4.521-1.99
				c0.245-0.793,0.116-1.325-0.312-2.35c-0.479-1.158-0.396-1.225,0.59-1.979c0.482-0.368,2.152-1.421,3.44-1.515
				c0.617-0.051,0.818-0.225,2.054,1.239c0.77,0.913,1.354,1.64,1.354,4.516c0,7.141,0,32.43,0,32.43
				c-1.622-0.673-2.417-1.724-2.805-3.139c-1.805-0.704-2.533-1.748-2.672-4.336c-1.541-1.488-1.963-2.542-1.963-6.011
				c0-3.473,0-16.119,0-16.119H39.402z"/>
			<path fill="#FBB031" d="M54.278,35.866c-0.496-0.124-1.132-0.214-1.604-0.515c0.111,0.247,0.247,0.468,0.416,0.664
				c-0.76,0.018-1.248-0.28-1.564-0.755c-0.259,0.276-0.706,0.889-1.016,1.375c-0.41-0.459-0.856-0.965-1.078-1.303
				c-0.185,0.675-1.154,0.733-1.698,0.733c0.049-0.083,0.1-0.165,0.145-0.25c-0.357,0.374-1.25,0.533-1.731,0.546
				c0.917-1.214,1.758-3.85,1.858-6.355c0.067-1.713-0.345-2.33-0.82-2.801c-0.247-0.249-0.445-1.798-0.37-1.883
				c1.471-1.68,3.694-1.165,4.266-0.965c0.568,0.196,1.364,0.816,2.429,0.494c-0.051,0.247-0.274,0.522-0.521,0.646
				c0.569,0.323,0.446,0.719,0.941,1.016c-0.1,0.149-0.421,0.2-0.621,0.174c0.423,0.247,0.249,0.893,0.795,1.19
				c-0.2,0.074-0.372,0.17-0.669,0.023c0.455,0.513,0.236,2.183,0.437,2.656c-0.134-0.018-0.437-0.238-0.437-0.626
				C53.453,31.532,53.333,34.213,54.278,35.866z"/>
		</g>
		<g>
			<path fill="none" d="M47.932,25.297c0.31,0.047,0.421,0.238,0.931,0.247c0.681,0.013,0.904-0.238,1.237-0.234
				c0.267,0,0.653,0.051,0.907,0.252"/>
			<g>
				<path fill="none" d="M48.837,30.675c-0.023,1.45-0.154,3.727-0.918,5.14"/>
				<path fill="none" d="M49.955,30.75c-0.125,1.39-0.2,3.551-0.486,4.583"/>
				<path fill="none" d="M50.92,30.851c0.067,1.314-0.004,3.437,0.642,4.409"/>
				<path fill="none" d="M52.135,31.272c0.08,1.263,0.111,3.055,0.577,4.079"/>
			</g>
			<g>
				<path fill="none" d="M37.443,59.028c0.018-0.327,0.025-0.675,0.025-1.052c0-3.375,0-20.408,0-20.408"/>
				<path fill="none" d="M34.767,63.365c0.383-1.396,0.37-3.146,0.37-5.24c0-3.57,0-20.903,0-20.903"/>
				<path fill="none" d="M39.44,30.374c-2.141,1.363-3.237,3.921-1.851,7.568c0.183-0.704,0.961-2.13,1.726-3.092"/>
				<path fill="none" d="M40.449,36.842C40.5,36,41.817,35.543,41.942,35.22"/>
				<path fill="none" d="M41.813,35.376c0.207,0.46,0.603,1.02,1.06,1.448c0.08-0.276,0.258-0.526,0.423-0.755"/>
				<path fill="none" d="M37.318,28.921c-0.891,1.092-0.742,3.393,0,3.986"/>
				<path fill="none" d="M36.946,29.56c-1.587,1.615-2.486,3.326,0.018,5.136"/>
				<path fill="none" d="M34.682,28.331c-0.447,0.768-0.116,2.941,0.753,3.485"/>
				<path fill="none" d="M32.657,30.452c-0.149,1.016,0.125,1.785,0.72,2.48c0.297-0.593,0.818-1.388,1.511-1.734"/>
				<path fill="none" d="M35.451,32.774c-1.462,1.764-1.404,2.912-0.016,4.919c0.247-1.265,0.651-2.564,1.431-3.072"/>
				<path fill="none" d="M33.658,32.435c-0.2,0.871,0.163,1.738,0.735,2.159"/>
				<path fill="none" d="M33.226,32.785c-1.09,1.263-1.981,2.453-0.247,5.057c0.76-0.979,0.61-2.211,1.363-2.752"/>
				<path fill="none" d="M39.088,34.163c0.183,0.564,0.572,1.95,1.434,2.736"/>
			</g>
			<g>
				<path fill="none" d="M63.579,59.028c-0.018-0.327-0.027-0.675-0.027-1.052c0-3.375,0-20.408,0-20.408"/>
				<path fill="none" d="M66.251,63.365c-0.384-1.396-0.368-3.146-0.368-5.24c0-3.57,0-20.903,0-20.903"/>
				<path fill="none" d="M61.579,30.374c2.139,1.363,3.239,3.921,1.849,7.568c-0.182-0.704-0.962-2.13-1.726-3.092"/>
				<path fill="none" d="M60.569,36.842c-0.051-0.842-1.368-1.299-1.494-1.622"/>
				<path fill="none" d="M59.204,35.376c-0.203,0.46-0.602,1.02-1.06,1.448c-0.08-0.276-0.257-0.526-0.423-0.755"/>
				<path fill="none" d="M63.7,28.921c0.891,1.092,0.742,3.393,0.002,3.986"/>
				<path fill="none" d="M64.072,29.56c1.587,1.615,2.485,3.326-0.017,5.136"/>
				<path fill="none" d="M66.338,28.331c0.444,0.768,0.114,2.941-0.753,3.485"/>
				<path fill="none" d="M68.361,30.452c0.149,1.016-0.122,1.785-0.719,2.48c-0.299-0.593-0.818-1.388-1.513-1.734"/>
				<path fill="none" d="M65.567,32.774c1.462,1.764,1.406,2.912,0.018,4.919c-0.249-1.265-0.653-2.564-1.432-3.072"/>
				<path fill="none" d="M67.36,32.435c0.201,0.871-0.164,1.738-0.735,2.159"/>
				<path fill="none" d="M67.792,32.785c1.092,1.263,1.983,2.453,0.249,5.057c-0.762-0.979-0.611-2.211-1.364-2.752"/>
				<path fill="none" d="M61.931,34.163c-0.187,0.564-0.575,1.95-1.435,2.736"/>
			</g>
		</g>
		<path fill="#EC1C2E" d="M39.402,47.264c0-4.424,0-10.366,0-10.366h22.213c0,0,0,5.942,0,10.366H39.402z"/>
		<path fill="#3395B7" d="M61.616,47.264c0,2.206,0,4.035,0,4.561c0,2.68-0.542,4.215-2.974,5.008
			c-2.429,0.794-7.04,2.233-8.132,3.672c-1.09-1.438-5.704-2.877-8.134-3.672c-2.429-0.793-2.974-2.328-2.974-5.008
			c0-0.526,0-2.355,0-4.561H61.616z"/>
		<g>
			<path fill="#FFE152" d="M50.51,58.644c0.57,0,1.288-0.174,1.437-0.494c0.149-0.323,0.297-0.597,1.042-0.622
				c0.5-0.017,0.867-0.317,0.867-0.842c0-0.593-0.023-0.844-0.744-1.437c-0.719-0.597-0.67-1.043-0.67-1.589
				c0-0.546,0-2.179,0-2.727c0-2.533,2.212-2.638,3.696-2.638c-0.319-0.403-0.643-0.911-0.933-1.394
				c3.716-1.488,5.171-7.125-0.285-9.01c2.246,2.446,1.428,5.947-0.143,6.053c-0.544,0.036-0.528,0.221-0.637,0.444
				c-0.141,0.289-0.513,0.446-0.825,0.446c-0.829,0-0.671-0.571-1.328-0.571c-0.659,0-0.831,0.571-1.477,0.571
				c-0.647,0-0.82-0.571-1.475-0.571c-0.659,0-0.5,0.571-1.33,0.571c-0.314,0-0.686-0.158-0.828-0.446
				c-0.109-0.223-0.091-0.408-0.637-0.444c-1.571-0.105-2.388-3.607-0.144-6.053c-5.456,1.885-3.999,7.522-0.285,9.01
				c-0.292,0.483-0.611,0.991-0.933,1.394c1.484,0,3.696,0.105,3.696,2.638c0,0.548,0,2.181,0,2.727
				c0,0.546,0.049,0.992-0.669,1.589c-0.72,0.593-0.746,0.844-0.746,1.437c0,0.524,0.37,0.825,0.867,0.842
				c0.748,0.025,0.896,0.299,1.043,0.622C49.22,58.469,49.937,58.644,50.51,58.644z"/>
			<path fill="#FFE152" d="M42.006,54.024c-0.593,0.04-1.108-0.41-1.152-1.005c-0.04-0.599,0.41-1.114,1.005-1.152
				c-0.221-0.557,0.045-1.187,0.601-1.406c0.555-0.225,1.183,0.043,1.406,0.597c0.459-0.383,1.141-0.321,1.524,0.136
				s0.323,1.14-0.136,1.524c0.506,0.314,0.661,0.983,0.343,1.488c-0.318,0.508-0.985,0.661-1.492,0.345
				c-0.145,0.577-0.733,0.929-1.312,0.786C42.215,55.189,41.863,54.601,42.006,54.024z"/>
			<path fill="#FFE152" d="M59.433,51.031c-1.161-1.127-2.999-1.015-3.964,0.366c-0.711,1.016-0.695,2.947,1.065,3.789
				C55.715,53.487,56.831,50.945,59.433,51.031z"/>
			<polygon fill="#FFE152" points="50.51,38.227 51.052,39.085 52.072,38.871 51.853,39.871 52.716,40.431 51.858,40.976 
				52.072,41.993 51.07,41.774 50.51,42.637 49.949,41.774 48.948,41.993 49.162,40.976 48.304,40.431 49.169,39.871 48.948,38.871 
				49.967,39.085 			"/>
			<path fill="#FFE152" d="M47.708,50.671c0,0.443,0,2.769,0,3.073c0,0.303-0.112,0.726-0.434,0.793l-0.697-3.801L47.708,50.671z"/>
			
				<rect x="46.68" y="49.367" transform="matrix(-0.7058 0.7084 -0.7084 -0.7058 115.5222 51.5261)" fill="#FFE152" width="0.766" height="0.766"/>
			<path fill="#FFE152" d="M53.311,50.671c0,0.443,0,2.769,0,3.073c0,0.303,0.111,0.726,0.432,0.793l0.697-3.801L53.311,50.671z"/>
			
				<rect x="53.573" y="49.366" transform="matrix(0.7071 0.7071 -0.7071 0.7071 50.9819 -23.5821)" fill="#FFE152" width="0.767" height="0.767"/>
			<path fill="#FFE152" d="M44.898,47.264c-1.161,0.484-2.322,1.368-2.322,1.368s-1.163-0.883-2.324-1.368
				c1.161-0.485,2.324-1.368,2.324-1.368S43.737,46.779,44.898,47.264z"/>
			<path fill="#FFE152" d="M56.122,47.264c1.161,0.484,2.322,1.368,2.322,1.368s1.16-0.883,2.323-1.368
				c-1.163-0.485-2.323-1.368-2.323-1.368S57.283,46.779,56.122,47.264z"/>
		</g>
		<g>
			<path fill="#EC1C2E" d="M47.186,27.205c0-0.619,0.548-0.867,1.711-0.247c0.104-0.432-1.33-0.653-1.675-1.433
				c-0.348-0.78-2.58-1.023-3.037,0.544c0.758-0.564,2.486-0.421,2.69,0.203c-0.297-0.218-1.359,0.021-1.678-0.082v0.328
				C45.354,26.62,46.613,26.432,47.186,27.205z"/>
		</g>
		<path d="M49.998,25.898c-0.236-0.354-0.657-0.374-1.014-0.354c-0.448,0.023-0.448,0.234-0.682,0.283
			c0.176,0.105,0.316,0.446,0.753,0.459C49.51,26.297,49.566,25.891,49.998,25.898z"/>
		<path fill="#FFFFFF" d="M49.227,26.12c-0.056,0.062-0.138,0.103-0.229,0.103c-0.165,0-0.299-0.134-0.299-0.301
			c0-0.165,0.134-0.301,0.299-0.301c0.1,0,0.187,0.049,0.241,0.125c-0.112,0-0.168,0.183-0.265,0.183
			C49.087,25.929,49.069,26.12,49.227,26.12z"/>
		<g>
			<path fill="#009370" d="M38.844,63.539c0.479,0.965,1.36,2.168,2.104,2.609c0.633,0.375-0.542,0.871-0.711,0.718
				c-0.437-0.388-1.288-1.517-1.756-2.573c-1.208-2.727-2.859-5.592-4.109-6.909c-1.248-1.319-4.645-6.629-5.822-7.807
				c-0.33-0.332-0.461-1.083,0.713,0.394c1.17,1.48,5.021,6.474,6.015,7.78C36.274,59.057,38.129,62.093,38.844,63.539z"/>
			<path fill="#009370" d="M26.414,47.687c0.194,0.55,0.862,1.903,2.302,2.078C28.467,48.512,26.979,47.616,26.414,47.687z"/>
			<path fill="#009370" d="M27.275,47.057c-0.044,0.735,0.615,2.141,1.6,2.52C28.992,48.759,28.131,47.182,27.275,47.057z"/>
			<path fill="#009370" d="M29.033,49.63c-0.021,1.032,0.671,2.333,1.666,2.609C30.71,51.288,29.919,49.848,29.033,49.63z"/>
			<path fill="#009370" d="M31.735,52.877c-0.118-1.136-0.851-2.772-1.847-3.073C29.957,50.947,30.285,52.74,31.735,52.877z"/>
			<path fill="#009370" d="M28.694,51.058c1.005-0.148,2.032,0.851,2.471,1.615C29.481,52.471,29.053,51.782,28.694,51.058z"/>
			<path fill="#009370" d="M31.697,53.044c-1.082-1.546,0.051-2.689-0.089-3.121C32.272,50.679,32.528,52.221,31.697,53.044z"/>
			<path fill="#009370" d="M31.697,53.044c-0.961-1.412-2.299-1.139-3.115-0.889C29.416,53.055,30.729,53.44,31.697,53.044z"/>
			<path fill="#009370" d="M31.51,53.473c1.758,0.541,3.056,2.504,3.266,3.926C33.094,56.873,31.573,54.743,31.51,53.473z"/>
			<path fill="#009370" d="M34.974,57.722c-0.608-1.215-1.873-2.304-3.819-2.09C32.005,56.985,33.781,57.974,34.974,57.722z"/>
			<path fill="#009370" d="M33.877,53.723c1.37,1.125,1.354,3.032,1.096,3.999C32.951,56.093,34.139,54.638,33.877,53.723z"/>
			<path fill="#009370" d="M35.171,58.041c0.14,1.436,1.012,2.934,2.239,2.929C37.419,59.513,36.498,58.372,35.171,58.041z"/>
			<path fill="#009370" d="M37.552,61.071c-1.132-1.034-2.805-0.809-3.398-0.421C35.338,61.703,36.949,61.412,37.552,61.071z"/>
			<path fill="#009370" d="M37.468,61.186c-0.504-1.027-0.679-2.03-0.076-3.046c0.181,0.726,1.43,1.695,0.065,2.974"/>
			<path fill="#009370" d="M34.604,57.602c-0.748,0.113-0.592,1.163,0.158,1.051C35.507,58.545,35.351,57.492,34.604,57.602z"/>
			<path fill="#009370" d="M35.364,56.989c-0.748,0.113-0.59,1.165,0.156,1.052C36.267,57.929,36.111,56.876,35.364,56.989z"/>
			<path fill="#009370" d="M30.896,53.066c-0.749,0.11-0.591,1.161,0.156,1.05C31.798,54.006,31.644,52.954,30.896,53.066z"/>
			<path fill="#009370" d="M31.898,52.716c-0.747,0.112-0.591,1.163,0.156,1.05C32.8,53.654,32.644,52.605,31.898,52.716z"/>
			<path fill="#009370" d="M28.545,49.3c-0.626,0.092-0.496,0.974,0.132,0.882C29.304,50.087,29.173,49.207,28.545,49.3z"/>
			<path fill="#009370" d="M29.031,48.898c-0.562,0.085-0.444,0.871,0.115,0.79C29.705,49.603,29.59,48.817,29.031,48.898z"/>
			<path fill="#009370" d="M37.853,60.582c-0.748,0.109-0.592,1.161,0.156,1.048C38.756,61.521,38.601,60.469,37.853,60.582z"/>
			<path fill="#009370" d="M37.063,60.997c-0.748,0.113-0.591,1.163,0.154,1.051C37.965,61.938,37.81,60.886,37.063,60.997z"/>
		</g>
		<g>
			<path fill="#FFE152" d="M64.099,62.192c0.078,0.519-0.678,1.069-1.221,1.724c-0.757,0.915-1.11,2.143-1.742,2.479
				c0.112,0.221,0.018,0.552-0.205,0.794c-0.303,0.331-0.699,0.113-1.065,0.371c0.12-0.434-0.216-0.733-0.009-1.129
				c0.152-0.29,0.434-0.49,0.679-0.461c0.107-0.708,1.143-1.455,1.749-2.473c0.434-0.731,0.697-1.627,1.212-1.728"/>
			<circle fill="#FFE152" cx="64.241" cy="61.352" r="0.846"/>
			<path fill="#FFE152" d="M68.681,55.683l-1.637,2.33c-0.7,0.994-0.604,1.784-1.197,2.624C65.56,61.042,65,61.14,64.591,60.854
				c-0.404-0.287-0.502-0.849-0.216-1.254c0.592-0.84,1.368-1.018,2.068-2.01l1.642-2.324"/>
			<path fill="#FFE152" d="M67.162,56.035c-0.21,0.299,0.885,1.072,1.096,0.773C68.472,56.506,67.374,55.733,67.162,56.035z"/>
			<path fill="#FFE152" d="M67.441,55.639c-0.208,0.301,0.885,1.07,1.096,0.771C68.75,56.111,67.654,55.338,67.441,55.639z"/>
			<path fill="#FFE152" d="M67.721,55.242c-0.21,0.299,0.886,1.074,1.098,0.773C69.029,55.715,67.933,54.94,67.721,55.242z"/>
			<path fill="#FFE152" d="M68.361,55.505c0.406,0.287,0.969,0.188,1.255-0.218c0.592-0.842,0.301-1.357,1.001-2.348
				c0.296-0.421,0.721-0.78,1.127-0.815c-0.055-0.276-0.258-0.633-0.456-0.773c-0.2-0.143-0.604-0.212-0.883-0.168
				c0.105,0.392-0.093,0.914-0.389,1.333c-0.698,0.992-1.281,0.893-1.874,1.732C67.859,54.656,67.955,55.218,68.361,55.505z"/>
			<path fill="#FFE152" d="M71.192,51.486c0.31,0.22,0.863,0.196,1.215,0.005c0.102-1.066,1.607-2.121,2.527-1.988
				c0.065-0.675-0.459-1.561-0.981-1.931c-0.526-0.37-1.535-0.564-2.15-0.276c0.434,0.822-0.053,2.595-1.021,3.048
				C70.718,50.74,70.883,51.27,71.192,51.486z"/>
			<path fill="#FFE152" d="M71.192,51.486c0.176,0.124,0.571-0.009,0.858-0.241c0.292-0.936,1.577-2.148,2.201-2.225
				c0.184-0.591-0.005-1.241-0.297-1.448c-0.297-0.207-0.971-0.167-1.464,0.207c0.136,0.611-0.571,2.228-1.354,2.816
				C71.01,50.947,71.018,51.366,71.192,51.486z"/>
			<path fill="#FFE152" d="M73.688,47.295c-0.21,0.299,0.396,0.728,0.608,0.43C74.508,47.424,73.9,46.996,73.688,47.295z"/>
			<path fill="#FFE152" d="M74.078,47.395c1.025,0.152,0.523-0.744,0.971-1.379C74.601,46.651,73.586,46.48,74.078,47.395z"/>
		</g>
		<g>
			<g>
				<path fill="#EC1C2E" d="M37.742,64.223c-0.424,0.644-1.116,0.085-0.794-0.335c0.17-0.223,0.47-0.78,0.767-1.176
					c0.298-0.397,0.621-0.646,0.969-0.619c0.345,0.023,0.595,0.047,0.742-0.1c0.844-0.845,1.589-2.358,2.306-3.498
					c0.595-0.893,1.862,0.25,1.637,0.595c-0.668,1.364-2.602,4.391-3.322,5.258C39.7,64.892,38.089,63.804,37.742,64.223z"/>
				<path fill="#EC1C2E" d="M37.976,63.887c-0.539,0.667-0.559,0.782-0.283,1.005c0.23,0.19,0.419,0.124,0.903-0.461
					c0.483-0.581,0.682-0.791,0.408-1.052C38.776,63.161,38.455,63.299,37.976,63.887z"/>
				<path fill="#EC1C2E" d="M38.566,64.477c-0.33,0.361-0.713,0.59-0.279,0.975c0.223,0.199,0.444,0.123,0.929-0.459
					c0.484-0.583,0.771-0.869,0.446-1.156C39.266,63.492,38.862,64.154,38.566,64.477z"/>
				<path fill="#EC1C2E" d="M39.279,64.943c-0.524,0.522-0.798,0.606-0.335,0.955c0.149,0.11,0.323,0.029,0.831-0.534
					c0.557-0.62,0.621-0.994,0.408-1.177C39.874,63.913,39.589,64.631,39.279,64.943z"/>
			</g>
			<g>
				<path fill="#EC1C2E" d="M63.279,64.223c0.421,0.644,1.114,0.085,0.793-0.335c-0.172-0.223-0.474-0.78-0.77-1.176
					c-0.297-0.397-0.621-0.646-0.967-0.619c-0.347,0.023-0.597,0.047-0.744-0.1c-0.845-0.845-1.585-2.358-2.306-3.498
					c-0.593-0.893-1.861,0.25-1.636,0.595c0.667,1.364,2.604,4.391,3.322,5.258C61.32,64.892,62.929,63.804,63.279,64.223z"/>
				<path fill="#EC1C2E" d="M63.042,63.887c0.541,0.667,0.557,0.782,0.285,1.005c-0.234,0.19-0.421,0.124-0.904-0.461
					c-0.484-0.581-0.684-0.791-0.41-1.052C62.241,63.161,62.564,63.299,63.042,63.887z"/>
				<path fill="#EC1C2E" d="M62.452,64.477c0.33,0.361,0.715,0.59,0.279,0.975c-0.223,0.199-0.446,0.123-0.929-0.459
					c-0.482-0.583-0.771-0.869-0.446-1.156C61.751,63.492,62.158,64.154,62.452,64.477z"/>
				<path fill="#EC1C2E" d="M61.739,64.943c0.524,0.522,0.8,0.606,0.336,0.955c-0.147,0.11-0.323,0.029-0.831-0.534
					c-0.557-0.62-0.619-0.994-0.41-1.177C61.146,63.913,61.431,64.631,61.739,64.943z"/>
			</g>
		</g>
		<g>
			<path fill="#FBB031" d="M45.245,57.794c-0.786,0.882-1.125,2.221-1.678,2.634c0-0.249-0.075-0.718-0.149-0.941
				c-0.247,0.172-0.669,0.347-1.065,0.421c0.051-0.198-0.073-0.942-0.2-1.237c-0.221,0.198-0.893,0.568-1.138,0.47
				c0.365-0.464,0.2-0.907,1.054-2.417C42.781,56.981,44.546,57.528,45.245,57.794z"/>
			<path fill="#FBB031" d="M55.777,57.794c0.784,0.882,1.121,2.221,1.676,2.634c0-0.249,0.073-0.718,0.147-0.941
				c0.249,0.172,0.671,0.347,1.067,0.421c-0.051-0.198,0.075-0.942,0.198-1.237c0.225,0.198,0.895,0.568,1.142,0.47
				c-0.367-0.464-0.204-0.907-1.056-2.417C58.239,56.981,56.474,57.528,55.777,57.794z"/>
		</g>
		<g>
			<path fill="#EC1C2E" d="M38.869,63.776c0.312,0.071,0.633-0.731,0.165-0.979c0.054,0.41-0.388,0.379-0.427,0.568
				C38.568,63.582,38.689,63.735,38.869,63.776z"/>
			<path fill="#EC1C2E" d="M36.886,63.978c-0.294,0.499,0.392,1.372,1.08,0.998c-0.551-0.267-0.22-0.827-0.361-0.987
				C37.39,63.746,37.024,63.746,36.886,63.978z"/>
			<path fill="#EC1C2E" d="M39.509,64.232c0.314,0.069,0.633-0.729,0.165-0.98c0.055,0.41-0.39,0.381-0.424,0.57
				C39.21,64.036,39.33,64.188,39.509,64.232z"/>
			<path fill="#EC1C2E" d="M40.099,64.669c0.314,0.071,0.635-0.728,0.167-0.978c0.052,0.41-0.39,0.377-0.426,0.566
				C39.798,64.475,39.921,64.627,40.099,64.669z"/>
			<path fill="#EC1C2E" d="M62.149,63.776c-0.31,0.071-0.631-0.731-0.165-0.979c-0.053,0.41,0.39,0.379,0.426,0.568
				C62.45,63.582,62.329,63.735,62.149,63.776z"/>
			<path fill="#EC1C2E" d="M64.132,63.978c0.294,0.499-0.39,1.372-1.08,0.998c0.555-0.267,0.22-0.827,0.361-0.987
				C63.629,63.746,63.994,63.746,64.132,63.978z"/>
			<path fill="#EC1C2E" d="M61.51,64.232c-0.314,0.069-0.633-0.729-0.167-0.98c-0.054,0.41,0.39,0.381,0.426,0.57
				C61.812,64.036,61.688,64.188,61.51,64.232z"/>
			<path fill="#EC1C2E" d="M60.919,64.669c-0.312,0.071-0.635-0.728-0.165-0.978c-0.055,0.41,0.39,0.377,0.424,0.566
				C61.218,64.475,61.099,64.627,60.919,64.669z"/>
		</g>
		<g>
			<path d="M48.439,56.695c0.523-0.12,1.009-0.239,1.02,0.049c0.009,0.307-0.299,0.277-0.886,0.27
				C47.934,57.005,47.839,56.831,48.439,56.695z"/>
			<path d="M52.58,56.695c-0.524-0.12-1.011-0.239-1.021,0.049c-0.007,0.307,0.301,0.277,0.887,0.27
				C53.086,57.005,53.179,56.831,52.58,56.695z"/>
		</g>
	</g>
	<rect x="-52.246" y="-7.627" clip-path="url(#SVGID_2_)" fill="#3395B7" width="74.757" height="112.134"/>
	<rect x="78.688" y="-7.627" clip-path="url(#SVGID_2_)" fill="#EC1C2E" width="74.755" height="112.134"/>
</g>
</svg>
