<?xml version="1.0" encoding="utf-8"?>
<!-- Generator: Adobe Illustrator 16.0.3, SVG Export Plug-In . SVG Version: 6.00 Build 0)  -->
<!DOCTYPE svg PUBLIC "-//W3C//DTD SVG 1.1//EN" "http://www.w3.org/Graphics/SVG/1.1/DTD/svg11.dtd">
<svg version="1.1" id="Layer_1" xmlns="http://www.w3.org/2000/svg" xmlns:xlink="http://www.w3.org/1999/xlink" x="0px" y="0px"
	 width="100px" height="100px" viewBox="0 0 100 100" enable-background="new 0 0 100 100" xml:space="preserve">
<g>
	<defs>
		<circle id="SVGID_1_" cx="50" cy="50" r="50"/>
	</defs>
	<clipPath id="SVGID_2_">
		<use xlink:href="#SVGID_1_"  overflow="visible"/>
	</clipPath>
	<g clip-path="url(#SVGID_2_)">
		<rect x="-65.76" y="-7.809" fill="#D3AF39" width="231.52" height="115.757"/>
		<rect x="-59.972" y="-2.021" fill="#C32126" width="219.943" height="104.182"/>
		<g>
			<g>
				<path fill="#D4AF39" d="M59.938,49.528c0-2.454,1.13-4.008,1.13-4.008l-3.073-3.52c-2.927,1.132-5.606,1.201-7.994-0.015
					c-2.386,1.216-5.067,1.146-7.994,0.015l-3.073,3.52c0,0,1.132,1.554,1.132,4.008c0,2.455-0.476,4.274-0.751,5.463
					c-0.279,1.188-0.516,3.404,0.116,4.988c0.635,1.584,1.307,2.97,4.039,4.116c2.732,1.15,4.156,1.742,5.107,2.535
					C49.526,67.422,50,68.055,50,68.055s0.476-0.635,1.426-1.424c0.949-0.791,2.373-1.385,5.105-2.535
					c2.732-1.146,3.406-2.532,4.039-4.116c0.631-1.584,0.396-3.8,0.119-4.988c-0.275-1.187-0.75-3.004-0.75-5.463H59.938z"/>
				<path fill="#BA6C29" d="M58.971,50.541c-0.385-2.346,0.967-4.411,0.967-4.411l-2.629-3.073
					c-2.027,1.138-4.849,0.985-7.298-0.144c-2.453,1.129-5.272,1.281-7.299,0.144l-2.629,3.073c0,0,1.35,2.065,0.965,4.411
					c-0.388,2.344-1.218,6.055-1.009,7.567c0.207,1.514,1.275,3.265,2.373,4.185s2.729,1.69,3.887,2.106
					c1.157,0.415,2.286,1.217,2.821,1.633c0.531,0.415,0.889,0.772,0.889,0.772s0.357-0.357,0.892-0.772
					c0.533-0.416,1.662-1.218,2.817-1.633c1.159-0.416,2.792-1.187,3.888-2.106c1.1-0.92,2.166-2.671,2.375-4.185
					c0.205-1.519-0.625-5.227-1.014-7.573L58.971,50.541z"/>
				<path fill="#1D5E90" d="M58.718,50.818c-0.381-2.531,0.761-4.568,0.761-4.568l-2.373-2.646
					c-2.008,1.031-4.445,0.766-7.102-0.156c-2.656,0.922-5.097,1.188-7.105,0.156l-2.373,2.646c0,0,1.143,2.037,0.762,4.568
					c-0.381,2.533-0.963,5.399-0.851,7.082c0.007,0.114,0.021,0.23,0.036,0.35h2.161c0,0,0.127-0.145,0.366-0.248
					c0.243-0.104,0.311-0.173,0.311-0.173s0.045-0.436,0.311-0.527c0.261-0.095,0.377-0.095,0.48-0.095s0.184-0.021,0.309-0.148
					c0.125-0.126,0.47-0.434,0.618-0.871c0.149-0.438,0.239-0.611,0.239-0.898c0-0.286,0.105-0.745,0.105-0.745
					s-0.058-0.139-0.275-0.059s-0.252-0.136-0.275-0.357c-0.022-0.216-0.012-0.664,0.115-0.871s0.173-0.275,0.173-0.275
					l-0.093-0.345c0,0-1.375,0.275-1.615-0.793s-0.286-1.586-0.32-1.7c-0.035-0.116-0.069-0.171-0.252-0.161
					c-0.184,0.011-0.574-0.114-0.848-0.666c-0.275-0.552-0.3-0.78-0.22-1c0.082-0.218,0.232-0.138,0.276-0.068
					c0.045,0.068,0.413,0.597,0.563,0.448c0.148-0.149,0.068-0.149-0.139-0.563c-0.207-0.414-0.138-0.552-0.114-0.759
					s-0.069-0.484-0.069-0.597c0-0.114,0.126-0.209,0.253-0.151c0.127,0.059,0.239,0.151,0.298,0.22
					c0.058,0.067,0.079,0.173,0.193,0.104c0.114-0.068,0.046-0.45,0.046-0.575s0.15-0.218,0.333-0.114
					c0.184,0.104,0.274,0.298,0.274,0.436c0,0.14,0.013,0.265,0.082,0.265c0.067,0,0.146-0.206,0.159-0.345
					c0.012-0.138,0.091-0.345,0.218-0.172c0.126,0.172,0.171,0.426,0.126,0.689c-0.046,0.263,0.045,0.127-0.046,0.586
					s-0.138,0.666-0.127,1.013c0.013,0.343,0.025,0.537,0.196,0.963c0.17,0.427,0.309,0.918,0.629,0.931
					c0.321,0.011,0.412,0.011,0.412,0.011s0.355-0.689,0.631-0.851c0.274-0.159,0.664-0.184,0.94-0.218
					c0.272-0.034,0.388-0.114,0.388-0.183c0-0.069-0.09-0.093-0.424-0.141c-0.332-0.045-0.606-0.125-0.617-0.379
					c-0.013-0.252,0.057-0.47-0.161-0.482c-0.216-0.011-0.757-0.184-0.949-0.539c-0.196-0.354-0.148-0.438-0.127-0.63
					c0.023-0.195,0.274-0.588,0.436-0.221c0.159,0.368,0.263,0.413,0.401,0.497c0.138,0.078,0.318,0.102,0.229-0.152
					c-0.091-0.252-0.149-0.414-0.125-0.596c0.021-0.185,0.148-0.265,0.297-0.299s0.596-0.173,0.824-0.22
					c0.23-0.045,0.241-0.067,0.241-0.067s0.023-0.161,0.321-0.252c0.297-0.093,0.491-0.105,0.709-0.105s0.377,0.036,0.664-0.104
					c0.287-0.138,0.516-0.159,0.698-0.148c0.184,0.011,0.319,0.082,0.458,0.173c0.138,0.092,0.092,0.221,0.092,0.345
					c0,0.127,0.023,0.195,0.216,0.195c0.196,0,0.37,0,0.552,0.069c0.186,0.068,0.436,0.17,0.275,0.366
					c-0.159,0.196-0.17,0.414-0.275,0.403c-0.102-0.012-0.091,0.103-0.137,0.172c-0.045,0.067-0.081,0.125,0.035,0.196
					c0.112,0.066,0.123,0.138,0.287,0.284c0.159,0.151,0.398,0.313,0.159,0.552c-0.239,0.243-0.664,0.438-0.664,0.438
					s-0.241,0.116,0.032,0.277c0.276,0.16,0.403,0.494,0.505,0.55c0.105,0.059,0.207,0.15,0.276,0.184
					c0.068,0.036,0.058,0.265,0.058,0.265s-0.151,0.105-0.356,0.186c-0.206,0.079-0.424,0.172-0.618,0.172s-0.298,0-0.218,0.184
					c0.08,0.185,0.218,0.379,0.252,0.482c0.035,0.104,0.08,0.286,0.08,0.286s0.319,0.069,0.607,0.069
					c0.285,0,0.412,0.011,1.042-0.058c0.63-0.067,0.813-0.091,1.421-0.022c0.607,0.067,0.698,0.048,0.857,0.104
					c0.162,0.057,0.322,0.138,0.322,0.138s0.859-0.013,1.328-0.114c0.467-0.104,0.584-0.402,0.515-0.563
					c-0.069-0.16-0.056-0.401-0.882-0.516c-0.824-0.116-1.156-0.071-1.809-0.198c-0.651-0.127-1.673-0.459-1.856-1.273
					c-0.181-0.816,0.481-1.159,0.815-1.32c0.332-0.162,1.054-0.414,1.386-0.552s0.938-0.276,1.58-0.184
					c0.641,0.091,1.007,0.264,1.259,0.114c0.252-0.148,0.457-0.036,0.412,0.196c-0.045,0.229-0.297,0.7-1.018,0.918
					c-0.723,0.218-1.594,0.241-2.063,0.114c-0.471-0.125-0.824-0.311-1.111-0.207c-0.286,0.104-0.607,0.461-0.297,0.886
					c0.311,0.426,1.889,0.552,2.313,0.597c0.426,0.047,1.992-0.068,2.441,0.711c0.445,0.782,0.088,1.655-0.436,1.851
					c-0.528,0.194-0.975,0.323-1.374,0.38c-0.403,0.056-0.403,0.056-0.403,0.056s0.184,0.416,0.184,0.588
					c0,0.171-0.023,0.494,0.173,0.619c0.194,0.129,0.472,0.22,0.802,0.187c0.332-0.036,0.732,0.192,0.756,0.492
					c0.022,0.299,0.115,0.711,0.147,1.31c0.036,0.597,0,1.091,0,1.091s-0.021,0.232-0.102,0.448
					c-0.079,0.219-0.493,1.064-0.493,1.064h2.308c0.015-0.119,0.029-0.235,0.036-0.352c0.095-1.704-0.49-4.568-0.867-7.102
					L58.718,50.818z"/>
				<path fill="#6E8B3D" d="M40.747,59.373c0.451,1.294,1.382,2.602,2.801,3.457c1.975,1.187,2.825,1.03,4.685,2.24
					c1.858,1.208,1.748,1.41,1.771,1.41c0.021,0-0.091-0.202,1.769-1.41c1.858-1.212,2.709-1.054,4.681-2.24
					c1.421-0.855,2.352-2.163,2.804-3.457H40.75H40.747z"/>
				<path fill="#D4AF39" d="M42.359,49.395c0.213,0.223,0.369,0.29,0.691,0.256c0.323-0.033,0.401,0.201,0.457,0.457
					c0.055,0.258,0.055,0.858,0.291,1.415c0.232,0.559,1.012,0.592,1.012,0.592c0.022-0.269,0.116-0.632,0.236-0.926
					c0.02-0.053,0.119-0.301-0.158-0.301s-0.267-0.112-0.434-0.379c-0.167-0.268-0.49-0.98-0.569-1.438
					c-0.076-0.457,0.069-1.138,0.146-1.383c0.079-0.244,0.09-0.411,0-0.455c-0.09-0.045-0.268,0-0.268,0s0.067,0.211-0.011,0.243
					c-0.078,0.034-0.146-0.11-0.201-0.265c-0.055-0.156-0.122-0.135-0.232-0.124c-0.112,0.012-0.112,0.113-0.032,0.222
					c0.076,0.112,0.032,0.313,0.032,0.313s-0.247-0.178-0.347-0.222c-0.1-0.045-0.334,0.044-0.357,0.178
					c-0.021,0.133,0.091,0.479,0.302,0.657c0.212,0.178,0.212,0.546,0.145,0.715c-0.067,0.165-0.377,0.143-0.446,0.066
					c-0.064-0.079-0.199-0.102-0.288,0c-0.091,0.101-0.182,0.158,0.032,0.38V49.395z"/>
				<path fill="#D4AF39" d="M42.236,48.805c0,0-0.121-0.1-0.167-0.156c-0.046-0.056-0.132-0.178-0.132-0.178
					s-0.024,0.055-0.024,0.188c0,0.135,0.144,0.279,0.144,0.279L42.236,48.805L42.236,48.805z"/>
				<path fill="#D4AF39" d="M42.704,47.255c0.101-0.043,0.179-0.065,0.101-0.178s-0.146-0.233-0.224-0.256
					c-0.078-0.021-0.144-0.011-0.144-0.011s0.088,0.201,0.109,0.325c0.021,0.121,0.058,0.163,0.156,0.121L42.704,47.255z"/>
				<path fill="#D4AF39" d="M43.287,46.787c-0.012,0.098,0.011,0.144,0.098,0.098c0.091-0.043,0.123-0.163,0.08-0.254
					c-0.046-0.091-0.146-0.157-0.146-0.157l-0.067-0.046c-0.007,0,0.04,0.258,0.029,0.355L43.287,46.787z"/>
				<path fill="#D4AF39" d="M44.117,46.92c0.012-0.111-0.032-0.234-0.032-0.234s0,0.133-0.056,0.212
					c-0.057,0.078-0.046,0.057,0.011,0.124C44.094,47.088,44.105,47.03,44.117,46.92L44.117,46.92z"/>
				<path fill="#D4AF39" d="M45.428,52.586c0.163,0.379,0.58-0.216,0.958-0.697c0.379-0.482,0.366-0.114,0.315,0.278
					c-0.051,0.394,0.102,0.811,0.252,1.075c0.151,0.266,0.278,0.114,0.34-0.076c0.065-0.188,0.114-0.58,0.239-0.771
					c0.127-0.19,0.254-0.025,0.265,0.14c0.015,0.163,0.215,0.531,0.406,0.744c0.188,0.218,0.276-0.075,0.34-0.34
					c0.063-0.267,0.138-0.671,0.188-0.836c0.051-0.164,0.229-0.025,0.229-0.025s0.127,0.127,0.377,0.366
					c0.254,0.241,0.277-0.138,0.303-0.327c0.025-0.19-0.038-0.607,0.038-0.671s0.29,0.089,0.619,0.254
					c0.326,0.163,0.313-0.152,0.277-0.33c-0.04-0.176-0.227-0.58-0.493-0.81c-0.264-0.227-0.302-0.493-0.213-0.607
					c0.088-0.112,0.403-0.013,0.604-0.036c0.203-0.027,0.304-0.051,0.454-0.076c0.152-0.023,0.152-0.176,0.152-0.176
					s-0.115-0.19-0.327-0.382c-0.218-0.19-0.341-0.341-0.606-0.404c-0.265-0.063-0.631,0-0.631,0s0,0-0.036-0.076
					c-0.04-0.074-0.114-0.074-0.165,0c-0.051,0.076-0.176,0.178-0.277,0.265c-0.102,0.089-0.164,0.14-0.229,0.101
					c-0.063-0.037,0.051-0.124,0.051-0.124s0.139-0.102,0.266-0.355c0.126-0.254,0.164-0.495,0.063-0.607
					c-0.1-0.114-0.379,0-0.528,0c-0.152,0-0.241,0.025-0.254-0.051c-0.013-0.075,0.152-0.038,0.341-0.063
					c0.189-0.025,0.303-0.253,0.367-0.443c0.062-0.188,0.112-0.165,0.225-0.051c0.114,0.114,0.218,0.089,0.239,0.013
					c0.025-0.076,0.127-0.265,0.254-0.455s0.203-0.455,0.062-0.632c-0.138-0.178-0.479-0.152-0.616-0.038
					c-0.138,0.113-0.228,0.228-0.265,0.505c-0.037,0.279-0.113,0.127-0.113,0.038s-0.115-0.227-0.064-0.341
					c0.051-0.113,0-0.24,0-0.24s-0.024-0.241-0.289-0.292c-0.267-0.053-0.568,0.013-0.833,0.076s-0.214,0.292-0.214,0.292
					s-0.203,0.012-0.417,0.037s-0.467,0.112-0.668,0.163s-0.277,0.078-0.277,0.178c0,0.102,0.038,0.267,0.038,0.267
					s0.163,0,0.252,0.051c0.087,0.051,0.038,0.14-0.063,0.176c-0.102,0.038-0.138,0.051-0.138,0.178s0.051,0.152,0.15,0.152
					s0.314,0,0.568,0.113c0.252,0.114,0.315,0.341,0.29,0.468s-0.38,0.29-0.556,0.29c-0.178,0-0.227,0.04-0.227,0.152
					c0,0.114,0.214,0.102,0.214,0.102s0.214,0.013,0.63,0.062c0.417,0.051,0.48,0.142,0.67,0.306
					c0.188,0.165,0.049,0.203-0.039,0.254s-0.227,0.163-0.366,0.214c-0.138,0.051-0.225,0.152-0.352,0.178s-0.442,0.013-1.023,0.239
					c-0.581,0.229-0.78,0.989-0.78,0.989s0.074-0.027,0.34-0.165c0.266-0.14,0.593-0.292,0.895-0.481
					c0.303-0.19,0.303,0.089,0.152,0.354c-0.152,0.265,0.138,0.214,0.227,0.14c0.089-0.076,0.203-0.152,0.491-0.305
					c0.29-0.151,0.188,0.089,0.188,0.089s-0.087,0.178-0.112,0.595s0.417,0.025,0.619-0.241c0.201-0.265,0.29,0,0.138,0.305
					c-0.15,0.303-0.441,0.543-0.604,0.543c-0.165,0-0.29-0.177-0.305-0.276c-0.011-0.104,0.051-0.406-0.049-0.482
					c-0.1-0.074-0.392,0.015-0.604,0.14c-0.216,0.127-0.267,0.027-0.315-0.089c-0.051-0.114,0.072-0.152,0.023-0.227
					c-0.049-0.076-0.163,0-0.252,0.038c-0.089,0.036-0.29,0.152-0.681,0.354c-0.392,0.201-0.366,0.315-0.366,0.606
					c0,0.29,0.072,0.357,0.235,0.738L45.428,52.586z"/>
				<path fill="#D4AF39" d="M49.211,46.25c0.081-0.051,0.232-0.112,0.232-0.112s0.185-0.044,0.357-0.067
					c0.17-0.021,0.141-0.118,0.104-0.199c-0.037-0.082-0.104-0.112-0.325-0.112c-0.226,0-0.368,0.112-0.493,0.163
					c-0.127,0.053-0.276,0.089-0.276,0.089s0.029,0.038,0.112,0.157c0.08,0.127,0.207,0.142,0.283,0.089L49.211,46.25z"/>
				<path fill="#D4AF39" d="M50.123,47.155c0.089,0,0.186-0.053,0.186-0.053s0.163-0.083,0.313-0.134
					c0.149-0.053,0.209-0.076,0.296-0.254c0.091-0.178-0.094-0.178-0.355-0.245c-0.262-0.069-0.389,0.021-0.418,0.118
					c-0.028,0.098-0.021,0.21-0.125,0.396c-0.106,0.185,0.013,0.17,0.104,0.17V47.155z"/>
				<path fill="#D4AF39" d="M50.04,47.382c-0.253,0-0.535,0.38-0.641,0.446c-0.104,0.069-0.046,0.135-0.046,0.135
					s0.076,0.158,0.105,0.305c0.029,0.152,0.037,0.402,0.037,0.402s0.037,0.015,0.185,0.015c0.15,0,0.239-0.074,0.381-0.178
					s0.254-0.142,0.454-0.178c0.203-0.038,0.299-0.076,0.521-0.194c0.226-0.117-0.119-0.328-0.357-0.521
					c-0.237-0.185-0.386-0.225-0.64-0.225V47.382z"/>
				<path fill="#D4AF39" d="M46.672,48.259c0.202-0.023,0.289-0.124,0.289-0.234s-0.1-0.234-0.355-0.212
					c-0.628,0.056-1.236-0.169-1.348-0.791c0,0-0.213,0.39,0.178,0.825c0.393,0.434,1.037,0.434,1.24,0.412H46.672z"/>
				<path fill="#D4AF39" d="M44.535,58.142c0.031,0.054,0.07,0.089,0.11,0.11h0.96c0.165-0.045,0.165-0.197,0.174-0.301
					c0.01-0.126,0.105-0.478,0.236-1.116c0.135-0.639,0.363-1.096,0.457-1.354c0.095-0.258-0.094-0.341-0.161-0.504
					c-0.067-0.162-0.173-0.448-0.202-0.59c-0.026-0.146-0.254-0.125-0.377-0.116c-0.125,0.009-0.145,0.208-0.163,0.4
					c-0.019,0.191-0.104,0.752-0.2,1.238c-0.094,0.485-0.646,1.136-0.798,1.276c-0.152,0.146-0.275,0.202-0.379,0.202
					c-0.105,0-0.332,0-0.446,0.066c-0.114,0.067-0.229,0.247-0.238,0.391c-0.011,0.144,0.22,0.22,0.22,0.22s0.18-0.105,0.245-0.19
					c0.068-0.086,0.222-0.105,0.372-0.133c0.152-0.029,0.171,0.027,0.114,0.104c-0.059,0.072-0.04,0.091,0.076,0.292V58.142z"/>
				<path fill="#D4AF39" d="M43.062,58.091c-0.072,0.025-0.127,0.098-0.159,0.159h0.629c-0.009-0.055-0.025-0.114-0.062-0.159
					C43.394,57.996,43.192,58.043,43.062,58.091z"/>
				<path fill="#D4AF39" d="M43.914,58.072c-0.076,0.042-0.166,0.109-0.214,0.178h0.675c0.025-0.063,0.033-0.148-0.051-0.216
					c-0.152-0.125-0.305-0.021-0.41,0.036V58.072z"/>
				<path fill="#D4AF39" d="M49.782,57.793c-0.072,0-0.14,0.067-0.245,0.142c-0.107,0.072-0.138,0.187-0.154,0.277
					c-0.004,0.017-0.002,0.027,0.004,0.04h0.287c0.011-0.011,0.02-0.023,0.02-0.04c0-0.083,0.031-0.156,0.154-0.261
					c0.127-0.109,0.013-0.158-0.061-0.158H49.782z"/>
				<path fill="#D4AF39" d="M50.349,58.105c0-0.091-0.033-0.171-0.101-0.164c-0.064,0.01-0.172,0.122-0.259,0.189
					c-0.051,0.036-0.087,0.083-0.116,0.121h0.425c0.025-0.051,0.051-0.107,0.051-0.15V58.105z"/>
				<path fill="#D4AF39" d="M52.959,54.982c0.205-0.146,0.172-0.187,0.18-0.343s0.008-0.205-0.074-0.262
					c-0.082-0.058-0.383-0.188-0.67-0.188c-0.285,0-0.823,0.065-1.026,0.203c-0.207,0.14-0.306,0.639-0.306,0.902
					c0,0.259,0.043,0.303,0.117,0.303c0.072,0,0.195-0.188,0.195-0.188s0.269,0.352,0.432,0.599c0.164,0.243,0.09,0.343,0.019,0.531
					c-0.074,0.188-0.345,0.688-0.556,0.793c-0.214,0.109-0.377,0.008-0.631-0.03c-0.25-0.042-0.393,0.03-0.537,0.179
					c-0.146,0.146-0.009,0.262,0.08,0.262c0.09,0,0.214-0.007,0.312,0.116c0.067,0.085,0.022,0.277-0.015,0.392h1.254
					c0.213-0.096,0.359-0.388,0.418-0.548c0.066-0.182,0.336-0.417,0.466-0.541c0.129-0.123,0.146-0.204,0.146-0.475
					s-0.071-0.427-0.171-0.613c-0.099-0.189-0.173-0.461-0.14-0.615c0.021-0.167,0.292-0.336,0.495-0.484L52.959,54.982z"/>
				<path fill="#D4AF39" d="M50.902,51.86c0.123,0.203,0.061,0.243-0.119,0.283c-0.178,0.038-0.373,0.068-0.654,0.045
					s-0.274,0.015-0.281,0.158c-0.008,0.14-0.031,0.435-0.196,0.654c-0.163,0.22-0.366,0.131-0.489,0.048
					c-0.124-0.088-0.196-0.063-0.244,0.092c-0.045,0.156-0.13,0.266-0.263,0.499c-0.132,0.234-0.22,0.243-0.313,0.22
					c-0.095-0.025-0.178-0.165-0.272-0.171c-0.095-0.011-0.243-0.197-0.381-0.424c-0.142-0.226-0.212,0.023-0.307,0.221
					c-0.093,0.192-0.185,0.334-0.366,0.311c-0.178-0.023-0.381-0.359-0.482-0.563c-0.101-0.201-0.164-0.397-0.32-0.39
					c-0.155,0.007-0.413,0.335-0.586,0.421c-0.17,0.087-0.217,0.056-0.295-0.055c-0.078-0.109-0.18,0.04-0.279,0.296
					c-0.102,0.259,0.007,0.477,0.146,0.546c0.142,0.072,0.421-0.131,0.609-0.256c0.188-0.125,0.272-0.095,0.469-0.095
					c0.191,0,0.178,0.321,0.265,0.788c0.085,0.468,0.359,0.531,0.359,0.531s0.093,0.078,0.303-0.279
					c0.208-0.361,0.233-0.711,0.438-0.711c0.201,0,0.218,0.047,0.421,0.328c0.203,0.279,0.373,0.49,0.491,0.279
					c0.118-0.21,0.218-0.524,0.351-0.633c0.134-0.107,0.258-0.138,0.117,0.063c-0.141,0.203-0.203,0.421,0.086,0.335
					c0.288-0.083,1.388-0.529,1.832-0.614c0,0,0.523-0.088,1.123-0.118c0.602-0.033,0.75-0.071,0.984-0.071
					c0.233,0,0.24-0.023,0.257-0.178c0.017-0.157-0.11-0.125-0.546-0.125c-0.438,0-0.74,0.055-1.045,0.102s-0.445,0.038-0.391-0.04
					c0.053-0.078,0.141-0.132,0.492-0.187c0.35-0.055,1.068-0.095,1.442-0.1c0.374-0.008,0.257,0.106,0.227,0.357
					c-0.032,0.248,0.03,0.615,0.055,0.851c0.023,0.232,0.03,0.305,0.231,0.632c0.203,0.326,0.906,0.529,1.109,0.639
					c0.203,0.11,0.172,0,0.163-0.194c-0.007-0.194,0.157-0.188,0.335-0.085c0.18,0.102,0.477,0.187,0.687,0.241
					c0.21,0.054,0.243,0.092,0.243,0.203c0,0.108,0.021,0.35,0.047,0.577c0.021,0.227,0.015,0.297-0.08,0.437
					c-0.092,0.14-0.489,0.545-0.489,0.545s-0.18,0-0.563,0.094c-0.381,0.095-0.501,0.274-0.537,0.431
					c-0.04,0.155,0.069,0.203,0.085,0.265c0.01,0.034,0.006,0.118,0,0.188h0.09c0.032-0.057,0.076-0.127,0.135-0.205
					c0.133-0.171,0.471-0.21,0.688-0.108c0.142,0.066,0.146,0.218,0.13,0.312h0.873c0.118-0.229,0.397-0.77,0.471-0.936
					c0.094-0.211,0.148-0.344,0.156-0.632c0.006-0.288,0.039-1.404-0.016-1.466s0.016-0.251,0-0.563
					c-0.016-0.313,0-0.546-0.576-0.601c-0.579-0.057-0.759-0.296-0.951-0.492c-0.197-0.193-0.15-0.646-0.305-1.193
					c-0.156-0.546-0.539-0.63-1.217-0.762c-0.68-0.135-1.178-0.151-1.686-0.102c-0.507,0.045-1.141,0.115-1.49,0.083
					c-0.343-0.044-0.289,0.058-0.162,0.262L50.902,51.86z"/>
				<path fill="#D4AF39" d="M54.178,58.127c-0.059,0.038-0.1,0.083-0.125,0.123h0.59c0.002-0.051-0.006-0.106-0.058-0.17
					c-0.089-0.109-0.26-0.048-0.405,0.047H54.178z"/>
				<path fill="#D4AF39" d="M55.234,58.087c-0.096,0.049-0.158,0.11-0.195,0.163h0.598c0.002-0.021,0.002-0.047-0.004-0.068
					c-0.018-0.095-0.199-0.194-0.396-0.095H55.234z"/>
				<path fill="#D4AF39" d="M40.504,58.459c0.034,0.187,0.078,0.374,0.131,0.563h18.734c0.051-0.188,0.096-0.376,0.129-0.563H40.504
					z"/>
				<path fill="#D4AF39" d="M53.13,49.511c0.589,0.394,2.47,0.413,3.353,0.591c0.882,0.177,0.82,0.852,0.55,1.205
					c-0.271,0.352-1.511,0.396-1.734,0.425c0.12,0.083,0.302,0.343,0.302,0.343s0.136-0.011,0.51-0.042
					c0.371-0.03,1.028-0.125,1.475-0.499c0.446-0.373,0.414-0.976,0.02-1.379c-0.395-0.406-1.049-0.446-1.715-0.521
					c-0.664-0.072-1.182-0.123-1.93-0.248c-0.748-0.126-1.11-0.425-1.11-0.86c0-0.438,0.406-0.666,0.696-0.749
					c0.291-0.084,0.759-0.207,1.172-0.053c0.416,0.155,0.904,0.178,1.725,0.076c0.819-0.107,1.006-0.677,1.006-0.677
					s-0.104,0.053-0.519,0.063c-0.415,0.009-0.716-0.178-1.475-0.188c-0.757-0.012-1.027,0.259-1.381,0.384
					c-0.354,0.124-1.298,0.218-1.577,0.831s0.044,0.904,0.637,1.298H53.13z"/>
				<ellipse fill="#BA6C29" cx="48.205" cy="46.686" rx="0.354" ry="0.349"/>
				<path fill="#BA6C29" d="M55.795,47.278c-0.469-0.041-1.08,0.082-1.08,0.082s0.115,0.095,0.27,0.084
					c0.156-0.012,0.438-0.022,0.893,0.062c0.457,0.083,0.789-0.135,0.789-0.135S56.262,47.32,55.795,47.278L55.795,47.278z"/>
				<path fill="#1D5E90" d="M51.354,55.997c-0.114-0.182-0.146-0.165-0.279-0.049c-0.131,0.114-0.262-0.28-0.277-0.524
					c-0.017-0.245,0.098-0.998,0.098-0.998s-0.639,0.131-0.981,0.245c-0.345,0.114-0.672,0.146-0.951,0.212
					c-0.275,0.065-0.425,0.131-0.571,0.098c-0.146-0.032-0.459-0.049-0.702-0.049c-0.247,0-0.23,0.049-0.476,0.296
					c-0.246,0.243-0.312,0.376-0.508,0.835c-0.196,0.457-0.262,0.882-0.326,1.44c-0.044,0.362-0.113,0.613-0.158,0.743h2.934
					c0.033-0.094,0.08-0.212,0.12-0.297c0.076-0.171,0.239-0.279,0.352-0.332c0.116-0.055,0.218-0.055,0.271-0.184
					c0.053-0.131,0.199-0.239,0.354-0.309c0.154-0.068,0.423-0.028,0.668,0.038c0.246,0.069,0.332-0.1,0.4-0.192
					c0.068-0.092,0.101-0.223,0.23-0.39c0.131-0.171,0.033-0.325,0.033-0.325s-0.119-0.079-0.236-0.259H51.354z"/>
				<path fill="#1D5E90" d="M56.061,56.076c-0.039-0.17-0.024-0.192-0.124-0.218c-0.102-0.021-0.269-0.054-0.415-0.114
					c-0.145-0.06-0.129,0.332-0.129,0.332s-0.349,0.037-0.738-0.007c-0.393-0.047-0.854-0.401-1.015-0.517
					c-0.159-0.115-0.339-0.376-0.339-0.376s-0.124,0.114-0.246,0.185c-0.123,0.069-0.191,0.316-0.215,0.56
					c-0.023,0.246,0.284,0.548,0.307,0.791c0.025,0.248-0.27,0.74-0.414,0.939c-0.098,0.138-0.229,0.429-0.301,0.599h1.416
					c0.031-0.072,0.078-0.165,0.152-0.237c0.145-0.147,0.393-0.178,0.393-0.178s0-0.061,0.055-0.19
					c0.053-0.131,0.197-0.285,0.551-0.425c0.354-0.138,0.777-0.16,0.777-0.16s0.168-0.138,0.291-0.33
					c0.124-0.192,0.033-0.482-0.006-0.651V56.076z"/>
			</g>
			<path fill="#D4AF39" d="M49.992,28.68c-1.362,0.023-2.961-0.165-3.839-0.491c-0.312,0.068-0.626,0.138-0.939,0.206
				c1.451,0.547,2.661,0.757,4.778,0.779c2.117-0.022,3.328-0.232,4.777-0.779c-0.312-0.068-0.625-0.138-0.938-0.206
				C52.953,28.515,51.354,28.701,49.992,28.68L49.992,28.68z"/>
			<path fill="#D4AF39" d="M54.949,27.544c-0.108-0.091-0.729-0.533-0.893-0.613c-0.16-0.081-0.032-0.298-0.007-0.388
				c0.026-0.091,0.729-0.287,1.116-0.389c0.384-0.098,0.322-0.178,0.322-0.178s-0.225-0.264-1.627-0.416
				c-1.401-0.153-3.863-0.117-3.863-0.117s-2.462-0.036-3.866,0.117c-1.401,0.152-1.626,0.416-1.626,0.416s-0.062,0.08,0.323,0.178
				c0.388,0.102,1.089,0.298,1.116,0.389c0.027,0.09,0.152,0.307-0.01,0.388c-0.161,0.08-0.783,0.522-0.889,0.613
				c-0.109,0.089-0.116,0.234,0.055,0.243c0.17,0.007,0.172,0.006,0.654-0.091c1.442-0.286,2.802-0.366,4.242-0.387
				c1.44,0.021,2.798,0.101,4.242,0.387c0.48,0.097,0.484,0.098,0.656,0.091C55.065,27.778,55.059,27.633,54.949,27.544
				L54.949,27.544z"/>
			<path fill="#D4AF39" d="M53.354,28.139c-0.963-0.114-1.572-0.239-3.354-0.223c-1.78,0.017-2.392,0.108-3.354,0.223
				c0.606,0.243,1.586,0.367,3.354,0.367C51.77,28.506,52.748,28.382,53.354,28.139L53.354,28.139z"/>
			<polygon fill="#D4AF39" points="49.702,14.941 50.439,14.882 50.37,14.239 51.158,14.35 51.189,13.715 50.363,13.793 
				50.506,13.109 49.594,13.1 49.753,13.793 48.951,13.715 48.951,14.35 49.746,14.258 			"/>
			<path fill="#D4AF39" d="M51.307,15.979h-0.987v-0.84c-0.095-0.021-0.19-0.029-0.29-0.029c-0.09,0-0.175,0.007-0.258,0.023v0.846
				H48.75c-0.035,0.106-0.053,0.222-0.053,0.339c0,0.049,0.004,0.097,0.011,0.144h2.642c0.008-0.047,0.01-0.095,0.01-0.144
				c-0.004-0.117-0.025-0.232-0.059-0.339H51.307z"/>
			<path fill="#1D5E90" d="M50.029,17.525c0.586,0,1.084-0.345,1.261-0.824h-2.524C48.944,17.181,49.445,17.525,50.029,17.525
				L50.029,17.525z"/>
			<path fill="#1D5E90" d="M50.571,15.216v0.578h0.655c-0.135-0.256-0.367-0.462-0.657-0.578H50.571z"/>
			<path fill="#1D5E90" d="M49.482,15.216c-0.286,0.116-0.519,0.322-0.654,0.578h0.654V15.216z"/>
			<path fill="#BA6C29" d="M50.785,25.947c-0.25-0.118-0.791-0.35-0.791-0.35s-0.517,0.254-0.796,0.394
				c-0.281,0.142-0.245,0.102-0.331,0.305s0.008,0.275,0.131,0.332c0.124,0.053,1.009,0.508,1.009,0.508s0.878-0.41,1.091-0.508
				c0.213-0.1,0.172-0.201,0.114-0.354c-0.058-0.156-0.178-0.209-0.425-0.327H50.785z"/>
			<path fill="#D4AF39" d="M49.992,22.813c0,0-0.072,0.307-0.17,0.436c-0.098,0.13-0.173,0.246-0.146,0.406
				c0.029,0.157,0.211,0.263,0.315,0.263c0.105,0,0.287-0.105,0.316-0.263c0.027-0.16-0.047-0.276-0.146-0.406
				c-0.095-0.129-0.169-0.436-0.169-0.436H49.992z"/>
			<circle fill="#D4AF39" cx="50" cy="24.228" r="0.163"/>
			<path fill="#D4AF39" d="M49.418,23.388c0,0,0.281-0.313,0.386-0.51c0.105-0.2,0.188-0.378,0.188-0.378s0.086,0.178,0.191,0.378
				c0.104,0.195,0.386,0.51,0.386,0.51s0.396-0.209,0.626-0.971c0.23-0.763-0.053-1.564-0.158-2.432
				c-0.104-0.867-0.188-2.358-0.188-2.358c-0.3,0.17-0.585,0.243-0.857,0.248c-0.271-0.005-0.557-0.078-0.855-0.248
				c0,0-0.084,1.491-0.189,2.358s-0.387,1.669-0.156,2.432c0.232,0.762,0.625,0.971,0.625,0.971H49.418z"/>
			<ellipse fill="#BA6C29" cx="49.992" cy="21.675" rx="0.687" ry="0.662"/>
			<ellipse fill="#BA6C29" cx="49.992" cy="20.125" rx="0.659" ry="0.637"/>
			<ellipse fill="#BA6C29" cx="49.992" cy="18.643" rx="0.629" ry="0.606"/>
			<path fill="#C42228" d="M39.145,33.17c-0.307-0.181-1.134-0.533-2.012-0.607c-0.877-0.074-1.555,0.059-2.283,0.254
				c-0.521,0.142-0.945,0.163-1.364,0.051c-0.628-0.167-1.114-0.734-1.28-1.43c0,0-0.579,0.744,0.013,1.55
				c0.284,0.388,0.654,0.629,1.034,0.707c1.229,0.247,2.437-0.504,3.46-0.569c0.983-0.063,1.754,0.559,1.754,0.559
				s0.234,0.194,0.561,0.004C39.355,33.495,39.451,33.35,39.145,33.17z"/>
			<path fill="#D4AF39" d="M35.604,68.759c0,0-0.122-0.013-0.293-0.038c-0.166-0.02-0.529-0.144-0.639-0.194
				c-0.11-0.047-0.279-0.06-0.388,0.063c-0.109,0.121-0.991,0.642-0.991,0.642h1.463C35.264,69.23,35.604,68.759,35.604,68.759z"/>
			<path fill="#D4AF39" d="M39.724,68.509v-0.146l-0.196-0.421c0,0-0.227,0.146-0.449,0.372c-0.283,0.298-0.592,0.713-0.729,0.887
				c-0.244,0.316-0.586,0.606-0.293,0.109c0.293-0.499,0.39-0.713,0.623-1.047c0.234-0.332,0.408-0.478,0.38-0.497
				c-0.029-0.021-0.214-0.049-0.827-0.127c-0.613-0.08-0.994-0.313-1.277-0.479s-0.788-0.44-0.788-0.44s-1.043,0.44-1.433,0.539
				c-0.391,0.098-0.625,0.155-0.245,0.343c0.383,0.183,0.702,0.243,0.887,0.359c0.186,0.117,0.761,0.303,1.11,0.303
				c0.353,0,0.947,0.009,0.711,0.254c-0.231,0.245-0.496,0.713-0.749,1.428c-0.252,0.713-0.263,1.35-0.263,1.662
				s0.038,0.624,0.038,0.624s0.43-0.479,1.58-1.201c1.148-0.722,1.577-0.969,1.793-1.064c0.212-0.099,0.321-0.099,0.281-0.372
				C39.84,69.321,39.724,68.646,39.724,68.509z"/>
			<path fill="#D4AF39" d="M44.114,65.014c-0.069-0.028-0.142-0.062-0.214-0.096c-0.019,0.006-0.037,0.009-0.053,0.019
				c-0.135,0.066-0.837,0.538-1.119,0.999c-0.283,0.457-0.566,0.499-0.256,0c0.31-0.501,0.538-0.783,0.781-0.999
				c0.095-0.084,0.178-0.154,0.245-0.207c-0.564-0.271-1.176-0.601-1.769-1.013c-0.078,0.15-0.226,0.425-0.393,0.599
				c-0.241,0.258-0.781,0.472-0.781,0.472s0.432-0.444,0.578-0.782c0.095-0.214,0.158-0.446,0.189-0.586
				c-0.412-0.32-0.807-0.688-1.16-1.108c-0.072,0.29-0.307,1.004-0.996,1.776c-0.903,1.013-2.712,1.522-2.712,1.522
				s-0.636,0.068-0.122,0.203c0.512,0.136,0.877,0.366,1.876,0.19c0.998-0.176,1.065-0.216,1.199-0.256
				c0.137-0.042,0.499-0.015,0,0.174c-0.499,0.189-1.659,0.365-2.104,0.323c-0.444-0.038-1.052-0.134-0.417,0.203
				c0.635,0.338,0.903,0.474,1.296,0.474c0.39,0,0.553,0.122,0.93,0.122c0.378,0,0.486-0.069,0.756-0.122s0.443,0.038,0.443,0.147
				c0,0.108-0.362,0.404-0.35,1.148c0.015,0.74,0.069,1.227,0.135,1.442c0.068,0.216,0.23,0.565,0.337,0.769
				c0.108,0.202,0.149,0.405,0.258-0.026c0.106-0.433,0.351-1.053,0.442-1.472c0.097-0.418,0.15-0.431,0.19-0.646
				c0.04-0.218,0.271-0.379,0.162,0.012c-0.107,0.394-0.229,0.891-0.311,1.244c-0.08,0.349-0.271,0.996,0.053,0.484
				c0.326-0.512,1.538-1.874,1.741-2.119c0.202-0.241,0.363-0.472,0.512-0.673c0.149-0.203,0.568-0.472,0.77-0.77
				c0.184-0.269,0.721-0.791,0.949-0.978C44.858,65.337,44.497,65.185,44.114,65.014z"/>
			<path fill="#D4AF39" d="M27.342,33.874c0.033,0.744,0.857,2.169,1.325,2.927c0.468,0.761,0.597,1.067,0.517,1.116
				c-0.081,0.047-0.273-0.342-0.533-0.681c-0.258-0.338-0.758-1.13-1.178-1.728c-0.419-0.599-1.032-2.021-1.113-2.149
				c-0.08-0.129-0.113-0.211-0.323-0.049c-0.209,0.161-0.611,1.729-0.127,2.796c0.482,1.066,1.208,1.841,1.515,2.213
				s0.711,0.953,0.646,1.004c-0.064,0.047-0.178-0.099-0.549-0.486c-0.371-0.389-0.984-1.051-1.388-1.535
				c-0.326-0.394-0.772-1.192-0.929-1.479c-0.059-0.109-0.135-0.078-0.188-0.023c-0.135,0.134-0.347,0.444-0.255,1.291
				c0.129,1.18,0.744,1.858,1.291,2.457c0.549,0.597,1.098,1.1,1.018,1.18c-0.082,0.081-0.646-0.421-1.034-0.791
				c-0.387-0.372-1.339-1.292-1.548-1.554c-0.211-0.258-0.518-0.127-0.501,0.89c0.017,1.02,1.146,2.054,1.613,2.619
				c0.468,0.564,1.049,0.904,1.001,1.017c-0.049,0.114-0.517-0.176-0.823-0.387c-0.305-0.209-1.451-0.954-1.677-1.116
				c-0.227-0.159-0.341,0.146-0.049,1.116c0.29,0.969,1.129,1.744,1.629,2.1c0.501,0.357,1.307,0.793,1.258,0.905
				c-0.047,0.114-0.387-0.033-0.854-0.26c-0.466-0.225-1.032-0.436-1.437-0.548c-0.403-0.112-0.403,0.178-0.403,0.178
				s-0.081,0.824,0.517,1.486s1.274,0.92,1.92,1.034c0.646,0.114,0.742,0.145,0.726,0.244c-0.016,0.095-0.079,0.111-0.225,0.111
				s-0.742,0.063-1.292,0.063c-0.548,0-0.838,0.131-0.838,0.372c0,0.245-0.015,0.567,0.807,1.115
				c0.822,0.55,1.742,0.632,2.131,0.712c0.387,0.081,0.402,0.112,0.32,0.227c-0.079,0.112-0.257,0.098-0.87,0.161
				c-0.613,0.065-0.985,0.309-1.063,0.469c-0.082,0.163,0.047,0.647,0.548,0.986c0.499,0.338,1.146,0.452,2.114,0.389
				c0.967-0.065,1.21-0.082,1.242,0.08c0.033,0.161-0.29,0.21-0.776,0.292c-0.482,0.079-0.854,0.079-1.128,0.307
				c-0.274,0.225-0.066,0.692,0.402,1.034c0.468,0.339,1.629,0.339,2.115,0.307c0.482-0.031,1.227-0.211,1.273-0.082
				c0.048,0.131-0.355,0.325-0.854,0.501c-0.501,0.178-0.646,0.292-0.742,0.503c-0.099,0.208-0.017,0.404,0.58,0.629
				c0.596,0.227,1.47,0.227,1.92,0.017c0.453-0.209,0.693-0.292,0.776-0.209c0.08,0.08,0,0.16-0.099,0.274
				c-0.098,0.114-0.484,0.419-0.984,0.55c-0.499,0.129-0.55,0.129-0.727,0.533c-0.178,0.402,0.274,0.726,1.178,0.76
				c0.904,0.031,2.114-0.322,2.502-0.55c0.387-0.227,0.532-0.275,0.598-0.193c0.064,0.079,0.047,0.129-0.146,0.273
				c-0.194,0.147-0.808,0.583-1.114,0.662c-0.305,0.082-0.337,0.307-0.337,0.518c0,0.21-0.082,0.631,0.726,0.825
				c0.806,0.194,1.758,0.048,2.629-0.565c0.281-0.198,0.444-0.361,0.535-0.503c-0.068-0.824-0.033-1.394,0.067-1.916
				c-0.173-0.019-0.495-0.067-0.827-0.199c-0.484-0.194-0.679-0.646-0.791-0.89c-0.115-0.243-0.274-0.243-0.469-0.178
				c-0.193,0.065-0.387,0.146-0.662,0.131c-0.273-0.019-0.854-0.163-1.273-0.664c-0.421-0.501-0.342-0.983-0.355-1.229
				c-0.017-0.243-0.403-0.063-0.6-0.063c-0.191,0-0.756-0.083-1.273-0.439c-0.515-0.354-0.515-0.838-0.564-1.032
				c-0.049-0.193-0.257-0.322-0.419-0.386c-0.161-0.067-0.421-0.131-0.774-0.421c-0.355-0.293-0.484-0.856-0.501-1.051
				s-0.225-0.213-0.952-0.583c-0.726-0.371-0.66-1.148-0.628-1.455s0.37-0.563,0.37-0.678c0-0.113-0.243-0.146-0.484-0.293
				c-0.241-0.143-0.854-0.386-0.871-1.29c-0.016-0.906,0.582-1.003,0.582-1.003s-0.113-0.049-0.355-0.194
				c-0.242-0.145-0.905-0.599-0.905-1.13c0-0.533,0.243-0.776,0.419-0.905c0.178-0.131,0.664-0.258,0.664-0.258
				s-0.308-0.196-0.437-0.615c-0.129-0.421-0.178-0.937,0.129-1.308c0.306-0.374,0.823-0.374,1.098-0.374
				c0.273,0,0.517,0.146,0.613,0.065c0.096-0.08,0.114-0.146,0.016-0.355c-0.098-0.211-0.112-0.728-0.032-0.904
				c0.082-0.18,0.098-0.533,0.791-0.76s1.419,0.243,1.646,0.372s0.129-0.178,0.129-0.403c0-0.229-0.468-0.793-1.001-1.6
				c-0.532-0.81-0.773-1.23-1.372-2.457c-0.595-1.229-0.983-2.813-1.063-3.217c-0.082-0.404-0.243-0.211-0.243-0.211
				s-0.159,0.063-0.533,1.002C27.375,32.276,27.312,33.132,27.342,33.874z"/>
			<path fill="#D4AF39" d="M39.517,50.403c-0.417-0.022-0.956-0.249-1.372-0.854c-0.415-0.603-1.037-0.748-2.119-0.728
				c-1.083,0.021-1.582-0.499-1.851-1.249c-0.271-0.749,0.042-1.604,1.144-2.145c1.102-0.542,1.6-1.145,1.642-2.081
				c0.042-0.936-1.101-2.103-2.244-3.414c-1.145-1.312-2.039-3.164-2.039-3.164s-0.331,0.437-0.331,0.874s0.166,0.895,0,1.02
				c-0.166,0.126-0.229-0.187-0.895-0.479c-0.665-0.29-1.204-0.332-1.619,0.145c-0.416,0.481,0,1.314,0.373,1.71
				c0.374,0.396,0.686,0.686,0.581,0.831c-0.102,0.146-0.664-0.229-0.851-0.353c-0.188-0.127-0.625-0.605-1.269-0.542
				c-0.645,0.063-0.875,0.248-0.937,0.791c-0.062,0.54,0.582,1.02,0.998,1.228c0.415,0.207,0.582,0.396,0.479,0.478
				c-0.104,0.085-0.208,0-0.395-0.06c-0.186-0.063-0.706-0.125-1.04,0c-0.332,0.123-0.873,0.58-0.374,1.143s1.539,0.771,1.745,0.813
				c0.209,0.041,0.314-0.022,0.334,0.145c0.021,0.167-0.437,0.167-0.997,0.188c-0.562,0.021-0.729,0.561-0.645,0.977
				c0.083,0.417,1.018,0.874,1.537,0.958c0.521,0.083,0.705,0,0.749,0.146c0.042,0.144-0.063,0.207-0.354,0.291
				c-0.29,0.083-0.851,0.146-0.955,0.604c-0.105,0.458-0.126,0.666,0.312,1.063c0.436,0.394,1.144,0.332,1.35,0.29
				c0.209-0.041,0.458-0.271,0.668-0.062c0.207,0.207-0.188,0.374-0.542,0.622c-0.354,0.253-0.332,0.731,0.27,1.063
				c0.603,0.334,1.207,0.207,1.455,0.125c0.251-0.083,0.583-0.479,0.748-0.229c0.167,0.251-0.52,0.332-0.812,0.687
				c-0.29,0.355-0.187,0.936,0.396,1.291c0.583,0.353,1.539,0.104,1.706-0.041c0.165-0.147,0.374-0.209,0.499-0.084
				c0.123,0.125-0.063,0.457-0.189,0.75c-0.123,0.292-0.352,1.143,0.521,1.477c0.872,0.332,1.663-0.416,1.809-0.563
				c0.144-0.146,0.29-0.167,0.414-0.104c0.127,0.062,0.063,0.187-0.04,0.332c-0.105,0.146-0.334,0.771,0.29,1.208
				c0.425,0.298,0.889,0.276,1.143,0.234c0.129-0.488,0.298-1.009,0.471-1.74h-0.131c-0.082,0-0.1,0.127-0.1,0.175
				c0,0.051,0.025,0.092-0.051,0.092c-0.074,0-0.084,0.042-0.189,0.118c-0.108,0.076-0.21,0.165-0.268,0.123
				c-0.059-0.039,0.225-0.19,0.301-0.282c0.072-0.091,0.225-0.234,0.232-0.332c0.009-0.101,0.058-0.158,0.208-0.285
				c0.046-0.036,0.082-0.083,0.111-0.127c0.102-0.486,0.199-1.056,0.288-1.744c0.06-0.468,0.096-0.906,0.107-1.316L39.517,50.403z"
				/>
			<path fill="#D4AF39" d="M21.75,37.429c0.93,1.876,2.241,2.936,2.241,2.936s-0.173-0.468-0.249-0.787
				c-0.076-0.321-0.014-0.687-0.014-0.687s-0.332-0.421-0.94-1.358c-0.607-0.938-0.929-2.322-0.929-2.322s0.566,1.384,1.005,2.121
				c0.439,0.734,0.947,1.335,0.947,1.335s0.176-0.651,0.305-0.686c0.125-0.033,0.218,0.068,0.327,0.21
				c0.112,0.146,0.203,0.131,0.203,0.131s-0.149-0.311-0.38-0.683c-0.106-0.168-0.257-0.35-0.366-0.522
				c-0.347-0.546-1.092-1.584-1.475-2.623c-0.383-1.042-1.22-3.648-1.368-4.416c-0.144-0.764-0.29-0.345-0.436,0.22
				c-0.146,0.565-0.345,1.367-0.218,2.572C20.531,34.072,20.821,35.549,21.75,37.429z"/>
			<path fill="#D4AF39" d="M22.951,42.5c0.345,0.256,0.856,0.601,0.856,0.601s-0.079-0.188-0.13-0.414
				c-0.051-0.227-0.073-0.693-0.073-0.693s-0.408-0.357-0.692-0.602c-0.283-0.251-0.639-0.57-1.345-1.444
				c-0.706-0.875-0.138-0.349,0.436,0.277c0.575,0.626,1.675,1.537,1.675,1.537s0-0.015,0.007-0.205
				c0.007-0.188,0.065-0.327,0.167-0.459c0.102-0.129,0.047-0.149-0.57-0.621c-0.62-0.476-2.224-2.28-2.879-3.356
				c-0.655-1.077-1.366-2.536-1.366-2.536s-0.345,2.151,0.966,4.524C21.313,41.477,22.606,42.244,22.951,42.5z"/>
			<path fill="#D4AF39" d="M29.834,56.076c0.716-0.279,0.52-0.986,0.52-0.997c0-0.015-0.438,0.138-0.845,0.286
				c-0.406,0.152-1.402,0.442-1.796,0.454c-0.395,0.011-0.395-0.046-0.407-0.104c-0.011-0.057,0.304,0,0.871-0.104
				c0.566-0.105,1.563-0.628,1.738-0.744c0.173-0.116,0.148-0.14-0.105-0.163c-0.256-0.021-0.476-0.14-0.567-0.22
				c-0.093-0.082-0.359,0.034-1.009,0.187c-0.647,0.149-1.992,0.383-3.024,0.383c-1.031,0-1.992-0.174-2.156-0.21
				c-0.163-0.033-0.335,0.058,0.164,0.895c0.497,0.836,2.248,1.288,3.465,1.277C27.897,57.004,29.113,56.353,29.834,56.076z"/>
			<path fill="#D4AF39" d="M26.599,54.352c1.255,0.009,1.724-0.363,1.724-0.363s0-0.063-0.171-0.321
				c-0.171-0.254-0.138-0.691-0.138-0.691s-0.298,0.053-0.82,0.127c-0.521,0.075-1.127,0.151-1.796,0.031
				c-0.671-0.114-0.383-0.188,0.148-0.127c0.532,0.065,1.554-0.127,1.882-0.243c0.33-0.118,0.192-0.225-0.031-0.3
				c-0.223-0.074-0.829-0.459-0.829-0.459s-1.522,0.192-2.936,0.033c-1.415-0.16-2.31-0.522-2.597-0.564
				c-0.288-0.042-0.275,0.074-0.275,0.074s-0.076,0.127,0.414,0.896c0.489,0.766,1.445,1.267,2.255,1.5
				C24.236,54.179,25.343,54.339,26.599,54.352z"/>
			<path fill="#D4AF39" d="M26.277,51.41c0,0-0.053-0.076-0.129-0.33c-0.074-0.256,0.138-0.45,0.138-0.45S26,50.547,25.063,50.429
				c-0.937-0.116-0.989-0.19-1.563-0.319s-0.959-0.3-0.947-0.361c0.011-0.065,0.191,0.031,0.533,0.16
				c0.339,0.127,1.774,0.275,2.382,0.36c0.606,0.086,0.945,0.149,1.053,0.086c0.106-0.063,0.479-0.16,0.479-0.16
				s-0.256-0.072-0.575-0.129c-0.318-0.053-0.605-0.19-0.776-0.309c-0.169-0.117-0.222-0.15-0.988-0.233
				c-0.767-0.084-1.385-0.33-2.755-0.831c-1.371-0.501-2.403-1.096-2.68-1.321c-0.277-0.223-0.258-0.063-0.182,0.226
				c0.073,0.286,0.064,0.647,0.755,1.457c0.691,0.811,1.03,1.162,2.776,1.801C24.319,51.493,26.277,51.41,26.277,51.41L26.277,51.41
				z"/>
			<path fill="#D4AF39" d="M21.119,47.159c1.542,1.085,3.35,1.484,3.732,1.533c0.087-0.1-0.093-0.463-0.01-0.683
				c0.098-0.263,0.266-0.265,0.639-0.286c0.372-0.022,0.127-0.097,0.04-0.097c-0.083,0-0.104-0.011-0.722-0.172
				c-0.617-0.158-1.245-0.254-2.094-0.573c-0.854-0.319-1.109-0.556-1.087-0.617c0.021-0.065,0.394,0.201,1.181,0.499
				c0.788,0.299,1.702,0.415,2.203,0.522c0.5,0.105,0.062-0.107-0.171-0.245c-0.235-0.14-0.564-0.651-0.564-0.651
				s-0.553-0.095-1.456-0.372c-0.904-0.277-1.66-0.586-2.416-1.012c-0.259-0.146-0.51-0.338-0.781-0.53
				c-0.516-0.37-1.038-0.749-1.237-0.896c-0.313-0.225-0.214-0.043-0.182,0.097c0.03,0.136,0.243,0.776,0.733,1.479
				C19.415,45.858,19.577,46.07,21.119,47.159z"/>
			<path fill="#D4AF39" d="M20.865,44.102c1.521,1.205,2.83,1.575,3.052,1.673c0.225,0.097,0.203-0.032,0.159-0.159
				c-0.041-0.129-0.074-0.545-0.074-0.545s-0.543-0.308-1.148-0.66c-0.605-0.352-1.277-0.831-1.724-1.14
				c-0.446-0.308-0.18-0.286-0.044-0.17c0.141,0.116,0.757,0.479,1.374,0.863c0.618,0.383,1.553,0.937,1.553,0.937
				s0.022-0.203,0.151-0.33c0.125-0.127,0.445-0.095,0.445-0.095s-0.161-0.161-0.257-0.311c-0.095-0.148-0.596-0.309-1.158-0.575
				c-0.565-0.265-1.576-1.012-2.32-1.64s-2.191-2.206-2.286-2.333c-0.096-0.127-0.161-0.105-0.172,0.052
				c-0.01,0.16-0.063,0.268,0.098,0.993C18.674,41.386,19.343,42.897,20.865,44.102z"/>
			<path fill="#D4AF39" d="M26.248,32.717c0.173,0.359,0.361,0.63,0.497,0.861c0.205,0.353,0.321,0.581,0.321,0.581
				s0.04-0.123,0.009-0.334c-0.032-0.214-0.065-0.504-0.009-0.854c0.031-0.187,0.072-0.376,0.062-0.541
				c-0.013-0.19-0.076-0.354-0.102-0.46c-0.049-0.205-0.269-1.091-0.374-1.719c-0.104-0.628-0.219-1.522-0.212-2.312
				c0.009-0.791,0.122-0.392,0.122-0.009s0.041,0.971,0.163,1.872c0.123,0.905,0.504,2.279,0.504,2.279s0.025-0.211,0.138-0.512
				c0.115-0.303,0.302-0.645,0.447-1.018c0.146-0.374,0.096-0.438,0.096-0.438s-0.535-2.557-0.675-3.765
				c-0.14-1.209-0.364-4.384-0.364-4.384c-0.782,0.787-1.365,2.855-1.467,4.812c-0.078,1.476,0.16,2.84,0.229,3.393
				C25.771,31.268,25.96,32.122,26.248,32.717z"/>
			<path fill="#D4AF39" d="M24.516,36.75c0.025-0.579,0.156-1.016,0.529-1.145c0,0-0.33-0.579-0.618-1.404
				c-0.198-0.564-0.359-1.29-0.442-1.846c-0.205-1.371-0.369-2.783,0.041-0.472c0.406,2.312,0.896,3.128,0.896,3.128l0.592,0.962
				c-0.086-0.421-0.1-0.719-0.076-1.18c0.021-0.461,0.08-1.085,0.221-1.58c0,0-0.715-1.432-1.164-3.151
				c-0.448-1.717-0.706-3.28-0.715-4.211c-0.04-0.9-0.063-1.249-0.063-1.249s-0.732,0.554-0.978,3.355
				c-0.247,2.801,0.489,5.48,0.856,6.502C23.964,35.483,24.516,36.75,24.516,36.75z"/>
			<path fill="#D4AF39" d="M32.531,58.116c0,0-0.116-0.082-0.465-0.302c-0.346-0.221-0.242-0.882-0.242-0.882
				s-0.092,0.069-0.349,0.243c-0.254,0.175-0.544,0.372-0.892,0.51c-0.346,0.14-0.521,0.234-0.741,0.302
				c-0.22,0.07-0.162-0.021,0.025-0.125c0.183-0.105,0.243-0.164,0.706-0.351c0.462-0.185,1.389-0.996,1.389-0.996
				s-0.219-0.025-0.602-0.036s-0.869-0.209-0.869-0.209s-0.381,0.349-1.924,1.009c-1.542,0.662-2.852,0.837-2.852,0.837
				s0.163,0.789,0.905,1.056c0.615,0.267,1.46,0.428,3.117,0.036C31.396,58.813,32.531,58.116,32.531,58.116z"/>
			<path fill="#D4AF39" d="M34.56,59.698c0.129-0.653-0.243-1.105-0.243-1.105s-0.08,0.046-0.312,0.254
				c-0.232,0.211-0.568,0.606-1.218,0.93c-0.647,0.324-0.88,0.303-0.254-0.035c0.626-0.337,1.54-1.288,1.54-1.288l-0.243-0.092
				c-0.243-0.093-0.66,0.068-2.398,1.113s-2.758,1.08-2.758,1.08s0.776,0.939,2.885,0.871C33.669,61.356,34.433,60.348,34.56,59.698
				L34.56,59.698z"/>
			<path fill="#D4AF39" d="M38.548,58.939c0,0-0.232,0.327-0.544,0.533c-0.314,0.211-1.148,0.338-1.148,0.338
				s-0.035,0.095-0.198,0.301c-0.159,0.211-0.519,0.71-0.893,0.977c-0.37,0.267-0.949,0.44-0.983,0.37
				c-0.035-0.069,0.336-0.207,0.695-0.428c0.358-0.222,0.684-0.628,0.927-0.906c0.243-0.279-0.105-0.231-0.105-0.231
				s-0.438,0.011-0.846-0.024c-0.404-0.036-0.323,0-0.438,0.198c-0.116,0.197-0.279,0.372-0.581,0.719
				c-0.366,0.424-0.715,0.811-1.065,1.229c-0.231,0.279-0.058,0.361-0.058,0.361s0.104,0.174,1.044,0.277
				c0.578,0.065,1.206-0.009,1.868-0.39c0.408-0.236,0.831-0.613,1.259-1.083C38.605,59.95,38.548,58.939,38.548,58.939z"/>
			<path fill="#D4AF39" d="M39.047,61.479c-0.23,0.302-0.359,0.431-0.359,0.431s0.161-0.499,0.299-0.731
				c0.076-0.123,0.156-0.241,0.217-0.323c-0.156-0.35-0.283-0.724-0.376-1.128c-0.105,0.333-0.425,1.313-0.823,1.95
				c-0.486,0.776-0.915,1.058-0.639,1.265c0.279,0.21,0.823,0.256,1.438-0.046c0.593-0.292,0.764-0.8,0.849-1.212
				c-0.105-0.161-0.203-0.328-0.294-0.504C39.284,61.229,39.172,61.316,39.047,61.479z"/>
			<ellipse fill="#D4AF39" cx="38.908" cy="30.445" rx="0.431" ry="0.394"/>
			<path fill="#D4AF39" d="M38,29.701c0.396-0.009,0.605-0.197,1.041-0.154c0.512,0.051,1.207,0.349,2.051,0.797
				c0.66,0.299,1.529,0.446,2.367,0.207c0.236-0.067,0.469-0.198,0.693-0.323c1.025-0.582,0.776-1.726,0.776-1.726
				c-0.757,0.544-1.692,0.838-2.563,0.78c0,0,0.067,0.051,0.214,0.197c0.15,0.151,0.421,0.325,0.334,0.399
				c-0.091,0.074-0.465-0.281-0.78-0.514c-0.313-0.233-0.776-0.548-1.571-0.779c-0.794-0.232-1.688-0.251-2.282,0.081
				c-0.596,0.332-0.645,0.748-0.563,0.913C37.764,29.674,37.873,29.703,38,29.701z"/>
			<path fill="#D4AF39" d="M43.488,40.68c0,0-0.26,0.577-0.402,0.782c-0.144,0.207-0.205,0.239-0.205,0.239s0.261,0.224,0.639,0.34
				c0.381,0.119,0.722,0.192,0.722,0.192s-0.429-0.588-0.577-1C43.512,40.821,43.488,40.68,43.488,40.68z"/>
			<path fill="#D4AF39" d="M48.653,40.339c-0.127-0.323-0.204-0.506-0.204-0.506c-0.528,0.104-1.53-0.142-1.966-0.405
				c0,0,0.397,0.808,0.793,1.085c0.397,0.278,0.452,0.294,0.452,0.294s-0.396,0.063-0.928-0.459
				c-0.529-0.524-0.768-1.125-0.768-1.125s0.118,1.394-0.094,2.25c-0.214,0.854-0.264,0.964-0.264,0.964s1.125,0.199,2.377-0.149
				c1.25-0.35,1.345-0.461,1.345-0.461s0.152-0.038-0.047-0.301C49.154,41.266,48.781,40.664,48.653,40.339z"/>
			<path fill="#D4AF39" d="M49.147,38.06c-0.182-0.051-0.497-0.1-0.911-0.479c-0.414-0.383-1.404-1.479-1.522-1.677
				c-0.116-0.201-0.065-0.381,0.216-0.499c0.281-0.116,0.479-0.48,0.479-0.48s-0.611-0.232-1.023-0.531
				c-0.413-0.3-1.375-1.161-1.508-1.377c-0.132-0.215-0.065-0.249,0.133-0.316c0.199-0.065,0.248-0.197,0.248-0.197
				s-0.446-0.283-0.858-0.615c-0.415-0.33-0.978-0.878-0.978-0.878c-0.618,0.246-1.591,0.145-2.117,0.051
				c-0.926-0.167-1.604-0.548-1.604-0.548s-0.032,0.148-0.148,0.432c-0.116,0.281-0.546,0.446-0.977,0.163
				c-0.43-0.281-0.33-0.895-0.33-0.895s-0.348-0.216-1.059-0.48c-0.712-0.267-1.289-0.3-1.869-0.033
				c-0.579,0.266-0.86,1.062-0.86,1.658c0,0.598,0.315,0.349,0.381,0.266c0.065-0.084,0.198-0.516,0.926-0.632
				c0.729-0.116,1.39,0.234,2.217,0.913c0.827,0.68,1.009,0.73,1.423,1.163c0.414,0.43,0.083,0.664-0.628,0.894
				c-0.711,0.234-1.622-0.229-1.655-0.214c-0.138,0.067,0.307,0.7,0.92,0.94c0.615,0.237,1.399,0.083,2.009-0.162
				c0.414-0.165,0.49,0.006,0.61,0.135c0.673,0.704,0.849,1.368,0.961,2.174c0.343-0.107,0.581-0.45,0.628-0.731
				c0.023-0.135,0.067-0.432,0.298-0.216c0.232,0.216,0.413,1.409,0.413,1.959c0,0.545-0.165,1.277-0.165,1.277l0.165-0.018
				c0.101-0.017,0.298-0.131,0.563-0.279c0.265-0.153,0.281,0.014,0.281,0.313c0,0.299,0.101,0.861,0.495,1.874
				c0.397,1.013,0.977,1.345,0.977,1.345s0.116-0.2,0.232-0.597c0.116-0.399,0.199-1.18,0.199-1.858
				c0-0.682-0.182-2.141-0.182-2.141s0.828,1.011,1.688,1.261c0.86,0.249,1.721,0.1,2.083-0.315
				C49.659,38.292,49.328,38.111,49.147,38.06z M43.494,35.487c-0.236-0.167-0.501-0.309-0.953-0.645
				c-0.451-0.332-0.713-0.582-0.952-0.845c-0.238-0.26,0.06-0.309,0.227-0.26c0.169,0.045,0.571,0.345,0.786,0.522
				c0.214,0.178,0.355,0.178,0.559,0.274c0.203,0.096,0.132-0.345,0.013-0.702c-0.118-0.359-0.524-0.788-0.833-1.133
				c-0.311-0.345,0.011-0.235,0.154-0.094c0.143,0.142,0.475,0.499,0.869,1.132c0.394,0.628,0.607,2.058,0.607,2.058
				S43.733,35.652,43.494,35.487z"/>
			<polygon fill="#D4AF39" points="44.783,27.132 45.597,26.554 44.641,26.309 44.023,26.799 			"/>
			<ellipse fill="#BA6C29" cx="47.387" cy="26.455" rx="0.777" ry="0.749"/>
			<path fill="#D4AF39" d="M45.768,23.883c0.201,0.076,0.459,0.042,0.459,0.042s0.079-0.344-0.111-0.514
				c-0.19-0.167-0.361-0.287-0.474-0.397c-0.11-0.114-0.138-0.15-0.138-0.15s0,0.297-0.015,0.482
				C45.477,23.534,45.569,23.807,45.768,23.883L45.768,23.883z"/>
			<ellipse fill="#D4AF39" cx="46.181" cy="24.26" rx="0.144" ry="0.134"/>
			<path fill="#D4AF39" d="M45.119,24.115c-0.06,0.083-0.188,0.218-0.188,0.218s0.157,0.005,0.286,0.1
				c0.131,0.093,0.298,0.17,0.45,0.152c0.154-0.021,0.22-0.161,0.186-0.265c-0.031-0.104-0.105-0.209-0.356-0.304
				C45.246,23.925,45.18,24.031,45.119,24.115z"/>
			<path fill="#D4AF39" d="M45.662,25.022c-0.488,0.043-1.131-0.496-1.131-0.496c-0.062,0.433-0.328,0.659-0.74,0.74l0.04,0.021
				c0,0,0.381,0.192,0.831,0.261c0.203,0.033,0.385-0.003,0.604-0.047c0.263-0.055,0.561-0.127,0.722-0.227
				c0.294-0.184,0.205-0.655,0.205-0.655S46.15,24.977,45.662,25.022z"/>
			<path fill="#D4AF39" d="M43.764,24.534c-0.201-0.076-0.5-0.22-0.626-0.227c-0.125-0.008-0.307-0.04-0.273,0.193
				c0.03,0.234,0.267,0.347,0.499,0.351c0.232,0.007,0.35-0.08,0.486-0.148C43.987,24.632,43.964,24.608,43.764,24.534z"/>
			<path fill="#D4AF39" d="M42.236,23.705c-0.216-0.158-0.412-0.201-0.412-0.201s-0.145,0.377-0.063,0.607
				c0.082,0.234,0.253,0.296,0.458,0.29c0.206-0.007,0.513-0.114,0.424-0.271C42.556,23.976,42.456,23.861,42.236,23.705z"/>
			<ellipse fill="#D4AF39" cx="42.438" cy="24.762" rx="0.167" ry="0.122"/>
			<path fill="#D4AF39" d="M42.902,22.891c-0.135-0.641-0.112-1.34,0.495-2.23c0.609-0.889,1.667-1.248,1.667-1.248
				s0.035-0.069,0.372-0.428c0.338-0.361,1.025-0.812,1.025-0.812s-0.798,0.196-1.252,0.341c0,0.01,0,0.017,0,0.023
				c0,0.309-0.243,0.56-0.544,0.56c-0.116,0-0.226-0.036-0.313-0.1c-0.245,0.049-1.063,0.538-1.273,0.711
				c0.051,0.085,0.082,0.187,0.082,0.296c0,0.305-0.245,0.555-0.547,0.555c-0.09,0-0.174-0.021-0.25-0.062
				c-0.025,0.038-0.047,0.078-0.07,0.118c-0.173,0.315-0.3,0.62-0.391,0.897c0.138,0.097,0.232,0.28,0.232,0.483
				c0,0.307-0.207,0.555-0.465,0.557c-0.016,0.182-0.015,0.307-0.007,0.361c0.021,0.18,0.089,0.292,0.404,0.381
				c0.315,0.091,0.744,0.643,0.744,0.643C42.844,23.938,43.069,23.532,42.902,22.891z"/>
			<path fill="#D4AF39" d="M44.842,18.78c0.114-0.092,0.136-0.235,0.043-0.317c-0.09-0.081-0.256-0.072-0.371,0.022
				c-0.116,0.094-0.135,0.235-0.044,0.317C44.561,18.886,44.726,18.875,44.842,18.78z"/>
			<path fill="#D4AF39" d="M42.801,20.159c0.131-0.117,0.152-0.295,0.051-0.398c-0.104-0.104-0.292-0.091-0.421,0.027
				c-0.131,0.117-0.152,0.299-0.05,0.398C42.483,20.29,42.672,20.277,42.801,20.159z"/>
			<ellipse fill="#D4AF39" cx="41.585" cy="21.893" rx="0.315" ry="0.309"/>
			<path fill="#D4AF39" d="M48.385,17.52c-0.161,0.036-0.464,0.135-0.918,0.37h0.01c0.313,0,0.561,0.201,0.561,0.463
				s-0.287,0.544-0.603,0.544c-0.313,0-0.526-0.273-0.526-0.535c0-0.06,0.015-0.119,0.038-0.172
				c-0.132,0.081-0.277,0.172-0.43,0.275c-1.002,0.677-1.237,1.005-1.735,1.927c-0.494,0.924-0.674,1.937-0.46,2.533
				s1.001,0.722,1.013,0.722s-0.09-0.091-0.103-0.203c-0.011-0.114,0.024-0.17,0.059-0.396c0.032-0.225,0.011-0.493,0.011-0.493
				s0.182-0.023,0.283,0.1c0.1,0.123,0.246,0.271,0.348,0.394c0.102,0.125,0.371,0.361,0.371,0.361s0.159-0.224,0.159-0.495
				c0-0.271-0.182-0.564-0.216-1.038c-0.034-0.472,0.216-1.317,0.677-1.936c0.461-0.619,1.328-1.184,1.586-1.305
				c0.259-0.124,0.305-0.317,0.315-0.429c0.011-0.112,0.034-0.192,0.057-0.474C48.904,17.452,48.646,17.464,48.385,17.52z"/>
			<path fill="#D4AF39" d="M47.391,18.589c0.178,0,0.34-0.16,0.34-0.307c0-0.146-0.139-0.258-0.316-0.258
				c-0.176,0-0.32,0.117-0.32,0.265C47.094,18.435,47.213,18.589,47.391,18.589z"/>
			<path fill="#D4AF39" d="M48.883,24.478c0.242,0.099,0.515,0.042,0.642-0.043c0.129-0.088,0.173-0.305,0.021-0.431
				c-0.15-0.125-0.378-0.121-0.518-0.041c-0.142,0.076-0.457,0.299-0.457,0.299S48.641,24.38,48.883,24.478z"/>
			<path fill="#D4AF39" d="M49.655,24.748c-0.085,0.136-0.149,0.216-0.419,0.227c-0.269,0.013-0.559-0.005-0.735-0.181
				c-0.174-0.175-0.296-0.42-0.296-0.42L47.9,24.367c0,0-0.1,0.423-0.232,0.539c-0.134,0.116-0.6,0.134-0.803-0.019
				c-0.207-0.152-0.393-0.339-0.427-0.315s0,0.176,0.208,0.357c0.211,0.18,0.356,0.292,0.695,0.292h1.924
				c0,0,0.39,0.023,0.502-0.211c0.111-0.233,0.116-0.381,0.063-0.438C49.778,24.514,49.744,24.612,49.655,24.748L49.655,24.748z"/>
			<path fill="#D4AF39" d="M46.73,24.424c0.287,0.159,0.448,0.062,0.554-0.069c0.103-0.127,0.123-0.187,0.123-0.187
				s-0.272-0.099-0.404-0.177c-0.133-0.078-0.222-0.152-0.354-0.136c-0.134,0.017-0.154,0.034-0.154,0.034
				S46.441,24.26,46.73,24.424z"/>
			<ellipse fill="#BA6C29" cx="45.337" cy="21.579" rx="0.643" ry="0.636"/>
			<path fill="#BA6C29" d="M46.451,19.374c-0.258-0.173-0.635-0.104-0.844,0.154c-0.209,0.26-0.169,0.609,0.089,0.78
				c0.258,0.174,0.635,0.105,0.844-0.152C46.748,19.898,46.709,19.548,46.451,19.374z"/>
			<g>
				<path fill="#D4AF39" d="M36.376,69.124c0,0-0.992,0.475-1.305,0.557c-0.315,0.087-0.388,0.087-0.388,0.087
					s-0.679,0.619-1.173,0.909c-0.522,0.307-1.121,0.528-1.72,0.597c-0.773,0.084-2.901,0.062-3.857,0.021
					c-0.956-0.034-1.549,0.196-1.959,0.657c-0.412,0.459-0.508,1.129,0.011,1.637c0.521,0.51,1.101,0.256,1.295-0.06
					c0.192-0.318,0.097-0.717,0.011-0.898c-0.083-0.182,0.171-0.243,0.436-0.256c0.269-0.013,0.715,0.023,1.127,0.085
					c0.41,0.062,1.136,0.304,1.451,0.474c0.314,0.171,0.133,0.194-0.085,0.158s-0.459-0.12-0.846-0.265
					c-0.388-0.147-0.715-0.22-0.956-0.232c-0.241-0.011-0.158,0.121-0.11,0.205c0.049,0.085,0.183,0.292,0.22,0.388
					c0.036,0.099-0.073,0.461-0.073,0.461l0.122,0.232c0,0,0.144-0.232,0.192-0.352c0.047-0.122-0.013-0.354,0.036-0.461
					c0.049-0.111,0.254-0.111,0.41,0.072c0.159,0.182,0.339,0.401,0.424,0.861c0.086,0.46-0.072,0.788-0.072,0.788
					s0.194,0.157,0.23,0.267c0.037,0.11-0.049,0.546-0.049,0.546s0.135,0.085,0.254-0.17c0.12-0.255,0.267-0.702,0.303-0.86
					c0.037-0.158,0.144-0.45,0.34-0.23c0.192,0.216,0.324,0.484,0.361,0.618c0.036,0.133,0.036,0.243,0.036,0.243
					s0.436-0.424,0.582-0.669c0.144-0.241,0.446-0.604,0.858-0.945c0.41-0.34,1.123-1.017,1.475-1.25
					c0.353-0.23,1.247-0.715,1.524-0.886c0.279-0.169,0.327-0.18,0.374-0.655c0.051-0.473,0.279-0.896,0.388-1.225
					c0.105-0.33,0.131-0.449,0.131-0.449H36.376z"/>
				<path fill="#D4AF39" d="M20.515,51.343c-0.009-0.08-0.171-0.362-0.21-0.508c-0.04-0.146-0.186-0.057-0.186-0.057
					s-0.315,0.178-0.55,0.243c-0.231,0.063-0.265-0.025-0.29-0.146c-0.021-0.122-0.08-0.501-0.12-0.768s-0.098-0.25-0.194-0.211
					c-0.096,0.04-0.386,0.146-0.589,0.234c-0.2,0.089-0.135,0.187-0.071,0.3c0.063,0.112,0.298,0.591,0.403,0.76
					c0.104,0.169,0.009,0.243-0.114,0.3c-0.12,0.058-0.298,0.079-0.539,0.161c-0.241,0.08-0.227,0.136-0.201,0.22
					c0.023,0.08,0.185,0.412,0.273,0.564c0.089,0.154,0.169,0.049,0.169,0.049s0.258-0.236,0.476-0.338
					c0.218-0.105,0.234-0.074,0.29,0.087c0.058,0.164,0.307,1.013,0.355,1.174c0.048,0.16,0.129,0.144,0.243,0.097
					c0.111-0.047,0.266-0.072,0.394-0.112c0.129-0.042,0.177-0.3,0.177-0.3s-0.476-0.858-0.603-1.076
					c-0.131-0.219,0-0.267,0.094-0.282c0.099-0.017,0.382-0.055,0.622-0.113c0.238-0.062,0.175-0.199,0.168-0.282L20.515,51.343z"/>
				<path fill="#D4AF39" d="M25.891,74.634c-0.036-0.207,0-0.414-0.159-0.571c-0.156-0.158-0.349-0.474-0.421-0.728
					c-0.073-0.254,0.06-0.376,0.036-0.522c-0.025-0.146-0.22-0.146-0.412,0.015c-0.194,0.155-0.448,0.301-0.448,0.764
					c0,0.459,0.169,1.007,0.812,1.199C25.938,74.985,25.927,74.841,25.891,74.634L25.891,74.634z"/>
				<path fill="#D4AF39" d="M26.54,74.412c0,0-0.134-0.085-0.192,0.037c-0.062,0.121-0.049,0.181,0.12,0.449
					c0.171,0.266,0.279,0.327,0.472,0.448c0.194,0.122,0.062-0.121,0.036-0.194c-0.023-0.072,0-0.17-0.047-0.23
					c-0.049-0.06-0.074-0.134-0.074-0.328c0-0.19-0.314-0.18-0.314-0.18V74.412z"/>
				<path fill="#D4AF39" d="M27.326,76.597c0.121-0.183,0.23-0.232,0.519-0.362c0.292-0.135,0.822-0.207,1.003-0.22
					c0.184-0.013,0.596-0.363,0.534-0.728c-0.06-0.365-0.327-0.51-0.558-0.559c-0.229-0.048-0.436-0.048-0.506,0.062
					c-0.074,0.108-0.207,0.254-0.461,0.337c-0.254,0.088-0.29,0.173-0.448,0.22c-0.155,0.049-0.036,0.146-0.169,0.256
					c-0.134,0.109-0.315,0-0.519-0.062c-0.207-0.062-0.22-0.098-0.448-0.108c-0.23-0.013-0.834-0.05-0.834-0.05
					s-0.023-0.011-0.158-0.011s-0.146,0.023-0.207,0.169c-0.058,0.146,0.013,0.512,0.16,0.693c0.145,0.18,0.616,0.267,0.931,0.362
					c0.313,0.097,0.472,0.133,0.738,0.182c0.275,0.047,0.312-0.004,0.43-0.182H27.326z"/>
				<path fill="#D4AF39" d="M30.268,76.888c0.254-0.171,0.108-0.461,0.049-0.645c-0.061-0.182-0.412-0.218-0.594-0.218
					s-0.277,0-0.375,0.085c-0.097,0.084-0.23,0.205-0.496,0.291c-0.265,0.085-0.472,0.181-0.834,0.328
					c-0.363,0.146-0.473,0.387-0.63,0.484c-0.158,0.098-0.459,0-0.459,0s-0.218-0.06-0.29,0c-0.073,0.062,0,0.182,0.145,0.341
					c0.146,0.156,0.423,0.146,0.736,0.241c0.316,0.097,0.376,0.024,0.498-0.06c0.119-0.085,0.217-0.269,0.436-0.401
					c0.217-0.132,0.689-0.155,0.918-0.181c0.235-0.025,0.647-0.097,0.901-0.267H30.268z"/>
				<path fill="#D4AF39" d="M30.268,75.784c0.108,0.096,0.229,0.23,0.326,0.072c0.098-0.157,0.254-0.484,0.145-0.679
					c-0.108-0.195-0.242-0.366-0.242-0.366s-0.18,0.561-0.266,0.704c-0.08,0.152-0.068,0.171,0.04,0.269H30.268z"/>
				<path fill="#D4AF39" d="M29.287,74.107c0-0.315-0.218-0.702-0.218-0.702s-0.072,0.289-0.206,0.546
					c-0.133,0.255-0.266,0.389-0.266,0.389s0.314,0.084,0.436,0.084c0.12,0,0.256,0.003,0.256-0.313L29.287,74.107z"/>
				<path fill="#D4AF39" d="M27.473,74.779c0.34-0.073,0.522-0.207,0.668-0.329c0.144-0.121,0.229-0.448,0.131-0.618
					c-0.095-0.171-0.338-0.353-0.434-0.353h-0.182c0,0-0.098,0.316-0.23,0.474c-0.135,0.158-0.29,0.267-0.277,0.474
					c0.011,0.201-0.015,0.419,0.324,0.347V74.779z"/>
				<path fill="#D4AF39" d="M28.162,73.236c0.012-0.155-0.049-0.326-0.158-0.437c-0.108-0.109-0.183-0.18-0.183-0.18
					s-0.023,0.239-0.047,0.375c-0.025,0.133-0.036,0.156-0.036,0.156s0.098,0.098,0.181,0.135c0.084,0.032,0.229,0.108,0.239-0.051
					L28.162,73.236z"/>
				<path fill="#D4AF39" d="M23.98,64.631l0.227-1.43c-0.17-1.43-0.914-2.783-1.504-3.717c-0.592-0.933-1.203-2.4-1.468-3.183
					c-0.267-0.78-0.446-1.853-0.446-2.411c0-0.561,0.239-0.85,0.239-0.85s0.104-0.152,0.007-0.248
					c-0.094-0.097-0.246-0.008-0.398,0.145c-0.15,0.15-0.311,0.432-0.374,0.632c-0.065,0.199-0.065,0.272-0.065,0.272
					s-0.301-0.073-0.789-0.031c-0.488,0.038-0.719,0.08-0.734,0.184c-0.016,0.103,0.064,0.183,0.415,0.335
					c0.351,0.15,0.575,0.216,0.749,0.425c0.176,0.207,0.626,1.254,0.762,1.758c0.139,0.505,0.433,1.875,0.551,2.948
					c0.117,1.074,0.48,2.377,0.988,3.462c0.167,0.361,1.074,2.053,1.842,1.713V64.631z"/>
				<path fill="#D4AF39" d="M24.865,67.147c-0.33,0.186-0.317,1.539-0.172,2.239c0.148,0.7,0.834,1.575,1.043,1.809
					c0.209,0.234,0.256,0.234,0.369,0.173c0.11-0.062,0.159-0.062,0.159-0.062s0.294-0.099,0.515-0.271
					c0.22-0.173,0.135-0.603,0.097-0.985c-0.034-0.381-0.33-1.143-0.869-2.028c-0.535-0.888-0.808-1.06-1.136-0.875H24.865z"/>
				<path fill="#D4AF39" d="M25.23,66.052c0-0.442-0.381-0.774-0.822-0.774c-0.209,0-0.39,0.053-0.506,0.154
					c-0.446,0.402-0.174,1.411,0.468,1.411c0.236,0,0.509-0.042,0.675-0.203c0.152-0.142,0.188-0.377,0.188-0.588H25.23z"/>
				<path fill="#D4AF39" d="M31.628,78.764c-0.178-0.031-0.281-0.104-0.541-0.28c-0.259-0.176-0.675-0.536-0.747-0.716
					c-0.072-0.177-0.072-0.186-0.323-0.102c-0.249,0.081-0.601,0.072-0.871,0.081c-0.269,0.011,0.031,0.313,0.218,0.592
					c0.188,0.279,0.125,1.227,0.125,1.227s0,0.081-0.041,0.22c-0.042,0.132-0.012,0.227,0.062,0.257
					c0.072,0.031,0.114-0.03,0.301-0.248c0.187-0.22,0.53-0.789,0.53-0.789s0.053,0.009,0.343,0.081
					c0.288,0.076,0.757,0.033,0.996-0.04c0.247-0.072,0.131-0.25-0.048-0.282H31.628z"/>
				<path fill="#D4AF39" d="M30.516,79.494c-0.123-0.02-0.176-0.03-0.238,0.053c-0.061,0.084-0.113,0.239-0.145,0.321
					c-0.033,0.082-0.021,0.158,0.053,0.22c0.072,0.062,0.176,0.136,0.176,0.136s0.104,0.112,0.207,0.163
					c0.105,0.053,0.125-0.103,0.125-0.216c0-0.116,0.062-0.322,0.062-0.459c0-0.136-0.106-0.197-0.233-0.218H30.516z"/>
				<path fill="#1D5E90" d="M77.716,70.368c-0.301-0.072-0.432-0.187-0.432-0.187s-0.129-0.015-0.232,0.172
					c-0.098,0.188-0.489,0.432-0.489,0.432s-0.549,0.146-0.621,0.521c-0.07,0.375,0.189,0.504,0.448,0.461
					c0.26-0.044,0.895-0.173,1.169-0.505c0.273-0.332,0.316-0.519,0.375-0.649c0.051-0.127,0.084-0.171-0.221-0.243L77.716,70.368z"
					/>
				<path fill="#1D5E90" d="M78.568,67.38c-0.199-0.834-0.736-1.863-1.773-2.38c0,0-0.393,1.371-0.507,1.803
					c-0.116,0.433-0.116,0.42,0.216,0.505c0.33,0.087,1.398,0.317,1.617,0.375c0.215,0.059,0.576,0.242,0.447-0.308V67.38z"/>
				<path fill="#1D5E90" d="M73.619,66.602c0.243,0.044,0.215-0.058,0.301-0.388c0.088-0.332,0.52-1.979,0.52-1.979
					s-1.096-0.041-2.047,0.42c-0.954,0.46-1.371,1.313-1.371,1.313s0.246,0.102,0.895,0.245c0.65,0.14,1.459,0.343,1.705,0.386
					L73.619,66.602z"/>
				<path fill="#1D5E90" d="M71.079,68.868c-0.388-0.073-0.533-0.116-0.533-0.116s0.245,0.936,0.649,1.457
					c0.402,0.519,0.852,0.778,1.688,0.793c0.836,0.014,1.471-0.447,1.572-0.808c0.1-0.361,0.274-0.636,0.274-0.636
					s-1.515-0.201-2.136-0.346c-0.629-0.144-1.132-0.274-1.521-0.347L71.079,68.868z"/>
				<path fill="#D4AF39" d="M70.818,68.272c0.377,0.087,3.463,0.679,3.723,0.737c0.262,0.058,0.475,0.114,0.548,0.043
					c0.073-0.072,0.116-0.116,0.39-0.218c0.274-0.102,0.26-0.374,0.26-0.374s0.072-0.259,0.102-0.521
					c0.029-0.259,0.172-0.345,0.476-0.028c0.303,0.319,0.36,0.779,0.419,1.226c0.057,0.448,0.764,0.564,1.036,0.608
					c0.276,0.043,0.406-0.044,0.565-0.305c0.158-0.26,0.244-0.778,0.287-1.11s0.015-0.304-0.33-0.391
					c-0.347-0.085-1.949-0.446-2.237-0.519s-0.229-0.26-0.187-0.463c0.043-0.199,0.677-2.235,0.677-2.235
					c-0.452-0.279-1.087-0.446-1.845-0.533c0,0-0.463,2.075-0.553,2.395c-0.083,0.318-0.286,0.318-0.616,0.262
					c-0.332-0.059-2.729-0.62-2.729-0.62s0,0-0.187,0.446s-0.274,0.979-0.274,1.255c0,0.274,0.099,0.267,0.473,0.349L70.818,68.272z
					"/>
				<path fill="#D4AF39" d="M79.012,70.15c-0.318-0.205-0.552-0.263-0.719,0.125c-0.163,0.387-0.178,0.955-0.592,1.355
					c-0.417,0.401-0.996,0.816-1.576,0.775c-0.58-0.042-0.911-0.18-0.773-0.844c0.137-0.664,1.021-0.871,1.229-1.218
					s0.152-0.746-0.152-1.009c-0.303-0.263-0.746-0.319-0.869-0.236c-0.125,0.084-0.484,0.389-0.662,0.886
					c-0.182,0.499-0.29,0.9-0.679,1.218c-0.384,0.317-1.38,0.637-2.153,0.455c-0.773-0.18-1.051-0.414-1.341-1.174
					c-0.288-0.762-0.634-2.02-0.786-2.161c-0.152-0.136-0.346-0.246-0.678-0.013c-0.33,0.238-0.357,0.581-0.401,0.858
					c-0.04,0.277,0,0.595,0.334,0.996c0.33,0.401,0.675,0.802,0.802,1.218c0.123,0.417,0.497,1.05-0.029,1.079
					c-0.523,0.027-0.758,0.042-1.161-0.347c-0.399-0.386-1.961-1.453-2.388-1.798c-0.428-0.347-0.609-0.455-0.609-0.455
					c-0.721-0.015-1.444-0.311-2.166-0.804c0,0,0.413,1.064,0.496,1.466c0.082,0.4,0.07,0.622,0.07,0.622s1.572,0.802,2.195,1.106
					c0.619,0.306,1.879,1.023,2.484,1.397c0.61,0.374,1.12,0.954,2.195,0.733c1.078-0.222,3.262-0.886,3.965-1.093
					c0.706-0.207,2.65-0.691,3.371-1.19c0.717-0.497,0.787-0.47,0.911-0.969c0.123-0.486,0-0.762-0.317-0.973V70.15z"/>
				<path fill="#D4AF39" d="M74.856,62.702c0.12-0.016,0.167-0.032,0.534-0.079c0.369-0.049,0.231,0.305,0.166,0.438
					c-0.063,0.137-0.174,0.408-0.326,0.664c-0.152,0.258,0.049,0.298,0.152,0.338s0.256,0.057,0.55,0.136
					c0.298,0.078,0.241-0.136,0.249-0.248s0.025-0.697,0.056-0.904c0.032-0.208,0.224-0.152,0.296-0.112s0.254,0.142,0.406,0.224
					c0.152,0.081,0.225-0.009,0.258-0.097c0.033-0.087,0.102-0.246,0.167-0.479c0.063-0.232-0.08-0.186-0.226-0.186
					c-0.143,0-0.352,0-0.592-0.007c-0.236-0.008-0.086-0.239-0.086-0.239s0.176-0.289,0.312-0.505
					c0.134-0.214,0.087-0.248-0.047-0.288c-0.136-0.04-0.562-0.137-0.681-0.169c-0.119-0.031-0.174-0.015-0.174,0.065
					s-0.017,0.495-0.017,0.656c0,0.158-0.017,0.255-0.226,0.264c-0.206,0.007-0.335-0.114-0.502-0.296
					c-0.167-0.186-0.24-0.112-0.256-0.04s-0.152,0.599-0.184,0.744c-0.041,0.14,0.039,0.134,0.158,0.116L74.856,62.702z"/>
				<path fill="#D4AF39" d="M76.012,67.944c0,0-0.014,0.419-0.058,0.563c-0.042,0.146-0.144,0.361,0.029,0.419
					c0.175,0.059,0.334,0.131,0.434,0.102c0.102-0.029,0.056-0.232,0-0.404c-0.058-0.173-0.144-0.391-0.274-0.535
					c-0.129-0.14-0.129-0.14-0.129-0.14L76.012,67.944z"/>
				<path fill="#D4AF39" d="M78.555,69.615c0.056,0.131,0.17,0.16,0.259,0.188c0.085,0.029,0.202,0.029,0.202-0.13
					c0-0.158,0.028-0.359-0.1-0.534c-0.131-0.174-0.202-0.299-0.276-0.043c-0.075,0.261-0.144,0.394-0.085,0.521V69.615z"/>
				<path fill="#D4AF39" d="M69.707,67.93c0.073,0.015,0.348,0.1,0.348,0.1s0-0.402,0.056-0.677
					c0.058-0.273,0.174-0.461,0.072-0.461c-0.1,0-0.155,0.086-0.229,0.202c-0.071,0.114-0.275,0.145-0.346,0.475
					c-0.072,0.331,0.029,0.345,0.1,0.359V67.93z"/>
				<circle fill="#BA6C29" cx="71.441" cy="67.236" r="0.563"/>
				<circle fill="#BA6C29" cx="73.025" cy="67.627" r="0.577"/>
				<circle fill="#BA6C29" cx="77.645" cy="68.606" r="0.577"/>
				<circle fill="#BA6C29" cx="74.613" cy="68.002" r="0.579"/>
				<circle fill="#BA6C29" cx="75.033" cy="66.617" r="0.578"/>
				<path fill="#BA6C29" d="M75.439,64.655c0.316,0,0.574,0.257,0.574,0.576c0,0.318-0.258,0.577-0.574,0.577
					c-0.322,0-0.579-0.259-0.579-0.577C74.86,64.912,75.117,64.655,75.439,64.655z"/>
			</g>
			<g>
				<path fill="#D4AF39" d="M44.389,71.688l-0.005,0.005c0.265,0.088,0.757-0.106,1.001-0.404c0.247-0.301,0.334-0.759,0.512-1.021
					c0.177-0.263,0.302-0.459,0.302-0.459s-0.036,0.436-0.269,1.018c-0.223,0.556-0.262,1.315-0.211,1.643
					c0.107,0.649,0.53,0.755,0.777,0.667c0.185-0.066,0.47-0.355,0.729-0.789c0.084-0.136,0.141-0.324,0.222-0.477
					c0.167-0.318,0.315-0.837,0.389-0.822c0.163,0.032,0.06,0.397-0.002,0.646c-0.124,0.492-0.368,1.214-0.387,1.653
					s0.032,1.231,0.476,1.267c0.439,0.036,0.668-0.353,0.912-1.248c0.247-0.896,0.3-1.18,0.405-1.18c0.104,0,0.104,0.615,0.104,0.88
					c0,0.091,0.004,0.341,0.04,0.593c0.069,0.479,0.211,1.057,0.349,1.184c0.211,0.192,0.389,0.157,0.389,0.157
					s0.174,0.037,0.387-0.157c0.21-0.192,0.386-1.514,0.386-1.776c0-0.265,0-0.88,0.105-0.88c0.104,0,0.157,0.281,0.404,1.18
					c0.247,0.896,0.476,1.284,0.915,1.248c0.44-0.035,0.493-0.827,0.475-1.267c-0.016-0.439-0.263-1.161-0.387-1.653
					c-0.123-0.493,0.051-0.459,0.387,0.175c0.104,0.197,0.213,0.44,0.318,0.609c0.235,0.374,0.464,0.597,0.631,0.657
					c0.246,0.089,0.67-0.019,0.776-0.668c0.105-0.651-0.388-2.517-0.388-2.517s0.036,0.053,0.21,0.317
					c0.178,0.263,0.265,0.721,0.512,1.021c0.245,0.298,0.738,0.492,1.001,0.403c0.266-0.088,0.3-0.581,0.105-1.461
					c-0.191-0.88-0.982-1.372-1.547-2.076c-0.518-0.647-0.916-1.785-0.979-1.965c-0.707,0.353-1.328,0.75-1.891,1.336
					c-1.164,1.216-1.417,1.521-1.417,1.521s-0.254-0.305-1.417-1.521c-0.566-0.59-1.189-0.987-1.904-1.341
					c-0.066,0.15-0.551,1.237-1.074,1.893c-0.26,0.324-0.617,0.571-0.873,0.882c-0.296,0.362-0.476,0.798-0.579,1.271
					C44.09,71.106,44.126,71.599,44.389,71.688z"/>
				<path fill="#D4AF39" d="M44.354,74.679l-0.003-0.007c0.341-0.3,0.515-0.465,0.515-0.465s0.249-0.205,0.187,0.188
					c-0.063,0.392-0.197,1.197-0.113,1.548c0.083,0.354,0.123,0.651,0.559,0.392c0.434-0.258,0.537-0.412,0.742-0.63
					c0.207-0.218,0.422-0.309,0.371,0.033c-0.051,0.339-0.206,0.856-0.134,1.547c0.072,0.691,0.413,0.793,0.856,0.205
					c0.444-0.588,0.713-1.125,0.848-1.413c0.134-0.288,0.4-0.535,0.4,0c0,1.156,0.266,2.836,1.539,3.284
					c1.273-0.448,1.538-2.128,1.538-3.284c0-0.535,0.269-0.288,0.403,0c0.134,0.288,0.402,0.825,0.846,1.413
					s0.785,0.486,0.855-0.205c0.072-0.69-0.082-1.208-0.134-1.547c-0.051-0.342,0.167-0.251,0.374-0.033
					c0.205,0.218,0.309,0.372,0.742,0.63c0.434,0.26,0.473-0.038,0.557-0.392c0.084-0.351-0.051-1.156-0.113-1.548
					c-0.063-0.393,0.186-0.188,0.186-0.188s0.174,0.165,0.518,0.465c0.339,0.3,0.807,0.317,0.807,0.317s0.219-1.212-0.286-1.934
					c-0.505-0.726-0.689-0.96-0.689-0.96s-0.286-0.017-0.507-0.102c-0.215-0.086-0.43-0.241-0.43-0.241s0,0.37,0,0.495v0.176
					c0,0,0.619,0.588,0.762,0.762c0.146,0.175,0.436,0.476,0.012,0.186c-0.424-0.288-0.773-0.579-0.773-0.579
					s-0.084,0.611-0.258,0.766c-0.176,0.154-0.424,0.175-0.525,0.133c-0.105-0.042-0.105-0.042-0.105-0.042l-0.029,0.239
					c0,0,0.381,0.712,0.432,1.002c0.053,0.288-0.032,0.258-0.205-0.114c-0.176-0.37-0.517-0.846-0.671-1.105
					c-0.154-0.257-0.383-0.434-0.361-0.102c0.022,0.331-0.114,0.93-0.229,1.146c-0.112,0.216-0.185,0.288-0.185,0.288
					s0.235,0.839,0.268,0.992c0.031,0.154,0.01,0.331-0.123,0.133c-0.135-0.196-0.518-1.021-0.518-1.021s-0.506-0.021-0.65-0.165
					c-0.142-0.146-0.371-0.7-0.371-0.7s-0.206,0.709-0.379,0.938c-0.17,0.228-0.569,0.456-0.569,0.456s-0.027,1.235-0.056,1.453
					c-0.029,0.22-0.039,0.313-0.131,0.313c-0.091,0-0.102-0.094-0.131-0.313c-0.027-0.218-0.057-1.453-0.057-1.453
					s-0.398-0.229-0.571-0.456c-0.169-0.229-0.378-0.938-0.378-0.938s-0.225,0.555-0.369,0.7c-0.146,0.144-0.652,0.165-0.652,0.165
					s-0.383,0.825-0.515,1.021c-0.134,0.198-0.154,0.021-0.124-0.133c0.031-0.155,0.268-0.992,0.268-0.992s-0.072-0.072-0.186-0.288
					c-0.112-0.216-0.246-0.814-0.227-1.146c0.02-0.332-0.207-0.155-0.361,0.102c-0.156,0.26-0.497,0.735-0.671,1.105
					c-0.175,0.372-0.258,0.402-0.207,0.114c0.053-0.29,0.436-1.002,0.436-1.002l-0.032-0.239L46.24,73.69
					c-0.104,0.042-0.351,0.021-0.526-0.133c-0.177-0.154-0.258-0.766-0.258-0.766s-0.351,0.291-0.774,0.579
					c-0.423,0.29-0.135-0.009,0.011-0.186c0.146-0.174,0.764-0.762,0.764-0.762s0-0.055,0-0.176v-0.495c0,0-0.212,0.155-0.432,0.241
					c-0.22,0.085-0.505,0.102-0.505,0.102s-0.185,0.234-0.689,0.96c-0.506,0.722-0.288,1.934-0.288,1.934
					S44.014,74.975,44.354,74.679z"/>
				<path fill="#D4AF39" d="M50.563,82.742c-0.328-0.381-0.436-0.568-0.436-0.568s-0.108,0.188-0.436,0.568
					c-0.328,0.381-1.089,0.979-1.089,0.979s0.069,1.009,0.436,1.552c0.309,0.461,0.606,0.88,1.089,1.199
					c0.482-0.319,0.778-0.738,1.087-1.199c0.368-0.543,0.438-1.552,0.438-1.552S50.889,83.123,50.563,82.742z"/>
				<path fill="#D4AF39" d="M44.242,77.933c0.689-0.459,0.943-0.969,0.943-0.969h-0.243c-0.134,0-0.243-0.184-0.254-0.367
					c-0.011-0.183,0-0.559,0.051-0.996c0.051-0.437-0.07-0.793-0.07-0.793s-0.296,0.272-0.742,0.509
					c-0.446,0.233-0.628,0.119-0.628,0.119l-0.112-0.446c0,0-0.192,0.408-0.467,0.886c-0.273,0.479-1.016,1.009-1.542,1.404
					c-0.527,0.396-1.106,0.816-1.544,0.969c-0.436,0.152-0.182,0.354-0.182,0.354s0.436,0.439,1.563,0.643
					c1.126,0.201,1.663-0.254,1.969-0.446C43.288,78.602,43.551,78.39,44.242,77.933z"/>
				<path fill="#D4AF39" d="M46.924,78.358c-0.402-0.041-0.645-0.193-0.723-0.629c-0.051-0.285,0.022-1.376,0.022-1.376
					s-0.133,0.113-0.285,0.298c-0.152,0.18-0.497,0.222-0.497,0.222s-0.051,0.152-0.201,0.397c-0.154,0.244-0.349,0.54-0.733,0.781
					c-0.384,0.247-0.831,0.53-1.124,0.775c-0.297,0.243-0.641,0.531-1.027,0.742c-0.385,0.216-0.729,0.561-0.86,1.132
					c-0.134,0.569-0.032,0.753,0.414,0.722c0.446-0.032,0.497,0.01,1.219-0.174c0.721-0.184,1.744-0.987,2.495-1.464
					C46.376,79.308,46.924,78.358,46.924,78.358z"/>
				<path fill="#D4AF39" d="M48.92,79.018c0,0-0.305-0.387-0.418-0.826c-0.11-0.437-0.322-1.301-0.322-1.301
					s-0.102,0.274-0.345,0.791c-0.245,0.522-0.661,0.646-0.661,0.646s-0.02,0.221-0.364,0.66c-0.345,0.436-0.851,0.844-1.37,1.148
					c-0.519,0.303-1.187,0.724-1.553,1.243c-0.365,0.519-0.396,1.056-0.223,1.29c0.174,0.233,0.415-0.027,0.76-0.202
					c0.347-0.174,1.33-0.326,2.688-1.06C48.474,80.678,48.92,79.018,48.92,79.018z"/>
				<path fill="#D4AF39" d="M49.51,82.062c0.375-0.559,0.437-1.919,0.437-1.919s-0.132-0.093-0.315-0.247
					c-0.182-0.152-0.537-0.689-0.537-0.689s-0.225,0.468-0.467,0.903c-0.244,0.438-0.364,0.592-0.872,1.06
					c-0.508,0.469-1.197,0.926-1.493,1.423c-0.292,0.501-0.133,1.497,0.062,1.832c0.194,0.338,0.466,0.226,0.751-0.051
					c0.285-0.275,0.376-0.345,0.873-0.772C48.444,83.172,49.134,82.624,49.51,82.062z"/>
				<path fill="#D4AF39" d="M60.586,78.248c-0.436-0.152-1.014-0.573-1.541-0.969s-1.268-0.926-1.543-1.404
					c-0.272-0.478-0.465-0.886-0.465-0.886l-0.112,0.446c0,0-0.184,0.114-0.63-0.119c-0.446-0.236-0.742-0.509-0.742-0.509
					s-0.119,0.356-0.068,0.793c0.049,0.438,0.06,0.813,0.049,0.996c-0.01,0.184-0.12,0.367-0.252,0.367h-0.244
					c0,0,0.253,0.51,0.942,0.969c0.69,0.457,0.954,0.669,1.259,0.865c0.305,0.192,0.844,0.647,1.969,0.446
					c1.127-0.203,1.563-0.643,1.563-0.643S61.023,78.4,60.586,78.248z"/>
				<path fill="#D4AF39" d="M57.864,79.569c-0.384-0.211-0.729-0.499-1.022-0.742c-0.297-0.245-0.74-0.528-1.127-0.775
					c-0.387-0.241-0.579-0.537-0.731-0.781c-0.152-0.245-0.204-0.397-0.204-0.397s-0.344-0.042-0.496-0.222
					C54.133,76.467,54,76.354,54,76.354s0.07,1.091,0.02,1.376c-0.078,0.436-0.317,0.588-0.721,0.629c0,0,0.549,0.949,1.3,1.427
					c0.751,0.477,1.776,1.28,2.497,1.464c0.718,0.184,0.771,0.142,1.215,0.174c0.446,0.031,0.55-0.152,0.418-0.722
					C58.598,80.13,58.251,79.785,57.864,79.569z"/>
				<path fill="#D4AF39" d="M54.783,80.137c-0.519-0.305-1.026-0.713-1.371-1.148c-0.345-0.439-0.365-0.66-0.365-0.66
					s-0.415-0.124-0.658-0.646c-0.245-0.517-0.347-0.791-0.347-0.791s-0.212,0.864-0.325,1.301
					c-0.109,0.439-0.415,0.826-0.415,0.826s0.448,1.66,1.808,2.391c1.358,0.733,2.342,0.886,2.687,1.06
					c0.345,0.175,0.588,0.436,0.763,0.202c0.172-0.234,0.141-0.771-0.224-1.29C55.971,80.86,55.299,80.439,54.783,80.137z"/>
				<path fill="#D4AF39" d="M52.467,81.169c-0.506-0.468-0.628-0.622-0.873-1.06c-0.242-0.436-0.466-0.903-0.466-0.903
					s-0.354,0.537-0.539,0.689c-0.182,0.154-0.312,0.247-0.312,0.247s0.06,1.36,0.436,1.919c0.373,0.563,1.066,1.11,1.563,1.539
					c0.497,0.428,0.588,0.497,0.87,0.772c0.285,0.276,0.56,0.389,0.752,0.051c0.191-0.335,0.355-1.331,0.062-1.832
					C53.666,82.095,52.975,81.638,52.467,81.169z"/>
			</g>
			<path fill="#C42228" d="M60.842,33.17c0.309-0.181,1.133-0.533,2.012-0.607c0.877-0.074,1.557,0.059,2.285,0.254
				c0.523,0.142,0.943,0.163,1.363,0.051c0.627-0.167,1.115-0.734,1.28-1.43c0,0,0.579,0.744-0.013,1.55
				c-0.285,0.388-0.656,0.629-1.034,0.707c-1.228,0.247-2.435-0.504-3.458-0.569c-0.983-0.063-1.756,0.559-1.756,0.559
				s-0.232,0.194-0.561,0.004C60.632,33.495,60.537,33.35,60.842,33.17z"/>
			<path fill="#D4AF39" d="M64.385,68.759c0,0,0.121-0.013,0.291-0.038c0.17-0.02,0.532-0.144,0.641-0.194
				c0.109-0.047,0.279-0.06,0.387,0.063c0.109,0.121,0.992,0.642,0.992,0.642h-1.464C64.725,69.23,64.385,68.759,64.385,68.759z"/>
			<path fill="#D4AF39" d="M60.266,68.509v-0.146l0.193-0.421c0,0,0.229,0.146,0.449,0.372c0.286,0.298,0.595,0.713,0.729,0.887
				c0.246,0.316,0.586,0.606,0.295,0.109c-0.295-0.499-0.389-0.713-0.625-1.047c-0.232-0.332-0.41-0.478-0.381-0.497
				c0.031-0.021,0.217-0.049,0.83-0.127c0.614-0.08,0.995-0.313,1.275-0.479c0.284-0.167,0.791-0.44,0.791-0.44
				s1.041,0.44,1.433,0.539c0.388,0.098,0.622,0.155,0.243,0.343c-0.381,0.183-0.702,0.243-0.887,0.359
				c-0.186,0.117-0.761,0.303-1.111,0.303c-0.35,0-0.945,0.009-0.711,0.254s0.498,0.713,0.75,1.428
				c0.254,0.713,0.265,1.35,0.265,1.662s-0.04,0.624-0.04,0.624s-0.428-0.479-1.578-1.201c-1.15-0.722-1.579-0.969-1.793-1.064
				c-0.215-0.099-0.322-0.099-0.283-0.372C60.147,69.321,60.266,68.646,60.266,68.509z"/>
			<path fill="#D4AF39" d="M55.873,65.014c0.068-0.028,0.142-0.062,0.214-0.096c0.021,0.006,0.036,0.009,0.053,0.019
				c0.134,0.066,0.837,0.538,1.12,0.999c0.282,0.457,0.565,0.499,0.256,0c-0.311-0.501-0.539-0.783-0.781-0.999
				c-0.094-0.084-0.18-0.154-0.246-0.207c0.564-0.271,1.176-0.601,1.771-1.013c0.076,0.15,0.226,0.425,0.39,0.599
				c0.244,0.258,0.783,0.472,0.783,0.472s-0.433-0.444-0.58-0.782c-0.096-0.214-0.157-0.446-0.189-0.586
				c0.413-0.32,0.809-0.688,1.162-1.108c0.071,0.29,0.305,1.004,0.996,1.776c0.904,1.013,2.711,1.522,2.711,1.522
				s0.635,0.068,0.121,0.203c-0.513,0.136-0.875,0.366-1.873,0.19c-1-0.176-1.067-0.216-1.201-0.256c-0.135-0.042-0.5-0.015,0,0.174
				c0.498,0.189,1.658,0.365,2.104,0.323c0.445-0.038,1.053-0.134,0.418,0.203c-0.633,0.338-0.904,0.474-1.295,0.474
				s-0.553,0.122-0.932,0.122c-0.377,0-0.484-0.069-0.754-0.122c-0.271-0.053-0.445,0.038-0.445,0.147
				c0,0.108,0.363,0.404,0.351,1.148c-0.013,0.74-0.067,1.227-0.136,1.442c-0.066,0.216-0.229,0.565-0.338,0.769
				c-0.107,0.202-0.148,0.405-0.254-0.026c-0.109-0.433-0.352-1.053-0.446-1.472c-0.095-0.418-0.149-0.431-0.188-0.646
				c-0.041-0.218-0.27-0.379-0.164,0.012c0.109,0.394,0.232,0.891,0.313,1.244c0.082,0.349,0.269,0.996-0.055,0.484
				c-0.322-0.512-1.539-1.874-1.738-2.119c-0.203-0.241-0.364-0.472-0.514-0.673c-0.148-0.203-0.567-0.472-0.769-0.77
				c-0.184-0.269-0.721-0.791-0.949-0.978C55.129,65.337,55.49,65.185,55.873,65.014z"/>
			<path fill="#D4AF39" d="M72.643,33.874c-0.03,0.744-0.854,2.169-1.322,2.927c-0.468,0.761-0.597,1.067-0.518,1.116
				c0.082,0.047,0.276-0.342,0.534-0.681c0.257-0.338,0.759-1.13,1.177-1.728c0.42-0.599,1.033-2.021,1.115-2.149
				c0.079-0.129,0.111-0.211,0.322-0.049c0.209,0.161,0.611,1.729,0.129,2.796c-0.484,1.066-1.212,1.841-1.517,2.213
				c-0.307,0.372-0.71,0.953-0.646,1.004c0.064,0.047,0.178-0.099,0.547-0.486c0.373-0.389,0.986-1.051,1.389-1.535
				c0.328-0.394,0.771-1.192,0.929-1.479c0.058-0.109,0.134-0.078,0.19-0.023c0.133,0.134,0.345,0.444,0.254,1.291
				c-0.131,1.18-0.744,1.858-1.291,2.457c-0.551,0.597-1.098,1.1-1.019,1.18c0.081,0.081,0.647-0.421,1.034-0.791
				c0.387-0.372,1.339-1.292,1.548-1.554c0.21-0.258,0.517-0.127,0.501,0.89c-0.017,1.02-1.145,2.054-1.613,2.619
				c-0.469,0.564-1.051,0.904-1.002,1.017c0.049,0.114,0.518-0.176,0.822-0.387c0.309-0.209,1.453-0.954,1.68-1.116
				c0.226-0.159,0.338,0.146,0.047,1.116c-0.289,0.969-1.128,1.744-1.629,2.1c-0.5,0.357-1.307,0.793-1.257,0.905
				c0.049,0.114,0.386-0.033,0.854-0.26c0.468-0.225,1.032-0.436,1.438-0.548c0.402-0.112,0.402,0.178,0.402,0.178
				s0.082,0.824-0.516,1.486c-0.599,0.662-1.277,0.92-1.922,1.034c-0.644,0.114-0.741,0.145-0.725,0.244
				c0.016,0.095,0.081,0.111,0.225,0.111c0.145,0,0.742,0.063,1.291,0.063s0.841,0.131,0.841,0.372c0,0.245,0.015,0.567-0.81,1.115
				c-0.822,0.55-1.742,0.632-2.13,0.712c-0.386,0.081-0.403,0.112-0.321,0.227c0.082,0.112,0.258,0.098,0.871,0.161
				c0.615,0.065,0.985,0.309,1.064,0.469c0.08,0.163-0.047,0.647-0.547,0.986c-0.501,0.338-1.146,0.452-2.116,0.389
				c-0.967-0.065-1.21-0.082-1.243,0.08c-0.03,0.161,0.293,0.21,0.775,0.292c0.486,0.079,0.856,0.079,1.131,0.307
				c0.273,0.225,0.063,0.692-0.403,1.034c-0.468,0.339-1.632,0.339-2.114,0.307c-0.484-0.031-1.227-0.211-1.273-0.082
				c-0.049,0.131,0.354,0.325,0.854,0.501c0.5,0.178,0.646,0.292,0.743,0.503c0.097,0.208,0.015,0.404-0.582,0.629
				c-0.595,0.227-1.468,0.227-1.92,0.017c-0.452-0.209-0.694-0.292-0.774-0.209c-0.08,0.08,0,0.16,0.096,0.274
				s0.484,0.419,0.985,0.55c0.501,0.129,0.55,0.129,0.726,0.533c0.178,0.402-0.273,0.726-1.178,0.76
				c-0.904,0.031-2.113-0.322-2.502-0.55c-0.388-0.227-0.531-0.275-0.595-0.193c-0.065,0.079-0.051,0.129,0.146,0.273
				c0.191,0.147,0.805,0.583,1.111,0.662c0.307,0.082,0.34,0.307,0.34,0.518c0,0.21,0.08,0.631-0.726,0.825
				c-0.808,0.194-1.761,0.048-2.631-0.565c-0.279-0.198-0.442-0.361-0.537-0.503c0.073-0.824,0.034-1.394-0.065-1.916
				c0.17-0.019,0.497-0.067,0.828-0.199c0.484-0.194,0.678-0.646,0.791-0.89c0.111-0.243,0.275-0.243,0.467-0.178
				c0.195,0.065,0.389,0.146,0.663,0.131c0.274-0.019,0.854-0.163,1.275-0.664c0.419-0.501,0.337-0.983,0.354-1.229
				c0.017-0.243,0.405-0.063,0.597-0.063c0.196,0,0.759-0.083,1.275-0.439c0.518-0.354,0.518-0.838,0.564-1.032
				c0.049-0.193,0.258-0.322,0.422-0.386c0.16-0.067,0.418-0.131,0.772-0.421c0.355-0.293,0.484-0.856,0.501-1.051
				c0.016-0.194,0.227-0.213,0.952-0.583c0.726-0.371,0.662-1.148,0.63-1.455c-0.033-0.307-0.372-0.563-0.372-0.678
				c0-0.113,0.243-0.146,0.484-0.293c0.243-0.143,0.854-0.386,0.87-1.29c0.018-0.906-0.58-1.003-0.58-1.003s0.113-0.049,0.355-0.194
				c0.242-0.145,0.904-0.599,0.904-1.13c0-0.533-0.244-0.776-0.42-0.905c-0.18-0.131-0.662-0.258-0.662-0.258
				s0.307-0.196,0.436-0.615c0.129-0.421,0.178-0.937-0.127-1.308c-0.309-0.374-0.824-0.374-1.1-0.374
				c-0.273,0-0.516,0.146-0.613,0.065c-0.096-0.08-0.112-0.146-0.014-0.355c0.094-0.211,0.111-0.728,0.03-0.904
				c-0.08-0.18-0.097-0.533-0.791-0.76c-0.693-0.227-1.421,0.243-1.646,0.372s-0.129-0.178-0.129-0.403
				c0-0.229,0.468-0.793,1.002-1.6c0.531-0.81,0.774-1.23,1.369-2.457c0.6-1.229,0.987-2.813,1.066-3.217
				c0.08-0.404,0.242-0.211,0.242-0.211s0.161,0.063,0.533,1.002C72.612,32.276,72.676,33.132,72.643,33.874z"/>
			<path fill="#D4AF39" d="M60.471,50.403c0.416-0.022,0.956-0.249,1.371-0.854c0.416-0.603,1.04-0.748,2.121-0.728
				c1.082,0.021,1.58-0.499,1.852-1.249c0.268-0.749-0.044-1.604-1.144-2.145c-1.103-0.542-1.603-1.145-1.644-2.081
				c-0.042-0.936,1.104-2.103,2.244-3.414c1.145-1.312,2.037-3.164,2.037-3.164s0.334,0.437,0.334,0.874s-0.167,0.895,0,1.02
				c0.167,0.126,0.229-0.187,0.893-0.479c0.666-0.29,1.205-0.332,1.622,0.145c0.414,0.481,0,1.314-0.374,1.71
				c-0.375,0.396-0.686,0.686-0.582,0.831c0.104,0.146,0.664-0.229,0.854-0.353c0.185-0.127,0.621-0.605,1.266-0.542
				s0.873,0.248,0.937,0.791c0.063,0.54-0.583,1.02-0.998,1.228c-0.415,0.207-0.583,0.396-0.478,0.478
				c0.104,0.085,0.207,0,0.395-0.06c0.187-0.063,0.705-0.125,1.039,0c0.332,0.123,0.875,0.58,0.374,1.143
				c-0.499,0.563-1.538,0.771-1.745,0.813c-0.209,0.041-0.313-0.022-0.332,0.145c-0.021,0.167,0.437,0.167,0.996,0.188
				c0.563,0.021,0.729,0.561,0.646,0.977c-0.083,0.417-1.021,0.874-1.538,0.958c-0.52,0.083-0.708,0-0.748,0.146
				c-0.043,0.144,0.062,0.207,0.352,0.291c0.293,0.083,0.854,0.146,0.957,0.604c0.104,0.458,0.125,0.666-0.311,1.063
				c-0.438,0.394-1.145,0.332-1.352,0.29c-0.209-0.041-0.459-0.271-0.666-0.062c-0.207,0.207,0.188,0.374,0.541,0.622
				c0.354,0.253,0.332,0.731-0.271,1.063c-0.602,0.334-1.206,0.207-1.455,0.125c-0.248-0.083-0.582-0.479-0.747-0.229
				c-0.167,0.251,0.521,0.332,0.812,0.687c0.29,0.355,0.187,0.936-0.396,1.291c-0.582,0.353-1.538,0.104-1.703-0.041
				c-0.167-0.147-0.375-0.209-0.499-0.084c-0.123,0.125,0.062,0.457,0.187,0.75c0.125,0.292,0.353,1.143-0.521,1.477
				c-0.872,0.332-1.661-0.416-1.807-0.563c-0.146-0.146-0.292-0.167-0.417-0.104c-0.124,0.062-0.063,0.187,0.043,0.332
				c0.104,0.146,0.332,0.771-0.292,1.208c-0.425,0.298-0.892,0.276-1.142,0.234c-0.131-0.488-0.299-1.009-0.471-1.74h0.13
				c0.083,0,0.1,0.127,0.1,0.175c0,0.051-0.023,0.092,0.051,0.092c0.075,0,0.082,0.042,0.19,0.118
				c0.109,0.076,0.209,0.165,0.268,0.123c0.059-0.039-0.226-0.19-0.3-0.282c-0.076-0.091-0.226-0.234-0.232-0.332
				c-0.011-0.101-0.06-0.158-0.208-0.285c-0.048-0.036-0.084-0.083-0.113-0.127c-0.1-0.486-0.197-1.056-0.288-1.744
				c-0.06-0.468-0.095-0.906-0.107-1.316L60.471,50.403z"/>
			<path fill="#D4AF39" d="M78.236,37.429c-0.929,1.876-2.24,2.936-2.24,2.936s0.174-0.468,0.248-0.787
				c0.076-0.321,0.017-0.687,0.017-0.687s0.331-0.421,0.938-1.358c0.607-0.938,0.931-2.322,0.931-2.322s-0.567,1.384-1.007,2.121
				c-0.439,0.734-0.945,1.335-0.945,1.335S76,38.015,75.873,37.98c-0.127-0.033-0.22,0.068-0.33,0.21
				c-0.109,0.146-0.203,0.131-0.203,0.131s0.15-0.311,0.381-0.683c0.105-0.168,0.258-0.35,0.366-0.522
				c0.347-0.546,1.094-1.584,1.477-2.623c0.382-1.042,1.22-3.648,1.364-4.416c0.146-0.764,0.291-0.345,0.439,0.22
				c0.143,0.565,0.345,1.367,0.216,2.572C79.458,34.072,79.166,35.549,78.236,37.429z"/>
			<path fill="#D4AF39" d="M77.035,42.5c-0.346,0.256-0.855,0.601-0.855,0.601s0.081-0.188,0.132-0.414
				c0.051-0.227,0.073-0.693,0.073-0.693s0.406-0.357,0.689-0.602c0.284-0.251,0.641-0.57,1.346-1.444
				c0.706-0.875,0.139-0.349-0.436,0.277c-0.575,0.626-1.673,1.537-1.673,1.537s0-0.015-0.007-0.205
				c-0.008-0.188-0.065-0.327-0.167-0.459c-0.104-0.129-0.051-0.149,0.569-0.621c0.619-0.476,2.223-2.28,2.878-3.356
				c0.657-1.077,1.366-2.536,1.366-2.536s0.345,2.151-0.967,4.524C78.674,41.477,77.381,42.244,77.035,42.5z"/>
			<path fill="#D4AF39" d="M70.154,56.076c-0.719-0.279-0.52-0.986-0.52-0.997c0-0.015,0.439,0.138,0.846,0.286
				c0.404,0.152,1.4,0.442,1.796,0.454c0.392,0.011,0.392-0.046,0.405-0.104c0.012-0.057-0.303,0-0.869-0.104
				c-0.568-0.105-1.564-0.628-1.738-0.744s-0.15-0.14,0.104-0.163c0.256-0.021,0.475-0.14,0.567-0.22
				c0.093-0.082,0.359,0.034,1.009,0.187c0.65,0.149,1.992,0.383,3.025,0.383c1.031,0,1.993-0.174,2.154-0.21
				c0.162-0.033,0.336,0.058-0.161,0.895c-0.499,0.836-2.248,1.288-3.466,1.277C72.09,57.004,70.874,56.353,70.154,56.076z"/>
			<path fill="#D4AF39" d="M73.389,54.352c-1.256,0.009-1.724-0.363-1.724-0.363s0-0.063,0.171-0.321
				c0.17-0.254,0.138-0.691,0.138-0.691s0.3,0.053,0.818,0.127c0.522,0.075,1.128,0.151,1.8,0.031
				c0.67-0.114,0.383-0.188-0.148-0.127c-0.533,0.065-1.555-0.127-1.884-0.243c-0.33-0.118-0.192-0.225,0.032-0.3
				c0.222-0.074,0.828-0.459,0.828-0.459s1.521,0.192,2.936,0.033c1.415-0.16,2.31-0.522,2.598-0.564
				c0.287-0.042,0.275,0.074,0.275,0.074s0.075,0.127-0.415,0.896c-0.487,0.766-1.446,1.267-2.255,1.5
				C75.749,54.179,74.645,54.339,73.389,54.352z"/>
			<path fill="#D4AF39" d="M73.71,51.41c0,0,0.054-0.076,0.129-0.33c0.074-0.256-0.14-0.45-0.14-0.45s0.288-0.083,1.227-0.201
				c0.936-0.116,0.986-0.19,1.563-0.319c0.574-0.129,0.955-0.3,0.946-0.361c-0.011-0.065-0.19,0.031-0.531,0.16
				c-0.341,0.127-1.778,0.275-2.384,0.36c-0.606,0.086-0.945,0.149-1.053,0.086s-0.479-0.16-0.479-0.16s0.254-0.072,0.574-0.129
				c0.32-0.053,0.606-0.19,0.775-0.309c0.172-0.117,0.225-0.15,0.99-0.233c0.766-0.084,1.383-0.33,2.756-0.831
				c1.372-0.501,2.404-1.096,2.68-1.321c0.276-0.223,0.254-0.063,0.182,0.226c-0.076,0.286-0.064,0.647-0.754,1.457
				c-0.693,0.811-1.033,1.162-2.776,1.801C75.668,51.493,73.71,51.41,73.71,51.41L73.71,51.41z"/>
			<path fill="#D4AF39" d="M78.87,47.159c-1.542,1.085-3.351,1.484-3.733,1.533c-0.088-0.1,0.092-0.463,0.01-0.683
				c-0.102-0.263-0.266-0.265-0.639-0.286c-0.373-0.022-0.127-0.097-0.041-0.097c0.085,0,0.107-0.011,0.722-0.172
				c0.618-0.158,1.245-0.254,2.096-0.573c0.853-0.319,1.106-0.556,1.085-0.617c-0.021-0.065-0.393,0.201-1.182,0.499
				c-0.787,0.299-1.701,0.415-2.2,0.522c-0.501,0.105-0.065-0.107,0.171-0.245c0.232-0.14,0.563-0.651,0.563-0.651
				s0.555-0.095,1.459-0.372c0.902-0.277,1.658-0.586,2.412-1.012c0.262-0.146,0.512-0.338,0.78-0.53
				c0.519-0.37,1.04-0.749,1.241-0.896c0.309-0.225,0.214-0.043,0.182,0.097c-0.033,0.136-0.245,0.776-0.733,1.479
				C80.572,45.858,80.412,46.07,78.87,47.159z"/>
			<path fill="#D4AF39" d="M79.122,44.102c-1.521,1.205-2.829,1.575-3.052,1.673c-0.223,0.097-0.201-0.032-0.162-0.159
				c0.045-0.129,0.077-0.545,0.077-0.545s0.542-0.308,1.149-0.66c0.605-0.352,1.276-0.831,1.723-1.14
				c0.446-0.308,0.18-0.286,0.043-0.17c-0.139,0.116-0.756,0.479-1.373,0.863c-0.617,0.383-1.553,0.937-1.553,0.937
				s-0.021-0.203-0.148-0.33c-0.128-0.127-0.447-0.095-0.447-0.095s0.16-0.161,0.254-0.311c0.098-0.148,0.598-0.309,1.162-0.575
				c0.563-0.265,1.574-1.012,2.318-1.64c0.746-0.628,2.191-2.206,2.285-2.333c0.099-0.127,0.16-0.105,0.173,0.052
				c0.009,0.16,0.063,0.268-0.096,0.993C81.314,41.386,80.645,42.897,79.122,44.102z"/>
			<path fill="#D4AF39" d="M73.738,32.717c-0.17,0.359-0.36,0.63-0.496,0.861c-0.205,0.353-0.321,0.581-0.321,0.581
				s-0.042-0.123-0.009-0.334c0.032-0.214,0.064-0.504,0.007-0.854c-0.029-0.187-0.069-0.376-0.06-0.541
				c0.012-0.19,0.076-0.354,0.102-0.46c0.049-0.205,0.267-1.091,0.373-1.719c0.107-0.628,0.22-1.522,0.213-2.312
				c-0.008-0.791-0.123-0.392-0.123-0.009s-0.041,0.971-0.162,1.872c-0.121,0.905-0.502,2.279-0.502,2.279s-0.025-0.211-0.139-0.512
				c-0.115-0.303-0.301-0.645-0.447-1.018c-0.147-0.374-0.097-0.438-0.097-0.438s0.535-2.557,0.675-3.765
				c0.142-1.209,0.367-4.384,0.367-4.384c0.779,0.787,1.361,2.855,1.465,4.812c0.076,1.476-0.161,2.84-0.23,3.393
				C74.218,31.268,74.027,32.122,73.738,32.717z"/>
			<path fill="#D4AF39" d="M75.474,36.75c-0.025-0.579-0.158-1.016-0.532-1.145c0,0,0.33-0.579,0.619-1.404
				c0.197-0.564,0.359-1.29,0.443-1.846c0.205-1.371,0.367-2.783-0.041-0.472s-0.899,3.128-0.899,3.128l-0.59,0.962
				c0.085-0.421,0.101-0.719,0.078-1.18s-0.081-1.085-0.222-1.58c0,0,0.715-1.432,1.164-3.151c0.447-1.717,0.705-3.28,0.715-4.211
				c0.041-0.9,0.061-1.249,0.061-1.249s0.735,0.554,0.979,3.355c0.246,2.801-0.488,5.48-0.856,6.502
				C76.025,35.483,75.474,36.75,75.474,36.75z"/>
			<path fill="#D4AF39" d="M67.456,58.116c0,0,0.116-0.082,0.462-0.302c0.35-0.221,0.246-0.882,0.246-0.882s0.092,0.069,0.346,0.243
				c0.258,0.175,0.545,0.372,0.893,0.51c0.349,0.14,0.523,0.234,0.74,0.302c0.222,0.07,0.164-0.021-0.021-0.125
				c-0.186-0.105-0.243-0.164-0.707-0.351c-0.463-0.185-1.391-0.996-1.391-0.996s0.222-0.025,0.603-0.036
				c0.383-0.011,0.871-0.209,0.871-0.209s0.381,0.349,1.923,1.009c1.541,0.662,2.851,0.837,2.851,0.837s-0.161,0.789-0.905,1.056
				c-0.613,0.267-1.459,0.428-3.117,0.036C68.592,58.813,67.456,58.116,67.456,58.116z"/>
			<path fill="#D4AF39" d="M65.426,59.698c-0.127-0.653,0.243-1.105,0.243-1.105s0.083,0.046,0.315,0.254
				c0.23,0.211,0.566,0.606,1.216,0.93c0.649,0.324,0.88,0.303,0.254-0.035c-0.624-0.337-1.54-1.288-1.54-1.288l0.242-0.092
				c0.246-0.093,0.661,0.068,2.398,1.113c1.738,1.045,2.76,1.08,2.76,1.08s-0.775,0.939-2.887,0.871
				C66.318,61.356,65.555,60.348,65.426,59.698L65.426,59.698z"/>
			<path fill="#D4AF39" d="M61.441,58.939c0,0,0.23,0.327,0.544,0.533c0.313,0.211,1.147,0.338,1.147,0.338s0.033,0.095,0.197,0.301
				c0.162,0.211,0.521,0.71,0.893,0.977c0.368,0.267,0.949,0.44,0.985,0.37c0.032-0.069-0.337-0.207-0.696-0.428
				c-0.359-0.222-0.683-0.628-0.928-0.906c-0.243-0.279,0.105-0.231,0.105-0.231s0.439,0.011,0.846-0.024
				c0.404-0.036,0.324,0,0.44,0.198c0.116,0.197,0.276,0.372,0.579,0.719c0.368,0.424,0.717,0.811,1.064,1.229
				c0.232,0.279,0.059,0.361,0.059,0.361s-0.105,0.174-1.041,0.277c-0.581,0.065-1.209-0.009-1.869-0.39
				c-0.408-0.236-0.831-0.613-1.262-1.083C61.383,59.95,61.441,58.939,61.441,58.939z"/>
			<path fill="#D4AF39" d="M60.94,61.479c0.232,0.302,0.359,0.431,0.359,0.431s-0.159-0.499-0.302-0.731
				c-0.072-0.123-0.154-0.241-0.213-0.323c0.155-0.35,0.282-0.724,0.377-1.128c0.102,0.333,0.424,1.313,0.823,1.95
				c0.486,0.776,0.915,1.058,0.636,1.265c-0.278,0.21-0.822,0.256-1.438-0.046c-0.592-0.292-0.764-0.8-0.85-1.212
				c0.105-0.161,0.203-0.328,0.295-0.504C60.705,61.229,60.815,61.316,60.94,61.479z"/>
			<ellipse fill="#D4AF39" cx="61.078" cy="30.445" rx="0.432" ry="0.394"/>
			<path fill="#D4AF39" d="M61.987,29.701c-0.394-0.009-0.606-0.197-1.04-0.154c-0.514,0.051-1.208,0.349-2.05,0.797
				c-0.66,0.299-1.531,0.446-2.37,0.207c-0.235-0.067-0.467-0.198-0.692-0.323c-1.023-0.582-0.776-1.726-0.776-1.726
				c0.758,0.544,1.691,0.838,2.562,0.78c0,0-0.063,0.051-0.214,0.197c-0.148,0.151-0.421,0.325-0.33,0.399
				c0.09,0.074,0.465-0.281,0.778-0.514c0.313-0.233,0.776-0.548,1.569-0.779c0.797-0.232,1.689-0.251,2.284,0.081
				s0.644,0.748,0.563,0.913C62.225,29.674,62.114,29.703,61.987,29.701z"/>
			<path fill="#D4AF39" d="M56.499,40.68c0,0,0.261,0.577,0.403,0.782c0.143,0.207,0.206,0.239,0.206,0.239s-0.261,0.224-0.642,0.34
				c-0.38,0.119-0.719,0.192-0.719,0.192s0.426-0.588,0.576-1C56.476,40.821,56.499,40.68,56.499,40.68z"/>
			<path fill="#D4AF39" d="M51.334,40.339c0.125-0.323,0.205-0.506,0.205-0.506c0.529,0.104,1.531-0.142,1.965-0.405
				c0,0-0.396,0.808-0.793,1.085c-0.396,0.278-0.45,0.294-0.45,0.294s0.396,0.063,0.925-0.459c0.53-0.524,0.77-1.125,0.77-1.125
				s-0.119,1.394,0.095,2.25c0.214,0.854,0.261,0.964,0.261,0.964s-1.125,0.199-2.377-0.149c-1.25-0.35-1.344-0.461-1.344-0.461
				s-0.15-0.038,0.047-0.301C50.834,41.266,51.207,40.664,51.334,40.339z"/>
			<path fill="#D4AF39" d="M64.669,29.699c-0.579-0.267-1.159-0.233-1.868,0.033c-0.71,0.265-1.059,0.48-1.059,0.48
				s0.098,0.613-0.332,0.895c-0.43,0.283-0.859,0.118-0.977-0.163c-0.115-0.283-0.15-0.432-0.15-0.432s-0.676,0.381-1.604,0.548
				c-0.524,0.094-1.495,0.195-2.115-0.051c0,0-0.563,0.548-0.977,0.878c-0.414,0.332-0.859,0.615-0.859,0.615
				s0.049,0.132,0.248,0.197c0.197,0.067,0.266,0.102,0.133,0.316c-0.133,0.216-1.092,1.077-1.506,1.377
				c-0.414,0.299-1.025,0.531-1.025,0.531s0.197,0.364,0.48,0.48c0.279,0.118,0.33,0.298,0.215,0.499
				c-0.117,0.198-1.109,1.294-1.521,1.677c-0.415,0.379-0.729,0.428-0.91,0.479c-0.184,0.052-0.514,0.232-0.15,0.648
				c0.364,0.415,1.225,0.564,2.084,0.315c0.86-0.25,1.688-1.261,1.688-1.261s-0.184,1.459-0.184,2.141
				c0,0.679,0.086,1.459,0.202,1.858c0.112,0.396,0.23,0.597,0.23,0.597s0.579-0.332,0.976-1.345
				c0.398-1.013,0.496-1.575,0.496-1.874c0-0.3,0.018-0.467,0.281-0.313c0.263,0.148,0.463,0.263,0.564,0.279l0.162,0.018
				c0,0-0.162-0.732-0.162-1.277c0-0.55,0.18-1.743,0.411-1.959c0.23-0.216,0.274,0.081,0.298,0.216
				c0.047,0.281,0.287,0.624,0.629,0.731c0.113-0.806,0.287-1.47,0.959-2.174c0.121-0.129,0.199-0.3,0.611-0.135
				c0.611,0.245,1.395,0.399,2.008,0.162c0.613-0.24,1.057-0.873,0.922-0.94c-0.034-0.016-0.943,0.448-1.656,0.214
				c-0.709-0.229-1.039-0.464-0.626-0.894c0.411-0.433,0.595-0.483,1.421-1.163c0.827-0.679,1.489-1.029,2.217-0.913
				s0.859,0.548,0.928,0.632c0.064,0.083,0.381,0.332,0.381-0.266C65.531,30.761,65.248,29.965,64.669,29.699z M58.398,33.998
				c-0.239,0.263-0.5,0.513-0.952,0.845c-0.454,0.336-0.716,0.478-0.952,0.645c-0.238,0.165-0.479,0.309-0.479,0.309
				s0.217-1.43,0.61-2.058c0.392-0.633,0.726-0.99,0.867-1.132s0.464-0.251,0.154,0.094c-0.309,0.345-0.713,0.773-0.833,1.133
				c-0.117,0.357-0.188,0.798,0.013,0.702c0.202-0.097,0.347-0.097,0.56-0.274c0.215-0.178,0.618-0.478,0.785-0.522
				C58.339,33.689,58.637,33.738,58.398,33.998z"/>
			<polygon fill="#D4AF39" points="55.203,27.132 54.391,26.554 55.349,26.309 55.964,26.799 			"/>
			<ellipse fill="#BA6C29" cx="52.6" cy="26.455" rx="0.774" ry="0.749"/>
			<path fill="#D4AF39" d="M54.221,23.883c-0.2,0.076-0.459,0.042-0.459,0.042s-0.08-0.344,0.109-0.514
				c0.189-0.167,0.363-0.287,0.475-0.397c0.11-0.114,0.139-0.15,0.139-0.15s0,0.297,0.016,0.482
				C54.51,23.534,54.42,23.807,54.221,23.883L54.221,23.883z"/>
			<ellipse fill="#D4AF39" cx="53.807" cy="24.26" rx="0.142" ry="0.134"/>
			<path fill="#D4AF39" d="M54.867,24.115c0.061,0.083,0.189,0.218,0.189,0.218s-0.156,0.005-0.287,0.1
				c-0.131,0.093-0.295,0.17-0.449,0.152c-0.154-0.021-0.22-0.161-0.188-0.265c0.033-0.104,0.109-0.209,0.359-0.304
				C54.742,23.925,54.809,24.031,54.867,24.115z"/>
			<path fill="#D4AF39" d="M54.325,25.022c0.488,0.043,1.132-0.496,1.132-0.496c0.061,0.433,0.327,0.659,0.737,0.74l-0.036,0.021
				c0,0-0.381,0.192-0.832,0.261c-0.204,0.033-0.384-0.003-0.605-0.047c-0.263-0.055-0.561-0.127-0.721-0.227
				c-0.295-0.184-0.206-0.655-0.206-0.655S53.838,24.977,54.325,25.022z"/>
			<path fill="#D4AF39" d="M56.225,24.534c0.2-0.076,0.5-0.22,0.625-0.227c0.125-0.008,0.307-0.04,0.275,0.193
				c-0.031,0.234-0.269,0.347-0.499,0.351c-0.232,0.007-0.353-0.08-0.488-0.148C55.998,24.632,56.023,24.608,56.225,24.534z"/>
			<path fill="#D4AF39" d="M57.751,23.705c0.218-0.158,0.413-0.201,0.413-0.201s0.145,0.377,0.063,0.607
				c-0.082,0.234-0.25,0.296-0.457,0.29c-0.205-0.007-0.512-0.114-0.426-0.271C57.432,23.976,57.533,23.861,57.751,23.705z"/>
			<ellipse fill="#D4AF39" cx="57.551" cy="24.762" rx="0.168" ry="0.122"/>
			<path fill="#D4AF39" d="M57.087,22.891c0.134-0.641,0.108-1.34-0.497-2.23c-0.609-0.889-1.666-1.248-1.666-1.248
				s-0.034-0.069-0.373-0.428c-0.338-0.361-1.023-0.812-1.023-0.812s0.797,0.196,1.25,0.341c0,0.01,0,0.017,0,0.023
				c0,0.309,0.242,0.56,0.546,0.56c0.114,0,0.222-0.036,0.31-0.1c0.246,0.049,1.066,0.538,1.276,0.711
				c-0.053,0.085-0.083,0.187-0.083,0.296c0,0.305,0.246,0.555,0.547,0.555c0.09,0,0.175-0.021,0.251-0.062
				c0.023,0.038,0.047,0.078,0.069,0.118c0.172,0.315,0.297,0.62,0.391,0.897c-0.139,0.097-0.233,0.28-0.233,0.483
				c0,0.307,0.208,0.555,0.463,0.557c0.019,0.182,0.019,0.307,0.011,0.361c-0.021,0.18-0.091,0.292-0.406,0.381
				c-0.314,0.091-0.744,0.643-0.744,0.643C57.145,23.938,56.92,23.532,57.087,22.891z"/>
			<path fill="#D4AF39" d="M55.146,18.78c-0.116-0.092-0.134-0.235-0.044-0.317c0.091-0.081,0.258-0.072,0.372,0.022
				c0.114,0.094,0.136,0.235,0.046,0.317C55.429,18.886,55.262,18.875,55.146,18.78z"/>
			<path fill="#D4AF39" d="M57.185,20.159c-0.127-0.117-0.15-0.295-0.047-0.398c0.102-0.104,0.29-0.091,0.421,0.027
				c0.127,0.117,0.15,0.299,0.047,0.398C57.504,20.29,57.315,20.277,57.185,20.159z"/>
			<path fill="#D4AF39" d="M58.402,21.584c-0.176,0-0.316,0.14-0.316,0.311c0,0.17,0.141,0.308,0.316,0.308
				c0.172,0,0.314-0.138,0.314-0.308C58.717,21.724,58.574,21.584,58.402,21.584z"/>
			<path fill="#D4AF39" d="M51.6,17.52c0.166,0.036,0.469,0.135,0.918,0.37h-0.006c-0.314,0-0.56,0.201-0.56,0.463
				s0.286,0.544,0.601,0.544s0.527-0.273,0.527-0.535c0-0.06-0.014-0.119-0.039-0.172c0.135,0.081,0.277,0.172,0.43,0.275
				c1.004,0.677,1.239,1.005,1.732,1.927c0.498,0.924,0.678,1.937,0.465,2.533c-0.216,0.597-1.006,0.722-1.016,0.722
				c-0.012,0,0.09-0.091,0.104-0.203c0.01-0.114-0.023-0.17-0.057-0.396c-0.035-0.225-0.013-0.493-0.013-0.493
				s-0.18-0.023-0.281,0.1s-0.249,0.271-0.349,0.394c-0.102,0.125-0.371,0.361-0.371,0.361s-0.158-0.224-0.158-0.495
				c0-0.271,0.18-0.564,0.214-1.038c0.034-0.472-0.214-1.317-0.675-1.936c-0.463-0.619-1.328-1.184-1.59-1.305
				c-0.258-0.124-0.303-0.317-0.313-0.429c-0.013-0.112-0.034-0.192-0.057-0.474C51.083,17.452,51.343,17.464,51.6,17.52z"/>
			<path fill="#D4AF39" d="M52.596,18.589c-0.178,0-0.339-0.16-0.339-0.307c0-0.146,0.138-0.258,0.315-0.258
				s0.322,0.117,0.322,0.265C52.895,18.435,52.772,18.589,52.596,18.589z"/>
			<path fill="#D4AF39" d="M51.105,24.478c-0.242,0.099-0.514,0.042-0.643-0.043c-0.129-0.088-0.173-0.305-0.021-0.431
				c0.153-0.125,0.378-0.121,0.518-0.041c0.142,0.076,0.457,0.299,0.457,0.299S51.348,24.38,51.105,24.478z"/>
			<path fill="#D4AF39" d="M50.33,24.748c0.089,0.136,0.152,0.216,0.421,0.227c0.269,0.013,0.561-0.005,0.735-0.181
				c0.176-0.175,0.297-0.42,0.297-0.42l0.303-0.007c0,0,0.1,0.423,0.232,0.539c0.135,0.116,0.603,0.134,0.806-0.019
				c0.204-0.152,0.392-0.339,0.425-0.315c0.036,0.023,0,0.176-0.209,0.357c-0.209,0.18-0.355,0.292-0.693,0.292h-1.924
				c0,0-0.391,0.023-0.502-0.211c-0.111-0.233-0.115-0.381-0.064-0.438c0.053-0.059,0.087,0.04,0.176,0.176H50.33z"/>
			<path fill="#D4AF39" d="M53.258,24.424c-0.287,0.159-0.449,0.062-0.555-0.069c-0.105-0.127-0.123-0.187-0.123-0.187
				s0.271-0.099,0.404-0.177s0.222-0.152,0.354-0.136c0.135,0.017,0.152,0.034,0.152,0.034S53.547,24.26,53.258,24.424z"/>
			<ellipse fill="#BA6C29" cx="54.65" cy="21.579" rx="0.636" ry="0.636"/>
			<path fill="#BA6C29" d="M53.538,19.374c0.254-0.173,0.632-0.104,0.842,0.154c0.206,0.26,0.167,0.609-0.089,0.78
				c-0.256,0.174-0.635,0.105-0.844-0.152S53.278,19.548,53.538,19.374z"/>
		</g>
	</g>
</g>
</svg>
