<?xml version="1.0" encoding="utf-8"?>
<!-- Generator: Adobe Illustrator 16.0.0, SVG Export Plug-In . SVG Version: 6.00 Build 0)  -->
<!DOCTYPE svg PUBLIC "-//W3C//DTD SVG 1.1//EN" "http://www.w3.org/Graphics/SVG/1.1/DTD/svg11.dtd">
<svg version="1.1" id="Layer_1" xmlns="http://www.w3.org/2000/svg" xmlns:xlink="http://www.w3.org/1999/xlink" x="0px" y="0px"
	 width="100px" height="100px" viewBox="0 0 100 100" enable-background="new 0 0 100 100" xml:space="preserve">
<g>
	<g>
		<defs>
			<circle id="SVGID_1_" cx="50" cy="50" r="50"/>
		</defs>
		<clipPath id="SVGID_2_">
			<use xlink:href="#SVGID_1_"  overflow="visible"/>
		</clipPath>
		<g clip-path="url(#SVGID_2_)">
			<g>
				<rect x="-58.535" y="-0.462" fill="#002395" width="213" height="106.499"/>
				<path fill="#FECB00" d="M-2.09-0.462h106.5v106.499L-2.09-0.462z"/>
				<g id="g">
					<path id="s" fill="#FFFFFF" d="M-27.208,6.524l5.947-18.302l5.947,18.302L-30.882-4.788h19.245L-27.208,6.524z"/>
					<g>
						<path id="s_1_" fill="#FFFFFF" d="M-13.895,19.836l5.947-18.302l5.947,18.302L-17.57,8.525H1.675L-13.895,19.836z"/>
					</g>
					<g>
						<path id="s_2_" fill="#FFFFFF" d="M-0.583,33.149l5.947-18.302l5.947,18.302L-4.257,21.837h19.246L-0.583,33.149z"/>
					</g>
				</g>
				<g>
					<g id="g_1_">
						<path id="s_3_" fill="#FFFFFF" d="M12.731,46.461l5.946-18.302l5.947,18.302L9.055,35.15h19.246L12.731,46.461z"/>
						<g>
							<path id="s_4_" fill="#FFFFFF" d="M26.043,59.773l5.946-18.302l5.947,18.302L22.368,48.463h19.246L26.043,59.773z"/>
						</g>
						<g>
							<path id="s_5_" fill="#FFFFFF" d="M39.356,73.086l5.946-18.302l5.947,18.302L35.68,61.775h19.246L39.356,73.086z"/>
						</g>
					</g>
					<g>
						<g id="g_2_">
							<path id="s_6_" fill="#FFFFFF" d="M52.668,86.398l5.947-18.302l5.946,18.302L48.993,75.088h19.246L52.668,86.398z"/>
							<g>
								<path id="s_7_" fill="#FFFFFF" d="M65.98,99.711l5.947-18.302l5.945,18.302L62.305,88.4H81.55L65.98,99.711z"/>
							</g>
							<g>
								<path id="s_8_" fill="#FFFFFF" d="M79.293,113.023l5.945-18.302l5.947,18.302l-15.569-11.311h19.246L79.293,113.023z"/>
							</g>
						</g>
					</g>
				</g>
			</g>
		</g>
	</g>
</g>
</svg>
