<?xml version="1.0" encoding="utf-8"?>
<!-- Generator: Adobe Illustrator 16.0.0, SVG Export Plug-In . SVG Version: 6.00 Build 0)  -->
<!DOCTYPE svg PUBLIC "-//W3C//DTD SVG 1.1//EN" "http://www.w3.org/Graphics/SVG/1.1/DTD/svg11.dtd">
<svg version="1.1" id="Layer_8" xmlns="http://www.w3.org/2000/svg" xmlns:xlink="http://www.w3.org/1999/xlink" x="0px" y="0px"
	 width="33.5px" height="39px" viewBox="0 0 33.5 39" enable-background="new 0 0 33.5 39" xml:space="preserve">
<g>
	<g>
		<path fill="none" stroke="#F36D72" stroke-miterlimit="10" d="M51.415,80.404"/>
	</g>
</g>
<g>
	<path fill="#EC1C24" d="M10.947,6.406c0.112-0.046-0.325-0.426-0.386-0.513C10.518,6.129,11.059,6.507,10.947,6.406z"/>
	<path fill="#EC1C24" d="M10.822,8.596l-0.173-0.163c0,0,0.082,0.134,0.162,0.269c0.083,0.132,0.167,0.263,0.167,0.263L10.822,8.596
		z"/>
	<path fill="#EC1C24" d="M9.989,9.902c0.938,0.344,0.139-0.556,0.586-0.622l0.213,0.081l-0.604-0.534
		C10.104,9.201,10.344,9.831,9.989,9.902z"/>
	<path fill="#EC1C24" d="M7.677,9.813c0.378,0.096,0.216,0.323,0.206-0.161C7.835,9.655,7.81,9.65,7.776,9.649
		C7.765,9.688,7.742,9.738,7.677,9.813z"/>
	<path fill="#EC1C24" d="M7.776,9.649C7.833,9.459,7.429,9.634,7.776,9.649L7.776,9.649z"/>
	<path fill="#EC1C24" d="M7.645,10.562l-0.234-0.363c-0.23-0.031-0.358,0.175-0.483,0.035C7.012,10.558,7.246,10.572,7.645,10.562z"
		/>
	<path fill="#EC1C24" d="M8.246,11.022l-0.095-0.166C8.054,10.845,8.01,10.867,8.246,11.022z"/>
	<path fill="#EC1C24" d="M7.953,10.497l0.198,0.36c0.161,0.019,0.463,0.127-0.064-0.153C8.355,10.823,8.107,10.68,7.953,10.497z"/>
	<path fill="#EC1C24" d="M8.145,10.407c0.245-0.053,0.44-0.149,0.666,0.192C8.863,10.145,8.197,9.915,8.145,10.407z"/>
	<path fill="#EC1C24" d="M10.862,10.442c0,0,0.08,0,0.159,0c0.081,0.003,0.162,0.004,0.162,0.004l-0.228-0.265
		C11.066,10.311,10.58,10.305,10.862,10.442z"/>
	<path fill="#EC1C24" d="M6.7,11.957c0.202,0.062,0.565,0.041,0.832,0.086L7.34,11.807C7.178,11.863,7.006,12.012,6.7,11.957z"/>
	<path fill="#EC1C24" d="M7.531,12.043l0.289,0.341C7.916,12.165,7.76,12.083,7.531,12.043z"/>
	<path fill="#EC1C24" d="M9.27,11.415c0,0-0.146-0.158-0.292-0.315c-0.143-0.163-0.286-0.327-0.286-0.327s0.139,0.183,0.277,0.366
		c0.143,0.175,0.285,0.35,0.285,0.35L9.27,11.415z"/>
	<path fill="#EC1C24" d="M6.473,13.041l-0.457-0.238c0,0,0.17,0.103,0.341,0.204c0.172,0.098,0.344,0.195,0.344,0.195L6.473,13.041z
		"/>
	<path fill="#EC1C24" d="M6.466,13.779c-0.394-0.159-0.689,0.114-0.928-0.04c0.059,0.219,0.395,0.421,0.697,0.59
		C6.071,14.157,6.124,13.974,6.466,13.779z"/>
	<path fill="#EC1C24" d="M6.677,14.6c-0.093-0.082-0.262-0.17-0.441-0.271C6.325,14.42,6.455,14.51,6.677,14.6z"/>
	<path fill="#EC1C24" d="M7.63,12.806c-0.128-0.001-0.461-0.019-0.623,0.114l0.599-0.011C7.613,12.878,7.622,12.842,7.63,12.806z"/>
	<path fill="#EC1C24" d="M7.625,12.909H7.606c-0.03,0.11-0.054,0.188-0.066,0.219C7.551,13.101,7.576,13.035,7.625,12.909z"/>
	<path fill="#EC1C24" d="M7.637,12.781c-0.003,0.01-0.004,0.017-0.007,0.025C7.689,12.806,7.709,12.805,7.637,12.781z"/>
	<path fill="#EC1C24" d="M8.566,11.87c0.281,0.237,0.559,0.593,1.111,0.454C9.311,12.124,8.994,12.212,8.566,11.87z"/>
	<path fill="#EC1C24" d="M8.382,12.791c-0.006-0.002,0.189-0.231,0.189-0.231c-0.153-0.029-0.387-0.027-0.531-0.134
		c0,0,0.084,0.093,0.169,0.184C8.292,12.701,8.382,12.791,8.382,12.791z"/>
	<polygon fill="#EC1C24" points="8.547,12.952 8.382,12.791 8.318,12.879 	"/>
	<path fill="#EC1C24" d="M7.253,14.121c0.25,0.14,0.265,0.272,0.3,0.424c0.123-0.157,0.194-0.315,0.2-0.471
		C7.57,14.04,7.242,13.943,7.253,14.121z"/>
	<path fill="#EC1C24" d="M7.469,13.53c0.011,0.011,0.017,0.022,0.029,0.031C7.55,13.55,7.568,13.54,7.469,13.53z"/>
	<path fill="#EC1C24" d="M7.585,16.017c0.033-0.009,0.072-0.022,0.105-0.033l-0.102,0.004L7.585,16.017z"/>
	<path fill="#EC1C24" d="M7.865,14.056c0.12-0.109-0.02-0.189-0.197-0.276c0.055,0.095,0.087,0.193,0.086,0.293
		C7.837,14.089,7.892,14.096,7.865,14.056z"/>
	<path fill="#EC1C24" d="M6.945,15.039c0.12-0.068,0.223-0.141,0.325-0.217C7.078,14.882,6.79,15.017,6.945,15.039z"/>
	<path fill="#EC1C24" d="M7.33,13.584c-0.009-0.007-0.018-0.014-0.023-0.021C7.175,13.589,7.238,13.591,7.33,13.584z"/>
	<path fill="#EC1C24" d="M7.33,13.584c0.077,0.072,0.214,0.136,0.337,0.196c-0.037-0.076-0.09-0.15-0.169-0.219
		C7.455,13.571,7.39,13.58,7.33,13.584z"/>
	<path fill="#EC1C24" d="M11.402,15.979c-0.539,0.063-1.095-0.129-0.51-0.382c-0.418-0.163-2.212,0.056-3.201,0.387
		c0.241-0.014,0.451-0.027,0.811,0.194c0.273-0.13,0.651-0.612,1.155-0.448c0.298,0.276-0.166,0.263-0.438,0.452
		c0.662-0.198,1.04,0.255,2.021,0.03l-0.383-0.18C11.012,16.01,11.271,16.058,11.402,15.979z"/>
	<path fill="#EC1C24" d="M7.72,15.459l-0.073-0.111c-0.09,0.134-0.304,0.233-0.722,0.441c0.277,0.182,0.482,0.2,0.664,0.198
		l0.047-0.563L7.72,15.459z"/>
	<path fill="#EC1C24" d="M7.63,14.841c0.587,0.096,0.859,0.337,1.495,0.18c-0.045-0.29-0.494-0.207-0.748-0.397
		c0.127,0.509-0.327-0.157-0.679,0.213c-0.098-0.104-0.125-0.202-0.146-0.292c-0.076,0.095-0.169,0.188-0.283,0.277
		c0.014-0.005,0.024-0.008,0.038-0.012l-0.002-0.003c0.003,0,0.005,0,0.009,0.001c0.075-0.023,0.121-0.03,0.076-0.004
		c0.007,0.001,0.01,0.008,0.012,0.011c0.083,0.005,0.155,0.016,0.224,0.027c-0.128,0.154-0.155,0.023-0.224-0.027
		c-0.029-0.001-0.057-0.005-0.088-0.007L7.308,14.81c-0.013,0.004,0.339,0.539,0.339,0.539C7.728,15.232,7.696,15.093,7.63,14.841z"
		/>
	<path fill="#EC1C24" d="M10.866,12.856c-0.055,0-0.096-0.009-0.138-0.019C10.792,12.88,10.839,12.901,10.866,12.856z"/>
	<path fill="#EC1C24" d="M10.475,12.942c-0.074-0.047-0.3-0.125-0.216-0.21c0.195-0.044,0.278,0.066,0.469,0.106
		c-0.141-0.09-0.364-0.308-0.693-0.186l0.072,0.049c-0.24,0.118-1.024,0.211-1.098,0.166C9.548,12.915,9.934,12.942,10.475,12.942z"
		/>
	<path fill="#EC1C24" d="M9.161,13.78c0,0,0.054,0.106,0.124,0.208c0.068,0.103,0.135,0.205,0.135,0.205l0.523-0.148l-0.309-0.019
		C9.774,13.828,9.396,13.834,9.161,13.78z"/>
	<path fill="#EC1C24" d="M7.294,16.098l-0.629-0.005c0,0,0.227,0.047,0.454,0.094c0.229,0.042,0.459,0.085,0.459,0.085L7.294,16.098
		z"/>
	<polygon fill="#EC1C24" points="7.45,16.681 6.905,16.736 7.254,16.849 	"/>
	<path fill="#EC1C24" d="M24.898,16.286l-0.136-0.095C24.802,16.229,24.848,16.259,24.898,16.286z"/>
	<path fill="#EC1C24" d="M24.739,16.692l0.25,0.098C24.856,16.721,24.755,16.679,24.739,16.692z"/>
	<path fill="#EC1C24" d="M16.795,26.804c0.069,0.544,0.148,1.375,0.245,0.765l0.059-0.6C16.942,27.042,16.852,26.951,16.795,26.804z
		"/>
	<path fill="#EC1C24" d="M24.375,22.11c-0.043-0.041-0.088-0.085-0.133-0.128c0.084,0.189,0.161,0.365,0.232,0.528
		C24.444,22.388,24.41,22.252,24.375,22.11z"/>
	<path fill="#EC1C24" d="M23.052,20.004l0.329,0.237C23.278,20.149,23.168,20.069,23.052,20.004z"/>
	<path fill="#EC1C24" d="M24.358,14.03l-0.61,0.058C23.768,14.171,24.061,14.079,24.358,14.03z"/>
	<path fill="#EC1C24" d="M9.949,22.145c-0.088,0.274-0.083,0.446-0.033,0.561C10.057,22.323,10.378,21.888,9.949,22.145z"/>
	<path fill="#EC1C24" d="M30.974,18.221c-0.084-0.108-0.194-0.173-0.323-0.207C30.73,18.119,30.829,18.196,30.974,18.221z"/>
	<path fill="#EC1C24" d="M10.241,23.078c0.025-0.062,0.028-0.104,0.046-0.159c-0.157-0.029-0.309-0.066-0.372-0.213
		C9.807,22.987,9.816,23.225,10.241,23.078z"/>
	<path fill="#EC1C24" d="M18.567,9.67c-0.012-0.025-0.021-0.034-0.032-0.064C18.548,9.687,18.557,9.688,18.567,9.67z"/>
	<path fill="#EC1C24" d="M12.677,5.867c0.019-0.06,0.086-0.111,0.146-0.164C12.768,5.692,12.716,5.734,12.677,5.867z"/>
	<path fill="#EC1C24" d="M7.775,19.098C7.696,18.989,7.707,19.101,7.775,19.098L7.775,19.098z"/>
	<path fill="#EC1C24" d="M9.846,17.827c0.072,0.001,0.159-0.008,0.292-0.046C9.997,17.816,9.904,17.829,9.846,17.827z"/>
	<path fill="#EC1C24" d="M13.672,21.263l0.005,0.007C13.737,21.167,13.726,21.186,13.672,21.263z"/>
	<path fill="#EC1C24" d="M7.97,18.827c-0.054,0.068-0.094,0.141-0.115,0.212C7.891,18.999,7.929,18.932,7.97,18.827z"/>
	<path fill="#EC1C24" d="M7.71,18.941c0.011-0.05,0.014-0.088,0.019-0.125C7.628,18.833,7.573,18.866,7.71,18.941z"/>
	<path fill="#EC1C24" d="M7.866,19.257c-0.033-0.066-0.03-0.142-0.011-0.217c-0.029,0.037-0.057,0.058-0.08,0.058
		C7.798,19.131,7.827,19.177,7.866,19.257z"/>
	<path fill="#EC1C24" d="M23.813,9.408c0.008-0.018,0.014-0.033,0.023-0.055C23.627,9.509,23.676,9.496,23.813,9.408z"/>
	<path fill="#EC1C24" d="M19.813,20.896l-0.005,0.03c0.003,0.006,0.007,0.014,0.01,0.021L19.813,20.896z"/>
	<path fill="#EC1C24" d="M20.004,20.441c-0.037,0.749-0.11,0.661-0.186,0.506c0,0,0.037,0.431,0.074,0.862
		c0.042,0.43,0.086,0.861,0.086,0.861s0.013-0.557,0.026-1.115C20.004,20.998,20.004,20.441,20.004,20.441z"/>
	<path fill="#EC1C24" d="M24.887,15.243c0,0-0.135,0.024-0.271,0.049c-0.134,0.022-0.27,0.042-0.27,0.042
		c-0.882-0.218-0.572-0.262-1.333-0.217c0.932,0.055,0.992,0.176,1.019,0.292c0.028,0.118,0.062,0.234,0.985,0.397l-0.402,0.024
		c0.021-0.021-0.087-0.045-0.065-0.065c-0.901-0.002,1.315,0.374,0.989,0.586c-0.162,0.059-0.438,0.044-0.642-0.067
		c0,0,0.102,0.075,0.204,0.15c0.101,0.079,0.203,0.158,0.203,0.158c-0.05,0.047-0.357-0.062-0.311-0.104
		c0,0,0.019,0.081,0.026,0.159c0.011,0.08,0.021,0.16,0.021,0.16l-0.052-0.02c0.266,0.132,0.66,0.385,0.824,0.507
		c-0.278-0.017-0.173-0.111-0.398-0.172c0,0,0.091,0.083,0.183,0.166c0.09,0.086,0.18,0.172,0.18,0.172
		c-0.477-0.12-0.856-0.429-0.763-0.508c-0.901-0.26-0.794-0.202-0.611-0.071c0.179,0.121,0.427,0.325-0.133,0.232l-0.16-0.219
		c-1.008-0.36-0.695-0.122-1.33-0.316c0.158,0.069,0.552,0.207,0.962,0.352c0.409,0.146,0.832,0.301,1.005,0.482
		c-0.148-0.016-0.229,0.006,0.063,0.268c-0.591-0.311-0.491-0.163-0.516-0.049l-0.762-0.448c0.169,0.213,0.558,0.44,0.862,0.709
		c-0.143,0.075-0.726-0.277-1.223-0.582c-0.11,0.025,0.132,0.161,0.409,0.314c0.275,0.155,0.586,0.324,0.576,0.476
		c-0.39-0.057-0.137,0.253,0.103,0.771c-0.324-0.098-0.396-0.367-0.62-0.496c0,0,0.114,0.135,0.229,0.271
		c0.112,0.139,0.225,0.277,0.225,0.277c-0.033,0.011-0.187-0.142-0.266-0.218c0.136,0.258,0.654,0.595,0.709,0.892
		c0.336,0.351,0.015,0.188-0.304,0.022c-0.326-0.164-0.627-0.328-0.337,0.155c-0.204-0.154-0.342-0.421-0.582-0.666
		c0.28,0.729,0.191,0.553,0.586,1.467c0,0-0.132-0.083-0.263-0.167c-0.128-0.086-0.256-0.171-0.256-0.171
		c0.517,0.444,0.825,1.193,0.994,1.87c0.235,0.225,0.447,0.417,0.559,0.501c0,0-0.012,0.156-0.025,0.312
		c-0.015,0.156-0.041,0.304-0.041,0.304c-0.122-0.096-0.246-0.375-0.394-0.717c0.021,0.077,0.039,0.151,0.055,0.214
		c-0.292-0.207-0.495-0.679-0.689-1.138c0.13,0.129,0.267,0.264,0.402,0.396c-0.226-0.501-0.507-1.032-0.813-1.448
		c0.043,0.094,0.064,0.189,0.059,0.253c-0.066-0.133-0.129-0.248-0.185-0.315c-0.061-0.073,0.029,0.111,0.11,0.321l-0.587-0.797
		l0.198,0.338c0,0-0.154-0.09-0.308-0.179c-0.147-0.092-0.292-0.184-0.292-0.184c0.149,0.495,0.33,1.092,0.422,1.639
		c0.095,0.547,0.106,1.069-0.067,1.357c-0.146-0.714-0.415-1.104-0.724-1.903c0.455,0.793,0.141-0.492,0.388-0.4
		c-0.139-0.041-0.292-0.419-0.333-0.558c0,0,0.017,0.219,0.021,0.445c0.006,0.226,0,0.457,0,0.457
		c-0.262-0.649-0.269-0.451-0.458-0.697c0.57,1.268,0.066,0.951,0.043,1.411c-0.146-0.441-0.254-0.906-0.053-0.859
		c-0.261-0.46-0.181-0.057-0.12,0.374c0.066,0.434,0.11,0.876-0.113,0.476c0.044-0.022,0.089,0.04,0.043-0.193
		c0,0.425-0.357,0.176-0.382-0.236l0.042-0.021c-0.165-0.038-0.377,0.01-0.551,0.191c-0.17,0.189-0.308,0.553-0.285,1.135
		c-0.016-0.151-0.088-1.412-0.098-1.652c0,0-0.009,0.248-0.023,0.622c-0.019,0.371-0.054,0.867-0.107,1.365
		c-0.101,0.995-0.292,1.993-0.292,1.993c0.025-0.506-0.041-1.357-0.062-2.155c-0.022-0.799-0.01-1.543,0.094-1.835
		c-0.073-0.145-0.146-0.294-0.286,0.053c0.037,0.148,0.123,1.465,0.046,1.556c-0.188-1.135-0.146-0.61-0.322-1.578
		c0.06,0.219-0.1,1.797-0.245,1.739c0.038-0.235,0.108-1.56,0.16-1.722c0,0-0.092,0.386-0.205,0.77
		c-0.11,0.381-0.238,0.752-0.237,0.752c0.112-0.266,0.153-1.308,0.153-1.752c-0.012,0.305-0.218-0.063-0.311,0.083l0.056,0.371
		c-0.256-0.265-0.727,2.093-1.133,1.916c0.136-0.298,0.576-1.895,0.475-2.12c-0.136,0.374-0.472,1.287-0.882,2.134
		c-0.405,0.848-0.897,1.643-1.228,1.851l0.078-0.456c0,0-0.128,0.092-0.257,0.183c-0.131,0.091-0.263,0.17-0.263,0.17
		c0.333-0.498,0.873-1.301,1.343-2.09c0.476-0.791,0.883-1.573,1.111-2.013c-0.002-0.382,0.126-0.525-0.033-0.539
		c0.086-0.422,0.276-0.589,0.317-0.598l-0.201-0.364c-0.156,0.438-0.299,0.635-0.445,0.813c-0.143,0.169-0.287,0.314-0.434,0.672
		c0,0,0.048-0.042,0.121-0.109c0.071-0.063,0.166-0.154,0.259-0.252c0.187-0.192,0.354-0.387,0.354-0.387
		c-0.146,0.44-0.416,1.043-0.711,1.496c-0.294,0.459-0.607,0.739-0.738,0.586c0.076-0.374,0.738-1.481,0.849-1.771
		c-0.156,0.28-0.502,0.439-0.426,0.227l0.325-0.399c0.01-0.188-0.178,0.066-0.353,0.252c-0.171,0.185-0.324,0.288-0.187-0.146
		c-0.034-0.089,0.455-1.121,0.162-0.654c-0.48,0.946-2.088,3.809-2.607,4.425c0.002-0.04,0.005-0.333,0.044-0.67
		c0.036-0.334,0.128-0.736,0.233-0.979c0.175-0.388,0.511-0.755,0.826-1.121c0.317-0.363,0.613-0.722,0.776-1.045
		c-0.146,0.207-0.376,0.425-0.457,0.49c0.063-0.222,0.476-0.624,0.286-0.624c-0.58,0.743-0.22-0.259-0.537,0.593
		c-0.3,0.109-0.035-0.25-0.203-0.348c-0.333,0.519-1.479,1.455-1.841,1.491c0.172-0.168,0.348-0.43,0.429-0.549
		c-0.268-0.337-0.072-0.818-0.319-1.084c0.148-0.173,0.252-0.474,0.613-0.676c-0.157,0.068-0.433,0.23-0.516,0.156
		c0.529-0.657,0.234,0.108,0.916-0.619c-0.435,0.332-0.745,0.26-1.117,0.332c-0.663,0.527,0.093,0.399,0.441,0.298
		c-0.899,0.742-2.041,1.257-2.787,1.147c-0.466-0.166,0.538-0.554,0.36-0.517c-0.091-0.352-0.603-0.218-1.053-0.136
		c-0.446,0.087-0.836,0.122-0.594-0.365c0.564-0.549,1.328-0.652,1.787-0.936c0.361,0.124-0.232,0.602-0.1,0.762l0.187-0.375
		c0.264-0.038,0.517,0.021,0.381,0.215c0.25-0.249,0.125-0.47,0.035-0.752c-0.094-0.277-0.235-0.583-0.007-0.908
		c-0.259,0.014-0.552-0.04-0.811,0.125l0.149,0.11c-0.511,0.354-0.88-0.007-1.075,0.287c-0.462-0.071-1.217-0.144-0.966-0.583
		L10,17.463c-0.238,0.067-0.435,0.345-0.164,0.363c-0.197-0.013,0.047-0.22,0.207-0.389c0.159-0.172,0.232-0.308-0.328-0.258
		c0,0-0.128,0.09-0.258,0.181c-0.128,0.093-0.257,0.187-0.257,0.187c-0.464-0.129-1.445-0.278-1.223-0.669
		c-0.8,0.3,0.103,0.054-0.816,0.484c1.143-0.449,0.159,0.896,1.326,0.267c-1.038,0.516-0.379,0.53-1.197,1.135
		c0.264-0.093,0.472-0.273,0.438,0.053c0.081-0.012,0.191-0.015,0.255-0.016c-0.004,0.011-0.008,0.016-0.014,0.026l0.026-0.026
		c0.044-0.001,0.053-0.003,0.009-0.01c0.093-0.105,0.215-0.203,0.357-0.272c0.657-0.062,0.778,0.346,1.136,0.359
		c-0.071,0.197-0.32,0.055-0.569,0.246c0,0,0.134,0.004,0.268,0.011C9.333,19.137,9.47,19.14,9.47,19.14
		c-0.569,0.248-0.761,0.817-1.266,0.584l0.132,0.354c-0.224,0.345-0.211,0.705,0.109,0.752c-0.025,0.225,0.828,0.056,0.326,0.161
		c0,0,0.157,0.079,0.315,0.158c0.156,0.074,0.313,0.148,0.313,0.148l-0.129,0.088c0.108,0.273,0.504,0.363,0.779,0.527
		c0.281,0.166,0.44,0.405,0.24,1.007c0.249,0.042,0.518,0.057,0.605,0.412l-0.341,0.422c0.295,0.051,0.197,0.921,0.654,0.585
		c-0.374,0.626-0.188,0.929,0.143,1.08c0.327,0.159,0.751,0.197,0.87,0.44l0.406-0.573c0.231,0.208,0.603,0.186,1.058,0.129
		l0.286-0.552c0.49-0.286,0.479,0.749,0.971,0.905c-0.124,0.205-0.217,0.094-0.238-0.074c-0.01,0.381,0.093,0.55,0.242,0.602
		c0.154,0.045,0.355-0.033,0.552-0.123c0.399-0.185,0.756-0.415,0.874,0.139c0.189-0.184,0.257-0.088,0.311,0.085
		c-0.013-0.001-0.026,0.006-0.04,0.024c0.011,0.01,0.031,0.015,0.051,0.02c0.032,0.117,0.062,0.252,0.105,0.364
		c-0.021-0.159-0.045-0.293-0.077-0.359c0.104,0.013,0.274-0.024,0.453-0.143l-0.073,0.667c0.015-0.006,0.025-0.002,0.04-0.012
		c0.105,0.278,0.179-0.28,0.201-0.79c0.094-0.088,0.185-0.211,0.264-0.361c-0.064,1.077,0.424-0.303,0.42,0.854
		c0.088-0.27,0.287-0.349,0.483-0.506c0.196-0.17,0.388-0.419,0.458-1.005c-0.005,0.152,0.031,0.228-0.043,0.235
		c0.141,0.141,0.295,0.283,0.438-0.044l0.05,0.85c0,0,0.088-0.28,0.176-0.562c0.08-0.288,0.159-0.576,0.159-0.576
		c0.2,0.508,0.316,0.802,0.115,1.463c0.25-0.511,0.338-0.61,0.426-0.708c0.084-0.099,0.166-0.192,0.318-0.703l0.034,0.547
		c0.153-0.041,0.286-0.801,0.432-0.365c0.233,0.492,0.669,0.475,1.151,0.371c0.494-0.074,1.008-0.251,1.619,0.045
		c-0.376-0.722-0.213-0.585-0.009-0.424c0.203,0.156,0.463,0.336,0.225-0.243c0.198,0.328,0.411,0.468,0.406,0.834
		c0.27-0.541,0.958,0.232,0.741-0.87c0.235,0.306,0.181,0.541,0.333,0.714c-0.004-0.093-0.026-0.369,0.132-0.196
		c0.158,0.17,0.096,0.314,0.105,0.501c0.434-0.328-0.147-1.353-0.704-2.302c0.468,0.333,0.538,0.196,0.25-0.492
		c0.262,0.254,0.594,0.479,0.437,0.753c0.148-0.042,1.126-0.167,0.568-0.865c0.18,0.14,0.205-0.095,0.167-0.199
		c0.291-0.19,0.37-0.154,0.562-0.444l-0.169-0.04c-0.646-0.845,0.023-0.356,0.111-0.645l0.075,0.08
		c0.488,0.035,0.47-0.083,0.452-0.181c-0.019-0.107-0.017-0.173,0.509-0.153l-0.541-0.384c-0.542-0.466-0.309-0.428,0.045-0.37
		c0.353,0.063,0.835,0.133,0.71-0.164l-0.386-0.109c-0.146-0.208,0.319-0.046,0.874,0.134c0.552,0.183,1.191,0.381,1.327,0.328
		c0.132,0.019,0.132,0.166,0.176,0.274c1.036-0.104-0.709-0.505-0.676-0.964c0.45,0.15,1,0.662,1.22,0.431
		c0.202,0.018-0.039-0.362-0.222-0.717c-0.186-0.359-0.297-0.682,0.182-0.708c-0.367-0.047-0.727-0.111-0.917-0.385
		c-0.013-0.155,0.371-0.218,0.641-0.337c0.266-0.117,0.425-0.287-0.095-0.571c0.104-0.009,0.198,0.003,0.285,0.025
		c-0.227-0.299-0.3-0.827-0.878-1.063c1.146,0.132,0.923-0.287,0.668-0.627c-0.247-0.347-0.56-0.632,0.493-0.558l-0.08-0.69
		l0.214,0.021c0.15-0.449-0.384-0.598-0.891-0.714c0.139-0.102,0.34-0.045,0.451-0.042c0.403-0.649,0.269-0.762-0.835-1.092
		l0.668-0.165c-0.206-0.037,0.03-0.301,0.169-0.634c0.139-0.327,0.229-0.745-0.259-0.925c0.077-0.017,0.207-0.045,0.316-0.025
		c-0.505-0.216-0.175-0.771-0.095-1.236c0.084-0.457-0.026-0.809-1.189-0.353c0,0-0.182-0.036-0.376-0.057
		c-0.19-0.02-0.38-0.04-0.38-0.04c0.057,0.288-0.195,0.394-0.485,0.485c-0.293,0.091-0.623,0.174-0.754,0.359
		c-0.217-0.081,0.396-0.811,0.631-0.664l-0.088,0.096c1.173-0.568,0.057-0.818,0.793-1.287c-0.363-0.452-0.566-1.01-0.837-1.548
		c-0.125-0.278-0.26-0.552-0.429-0.796c-0.166-0.248-0.341-0.491-0.557-0.682l-0.538,0.864c0,0-0.062-0.07-0.126-0.136
		c-0.065-0.066-0.132-0.134-0.132-0.134c0.066-0.244,0.368-0.713,0.571-0.509c0.226-0.546-0.671,0.101-0.797,0.282
		c-0.091-0.32,0.112-0.536,0.338-0.678c0.225-0.142,0.468-0.208,0.404-0.271l-0.238-0.079l-0.024,0.127
		c-0.395,0.232-0.638,0.571-0.89,0.366c-0.071-0.278,0.236-0.584,0.185-0.662c0.038-0.06,0.03-0.105-0.1-0.092l-0.397-0.332
		c0,0-0.052,0.2-0.103,0.4c-0.055,0.199-0.11,0.398-0.11,0.398C24.589,5.56,24.6,5.07,24.358,5.971
		c0.201-0.688-0.158-0.988-0.545-1.171c-0.396-0.167-0.823-0.181-0.851-0.422c-0.452,0.448-0.708,0.398-1.033,0.241
		c0.049,0.183-0.116,1.065-0.354,0.895c0.243-0.891,0.156-1.129-0.005-1.291c-0.162-0.163-0.376-0.265-0.422-0.945
		c0.058,0.454-0.178,0.476-0.394,0.548c-0.22,0.073-0.413,0.222-0.295,0.852c-0.234-0.162,0.044-0.691-0.126-1.137
		c-0.341,0.35-0.667,0.193-1.044,0.046c-0.372-0.156-0.799-0.389-1.187-0.199c0.022,0.243,0.192,0.594,0.08,0.975
		c0,0-0.144-0.286-0.285-0.573c-0.154-0.285-0.306-0.569-0.306-0.569c-0.147,0.148,0.11,1.39-0.326,0.629
		c0.082,0.191,0.198,0.481,0.117,0.581c-0.85-0.421-1.572,0.052-2.213,0.466c-0.326,0.213-0.662,0.383-1.051,0.477
		c-0.399,0.081-0.879,0.035-1.533-0.16c0.453,0.252,0.359,0.378,0.239,0.489c0.151,0.028,0.353,0.485,0.565,0.739
		c0,0-0.259-0.096-0.526-0.181c-0.27-0.087-0.543-0.159-0.543-0.159c0.5,0.777-0.482,0.516,0.065,1.2l0.037-0.244
		c0.253,0.467,0.715,0.822,1.195,1.21c0.484,0.385,0.984,0.805,1.403,1.317c-0.31-0.515,0.078-0.277,0.418-0.058
		c0.343,0.21,0.615,0.391,0.266-0.396c0.204,0.184,0.192,0.388,0.394,0.621c-0.266-0.517-0.234-0.665,0.044-0.534l0.058,0.129
		c0.33-0.369,0.794,0.043,1.346,0.217l-0.27-0.6c0.137,0.047,0.228,0.232,0.328,0.371c-0.214-0.976-0.304,0.046-0.587-1.014
		c0.319,0.594,0.497,0.54,0.683,0.5c0.186-0.033,0.386-0.015,0.6,0.707c0.149-0.028-0.219-0.727-0.059-0.757l0.127,0.39
		l-0.067-0.527c0.127,0.055,0.271,0.563,0.334,0.902c-0.031-0.037-0.048,0.103-0.066,0.134c0.201,0.464,0.308-0.206,0.378-0.058
		l-0.172-0.23c0.087-0.105,0.191-0.17,0.303-0.194c0.112-0.02,0.228-0.019,0.343-0.035c0.233-0.046,0.452-0.072,0.705-0.492
		l-0.008-0.309c0.417-0.54,0.241,0.375,0.651,0.158l-0.027,0.071c0.13-0.298,0.268-0.418,0.368-0.358
		c-0.169,0.331,0.015,0.729-0.195,1.089c0.235-0.258,0.316-0.364,0.394-0.538c0.082-0.17,0.16-0.424,0.458-0.927l-0.093,0.511
		c0.227-0.412,0.312-0.64,0.57-0.691c-0.314,0.357-0.146,0.776-0.516,1.263c-0.008,0.585,0.206,0.363,0.403,0.222
		c0.191-0.15,0.358-0.242,0.071,0.525c0.804-1.189,0.024-0.854,0.25-1.085c0.097-0.466,0.599-0.891,0.682-0.696
		c0.14,0.092-0.624,1.729-0.369,1.845c-0.022-0.021-0.079,0.069-0.102,0.05c-0.104,0.365,0.463-0.313,0.243,0.267
		c0.551-0.659,0.111,0.144,0.774-0.726l-0.392,0.022c0.281-0.144,1.2-1.058,1.089-0.371c-0.159,0.156-0.414,0.33-0.562,0.424
		c-0.132,0.306,0.273-0.075,0.129,0.244c-0.704,0.826-0.449-0.031-1.066,0.542c-0.214,0.42,0.717-0.456-0.06,0.445
		c0.499-0.569,0.537-0.482,0.546-0.364c0.005,0.129-0.025,0.289,0.435-0.071l-0.446,0.481c0.09-0.057,0.348-0.243,0.381-0.189
		c0,0-0.164,0.138-0.328,0.277c-0.161,0.141-0.322,0.281-0.322,0.281c0.607-0.426-0.229,0.632,0.122,0.451
		c-0.198-0.193,0.527-0.604,0.771-1.034c0.929-0.293-1.083,1.362-0.608,1.409c-0.099,0.023,0.169-0.395,0.459-0.532
		c-0.042,0.143-0.182,0.385-0.43,0.63c0.252,0.12,0.512-0.441,0.896-0.596c-0.583,0.556,0.342-0.085,0.641-0.111l-0.548,0.378
		c-0.174,0.503,1.214-0.684,0.952-0.12c0,0-0.216,0.088-0.431,0.178c-0.214,0.093-0.427,0.186-0.427,0.186l0.283,0.011l-0.669,0.358
		c0.559-0.15,0.485-0.028,0.353,0.208c0.404-0.247,1.087-0.529,1.178-0.38c-0.312,0.267-0.6,0.215-0.419,0.373
		c-0.405,0.12-0.897,0.304-0.378-0.038c-0.2,0.085-0.396,0.14-0.591,0.227c-0.374,0.284,0.002,0.254,0.04,0.313
		c0.012-0.031,0.031-0.072,0.112-0.125c0,0,0.243-0.033,0.487-0.052c0.236-0.017,0.479-0.021,0.479-0.021
		c-0.219,0.134-0.421,0.166-0.615,0.202c0.085,0.028,0.386-0.037,0.471,0.031c-0.521,0.155-1.05,0.337-1.321,0.331
		c0,0,0.16,0.004,0.321,0.009c0.164,0.011,0.328,0.022,0.328,0.022c-0.216,0.09-0.578,0.302-0.78,0.33
		c-0.142,0.102,0.125,0.097,0.389,0.122c0.26,0.021,0.529,0.07,0.333,0.199c0.105-0.009,0.207-0.008,0.287,0.019
		c-0.104,0.213-0.715,0.402,0.019,0.548c0,0-0.241,0.043-0.482,0.086c-0.241,0.037-0.483,0.075-0.483,0.075
		c0.114,0.063,0.417,0.022,0.741-0.017c0.322-0.036,0.664-0.074,0.855,0.076c0.323,0.216-0.821,0.085-1.093,0.151
		c0.483,0.073,1.467,0.331,0.674,0.465C24.812,15.339,24.958,15.305,24.887,15.243z M24.76,17.416
		c-0.106-0.103-0.466-0.354-0.095-0.219C25.342,17.554,24.989,17.446,24.76,17.416z M23.302,21.26
		c-0.076-0.211,0.031-0.147,0.227,0.031C23.512,21.363,23.446,21.374,23.302,21.26z M8.811,20.171
		c0.012-0.002,0.02-0.004,0.033-0.006C8.698,20.464,8.758,20.353,8.811,20.171z M8.898,19.673c-0.102,0-0.187,0.04-0.264,0.093
		c0.167-0.041,0.215,0.038,0.217,0.154C8.998,19.818,9.085,19.723,8.898,19.673z M25.505,5.137l-0.024,0.188
		C25.233,5.401,25.364,5.277,25.505,5.137z"/>
	<path fill="#EC1C24" d="M23.207,20.247c0.075,0.085,0.148,0.184,0.222,0.287C23.382,20.428,23.307,20.322,23.207,20.247z"/>
	<path fill="#EC1C24" d="M24.47,14.021c0.006-0.003,0.003-0.004,0.006-0.008c-0.041,0.006-0.08,0.011-0.118,0.017L24.47,14.021z"/>
	<path fill="#EC1C24" d="M16.122,19.873c-0.021,0.105-0.07,0.221-0.127,0.336C16.088,20.075,16.15,19.949,16.122,19.873z"/>
	<path fill="#EC1C24" d="M7.105,17.882l0.236,0.235c-0.065-0.125,0.065-0.208,0.153-0.298C7.344,17.861,7.137,17.967,7.105,17.882z"
		/>
	<path fill="#EC1C24" d="M10.894,15.261c-0.083-0.025-0.012-0.06-0.095-0.085l-0.31,0.018
		C10.515,15.321,10.768,15.393,10.894,15.261z"/>
	<path fill="#EC1C24" d="M9.21,17.159c0.548-0.137,0.316-0.23,0.195-0.375c0.003,0.009,0.01,0.018,0.004,0.028
		C8.628,16.905,8.911,17.042,9.21,17.159z"/>
	<path fill="#EC1C24" d="M9.381,16.75c-0.033-0.045-0.055-0.093-0.037-0.147C9.032,16.635,9.29,16.676,9.381,16.75z"/>
	<path fill="#EC1C24" d="M8.348,19.331c0.105-0.135-0.689,0.205-0.494,0.075C7.153,19.574,8.872,19.659,8.348,19.331z"/>
	<polygon fill="#EC1C24" points="10.991,16.664 10.325,16.852 10.89,16.814 	"/>
	<path fill="#EC1C24" d="M10.795,17.87l0.106-0.275c-0.109,0.036-0.185,0.029-0.247,0.009C10.68,17.747,10.602,17.94,10.795,17.87z"
		/>
	<path fill="#EC1C24" d="M10.655,17.604c-0.009-0.075-0.038-0.14-0.158-0.151C10.516,17.491,10.555,17.572,10.655,17.604z"/>
	<polygon fill="#EC1C24" points="11.265,16.907 11.139,17.002 11.126,17.165 	"/>
	<path fill="#EC1C24" d="M11.78,20.182l0.314,0.092c0.207-0.119,0.286-0.256,0.155-0.274C12.079,20.046,11.948,20.022,11.78,20.182z
		"/>
	<path fill="#EC1C24" d="M13.031,18.59c-0.097,0.118-0.229,0.199-0.41,0.341l0.746-0.423L13.031,18.59z"/>
	<path fill="#EC1C24" d="M13.505,18.992c0.214-0.112,0.728-0.168,0.543-0.325C13.841,18.79,13.565,18.735,13.505,18.992z"/>
	<polygon fill="#EC1C24" points="15.06,22.001 15.004,21.981 14.243,23.165 	"/>
	<path fill="#EC1C24" d="M18.555,19.85c-0.083-0.371-0.228,0.837-0.288,0.387c-0.124,0.313,0.052,0.368-0.056,0.637
		C18.404,20.561,18.413,20.768,18.555,19.85z"/>
	<path fill="#EC1C24" d="M18.211,20.874c-0.03,0.049-0.066,0.111-0.11,0.193C18.157,20.991,18.188,20.929,18.211,20.874z"/>
	<polygon fill="#EC1C24" points="11.506,5.857 11.119,5.812 11.56,6.05 	"/>
	<path fill="#EC1C24" d="M11.874,6.934l-0.666-0.605l0.464,0.676C11.682,6.942,11.704,6.816,11.874,6.934z"/>
	<path fill="#EC1C24" d="M23.03,16.831l0.186,0.11c0.21,0.103,0.238,0.093,0.293,0.074L23.03,16.831z"/>
	<polygon fill="#EC1C24" points="24.078,15.952 24.053,15.97 24.855,16.106 	"/>
	<path fill="#EC1C24" d="M23.162,14.877c-0.027,0.035,0.148,0.077,0.11,0.114C23.138,14.917,24.17,14.855,23.162,14.877z"/>
</g>
<g>
	<path fill="#EC1C24" d="M3.574,36.288c-0.041-0.006,0.238,0.26,0.285,0.312C3.827,36.51,3.502,36.217,3.574,36.288z"/>
	<polygon fill="#EC1C24" points="3.234,35.388 3.341,35.504 3.109,35.189 	"/>
	<path fill="#EC1C24" d="M3.501,35.131c-0.49-0.439-0.02,0.17-0.232,0.05l-0.113-0.097l0.353,0.396
		C3.506,35.363,3.332,35.041,3.501,35.131z"/>
	<path fill="#EC1C24" d="M4.648,35.996c-0.19-0.171-0.126-0.186-0.089-0.023C4.581,35.99,4.594,36,4.61,36.012
		C4.613,36.004,4.621,35.996,4.648,35.996z"/>
	<path fill="#EC1C24" d="M4.61,36.012C4.595,36.053,4.78,36.148,4.61,36.012L4.61,36.012z"/>
	<path fill="#EC1C24" d="M4.634,35.782l0.125,0.197c0.114,0.1,0.171,0.091,0.236,0.182C4.944,36.034,4.831,35.936,4.634,35.782z"/>
	<path fill="#EC1C24" d="M4.329,35.409l0.05,0.086C4.427,35.536,4.447,35.547,4.329,35.409z"/>
	<path fill="#EC1C24" d="M4.483,35.68l-0.105-0.185c-0.081-0.068-0.231-0.22,0.034,0.07C4.277,35.424,4.402,35.564,4.483,35.68z"/>
	<path fill="#EC1C24" d="M4.39,35.63c-0.122-0.08-0.211-0.118-0.337-0.314C4.047,35.45,4.385,35.766,4.39,35.63z"/>
	<path fill="#EC1C24" d="M3.034,34.636l-0.163-0.109l0.132,0.18C2.938,34.617,3.181,34.781,3.034,34.636z"/>
	<path fill="#EC1C24" d="M5.101,35.796c-0.097-0.101-0.276-0.251-0.405-0.375l0.087,0.141C4.865,35.615,4.953,35.651,5.101,35.796z"
		/>
	<path fill="#EC1C24" d="M4.696,35.421l-0.13-0.21C4.51,35.226,4.585,35.314,4.696,35.421z"/>
	<polygon fill="#EC1C24" points="3.819,34.885 4.11,35.308 3.827,34.868 	"/>
	<polygon fill="#EC1C24" points="5.268,35.654 5.474,35.906 5.167,35.52 	"/>
	<path fill="#EC1C24" d="M5.329,35.512c0.172,0.207,0.344,0.298,0.443,0.434c-0.005-0.061-0.146-0.249-0.271-0.416
		C5.561,35.634,5.515,35.637,5.329,35.512z"/>
	<path fill="#EC1C24" d="M5.323,35.281c0.035,0.057,0.104,0.15,0.178,0.249C5.469,35.473,5.418,35.399,5.323,35.281z"/>
	<path fill="#EC1C24" d="M4.684,35.191c0.063,0.057,0.226,0.207,0.314,0.251L4.704,35.18L4.684,35.191z"/>
	<path fill="#EC1C24" d="M4.695,35.17l0.009,0.01c0.023-0.013,0.041-0.018,0.05-0.02C4.747,35.161,4.729,35.164,4.695,35.17z"/>
	<path fill="#EC1C24" d="M4.678,35.194l0.006-0.003C4.655,35.166,4.645,35.156,4.678,35.194z"/>
	<path fill="#EC1C24" d="M4.176,35.032c-0.132-0.18-0.249-0.396-0.534-0.585C3.815,34.653,3.977,34.762,4.176,35.032z"/>
	<path fill="#EC1C24" d="M4.312,34.865l-0.107-0.021c0.074,0.073,0.19,0.172,0.255,0.262L4.312,34.865z"/>
	<polygon fill="#EC1C24" points="4.243,34.756 4.312,34.865 4.35,34.873 	"/>
	<path fill="#EC1C24" d="M4.989,35.093c-0.103-0.141-0.092-0.17-0.089-0.213c-0.079-0.03-0.134-0.035-0.157-0.01
		C4.827,34.96,4.974,35.129,4.989,35.093z"/>
	<path fill="#EC1C24" d="M4.822,35.106c-0.005-0.008-0.008-0.013-0.012-0.02C4.784,35.065,4.774,35.06,4.822,35.106z"/>
	<path fill="#EC1C24" d="M5.127,34.659c-0.017-0.015-0.037-0.032-0.055-0.048L5.12,34.66L5.127,34.659z"/>
	<path fill="#EC1C24" d="M4.688,34.822c-0.072-0.035-0.016,0.044,0.06,0.14c-0.014-0.042-0.019-0.074-0.004-0.092
		C4.706,34.83,4.68,34.803,4.688,34.822z"/>
	<path fill="#EC1C24" d="M5.255,35.086C5.188,35.038,5.128,35,5.071,34.967C5.169,35.044,5.325,35.164,5.255,35.086z"/>
	<path fill="#EC1C24" d="M4.893,35.158c0.003,0.004,0.007,0.01,0.01,0.014C4.969,35.226,4.938,35.197,4.893,35.158z"/>
	<path fill="#EC1C24" d="M4.893,35.158c-0.03-0.051-0.091-0.126-0.146-0.196c0.011,0.033,0.03,0.074,0.063,0.124
		C4.832,35.104,4.864,35.133,4.893,35.158z"/>
	<path fill="#EC1C24" d="M3.407,32.802c0.255,0.262,0.445,0.549,0.127,0.313c0.152,0.235,1.028,1.058,1.539,1.496
		c-0.112-0.114-0.215-0.218-0.325-0.413c-0.156-0.126-0.424-0.235-0.622-0.504c-0.077-0.189,0.137,0.046,0.301,0.154
		c-0.346-0.298-0.396-0.539-0.882-1l0.118,0.216C3.588,32.992,3.488,32.856,3.407,32.802z"/>
	<path fill="#EC1C24" d="M4.965,34.665l0.015,0.05c0.065,0.025,0.182,0.113,0.411,0.29c-0.098-0.154-0.188-0.257-0.271-0.345
		l-0.122,0.05L4.965,34.665z"/>
	<path fill="#EC1C24" d="M4.903,34.793c-0.267-0.294-0.345-0.455-0.674-0.734c-0.032,0.071,0.198,0.271,0.29,0.422
		c0.012-0.151,0.132,0.181,0.352,0.281c0.032,0.063,0.032,0.093,0.029,0.118c0.049,0.019,0.105,0.047,0.171,0.087
		c-0.007-0.007-0.013-0.011-0.02-0.016h0.001l-0.004-0.003c-0.039-0.031-0.062-0.052-0.037-0.036
		c-0.003-0.003-0.003-0.007-0.004-0.008c-0.038-0.04-0.071-0.076-0.103-0.109c0.082,0.033,0.077,0.07,0.103,0.109
		c0.013,0.014,0.026,0.028,0.041,0.044l0.003,0.003L4.98,34.715C4.924,34.693,4.91,34.723,4.903,34.793z"/>
	<path fill="#EC1C24" d="M3.082,33.799c0.027,0.022,0.048,0.041,0.068,0.061C3.121,33.821,3.099,33.796,3.082,33.799z"/>
	<path fill="#EC1C24" d="M3.285,33.935c0.033,0.044,0.14,0.163,0.091,0.153c-0.101-0.068-0.134-0.136-0.227-0.227
		c0.063,0.087,0.16,0.243,0.333,0.342l-0.032-0.044c0.129,0.064,0.522,0.372,0.555,0.416C3.744,34.332,3.555,34.16,3.285,33.935z"/>
	<path fill="#EC1C24" d="M4.024,34.289l-0.068-0.206l-0.278-0.208l0.148,0.145C3.73,34,3.918,34.173,4.024,34.289z"/>
	<polygon fill="#EC1C24" points="5.274,34.791 5.563,35.095 5.183,34.637 	"/>
	<polygon fill="#EC1C24" points="5.328,34.665 5.583,34.926 5.451,34.748 	"/>
	<path fill="#EC1C24" d="M7.158,26.436l-0.053-0.095C7.119,26.375,7.137,26.404,7.158,26.436z"/>
	<path fill="#EC1C24" d="M6.995,26.563l0.124,0.131C7.055,26.617,7.007,26.563,6.995,26.563z"/>
	<path fill="#EC1C24" d="M7.488,32.446c0.27,0.211,0.677,0.553,0.382,0.267l-0.292-0.275C7.61,32.51,7.562,32.494,7.488,32.446z"/>
	<path fill="#EC1C24" d="M7.299,29.259c-0.03-0.023-0.062-0.05-0.094-0.077c0.089,0.104,0.173,0.2,0.251,0.29
		C7.408,29.406,7.354,29.334,7.299,29.259z"/>
	<path fill="#EC1C24" d="M6.15,28.068l0.222,0.144C6.299,28.157,6.226,28.11,6.15,28.068z"/>
	<path fill="#EC1C24" d="M7.656,25.339l-0.265-0.313C7.356,25.066,7.518,25.193,7.656,25.339z"/>
	<path fill="#EC1C24" d="M6.137,33.647c0.136,0.085,0.202,0.112,0.233,0.107C6.178,33.624,5.91,33.405,6.137,33.647z"/>
	<path fill="#EC1C24" d="M10.102,29.492c-0.039-0.063-0.091-0.125-0.155-0.188C9.983,29.365,10.029,29.426,10.102,29.492z"/>
	<path fill="#EC1C24" d="M6.443,33.681c-0.033-0.021-0.051-0.034-0.08-0.052c0.028,0.066,0.048,0.123,0.007,0.126
		C6.514,33.854,6.614,33.903,6.443,33.681z"/>
	<path fill="#EC1C24" d="M10.781,22.682c0.015,0.01,0.023,0.016,0.041,0.027C10.783,22.67,10.779,22.671,10.781,22.682z"/>
	<path fill="#EC1C24" d="M14.475,24.692c0.01,0.027-0.004,0.042-0.013,0.057C14.488,24.762,14.497,24.75,14.475,24.692z"/>
	<path fill="#EC1C24" d="M5.81,34.429C5.81,34.467,5.838,34.464,5.81,34.429L5.81,34.429z"/>
	<path fill="#EC1C24" d="M4.6,33.403c-0.027-0.035-0.065-0.079-0.129-0.146C4.537,33.33,4.577,33.375,4.6,33.403z"/>
	<path fill="#EC1C24" d="M4.872,31.734l0.003-0.001C4.813,31.684,4.825,31.693,4.872,31.734z"/>
	<path fill="#EC1C24" d="M5.653,34.331c0.042,0.026,0.079,0.047,0.108,0.06C5.735,34.371,5.7,34.353,5.653,34.331z"/>
	<path fill="#EC1C24" d="M5.791,34.459c-0.019-0.005-0.032-0.008-0.044-0.011C5.792,34.499,5.823,34.526,5.791,34.459z"/>
	<path fill="#EC1C24" d="M5.822,34.389c-0.006,0.014-0.03,0.011-0.061,0.002c0.023,0.014,0.041,0.028,0.049,0.039
		C5.811,34.42,5.813,34.406,5.822,34.389z"/>
	<path fill="#EC1C24" d="M9.989,24.987c0.01,0.008,0.017,0.012,0.031,0.023C9.921,24.874,9.931,24.9,9.989,24.987z"/>
	<polygon fill="#EC1C24" points="5.044,29.02 5.056,29.035 5.069,29.042 	"/>
	<path fill="#EC1C24" d="M4.902,28.74c0.323,0.381,0.263,0.353,0.167,0.301l0.837,0.793L4.902,28.74z"/>
	<path fill="#EC1C24" d="M7.426,26.003l-0.301-0.206c-0.36-0.475-0.175-0.372-0.577-0.684c0.878,0.89-0.095,0.276,0.783,1.166
		l-0.218-0.154c0.018-0.001-0.033-0.055-0.015-0.055c-0.485-0.362,0.595,0.686,0.39,0.639c-0.095-0.04-0.243-0.15-0.33-0.273
		l0.158,0.279c-0.035,0.002-0.184-0.157-0.15-0.157l-0.022,0.164l-0.025-0.027c0.125,0.152,0.31,0.397,0.387,0.502
		c-0.151-0.104-0.082-0.105-0.199-0.209l0.163,0.265c-0.25-0.208-0.43-0.474-0.362-0.476c-0.932-0.835,0.18,0.266-0.44-0.147
		l-0.063-0.161c-0.534-0.47-0.39-0.25-0.758-0.507c0.176,0.149,0.899,0.677,1.064,0.953c-0.083-0.05-0.136-0.061,0.013,0.147
		c-0.315-0.313-0.267-0.207-0.287-0.153l-0.414-0.419c0.08,0.161,0.295,0.371,0.46,0.582c-0.085,0.003-0.418-0.31-0.701-0.572
		c-0.137,0.005,0.567,0.468,0.562,0.632c-0.219-0.101-0.091,0.11,0.088,0.433C6.446,27.46,6.384,27.3,6.25,27.195l0.295,0.369
		c-0.017,0.002-0.116-0.104-0.166-0.156c0.098,0.16,0.414,0.419,0.479,0.58c0.446,0.473-0.771-0.57-0.31,0.011
		c-0.133-0.103-0.248-0.261-0.415-0.419c0.26,0.425,0.178,0.319,0.57,0.848l-0.331-0.216c0.355,0.271,0.671,0.695,0.927,1.046
		c0.167,0.136,0.313,0.254,0.384,0.311l0.147,0.3c-0.078-0.06-0.213-0.209-0.374-0.397c0.029,0.04,0.058,0.079,0.085,0.113
		c-0.18-0.126-0.407-0.379-0.62-0.632c0.09,0.072,0.187,0.151,0.284,0.229c-0.235-0.271-0.497-0.569-0.746-0.81
		c0.043,0.054,0.075,0.104,0.088,0.139c-0.064-0.074-0.122-0.139-0.167-0.178C6.334,28.291,6.42,28.39,6.514,28.51l-0.482-0.448
		l0.18,0.189l-0.39-0.192c0.397,0.539,1.023,1.29,1.103,1.593c-0.313-0.367-0.551-0.563-0.953-0.968
		c0.458,0.397-0.094-0.268,0.051-0.239c-0.076-0.014-0.261-0.215-0.321-0.289l0.285,0.492c-0.328-0.331-0.27-0.224-0.434-0.334
		c0.673,0.632,0.357,0.512,0.515,0.755c-0.223-0.216-0.436-0.451-0.332-0.449c-0.549-0.433,0.693,0.84,0.219,0.479
		c0.007-0.019,0.048,0.009-0.059-0.108c0.166,0.224-0.061,0.142-0.235-0.066l0.009-0.017c-0.162,0.006-0.26,0.25,0.28,0.818
		c-0.069-0.072-0.653-0.681-0.763-0.795l1.715,2.014c-0.463-0.489-1.647-1.573-1.846-1.911c-0.088-0.047-0.191-0.103-0.066,0.107
		c0.081,0.056,0.722,0.655,0.747,0.718c-0.581-0.479-0.319-0.25-0.834-0.637c0.123,0.082,0.847,0.85,0.79,0.858
		c-0.105-0.116-0.739-0.734-0.805-0.824l0.652,0.813c-0.111-0.151-0.617-0.624-0.842-0.813c0.152,0.135-0.082,0.056-0.032,0.149
		l0.204,0.135c-0.202-0.019,0.941,1.121,0.813,1.173c-0.141-0.163-0.905-0.958-1.043-1.006c0.354,0.397,1.712,1.898,1.922,2.267
		l-0.23-0.198l0.184,0.306c-0.527-0.604-1.608-1.898-2.012-2.42c-0.204-0.135-0.263-0.243-0.295-0.173
		c-0.218-0.183-0.276-0.333-0.273-0.36L3.686,29.12c0.444,0.434,0.349,0.53,0.718,0.891l-0.325-0.583
		c0.443,0.433,1.169,1.318,1.008,1.325c-0.196-0.153-0.765-0.795-0.913-0.94c0.141,0.163,0.209,0.367,0.094,0.268l-0.199-0.27
		c-0.211-0.118,0.504,0.658,0.03,0.295c-0.047-0.008-0.622-0.506-0.366-0.243c0.531,0.468,2.084,2.008,2.438,2.404
		c-0.041-0.027-0.58-0.375-0.849-0.601c-0.424-0.359-0.887-0.981-1.25-1.291c0.118,0.122,0.249,0.286,0.289,0.34
		C4.24,30.633,4,30.337,4.01,30.435c0.437,0.451-0.127,0.052,0.354,0.396c0.084,0.17-0.138-0.044-0.169,0.025
		c0.303,0.271,0.932,1.023,1.015,1.193c-0.11-0.117-0.267-0.254-0.339-0.315c-0.128,0.047-0.378-0.105-0.465-0.027
		c-0.115-0.101-0.285-0.19-0.459-0.398c0.067,0.091,0.207,0.252,0.192,0.288c-0.434-0.334-0.003-0.117-0.503-0.541
		c0.255,0.262,0.291,0.422,0.416,0.62c0.41,0.388,0.16-0.006,0.036-0.206c0.55,0.551,1.063,1.189,1.23,1.529
		C5.386,33.206,4.933,32.675,5,32.765c-0.225,0.033,0.851,1.07,0.347,0.78c-0.393-0.308-0.699-0.696-0.961-0.938
		c-0.077-0.189,0.308,0.136,0.332,0.084l-0.212-0.119c-0.099-0.134-0.149-0.26-0.027-0.178c-0.351-0.279-0.279,0.158-0.668-0.035
		c0.099,0.136,0.189,0.287,0.346,0.414l-0.018-0.08c0.312,0.254,0.331,0.449,0.503,0.542c0.157,0.24,0.421,0.599,0.202,0.5
		l-0.411-0.389c0.118,0.116,0.276,0.2,0.172,0.061c0.152,0.202-0.632-0.449-0.135,0.101l0.317,0.235
		c0.158,0.243,0.53,0.721,0.352,0.647c0.419,0.37-0.033-0.057,0.466,0.367c-0.607-0.542,0.159-0.11-0.498-0.662
		c0.574,0.497,0.294,0.161,0.801,0.567c-0.132-0.13-0.27-0.234-0.16-0.214c-0.035-0.042-0.08-0.095-0.106-0.126
		c0.005,0.003,0.007,0.004,0.013,0.008l-0.018-0.014c-0.018-0.021-0.021-0.025-0.006-0.005c-0.067-0.045-0.146-0.106-0.223-0.176
		c-0.281-0.325-0.201-0.386-0.333-0.566c0.088,0.037,0.14,0.163,0.295,0.289l-0.199-0.27c0.295,0.289,0.556,0.416,0.666,0.649
		l0.068-0.042c0.197,0.131,0.307,0.151,0.212,0c0.09,0.038-0.258-0.39-0.051-0.139L5.97,33.788l0.074,0.073
		c0.122-0.049-0.308-0.662,0.319-0.231c-0.045-0.103-0.106-0.224,0.026-0.189l0.263,0.244c-0.051-0.126,0.365,0.141,0.117-0.138
		c0.722,0.642,0.329-0.032,0.515,0.023l-0.328-0.334c0.065-0.025,0.014-0.163-0.063-0.352l-0.295-0.289
		c-0.192-0.289,0.332,0.084,0.378-0.021c0.106,0.116,0.057,0.107-0.024,0.051c0.751,0.569-0.288-0.671,0.276-0.274
		c-0.086-0.126-0.035-0.105,0.054-0.045c-0.002,0.003,0.002,0.009,0.01,0.021c0.005,0.001,0.009-0.002,0.012-0.005
		c0.059,0.042,0.128,0.087,0.184,0.126c-0.079-0.061-0.146-0.112-0.181-0.132c0.01-0.022-0.002-0.082-0.051-0.178l0.323,0.302
		c-0.002-0.006,0-0.006-0.003-0.014c0.139,0.093-0.13-0.167-0.378-0.391c-0.04-0.063-0.091-0.136-0.158-0.221
		c0.525,0.489-0.109-0.232,0.458,0.282c-0.247-0.279-0.08-0.316-0.621-0.884c0.072,0.072,0.114,0.099,0.105,0.116
		c0.09,0.036,0.179,0.074,0.046-0.105l0.41,0.388l-0.479-0.595c0.279,0.208,0.434,0.334,0.707,0.676
		c-0.389-0.555-0.11-0.246-0.507-0.785l0.255,0.262c0.015-0.035-0.29-0.421-0.061-0.224c0.547,0.434,0.349-0.214,0.952,0.096
		c-0.788-0.731,0.408,0.271-0.175-0.323c0.188,0.171,0.311,0.252,0.443,0.432c-0.103-0.25,0.396,0.173-0.048-0.375
		c0.188,0.172,0.248,0.28,0.362,0.378c-0.033-0.044-0.133-0.18-0.018-0.081c0.114,0.099,0.14,0.163,0.207,0.252
		c0.046-0.105-0.5-0.667-1.014-1.193c0.285,0.208,0.269,0.154-0.044-0.214c0.183,0.156,0.384,0.312,0.397,0.42
		c0.051-0.002,0.412,0.085-0.002-0.334c0.114,0.098,0.067-0.006,0.027-0.062c0.084-0.034,0.127-0.001,0.146-0.101l-0.084-0.052
		c-0.48-0.525-0.063-0.16-0.076-0.268l0.05,0.053c0.471,0.253-0.127-0.221,0.394,0.085l-0.318-0.306
		c-0.663-0.682,0.491,0.301,0.295-0.019l-0.2-0.156c-0.197-0.263,1.009,0.82,1.126,0.87c0.066,0.05,0.082,0.105,0.115,0.159
		c0.486,0.307-0.397-0.421-0.426-0.583c0.233,0.209,0.546,0.578,0.632,0.574c0.2,0.158-0.588-0.847-0.104-0.484
		c-0.183-0.156-0.366-0.314-0.464-0.472c-0.013-0.109,0.772,0.516,0.278-0.064c0.052,0.041,0.099,0.083,0.142,0.125
		c-0.102-0.175-0.113-0.347-0.381-0.661c1.113,1.047-0.3-0.748,0.694,0.248l0.059-0.166l0.098,0.106
		c0.137-0.006-0.076-0.27-0.29-0.532c0.083,0.05,0.165,0.156,0.216,0.209c0.304,0.096,0.272,0.044-0.136-0.54l0.332,0.314
		c-0.164-0.211,0.657,0.356,0.382-0.124c0.035,0.038,0.096,0.103,0.133,0.157c-0.264-0.493,1.171,0.621,0.036-0.598l-0.213-0.364
		c-0.19,0.007-0.496-0.524-0.732-0.681c-0.03-0.107,0.455,0.255,0.468,0.362l-0.066-0.05c0.596,0.63,0.339,0.095,0.753,0.516
		c0.163-0.224,0.69-0.071,0.896-0.226l-0.498-0.456l0.091-0.036c0.127,0.094,0.395,0.352,0.33,0.376
		c0.294,0.246-0.151-0.303-0.253-0.406c0.281,0.104,0.521,0.589,0.56,0.573l0.001-0.072l-0.064-0.048
		c-0.165-0.224-0.368-0.434-0.291-0.463c0.129,0.061,0.312,0.276,0.343,0.281c0.034,0.035,0.054,0.045,0.035-0.007l0.12-0.038
		l-0.408-0.345c-0.15-0.221,0.095-0.056-0.368-0.445c0.711,0.604,0.531-0.06,0.769,0.111c-0.225-0.323-0.172-0.367-0.078-0.395
		c-0.094-0.063-0.526-0.478-0.422-0.478c0.855,0.893,0.475,0.284,1.145,0.871c-0.454-0.378,0.045-0.251-0.605-0.784
		c0.114,0.028,0.329,0.325,0.568,0.496c-0.236-0.441,0.447-0.006,0.46-0.249c-0.113-0.117-0.31-0.27-0.453-0.469l0.64,0.507
		c-0.031-0.083-0.638-0.685-0.195-0.333c-0.103-0.09-0.258-0.226-0.278-0.279c0.809,0.309,0.053-0.968,1.356-0.172
		c-0.257-0.189-0.255-0.233-0.238-0.268c-0.07-0.036-0.283-0.284-0.441-0.435l0.538,0.325c-0.412-0.451,0.084-0.144-0.316-0.566
		l0.04,0.107c-0.441-0.531-1.144-1.019-1.761-1.649c0.503,0.603-0.951-0.687-0.242,0.186c-0.146-0.109-0.186-0.216-0.34-0.352
		c0.246,0.291,0.277,0.371,0.111,0.297l-0.062-0.071c-0.065,0.196-0.385-0.011-0.708-0.041l0.319,0.298
		c-0.072-0.009-0.176-0.099-0.268-0.162c0.432,0.504,0.115-0.062,0.598,0.487c-0.67-0.586-0.232,0.213-0.975-0.471
		c-0.052,0.044,0.372,0.342,0.32,0.388l-0.207-0.181l0.237,0.262c-0.073-0.01-0.331-0.235-0.495-0.397
		c0.027,0.011-0.024-0.067-0.03-0.09c-0.269-0.186-0.039,0.194-0.127,0.134l0.166,0.073c0.048,0.313-0.367,0.222-0.103,0.742
		l0.154,0.135c0.173,0.367-0.238-0.08-0.22,0.151l-0.031-0.039c0.123,0.167,0.168,0.27,0.122,0.282
		c-0.144-0.197-0.383-0.281-0.536-0.504c0.183,0.396,0.175,0.279,0.646,0.891l-0.257-0.226c0.194,0.243,0.307,0.359,0.316,0.476
		c-0.163-0.25-0.402-0.334-0.628-0.657c-0.64-0.417,0.367,0.7-0.458-0.021c0.617,0.721,0.469,0.274,0.583,0.446
		c0.243,0.193,0.457,0.542,0.354,0.51c-0.051,0.021-0.917-0.794-0.995-0.692c0.013-0.005-0.038-0.057-0.026-0.063
		c-0.204-0.136,0.165,0.298-0.154,0.063c0.381,0.427-0.077,0.03,0.432,0.553l-0.036-0.204c0.088,0.183,0.647,0.83,0.277,0.615
		c-0.099-0.11-0.211-0.27-0.272-0.362C9.814,24.858,10.045,25.132,9.866,25c-0.51-0.523-0.011-0.213-0.354-0.658
		c-0.242-0.193,0.279,0.47-0.255-0.115c0.674,0.747-0.18,0,0.302,0.604l-0.305-0.314c0.039,0.059,0.166,0.224,0.14,0.235
		l-0.369-0.434c0.292,0.391-0.395-0.203-0.256,0.03c0.089-0.109,0.395,0.35,0.663,0.534c0.29,0.536-0.88-0.739-0.87-0.452
		c-0.025-0.063,0.256,0.115,0.37,0.288c-0.089-0.038-0.243-0.123-0.421-0.268c-0.026,0.155,0.332,0.305,0.484,0.533
		c-0.408-0.345,0.108,0.198,0.188,0.358l-0.314-0.314c-0.306-0.098,0.627,0.683,0.29,0.533l-0.396-0.476l0.064,0.162L8.478,24.88
		c0.213,0.318,0.128,0.265-0.025,0.217c0.234,0.21,0.564,0.577,0.528,0.634c-0.218-0.156-0.281-0.317-0.302-0.206
		c-0.182-0.211-0.412-0.475-0.095-0.215c-0.095-0.107-0.187-0.209-0.281-0.315c-0.248-0.182-0.134,0.036-0.154,0.061
		c0.021,0.003,0.049,0.01,0.099,0.049l0.34,0.53c-0.132-0.103-0.216-0.21-0.296-0.314c0.014,0.054,0.146,0.211,0.145,0.266
		c-0.249-0.263-0.514-0.524-0.595-0.686l0.193,0.374c-0.118-0.106-0.352-0.258-0.435-0.364c-0.2-0.101,0.374,0.618,0.109,0.486
		c0.046,0.053,0.087,0.107,0.11,0.158c-0.121,0.005-0.489-0.253-0.212,0.17l-0.501-0.416c0.046,0.162,0.635,0.521,0.71,0.79
		c0.079,0.214-0.416-0.365-0.566-0.469c0.197,0.265,0.607,0.793,0.173,0.482C7.357,26.005,7.441,26.057,7.426,26.003z M6.917,26.919
		c-0.052-0.079-0.229-0.311-0.033-0.135C7.229,27.161,7.044,27,6.917,26.919z M6.591,28.761c-0.094-0.115-0.027-0.079,0.11,0.021
		C6.714,28.822,6.687,28.824,6.591,28.761z M5.762,33.967c-0.005-0.006-0.008-0.01-0.015-0.017
		C5.9,34.042,5.841,34.004,5.762,33.967z M5.562,33.894c0.037,0.05,0.081,0.095,0.127,0.136c-0.075-0.084-0.066-0.104-0.027-0.098
		C5.575,33.853,5.509,33.805,5.562,33.894z M12.306,26.902l-0.095-0.071C12.149,26.713,12.224,26.803,12.306,26.902z"/>
	<path fill="#EC1C24" d="M6.284,28.208C6.34,28.256,6.4,28.313,6.46,28.372C6.413,28.315,6.351,28.253,6.284,28.208z"/>
	<polygon fill="#EC1C24" points="7.705,25.395 7.71,25.397 7.656,25.339 	"/>
	<path fill="#EC1C24" d="M3.886,30.238c0.059,0.031,0.124,0.082,0.188,0.137C3.998,30.297,3.927,30.238,3.886,30.238z"/>
	<path fill="#EC1C24" d="M5.756,34.767l-0.041-0.123c-0.004,0.036-0.08-0.025-0.14-0.067C5.65,34.652,5.764,34.75,5.756,34.767z"/>
	<path fill="#EC1C24" d="M3.456,33.178c0.032,0.044-0.009,0.018,0.024,0.062l0.147,0.145C3.644,33.348,3.544,33.214,3.456,33.178z"
		/>
	<path fill="#EC1C24" d="M4.674,33.761C4.406,33.5,4.47,33.615,4.49,33.693c0-0.003,0-0.008,0.005-0.004
		C4.857,34.067,4.765,33.913,4.674,33.761z"/>
	<path fill="#EC1C24" d="M4.493,33.709c0.004,0.021,0.001,0.036-0.02,0.033C4.618,33.894,4.515,33.761,4.493,33.709z"/>
	<path fill="#EC1C24" d="M5.655,34.15c-0.082-0.053,0.33,0.347,0.213,0.248C6.19,34.75,5.553,33.9,5.655,34.15z"/>
	<polygon fill="#EC1C24" points="3.779,32.914 4.116,33.228 3.869,32.949 	"/>
	<path fill="#EC1C24" d="M4.245,32.926L4.11,32.881c0.055,0.054,0.081,0.092,0.098,0.123C4.247,32.987,4.344,33.022,4.245,32.926z"
		/>
	<path fill="#EC1C24" d="M4.208,33.004c-0.021,0.01-0.027,0.03,0.018,0.091C4.23,33.085,4.236,33.056,4.208,33.004z"/>
	<polygon fill="#EC1C24" points="3.744,32.752 3.826,32.807 3.882,32.798 	"/>
	<path fill="#EC1C24" d="M4.802,32.496l-0.044-0.144c-0.106-0.117-0.188-0.172-0.162-0.109C4.661,32.333,4.685,32.396,4.802,32.496z
		"/>
	<path fill="#EC1C24" d="M3.756,31.753c0.081,0.055,0.155,0.126,0.271,0.227l-0.403-0.407L3.756,31.753z"/>
	<path fill="#EC1C24" d="M3.808,31.513c-0.107-0.118-0.25-0.395-0.288-0.306C3.626,31.322,3.67,31.466,3.808,31.513z"/>
	<polygon fill="#EC1C24" points="5.074,31.27 5.066,31.288 5.732,31.95 	"/>
	<path fill="#EC1C24" d="M4.151,29.018c-0.219-0.1,0.396,0.424,0.143,0.279c0.143,0.17,0.206,0.118,0.327,0.268
		C4.491,29.363,4.604,29.439,4.151,29.018z"/>
	<path fill="#EC1C24" d="M4.621,29.565c0.022,0.031,0.048,0.069,0.083,0.12C4.672,29.633,4.646,29.595,4.621,29.565z"/>
	<polygon fill="#EC1C24" points="14.972,24.91 15.148,25.01 14.9,24.812 	"/>
	<path fill="#EC1C24" d="M14.553,24.344l0.432,0.415l-0.36-0.407C14.634,24.38,14.654,24.434,14.553,24.344z"/>
	<path fill="#EC1C24" d="M5.959,26.174l0.099,0.104c0.116,0.104,0.133,0.104,0.168,0.104L5.959,26.174z"/>
	<polygon fill="#EC1C24" points="6.792,25.974 6.775,25.974 7.175,26.339 	"/>
	<path fill="#EC1C24" d="M6.739,25.051c-0.033,0.002,0.032,0.108-0.003,0.108C6.706,25.053,7.221,25.523,6.739,25.051z"/>
</g>
</svg>
