<?xml version="1.0" encoding="utf-8"?>
<!-- Generator: Adobe Illustrator 16.0.0, SVG Export Plug-In . SVG Version: 6.00 Build 0)  -->
<!DOCTYPE svg PUBLIC "-//W3C//DTD SVG 1.1//EN" "http://www.w3.org/Graphics/SVG/1.1/DTD/svg11.dtd">
<svg version="1.1" id="Layer_8" xmlns="http://www.w3.org/2000/svg" xmlns:xlink="http://www.w3.org/1999/xlink" x="0px" y="0px"
	 width="72px" height="100px" viewBox="0 0 72 100" enable-background="new 0 0 72 100" xml:space="preserve">
<g>
	<path fill="none" d="M45.948,81.012c0.124,0.286,0.478-0.021,0.654-0.121C46.306,80.729,46.154,80.461,45.948,81.012z"/>
	<path fill="none" d="M54.499,71.406c-0.139,0.197-0.171,0.383-0.144,0.551C54.555,71.744,54.648,71.549,54.499,71.406z"/>
	<polygon fill="none" points="41.43,24.854 41.429,24.854 41.43,24.854 	"/>
	<path fill="none" d="M41.564,24.32c0.073-0.113,0.107-0.234-0.064-0.486l-0.776,0.507l0.379-0.725
		c-0.068-0.133-0.117-0.27-0.149-0.41c-0.456,0.155-0.849,0.757-1.203,1.28l0.417,0.34L41.564,24.32z"/>
	<path fill="none" d="M63.417,40.792c0.506,0.044-0.606-0.458-1.01-0.657C62.394,40.328,61.932,40.293,63.417,40.792z"/>
	<path fill="none" d="M53.429,71.947l-0.034,0.463c0.072,0.052,0.141,0.101,0.22,0.157c0.141-0.106,0.282-0.214,0.42-0.317
		C53.83,72.085,53.621,71.961,53.429,71.947z"/>
	<path fill="none" d="M35.563,85.209c0.092,0.289,0.371-0.012,0.491-0.107C35.819,84.932,35.729,84.663,35.563,85.209z"/>
	<path fill="none" d="M53.369,72.741c0.037-0.026,0.067-0.048,0.105-0.075c-0.032-0.047-0.059-0.088-0.09-0.134L53.369,72.741z"/>
	<path fill="none" d="M39.902,80.982c-0.001,0.012-0.005,0.02-0.006,0.031c0.083,0.095,0.169,0.191,0.255,0.289
		c0.041-0.019,0.079-0.039,0.146-0.03L39.902,80.982z"/>
	<path fill="none" d="M41.748,43.076l0.005-0.482c-0.46,0.178-0.63,0.988-0.976,0.404c-0.32,0.203,0.189,0.469,0.13,0.635
		c0.221-0.081,0.573-0.175,1.102-0.458c0,0-0.013-0.026-0.032-0.065C41.906,43.103,41.843,43.103,41.748,43.076z"/>
	<path fill="#EC1C24" d="M6.97,41.831c-0.156,0.121,0.203,0.347,0.24,0.419C7.356,41.945,6.883,41.765,6.97,41.831z"/>
	<path fill="#EC1C24" d="M65.943,43.707l-0.077,0.111C65.954,43.784,65.968,43.747,65.943,43.707z"/>
	<path fill="#EC1C24" d="M65.994,42.783l-0.571-0.214C65.804,42.741,66.058,42.846,65.994,42.783z"/>
	<path fill="#EC1C24" d="M17.421,43.008c-0.023-0.02-0.052-0.03-0.073-0.053C17.339,43.014,17.372,43.017,17.421,43.008z"/>
	<path fill="#EC1C24" d="M27.336,15.143l0.013-0.013C27.286,15.073,27.297,15.084,27.336,15.143z"/>
	<path fill="#EC1C24" d="M35.129,42.139c-0.015-0.014-0.03-0.023-0.046-0.042C34.862,42.273,34.958,42.246,35.129,42.139z"/>
	<path fill="#EC1C24" d="M64.408,43.785c-0.463-0.311-1.091-0.681-0.181-0.569c0.733,0.116,1.625,0.328,1.716,0.491
		c0.018,0,0.185-0.333,0.168-0.333c0.018,0.002,0.034,0.004,0.046,0.005c-0.078-0.109,0.396,0.071,0.646,0.234l-1.496-1.086
		l0.116,0.043c-0.698-0.327-1.957-0.917-2.541-1.19c0.195-0.093,0.515,0.233,0.871,0.306l-1.475-0.778
		c0.575,0.015,1.973,0.713,2.354,1.09c1.393,0.26,0.977,0.032,0.342-0.285c-0.657-0.334-1.498-0.728-1.367-1.132l1.126,0.695
		c1.289,0.057,0.031-0.608,0.096-1.176c-0.141,0.048-0.297,0.311-0.685,0.399c-0.38,0.095-0.979,0.025-1.736-0.374
		c0.008-0.125-0.206-0.363-1.177-0.801c0.978,0.173,0.301-0.226-0.279-0.663l1.235,0.182c-0.974-0.556-1.505-0.568-2.342-0.879
		c-0.508-0.495,0.157-0.592,0.649-0.729c-0.504-0.477-0.601-0.299-0.79-0.161c-0.186,0.14-0.475,0.232-1.162-0.25
		c-0.479-0.707-1.516-1.214-2.88-1.833c-0.32-0.546,0.53-0.072,0.529-0.31c0,0-0.269-0.054-0.537-0.108
		c-0.258-0.045-0.516-0.091-0.516-0.091c-0.107-0.104,0.086-0.147,0.187-0.168c-0.616-0.247-0.679,0.271-1.435-0.12
		c-0.143,0.049-0.232,0.015-0.308-0.052c-0.002-0.439-0.151-0.954-0.595-1.145c-0.013-0.02-0.027-0.037-0.04-0.056
		c0.313,0.026,0.847,0.082,0.974,0.107L52.606,32.6c-0.012-0.005-0.024-0.008-0.037-0.013l-0.286-0.097
		c0.055-0.168,0.304-0.205,0.405-0.401c-0.011-0.002-0.018-0.003-0.028-0.005c0.571-0.001,1.099,0.04,1.299,0.252
		c0.106-0.119,0.231-0.266-0.021-0.526c-0.105,0.08-1.061,0.184-1.125,0.069c0.82-0.292,0.439-0.206,1.141-0.573
		c-0.159,0.121-1.302-0.041-1.261-0.235c0.171,0.034,1.131,0.007,1.248,0.081l-1.113-0.509c0.199,0.125,0.952,0.041,1.271-0.061
		c-0.221,0.046,0.029-0.42-0.079-0.552l-0.265,0.2c0.182-0.545-1.57-0.575-1.5-1.118c0.231,0.071,1.426,0.192,1.573-0.082
		c-0.307-0.074-1.071-0.248-1.785-0.467l0.013-0.611c0.745,0.278,1.516,0.592,1.919,0.804c0.265-0.2,0.389-0.049,0.365-0.357
		c0.312-0.102,0.465,0.177,0.481,0.269l0.214-0.712c-0.673,0.018-0.663-0.562-1.224-0.546l0.681,0.792
		c-0.671,0.018-1.898-0.49-1.77-0.995c0.271-0.124,1.194,0.121,1.419,0.115c-0.229-0.07-0.432-0.491-0.267-0.534l0.354,0.223
		c0.259-0.277-0.881-0.479-0.232-0.806c0.045-0.116,0.873-0.332,0.476-0.36c-0.462,0.105-1.496,0.142-2.376,0.125l0.008-0.399
		l0.265,0.022l-0.006-0.077l-0.257-0.002l0.008-0.409c0.571-0.029,1.26,0.339,1.715,0.204c-0.183-0.011-0.407-0.123-0.479-0.168
		c0.159-0.12,0.568,0.063,0.49-0.207c-0.681-0.059,0.069-0.542-0.573-0.138c-0.189-0.266,0.146-0.275,0.123-0.583
		c-0.294,0.059-0.852-0.096-1.251-0.284l0.007-0.336c0.02-0.005,0.051-0.01,0.065-0.014c0.072-0.535,0.388-0.817,0.404-1.316
		c0.166-0.043,0.37-0.28,0.661-0.171c-0.118-0.074-0.348-0.145-0.361-0.3c0.596-0.286,0.084,0.346,0.797,0.133
		c-0.396-0.028-0.538-0.411-0.781-0.635c-0.612,0.055-0.127,0.505,0.115,0.73c-0.294-0.006-0.585-0.071-0.864-0.159l0.033-1.592
		c0.268-0.357,0.033-1.25,0.438-1.824c-0.125-0.079-0.254-0.178-0.396-0.193l0.043-2.062c0.071-0.039,0.146-0.083,0.229-0.142
		c0-0.005-0.163-0.089-0.225-0.118l0.001-0.027c0.114-0.074,0.273-0.099,0.373-0.249c-0.14,0.084-0.272,0.141-0.371,0.157
		l0.009-0.435c0.012-0.017,0.018-0.03,0.031-0.048c-0.007,0-0.022,0.011-0.03,0.012l0.002-0.114l-0.26-0.028
		c0.002-0.015,0.013-0.029,0.004-0.043c-0.06,0.032-0.084,0.029-0.113,0.031l-9.005-0.977l0.008,0.634
		c-0.401,0.119-0.821,0.246-1.254,0.233c0.853,0.293-1.247,0.813-0.026,1.296c-0.194,0.112-0.31-0.09-0.531-0.028
		c0.412,0.121,0.499,0.272,0.318,0.556l-0.102-0.031c0.109,0.791-0.291,1.135-0.551,2.028l0.473-0.072
		c-0.061,0.192-0.209,0.234-0.326,0.325c0.721,0.211,0.034-0.537,0.828-0.347c-0.961,0.265,0.002,1.349-1.092,1.533
		c-0.002,0.294,0.548-0.093,0.545,0.202l-0.296,0.081l0.383,0.07c-0.061,0.194-0.431,0.295-0.681,0.306
		c0.029-0.047-0.072-0.132-0.095-0.182c-0.346,0.254,0.128,0.704,0.015,0.791l0.18-0.285c0.155,0.432,0.119,0.917,0.146,1.394
		c-0.1-0.056-0.217-0.104-0.377-0.136c0.055,0.179-0.367,1.064-0.574,0.981c0.062-1-0.039-0.594-0.159-1.586
		c0.081,0.269-0.844,0.993-1.106,0.731c0.153-0.097,0.691-0.896,0.871-0.903l-1.423,0.291c0.306-0.012,0.634-0.713,0.675-1.089
		c-0.064,0.23-0.602-0.518-0.862-0.586l0.138,0.448c-0.697-0.787-1.794,0.579-2.554-0.117c0.243-0.102,1.142-0.914,0.825-1.354
		c-0.294,0.158-1.01,0.565-1.763,0.878l-0.895-0.729c0.858-0.27,1.786-0.514,2.341-0.588c-0.136-0.447,0.161-0.369-0.308-0.713
		c0.036-0.369,0.541-0.163,0.686-0.069l-0.923-1.009c-0.379,0.56-1.229-0.131-1.542,0.335l1.579,0.389
		c-0.378,0.558-1.864,0.942-2.532,0.244c-0.021-0.361,0.897-0.812,1.023-0.999c-0.243,0.101-0.984-0.232-0.949-0.416l0.542-0.021
		c-0.254-0.533-1.238,0.141-1.329-0.762c-0.072-0.086-0.063-0.359-0.072-0.574c0.021-0.191-0.124-0.446-0.253-0.294
		c0.016,0.508-0.448,1.142-0.893,1.762c-0.09,0.121-0.182,0.235-0.273,0.349l-0.583-0.476c0.091-0.119,0.161-0.21,0.161-0.21
		l-0.124-0.091l-0.123,0.231l-0.597-0.487c0.057-0.269,0.225-0.478,0.428-0.652c0.259-0.237,0.574-0.416,0.507-0.804
		c-0.092,0.162-0.392,0.21-0.499,0.216c-0.193-0.359,0.297-0.492-0.293-0.866c-0.263,0.666-1.084-0.958-0.39,0.426
		c-0.523-0.176-0.504-0.592-1.112-1.049c0.124,0.477-0.15,0.978-0.361,1.326l-0.008-0.007l-0.418,0.471
		c-0.011-0.018-0.023-0.048-0.032-0.061c-0.685,0.678-1.22,0.814-1.936,1.611c-0.165-0.063-0.675,0.209-0.729-0.171
		c-0.039,0.225,0.049,0.474-0.128,0.698c-0.815,0.03,0.362-0.546-0.452-0.695c0.271,0.291-0.092,0.926-0.183,1.401
		c0.547,0.306,0.715-0.628,0.826-1.125c0.213,0.202,0.354,0.482,0.461,0.787l-1.994,2.244c-0.646,0.336-1.605,1.796-2.563,2.283
		c0.001,0.191-0.039,0.433,0.029,0.569l-2.581,2.905c-0.045-0.056-0.098-0.107-0.17-0.15l-0.16,0.522l-0.037,0.042
		c-0.073-0.088-0.089-0.311-0.255-0.267c0.098,0.105,0.129,0.258,0.123,0.414l-0.516,0.581c-0.024,0.005-0.036,0.022-0.063,0.025
		c-0.002,0.013,0.005,0.027,0.004,0.041l-0.469,0.528c-0.026,0.008-0.045,0.004-0.079,0.024c-0.001,0.059-0.033,0.093-0.06,0.132
		L6.431,38.771c-0.345,0.007-0.701-0.027-0.777,0.319l0.387-0.107c-0.082,0.116-0.111,0.238-0.119,0.363l-0.873,0.982l1.196,0.02
		c0.21,0.406,0.434,0.831,0.393,1.262c0.586-0.839,1.487,1.282,2.445,0.083c0.204,0.198-0.182,0.305-0.074,0.529
		c0.244-0.407,0.533-0.487,1.063-0.294l-0.062,0.101c1.496-0.076,2.131,0.34,3.807,0.637l-0.116-0.476
		c0.359,0.069,0.434,0.219,0.601,0.34c0.426-0.711-1.014-0.057-0.623-0.843c0.463,0.972,2.546,0.057,2.852,1.157
		c0.555,0.015-0.154-0.551,0.401-0.536l0.142,0.299l0.146-0.379c0.363,0.069,0.541,0.442,0.551,0.693
		c-0.088-0.031-0.252,0.066-0.348,0.086c0.467,0.357,1.334-0.097,1.494,0.019l-0.531-0.191c1.521-0.252,3.365,0.167,4.839-0.411
		L23.115,42.2c1.125-0.395,0.892,0.26,2.123,0.089l-0.046,0.053c0.249-0.219,0.579-0.326,0.915-0.294
		c-0.314,0.256,0.575,0.518,0.163,0.801c1.221-0.424,0.605-0.339,1.421-1.156l0.178,0.374c0.279-0.331,0.305-0.507,0.919-0.593
		c-0.508,0.31,0.383,0.571-0.188,0.983c1.273,0.832,1.924-0.788,2.494,0.408c0.608-1.017-1.104-0.588-0.77-0.802
		c-0.271-0.34,0.501-0.759,0.902-0.649c0.411,0.03,0.678,1.324,1.712,1.322c-0.103-0.007-0.111,0.071-0.214,0.065
		c0.383,0.268,0.765-0.342,1.232,0.091c0.275-0.616,0.615,0.045,0.705-0.745l-0.951,0.167c0.541-0.198,1.061-1.116,1.938-0.652
		c-0.071,0.159-0.339,0.364-0.521,0.479c0.255,0.237,0.501-0.146,0.766,0.098c-0.09,0.791-1.155,0.153-1.741,0.748
		c0.272,0.339,1.099-0.556,0.795,0.297c0.435-1.084,1.017,0.154,1.73-0.667l-0.054,0.474c0.112-0.073,0.346-0.293,0.549-0.277
		l-0.379,0.609c0.575-0.515,1.085,0.477,1.634,0.2c-1.139-0.004-0.246-0.576-0.722-0.93c1.221-0.528,0.923,0.787,1.831,1.028
		c0.008,0.063,0.021,0.123,0.038,0.179c0.142-0.021,0.283-0.042,0.378-0.025c-0.157,0.023-0.234-0.019-0.274-0.076
		c0.007-0.017,0.014-0.034,0.021-0.051c0.108,0.012,0.228,0.016,0.369-0.002c-0.082,0.024-0.218-0.015-0.336-0.083
		c0.122-0.292,0.232-0.479-0.142-0.114c-0.095-0.102-0.127-0.222,0.02-0.315c0.298,0.103,0.69,0.292,0.87,0.543
		c0.101-0.008,0.164-0.021,0.227-0.035c-0.08,0.068-0.108,0.162-0.083,0.344c0.615-0.652,1.144-0.664,1.673-0.675
		c0.299-0.006,0.598-0.017,0.872-0.141l-0.056,0.245c0.613-0.397,0.801-0.289,1.392-0.125c-0.133-0.342,0.092-0.874,0.618-0.88
		c0.188,0.156,0.119,0.273,0.125,0.342l0.092-0.041l-0.092,0.041c0.004,0.06,0.064,0.083,0.413,0.057
		c-0.174,0.299-0.364,0.675-0.681,0.225c-0.036,0.157-0.171,0.3-0.208,0.455c0.381,0.336,0.969,0.091,1.239,0.091
		c-0.104-0.02-0.228-0.048-0.29-0.118l1.091-0.65c0.167,0.184,0.03,0.327-0.105,0.468c0.166-0.037,0.296-0.171,0.488-0.25
		c0.062,0.15,0.116,0.084,0.189-0.014c0.004-0.005,0.01-0.011,0.014-0.017c-0.083,0.383-0.08,0.775-0.529,0.949l0.936-0.377
		c0.098,0.117,0.221,0.191,0.336,0.245c0.12,0.128,0.225,0.255,0.149,0.333c0.142,0.06,0.301,0.044,0.472-0.009
		c0.022-0.006,0.042-0.015,0.063-0.022c0.065,0.038,0.133,0.078,0.205,0.13c-0.027-0.037-0.078-0.091-0.138-0.154
		c0.126-0.052,0.255-0.119,0.549-0.182c0.005-0.001,0.011-0.002,0.016-0.004l0.119,0.113l-0.001-0.143
		c0.516-0.132,1.009-0.234,1.536-0.173c0.028,0.041,0.057,0.082,0.085,0.122c0.094,0.016,0.151,0.015,0.188,0.006
		c-0.004,0.004-0.085,0.108-0.168,0.215c-0.092,0.109-0.185,0.218-0.185,0.218c0.774,0.01,0.365-0.218,0.354-0.434
		c0.033-0.009,0.043-0.029,0.038-0.055l0.021-0.028l-0.03-0.004c-0.001-0.003-0.004-0.006-0.006-0.009
		c0.045-0.073,0.151-0.141,0.388-0.191c0.604,0.055,1.245,0.208,1.898,0.282c0.645,0.075,1.308,0.072,1.756-0.19
		c0,0,0.38,0.182,0.76,0.364c0.402,0.182,0.804,0.365,0.804,0.365c0.014-0.002,0.019-0.005,0.03-0.007
		c-0.036,0.463-0.968,1.458-1.869,2.306l-0.839-0.025c0.143-0.146,0.253-0.257,0.253-0.257l-0.179,0.002l-0.198,0.251l-0.856-0.025
		c0.104-0.242,0.368-0.502,0.68-0.756c0.401-0.335,0.883-0.658,0.808-0.919c-0.147,0.179-0.596,0.392-0.757,0.46
		c-0.263-0.165,0.475-0.555-0.378-0.497c-0.435,0.669-1.549-0.104-0.607,0.558c-0.768,0.172-0.711-0.162-1.585-0.158
		c0.124,0.224-0.126,0.591-0.358,0.929c-0.082,0.11-0.175,0.212-0.271,0.309l-0.703-0.021c-0.012-0.023-0.024-0.048-0.033-0.065
		c-1.124-0.095-1.719-0.423-2.769-0.46c-0.092-0.168-0.592-0.383-0.367-0.67c-0.155,0.116-0.301,0.343-0.625,0.35
		c-0.609-0.608,0.725-0.07,0.269-0.792c-0.053,0.395-0.854,0.521-1.323,0.754c0.124,0.616,1.063,0.149,1.531-0.083
		c-0.008,0.292-0.117,0.584-0.297,0.858l-3.362-0.101c-0.749-0.283-2.677-0.088-3.775-0.513c-0.162,0.122-0.396,0.246-0.464,0.386
		l-4.319-0.13c0.016-0.07,0.022-0.144,0.007-0.227l-0.561,0.21l-0.062-0.002c0.022-0.112,0.202-0.267,0.045-0.366
		c-0.019,0.137-0.108,0.266-0.236,0.36l-0.909-0.027c-0.016-0.012-0.032-0.018-0.048-0.031c-0.013,0.007-0.02,0.021-0.031,0.029
		l-0.784-0.023c-0.025-0.016-0.035-0.032-0.078-0.046c-0.051,0.037-0.104,0.035-0.155,0.039L14.89,45.551l-0.309-0.137
		c0.011,0.035,0.022,0.08,0.031,0.128l-1.785-0.054l0.057,1.329c-0.392,0.258-0.803,0.531-1.235,0.512
		c0.875,0.6-1.185,1.729,0.073,2.72c-0.185,0.239-0.316-0.183-0.533-0.05c0.422,0.247,0.521,0.562,0.362,1.162l-0.104-0.063
		c0.17,1.657-0.203,2.387-0.394,4.265l0.468-0.158c-0.047,0.404-0.191,0.494-0.302,0.688c0.737,0.43-0.008-1.129,0.802-0.742
		c-0.94,0.572,0.105,2.828-0.974,3.234c0.021,0.617,0.54-0.204,0.56,0.413l-0.289,0.177l0.389,0.139
		c-0.046,0.408-0.407,0.628-0.657,0.653c0.025-0.099-0.083-0.276-0.108-0.38c-0.326,0.539,0.182,1.474,0.076,1.658l0.157-0.6
		c0.349,1.672,0.047,3.744,0.718,5.346l0.219-0.133c0.466,1.225-0.203,1.006,0.046,2.361l-0.055-0.047
		c0.233,0.264,0.361,0.623,0.352,0.997c-0.276-0.333-0.48,0.67-0.789,0.23c0.501,1.328,0.377,0.651,1.244,1.507l-0.361,0.221
		c0.349,0.289,0.525,0.307,0.651,0.983c-0.343-0.545-0.547,0.459-0.994-0.149c-0.749,1.465,0.909,2.088-0.248,2.795
		c1.053,0.612,0.517-1.262,0.752-0.903c0.322-0.322,0.789,0.509,0.705,0.962c-0.001,0.242-0.318,0.508-0.623,0.949
		c-0.305,0.434-0.594,1.098-0.547,1.969c-0.003-0.174-0.079-0.147-0.082-0.323c-0.115,0.391-0.014,0.679,0.066,0.97
		c0.081,0.299,0.142,0.597-0.047,1.173c0.465-0.054,0.236,0.559,0.419,0.622c0.134-0.058,0.291-0.163,0.502-0.357
		c-0.058,0.006-0.114,0.012-0.165,0.012l-0.219-1.141c0.119,0.348,0.416,0.497,0.627,0.719c0.609-0.188,1.107-0.295,1.545-0.068
		c-0.191,0.157-0.713,0.361-1.081,0.474c0.222,0.235,0.847-0.145,1.096,0.099c-0.461,0.629-1.449,0.345-2.542,0.509
		c-0.053-0.198-0.131-0.356-0.255-0.45c-0.101,0.258-0.063,0.506-0.002,0.715c0.63-0.098,1.312-0.305,0.499,0.259
		c0.832-0.535,1.192-0.497,1.648-0.425c0.438,0.072,0.998,0.178,1.723-0.229l-0.246,0.472c0.228-0.072,0.682-0.29,1.016-0.273
		c0,0-0.194,0.15-0.389,0.303c-0.21,0.15-0.42,0.303-0.42,0.303c1.115-0.512,2.1,0.484,2.579,0.205
		c-0.636-0.001-0.696-0.145-0.686-0.332c0.009-0.188,0.2-0.42-0.19-0.598c0.328-0.075,0.397-0.114,0.56-0.122
		c0.135-0.009,0.244,0.013,0.336,0.056c0.184,0.086,0.3,0.255,0.421,0.438c0.244,0.363,0.51,0.779,1.385,0.676
		c-0.237,0.064-0.885-0.295-0.512-0.511c0.332,0.102,0.769,0.289,0.97,0.541c1.159-0.085-0.172-0.491,0.325-0.776
		c0.387,0.583,0.571-0.229,1.081-0.406l-0.002,0.482c1.315,0.325,0.362-1.002,1.546-0.613l-0.511,0.663l0.622-0.165l-0.135,0.547
		c0.679-0.398,0.888-0.291,1.546-0.129c-0.149-0.342,0.097-0.874,0.682-0.882c0.396,0.292-0.229,0.456,0.601,0.397
		c-0.19,0.299-0.4,0.676-0.756,0.227c-0.038,0.156-0.188,0.301-0.228,0.455c0.425,0.335,1.078,0.089,1.378,0.088
		c-0.115-0.02-0.253-0.047-0.323-0.117l1.185-0.64c-0.065-0.163-0.095-0.326-0.035-0.481c0.146,0.104,0.438-0.361,0.607-0.428
		c0,0.012-0.111-0.244-0.223-0.43c-0.11-0.135-0.221-0.27-0.221-0.27c0.188,0.238,0.592,0.224,0.984,0.264
		c-0.043-0.17-0.266-0.248-0.319-0.363c0.144,0.068,0.29,0.139,0.47,0.047l-0.675-0.564c-0.068,0.035-0.094,0.101-0.111,0.156
		c-0.006-0.143-0.264-0.449,0.063-0.658c0.155,0.016,0.302,0.085,0.459,0.101c-0.442,0.177-0.063,0.271,0.24,0.356
		c-0.073-0.395,0.102-0.1,0.387-0.293c-0.019-0.279-0.556-0.387-0.895-0.31c0.149-0.316,0.254-0.417-0.157-0.733l0.55,0.055
		l-0.176-0.293l0.671,0.23c0.368-0.57-0.941-0.093-0.64-0.725l0.482-0.008c-0.188-0.24-1.002-0.313-0.427-0.508
		c-0.294-0.23-0.676,0.41-0.781-0.141c0.248-0.1,0.428-0.313,0.523-0.471c-0.222-0.174-0.57,0.141-0.502,0.252
		c-0.237-0.83,1.643-0.535,0.999-1.271c-0.344,0.258-0.936-0.202-0.913,0.4c-0.289-0.285,0.691-0.574,0.163-0.869l0.617,0.189
		c0.011-0.109-0.215-0.228-0.29-0.285l0.475,0.019c-0.837-0.36,0.388-0.694-0.706-0.901c0.86,0.143-0.054-0.277,0.279-0.428
		c0.607,0.298-0.006,0.875,0.787,0.906c0.238-0.145-0.151-0.268,0.08-0.407c-0.111-0.089-0.141-0.138,0.041-0.024
		c-0.018,0.01-0.027,0.016-0.041,0.024c0.118,0.095,0.33,0.231,0.49,0.267c0.443-0.475-0.485-0.73-0.696-1.014l0.189,0.5
		c-0.792-0.031-0.138-0.225-0.761-0.357c0.423-0.256-0.196-0.445,0.063-0.654c-0.004,0.055,0.074,0.058,0.069,0.112
		c-0.025-0.548,1.263-0.716,1.283-0.933c0.101-0.215-0.336-0.615-0.67-0.465c-0.222-0.172,0.245,0.725-0.784,0.424
		c1.182-0.326-0.451-0.638,0.352-1.328c0.424,0.293,0.665-0.184,0.986,0.078c-0.1-0.322-0.276-0.333-0.613-0.474l0.369-0.103
		c-0.836-0.414-0.736-0.09-1.188-0.727c0.292,0.211,0.534-0.266,0.798-0.104c0.023-0.178-0.092-0.352-0.315-0.479l0.054,0.023
		c-0.199-0.648,0.461-0.538,0.041-1.125l-0.224,0.061c-0.611-0.768-0.233-1.752-0.521-2.553l-0.18,0.285
		c0.113-0.087-0.36-0.537-0.015-0.791c-0.01-0.025-0.007-0.043,0.052-0.039c-0.022,0.012-0.032,0.026-0.052,0.039
		c0.022,0.051,0.124,0.135,0.095,0.183c0.25-0.011,0.62-0.112,0.681-0.306l-0.383-0.07l0.296-0.08
		c0.003-0.295-0.547,0.092-0.545-0.202c1.094-0.185,0.131-1.269,1.092-1.532c-0.794-0.191-0.107,0.557-0.828,0.346
		c0.117-0.09,0.266-0.133,0.326-0.324l-0.473,0.072c0.26-0.894,0.66-1.238,0.551-2.029l0.102,0.031
		c0.181-0.284,0.094-0.436-0.318-0.557c0.222-0.061,0.337,0.141,0.531,0.029c-1.221-0.482,0.879-1.004,0.026-1.297
		c0.433,0.014,0.853-0.113,1.254-0.233l-0.008-0.634l9.005,0.977c0.029-0.002,0.054,0.002,0.113-0.031
		c0.009,0.014-0.002,0.029-0.004,0.044l0.26,0.028l-0.003,0.113c0.009-0.002,0.023-0.012,0.031-0.012
		c-0.014,0.018-0.02,0.031-0.031,0.048l-0.01,0.435c0.1-0.016,0.232-0.072,0.372-0.156c-0.1,0.15-0.259,0.175-0.373,0.249
		l-0.001,0.026c0.062,0.029,0.225,0.113,0.225,0.118c-0.084,0.058-0.158,0.103-0.23,0.142L40.016,60.6
		c0.142,0.016,0.271,0.114,0.396,0.193c-0.404,0.574-0.17,1.467-0.438,1.823l-0.033,1.592c0.279,0.089,0.57,0.154,0.864,0.159
		c-0.242-0.225-0.728-0.675-0.115-0.729c0.243,0.225,0.386,0.607,0.781,0.636c-0.713,0.213-0.201-0.42-0.797-0.134
		c0.014,0.155,0.243,0.226,0.361,0.3c-0.291-0.109-0.495,0.129-0.661,0.172c-0.017,0.499-0.332,0.781-0.404,1.316
		c0.067-0.018,0.084-0.023-0.002,0.01l0.002-0.01c-0.015,0.004-0.046,0.009-0.064,0.014l-0.008,0.336
		c0.4,0.188,0.957,0.344,1.251,0.284c0.023,0.308-0.313,0.317-0.123,0.583c0.643-0.404-0.107,0.08,0.573,0.139
		c0.078,0.27-0.331,0.086-0.49,0.206c0.072,0.046,0.297,0.157,0.479,0.169c0.092-0.028,0.182-0.07,0.253-0.148
		c-0.034,0.121-0.135,0.154-0.253,0.148c-0.456,0.134-1.144-0.233-1.715-0.204l-0.008,0.408l0.257,0.003l0.006,0.076l-0.264-0.021
		l-0.009,0.398c0.88,0.018,1.914-0.02,2.376-0.125c0.397,0.029-0.431,0.244-0.476,0.361c-0.648,0.326,0.491,0.527,0.232,0.805
		l-0.354-0.223c-0.165,0.044,0.037,0.465,0.267,0.535c-0.225,0.006-1.148-0.239-1.419-0.115c-0.129,0.504,1.099,1.012,1.77,0.994
		l-0.681-0.793c0.561-0.016,0.551,0.564,1.224,0.547l-0.214,0.712c-0.017-0.091-0.17-0.37-0.481-0.269
		c0.023,0.309-0.101,0.158-0.365,0.357c-0.404-0.211-1.174-0.526-1.919-0.804l-0.013,0.611c0.714,0.219,1.479,0.392,1.785,0.466
		c-0.147,0.275-1.342,0.153-1.573,0.082c-0.07,0.544,1.682,0.573,1.5,1.119l0.265-0.201c0.108,0.133-0.142,0.598,0.079,0.553
		c-0.319,0.102-1.072,0.186-1.271,0.061l1.113,0.51c-0.117-0.074-1.077-0.047-1.248-0.082c-0.041,0.195,1.102,0.356,1.261,0.236
		c-0.701,0.367-0.32,0.279-1.141,0.572c0.064,0.114,1.02,0.011,1.125-0.069c0.253,0.261,0.128,0.407,0.021,0.526
		c0.005,0.004,0.017,0.008,0.021,0.014l-0.036,0.002c-0.117,0.131-0.186,0.229,0.351,0.414l-1.604-0.304l1.254-0.11l0.016-0.016
		c-0.281-0.299-1.205-0.26-1.989-0.24l-0.006,0.285l1.959,0.666c-0.171-0.035-1.085-0.125-1.195-0.123
		c0.85,0.094,0.939,1.135,0.811,1.64l-0.006-0.077C41,76.729,40.755,77.16,41.05,77.344c-0.171-0.033-0.118-0.073-0.125-0.15
		c-0.647,0.326,1.28,0.467,0.52,0.797c0.088-0.311-0.254-0.379-0.591-0.371c0.302,0.264-0.045,0.852,0.959,0.748
		c-0.213,0.16-0.089,0.311-0.596,0.286c0,0,0.584,0.611,0.582,0.72c-0.102-0.081-0.396-0.146-0.47,0.113
		c0.036-0.119,0.005-0.268-0.052-0.364c-0.057-0.086-0.139-0.169-0.204-0.247c-0.132-0.156-0.199-0.29,0.131-0.377
		c-0.619-0.021-0.953,0.105-1.473-0.076c0.14,0.361,0.474,0.58,0.857,0.893s0.821,0.662,1.171,1.08c0,0.006-0.04,0.076-0.096,0.17
		c0.331,0.109,0.556,0.303,0.323,0.456l0.78-0.326c0.226,0.029,0.168,0.265-0.057,0.235l1.187-0.094l-0.01,0.04
		c0.172-0.211,0.559-0.536,0.748-0.673c0.298,0.198-0.153,0.142-0.078,0.313l0.66-0.321c0.263,0.354-0.285,0.689-0.738,0.634
		c0.597,1.363,0.549-0.335,1.861,0.473l-0.621,0.165c0.39,0.775,0.877,0.503,1.571,0.991c-0.163-0.253-1.388-1.228-0.671-1.557
		c0.199,0.104,0.463,0.156,0.851-0.111c-0.003,0.482,0.374,0.368,0.844,0.347l-0.04,0.64c0.51-0.179,0.474-0.505,0.775-0.789
		c0.071,0.009,0.135,0.023,0.191,0.045c0.064,0.021,0.167,0.049,0.236,0.08c0.151,0.064,0.273,0.146,0.379,0.24
		c0.21,0.186,0.349,0.416,0.501,0.627c0.846,0.061,0.503-0.142,0.226-0.371c-0.281-0.23-0.482-0.486,0.357-0.537
		c1.279,0.261,2.135,0.01,3.163-0.36c0.994,0.232,0.188,0.394,0.633,0.582c0.071-0.107,0.134-0.215,0.289-0.213l-0.253-0.554
		c0.023-0.16,0.166,0.043,0.237,0.148c-0.14-0.787-0.591-0.665-0.691-1.662c-0.323-0.393-0.052-0.582,0.226-0.995
		c0.275-0.393,0.56-1.062,0.208-1.723c0.199-0.23,0.376,0.233,0.625,0.218c-0.197-0.885-0.265-1.26-0.37-1.423
		c-0.104-0.21-0.23-0.398-0.551-0.854l0.474-0.703c-0.519,0.504-1.034-0.227-1.455-0.865c-0.038,0.027-0.068,0.049-0.105,0.075
		l0.016-0.209c0.031,0.046,0.058,0.087,0.09,0.134l0.14-0.099c-0.079-0.057-0.147-0.105-0.22-0.157l0.034-0.463
		c0.192,0.014,0.401,0.138,0.605,0.303c-0.138,0.104-0.279,0.211-0.42,0.317c0.37,0.267,0.782,0.521,1.16,0.499
		c-0.069-0.067-0.124-0.193-0.149-0.328c0.101,0.07,0.191,0.117,0.258,0.093c0.069-0.027-0.064-0.139-0.215-0.308l0.727-0.166
		l-0.278-0.074l0.539-1.226c-0.648-0.954-1.644-1.816-1.83-3.269c0.495,0.395,0.846,0.141,1.463,0.205
		c-0.684,0.342,0.195,1.129,0.007,1.859c0.098-0.381,0.386-0.274,0.481-0.168l-0.497-1.366c0.504,0.067,0.4-0.252,0.635-0.582
		c-1.019,0.187-0.592-1.034-0.857-1.595c0.338-0.009,0.671,0.146,0.541,0.796c0.806-0.668-1.104-1.022-0.411-1.686
		c-0.004,0.161-0.063,0.243,0.104,0.319c-0.27-0.396,0.035-1.294,0.311-1.057l-0.005,0.16c0.198-1.055,0.249-3.236-0.587-3.459
		c0.11-0.002,1.012,0.217,1.179,0.293l-1.87-1.455l0.045-0.597c0.787-0.018,1.717-0.07,1.957,0.563
		c0.123-0.246,0.268-0.55,0.051-1.103c-0.117,0.165-1.086,0.352-1.135,0.11c0.859-0.587,0.468-0.417,1.219-1.164
		c-0.176,0.247-1.297-0.126-1.229-0.532c0.166,0.077,1.13,0.05,1.238,0.209l-1.046-1.103c0.184,0.27,0.947,0.116,1.281-0.088
		c-0.228,0.089,0.086-0.879-0.004-1.159l-0.293,0.412c0.256-1.137-1.492-1.253-1.348-2.39c0.222,0.155,1.4,0.447,1.585-0.122
		c-0.297-0.163-1.038-0.553-1.723-1.034l0.095-1.267c0.711,0.561,1.434,1.308,1.811,1.731c0.292-0.411,0.396-0.091,0.415-0.738
		c0.324-0.204,0.44,0.387,0.444,0.578c0,0,0.078-0.372,0.155-0.743c0.039-0.186,0.078-0.372,0.106-0.511
		c0.014-0.057,0.027-0.135,0.04-0.221c0.011-0.073,0.017-0.114,0.017-0.114c-0.679,0.052-0.535-1.884-1.115-1.632
		c0.004-0.07,0.434,2.059,0.517,2.233c-0.334-0.022-0.789-0.212-1.125-0.723c-0.341-0.521-0.581-1.054-0.475-1.685
		c0.301-0.441,1.211-0.147,1.44-0.206c-0.22-0.166-0.346-1.309-0.164-1.54c0.001-0.012,0.324,0.482,0.323,0.494
		c0.167-0.526-0.036-0.796-0.192-1.056c-0.154-0.273-0.261-0.524,0.121-1.333c0.022-0.123,0.124-0.345,0.244-0.598
		c-0.078-0.185-0.172-0.41-0.357-0.371c-0.015-0.107-0.375-0.27-0.682-0.439c-0.446-0.242-0.768-0.495-0.074-0.616
		c0.918-0.209,1.229,0.62,1.95,0.828c0.104-0.175,0.165-0.443,0.414-0.592c0.257-0.149,0.696-0.179,1.792,0.125
		c-0.15,0.13-0.641,0.018-0.914,0.065l1.594,0.416c-0.033,0.642-1.412,0.397,0.488,0.977c-1.013-0.696-0.126-0.716,0.764-0.736
		c0.889-0.02,1.781-0.04,0.339-0.742l1.232,0.306c-0.203-0.016-0.05,0.066-0.254,0.049C65.197,44.346,64.886,44.095,64.408,43.785z
		 M62.407,40.135c0.403,0.198,1.516,0.701,1.01,0.657C61.932,40.293,62.394,40.328,62.407,40.135z M40.041,59.711l0.041-0.211
		l0.106-0.126L40.041,59.711z M54.499,71.406c0.149,0.143,0.056,0.338-0.144,0.551C54.328,71.789,54.36,71.604,54.499,71.406z
		 M32.4,56.73c0.146-0.041,0.088-0.143,0.059-0.193l0.59,0.131L32.4,56.73z M40.498,62.637c0.166-0.043,0.277-0.045,0.383-0.125
		l0.237,0.147L40.498,62.637z M41.008,63.396c0.147-0.275,0.284,0.031,0.454,0.066C41.493,63.847,41.18,63.431,41.008,63.396z
		 M41.705,71.766c-0.039-0.035-0.087-0.074-0.152-0.113C41.618,71.691,41.666,71.73,41.705,71.766
		c0.206,0.09,0.222-0.259,0.461-0.17c-0.312,0.318,0.566,0.063,0.314,0.416C41.809,72.098,41.955,71.986,41.705,71.766z
		 M45.948,81.012c0.206-0.551,0.357-0.283,0.654-0.121C46.426,80.99,46.072,81.298,45.948,81.012z M41.43,24.854L41.43,24.854
		C41.43,24.854,41.429,24.854,41.43,24.854L41.43,24.854z M46.663,38.522c0.02-0.096,0.054-0.183,0.1-0.259
		C46.717,38.339,46.683,38.426,46.663,38.522z M49.525,18.556c-0.015-0.015-0.026-0.015-0.028-0.011
		C49.499,18.542,49.511,18.541,49.525,18.556z M49.594,18.541c0.032-0.021,0.077-0.042,0.13-0.065
		C49.671,18.499,49.626,18.521,49.594,18.541z M40.953,23.206c0.032,0.14,0.081,0.277,0.149,0.41l-0.379,0.725l0.776-0.507
		c0.172,0.252,0.138,0.373,0.064,0.486l-1.397,0.506l-0.417-0.34C40.104,23.963,40.497,23.361,40.953,23.206z M40.907,43.633
		c0.06-0.166-0.45-0.432-0.13-0.635c0.346,0.584,0.516-0.227,0.976-0.404l-0.005,0.482c0.095,0.026,0.158,0.027,0.229,0.034
		c0.02,0.039,0.032,0.065,0.032,0.065C41.48,43.458,41.128,43.552,40.907,43.633z"/>
	<path fill="#EC1C24" d="M66.71,43.62c0.051,0.004,0.086,0.003,0.105,0c-0.004-0.002-0.009-0.005-0.013-0.007l0.006,0.004
		C66.771,43.616,66.74,43.618,66.71,43.62z"/>
	<path fill="#EC1C24" d="M30.209,14.169c0.152,0.214,0.214,0.378,0.24,0.517C30.506,14.58,30.468,14.42,30.209,14.169z"/>
	<polygon fill="#EC1C24" points="19.552,23.992 19.098,24.29 19.278,24.244 	"/>
	<path fill="#EC1C24" d="M22.819,19.534l-0.453-0.425l0.001,0.361C22.547,19.423,22.638,19.49,22.819,19.534z"/>
	<path fill="#EC1C24" d="M23.365,18.127c-0.091-0.157,0.182-0.949-0.271-0.381C23.185,17.903,22.911,18.426,23.365,18.127z"/>
	<path fill="#EC1C24" d="M36.981,19.751c0.478,0.062,0.553,0.309,0.831-0.33c-0.371-0.617-0.521,0.385-0.804-0.238
		C36.733,19.27,37.239,19.692,36.981,19.751z"/>
	<path fill="#EC1C24" d="M36.981,19.751c-0.076-0.011-0.16-0.017-0.26-0.012C36.854,19.765,36.928,19.762,36.981,19.751z"/>
	<polygon fill="#EC1C24" points="6.289,37.899 5.856,37.68 6.132,38.027 	"/>
	<path fill="#EC1C24" d="M5.44,38.641L5.348,37.99l-0.271,0.583C5.176,38.546,5.367,38.493,5.44,38.641z"/>
	<path fill="#EC1C24" d="M63.241,39.597c0.007,0.006,0.234-0.279,0.227-0.285l-0.35-0.084C62.889,39.26,63.007,39.372,63.241,39.597
		z"/>
	<polygon fill="#EC1C24" points="65.069,43.754 66.67,44.354 66.885,44.371 	"/>
	<path fill="#EC1C24" d="M59.936,44.91c-0.099-0.007-0.188-0.005-0.276,0C59.757,44.919,59.851,44.921,59.936,44.91z"/>
	<path fill="#EC1C24" d="M58.781,44.973c0.334,0.024,0.585-0.043,0.878-0.062C58.897,44.845,57.873,44.309,58.781,44.973z"/>
	<path fill="#EC1C24" d="M41.987,81.021l-0.258,0.109C41.851,81.097,41.93,81.061,41.987,81.021z"/>
	<path fill="#EC1C24" d="M43.84,81.07l0.048-0.194C43.801,80.982,43.765,81.061,43.84,81.07z"/>
	<path fill="#EC1C24" d="M54.93,73.531c0.106-0.103,0.211-0.253,0.316-0.469L54.93,73.531z"/>
	<path fill="#EC1C24" d="M10.94,59.387c0.019-0.027,0.026-0.061,0.048-0.086C10.93,59.296,10.929,59.332,10.94,59.387z"/>
	<path fill="#EC1C24" d="M50.15,46.546l0.021,0.002C50.103,46.461,50.114,46.478,50.15,46.546z"/>
	<path fill="#EC1C24" d="M13.809,79.612c-0.01-0.014-0.027-0.022-0.035-0.042C13.298,79.745,13.466,79.719,13.809,79.612z"/>
	<path fill="#EC1C24" d="M56.339,60.051c-0.004-0.012-0.015-0.019-0.02-0.029l-0.018,0.034L56.339,60.051z"/>
	<path fill="#EC1C24" d="M56.597,60.935c-0.512-0.406-0.43-0.61-0.295-0.879l-1.269,0.191L56.597,60.935z"/>
	<path fill="#EC1C24" d="M39.597,80.786c0.035,0.003,0.063,0.005,0.1,0.007c-0.034-0.035-0.064-0.066-0.098-0.102L39.597,80.786z"/>
	<path fill="#EC1C24" d="M39.604,80.409l-0.004,0.225c0.075,0.054,0.146,0.104,0.228,0.163c0.134,0,0.269-0.006,0.396-0.023
		C40.011,80.605,39.797,80.477,39.604,80.409z"/>
	<path fill="#EC1C24" d="M40.632,80.401c-0.125,0.091-0.146,0.19-0.108,0.302C40.708,80.633,40.789,80.524,40.632,80.401z"/>
	<path fill="#EC1C24" d="M39.696,80.793c0.064,0.068,0.132,0.144,0.2,0.221c0.001-0.012,0.005-0.02,0.006-0.031l0.396,0.29
		c-0.067-0.009-0.105,0.012-0.146,0.03c0.052,0.057,0.104,0.112,0.156,0.167c0.119,0.028,0.206-0.028,0.284-0.12
		c-0.255-0.166-0.518-0.37-0.764-0.553C39.784,80.795,39.738,80.795,39.696,80.793z"/>
	<path fill="#EC1C24" d="M27.903,81.498l0.383-0.14c-0.008-0.042-0.014-0.086-0.027-0.127C28.183,81.34,28.082,81.436,27.903,81.498
		z"/>
	<path fill="#EC1C24" d="M27.72,80.83c0.095-0.02,0.18-0.065,0.268-0.115c-0.027-0.045-0.055-0.09-0.08-0.135
		C27.884,80.668,27.806,80.75,27.72,80.83z"/>
	<path fill="#EC1C24" d="M55.041,73.012c-0.085,0.043-0.176,0.051-0.267,0.055C54.85,73.142,54.943,73.15,55.041,73.012z"/>
	<path fill="#EC1C24" d="M54.521,44.773c0.213,0.076,0.293,0.167,0.322,0.259C54.935,44.917,54.89,44.815,54.521,44.773z"/>
	<polygon fill="#EC1C24" points="36.528,46.053 36.697,46.163 37.107,46.212 	"/>
	<path fill="#EC1C24" d="M43.275,45.258l-0.307,0.231c0.169,0.109,0.177,0.221,0.269,0.389L43.275,45.258z"/>
	<path fill="#EC1C24" d="M44.826,45.4c0.068-0.17,0.938-0.467,0.131-0.452C44.888,45.117,44.247,45.241,44.826,45.4z"/>
	<path fill="#EC1C24" d="M57.188,53.564c-0.228-0.194-0.29,0.536-0.483,0.34c0.219,0.473,0.059,0.699,0.742,0.541
		C57.745,53.713,56.833,54.221,57.188,53.564z"/>
	<path fill="#EC1C24" d="M56.704,53.904c-0.034-0.076-0.077-0.156-0.137-0.243C56.62,53.797,56.665,53.863,56.704,53.904z"/>
	<path fill="#EC1C24" d="M47.558,81.846l0.374,0.369l0.039-0.155C47.898,81.89,47.785,81.875,47.558,81.846z"/>
	<polygon fill="#EC1C24" points="41.369,81.648 41.481,81.663 41.343,81.262 41.307,81.254 	"/>
	<polygon fill="#EC1C24" points="41.31,81.167 41.305,81.151 41.298,81.16 	"/>
	
		<line fill="none" stroke="#EC1C24" stroke-width="0" stroke-linecap="round" stroke-linejoin="round" x1="45.249" y1="42.849" x2="45.341" y2="42.808"/>
	
		<line fill="none" stroke="#EC1C24" stroke-width="0" stroke-linecap="round" stroke-linejoin="round" x1="45.249" y1="42.849" x2="45.109" y2="42.91"/>
	<path fill="none" stroke="#EC1C24" stroke-width="0" stroke-linecap="round" stroke-linejoin="round" d="M46.663,38.522
		c0.02-0.096,0.054-0.183,0.1-0.259"/>
	<path fill="#EC1C24" d="M40.547,20.812c0.02-0.013,0.029-0.028,0.052-0.04C40.54,20.768,40.537,20.786,40.547,20.812z"/>
	<path fill="none" stroke="#EC1C24" stroke-width="0" stroke-linecap="round" stroke-linejoin="round" d="M49.497,18.545
		c0.002-0.003,0.014-0.004,0.028,0.011"/>
	<path fill="#EC1C24" d="M52.211,23.578l-0.002,0.01C52.295,23.556,52.278,23.561,52.211,23.578z"/>
	<path fill="none" stroke="#EC1C24" stroke-width="0" stroke-linecap="round" stroke-linejoin="round" d="M49.724,18.476
		c-0.053,0.023-0.098,0.045-0.13,0.065"/>
	<path fill="#EC1C24" d="M53.979,32.35c-0.004-0.006-0.016-0.009-0.021-0.014l-0.016,0.017L53.979,32.35z"/>
	<path fill="#EC1C24" d="M54.294,32.767c-0.536-0.186-0.468-0.284-0.351-0.414l-1.254,0.11L54.294,32.767z"/>
	<path fill="#EC1C24" d="M54.082,25.16c-0.071,0.078-0.161,0.121-0.253,0.148C53.947,25.315,54.048,25.281,54.082,25.16z"/>
	<polygon fill="#EC1C24" points="52.43,17.025 52.323,17.151 52.282,17.361 	"/>
	<path fill="#EC1C24" d="M53.122,20.162c-0.105,0.08-0.217,0.083-0.383,0.126l0.62,0.022L53.122,20.162z"/>
	<path fill="#EC1C24" d="M53.249,21.048c0.172,0.034,0.485,0.45,0.454,0.065C53.533,21.079,53.396,20.772,53.249,21.048z"/>
	<path fill="#EC1C24" d="M53.946,29.416c0.25,0.222,0.104,0.333,0.775,0.247c0.252-0.354-0.626-0.098-0.314-0.416
		C54.168,29.158,54.152,29.507,53.946,29.416z"/>
	<path fill="none" stroke="#EC1C24" stroke-width="0" stroke-linecap="round" stroke-linejoin="round" d="M53.794,29.303
		c0.065,0.04,0.113,0.078,0.152,0.113"/>
	<path fill="#EC1C24" d="M44.642,14.381l0.648-0.062l-0.59-0.131C44.729,14.239,44.787,14.34,44.642,14.381z"/>
	<polygon fill="#EC1C24" points="44.773,42.844 44.647,43.413 44.739,43.43 	"/>
	
		<line fill="none" stroke="#FFFFFF" stroke-width="0" stroke-linecap="round" stroke-linejoin="round" x1="33.1" y1="85.157" x2="32.868" y2="85.26"/>
	<path fill="#FFFFFF" d="M34.522,85.247l0.04-0.192C34.5,85.158,34.463,85.236,34.522,85.247z"/>
	<path fill="#FFFFFF" d="M41.188,81.976c0.099-0.022,0.193-0.083,0.284-0.198L41.188,81.976z"/>
	<path fill="#FFFFFF" d="M28.166,81.805l-0.442-0.077C27.73,82.139,27.95,81.863,28.166,81.805z"/>
	<path fill="none" stroke="#FFFFFF" stroke-width="0" stroke-linecap="round" stroke-linejoin="round" d="M34.422,80.871
		c0.02-0.096,0.054-0.183,0.1-0.26"/>
	<path fill="#FFFFFF" d="M28.306,63.16c0.02-0.013,0.029-0.027,0.052-0.039C28.299,63.117,28.296,63.135,28.306,63.16z"/>
	<path fill="none" stroke="#FFFFFF" stroke-width="0" stroke-linecap="round" stroke-linejoin="round" d="M37.256,60.895
		c0.002-0.004,0.015-0.004,0.028,0.011"/>
	<path fill="#FFFFFF" d="M39.97,65.928l-0.002,0.01C40.054,65.904,40.037,65.91,39.97,65.928z"/>
	<path fill="none" stroke="#FFFFFF" stroke-width="0" stroke-linecap="round" stroke-linejoin="round" d="M37.482,60.824
		c-0.053,0.023-0.098,0.045-0.13,0.066"/>
	<path fill="#FFFFFF" d="M29.577,72.515c0.014-0.009,0.023-0.015,0.041-0.024C29.437,72.377,29.466,72.426,29.577,72.515z"/>
	<path fill="#FFFFFF" d="M41.738,74.699c-0.004-0.006-0.016-0.01-0.021-0.014l-0.016,0.016L41.738,74.699z"/>
	<path fill="#FFFFFF" d="M42.053,75.115c-0.536-0.186-0.468-0.283-0.351-0.414l-1.254,0.11L42.053,75.115z"/>
	<path fill="#FFFFFF" d="M41.267,81.653c-0.082-0.005-0.171-0.038-0.261-0.075C41.085,81.662,41.178,81.711,41.267,81.653z"/>
	<path fill="#FFFFFF" d="M28.248,81.816c0.002-0.011,0.003-0.016,0.005-0.025c-0.028,0-0.058,0.006-0.087,0.014L28.248,81.816z"/>
	<path fill="#FFFFFF" d="M41.841,67.51c-0.071,0.078-0.161,0.12-0.253,0.148C41.706,67.664,41.807,67.631,41.841,67.51z"/>
	<polygon fill="#FFFFFF" points="40.041,59.711 40.188,59.374 40.082,59.5 	"/>
	<path fill="#FFFFFF" d="M40.881,62.512c-0.105,0.08-0.217,0.082-0.383,0.125l0.62,0.022L40.881,62.512z"/>
	<path fill="#FFFFFF" d="M41.008,63.396c0.172,0.034,0.485,0.45,0.454,0.066C41.292,63.428,41.155,63.121,41.008,63.396z"/>
	<path fill="#FFFFFF" d="M42.48,72.012c0.252-0.354-0.626-0.098-0.314-0.416c-0.239-0.089-0.255,0.26-0.461,0.17
		C41.955,71.986,41.809,72.098,42.48,72.012z"/>
	<path fill="none" stroke="#FFFFFF" stroke-width="0" stroke-linecap="round" stroke-linejoin="round" d="M41.553,71.652
		c0.065,0.039,0.113,0.078,0.152,0.113"/>
	<path fill="#FFFFFF" d="M32.4,56.73l0.648-0.063l-0.59-0.131C32.488,56.588,32.546,56.689,32.4,56.73z"/>
	<path fill="#FFFFFF" d="M36.932,86.085l0.403,0.382l-0.001-0.156C37.231,86.137,37.132,86.12,36.932,86.085z"/>
	<polygon fill="#FFFFFF" points="32.498,85.779 32.532,85.193 32.406,85.762 	"/>
	<path fill="#FFFFFF" d="M27.291,85.952c-0.011,0.116,0.017,0.206,0.044,0.294c0.142-0.021,0.283-0.041,0.378-0.025
		c-0.157,0.023-0.234-0.019-0.274-0.075C27.573,85.771,27.811,85.434,27.291,85.952z"/>
</g>
</svg>
