<?xml version="1.0" encoding="utf-8"?>
<!-- Generator: Adobe Illustrator 16.0.3, SVG Export Plug-In . SVG Version: 6.00 Build 0)  -->
<!DOCTYPE svg PUBLIC "-//W3C//DTD SVG 1.1//EN" "http://www.w3.org/Graphics/SVG/1.1/DTD/svg11.dtd">
<svg version="1.1" id="Layer_8" xmlns="http://www.w3.org/2000/svg" xmlns:xlink="http://www.w3.org/1999/xlink" x="0px" y="0px"
	 width="72px" height="100px" viewBox="0 0 72 100" enable-background="new 0 0 72 100" xml:space="preserve">
<g>
	<path fill="#EC1C24" d="M31.802,69.076c-0.082-0.085-0.148-0.133-0.173-0.094L31.802,69.076z"/>
	<path fill="#EC1C24" d="M28.869,77.012c0.081-0.005,0.162-0.01,0.162-0.01c-0.104-0.01-0.211-0.006-0.318,0.012
		C28.713,77.014,28.791,77.013,28.869,77.012z"/>
	<path fill="#EC1C24" d="M34.715,58.461l-0.141-1.063C34.42,57.933,34.609,58.063,34.715,58.461z"/>
	<path fill="#EC1C24" d="M48.191,74.86c-0.012,0.023-0.012,0.044-0.026,0.068C48.221,74.908,48.214,74.886,48.191,74.86z"/>
	<path fill="#EC1C24" d="M33.745,93.993l-0.011-0.007C33.733,94.081,33.734,94.063,33.745,93.993z"/>
	<path fill="#EC1C24" d="M41.427,64.152c-0.001,0.024-0.003,0.043-0.005,0.075C41.628,64.226,41.568,64.179,41.427,64.152z"/>
	<path fill="#EC1C24" d="M25.997,85.34c0.005,0.008,0.017,0.011,0.022,0.018l0.013-0.026L25.997,85.34z"/>
	<path fill="#EC1C24" d="M26.451,84.91c-0.104-0.022-0.208-0.044-0.306-0.064c0-0.02-0.003-0.04-0.004-0.06
		c-0.033,0-0.078,0.003-0.097,0c0.044,0.017,0.085,0.034,0.097,0.059c-0.278-0.059-0.5-0.105-0.5-0.105
		c0.544,0.248,0.49,0.385,0.392,0.593l1.233-0.277C27.266,85.055,26.858,84.982,26.451,84.91z"/>
	<path fill="#EC1C24" d="M26.525,84.747l-0.029-0.229c-0.129-0.056-0.259-0.099-0.387-0.158c0.019,0.142,0.025,0.284,0.031,0.425
		C26.238,84.786,26.37,84.778,26.525,84.747z"/>
	<path fill="#EC1C24" d="M39.605,58.012c-0.026-0.06-0.052-0.109-0.075-0.125C39.562,57.925,39.577,57.972,39.605,58.012z"/>
	<path fill="#EC1C24" d="M29.122,77.247c-0.058-0.066-0.14-0.112-0.236-0.113C28.963,77.161,29.042,77.203,29.122,77.247z"/>
	<path fill="#EC1C24" d="M34.742,58.652c0.006-0.003,0.008-0.015,0.012-0.02l-0.039-0.171L34.742,58.652z"/>
	<path fill="#EC1C24" d="M30.938,94.444c-0.049-0.13-0.044-0.24-0.02-0.338C30.84,94.194,30.817,94.305,30.938,94.444z"/>
	<polygon fill="#EC1C24" points="41.337,94.653 41.714,94.682 41.582,94.613 	"/>
	<path fill="#EC1C24" d="M37.638,96.187l0.21-0.227c-0.105-0.108-0.106-0.224-0.156-0.392L37.638,96.187z"/>
	<path fill="#EC1C24" d="M36.625,95.978c-0.063,0.164-0.702,0.372-0.151,0.435C36.548,96.259,36.988,96.169,36.625,95.978z"/>
	<path fill="#EC1C24" d="M27.149,89.508c-0.363-0.189-0.295-0.411-0.857-0.014c0.002,0.611,0.629-0.129,0.552,0.448
		C27.112,89.955,26.907,89.474,27.149,89.508z"/>
	<polygon fill="#EC1C24" points="31.568,67.419 31.533,67.477 32.126,67.564 	"/>
	<path fill="#EC1C24" d="M32.775,61.664c-0.102,0.236-0.104,0.656-0.205,0.885C32.679,61.887,33.328,62.315,32.775,61.664z"/>
	<path fill="#EC1C24" d="M13.921,51.246c0.2,0.408,1.14,0.174,0.922,0.188C14.907,51.197,14.072,51.282,13.921,51.246z"/>
	<polygon fill="#EC1C24" points="17.039,55.08 16.691,55.064 17.595,55.472 	"/>
	<path fill="#EC1C24" d="M17.779,58.483c1.234-0.706-0.535-1.153-0.2-1.89l0.294-0.167l-1.188-0.039
		C17.055,57.117,17.979,57.871,17.779,58.483z"/>
	<path fill="#EC1C24" d="M15.528,60.885c-0.041,0.067-0.069,0.093-0.102,0.135c0.038,0.079,0.071,0.192,0.111,0.396
		C16.014,61.083,16.138,61.671,15.528,60.885z"/>
	<path fill="#EC1C24" d="M15.427,61.021C15.247,60.635,15.085,61.451,15.427,61.021L15.427,61.021z"/>
	<path fill="#EC1C24" d="M15.425,63.059c0.498,0.425,0.732,0.156,1.08-0.372l-0.686-0.299C15.569,62.63,15.721,63.13,15.425,63.059z
		"/>
	<path fill="#EC1C24" d="M17.352,62.533c-0.103,0.104-0.112,0.195,0.306,0.156L17.352,62.533z"/>
	<path fill="#EC1C24" d="M17.093,62.357c0.401-0.141-0.013-0.066-0.392-0.172l0.65,0.348C17.524,62.359,17.939,62.153,17.093,62.357
		z"/>
	<path fill="#EC1C24" d="M17.609,61.247c-0.59-0.823-1.471-0.336-0.853,0.541C16.913,61.382,16.939,60.967,17.609,61.247z"/>
	<path fill="#EC1C24" d="M19.245,58.207l0.29-0.443c0,0-0.139-0.035-0.276-0.07c-0.132-0.039-0.265-0.077-0.265-0.077
		C19.241,57.694,18.831,58.358,19.245,58.207z"/>
	<path fill="#EC1C24" d="M18.226,65.186c-0.126-0.04-0.252-0.08-0.252-0.08c-0.075,0.298,0.007,0.733-0.346,1.012
		c0.271-0.144,0.557-0.611,0.856-0.859C18.484,65.258,18.349,65.227,18.226,65.186z"/>
	<path fill="#EC1C24" d="M18.484,65.258l0.782,0.191C19.006,64.986,18.744,65.045,18.484,65.258z"/>
	<path fill="#EC1C24" d="M18.468,61.959c0.363,0.119,0.728,0.237,0.728,0.237c-0.005,0.002-0.089-0.148-0.089-0.148
		s-0.342-0.083-0.683-0.166c-0.346-0.094-0.691-0.187-0.691-0.187S18.101,61.827,18.468,61.959z"/>
	<path fill="#EC1C24" d="M19.08,68.084l-0.784,0.174c0,0,0.313-0.046,0.626-0.093c0.309-0.052,0.617-0.104,0.617-0.104L19.08,68.084
		z"/>
	<path fill="#EC1C24" d="M20.254,69.205c-0.604,0.202-0.45,0.965-0.904,1.001c0.396,0.263,1.043,0.159,1.595,0.063
		C20.514,70.204,20.247,69.901,20.254,69.205z"/>
	<path fill="#EC1C24" d="M21.801,70.165c-0.223-0.014-0.525,0.048-0.856,0.104C21.178,70.301,21.446,70.285,21.801,70.165z"/>
	<path fill="#EC1C24" d="M19.879,66.553c-0.04-0.061-0.085-0.128-0.131-0.196c-0.117,0.149-0.443,0.517-0.391,0.923L19.879,66.553z"
		/>
	<path fill="#EC1C24" d="M19.896,66.529l-0.017,0.024c0.133,0.22,0.244,0.358,0.285,0.423C20.13,66.919,20.031,66.798,19.896,66.529
		z"/>
	<path fill="#EC1C24" d="M19.716,66.306c0.012,0.019,0.021,0.032,0.032,0.051C19.801,66.286,19.814,66.258,19.716,66.306z"/>
	<path fill="#EC1C24" d="M19.161,63.695c0.584,0.048,1.345,0.322,1.636-0.611C20.186,63.199,20.027,63.745,19.161,63.695z"/>
	<path fill="#EC1C24" d="M20.196,64.828c-0.178,0.139-0.379,0.421-0.673,0.421l0.871,0.179L20.196,64.828z"/>
	<polygon fill="#EC1C24" points="20.785,65.499 20.395,65.428 20.471,65.652 	"/>
	<path fill="#EC1C24" d="M21.522,68.821c0.462-0.078,0.7,0.1,0.988,0.283c-0.153-0.368-0.359-0.682-0.616-0.919
		C21.67,68.343,21.213,68.574,21.522,68.821z"/>
	<path fill="#EC1C24" d="M20.756,67.672c0.027,0.001,0.051,0.013,0.077,0.013C20.861,67.608,20.858,67.57,20.756,67.672z"/>
	<path fill="#EC1C24" d="M25.145,70.975l-0.093,0.116l0.051,0.041C25.115,71.083,25.131,71.026,25.145,70.975z"/>
	<path fill="#EC1C24" d="M21.963,68.032c-0.076-0.297-0.32-0.277-0.618-0.207c0.201,0.087,0.373,0.215,0.55,0.36
		C21.996,68.114,22.056,68.06,21.963,68.032z"/>
	<path fill="#EC1C24" d="M22.788,70.492c-0.003-0.226-0.035-0.442-0.069-0.667C22.643,70.129,22.605,70.634,22.788,70.492z"/>
	<path fill="#EC1C24" d="M20.721,67.913c-0.02-0.001-0.039,0-0.056-0.005C20.591,68.1,20.649,68.03,20.721,67.913z"/>
	<path fill="#EC1C24" d="M20.721,67.913c0.186,0.022,0.414-0.04,0.624-0.088c-0.159-0.075-0.329-0.126-0.512-0.141
		C20.811,67.75,20.766,67.838,20.721,67.913z"/>
	<path fill="#EC1C24" d="M26.282,70.353c0.044-0.48-0.504-1.515,0.296-1.854c0.825,0.036,0.336,0.541,0.419,1.087
		c0.28-0.989,1.507-0.754,2.08-2.105l-0.735,0.143c0.11-0.197,0.465-0.4,0.442-0.658c-0.428,0.667-1.325,0.969-1.263,0.006
		c-0.709,0.194-2.025,2.51-2.377,4.003C25.35,70.695,25.536,70.437,26.282,70.353z"/>
	<path fill="#EC1C24" d="M25.052,71.091c-0.016,0.023-0.949-0.821-0.949-0.821l0.14-0.042l-0.261-0.074
		c0.147,0.285,0.12,0.661,0.081,1.406C24.637,71.508,24.884,71.287,25.052,71.091z"/>
	<path fill="#EC1C24" d="M23.085,69.452c0.704-0.511,1.391-0.47,1.701-1.399c-0.562-0.376-0.821,0.24-1.386,0.243
		c0.992,0.615-0.568,0.134-0.258,1.075c-0.271-0.046-0.459-0.157-0.632-0.267c0.091,0.225,0.162,0.465,0.208,0.721
		c0.006-0.022,0.01-0.039,0.015-0.06l-0.007-0.002l0.01-0.01c0.031-0.117,0.061-0.178,0.064-0.091
		c0.01-0.005,0.023,0.001,0.03,0.004c0.084-0.086,0.168-0.15,0.251-0.211c0.146,0.37-0.103,0.208-0.251,0.211l-0.095,0.087
		l-0.003,0.012c-0.013,0.027,1.248,0.388,1.248,0.388C23.855,69.899,23.579,69.743,23.085,69.452z"/>
	<path fill="#EC1C24" d="M22.641,62.534c-0.046,0.067-0.098,0.1-0.147,0.137C22.618,62.663,22.691,62.641,22.641,62.534z"/>
	<path fill="#EC1C24" d="M21.191,64.669c-0.042,0.044-0.08,0.085-0.124,0.131C21.095,64.798,21.14,64.744,21.191,64.669z"/>
	<path fill="#EC1C24" d="M22.451,63.156c-0.141,0.011-0.46,0.158-0.529-0.088c0.092-0.313,0.344-0.229,0.571-0.397
		c-0.273,0.021-0.798-0.078-0.892,0.536l0.141-0.006c-0.006,0.395-0.345,1.167-0.551,1.468
		C21.668,64.167,22.028,63.759,22.451,63.156z"/>
	<path fill="#EC1C24" d="M23.597,66.47c0,0,0.052-0.209,0.103-0.419c0.061-0.212,0.12-0.423,0.12-0.423l-0.308,0.328
		c-0.205-0.49-0.537-0.035-0.834,0.151C22.678,66.106,23.583,66.491,23.597,66.47z"/>
	<path fill="#EC1C24" d="M24.345,72.236c0,0,0.304-0.188,0.608-0.375c0.298-0.192,0.596-0.385,0.596-0.385l-0.585,0.075
		L24.345,72.236z"/>
	<polygon fill="#EC1C24" points="26.248,72.588 26.146,72.159 25.705,72.817 	"/>
	<path fill="#EC1C24" d="M31.136,48.072l-0.356,0.073C30.933,48.144,31.044,48.115,31.136,48.072z"/>
	<path fill="#EC1C24" d="M32.945,48.946l0.191-0.343C32.973,48.77,32.877,48.902,32.945,48.946z"/>
	<path fill="#EC1C24" d="M56.845,65.592l-0.838-0.272c-0.019,0.362-0.228,0.541-0.491,0.632
		C56.376,65.926,57.664,65.949,56.845,65.592z"/>
	<path fill="#EC1C24" d="M47.849,49.026c-0.005,0.09-0.011,0.185-0.017,0.279c0.197-0.235,0.38-0.454,0.55-0.657
		C48.219,48.764,48.038,48.892,47.849,49.026z"/>
	<path fill="#EC1C24" d="M46.078,51.574c0.007,0.214,0.05,0.434,0.138,0.663L46.078,51.574z"/>
	<path fill="#EC1C24" d="M20.549,39.304c0.216,0.665,0.549,0.214,0.968,0.119c0,0-0.242-0.027-0.484-0.054
		C20.791,39.337,20.549,39.304,20.549,39.304z"/>
	<path fill="#EC1C24" d="M50.334,17.695c0.011,0.051,0.037,0.087,0.041,0.142C50.443,17.741,50.404,17.713,50.334,17.695z"/>
	<path fill="#EC1C24" d="M49.593,30.43c-0.064-0.058-0.073-0.174-0.12-0.266C49.433,30.224,49.458,30.301,49.593,30.43z"/>
	<path fill="#EC1C24" d="M30.771,70.979c0.082-0.072,0.161-0.174,0.236-0.359C30.917,70.809,30.84,70.921,30.771,70.979z"/>
	<path fill="#EC1C24" d="M29.322,21.407c0.031,0.011,0.058,0.013,0.095,0.03C29.405,20.989,29.349,21.106,29.322,21.407z"/>
	<path fill="#EC1C24" d="M49.049,57.486c0.008,0.009,0.029,0.017,0.038,0.025l0.034-0.02L49.049,57.486z"/>
	<path fill="#EC1C24" d="M51.634,57.614c0,0-0.781-0.208-1.563-0.417c-0.786-0.185-1.573-0.37-1.573-0.37
		c1.043,0.356,0.877,0.507,0.623,0.664c0,0,0.628,0.036,1.255,0.071C51.005,57.588,51.634,57.614,51.634,57.614z"/>
	<path fill="#EC1C24" d="M55.083,65.003l0.924,0.316c0.004-0.033,0.017-0.054,0.018-0.09c0.493-0.168-0.27-0.463-1.002-0.63
		c-0.056-0.23-0.151-0.457-0.303-0.666c1.553,0.408-0.135-1.022,1.545-0.738c-0.331-0.263-0.31-0.729-0.407-1.211
		c-0.132-0.488-0.388-0.985-1.185-1.293c0.216,0.05,0.343-0.013,0.311,0.157c0.279-0.287,0.563-0.6,0.177-1.013l1.235,0.112
		c0,0-0.364-0.287-0.737-0.556c-0.375-0.262-0.75-0.524-0.75-0.524c0.805-0.317,1.269-0.486,2.123,0.154
		c-1.265-1.372-0.359-1.049-1.747-2.112l0.788,0.103c-0.008-0.154-0.265-0.443-0.442-0.685c-0.177-0.241-0.271-0.442,0.059-0.576
		c0.386-0.237,0.596-0.667,0.646-1.187c0.031-0.262,0.035-0.551,0.022-0.857c-0.02-0.305-0.109-0.618-0.18-0.946
		c-0.319-1.316-1.008-2.643-1.339-4.002c-0.761,0.904-0.731,0.533-0.713,0.056c-0.003-0.456-0.063-1.046-0.737-0.438
		c0.292-0.479,0.227-0.96,0.881-1.012c-0.68-0.281-0.966-0.708-1.284-1.071c-0.304-0.349-0.739-0.571-1.535-0.153
		c0.135-0.563,0.677-0.542,0.719-0.896c-0.172,0.036-0.654,0.176-0.583-0.162c0.062-0.341,0.343-0.339,0.708-0.406
		c-0.669-0.338-1.1-0.037-1.559,0.447c-0.443,0.492-0.842,1.214-1.222,1.916c-0.134-0.908-0.439-0.926-1.167-0.09
		c0.05-0.544-0.021-1.164,0.628-1.098c-0.29-0.227-1.712-1.491-2.161-0.286c0.007-0.346-0.404-0.236-0.532-0.125
		c-0.67-0.302-0.7-0.437-1.409-0.526l0.125,0.257c-0.72,1.394-0.658,0.153-1.248,0.174l0.061-0.147
		c-0.911-1.426-0.684,0.353-1.524-1.211l-0.201,0.939c-0.688,1.95-0.718-1.474-1.618-0.915l0.093,0.598
		c-0.585,0.568-0.231-2.999-0.507-3.35c-0.025-0.195,0.209-0.238,0.355-0.332c-0.574-1.447-0.492,1.167-1.274,1.225
		c0.081-0.686,0.683-1.591,0.271-1.856c-0.013-0.191-0.234-0.079-0.529,0.105c-0.618-0.146,0.295-0.346-0.457-0.574l0.475,0.017
		c-0.074-0.04-0.299-0.123-0.287-0.196l0.615,0.133c-0.524-0.204,0.459-0.394,0.174-0.59c0.015,0.411-0.572,0.092-0.918,0.266
		c-0.635-0.507,1.241-0.292,1.014-0.858c0.066,0.077-0.285,0.288-0.505,0.168c0.098-0.107,0.28-0.25,0.528-0.316
		c-0.098-0.376-0.488,0.058-0.779-0.103c0.578-0.128-0.235-0.185-0.42-0.349l0.482-0.001c0.309-0.428-1.006-0.114-0.632-0.499
		l0.669,0.163l-0.173-0.201l0.549,0.041c-0.407-0.218-0.302-0.286-0.147-0.5c-0.34,0.05-0.876-0.028-0.891-0.217
		c0.286-0.13,0.458,0.072,0.389-0.196c0.303,0.061,0.682,0.127,0.236,0.244c0.158,0.012,0.303,0.06,0.459,0.072
		c0.329-0.139,0.074-0.35,0.07-0.447c-0.018,0.038-0.044,0.083-0.113,0.105l-0.668-0.39c0.182-0.061,0.326-0.013,0.469,0.036
		c-0.052-0.079-0.273-0.134-0.314-0.25c0.392,0.03,0.797,0.023,0.98,0.188l-0.435-0.371c0.171-0.025,0.468-0.191,0.612-0.143
		c0.23-0.206-0.76-0.505-0.456-0.777c-0.076-0.015-0.149-0.043-0.205-0.101c0.089-0.256,0.569-0.483,0.032-0.788l0.703-0.172
		c-0.16-0.238-0.886,0.233-1.15-0.163c-0.225-0.281,0.6-0.104,0.795-0.203c-0.354-0.14-1.076-0.382-0.504-0.64
		c0.133,0.085,0.029,0.152,0.081,0.231l0.39-0.196c0.642,0.237,0.42,0.409,0.969,0.224c-1.358-0.028-0.139-0.763-1.496-0.791
		l0.285-0.13c-0.013,0.037,0.067,0.043,0.054,0.08c0.65-0.252-0.981-0.188-0.788-0.512c0.104-0.113,0.301-0.192,0.462-0.115
		L38.69,31.33c0.026-0.074,0.263-0.055,0.236,0.018l-0.108-0.384l0.04,0.003c-0.214-0.055-0.542-0.179-0.683-0.24
		c0.195-0.098,0.145,0.049,0.313,0.024l-0.329-0.213c0.352-0.087,0.693,0.09,0.643,0.237c1.356-0.199-0.342-0.177,0.451-0.605
		l0.172,0.201c0.771-0.129,0.491-0.286,0.972-0.513c-0.251,0.053-1.21,0.454-1.549,0.223c0.103-0.065,0.151-0.151-0.122-0.275
		c0.482-0.001,0.364-0.123,0.337-0.275l0.64,0.01c-0.185-0.165-0.51-0.151-0.799-0.249c0.063-0.183,0.559-0.221,0.977-0.265
		c0.102-0.293-0.795,0.203-0.915-0.145c0.245-0.244-0.017-0.416-0.399-0.708c0.221-0.171,0.391,0.03,0.574-0.031l-0.51-0.152
		c0.012-0.037,0.168-0.025,0.248-0.019c-0.198-0.128-0.64-0.011-0.813-0.211c-0.704-0.055,1.03-0.412,0.229-0.661
		c0.182-0.061,0.393,0.03,0.64,0.011c-0.524-0.341-0.382-0.292-1.088-0.572l0.42-0.239c-0.48,0.175-1.049-0.048-1.516-0.245
		c-0.231,0.062-0.435,0.115-0.532,0.151l-0.343-0.313c0.104-0.038,0.325-0.007,0.592,0.045c-0.054-0.021-0.105-0.04-0.153-0.058
		c0.236-0.112,0.605-0.054,0.963,0.026c-0.127,0.036-0.261,0.074-0.395,0.112c0.389,0.078,0.818,0.15,1.193,0.134
		c-0.074-0.021-0.137-0.06-0.173-0.103c0.105,0.021,0.2,0.033,0.264,0.023c0.067-0.01-0.074-0.043-0.237-0.094l0.713-0.071
		l-0.283-0.018l0.446-0.409c-0.718-0.293-1.774-0.548-2.069-1.013c0.523,0.115,0.854,0.024,1.475,0.031
		c-0.656,0.127,0.278,0.36,0.145,0.601c0.069-0.125,0.365-0.098,0.468-0.066l-0.597-0.429c0.507,0.009,0.38-0.092,0.59-0.204
		c-1.002,0.085-0.668-0.32-0.975-0.495c0.336-0.011,0.68,0.031,0.599,0.244c0.679-0.212-0.812-0.289-0.65-0.471
		c0.042-0.006,0.08-0.006,0.117-0.007c0.007,0.019,0.033,0.032,0.125,0.043c-0.024-0.01-0.025-0.026-0.043-0.038
		c0.082,0.013,0.151,0.044,0.199,0.109c0.296-0.903,0.802-0.987,1.395-0.921c-0.163-0.227-0.392-1.51,0.184-1.403
		c-0.024,2.668,1.042,1.128,1.372,3.063c-0.298-1.297,1.324-0.231,0.955-2.073c0.4,0.259-0.069,0.997,0.152,1.664
		c0.254-0.223,0.512-0.275,0.76-0.232c0.243,0.061,0.47,0.23,0.69,0.408c0.435,0.386,0.804,0.843,1.314,0.897
		c0.161-0.313,0.197-0.885,0.632-1.266c0,0-0.036,0.464-0.098,0.913c-0.056,0.446-0.161,0.908-0.161,0.908
		c0.227-0.069,1.142-1.684,0.862-0.446c0.109-0.277,0.26-0.703,0.449-0.728c0.461,1.296,1.345,1.636,2.119,2.409
		c0.728,0.722,1.254,1.916-0.127,3.25c0.592-0.411,0.701-0.269,0.785-0.067c0.121-0.169,0.849-0.191,1.306-0.321
		c0,0-0.064,0.076-0.161,0.19c-0.108,0.114-0.254,0.266-0.398,0.417c-0.291,0.295-0.584,0.557-0.584,0.557
		c1.372-0.005,0.17,0.985,1.44,1.024l-0.243-0.313c0.755,0.171,1.577-0.009,2.445-0.31c0.87-0.292,1.784-0.708,2.733-0.77
		c-0.894-0.245-0.331-0.729,0.113-1.345c0.477-0.594,0.689-1.353-0.618-1.571c0.305-0.364,0.65,0.038,1.04-0.222
		c-0.864-0.073-1.114-0.332-1.037-1.096l0.218-0.002c-0.425-0.874-0.639-1.535-0.791-2.317c-0.063-0.398-0.193-0.779-0.32-1.234
		c-0.133-0.453-0.309-0.951-0.622-1.477l-0.598,0.753c-0.228-0.443-0.082-0.723-0.072-1.063c-1.407,0.584,0.871,1.079-0.661,1.749
		c0.529-0.846-0.031-1.529-0.64-2.075c-0.578-0.6-1.188-1.065-0.763-2.115c-0.636-0.454-0.428,1.037-1.038,0.6l0.143-0.603
		l-0.558,0.561c-0.342-0.338-0.208-1.109,0.009-1.563c0.081,0.112,0.378,0.049,0.519,0.078c-0.123-0.463-0.58-0.669-1.01-0.733
		c-0.433-0.064-0.829-0.042-0.889-0.191l0.529,0.631c-1.061-0.192-2.091-0.627-3.17-0.887c-1.071-0.256-2.181-0.322-3.15,0.183
		l0.092,0.455c-1.399,0.746-1.06-0.602-2.573-0.191l0.051-0.107c-0.29,0.442-0.658,0.685-1.057,0.679
		c0.339-0.557-0.802-0.948-0.356-1.571c-0.492,0.343-0.709,0.547-0.829,0.735c-0.042,0.018-0.097,0.043-0.175,0.078
		c-0.195-0.178,0.141-0.189,0.11-0.399c-0.44,0.067-1.499-0.188-1.693-0.366c0.173,0.011,0.399-0.029,0.502-0.049
		c0.062-0.365,0.371-0.562,0.377-0.902c0.165-0.032,0.364-0.196,0.658-0.125c-0.12-0.049-0.352-0.094-0.368-0.199
		c0.59-0.203,0.092,0.234,0.8,0.079c-0.396-0.013-0.546-0.271-0.794-0.421c-0.611,0.046-0.117,0.346,0.13,0.496
		c-0.844,0.001-1.728-0.26-2.118-0.616c-0.209-0.283,0.546-0.123,0.426-0.172c0.147-0.531-1.474-0.452-0.865-0.894
		c0.538-0.175,1.07-0.008,1.458-0.047c0.204,0.23-0.341,0.354-0.319,0.51l0.254-0.192c0.179,0.073,0.314,0.228,0.158,0.312
		c0.483-0.147,0.094-0.898,0.539-1.308c-0.18-0.073-0.367-0.199-0.583-0.139l0.075,0.13c-0.434,0.119-0.6-0.244-0.803-0.08
		c-0.305-0.174-0.783-0.369-0.538-0.614l0.613-0.046c-0.179,0.005-0.365,0.16-0.179,0.229c-0.271-0.103,0.83-0.376,0.027-0.488
		l-0.425,0.171c-0.308-0.174-0.959-0.391-0.766-0.607c-0.605,0.099,0.069,0.05-0.64,0.204c0.882-0.134-0.037,0.556,0.89,0.341
		c-0.822,0.158-0.349,0.274-1.05,0.48c0.202-0.006,0.387-0.073,0.287,0.109c0.059,0.008,0.135,0.027,0.178,0.04l-0.015,0.012
		l0.024-0.01c0.029,0.008,0.036,0.009,0.008-0.004c0.088-0.043,0.195-0.078,0.308-0.093c0.464,0.091,0.45,0.381,0.69,0.479
		c-0.097,0.108-0.232-0.045-0.448,0.014l0.359,0.146c-0.449,0.015-0.746,0.287-1.009,0.033l-0.021,0.229
		c-0.252,0.135-0.353,0.321-0.163,0.436c-0.098,0.108,0.497,0.273,0.146,0.179l0.278,0.36l-0.112,0.003
		c-0.057,0.354,0.743,0.73-0.067,1.136c0.113,0.12,0.252,0.243,0.125,0.443l-0.389,0.039c0.136,0.153-0.389,0.46,0.016,0.526
		c-1.045,0.166-0.228,0.745-0.413,1.014l0.507,0.01c-0.027,0.177,0.104,0.349,0.293,0.563c-0.357,0.444-0.6,0.751-1.387-0.183
		c0.051,1.094,0.486,1.218,0.854,1.153c0.163-0.025,0.313-0.08,0.431-0.115c-0.157,0.201,0.214,0.408,0.387,0.605
		c0.006,0.104-0.006,0.208-0.028,0.311c-0.023,0.015-0.046,0.03-0.078,0.045c0.027,0.014,0.04,0.027,0.056,0.04
		c-0.017,0.057-0.035,0.111-0.058,0.164c-0.001,0.001-0.002,0.001-0.004,0.002c0-0.008-0.009-0.015-0.023-0.021
		c-0.005,0.009-0.006,0.021-0.005,0.035c-0.077,0.037-0.167,0.076-0.239,0.118c0.109-0.036,0.199-0.07,0.24-0.099
		c0,0.004,0.006,0.011,0.007,0.016c-0.051,0.104-0.11,0.199-0.179,0.276l-0.132,0.012c0.007,0.008,0.005,0.014,0.014,0.022
		c-0.062,0.033-0.037,0.049,0.016,0.058c-0.085,0.067-0.175,0.116-0.264,0.115c-0.412,0.128-1.801-2.116-2.98-1.426
		c0.12-0.053,0.054-0.193,0.175-0.248c-0.714-0.227-0.481,1.081-1.447,0.7c0.406,1.215-0.715,0.38,0.141,1.732
		c-0.02-0.021,0.753-0.946,0.753-0.946c-0.168,0.356-0.119,0.994-0.17,1.519c-0.045,0.545-0.186,0.958-0.868,0.925
		c-0.146-0.291-0.172-0.807-0.143-1.128c-0.539-0.162-0.282,0.6-0.832,0.461c-0.497-0.632-0.264-0.936,0.069-1.244
		c0.334-0.311,0.746-0.635,0.731-1.329c-0.72-0.36-0.473,1.784-1.208,0.174c0.439,1.041,0.151,1.18-0.236,1.319
		c-0.368,0.15-0.838,0.329-0.58,1.235l-0.626-0.716c-0.002,0.218,0.088,0.728-0.101,0.922c0,0-0.141-0.305-0.282-0.608
		C26.129,21.317,26,21.014,26,21.014c0.082,0.636-0.309,0.779-0.789,0.88c-0.464,0.109-1.017,0.182-1.016,0.69
		c1.012-1.315,1.127,0.417,2.08,0.348c-0.113,1.086-0.703,0.93-1.485,0.77c-0.747-0.154-1.712-0.337-2.071,0.834
		c0.041-0.359,1.066-0.74,1.203-0.09c-0.373,0.266-0.963,0.591-1.538,0.613c-0.511,1.467,0.973,0.218,1.21,1.048
		c-1.248-0.034,0.148,0.858,0.279,1.522l-0.903-0.337c-1.136,1.348,1.761,1.03,0.657,2.118c0,0-0.285-0.226-0.569-0.451
		c-0.281-0.237-0.562-0.474-0.562-0.474l0.132,0.82l-1.024-0.418c0.556,1.027,0.375,1.197-0.08,1.978
		c0.714-0.091,1.689,0.351,1.676,0.988c-0.598,0.401-0.9-0.337-0.816,0.632c-0.592-0.24-1.332-0.569-0.42-0.92
		c-0.314-0.074-0.583-0.286-0.881-0.371c-0.718,0.475-0.24,1.355-0.252,1.723c0.043-0.145,0.103-0.316,0.245-0.398
		c0,0,0.317,0.376,0.634,0.753c0.33,0.365,0.69,0.704,0.69,0.704c-0.351,0.235-0.65,0.074-0.944-0.103
		c0.119,0.298,0.571,0.481,0.679,0.897c-0.787-0.053-1.596,0.045-1.998-0.607c0,0,0.237,0.36,0.475,0.721
		c0.12,0.173,0.24,0.346,0.33,0.476c0.099,0.13,0.164,0.216,0.164,0.216c-0.326,0.13-0.804,0.916-1.121,0.759
		c-0.146,0.486,0.296,0.969,0.8,1.45c0.517,0.492,1.006,0.955,0.911,1.615c0.167,0.004,0.351,0.067,0.553,0.255
		c0.143,0.533,0.074,1.148,0.241,1.703c0.174,0.542,0.506,1.08,1.323,1.303c0,0-0.171,0.356-0.341,0.712
		c-0.159,0.369-0.318,0.738-0.318,0.738c0.469,0.337,0.638-0.164,0.903-0.585c0.263-0.427,0.617-0.771,1.314-0.322
		c1.075,0.51-0.604,1.113-0.605,1.683c0.469-0.031,1.124-0.119,1.646-0.054c0.532,0.052,0.925,0.283,0.964,1.053
		c-0.422-0.002-0.497-0.334-0.803-0.455c0,0,0.025,0.275,0.051,0.55c0.032,0.279,0.065,0.559,0.065,0.559
		c-1.562,0.381-1.893-0.494-1.979,0.875c0.943-0.995,1.601-0.485,2.269-0.109c0.667,0.388,1.342,0.754,2.09-0.396l0.107,0.727
		c-0.104-0.091-0.205,0.035-0.307-0.057c0.153,1.585,1.578-1.317,2.333-0.509c0.238,0.353,0.311,0.83-0.066,1.001
		c0,0,0.265-0.055,0.53-0.111c0.259-0.069,0.517-0.138,0.517-0.138c0.196,0.144-0.048,0.552-0.248,0.407
		c0,0,0.312,0.077,0.623,0.155c0.309,0.073,0.617,0.146,0.617,0.146l-0.038,0.071c0.325-0.331,0.929-0.802,1.201-0.997
		c0.141,0.472-0.244,0.214-0.295,0.558l0.846-0.378c0.01,0.754-0.739,1.203-1.144,0.936c-0.3,2.268,0.405,0.534,1.065,0.897
		c-0.115,0.139-0.27,0.277-0.482,0.415c0.342-0.142,0.375-0.047,0.388,0.061c0.058-0.05,0.253-0.028,0.447-0.016
		c0.018,0.039,0.037,0.072,0.054,0.118l-0.055,0.036l-0.644,0.105c-0.028,0.354-0.012,0.601,0.027,0.8l-0.236,0.014l0.244,0.039
		c0.148,0.648,0.604,0.657,0.886,1.511c-0.007-0.271-0.161-0.998-0.186-1.693c0.042,0.011,0.086,0.021,0.152,0.026l-0.114-0.139
		c0.536,0.132,1.158-0.057,1.819-0.165l-0.316,0.943c0.46-0.167,0.656-0.598,0.935-1.004c0.06-0.002,0.119-0.007,0.18-0.005
		c-0.063-0.016-0.106-0.032-0.139-0.049c0.062-0.087,0.121-0.175,0.196-0.255c0.483,0.279,0.306,1.257,0.19,2.094
		c0.76,0.433-0.114-1.688,0.917-1.639c0.544,0.669,1.144,0.297,2.145-0.21c0.326,0.555-0.297,0.728-0.238,1.127l0.684-0.863
		c0.091,0.053-0.029,0.344-0.09,0.491c0.447-0.281,0.389-1.219,1.02-1.396c0.553-1.301,0.472,2.288,1.554,0.968
		c0.037,0.395-0.319,0.72-0.427,1.207c1.171-0.722,0.936-0.489,2.105-1.568c0,0,0.069,0.249,0.139,0.499
		c0.058,0.251,0.115,0.503,0.115,0.503c-0.043-1.059,0.877-1.907,1.771-2.547c0.026-0.491,0.043-0.924,0.021-1.143
		c0,0,0.28-0.069,0.56-0.139c0.282-0.065,0.571-0.112,0.571-0.112c0.016,0.24-0.263,0.594-0.619,1.015
		c0.1-0.069,0.196-0.139,0.279-0.206c0.092,0.569-0.396,1.154-0.884,1.712c0.018-0.277,0.037-0.565,0.055-0.849
		c-0.515,0.627-1.021,1.35-1.275,2.055c0.104-0.117,0.245-0.196,0.374-0.22c-0.132,0.174-0.236,0.334-0.267,0.46
		c-0.031,0.135,0.161-0.099,0.403-0.341l-0.449,1.367l0.274-0.496c0,0,0.107,0.299,0.215,0.598c0.104,0.293,0.15,0.598,0.133,0.581
		c0.935-1.123,2.861-2.474,4.258-1.923c-1.026,0.451-1.382,1.071-2.382,1.852c0.453-0.515,0.189-0.541-0.139-0.47
		c-0.334,0.062-0.746,0.264-0.814,0.056c0.077,0.223-0.353,0.646-0.514,0.785c0,0,0.305-0.167,0.63-0.275
		c0.324-0.116,0.688-0.199,0.688-0.199c-0.779,0.674-0.48,0.608-0.727,0.982c0.771-0.672,1.118-0.793,1.391-0.73
		c0.256,0.071,0.378,0.305,0.753,0.298c-0.611,0.332-1.275,0.605-1.298,0.26c-0.57,0.555-0.002,0.302,0.629,0.135
		c0.61-0.18,1.29-0.282,0.77,0.174c-0.056-0.083,0.021-0.176-0.318-0.069c0.696-0.038,0.343,0.712-0.261,0.733l-0.033-0.079
		c-0.052,0.654,0.063,1.495,1.751,1.962c-0.22-0.012-2.04-0.272-2.381-0.338c0,0,0.353,0.116,0.882,0.29
		c0.531,0.183,1.237,0.44,1.907,0.724c1.359,0.561,2.696,1.281,2.696,1.281c-0.708-0.203-1.943-0.291-3.086-0.468
		c-1.142-0.172-2.194-0.414-2.556-0.777c-0.233,0.149-0.504,0.305-0.05,0.776c0.219-0.067,2.12,0.083,2.223,0.299
		c-1.678,0.171-0.94,0.188-2.421,0.393c0.351-0.095,2.511,0.691,2.347,1.021c-0.315-0.147-2.171-0.633-2.373-0.801
		c0,0,0.496,0.325,0.981,0.688c0.478,0.354,0.921,0.736,0.921,0.736c-0.305-0.327-1.785-0.665-2.433-0.762
		c0.435,0.095-0.25,0.514-0.104,0.768l0.579-0.058c-0.28,0.305,0.31,0.788,0.935,1.371c0.619,0.568,1.243,1.216,0.936,1.627
		c-0.323-0.369-2.29-1.701-2.753-1.548c0.431,0.386,1.466,1.319,2.352,2.409c0.907,1.092,1.599,2.318,1.538,3.032l-0.628-0.286
		c0,0-0.005,0.284-0.01,0.568c-0.004,0.292-0.034,0.572-0.034,0.572c-0.399-0.805-1.047-2.121-1.744-3.29
		c-0.677-1.168-1.48-2.252-1.926-2.855c-0.578-0.082-0.672-0.397-0.84-0.042c-0.552-0.282-0.627-0.746-0.603-0.843
		c-0.007-0.005-0.178,0.115-0.386,0.191c-0.204,0.073-0.408,0.146-0.408,0.146c1.035,0.872,0.552,1.408,1.313,2.191
		c-0.001,0-0.021-0.428-0.12-0.867c-0.084-0.432-0.191-0.826-0.191-0.826c0.525,0.419,1.16,1.135,1.529,1.857
		c0.186,0.359,0.307,0.718,0.331,1.021c0.012,0.29-0.083,0.512-0.286,0.613c-0.511-0.264-1.477-1.889-1.806-2.196
		c0.254,0.389,0.077,1.114-0.178,0.901c0,0-0.057-0.189-0.113-0.38c-0.062-0.187-0.123-0.373-0.123-0.373
		c-0.29-0.069-0.121,0.37-0.062,0.741c0.07,0.373,0.044,0.697-0.505,0.301c-0.187,0.044-1.299-1.223-0.912-0.533
		c0.979,1.217,3.632,5.163,3.969,6.294c-0.16-0.031-1.923-0.602-2.456-1.195c-0.433-0.469-0.6-1.177-0.786-1.852
		c-0.188-0.691-0.395-1.348-0.731-1.75c0.159,0.336,0.213,0.82,0.204,0.975c-0.312-0.209-0.414-1.06-0.712-0.755
		c0.449,1.188-0.625,0.378,0.106,0.994c-0.268,0.053-0.388,0.151-0.42,0.266c-0.11-0.035-0.231-0.053-0.374,0.007
		c0.099,0.167,0.173,0.407,0.232,0.675c-0.265,0.057-0.625-0.135-0.652-0.351c-0.055-0.126,0.18-0.384,0.383-0.686
		c0.191-0.326,0.295-0.803,0.039-1.251c0.045,0.093,0.11,0.051,0.156,0.145c0.012-0.525-0.631-0.415-0.549-1.145
		c-0.56,0.271-0.281-0.576-0.835,0.055l0.543,0.601c-0.196-0.141-0.507-0.118-0.76-0.159c-0.256-0.046-0.448-0.146-0.492-0.684
		c0.116-0.119,0.348-0.136,0.498-0.106c0.024-0.434-0.305-0.226-0.287-0.682c0.231-0.396,0.396-0.195,0.576,0.085
		c0.182,0.282,0.369,0.627,0.722,0.639c0.074-0.554-0.911-0.453-0.227-0.986c-0.448,0.316-0.54,0.083-0.648-0.243
		c-0.103-0.317-0.23-0.737-0.6-0.542l0.25-0.52c-0.094-0.014-0.312,0.058-0.405-0.128c0,0,0.114-0.11,0.229-0.22
		c0.119-0.102,0.238-0.203,0.238-0.203c-0.274,0.051-0.359-0.325-0.452-0.771c-0.089-0.438-0.185-0.946-0.386-1.001
		c0.641,1.052-0.06,1.03,0.058,1.917c-0.849-0.232-0.057-2.285-0.89-3.484c0.133,0.311,0.273,1.078,0.078,1.113
		c-0.135-0.416-0.314-1.069-0.384-1.667c-0.598-0.799,0.021,0.982-0.261,1.082c-0.116-1.316-0.295-0.034-0.511-0.036l0.021-0.898
		c-0.609-1.609-0.163,1.67-0.668,0.108c0,0,0.045-0.249,0.088-0.498c0.051-0.239,0.101-0.478,0.101-0.478l-0.274-0.123l0.021-1.021
		c-0.299,0.29-0.386-0.058-0.738-0.933c0.136,0.891,0.107,1.826-0.114,1.556c-0.203-0.701-0.023-1.03-0.313-1.008
		c-0.019-0.734-0.022-1.569,0.23-0.365c-0.018-0.331,0.023-0.543,0.011-0.861c-0.203-0.792-0.347-0.824-0.486-0.877
		c-0.04,0.231-0.073,0.448-0.103,0.554c0.04-0.074,0.09-0.15,0.131-0.045l-0.117,2.774c-0.116-0.252-0.129-0.721-0.136-1.204
		c-0.053,0.362-0.019,1.034-0.101,1.454c-0.125-0.964-0.291-1.834-0.195-2.814l-0.188,2.177c-0.091-0.295-0.383-0.354-0.399-0.809
		c-0.156,0.125-0.203,0.958-0.246,1.737c-0.045,0.789-0.085,1.519-0.297,1.703c0.028,0.17,0.041,0.378,0.02,0.646
		c-0.276,0.611-0.81,0.775-0.755,2.362c0.005-0.017-0.646-0.27-0.651-0.254c-0.072,0.481,0.148,0.515,0.349,0.654
		c0.202,0.133,0.385,0.373,0.3,1.054c-0.091,0.986-0.534-0.286-0.777-0.174c0.06,0.382,0.169,0.899,0.185,1.328
		c0.014,0.434-0.064,0.777-0.432,0.96c-0.026-0.327,0.127-0.453,0.163-0.718c0,0-0.129,0.075-0.258,0.149
		c-0.131,0.083-0.264,0.167-0.264,0.167c-0.277-1.154,0.116-1.637-0.539-1.406c0.524,0.563,0.349,1.185,0.168,1.804
		c-0.182,0.619-0.367,1.236,0.248,1.525c0,0-0.399,0.265-0.385,0.224c0.033-0.051-0.034-0.103,0.019-0.208
		c-0.805,0.312,0.796,0.686,0.401,1.196c-0.169,0.156-0.404,0.22-0.506,0.033l0.154,0.545c-0.072,0.115-0.281,0.001-0.21-0.113
		l-0.146,0.688l-0.035-0.019c0.163,0.168,0.39,0.498,0.48,0.651c-0.246,0.095-0.102-0.135-0.276-0.153l0.167,0.479
		c-0.386,0.018-0.587-0.404-0.444-0.633c-0.947-0.107-0.514,0.127-0.458,0.422c-0.011,0.005-0.021,0.015-0.032,0.019
		c0.012,0.007,0.023,0.015,0.035,0.021c0.007,0.128-0.066,0.265-0.362,0.39l-0.027-0.399c-0.479-0.04-0.616,0.075-0.776,0.215
		c-0.151-0.204-0.363-0.231-0.728,0.271c0,0,0.035,0.249,0.069,0.498c0.043,0.247,0.084,0.493,0.084,0.493
		c-0.76,0.379-1.997,1.166-2.504,0.484c-0.261,1.228,0.209-0.048,0.056,1.464c0.186-0.895,0.617-0.653,1.021-0.443
		c0.405,0.216,0.796,0.342,0.822-0.639c-0.144,1.717,0.592,0.996,0.802,2.585c0.071-0.24,0.061-0.481,0.164-0.55
		c0.175,0.122,0.417,0.201,0.425,0.484c0.601,0.382-1.243,0.251-0.705,0.988c-0.211,0.023-0.333-0.214-0.572-0.289
		c0.216,0.775,0.124,0.634,0.541,1.396c0,0-0.573,0.218-0.551,0.172c0.521,0.006,0.941,0.514,1.13,1.08
		c0.045,0.007,0.077,0.008,0.118,0.013c-0.028,0.035-0.053,0.073-0.081,0.108c-0.013-0.041-0.024-0.079-0.038-0.122
		c-0.048-0.007-0.099-0.016-0.149-0.023c0.051,0.072,0.096,0.136,0.144,0.203c-0.055,0.071-0.108,0.145-0.162,0.218
		c-0.159-0.115-0.297-0.301-0.424-0.494c0.144,0.024,0.294,0.049,0.442,0.074c-0.229-0.326-0.554-0.639-0.89-0.812
		c0.057,0.06,0.079,0.138,0.068,0.207c-0.07-0.081-0.14-0.146-0.201-0.171c-0.066-0.025,0.026,0.086,0.115,0.237l-0.642-0.335
		l0.216,0.183c0.013-0.021-0.198,0.081-0.422,0.205c-0.224,0.116-0.437,0.25-0.437,0.25c0.252,0.945,0.923,1.886,0.865,2.783
		c-0.4-0.405-0.768-0.379-1.336-0.627c0.701,0.022,0.053-0.806,0.428-1.213c-0.188,0.203-0.42,0.016-0.479-0.097
		c0,0,0.024,0.278,0.049,0.556c0.038,0.272,0.076,0.544,0.076,0.544c-0.456-0.226-0.43,0.025-0.714,0.177
		c0.499,0.103,0.586,0.325,0.578,0.571c-0.009,0.259-0.037,0.36,0.027,0.54c-0.311-0.152-0.574-0.32-0.435-0.502
		c-0.391-0.011-0.133,0.125,0.082,0.372c0.192,0.301,0.416,0.573,0.021,0.709c0.036-0.12,0.111-0.16-0.025-0.274
		c0.144,0.377-0.264,0.969-0.502,0.745l0.028-0.129c-0.163,0.361-0.281,0.943-0.202,1.491c0.047,0.366,0.193,0.701,0.389,0.922
		c-0.065-0.009-0.13-0.019-0.195-0.029l0.02,0.158c0.492,0.212,0.988,0.396,1.488,0.556c0.005,0.126,0.01,0.253,0.02,0.378
		c-0.771,0.132-1.667,0.303-1.984-0.094c-0.094,0.186-0.189,0.43,0.116,0.772c0.087-0.142,1.011-0.426,1.096-0.282
		c-0.752,0.541-0.389,0.344-0.977,1.019c0.121-0.208,1.279-0.23,1.302,0.021c-0.176-0.003-1.097,0.275-1.236,0.198
		c0,0,0.313,0.107,0.625,0.214c0.316,0.089,0.633,0.179,0.633,0.179c-0.239-0.104-0.929,0.221-1.188,0.47
		c0.184-0.133,0.166,0.605,0.34,0.751l0.148-0.373c0.112,0.827,1.738,0.161,1.966,0.802c-0.244,0.031-1.395,0.405-1.341,0.832
		c0.309-0.031,1.025-0.187,1.741-0.311c0.123,0.224,0.259,0.44,0.397,0.653c-0.777,0.121-1.593,0.174-2.076,0.083
		c-0.08,0.39-0.301,0.262-0.044,0.651c-0.18,0.303-0.534,0.015-0.618-0.104c0,0,0.087,0.273,0.197,0.539
		c0.11,0.267,0.221,0.533,0.221,0.533c0.532-0.406,1.039,0.311,1.466-0.07c0,0-0.313-0.116-0.617-0.26
		c-0.312-0.137-0.614-0.301-0.614-0.301c0.559-0.375,1.938-0.48,2.247,0.091c-0.102,0.308-1.02,0.635-1.193,0.778
		c0.239-0.055,0.789,0.267,0.708,0.426l-0.479-0.011c0.09,0.502,1.104-0.082,0.986,0.71c0.084,0.148-0.221,0.994,0.078,0.722
		c0.171-0.444,0.793-1.205,1.383-1.833c0.121,0.113,0.24,0.227,0.367,0.333l-0.126,0.125l0.078,0.06l0.108-0.129
		c0.132,0.11,0.273,0.21,0.411,0.314c-0.333,0.445-1.071,0.691-1.204,1.144c0.124-0.135,0.383-0.217,0.476-0.235
		c0.043,0.228-0.409,0.405-0.047,0.571c0.452-0.505,0.6,0.495,0.484-0.358c0.408,0.045,0.234,0.338,0.619,0.543
		c0.081-0.278,0.494-0.635,0.878-0.871c0.137,0.076,0.279,0.144,0.42,0.213c-0.001,0.006-0.003,0.017-0.004,0.022
		c0.57,0.356,0.799,0.786,1.42,1.005c0.004,0.174,0.26,0.459,0.042,0.7c0.132-0.088,0.279-0.278,0.484-0.245
		c0.25,0.674-0.482-0.033-0.365,0.73c0.136-0.373,0.685-0.382,1.022-0.576c0.029-0.612-0.622-0.25-0.987-0.106
		c0.085-0.279,0.235-0.536,0.405-0.778c0.632,0.164,1.287,0.27,1.96,0.313c0.423,0.308,1.598,0.045,2.323,0.304
		c0.079-0.143,0.195-0.296,0.206-0.442c0.642-0.116,1.262-0.291,1.857-0.519l0,0l0,0c0.202-0.077,0.397-0.166,0.593-0.255
		c0.022,0.07,0.052,0.142,0.096,0.216l0.205-0.352c0.011-0.005,0.021-0.009,0.032-0.015c0.041,0.106,0.016,0.296,0.146,0.339
		c-0.05-0.128-0.064-0.269-0.043-0.391c0.159-0.082,0.312-0.174,0.466-0.263c0.017,0.006,0.032,0.006,0.05,0.015
		c0.003-0.012-0.002-0.03,0-0.043c0.133-0.078,0.265-0.156,0.394-0.24c0.022,0.005,0.038,0.016,0.068,0.011
		c0.004-0.057,0.04-0.069,0.062-0.101c2.524-1.693,4.272-4.452,4.582-7.638c0.199-0.575,0.232-1.226,0.051-1.961
		c-0.021-0.088-0.049-0.182-0.073-0.273c-0.025-0.217-0.069-0.428-0.107-0.64c0.373-0.219,0.761-0.46,1.191-0.547
		c-0.465-0.11-0.214-0.439-0.048-0.819c0.174-0.374,0.262-0.807-0.428-0.922c0.13-0.216,0.333,0.016,0.514-0.14
		c-0.447-0.03-0.605-0.186-0.596-0.629h0.112c-0.147-0.249-0.235-0.475-0.324-0.689c-0.053-0.127-0.059-0.182-0.06-0.231
		c-0.007-0.053,0.007-0.115,0.015-0.172c-0.014-0.373-0.011-0.824-0.103-1.401l-0.406,0.259c-0.035-0.251,0.083-0.356,0.147-0.508
		c-0.771,0.016,0.228,0.653-0.604,0.718c0.771-0.673-0.655-1.589,0.257-2.227c-0.146-0.349-0.457,0.322-0.603-0.025l0.229-0.211
		l-0.387,0.068c-0.043-0.25,0.243-0.516,0.468-0.628c-0.002,0.067,0.135,0.127,0.181,0.177c0.063-0.149,0.024-0.285-0.048-0.408
		c0.147-0.073,0.289-0.129,0.426-0.154l-0.424-0.924c0.65-0.31,1.151-0.839,1.632-1.698l-0.539-0.717
		c0.089-0.51,0.541-0.631,1.106-0.741c0.544-0.135,1.194-0.287,1.604-0.714c0.178,0.302-0.114,0.442-0.41,0.427
		c0.598,0.142,1.006,0.014,1.255-0.271c0.245-0.294,0.357-0.716,0.44-1.136c0.192-0.832,0.152-1.682,1.126-1.78
		c-0.086-0.445,0.133-0.565,0.452-0.632c-0.016,0.025-0.017,0.057-0.006,0.09c0.027-0.022,0.061-0.059,0.081-0.104
		c0.2-0.042,0.426-0.077,0.628-0.146c-0.255,0.01-0.471,0.029-0.596,0.083C55.023,65.811,55.11,65.425,55.083,65.003z M38.84,30.085
		c0.102,0.057,0.414,0.171,0.129,0.212C38.416,30.232,38.681,30.183,38.84,30.085z M37.678,25.623
		c0.16,0.042,0.081,0.107-0.102,0.182C37.537,25.751,37.555,25.69,37.678,25.623z M36.349,19.246
		c0.073-0.135,0.086-0.25,0.079-0.359c0.095,0.022,0.19,0.045,0.287,0.068C36.627,19.056,36.513,19.151,36.349,19.246z
		 M37.446,18.523l-0.058-0.116c0.029-0.004,0.061-0.007,0.097-0.009C37.47,18.444,37.463,18.476,37.446,18.523z M36.42,17.029
		c0.416-0.09,0.938,0.034,1.393,0.086c-0.024,0.122-0.052,0.267-0.093,0.455c-0.593,0.021-1.239,0.026-1.734,0.013
		c0.014-0.09,0.04-0.185,0.087-0.291l0.843,0.037l-0.008-0.052l-0.833,0.006c0,0,0,0,0-0.001c-0.048-0.03-0.09-0.045-0.135-0.069
		C36.111,17.133,36.285,17.062,36.42,17.029z M34.319,13.193c0.008,0.002,0.014,0.003,0.023,0.006
		C34.154,13.326,34.229,13.281,34.319,13.193z M34.974,23.715c-0.002,0.014-0.006,0.029-0.008,0.043
		c-0.061-0.082-0.128-0.169-0.221-0.281C34.821,23.569,34.897,23.646,34.974,23.715z M34.995,24.762
		c-0.015,0.002-0.027,0.005-0.042,0.007c-0.001-0.001-0.008-0.01-0.008-0.01C34.963,24.76,34.975,24.761,34.995,24.762z
		 M34.648,25.457c-0.02,0.002-0.028-0.003-0.046-0.002L34.57,25.43C34.598,25.439,34.615,25.448,34.648,25.457z M34.161,25.207
		c0.049,0.013,0.094,0.033,0.136,0.058c0.016,0.042,0.06,0.083,0.158,0.125c0.019,0.02,0.038,0.04,0.056,0.061
		c-0.175-0.008-0.301-0.052-0.429-0.028c0.06,0.025,0.239,0.098,0.075,0.129c-0.094,0.018-0.157,0-0.216-0.028
		C33.954,25.387,34.012,25.276,34.161,25.207z M35.327,50.124c0.004-0.016,0.013-0.026,0.018-0.042c0.014,0,0.03,0.001,0.044,0
		L35.327,50.124z M35.916,37.457l0.09-0.03c-0.94-0.071-0.333,0.501-0.974,0.49c0.046,0.794-0.475,1.567-0.515,2.311l0.731-0.085
		l-0.042,0.259c-0.17,0.068-0.572,0.092-0.542-0.094c-0.287,0.067-0.012,0.189,0.239,0.26c-0.124,0.027-0.255,0.054-0.392,0.084
		c-0.119-0.054-0.205-0.101-0.211-0.059l0.036,0.101c-0.339,0.089-0.691,0.23-0.989,0.547c0.676-1.539,0.024-1.406-0.594-1.332
		c-0.646,0.103-1.297,0.165-0.316-1.014c0,0-0.201-0.113-0.402-0.226c-0.193-0.118-0.363-0.249-0.363-0.249l0.237-0.203
		c-0.238-0.498-0.852-0.171-1.585,0.102c0.08-0.233,0.373-0.323,0.507-0.413c-0.024-0.488,0.048-0.739-0.2-0.822
		c-0.244-0.087-0.66-0.05-1.515-0.099L30,36.534c-0.15,0.013-0.174-0.084-0.128-0.239c0.061-0.164,0.184-0.379,0.284-0.591
		c0.17-0.414,0.398-0.863-0.264-1.178c0.113-0.005,0.308-0.011,0.458,0.03c-0.343-0.167-0.292-0.463-0.17-0.722
		c0.127-0.268,0.377-0.524,0.597-0.749c0.402-0.458,0.489-0.76-1.248-1.195c0,0-0.192-0.201-0.385-0.403
		c-0.191-0.216-0.383-0.433-0.383-0.433c-0.207,0.428-0.591,0.339-0.997,0.15c-0.407-0.185-0.837-0.483-1.167-0.315
		c-0.16-0.513,1.332-0.807,1.359-0.284l-0.196,0.031c1.796,0.595,0.951-0.981,2.183-0.531c0.148-0.377,0.298-0.76,0.591-1.055
		c0.133-0.153,0.271-0.301,0.408-0.442l0.485-0.367c0.639-0.477,1.348-0.784,1.905-1.219c0,0-0.271-0.252-0.542-0.505
		c-0.273-0.247-0.547-0.494-0.547-0.494l0.506-0.293c0.329,0.174,0.845,0.793,0.521,0.969c0.658,0.541,0.061-0.937-0.093-1.216
		c0.513,0.025,0.671,0.43,0.762,0.795c0.08,0.361,0.111,0.708,0.203,0.659c-0.01-0.007,0.177-0.247,0.177-0.247l-0.151-0.105
		c-0.08-0.367-0.219-0.707-0.231-0.968c0.163,0.099,0.461,0.148,0.813,0.175c0.048,0.073,0.089,0.124,0.126,0.123
		c0.05,0.09,0.106,0.116,0.173-0.043c0,0,0.074-0.024,0.169-0.054c0.093,0.003,0.187,0.006,0.28,0.009
		c-0.377,0.159-0.324,0.238,0.199,0.354c-0.262,0.055-0.534,0.147-0.628-0.048c-0.038,0.11-0.382,0.671,0.257,0.682
		c-0.162,0.034-0.047,0.153,0.026,0.183c-0.038,0.246-0.096,0.268-0.035,0.51l0.104-0.067c0.771,0.096,0.172,0.201,0.265,0.396
		l-0.079-0.005c-0.557,0.447,0.267,0.193-0.368,0.634l0.479-0.024c1.031,0.042-0.608,0.391-0.214,0.646l0.274-0.092
		c0.353,0.14-1.403,0.391-1.532,0.531c-0.09,0.03-0.144-0.049-0.21-0.091c-0.609,0.368,0.628,0.047,0.773,0.322
		c-0.338,0.05-0.861-0.065-0.924,0.119c-0.275,0.092,1.1,0.534,0.449,0.786c0.262-0.056,0.522-0.11,0.719,0.017
		c0.094,0.195-0.987,0.527-0.164,0.703c-0.071,0.024-0.14,0.034-0.205,0.035c0.213,0.149,0.354,0.484,0.8,0.574
		c-1.657,0.138,0.806,0.927-0.722,0.923l0.081,0.459l-0.155-0.013c-0.102,0.293,0.265,0.397,0.631,0.5
		c-0.104,0.067-0.246,0.019-0.326,0.013c-0.309,0.428-0.243,0.471,0.518,0.83l-0.495,0.038c0.288,0.097-0.777,0.619-0.199,1.039
		c-0.056-0.004-0.152-0.013-0.222-0.046c0.581,0.472-1.375,1.131,0.43,1.304l0.445,0.312c0.14-0.403,0.783,0.061,1.082-0.105
		C36.659,37.4,36.009,37.652,35.916,37.457z M38.429,40.682c-0.017-0.058,0.012-0.107-0.449-0.124l0.154,0.288
		c-0.01,0.005-0.02,0.009-0.03,0.014c-0.276-0.18-1.044-0.358-0.626-0.656c0.16,0.025,0.37,0.12,0.487,0.186
		c0.233-0.094-0.155-0.18,0.085-0.277c0.623,0.022,0.38,0.265,0.538,0.47C38.536,40.617,38.483,40.649,38.429,40.682z
		 M38.746,40.483c-0.022-0.031-0.004-0.051,0.085-0.053C38.802,40.447,38.775,40.464,38.746,40.483z M47.757,50.808
		c0.155-0.012,0.282,0.087,0.316,0.379C47.832,51.423,47.764,51.217,47.757,50.808z M26.966,84.423
		c-0.002-0.02-0.006-0.043-0.008-0.063c0.072,0.044,0.151,0.067,0.238,0.077C27.167,84.439,27.078,84.434,26.966,84.423z
		 M43.704,66.821c0.043,0.036,0.067,0.058,0.122,0.103c-0.1,0.206-0.2,0.238-0.313,0.216C43.527,67.058,43.589,66.953,43.704,66.821
		z M31.261,70.161c0.472,0.312,0.191,0.299-0.021,0.403C31.184,70.431,30.969,70.126,31.261,70.161z M31.228,70.57
		c-0.139,0.071-0.241,0.196-0.071,0.507c-0.449-0.179-0.421,0.068-0.499,0.332l-0.585-0.259c0.059,0.342,0.369,0.445,0.568,0.716
		c-0.017,0.026-0.048,0.033-0.07,0.052c-0.249,0.004-0.48-0.081-0.667-0.338l0.229-0.82c0.007-0.01,0.014-0.013,0.021-0.024
		l-0.015,0.002l0.097-0.346c-0.127,0.335,0.191,0.865,0.525,0.597c-0.265,0.189-0.37-0.319-0.536-0.69
		C30.643,70.254,31.128,70.252,31.228,70.57z M29.218,77.958c-0.03,0.111-0.114,0.198-0.295,0.239
		C28.841,78.037,28.984,77.97,29.218,77.958z"/>
	<path fill="#EC1C24" d="M46.557,51.36c-0.115,0.128-0.188,0.301-0.151,0.505C46.434,51.7,46.494,51.53,46.557,51.36z"/>
	<path fill="#EC1C24" d="M21.699,39.439c0.003-0.015-0.005-0.026-0.005-0.04c-0.063,0-0.121,0.009-0.178,0.023L21.699,39.439z"/>
	<path fill="#EC1C24" d="M43.643,65.218c0.167,0.086,0.298,0.21,0.416,0.352C43.956,65.35,43.832,65.214,43.643,65.218z"/>
	<path fill="#EC1C24" d="M28.236,73.511c-0.08,0.211-0.103,0.554-0.289,0.494l0.674,0.006
		C28.325,73.942,28.311,73.708,28.236,73.511z"/>
	<path fill="#EC1C24" d="M26.888,66.46c-0.127,0.052-0.124-0.079-0.253-0.025l-0.26,0.366C26.638,66.963,27.017,66.796,26.888,66.46
		z"/>
	<path fill="#EC1C24" d="M28.813,70.861c0.312-0.752-0.098-0.65-0.503-0.688c0.021,0.007,0.044,0.011,0.06,0.03
		C27.741,71.158,28.291,71.017,28.813,70.861z"/>
	<path fill="#EC1C24" d="M28.221,70.158c-0.12-0.019-0.236-0.054-0.318-0.14C27.644,70.397,27.984,70.167,28.221,70.158z"/>
	<polygon fill="#EC1C24" points="29.729,68.328 29.396,69.282 29.919,68.642 	"/>
	<path fill="#EC1C24" d="M30.763,69.848c0.094,0.026,0.301,0.074,0.476,0.013C31.08,69.776,30.916,69.733,30.763,69.848z"/>
	<polygon fill="#EC1C24" points="30.504,68.378 30.563,68.627 30.882,68.834 	"/>
	<polygon fill="#EC1C24" points="45.746,67.975 46.732,69.757 45.863,67.893 	"/>
	<path fill="#EC1C24" d="M47.932,61.437c-0.303-0.513,0.014-0.489-1.227-1.014c-0.619,0.121,1.045,0.704,0.334,0.754
		C47.398,61.526,47.623,61.129,47.932,61.437z"/>
	<path fill="#EC1C24" d="M47.932,61.437c0.047,0.082,0.107,0.176,0.195,0.293C48.059,61.586,47.993,61.501,47.932,61.437z"/>
	<polygon fill="#EC1C24" points="48.242,32.017 48.917,31.782 48.653,31.691 	"/>
	<path fill="#EC1C24" d="M50.192,32.24l-1.293,0.104l1.188,0.187C50.024,32.452,49.903,32.307,50.192,32.24z"/>
	<path fill="#EC1C24" d="M36.34,52.138c0.028-0.346-0.072-0.405-0.274-0.525l0.145,0.812L36.34,52.138z"/>
	<polygon fill="#EC1C24" points="30.373,47.825 29.939,48.892 30.046,48.975 	"/>
	<path fill="#EC1C24" d="M23.102,45.566c0.203,0.287,0.675,0.398,0.88,0.676C23.291,45.844,24.131,44.523,23.102,45.566z"/>
	<path fill="#EC1C24" d="M34.217,3.907c0.037-0.07-0.383-0.045-0.457-0.056C33.852,3.969,34.326,3.904,34.217,3.907z"/>
	<polygon fill="#EC1C24" points="35.168,5.062 34.997,5.042 35.416,5.212 	"/>
	<path fill="#EC1C24" d="M35.16,6.142c0.714-0.102-0.115-0.391,0.139-0.583l0.162-0.032l-0.574-0.087
		C34.979,5.674,35.359,5.978,35.16,6.142z"/>
	<path fill="#EC1C24" d="M33.703,6.584c-0.031,0.011-0.048,0.017-0.07,0.024c0.004,0.023,0.004,0.055-0.017,0.109
		C33.895,6.683,33.855,6.843,33.703,6.584z"/>
	<path fill="#EC1C24" d="M33.633,6.608C33.613,6.494,33.399,6.683,33.633,6.608L33.633,6.608z"/>
	<path fill="#EC1C24" d="M33.792,7.134l-0.248-0.15c-0.164,0.031-0.201,0.165-0.32,0.115C33.359,7.252,33.522,7.221,33.792,7.134z"
		/>
	<path fill="#EC1C24" d="M34.313,7.275l-0.104-0.078C34.139,7.211,34.115,7.232,34.313,7.275z"/>
	<path fill="#EC1C24" d="M33.986,7.033l0.222,0.165c0.115-0.022,0.347-0.024-0.08-0.076C34.34,7.136,34.137,7.104,33.986,7.033z"/>
	<path fill="#EC1C24" d="M34.096,6.94c0.154-0.083,0.252-0.193,0.5-0.042C34.497,6.611,33.995,6.653,34.096,6.94z"/>
	<path fill="#EC1C24" d="M35.898,6.197l0.209-0.112l-0.239-0.097C35.986,6.036,35.675,6.204,35.898,6.197z"/>
	<path fill="#EC1C24" d="M33.422,8.067c0.152,0.009,0.405-0.05,0.6-0.062l-0.174-0.111C33.743,7.951,33.647,8.06,33.422,8.067z"/>
	<path fill="#EC1C24" d="M34.021,8.005l0.261,0.166C34.313,8.023,34.189,7.996,34.021,8.005z"/>
	<polygon fill="#EC1C24" points="35.105,7.302 34.558,7.03 35.113,7.354 	"/>
	<polygon fill="#EC1C24" points="33.403,8.699 33.052,8.605 33.583,8.772 	"/>
	<path fill="#EC1C24" d="M33.32,9.439c-0.126-0.093-0.094-0.192,0.145-0.321c-0.291-0.069-0.492,0.095-0.672,0.022
		C32.845,9.255,33.096,9.352,33.32,9.439z"/>
	<path fill="#EC1C24" d="M33.32,9.439c0.066,0.049,0.164,0.098,0.327,0.147C33.578,9.54,33.453,9.492,33.32,9.439z"/>
	<path fill="#EC1C24" d="M34.207,8.453c-0.092,0.013-0.332,0.037-0.434,0.13l0.428-0.065C34.203,8.498,34.205,8.476,34.207,8.453z"
		/>
	<path fill="#EC1C24" d="M34.215,8.516l-0.014,0.002c-0.013,0.07-0.021,0.12-0.024,0.141C34.182,8.641,34.192,8.598,34.215,8.516z"
		/>
	<path fill="#EC1C24" d="M34.209,8.437l-0.002,0.017C34.249,8.447,34.264,8.443,34.209,8.437z"/>
	<path fill="#EC1C24" d="M34.719,7.736c0.238,0.097,0.495,0.3,0.859,0.104C35.285,7.771,35.078,7.883,34.719,7.736z"/>
	<path fill="#EC1C24" d="M34.743,8.355l0.098-0.176c-0.112,0.003-0.277,0.035-0.396-0.013L34.743,8.355z"/>
	<polygon fill="#EC1C24" points="34.879,8.441 34.743,8.355 34.707,8.421 	"/>
	<path fill="#EC1C24" d="M34.047,9.285c0.187,0.076,0.202,0.159,0.232,0.253c0.084-0.101,0.129-0.205,0.128-0.303
		C34.273,9.221,34.032,9.178,34.047,9.285z"/>
	<path fill="#EC1C24" d="M34.166,8.911l0.024,0.017C34.227,8.918,34.238,8.909,34.166,8.911z"/>
	<path fill="#EC1C24" d="M34.275,10.462c0.024-0.004,0.053-0.01,0.078-0.015l-0.074-0.003L34.275,10.462z"/>
	<path fill="#EC1C24" d="M34.486,9.218c0.083-0.075-0.021-0.121-0.153-0.164c0.043,0.057,0.071,0.117,0.074,0.181
		C34.468,9.241,34.508,9.242,34.486,9.218z"/>
	<path fill="#EC1C24" d="M33.848,9.845c0.089-0.04,0.164-0.084,0.234-0.131C33.947,9.752,33.736,9.831,33.848,9.845z"/>
	<path fill="#EC1C24" d="M34.072,8.954l-0.02-0.011C33.961,8.967,34.006,8.964,34.072,8.954z"/>
	<path fill="#EC1C24" d="M34.072,8.954c0.062,0.039,0.167,0.07,0.261,0.1c-0.034-0.046-0.079-0.088-0.143-0.125
		C34.16,8.938,34.114,8.947,34.072,8.954z"/>
	<path fill="#EC1C24" d="M37.02,10.742c-0.396-0.013-0.763-0.212-0.338-0.384c-0.297-0.169-1.6-0.058-2.328,0.089
		c0.173,0.006,0.332,0.006,0.566,0.18c0.217-0.061,0.506-0.386,0.864-0.239c0.204,0.23-0.14,0.188-0.35,0.301
		c0.493-0.096,0.718,0.293,1.444,0.243l-0.256-0.202C36.736,10.726,36.916,10.799,37.02,10.742z"/>
	<path fill="#EC1C24" d="M34.395,10.116l-0.05-0.071c-0.069,0.082-0.228,0.14-0.537,0.247c0.193,0.119,0.341,0.144,0.472,0.152
		l0.056-0.353L34.395,10.116z"/>
	<path fill="#EC1C24" d="M34.344,9.724c0.431,0.056,0.613,0.228,1.08,0.123c-0.029-0.21-0.359-0.147-0.547-0.272
		c0.107,0.338-0.24-0.097-0.484,0.147c-0.073-0.067-0.096-0.126-0.113-0.183c-0.053,0.061-0.117,0.12-0.197,0.175l0.027-0.008
		l-0.002-0.001h0.007c0.054-0.015,0.087-0.019,0.056-0.003c0.005,0.001,0.007,0.006,0.008,0.007c0.061,0.005,0.112,0.01,0.163,0.015
		c-0.089,0.099-0.112,0.016-0.163-0.015l-0.063-0.004l-0.005,0.001l0.235,0.339C34.404,9.973,34.393,9.883,34.344,9.724z"/>
	<path fill="#EC1C24" d="M36.505,8.021c-0.038,0.01-0.069,0.01-0.101,0.011C36.457,8.054,36.494,8.063,36.505,8.021z"/>
	<path fill="#EC1C24" d="M35.887,8.015l0.059,0.023C35.797,8.175,35.26,8.351,35.2,8.327c0.388-0.04,0.664-0.075,1.044-0.166
		c-0.06-0.025-0.232-0.045-0.188-0.125c0.129-0.069,0.207,0,0.348-0.003C36.291,7.983,36.096,7.863,35.887,8.015z"/>
	<path fill="#EC1C24" d="M35.404,8.952l0.211,0.282l0.373-0.144l-0.225,0.007C35.852,8.938,35.576,8.972,35.404,8.952z"/>
	<polygon fill="#EC1C24" points="34.062,10.495 33.606,10.457 34.249,10.621 	"/>
	<polygon fill="#EC1C24" points="34.116,10.862 33.721,10.849 33.959,10.945 	"/>
	<path fill="#EC1C24" d="M39.053,30.98l-0.194-0.015C38.966,30.994,39.045,31.005,39.053,30.98z"/>
	<path fill="#EC1C24" d="M34.16,19.879c-0.369,0.121-0.942,0.256-0.497,0.242l0.434-0.037C34.02,19.999,34.067,19.935,34.16,19.879z
		"/>
	<path fill="#EC1C24" d="M36.751,26.055c0.042-0.011,0.087-0.023,0.132-0.036c-0.148-0.029-0.286-0.056-0.415-0.081
		C36.557,25.975,36.651,26.014,36.751,26.055z"/>
	<path fill="#EC1C24" d="M39.486,34.864l0.441,0.097C39.926,34.81,39.703,34.876,39.486,34.864z"/>
	<path fill="#EC1C24" d="M34.275,14.623c-0.169,0.104-0.24,0.187-0.262,0.26C34.264,14.757,34.637,14.656,34.275,14.623z"/>
	<path fill="#EC1C24" d="M34.686,31.416c-0.074-0.052-0.156-0.082-0.264-0.071C34.501,31.396,34.59,31.417,34.686,31.416z"/>
	<path fill="#EC1C24" d="M34.016,15.185c0.043-0.019,0.065-0.037,0.102-0.056c-0.072-0.076-0.131-0.153-0.104-0.246
		C33.828,14.976,33.715,15.082,34.016,15.185z"/>
	<path fill="#EC1C24" d="M34.749,50.238c-0.026-0.034-0.027-0.09-0.033-0.143C34.686,50.121,34.689,50.164,34.749,50.238z"/>
	<path fill="#EC1C24" d="M35.643,11.961c0.04,0.014,0.106,0.024,0.211,0.031C35.754,11.99,35.691,11.977,35.643,11.961z"/>
	<path fill="#EC1C24" d="M36.716,15.96l-0.001,0.007C36.799,15.943,36.783,15.947,36.716,15.96z"/>
	<path fill="#EC1C24" d="M33.919,12.238c0.018-0.028,0.03-0.048,0.042-0.068C33.889,12.16,33.844,12.169,33.919,12.238z"/>
	<path fill="#EC1C24" d="M33.927,12.339c0.007,0.023,0.016,0.055,0.023,0.108c-0.007-0.044,0.014-0.086,0.045-0.126
		C33.966,12.337,33.941,12.344,33.927,12.339z"/>
	<path fill="#EC1C24" d="M37.966,40.391c-0.014,0.005-0.023,0.009-0.041,0.017C38.105,40.485,38.076,40.451,37.966,40.391z"/>
	<path fill="#EC1C24" d="M38.338,26.129c-0.081,0.017-0.171,0.021-0.262,0.024C38.157,26.176,38.251,26.176,38.338,26.129z"/>
	<polygon fill="#EC1C24" points="39.404,34.846 39.399,34.855 39.486,34.864 	"/>
	<path fill="#EC1C24" d="M33.834,11.702c-0.023-0.082,0.082-0.111,0.158-0.152c-0.112,0.004-0.275,0.036-0.283-0.017L33.834,11.702z
		"/>
	<path fill="#EC1C24" d="M36.694,10.068c-0.06-0.024-0.007-0.052-0.066-0.076l-0.224,0.006C36.418,10.104,36.6,10.177,36.694,10.068
		z"/>
	<path fill="#EC1C24" d="M35.313,11.377c0.405-0.013,0.268-0.119,0.192-0.237c0.001,0.007,0.005,0.014,0,0.021
		C34.938,11.126,35.125,11.252,35.313,11.377z"/>
	<path fill="#EC1C24" d="M35.48,11.003c-0.227-0.014-0.047,0.044,0.011,0.109C35.473,11.076,35.461,11.039,35.48,11.003z"/>
	<path fill="#EC1C24" d="M34.26,12.595c0.104-0.056-0.52-0.035-0.354-0.067C33.39,12.466,34.531,12.902,34.26,12.595z"/>
	<polygon fill="#EC1C24" points="36.648,11.281 36.148,11.324 36.552,11.39 	"/>
	<path fill="#EC1C24" d="M36.281,12.215l0.139-0.189c-0.084,0.002-0.133-0.021-0.171-0.051
		C36.232,12.092,36.133,12.219,36.281,12.215z"/>
	<path fill="#EC1C24" d="M36.166,11.823c0.006,0.033,0.021,0.104,0.083,0.152C36.259,11.915,36.248,11.857,36.166,11.823z"/>
	<polygon fill="#EC1C24" points="36.799,11.54 36.695,11.596 36.658,11.729 	"/>
	<path fill="#EC1C24" d="M36.328,14.451c0.172,0.021,0.277-0.035,0.209-0.112c-0.12-0.049-0.187-0.125-0.353-0.094L36.328,14.451z"
		/>
	<path fill="#EC1C24" d="M37.557,13.622c-0.104,0.056-0.216,0.06-0.381,0.091l0.621,0.006L37.557,13.622z"/>
	<path fill="#EC1C24" d="M38.157,14.261c-0.171-0.021-0.313-0.228-0.456-0.038C37.874,14.243,38.196,14.522,38.157,14.261z"/>
	<polygon fill="#EC1C24" points="34.202,50.813 33.99,50.97 34.332,50.869 	"/>
	<path fill="#EC1C24" d="M39.783,29.771l0.364-0.123l-0.156-0.012C39.822,29.661,39.81,29.698,39.783,29.771z"/>
	<polygon fill="#EC1C24" points="39.662,31.779 39.675,31.743 39.088,31.812 	"/>
	<path fill="#EC1C24" d="M40.41,33.567c0.024-0.073-0.106-0.159-0.082-0.232C40.435,33.494,39.678,33.587,40.41,33.567z"/>
</g>
</svg>
