<?xml version="1.0" encoding="utf-8"?>
<!-- Generator: Adobe Illustrator 16.0.3, SVG Export Plug-In . SVG Version: 6.00 Build 0)  -->
<!DOCTYPE svg PUBLIC "-//W3C//DTD SVG 1.1//EN" "http://www.w3.org/Graphics/SVG/1.1/DTD/svg11.dtd">
<svg version="1.1" id="Layer_8" xmlns="http://www.w3.org/2000/svg" xmlns:xlink="http://www.w3.org/1999/xlink" x="0px" y="0px"
	 width="72px" height="100px" viewBox="0 0 72 100" enable-background="new 0 0 72 100" xml:space="preserve">
<g>
	<path fill="#EC1C24" d="M38.765,69.526l0.194-0.039C38.834,69.463,38.75,69.467,38.765,69.526z"/>
	<path fill="#EC1C24" d="M48.215,77.353c0.045,0.124,0.127,0.258,0.259,0.408L48.215,77.353z"/>
	<path fill="#EC1C24" d="M34.771,60.792l-0.499-0.057C34.413,61.082,34.559,60.846,34.771,60.792z"/>
	<path fill="#EC1C24" d="M53.161,58.263l0.005,0.016C53.224,58.194,53.212,58.209,53.161,58.263z"/>
	<path fill="#EC1C24" d="M31.067,47.564c0.008-0.017,0.011-0.033,0.022-0.053C30.851,47.398,30.909,47.466,31.067,47.564z"/>
	<path fill="#EC1C24" d="M57.264,72.656c-0.001-0.01-0.01-0.019-0.012-0.028l-0.024,0.021L57.264,72.656z"/>
	<path fill="#EC1C24" d="M57.322,73.417c-0.401-0.466-0.28-0.599-0.095-0.768l-1.251-0.228L57.322,73.417z"/>
	<path fill="#EC1C24" d="M53.548,79.784l6.275,13.415l0.453-0.212l0.467-0.179l-5.948-15.521c-0.011-0.605,0.449-1.203,0.6-0.819
		l-0.059,0.175c0.258-0.514,0.604-1.429,0.761-2.18c0.086-0.565,0.026-1.089-0.35-1.299c0.106,0.031,0.92,0.467,1.063,0.576
		l-1.475-1.68l0.17-0.449c0.755,0.22,1.653,0.455,1.747,1.016c0.169-0.154,0.372-0.346,0.282-0.838
		c-0.146,0.093-1.11-0.049-1.106-0.25c0.945-0.2,0.535-0.185,1.41-0.54c-0.22,0.139-1.21-0.481-1.06-0.776
		c0.142,0.109,1.067,0.374,1.137,0.528l-0.764-1.162c0.122,0.25,0.869,0.397,1.251,0.284c-0.255,0.052,0.403-1.011,0.412-1.347
		l-0.445,0.441c0.305-0.583,0.07-0.935-0.244-1.182c-0.581-0.29-1.162-0.452-1.319-0.924c0.263,0.029,1.558,0.038,1.437-0.641
		c-0.382-0.122-1.204-0.106-2-0.157l-0.384-0.95c0.862,0.127,1.77,0.303,2.275,0.467c0.112-0.418,0.324-0.235,0.103-0.704
		c0.218-0.285,0.54,0.086,0.613,0.221l-0.266-1.192c-0.604,0.302-0.971-0.603-1.473-0.35l1.136,0.952
		c-0.602,0.301-2.053,0.013-2.263-0.823c0.167-0.302,1.171-0.297,1.372-0.398c-0.256-0.016-0.714-0.586-0.591-0.72l0.469,0.201
		c0.057-0.535-1.116-0.386-0.735-1.155c-0.034-0.199,0.582-0.87,0.2-0.753c-0.354,0.351-1.274,0.828-2.09,1.16l-0.252-0.623
		l0.256-0.073l-0.056-0.117l-0.236,0.101l-0.257-0.637c0.502-0.278,1.37,0.013,1.699-0.381c-0.175,0.058-0.452-0.024-0.547-0.066
		c0.067-0.25,0.56-0.133,0.313-0.52c-0.66,0.186-0.289-0.87-0.614,0.019c-0.345-0.335-0.045-0.486-0.266-0.954
		c-0.23,0.21-0.84,0.197-1.327,0.067l-0.212-0.525c0.014-0.015,0.039-0.035,0.05-0.047c-0.28-0.86-0.175-1.424-0.485-2.207
		c0.125-0.134,0.157-0.585,0.494-0.535c-0.156-0.066-0.412-0.083-0.525-0.318c0.358-0.686,0.302,0.502,0.815-0.118
		c-0.38,0.118-0.759-0.418-1.126-0.668c-0.525,0.335,0.211,0.836,0.578,1.086c-0.272,0.111-0.58,0.127-0.893,0.104l-1.002-2.479
		c0.014-0.661-0.796-1.993-0.766-2.964c-0.166-0.07-0.356-0.192-0.507-0.187l-1.296-3.21c0.069-0.017,0.139-0.041,0.21-0.085
		l-0.376-0.327l-0.019-0.045c0.11-0.028,0.311,0.042,0.351-0.113c-0.132,0.041-0.279,0.026-0.408-0.03l-0.273-0.675
		c0.006-0.016,0.007-0.031,0.014-0.047c-0.011-0.007-0.025-0.006-0.037-0.011l-0.235-0.584c0.005-0.024,0.018-0.038,0.016-0.074
		c-0.05-0.022-0.065-0.062-0.086-0.099L42.03,30.875c0.176,0.048-0.21-0.596,0.049-0.392c-0.048-0.24-0.225-0.177-0.26-0.387
		c-0.01,0.219-0.077,0.203,0.037,0.473l-0.945,0.382c-0.097-0.088-0.191-0.179-0.286-0.272c0.005-0.022,0.013-0.033,0.016-0.063
		c-0.08-0.08-0.498-0.938-0.467-1.022c0.459,0.692,0.27,0.36,0.72,0.926c-0.12-0.121-0.48-1.21-0.369-1.216
		c0.049,0.165,0.432,1.045,0.44,1.17l-0.179-1.141c0.016,0.212,0.347,0.888,0.52,1.161c-0.107-0.194,0.218-0.066,0.24-0.195
		l-0.2-0.2c0.338,0.047-0.321-1.576-0.027-1.631c0.054,0.229,0.454,1.358,0.645,1.434c-0.152-0.56-0.757-2.682-0.682-3.19
		l0.169,0.287l0.044-0.423c0.21,0.851,0.57,2.672,0.66,3.4c0.2,0.2,0.174,0.349,0.316,0.259c0.17,0.265,0.092,0.468,0.053,0.503
		l0.433,0.041c-0.269-0.618,0.021-0.736-0.203-1.25l-0.127,0.803c-0.267-0.615-0.49-1.86-0.192-1.852
		c0.164,0.222,0.4,1.129,0.489,1.334c-0.054-0.228,0.075-0.507,0.159-0.364l0.027,0.376c0.236,0.178-0.104-0.919,0.307-0.393
		c0.074,0.016,0.498,0.732,0.359,0.359c-0.383-0.673-1.29-2.866-1.442-3.426c0.04,0.04,0.582,0.556,0.791,0.88
		c0.321,0.519,0.392,1.388,0.667,1.833c-0.064-0.172-0.097-0.403-0.102-0.479c0.12,0.12,0.188,0.538,0.29,0.407
		c-0.233-0.641,0.293-0.056-0.152-0.56c0.058-0.233,0.19,0.074,0.333-0.016c-0.214-0.389-0.424-1.445-0.365-1.678
		c0.057,0.164,0.171,0.361,0.224,0.451c0.29-0.051,0.55,0.178,0.802,0.083c0.085,0.144,0.28,0.28,0.339,0.573
		c-0.01-0.126-0.063-0.354,0.008-0.4c0.37,0.486-0.138,0.154,0.241,0.765c-0.139-0.371-0.006-0.587,0.012-0.86
		c-0.263-0.554-0.297-0.007-0.314,0.267c-0.316-0.782-0.456-1.679-0.342-2.146c0.129-0.278,0.294,0.469,0.285,0.343
		c0.444-0.021-0.22-1.5,0.331-1.066c0.33,0.446,0.406,0.989,0.58,1.337c-0.093,0.257-0.387-0.212-0.493-0.146l0.236,0.179
		c0.013,0.188-0.049,0.359-0.169,0.239c0.288,0.405,0.692-0.179,1.16,0.113c-0.015-0.189,0.008-0.399-0.116-0.582l-0.067,0.108
		c-0.249-0.367-0.046-0.628-0.241-0.768c0.013-0.334-0.023-0.835,0.248-0.681l0.264,0.555c-0.071-0.165-0.255-0.292-0.235-0.098
		c-0.026-0.282,0.586,0.659,0.368-0.118l-0.285-0.344c0.013-0.337-0.073-1.005,0.158-0.89c-0.299-0.532-0.011,0.079-0.389-0.532
		c0.428,0.777-0.421,0.13,0.083,0.925c-0.424-0.715-0.331-0.242-0.745-0.831c0.08,0.186,0.198,0.337,0.027,0.298
		c0.017,0.058,0.03,0.133,0.037,0.177l-0.015-0.01l0.017,0.019c0.006,0.03,0.008,0.037,0.006,0.006
		c0.065,0.069,0.131,0.157,0.184,0.258c0.107,0.458-0.11,0.529-0.092,0.781c-0.115-0.057-0.055-0.229-0.179-0.411l0.027,0.377
		c-0.179-0.412-0.489-0.607-0.401-0.927l-0.176,0.05c-0.193-0.194-0.366-0.231-0.38-0.022c-0.115-0.059-0.014,0.542-0.076,0.188
		l-0.159,0.365l-0.045-0.103c-0.281,0.052-0.257,0.905-0.857,0.274c-0.045,0.14-0.084,0.306-0.277,0.247l-0.175-0.349
		c-0.062,0.171-0.482-0.225-0.38,0.17c-0.513-0.92-0.631,0.009-0.897-0.083l0.183,0.474c-0.147,0.028-0.224,0.214-0.316,0.472
		l0.179,0.411c-0.008,0.4-0.494-0.145-0.707-0.009c-0.049-0.165,0.026-0.147,0.106-0.068c-0.654-0.828-0.305,0.917-0.83,0.334
		c-0.001,0.176-0.066,0.143-0.152,0.056c0.005-0.003,0.007-0.013,0.006-0.028c-0.008-0.002-0.018,0-0.027,0.005
		c-0.057-0.061-0.121-0.129-0.176-0.187c0.067,0.09,0.126,0.164,0.163,0.193c-0.045,0.028-0.097,0.109-0.126,0.242l-0.211-0.434
		c-0.003,0.008-0.008,0.009-0.011,0.02c-0.137-0.137,0.029,0.234,0.202,0.555c-0.007,0.088-0.004,0.189,0.015,0.308
		c-0.349-0.698-0.09,0.318-0.478-0.419c0.104,0.394-0.244,0.427,0.036,1.23c-0.044-0.102-0.085-0.142-0.049-0.164
		c-0.116-0.058-0.231-0.115-0.213,0.136l-0.263-0.554l0.135,0.833c-0.246-0.304-0.37-0.487-0.442-0.966
		c0.019,0.773-0.103,0.336-0.049,1.089l-0.138-0.372c-0.071,0.045,0.005,0.587-0.164,0.302c-0.454-0.628-0.89,0.247-1.593-0.223
		c0.522,1.046-0.4-0.401-0.08,0.443c-0.129-0.245-0.249-0.365-0.267-0.616c-0.124,0.342-0.502-0.269-0.372,0.5
		c-0.13-0.247-0.104-0.394-0.188-0.537c0.004,0.063,0.019,0.251-0.067,0.108c-0.084-0.143-0.054-0.228-0.063-0.354
		c-0.213,0.136,0.082,0.933,0.364,1.679c-0.259-0.303-0.297-0.23-0.185,0.289c-0.139-0.226-0.309-0.451-0.2-0.596
		c-0.095-0.002-0.635-0.156-0.403,0.44c-0.086-0.14-0.131,0.001-0.124,0.078c-0.194,0.038-0.232-0.009-0.387,0.118l0.089,0.077
		c0.219,0.743-0.083,0.219-0.191,0.363l-0.025-0.075c-0.536-0.384-0.042,0.304-0.603-0.154l0.197,0.438
		c0.356,0.969-0.515-0.448-0.554-0.007l0.17,0.227c0.029,0.369-0.812-1.185-0.963-1.263c-0.056-0.074-0.019-0.148-0.012-0.223
		c-0.497-0.455,0.2,0.597,0.055,0.813c-0.164-0.299-0.275-0.818-0.434-0.822c-0.171-0.228,0.02,1.179-0.408,0.65
		c0.139,0.226,0.276,0.451,0.257,0.671c-0.107,0.144-0.756-0.76-0.576,0.056c-0.045-0.059-0.077-0.119-0.103-0.179
		c-0.029,0.241-0.223,0.471-0.121,0.911c-0.722-1.496-0.378,1.021-0.947-0.396l-0.306,0.211l-0.049-0.148
		c-0.253-0.007-0.191,0.363-0.13,0.734c-0.089-0.076-0.105-0.223-0.132-0.299c-0.429-0.159-0.436-0.086-0.414,0.726l-0.213-0.449
		c0.037,0.296-0.744-0.537-0.836,0.123c-0.018-0.053-0.047-0.145-0.049-0.22c-0.129,0.679-1.344-0.94-0.795,0.785l-0.062,0.504
		c0.348,0.011,0.249,0.744,0.483,0.973c-0.077,0.145-0.505-0.384-0.396-0.527l0.056,0.075c-0.3-0.894-0.492-0.161-0.724-0.758
		c-0.564,0.278-1.326,0.024-1.886,0.207l0.336,0.652l-0.205,0.038c-0.114-0.138-0.281-0.504-0.135-0.53
		c-0.227-0.355-0.098,0.414-0.041,0.563c-0.377-0.167-0.216-0.833-0.304-0.816l-0.091,0.095l0.058,0.069
		c0.022,0.313,0.133,0.61-0.044,0.643c-0.158-0.094-0.222-0.397-0.272-0.407c-0.02-0.048-0.042-0.065-0.07,0.005l-0.263,0.039
		l0.312,0.497c0.001,0.307-0.236,0.063,0.119,0.625c-0.54-0.87-1.028,0.024-1.245-0.226c0.009,0.45-0.141,0.503-0.342,0.529
		c0.091,0.093,0.36,0.684,0.174,0.674c-0.444-1.266-0.504-0.424-0.992-1.266c0.353,0.547-0.387,0.326,0.131,1.096
		c-0.171-0.048-0.195-0.462-0.413-0.714c-0.116,0.606-0.812-0.036-1.131,0.282c0.06,0.166,0.225,0.389,0.24,0.665l-0.532-0.733
		c-0.044,0.111,0.31,0.969-0.058,0.459c0.075,0.129,0.188,0.324,0.158,0.397c-1.075-0.49-1.277,1.272-2.646,0.089
		c0.231,0.274,0.175,0.333,0.101,0.377c0.082,0.055,0.162,0.403,0.261,0.62l-0.568-0.484c0.189,0.637-0.326,0.181-0.123,0.78
		l0.059-0.146c0.145,0.747,0.811,1.462,1.149,2.358c-0.167-0.848,0.869,1.004,0.662-0.222c0.128,0.159,0.069,0.305,0.182,0.5
		c-0.091-0.406-0.047-0.517,0.162-0.402l0.022,0.101c0.357-0.252,0.679,0.055,1.224,0.125l-0.211-0.426
		c0.119,0.021,0.195,0.15,0.284,0.242c-0.159-0.71-0.283,0.071-0.479-0.704c0.487,0.842,0.678-0.258,1.174,0.723
		c0.148-0.054-0.248-0.491-0.1-0.544l0.15,0.259l-0.106-0.369c0.12,0.02,0.308,0.344,0.405,0.575
		c-0.035-0.018-0.04,0.092-0.058,0.122c0.256,0.273,0.308-0.252,0.393-0.165l-0.209-0.112c0.297-0.419,0.932-0.255,1.093-0.971
		l-0.113-0.195c0.141-0.503,0.328,0.132,0.581-0.176l0.009,0.054c-0.019-0.232,0.025-0.372,0.124-0.384
		c0.017,0.276,0.345,0.41,0.346,0.721c0.154-0.541,0.028-0.387-0.071-1.243l0.188,0.324c-0.054-0.34-0.113-0.506,0.012-0.661
		c-0.014,0.349,0.315,0.482,0.324,0.933c0.644,0.615,0.198-0.963,0.799,0.074c-0.229-1.015-0.508-0.41-0.503-0.649
		c-0.199-0.281-0.158-0.763-0.013-0.71c0.02-0.004,0.054,0.032,0.094,0.082c0.234,0.434,0.484,0.861,0.774,1.254l0.215-0.066
		c0.508,0.705,0.528,0.921,0.542,1.192c0.009,0.261,0.008,0.57,0.4,1.285L27.254,39.1c0.347,0.262,0.601,0.593,0.729,0.976
		c-0.194-0.132-0.251,0.069-0.307,0.279c-0.057,0.21-0.15,0.336-0.355,0.214c0.824,0.856,0.525,0.371,1.564,0.726l-0.281,0.292
		c0.401,0.1,0.573,0.052,0.867,0.523c-0.463-0.296-0.394,0.535-0.972,0.227c-0.323,1.367,1.396,1.271,0.494,2.204
		c1.148,0.104,0.156-1.133,0.471-0.942c0.219-0.354,0.874,0.116,0.913,0.488c0.116,0.348-0.984,1.069-0.621,1.916
		c-0.03-0.087-0.104-0.063-0.135-0.149c-0.113,0.417,0.582,0.493,0.346,1.045c0.664-0.013,0.173,0.522,0.933,0.289l-0.486-0.715
		c0.371,0.366,1.398,0.436,1.277,1.336c-0.171,0.003-0.454-0.136-0.623-0.242c-0.13,0.302,0.311,0.354,0.178,0.666
		c-0.761,0.233-0.545-0.888-1.297-1.138c-0.218,0.355,0.896,0.686,0.003,0.768c1.15-0.064,0.213,0.894,1.219,1.16l-0.455,0.14
		c0.105,0.063,0.391,0.169,0.447,0.342l-0.694-0.074c0.676,0.271-0.061,1.074,0.386,1.417c-0.394-0.935,0.445-0.425,0.605-0.953
		c1.058,0.922-0.882,1.132-0.146,2.346c-0.133-0.151-0.002-0.767,0.313-0.574c0.01,0.283-0.027,0.678-0.197,0.923
		c0.439,0.824,0.399-0.314,0.818-0.058c-0.418,0.51,0.389,0.334,0.712,0.643l-0.446,0.183c0.109,1.096,1.037-0.117,1.047,0.906
		l-0.771-0.122l0.347,0.396l-0.548,0.11c0.58,0.348,0.545,0.544,0.601,1.092c0.27-0.241,0.838-0.264,1.027,0.165
		c-0.146,0.403-0.492,0.006-0.18,0.595c-0.336-0.026-0.749-0.036-0.445-0.47c-0.156,0.031-0.336-0.024-0.491,0.006
		c-0.177,0.442,0.254,0.83,0.348,1.051c-0.018-0.092-0.035-0.205,0.008-0.283l0.979,0.643c-0.111,0.208-0.291,0.151-0.468,0.094
		c0.122,0.161,0.378,0.203,0.523,0.454c-0.392,0.078-0.76,0.246-1.083-0.061l0.747,0.688c-0.136,0.121-0.258,0.611-0.437,0.556
		c-0.023,0.558,1.172,0.871,1.143,1.61c0.084,0.004,0.178,0.042,0.283,0.154c0.154,0.621-0.081,1.321,0.698,1.815l-0.492,0.659
		c0.368,0.485,0.605-0.867,1.218-0.058c0.468,0.559-0.459,0.465-0.55,0.763c0.458,0.187,1.352,0.473,1.06,1.277
		c-0.202-0.146-0.168-0.338-0.29-0.501l-0.18,0.597c-0.813-0.303-0.768-0.779-1.105-0.151c1.285-0.445,0.835,1.697,2.119,1.251
		l-0.146,0.404c-0.021-0.09-0.102-0.074-0.123-0.163c-0.37,0.82,1.084,0.061,1.205,0.876c0.008,0.298-0.103,0.553-0.323,0.437
		l0.545,0.451c0.043,0.178-0.192,0.226-0.235,0.048l0.456,0.84l-0.04,0.008c0.249,0.046,0.669,0.207,0.854,0.293
		c-0.09,0.296-0.179-0.058-0.313,0.063l0.502,0.364c-0.246,0.331-0.726,0.055-0.815-0.301c-1.073,0.963,0.48,0.276,0.143,1.555
		l-0.346-0.396c-0.594,0.585-0.19,0.84-0.426,1.54c0.183-0.217,0.702-1.495,1.229-1.093c-0.035,0.188-0.001,0.402,0.368,0.585
		c-0.446,0.186-0.227,0.413-0.057,0.761l-0.604,0.211c0.432,0.575,0.707,0.388,1.101,0.593c0.211,0.69-0.137,1.154-0.398,1.619
		c0.21,0.657,0.276,0.29,0.385-0.045c0.108-0.337,0.264-0.631,0.566-0.042l0.006,0.039c0.69,0.53,1.633,0.634,2.662,0.646
		c0.308,0.364-0.216,0.334-0.146,0.561l0.54-0.331c0.08,0.046-0.007,0.18-0.051,0.248c0.367-0.064,0.267-0.582,0.791-0.555
		c0.391-0.602,0.553,1.338,1.424,0.83c0.071,0.225-0.216,0.335-0.267,0.582c0.979-0.167,0.813-0.08,1.72-0.473l0.387,0.612
		c-0.219-0.609,0.508-0.926,1.133-1.175c-0.009-0.043-0.016-0.076-0.023-0.117l0.153,0.063c-0.045,0.019-0.083,0.036-0.13,0.055
		c0.01,0.05,0.021,0.103,0.031,0.155c0.068-0.062,0.126-0.116,0.189-0.173l0.346,0.142c-0.054,0.186-0.195,0.362-0.399,0.513
		c-0.06-0.16-0.106-0.325-0.136-0.481c-0.324,0.287-0.651,0.618-0.757,0.98c0.075-0.049,0.188-0.072,0.3-0.064
		c-0.086,0.078-0.15,0.153-0.153,0.222c-0.001,0.072,0.126-0.029,0.307-0.131c0,0-0.01,0.189-0.02,0.377
		c-0.001,0.192-0.003,0.384-0.003,0.384l0.151-0.244c-0.03-0.013,1.283,1.006,1.314,1.019c0.92-0.256,1.436-0.914,2.078-1.126
		l0.626,1.339c-0.125-0.049-0.243-0.05-0.374-0.036c-0.274,0.033-0.626,0.106-1.039-0.135c0.424,0.248,0.402,0.558,0.304,0.629
		c0,0,0.358-0.015,0.676-0.046c0.306-0.028,0.567-0.072,0.591-0.076l0.043,0.092C53.461,79.622,53.502,79.712,53.548,79.784z
		 M45.148,24.165c0.002,0.008,0.003,0.014,0.004,0.024C44.989,24.052,45.05,24.107,45.148,24.165z M24.761,32.83l0.085,0.102
		C24.813,33.094,24.789,32.969,24.761,32.83z M39.791,71.497c-0.146-0.093-0.541-0.235-0.315-0.437
		C40.048,71.001,39.849,71.215,39.791,71.497z M37.98,30.329c0.036,0.086,0.074,0.178,0.115,0.268
		c-0.01,0.036-0.023,0.064-0.032,0.104C37.883,30.619,37.985,30.47,37.98,30.329z M39.628,29.746
		c0.021,0.048,0.101,0.267,0.184,0.502c-0.032,0.004-0.065,0.007-0.101,0.005C39.72,30.112,39.697,29.944,39.628,29.746z
		 M54.813,80.125l-0.574-1.227c0.015-0.057,0.023-0.115,0.038-0.172L54.813,80.125z M54.751,77.172l-0.046-0.12
		c0.034-0.03,0.059-0.067,0.116-0.078C54.793,77.06,54.762,77.112,54.751,77.172z M40.32,30.329
		c-0.092-0.126-0.173-0.258-0.221-0.405c-0.009,0.057-0.023,0.104-0.042,0.144l-0.218-0.46l0.163,0.541
		c-0.032,0.038-0.07,0.067-0.116,0.084l-0.479-2.193C39.593,28.588,40.13,29.668,40.32,30.329z M37.791,29.744
		c0.044,0.205,0.104,0.372,0.17,0.535c-0.009-0.031-0.013-0.063-0.042-0.091c-0.022,0.239-0.091,0.398-0.22,0.5
		C37.672,30.293,37.68,29.942,37.791,29.744z M36.426,29.367c0.066,0.086,0.126,0.299,0.188,0.562
		c-0.005-0.055-0.011-0.11-0.016-0.159c0.171,0.186,0.267,0.545,0.342,0.901c-0.074-0.107-0.152-0.22-0.23-0.333
		c0.04,0.171,0.085,0.349,0.134,0.523c-0.043,0.019-0.089,0.039-0.132,0.055c-0.042-0.233-0.063-0.471-0.077-0.69
		c-0.133-0.197-0.248-0.37-0.31-0.449L36.426,29.367z M49.706,77.216c0.163,0.024,0.323,0.109,0.497,0.313
		C50.055,77.641,49.865,77.478,49.706,77.216z"/>
	<path fill="#EC1C24" d="M48.579,77.579c-0.006-0.09,0.018-0.178,0.043-0.265C48.541,77.368,48.504,77.454,48.579,77.579z"/>
	<path fill="#EC1C24" d="M34.862,60.803c0.001-0.008-0.003-0.014-0.003-0.022c-0.031,0-0.061,0.004-0.089,0.012L34.862,60.803z"/>
	<path fill="#EC1C24" d="M55.898,59.957c-0.015,0.15-0.068,0.252-0.135,0.333C55.876,60.252,55.945,60.158,55.898,59.957z"/>
	<polygon fill="#EC1C24" points="49.193,48.592 49.149,48.106 49.104,48.273 	"/>
	<path fill="#EC1C24" d="M51.777,52.592c-0.045,0.167-0.145,0.217-0.269,0.351l0.581-0.218L51.777,52.592z"/>
	<path fill="#EC1C24" d="M52.926,53.832c-0.178,0.016-0.502-0.403-0.457,0.083C52.647,53.897,53.204,54.416,52.926,53.832z"/>
	<path fill="#EC1C24" d="M58.725,67.08c0.467,0.477,0.437,0.787,1.047,0.508c-0.133-0.979-0.742-0.158-0.761-1.019
		C58.689,66.416,59.022,67.263,58.725,67.08z"/>
	<path fill="#EC1C24" d="M58.725,67.08c-0.074-0.076-0.158-0.153-0.261-0.23C58.586,66.98,58.664,67.042,58.725,67.08z"/>
	<path fill="#EC1C24" d="M38.982,72.986l0.155-0.031c0.135-0.119,0.112-0.208,0.068-0.387L38.982,72.986z"/>
	<polygon fill="#EC1C24" points="37.483,68.013 37.964,67.636 37.462,67.924 	"/>
	<path fill="#EC1C24" d="M35.113,64.108c0.045,0.176,0.246,0.324,0.29,0.501C35.158,64.285,35.773,63.789,35.113,64.108z"/>
	<path fill="#EC1C24" d="M51.914,21.322c0.064,0.014-0.11-0.368-0.131-0.44C51.732,21.002,51.957,21.422,51.914,21.322z"/>
	<polygon fill="#EC1C24" points="51.424,22.545 51.375,22.381 51.407,22.82 	"/>
	<path fill="#EC1C24" d="M51.109,22.814l0.084,0.142l-0.151-0.559c-0.138,0.153-0.218,0.597-0.413,0.461
		C50.972,23.49,50.873,22.635,51.109,22.814z"/>
	<path fill="#EC1C24" d="M49.76,21.638c-0.019-0.025-0.029-0.04-0.044-0.058c-0.016,0.011-0.039,0.02-0.087,0.018
		C49.76,21.844,49.628,21.856,49.76,21.638z"/>
	<path fill="#EC1C24" d="M49.716,21.58C49.792,21.528,49.574,21.385,49.716,21.58L49.716,21.58z"/>
	<path fill="#EC1C24" d="M49.408,21.608c-0.085-0.143-0.196-0.138-0.205-0.263c-0.062,0.172,0.022,0.313,0.188,0.538L49.408,21.608z
		"/>
	<path fill="#EC1C24" d="M49.499,22.288c-0.035-0.06-0.06-0.076-0.018,0.12L49.499,22.288z"/>
	<path fill="#EC1C24" d="M49.524,22.191c0.069,0.2,0.018,0.002,0.013-0.157l-0.038,0.254C49.559,22.388,49.646,22.602,49.524,22.191
		z"/>
	<path fill="#EC1C24" d="M49.646,22.107c0.119,0.119,0.235,0.177,0.218,0.451C50.037,22.382,49.818,21.929,49.646,22.107z"/>
	<path fill="#EC1C24" d="M50.865,23.559l0.161,0.16l-0.019-0.25C51.017,23.593,50.776,23.354,50.865,23.559z"/>
	<path fill="#EC1C24" d="M48.854,22.159c-0.08-0.08-0.195-0.136-0.285-0.343c0.05,0.144,0.188,0.36,0.27,0.537L48.854,22.159z"/>
	<path fill="#EC1C24" d="M48.838,22.354l-0.023,0.291C48.934,22.629,48.907,22.506,48.838,22.354z"/>
	<polygon fill="#EC1C24" points="49.753,22.562 49.724,23.173 49.759,23.151 	"/>
	<polygon fill="#EC1C24" points="48.098,21.986 48.035,21.632 48.111,22.174 	"/>
	<path fill="#EC1C24" d="M47.813,22.167c-0.058-0.291-0.254-0.429-0.268-0.617c-0.063,0.082-0.042,0.343-0.021,0.577
		C47.546,21.983,47.63,21.984,47.813,22.167z"/>
	<path fill="#EC1C24" d="M47.539,22.475c0.008-0.079-0.004-0.209-0.015-0.348C47.514,22.205,47.514,22.309,47.539,22.475z"/>
	<path fill="#EC1C24" d="M48.579,22.658c-0.044-0.082-0.151-0.296-0.258-0.364l0.208,0.377L48.579,22.658z"/>
	<path fill="#EC1C24" d="M48.536,22.684l-0.007-0.012c-0.056,0.01-0.095,0.017-0.112,0.02C48.432,22.69,48.468,22.688,48.536,22.684
		z"/>
	<path fill="#EC1C24" d="M48.592,22.655l-0.013,0.003C48.6,22.695,48.607,22.708,48.592,22.655z"/>
	<path fill="#EC1C24" d="M49.542,23.748c-0.059-0.292-0.219-0.451-0.246-0.828C49.314,23.17,49.262,23.468,49.542,23.748z"/>
	<path fill="#EC1C24" d="M48.852,23.126l0.165,0.039c-0.044-0.104-0.13-0.247-0.139-0.371L48.852,23.126z"/>
	<polygon fill="#EC1C24" points="48.839,23.278 48.852,23.126 48.79,23.112 	"/>
	<path fill="#EC1C24" d="M48.081,23.075c-0.04-0.128-0.098-0.365-0.171-0.319c0.014,0.195-0.041,0.234-0.1,0.29
		C47.916,23.094,48.01,23.105,48.081,23.075z"/>
	<path fill="#EC1C24" d="M48.229,22.756l-0.004,0.028C48.246,22.814,48.257,22.822,48.229,22.756z"/>
	<path fill="#EC1C24" d="M47.173,23.384l-0.025-0.069l-0.015,0.002C47.145,23.337,47.16,23.363,47.173,23.384z"/>
	<path fill="#EC1C24" d="M48.124,23.144c0.086,0.054,0.08-0.056,0.063-0.191c-0.025,0.057-0.06,0.101-0.105,0.123
		C48.1,23.133,48.113,23.17,48.124,23.144z"/>
	<path fill="#EC1C24" d="M47.425,22.737c0.063,0.07,0.124,0.128,0.185,0.179C47.53,22.801,47.394,22.629,47.425,22.737z"/>
	<path fill="#EC1C24" d="M48.162,22.681l0.001-0.021C48.11,22.583,48.13,22.624,48.162,22.681z"/>
	<path fill="#EC1C24" d="M48.162,22.681c-0.006,0.069,0.012,0.176,0.024,0.271c0.021-0.045,0.035-0.1,0.038-0.169
		C48.209,22.757,48.185,22.717,48.162,22.681z"/>
	<path fill="#EC1C24" d="M47.752,24.693c-0.092,0.258-0.19-0.074-0.351-0.235c0.255,0.43,0.054,0.753,0.362,1.411l0.053-0.297
		c0.045,0.104,0.059,0.292,0.139,0.371c-0.139-0.371-0.13-0.77,0.154-0.426c0.013-0.325-0.556-1.5-0.937-2.132
		c0.061,0.162,0.12,0.31,0.081,0.578C47.379,24.145,47.726,24.317,47.752,24.693z"/>
	<path fill="#EC1C24" d="M47.426,23.262l0.005,0.062l0.034-0.067c-0.086-0.04-0.188-0.169-0.383-0.425
		c-0.015,0.214,0.022,0.358,0.065,0.483L47.426,23.262z"/>
	<path fill="#EC1C24" d="M48.014,24.199c0.144-0.09-0.026-0.377-0.005-0.588c-0.208,0.199-0.019-0.251-0.289-0.405
		c0.021-0.088,0.057-0.126,0.091-0.16c-0.063-0.031-0.131-0.073-0.201-0.13l0.016,0.022v-0.002l0.003,0.006
		c0.03,0.045,0.046,0.075,0.022,0.05c0.001,0.005-0.001,0.008-0.002,0.01c0.019,0.057,0.034,0.107,0.05,0.155
		c-0.105-0.053-0.053-0.099-0.05-0.155l-0.021-0.061l-0.003-0.004l-0.16,0.319c0.074,0.035,0.136-0.003,0.234-0.096
		C47.819,23.577,47.763,23.797,48.014,24.199z"/>
	<path fill="#EC1C24" d="M49.578,24.25c0.1,0.1,0.077,0.191,0.133,0.322c-0.008-0.121,0.008-0.337-0.182-0.486l0.005,0.062
		c-0.155-0.097-0.485-0.543-0.49-0.605c0.175,0.348,0.304,0.594,0.513,0.919C49.552,24.398,49.503,24.232,49.578,24.25z"/>
	<path fill="#EC1C24" d="M48.662,23.916l-0.128,0.279l0.245,0.304l-0.09-0.206C48.841,24.327,48.712,24.082,48.662,23.916z"/>
	<polygon fill="#EC1C24" points="47.029,23.127 46.886,22.695 47.007,23.338 	"/>
	<polygon fill="#EC1C24" points="46.78,23.287 46.642,22.916 46.66,23.166 	"/>
	<path fill="#EC1C24" d="M40.189,25.997c-0.227-0.307-0.541-0.799-0.363-0.39l0.189,0.391
		C40.049,25.901,40.114,25.926,40.189,25.997z"/>
	<path fill="#EC1C24" d="M36.71,30.337c-0.034-0.146-0.066-0.282-0.096-0.409c0.007,0.093,0.013,0.192,0.021,0.297L36.71,30.337z"/>
	<path fill="#EC1C24" d="M44.085,24.547c-0.141-0.126-0.228-0.167-0.289-0.165C43.981,24.576,44.195,24.892,44.085,24.547z"/>
	<path fill="#EC1C24" d="M31.934,29.897c0.011-0.084,0.001-0.17-0.047-0.265C31.879,29.72,31.896,29.808,31.934,29.897z"/>
	<path fill="#EC1C24" d="M43.796,24.382c-0.138-0.145-0.258-0.219-0.221,0.09c0.033,0.032,0.051,0.05,0.079,0.078
		C43.683,24.461,43.717,24.384,43.796,24.382z"/>
	<path fill="#EC1C24" d="M22.347,38.559c-0.014-0.016-0.024-0.021-0.039-0.04C22.328,38.574,22.338,38.573,22.347,38.559z"/>
	<path fill="#EC1C24" d="M18.166,35.526c0.016-0.035,0.056-0.052,0.092-0.073C18.229,35.433,18.197,35.448,18.166,35.526z"/>
	<path fill="#EC1C24" d="M44.019,27.206l-0.006,0.001C44.062,27.279,44.053,27.265,44.019,27.206z"/>
	<path fill="#EC1C24" d="M45.698,23.511c0.027,0.008,0.047,0.013,0.065,0.019C45.744,23.46,45.721,23.42,45.698,23.511z"/>
	<path fill="#EC1C24" d="M45.627,23.548c-0.015,0.013-0.034,0.031-0.07,0.054c0.029-0.02,0.067-0.013,0.108,0.004
		C45.644,23.583,45.629,23.563,45.627,23.548z"/>
	<path fill="#EC1C24" d="M43.961,29.282c-0.065-0.048-0.12-0.121-0.17-0.2C43.834,29.192,43.889,29.277,43.961,29.282z"/>
	<path fill="#EC1C24" d="M46.229,23.376c-0.045-0.104-0.13-0.246-0.094-0.268l-0.076,0.166
		C46.11,23.228,46.171,23.317,46.229,23.376z"/>
	<path fill="#EC1C24" d="M48.327,25.443c-0.004-0.063,0.036-0.021,0.031-0.085l-0.089-0.205
		C48.198,25.197,48.212,25.386,48.327,25.443z"/>
	<path fill="#EC1C24" d="M47.097,24.657c-0.005,0.003-0.008,0.009-0.015,0.006c-0.188-0.537-0.209-0.325-0.231-0.114
		C47.013,24.92,47.038,24.761,47.097,24.657z"/>
	<path fill="#EC1C24" d="M47.111,24.636c0.02-0.028,0.043-0.049,0.077-0.042C47.113,24.379,47.138,24.563,47.111,24.636z"/>
	<path fill="#EC1C24" d="M45.564,23.933c0.08,0.08-0.169-0.492-0.084-0.348C45.333,23.087,45.44,24.275,45.564,23.933z"/>
	<polygon fill="#EC1C24" points="47.422,25.759 47.203,25.307 47.306,25.702 	"/>
	<path fill="#EC1C24" d="M46.6,25.695l0.19,0.072c-0.033-0.077-0.034-0.13-0.026-0.173C46.672,25.613,46.541,25.558,46.6,25.695z"/>
	<path fill="#EC1C24" d="M46.844,25.472c-0.022,0.015-0.067,0.051-0.08,0.122C46.812,25.585,46.85,25.558,46.844,25.472z"/>
	<polygon fill="#EC1C24" points="47.289,25.975 47.209,25.895 47.097,25.9 	"/>
	<path fill="#EC1C24" d="M45.139,26.56c-0.009-0.125,0.022-0.21-0.063-0.354L44.979,26.4C45.027,26.565,45.108,26.646,45.139,26.56z
		"/>
	<path fill="#EC1C24" d="M46.065,27.545l-0.019-0.252c-0.08-0.08-0.125-0.183-0.21-0.326L46.065,27.545z"/>
	<path fill="#EC1C24" d="M45.66,27.606c0.05,0.166-0.034,0.547,0.143,0.434C45.754,27.875,45.853,27.681,45.66,27.606z"/>
	<polygon fill="#EC1C24" points="43.09,27.796 43.126,27.774 42.738,26.832 	"/>
	<polygon fill="#EC1C24" points="17.345,35.039 17.548,35.326 17.54,35.189 	"/>
	<path fill="#EC1C24" d="M17.482,35.96c0.016-0.037,0.045-0.11,0.119,0.018l-0.271-0.591L17.482,35.96z"/>
	<path fill="#EC1C24" d="M21.419,24.188l0.177-0.083C21.488,24.124,21.412,24.148,21.419,24.188z"/>
	<path fill="#EC1C24" d="M19.506,20.607l-0.443,0.081C19.117,20.819,19.301,20.678,19.506,20.607z"/>
	<path fill="#EC1C24" d="M33.655,21.354l0.001,0.005C33.751,21.367,33.732,21.365,33.655,21.354z"/>
	<path fill="#EC1C24" d="M30.348,25.783c0-0.006,0-0.017,0-0.022l-0.016-0.01L30.348,25.783z"/>
	<path fill="#EC1C24" d="M30.226,26.18c-0.099-0.542-0.015-0.504,0.106-0.43l-0.549-1.127L30.226,26.18z"/>
	<path fill="#EC1C24" d="M25.535,27.374c-0.001-0.088,0.016-0.191,0.032-0.296C25.521,27.184,25.497,27.294,25.535,27.374z"/>
	<polygon fill="#EC1C24" points="19.588,20.592 19.59,20.582 19.506,20.607 	"/>
	<path fill="#EC1C24" d="M35.912,23.215c0.146,0.069,0.302,0.113,0.451,0.086C36.203,23.292,36.053,23.257,35.912,23.215z"/>
	<polygon fill="#EC1C24" points="32.102,17.659 32.166,17.442 32.088,17.529 	"/>
	<path fill="#EC1C24" d="M33.319,19.293l0.631-0.098l-0.285-0.064C33.585,19.21,33.474,19.234,33.319,19.293z"/>
	<path fill="#EC1C24" d="M34.078,19.768c0.188,0.006,0.668,0.333,0.5,0.021C34.385,19.767,34.142,19.547,34.078,19.768z"/>
	<path fill="#EC1C24" d="M32.994,25.105c-0.082-0.227-0.407-0.104-0.459-0.308c-0.033,0.288-0.234,0.214,0.26,0.737
		C33.308,25.59,32.49,24.979,32.994,25.105z"/>
	<path fill="#EC1C24" d="M21.486,26.859c0.11-0.18,0.097-0.247,0.069-0.385l-0.192,0.495L21.486,26.859z"/>
	<polygon fill="#EC1C24" points="20.425,23.385 20.945,23.106 20.424,23.349 	"/>
	<path fill="#EC1C24" d="M19.104,22.078c0.003,0.072,0.154,0.098,0.157,0.171C19.106,22.15,19.775,21.787,19.104,22.078z"/>
	<path fill="#EC1C24" d="M11.408,21.187c0.028-0.111-0.184-0.537-0.142-0.437C11.215,20.732,11.386,21.115,11.408,21.187z"/>
	<polygon fill="#EC1C24" points="11.531,19.618 11.584,19.781 11.52,19.355 	"/>
	<path fill="#EC1C24" d="M11.749,19.389l-0.077-0.144l0.168,0.551c0.092-0.135,0.112-0.555,0.275-0.406
		C11.793,18.751,11.948,19.583,11.749,19.389z"/>
	<path fill="#EC1C24" d="M12.898,20.646c0.017,0.026,0.026,0.041,0.039,0.06c0.012-0.009,0.028-0.015,0.065-0.008
		C12.88,20.447,12.98,20.448,12.898,20.646z"/>
	<path fill="#EC1C24" d="M12.938,20.706C12.884,20.749,13.065,20.906,12.938,20.706L12.938,20.706z"/>
	<path fill="#EC1C24" d="M13.173,20.707c0.078,0.146,0.164,0.151,0.182,0.272c0.032-0.159-0.046-0.303-0.194-0.535L13.173,20.707z"
		/>
	<path fill="#EC1C24" d="M13.039,20.044c0.033,0.061,0.054,0.079,0.003-0.114L13.039,20.044z"/>
	<path fill="#EC1C24" d="M13.028,20.135c-0.071-0.199-0.013-0.004,0.006,0.15l0.005-0.241
		C12.984,19.942,12.896,19.728,13.028,20.135z"/>
	<path fill="#EC1C24" d="M12.733,19.75c-0.118,0.153,0.093,0.609,0.21,0.454C12.84,20.079,12.744,20.012,12.733,19.75z"/>
	<path fill="#EC1C24" d="M11.868,18.694l-0.139-0.169l0.038,0.243C11.749,18.647,11.956,18.9,11.868,18.694z"/>
	<path fill="#EC1C24" d="M13.549,20.228c0.07,0.084,0.164,0.149,0.252,0.357c-0.052-0.144-0.179-0.365-0.258-0.542L13.549,20.228z"
		/>
	<path fill="#EC1C24" d="M13.543,20.042l-0.008-0.278C13.443,19.768,13.476,19.889,13.543,20.042z"/>
	<polygon fill="#EC1C24" points="12.818,19.756 12.785,19.171 12.76,19.189 	"/>
	<polygon fill="#EC1C24" points="14.148,20.464 14.229,20.811 14.12,20.282 	"/>
	<path fill="#EC1C24" d="M14.351,20.316c0.071,0.285,0.235,0.436,0.264,0.618c0.042-0.073,0-0.326-0.037-0.553
		C14.574,20.518,14.509,20.509,14.351,20.316z"/>
	<path fill="#EC1C24" d="M14.577,20.381c0.001-0.073-0.009-0.174-0.044-0.336C14.535,20.12,14.556,20.247,14.577,20.381z"/>
	<path fill="#EC1C24" d="M13.715,19.773c0.041,0.082,0.145,0.3,0.232,0.374l-0.195-0.382L13.715,19.773z"/>
	<path fill="#EC1C24" d="M13.746,19.752l0.006,0.012c0.042-0.007,0.071-0.008,0.085-0.008
		C13.825,19.755,13.799,19.754,13.746,19.752z"/>
	<path fill="#EC1C24" d="M13.705,19.774l0.01-0.001C13.695,19.735,13.688,19.723,13.705,19.774z"/>
	<path fill="#EC1C24" d="M13.138,19.454c-0.037-0.242-0.024-0.524-0.266-0.819C12.943,18.921,13.082,19.089,13.138,19.454z"/>
	<path fill="#EC1C24" d="M13.33,19.245c0.045,0.104,0.123,0.249,0.142,0.37l-0.01-0.318L13.33,19.245z"/>
	<polygon fill="#EC1C24" points="13.457,19.152 13.462,19.296 13.51,19.316 	"/>
	<path fill="#EC1C24" d="M14.061,19.417c0.042,0.127,0.109,0.36,0.161,0.322c-0.028-0.188,0.011-0.221,0.05-0.27
		C14.186,19.415,14.113,19.395,14.061,19.417z"/>
	<path fill="#EC1C24" d="M13.977,19.711v-0.026C13.957,19.654,13.948,19.645,13.977,19.711z"/>
	<path fill="#EC1C24" d="M14.732,19.204l0.025,0.069l0.012,0C14.758,19.251,14.744,19.226,14.732,19.204z"/>
	<path fill="#EC1C24" d="M14.021,19.347c-0.072-0.06-0.057,0.047-0.031,0.178c0.015-0.052,0.036-0.091,0.07-0.108
		C14.041,19.36,14.026,19.323,14.021,19.347z"/>
	<path fill="#EC1C24" d="M14.598,19.804c-0.055-0.074-0.107-0.135-0.158-0.189C14.511,19.732,14.632,19.911,14.598,19.804z"/>
	<path fill="#EC1C24" d="M14.034,19.789c0.001,0.008,0.001,0.016,0.001,0.021C14.083,19.889,14.064,19.848,14.034,19.789z"/>
	<path fill="#EC1C24" d="M14.034,19.789c-0.002-0.065-0.025-0.17-0.044-0.263c-0.012,0.042-0.018,0.093-0.014,0.16
		C13.991,19.711,14.014,19.752,14.034,19.789z"/>
	<path fill="#EC1C24" d="M14.164,17.89c0.048-0.239,0.154,0.089,0.293,0.259c-0.236-0.437-0.111-0.729-0.41-1.392l-0.013,0.281
		c-0.045-0.104-0.073-0.287-0.142-0.37c0.142,0.37,0.172,0.752-0.08,0.396c0.021,0.313,0.567,1.496,0.92,2.14
		c-0.063-0.161-0.122-0.31-0.116-0.564C14.503,18.453,14.22,18.254,14.164,17.89z"/>
	<path fill="#EC1C24" d="M14.548,19.298l-0.009-0.061l-0.02,0.062c0.069,0.046,0.16,0.18,0.334,0.444
		c-0.009-0.205-0.051-0.347-0.096-0.471L14.548,19.298z"/>
	<path fill="#EC1C24" d="M14.347,19.371c-0.131-0.412-0.107-0.619-0.339-1.029c-0.102,0.073,0.056,0.366,0.059,0.566
		c0.143-0.173,0.037,0.244,0.261,0.417c-0.009,0.083-0.032,0.116-0.056,0.145c0.052,0.035,0.108,0.083,0.168,0.145l-0.015-0.023
		v0.002l-0.003-0.006c-0.027-0.046-0.043-0.076-0.021-0.05c-0.002-0.005,0-0.008,0-0.01c-0.02-0.057-0.036-0.106-0.053-0.154
		c0.086,0.062,0.051,0.101,0.053,0.154l0.021,0.06l0.003,0.004l0.095-0.292C14.458,19.259,14.414,19.29,14.347,19.371z"/>
	<path fill="#EC1C24" d="M12.665,17.826c0.017,0.117,0.025,0.324,0.185,0.485l-0.009-0.06c0.129,0.107,0.425,0.568,0.434,0.628
		c-0.166-0.351-0.288-0.6-0.479-0.933c0.009,0.061,0.063,0.226,0.003,0.202C12.712,18.043,12.721,17.957,12.665,17.826z"/>
	<path fill="#EC1C24" d="M13.535,18.555l0.072-0.257l-0.217-0.314l0.088,0.206C13.359,18.142,13.48,18.39,13.535,18.555z"/>
	<polygon fill="#EC1C24" points="14.867,19.464 15.018,19.894 14.864,19.263 	"/>
	<polygon fill="#EC1C24" points="15.044,19.333 15.185,19.704 15.147,19.461 	"/>
	<path fill="#EC1C24" d="M24.078,10.571c-0.025-0.106-0.049-0.182-0.065-0.184L24.078,10.571z"/>
	<path fill="#EC1C24" d="M25.938,9.142l-0.113-0.431C25.744,8.747,25.864,8.939,25.938,9.142z"/>
	<path fill="#EC1C24" d="M17.006,18.369c0.12,0.134,0.191,0.183,0.238,0.186C17.083,18.352,16.889,18.027,17.006,18.369z"/>
	<path fill="#EC1C24" d="M17.244,18.555c0.119,0.152,0.22,0.235,0.161-0.066c-0.028-0.035-0.043-0.054-0.067-0.083
		C17.324,18.49,17.305,18.561,17.244,18.555z"/>
	<path fill="#EC1C24" d="M32.475,6.891c0.013,0.016,0.02,0.024,0.033,0.042C32.488,6.877,32.48,6.877,32.475,6.891z"/>
	<path fill="#EC1C24" d="M35.979,10.197c-0.008,0.032-0.038,0.045-0.064,0.062C35.939,10.281,35.962,10.269,35.979,10.197z"/>
	<path fill="#EC1C24" d="M16.812,15.816l0.004,0C16.771,15.743,16.779,15.756,16.812,15.816z"/>
	<path fill="#EC1C24" d="M15.857,19.218c-0.022-0.011-0.037-0.018-0.052-0.024C15.827,19.263,15.849,19.303,15.857,19.218z"/>
	<path fill="#EC1C24" d="M15.909,19.189c0.01-0.012,0.023-0.027,0.05-0.046c-0.021,0.017-0.052,0.006-0.085-0.014
		C15.894,19.153,15.906,19.174,15.909,19.189z"/>
	<path fill="#EC1C24" d="M29.479,9.352c0.008,0.012,0.014,0.02,0.024,0.035C29.479,9.203,29.471,9.237,29.479,9.352z"/>
	<path fill="#EC1C24" d="M19.278,12.717c0.001,0.005,0.003,0.016,0.003,0.021l0.012,0.011L19.278,12.717z"/>
	<path fill="#EC1C24" d="M17.973,18.417c0.48,0.933,0.485,0.05,0.7,0.163l-0.185-0.472c0.11-0.014,0.152-0.187,0.2-0.425
		l-0.004-0.009c0.445,0.219,0.382,0.319,0.356,0.645c0.305-0.155,0.869-0.187,0.974,0.03c-0.208,0.251-0.475,0.051-0.269,0.375
		c-0.313,0.033-0.714,0.051-0.354-0.245c-0.157,0.031-0.324,0.006-0.481,0.032c-0.237,0.291,0.148,0.565,0.188,0.652
		c0.008-0.028,0.001-0.115,0.053-0.171c0,0,0.053,0.02,0.133,0.049c0.07,0.009,0.166,0.021,0.261,0.033
		c0.188,0.022,0.378,0.043,0.378,0.043c-0.146,0.121-0.299,0.134-0.447,0.146c0.076,0.049,0.301,0.013,0.38,0.098
		c-0.374,0.121-0.747,0.279-0.976,0.206l0.533,0.159c-0.149,0.085-0.367,0.34-0.519,0.353c-0.142,0.265,0.883,0.153,0.696,0.503
		c0.075-0.016,0.152-0.019,0.226,0.01c0.007,0.256-0.359,0.633,0.246,0.695l-0.592,0.413c0.231,0.146,0.739-0.534,1.124-0.29
		c0.307,0.16-0.52,0.315-0.666,0.474c0.377-0.012,1.131-0.071,0.69,0.366c-0.152-0.024-0.079-0.121-0.155-0.171l-0.293,0.316
		c-0.678,0.035-0.533-0.197-0.977,0.168c1.27-0.485,0.396,0.61,1.664,0.125l-0.22,0.22c0-0.037-0.077-0.013-0.077-0.05
		c-0.515,0.462,0.977-0.205,0.91,0.148c-0.046,0.163-0.176,0.369-0.368,0.321c0,0,0.111,0.053,0.224,0.105
		c0.109,0.048,0.22,0.096,0.22,0.096c0.016,0.109-0.204,0.196-0.222,0.083l0.308,0.472l-0.036,0.018
		c0.216-0.037,0.56-0.063,0.707-0.074c-0.115,0.235-0.146,0.024-0.276,0.153c0,0,0.381,0.065,0.381,0.065
		c-0.244,0.334-0.618,0.321-0.659,0.085c-1.019,1.098,0.376,0.018-0.025,1.139l-0.257-0.177c-0.54,0.721-0.216,0.778-0.432,1.526
		c0.141-0.322,0.654-1.611,1.058-1.517c-0.045,0.162-0.031,0.327,0.244,0.278c-0.366,0.384-0.205,0.466-0.099,0.655l-0.476,0.532
		c0.238,0.096,0.464-0.215,0.724-0.341c0.056,0.307-0.265,0.836-0.523,1.31c0.112,0.55,0.425-1.07,0.71-0.686
		c-0.027,0.587,0.254,0.585,0.64,0.519c-0.042,0.484-0.253,0.416-0.331,0.712c-0.001,0,0.39-0.397,0.39-0.397
		c0.012,0.063-0.087,0.237-0.137,0.324c0.185-0.07,0.384-0.755,0.582-0.73c0.188-0.359,0.132-0.069,0.067,0.333
		c0.007,0.287,0.08,0.632,0.462-0.006c-0.004,0.198-0.215,0.509-0.304,0.813c0.682-0.842,0.568-0.642,1.144-1.636
		c0,0,0.037,0.099,0.073,0.197c0.042,0.096,0.084,0.193,0.084,0.193c-0.074-0.488,0.366-1.279,0.63-1.89c0-0.039,0-0.07,0-0.107
		l0.056-0.022c-0.019,0.044-0.036,0.084-0.056,0.13c0.001,0.045,0.003,0.093,0.004,0.141c0.031-0.102,0.058-0.19,0.086-0.284
		l0.133-0.054c-0.032,0.221-0.098,0.481-0.188,0.751c-0.016-0.13-0.025-0.271-0.031-0.413c-0.15,0.48-0.336,1.019-0.408,1.452
		c0.042-0.097,0.103-0.189,0.159-0.251c-0.046,0.133-0.082,0.249-0.086,0.319c-0.002,0.073,0.07-0.108,0.162-0.321l-0.049,0.789
		l0.073-0.335c-0.012,0.005,0.462,0.295,0.474,0.291c0.469-0.963,0.725-2.207,1.08-2.668c-0.037,0.579,0.086,0.886,0.168,1.522
		c-0.222-0.618-0.404,0.463-0.732,0.453c0.156,0.011,0.131,0.339,0.088,0.468c0,0,0.137-0.216,0.273-0.433
		c0.122-0.21,0.244-0.42,0.244-0.42c0.043,0.529,0.158,0.346,0.34,0.498c-0.256-0.977,0.287-0.835,0.412-1.217
		c0.104,0.321,0.143,0.676-0.151,0.707c0.503,0.609,0.067-1.296,0.502-0.781c-0.058,0.032-0.105-0.004-0.076,0.168
		c0.056-0.345,0.448-0.248,0.48,0.055l-0.043,0.024c0.345-0.011,0.916-0.362,0.643-1.169c0.044,0.101,0.345,0.967,0.391,1.134
		l-0.37-1.979l0.169-0.068c0.314,0.718,0.695,1.56,0.63,1.896c0.11,0.067,0.244,0.145,0.298-0.155
		c-0.088-0.077-0.517-0.931-0.476-1.02c0.487,0.681,0.29,0.353,0.775,0.904c-0.132-0.116-0.48-1.211-0.351-1.224
		c0.046,0.166,0.433,1.045,0.436,1.172c0,0-0.008-0.073-0.019-0.182c-0.003-0.112-0.007-0.263-0.011-0.413
		c-0.015-0.297-0.052-0.585-0.052-0.585c0,0.218,0.39,0.871,0.638,1.113c-0.147-0.178,0.392-0.136,0.453-0.281l-0.317-0.153
		c0.586-0.053-0.442-1.526-0.089-1.605c0.124,0.2,0.814,1.213,1.153,1.229c-0.143-0.253-0.509-0.853-0.903-1.422
		c-0.027-0.04-0.054-0.077-0.081-0.116l0.36-0.146c0.063,0.08,0.128,0.159,0.187,0.241c0.398,0.544,0.68,1.113,0.78,1.455
		c0.377,0.129,0.34,0.281,0.605,0.142c0.352,0.191,0.202,0.423,0.121,0.476l0.898-0.148c-0.599-0.484-0.054-0.706-0.611-1.084
		c0.023-0.009-0.074,0.782-0.098,0.791c-0.543-0.504-1.223-1.564-0.803-1.605c0.356,0.145,1.081,0.854,1.292,1.011
		c-0.153-0.188-0.014-0.471,0.193-0.378l0.173,0.317c0.54,0.055-0.531-0.746,0.457-0.454c0.141-0.01,1.321,0.4,0.878,0.15
		c-0.656-0.23-1.883-0.849-2.899-1.388l0.234-0.095l0.313,0.159l0.039-0.024l-0.315-0.15l0.229-0.092
		c0.762,0.308,1.405,0.795,2.076,1.015c-0.223-0.108-0.424-0.271-0.484-0.325c0.252,0.04,0.568,0.25,0.735,0.232
		c0.004-0.012-0.008-0.04-0.039-0.083c-0.897-0.401-0.104-0.412-0.786-0.407c-0.33-0.296,0.094-0.143-0.043-0.401
		c-0.351-0.087-1.09-0.421-1.633-0.69l-0.081-0.2c0.021,0.003,0.058,0.011,0.074,0.013c-0.053-0.296,0.234-0.411,0.105-0.746
		c0.177-0.004,0.33-0.157,0.688-0.052c-0.157-0.068-0.434-0.136-0.495-0.244c0.56-0.188,0.205,0.262,0.921,0.144
		c-0.448-0.051-0.73-0.349-1.058-0.497c-0.638,0.055,0.007,0.328,0.353,0.524c-0.33-0.033-0.67-0.094-1.001-0.162l-0.382-0.945
		c0.178-0.258-0.303-0.772-0.059-1.214c-0.137,0.003-0.284-0.013-0.422,0.022l-0.496-1.229c0.071-0.024,0.135-0.034,0.215-0.072
		l-0.273-0.071l-0.006-0.016c0.106-0.037,0.273-0.048,0.344-0.129c-0.129,0.047-0.261,0.073-0.366,0.074l-0.104-0.255
		c0.009-0.009,0.013-0.016,0.022-0.025c-0.008-0.001-0.022,0.003-0.031,0.003l-0.095-0.234c0.01-0.012,0.03-0.01,0.036-0.025
		c-0.041,0-0.046-0.015-0.057-0.027l-1.456-3.604c0.229,0.034,0.457,0.068,0.644,0.012l-0.32-0.66l0.155-0.018
		c0.101,0.144,0.264,0.511,0.152,0.523c0.208,0.363,0.037-0.39-0.02-0.538c0.306,0.196,0.243,0.821,0.31,0.813l0.061-0.083
		l-0.051-0.072c-0.046-0.304-0.158-0.6-0.025-0.614c0.131,0.105,0.208,0.402,0.248,0.417c0.02,0.048,0.038,0.066,0.054,0.001
		l0.199-0.013l-0.287-0.507c-0.028-0.295,0.177-0.039-0.149-0.612c0.497,0.887,0.791,0.071,0.981,0.332
		c-0.049-0.435,0.062-0.472,0.214-0.478c-0.078-0.098-0.341-0.692-0.196-0.665c0.46,1.259,0.429,0.454,0.883,1.31
		c-0.322-0.559,0.268-0.278-0.202-1.067c0.136,0.062,0.193,0.462,0.384,0.726c0.034-0.574,0.63,0.109,0.847-0.167
		c-0.062-0.165-0.209-0.395-0.247-0.662l0.479,0.755c0.023-0.103-0.329-0.962,0.002-0.438c-0.07-0.131-0.175-0.33-0.158-0.396
		c0.874,0.571,0.867-1.107,2.032,0.158c-0.204-0.285-0.166-0.337-0.113-0.372c-0.067-0.06-0.161-0.403-0.258-0.621l0.482,0.519
		c-0.204-0.631,0.236-0.144,0.023-0.74l-0.031,0.136C35.95,8.82,35.37,8.07,35.026,7.175c0.207,0.832-0.763-1.047-0.49,0.153
		c-0.113-0.165-0.081-0.3-0.186-0.498c0.107,0.399,0.084,0.501-0.089,0.372l-0.026-0.099c-0.252,0.21-0.528-0.115-0.955-0.233
		L33.482,7.3c-0.094-0.031-0.164-0.163-0.242-0.259c0.189,0.699,0.212-0.042,0.436,0.723c-0.453-0.856-0.499,0.186-0.972-0.805
		c-0.11,0.038,0.236,0.496,0.127,0.533l-0.14-0.263l0.115,0.365c-0.094-0.029-0.269-0.359-0.365-0.591
		c0.028,0.021,0.022-0.084,0.033-0.112c-0.223-0.287-0.214,0.214-0.288,0.122l0.172,0.128c-0.189,0.376-0.694,0.16-0.753,0.833
		l0.105,0.199c-0.062,0.471-0.266-0.158-0.432,0.116l-0.012-0.053c0.036,0.226,0.015,0.355-0.061,0.358
		c-0.037-0.267-0.304-0.426-0.333-0.727c-0.069,0.507,0.015,0.371,0.17,1.203l-0.175-0.329c0.073,0.333,0.135,0.498,0.052,0.636
		c-0.021-0.335-0.287-0.493-0.336-0.928c-0.553-0.651-0.063,0.909-0.622-0.145c0.27,0.998,0.43,0.441,0.447,0.671
		c0.18,0.289,0.192,0.749,0.076,0.686c-0.089,0.011-0.627-1.163-0.82-1.064c0.021-0.003-0.006-0.076,0.016-0.08
		c-0.174-0.212-0.015,0.388-0.266,0.031c0.181,0.597-0.133,0.016,0.148,0.755l0.115-0.244c-0.026,0.234,0.223,1.132-0.117,0.786
		c-0.047-0.154-0.074-0.369-0.083-0.492c-0.138-0.196-0.039,0.183-0.181-0.019c-0.282-0.741,0.159-0.25,0.045-0.855
		c-0.18-0.288,0.003,0.618-0.262-0.2c0.327,1.044-0.249-0.048-0.073,0.779L28.84,8.613c0.007,0.078,0.046,0.304,0.002,0.309
		l-0.159-0.599c0.087,0.531-0.384-0.34-0.382-0.033c0.215-0.103,0.264,0.51,0.486,0.793c-0.034,0.699-0.621-1.087-0.841-0.753
		c0.017-0.079,0.262,0.202,0.279,0.432c-0.095-0.067-0.239-0.205-0.368-0.422c-0.165,0.173,0.214,0.44,0.237,0.745
		c-0.285-0.508-0.011,0.259-0.03,0.466l-0.182-0.447c-0.306-0.171,0.173,0.705,0.049,0.729c-0.029-0.025-0.06-0.047-0.088-0.067
		l-0.155-0.624l-0.044,0.204l-0.183-0.518c0.035,0.425-0.041,0.342-0.214,0.246c0.133,0.262,0.26,0.664,0.232,0.809
		c-0.012-0.077-0.023-0.157-0.079-0.247c0.021,0.105,0.031,0.19,0.033,0.258c-0.134-0.213-0.112-0.379-0.222-0.267
		c-0.08-0.293-0.187-0.658,0.043-0.271c-0.046-0.151-0.088-0.292-0.133-0.44c-0.198-0.275-0.217,0.006-0.267,0.031
		c0.026,0.009,0.061,0.023,0.099,0.082l0.041,0.704c-0.102-0.154-0.13-0.3-0.157-0.443c-0.022,0.066,0.031,0.283-0.016,0.347
		c-0.131-0.37-0.286-0.744-0.267-0.951L26.52,9.17c-0.077-0.153-0.277-0.393-0.306-0.538c-0.197-0.169,0.013,0.815-0.247,0.592
		c0.021,0.073,0.032,0.147,0.022,0.212c-0.171-0.027-0.474-0.423-0.436,0.141l-0.356-0.615c-0.068,0.2,0.457,0.771,0.344,1.103
		c-0.067,0.269-0.281-0.533-0.407-0.693c0.058,0.359,0.197,1.081-0.155,0.606c-0.004-0.141,0.071-0.059,0.095-0.125l-0.252-0.318
		c-0.112-0.646,0.063-0.479-0.242-0.947c0.494,1.266-0.358,0.295,0.135,1.56L24.537,9.91c0.025,0.004-0.002-0.071,0.023-0.066
		c-0.189-0.273-0.123-0.037-0.039,0.256c-0.053-0.049-0.097-0.064-0.138-0.065L24.215,9.65l-0.025-0.004l0.188,0.388
		c-0.169,0.002-0.244,0.329-0.319,0.261l0.235,0.102c-0.013,0.015-0.028,0.025-0.042,0.039c0.002-0.002,0.001-0.011,0.005-0.01
		l-0.029,0.033c-0.047,0.044-0.096,0.084-0.147,0.118l-0.002-0.005c0,0.001,0.001,0.003,0.001,0.005
		c-0.032,0.021-0.064,0.042-0.099,0.06c-0.586-1.155,0.043,0.377-0.479-0.258l0.044-0.204c-0.358-0.686-0.338-0.393-0.641-0.789
		c0.123,0.221,0.698,1.023,0.7,1.388c-0.063-0.07-0.116-0.087-0.106,0.088c-0.01,0.005-0.019,0.009-0.027,0.014
		c-0.147-0.337-0.176-0.236-0.242-0.182l-0.234-0.595c-0.019,0.207,0.11,0.506,0.166,0.794c-0.122-0.019-0.328-0.47-0.508-0.848
		c-0.196-0.03,0.406,0.692,0.265,0.88c-0.223-0.174-0.218,0.105-0.231,0.524c-0.174-0.167-0.13-0.369-0.231-0.526l0.109,0.506
		c-0.024-0.003-0.077-0.151-0.104-0.226c0.005,0.178,0.159,0.474,0.185,0.687c-0.073-0.02-0.152-0.042-0.242-0.034
		c-0.14-0.166-0.263-0.269-0.193,0.072c0,0-0.001,0-0.001,0.001c-0.099-0.155-0.13-0.367-0.231-0.59
		c0.011,0.489-0.008,0.443,0.063,0.898c-0.022,0.037-0.061,0.057-0.097,0.077l-0.151-0.18c0.044,0.065,0.076,0.14,0.11,0.212
		c-0.006,0.002-0.008,0.011-0.015,0.012c-0.013-0.167-0.221-0.25-0.386-0.357l-0.062-0.131l0.043,0.117
		c-0.098-0.066-0.18-0.14-0.179-0.255c-0.028,0.06-0.048,0.107-0.067,0.152l-0.087-0.073c0.011,0.07,0.024,0.146,0.037,0.222
		c-0.031,0.127-0.006,0.201,0.057,0.316c0.026,0.147,0.054,0.296,0.079,0.444l-0.176-0.126c0.145,0.304,0.276,0.441,0.126,0.605
		c-0.024-0.123-0.132-0.202-0.253-0.278c-0.055-0.125-0.113-0.26-0.176-0.419c0.314,0.581,0.09-0.336,0.27-0.266
		c-0.094-0.036-0.189-0.316-0.211-0.418l-0.008,0.646c-0.185-0.472-0.191-0.333-0.33-0.502c0.246,0.533,0.229,0.676,0.179,0.769
		c-0.098-0.076-0.185-0.163-0.22-0.293c-0.007-0.002-0.01-0.001-0.017-0.002c0.004-0.048,0.02-0.08,0.063-0.071
		c-0.156-0.247-0.152-0.137-0.109,0.063c-0.564-0.141-0.643,0.085-0.664,0.258c-0.017,0.096-0.029,0.173-0.143,0.178
		c-0.047-0.129-0.087-0.238-0.104-0.284l0.075,0.282c-0.036-0.002-0.08-0.01-0.135-0.024l-0.183-0.554
		c0.139,0.527,0.077,0.48-0.015,0.393l0.052,0.113c-0.016-0.005-0.03-0.01-0.047-0.017c-0.006-0.036-0.017-0.08-0.017-0.108
		c-0.072-0.068-0.152-0.13-0.172,0.03c-0.033-0.014-0.061-0.025-0.098-0.042c0.034,0.034,0.062,0.051,0.094,0.08
		c0,0.016-0.004,0.021-0.004,0.04c0.032,0.04,0.139,0.253,0.24,0.476c-0.06-0.021-0.119-0.042-0.18-0.06
		c-0.048-0.063-0.115-0.152-0.247-0.347c0.031,0.038,0.088,0.166,0.148,0.322c-0.038-0.01-0.074-0.02-0.111-0.028
		c-0.047-0.124-0.083-0.222-0.088-0.256l0.054,0.248c-0.063-0.014-0.12-0.024-0.179-0.033c-0.052-0.104-0.101-0.197-0.14-0.266
		c0.101,0.196-0.162,0.043-0.168,0.165L18.5,13.15c-0.07,0.003-0.139,0.01-0.19,0.033c0.054-0.017-0.033-0.065,0.021-0.082
		c-0.039-0.006-0.062-0.005-0.089-0.005c0.007-0.112,0.01-0.156-0.209-0.616c-0.223-0.174,0.204,0.595-0.028,0.36
		c0.04,0.158,0.111,0.192,0.168,0.259c-0.138,0.031-0.023,0.186-0.179,0.223v0c-0.173-0.211-0.166-0.352-0.268-0.278
		c-0.155-0.271-0.114-0.459-0.088-0.489l-0.337-0.079c0.182,0.428,0.142,0.604,0.168,0.84c-0.01-0.01-0.014-0.019-0.026-0.03
		c-0.157-0.037-0.213-0.011-0.229,0.033c0.017,0.019,0.036,0.039,0.056,0.059c-0.068-0.064-0.067,0.032-0.054,0.157
		c-0.059-0.027-0.119-0.056-0.201-0.097c0.076,0.038,0.141,0.072,0.202,0.105c0.025,0.224,0.085,0.53-0.146,0.186
		c-0.059-0.022-0.452-0.751-0.311-0.379c0.152,0.291,0.403,0.858,0.654,1.454c-0.109,0.089-0.222,0.178-0.009,0.354
		c-0.082-0.191-0.044-0.254,0.047-0.264c0.094,0.224,0.187,0.447,0.273,0.664c-0.058,0.022-0.104,0.052-0.136,0.091l-0.117-0.313
		l-0.025,0.019l0.127,0.311c-0.048,0.078-0.035,0.192,0.079,0.363c-0.042-0.043-0.026-0.099,0.009-0.149l0.131,0.32
		c-0.017,0.009-0.025,0.021-0.043,0.029c-0.097-0.129-0.189-0.259-0.252-0.368c-0.297-0.529-0.432-1.372-0.685-1.827
		c0.065,0.171,0.111,0.397,0.123,0.471c-0.104-0.127-0.194-0.535-0.262-0.418c0.239,0.639-0.221,0.027,0.17,0.553
		c-0.023,0.219-0.154-0.089-0.256-0.016c0.2,0.394,0.46,1.431,0.437,1.649c-0.059-0.163-0.165-0.363-0.214-0.455
		c-0.22,0.022-0.44-0.222-0.626-0.154c-0.079-0.146-0.242-0.296-0.314-0.583c0.02,0.123,0.081,0.347,0.031,0.385
		c-0.33-0.502,0.092-0.136-0.257-0.759c0.141,0.37,0.059,0.565,0.07,0.827c0.254,0.558,0.23,0.034,0.218-0.228
		c0.316,0.782,0.508,1.658,0.462,2.098c-0.073,0.255-0.271-0.479-0.251-0.357c-0.342-0.021,0.308,1.465-0.157,0.996
		c-0.296-0.461-0.405-0.99-0.571-1.342c0.048-0.238,0.318,0.24,0.395,0.186l-0.199-0.194c-0.027-0.182,0.005-0.341,0.108-0.215
		c-0.26-0.416-0.518,0.109-0.905-0.216c0.028,0.184,0.03,0.384,0.144,0.571L15,16.734c0.227,0.376,0.093,0.609,0.257,0.761
		c0.021,0.32,0.095,0.807-0.128,0.633l-0.255-0.559c0.07,0.165,0.223,0.304,0.19,0.116c0.047,0.273-0.513-0.688-0.272,0.08
		l0.251,0.356c0.021,0.324,0.149,0.975-0.04,0.842c0.28,0.54,0.001-0.075,0.35,0.548c-0.402-0.788,0.313-0.086-0.15-0.898
		c0.394,0.728,0.278,0.264,0.652,0.869c-0.079-0.187-0.185-0.343-0.049-0.29c-0.016-0.058-0.034-0.131-0.046-0.174l0.013,0.011
		l-0.015-0.02c-0.007-0.03-0.009-0.036-0.005-0.007c-0.057-0.072-0.115-0.164-0.165-0.265c-0.125-0.45,0.036-0.5-0.001-0.744
		c0.094,0.065,0.063,0.225,0.175,0.412l-0.056-0.365c0.176,0.414,0.434,0.63,0.396,0.929l0.131-0.031
		c0.166,0.204,0.304,0.256,0.295,0.057c0.095,0.067-0.039-0.52,0.041-0.174l0.09-0.336l0.044,0.104
		c0.212-0.024,0.114-0.848,0.636-0.185c0.021-0.131,0.036-0.286,0.191-0.211l0.166,0.352C17.728,18.387,18.089,18.807,17.973,18.417
		z M22.096,25.292c-0.109,0-0.424,0.055-0.22-0.2C22.354,24.801,22.166,25.041,22.096,25.292z M26.063,26.338
		c0.064-0.068,0.124-0.073,0.183,0.036C26.18,26.573,26.112,26.515,26.063,26.338z M31.143,12.183l-0.074-0.106
		C31.078,11.922,31.107,12.046,31.143,12.183z M16.221,18.639c-0.001-0.008-0.003-0.014-0.005-0.023
		C16.354,18.763,16.303,18.704,16.221,18.639z M18.604,14.352c-0.009-0.022-0.017-0.042-0.025-0.065
		C18.601,14.313,18.609,14.335,18.604,14.352z M18.667,17.632l-0.154-0.362c-0.03-0.384,0.395,0.185,0.546,0.074
		c0.007,0.021,0.008,0.032,0.011,0.047c-0.097-0.017-0.168-0.029-0.168-0.029l0.147,0.126c0.041,0.053,0.077,0.096,0.106,0.12
		L18.667,17.632z M19.672,17.484c0,0-0.168-0.024-0.346-0.049c0.008-0.065,0.013-0.136,0.02-0.201
		C19.572,17.24,19.76,17.26,19.672,17.484z M24.522,10.104c0.047,0.166,0.095,0.339,0.108,0.457
		c-0.07-0.104-0.136-0.226-0.181-0.331C24.488,10.246,24.502,10.137,24.522,10.104z M23.611,10.78
		c-0.008-0.106-0.063-0.421,0.065-0.166c0.019,0.058,0.032,0.103,0.045,0.143c-0.032,0.014-0.063,0.027-0.096,0.042
		C23.621,10.792,23.616,10.786,23.611,10.78z M19.859,13.137c-0.013,0.104-0.008,0.228,0.027,0.38
		c-0.008-0.003-0.015-0.005-0.022-0.008c-0.041-0.112-0.088-0.24-0.136-0.369C19.776,13.144,19.821,13.143,19.859,13.137z
		 M19.678,13.133l0.09,0.34c-0.034-0.013-0.07-0.026-0.105-0.04l-0.11-0.334C19.597,13.115,19.639,13.127,19.678,13.133z
		 M19.323,12.98c0.036,0.024,0.067,0.04,0.101,0.057l0.168,0.37c-0.049-0.018-0.098-0.035-0.148-0.053
		C19.394,13.216,19.351,13.088,19.323,12.98z M18.609,13.763c0.036,0.152,0.08,0.318,0.121,0.478
		c-0.076-0.052-0.158-0.105-0.216-0.148c-0.007,0-0.007,0.002-0.013,0.002c-0.002-0.005-0.004-0.011-0.006-0.017
		c0.007,0.006,0.011,0.009,0.019,0.015c0.015,0,0.024,0.001,0.045,0.001c-0.037-0.025-0.054-0.036-0.079-0.052
		c-0.021-0.052-0.043-0.104-0.064-0.153c0,0,0,0,0.001,0c-0.001-0.001-0.001-0.002-0.003-0.003
		c-0.015-0.036-0.029-0.067-0.045-0.101l0.117-0.206C18.491,13.625,18.543,13.691,18.609,13.763z M18.274,13.824
		c0.046,0.15,0.098,0.32,0.153,0.506c-0.094-0.04-0.173-0.078-0.237-0.114c-0.041-0.174-0.078-0.337-0.11-0.485
		C18.133,13.757,18.197,13.789,18.274,13.824z M17.494,13.624c-0.003-0.008-0.006-0.015-0.008-0.022
		C17.493,13.612,17.494,13.618,17.494,13.624z M17.991,14.431c0.002,0.024,0.005,0.047,0.005,0.069l-0.222-0.076
		c-0.083-0.215-0.173-0.482-0.245-0.697C18.021,14.068,17.403,14.028,17.991,14.431z M17.801,14.493
		c0.067,0.045,0.133,0.093,0.188,0.138c-0.003,0.019-0.004,0.045-0.009,0.058l-0.119-0.058
		C17.842,14.591,17.822,14.544,17.801,14.493z M17.733,13.309c-0.028-0.005-0.046-0.005-0.079-0.012
		c0.039,0.024,0.067,0.043,0.096,0.063c0.067,0.209,0.127,0.43,0.172,0.637c-0.114-0.149-0.14-0.304-0.343-0.51l0.018-0.551
		C17.643,13.044,17.688,13.174,17.733,13.309z M17.271,13.379c0.056,0.057,0.117,0.115,0.164,0.163
		c0.002,0.031,0.001,0.057-0.001,0.084c-0.03-0.01-0.076-0.028-0.134-0.053L17.271,13.379z M17.43,13.662
		c-0.016,0.105-0.058,0.167-0.104,0.081l-0.023-0.154C17.348,13.614,17.393,13.639,17.43,13.662z M18.4,15.078
		c0.254,0.215,0.232,0.306,0.088,0.351C18.459,15.313,18.43,15.195,18.4,15.078z M17.672,15.866c0.032-0.04,0.08-0.065,0.146-0.081
		c0.042,0.106,0.086,0.214,0.123,0.311c-0.04,0.038-0.091,0.069-0.146,0.099L17.672,15.866z M18.085,16.478
		c0.045,0.123,0.081,0.228,0.104,0.301c-0.015-0.019-0.12-0.144-0.244-0.299C17.992,16.497,18.038,16.491,18.085,16.478z"/>
	<polygon fill="#EC1C24" points="25.96,9.222 25.967,9.225 25.938,9.142 	"/>
	<path fill="#EC1C24" d="M16.664,13.824c0.055,0.052,0.104,0.127,0.149,0.208C16.771,13.921,16.72,13.834,16.664,13.824z"/>
	<path fill="#EC1C24" d="M15.46,19.299c0.044,0.104,0.123,0.248,0.098,0.267l0.044-0.153C15.566,19.453,15.511,19.361,15.46,19.299z
		"/>
	<path fill="#EC1C24" d="M13.652,17.116c0.009,0.06-0.026,0.017-0.017,0.078l0.087,0.206C13.774,17.364,13.746,17.18,13.652,17.116z
		"/>
	<path fill="#EC1C24" d="M14.873,18.113c-0.159-0.373-0.164-0.223-0.2-0.127c0.004-0.003,0.006-0.008,0.012-0.004
		C14.878,18.515,14.876,18.314,14.873,18.113z"/>
	<path fill="#EC1C24" d="M14.664,18.004c-0.013,0.025-0.029,0.044-0.056,0.033C14.687,18.251,14.65,18.072,14.664,18.004z"/>
	<path fill="#EC1C24" d="M15.922,18.824c-0.069-0.084,0.176,0.489,0.097,0.342C16.179,19.659,15.985,18.506,15.922,18.824z"/>
	<polygon fill="#EC1C24" points="14.416,16.96 14.321,16.894 14.531,17.35 	"/>
	<path fill="#EC1C24" d="M14.961,17.033l-0.154-0.088c0.033,0.077,0.039,0.128,0.037,0.17
		C14.912,17.104,15.019,17.169,14.961,17.033z"/>
	<path fill="#EC1C24" d="M14.793,17.224c0.016-0.012,0.048-0.042,0.051-0.109C14.808,17.119,14.78,17.141,14.793,17.224z"/>
	<polygon fill="#EC1C24" points="14.559,16.789 14.403,16.699 14.473,16.784 	"/>
	<path fill="#EC1C24" d="M16.146,16.503c-0.053-0.164-0.122-0.249-0.138-0.169c0.018,0.122,0.002,0.2,0.081,0.347L16.146,16.503z"/>
	<path fill="#EC1C24" d="M15.431,15.878L15.202,15.3l0.037,0.244C15.309,15.628,15.353,15.732,15.431,15.878z"/>
	<path fill="#EC1C24" d="M15.358,14.849c0.053,0.163-0.005,0.34,0.15,0.431C15.455,15.115,15.484,14.756,15.358,14.849z"/>
	<polygon fill="#EC1C24" points="36.493,10.579 36.657,10.742 36.475,10.446 	"/>
	<path fill="#EC1C24" d="M36.466,9.841c-0.008,0.035-0.024,0.102-0.094-0.028l0.263,0.594L36.466,9.841z"/>
	<path fill="#EC1C24" d="M23.09,9.973l-0.203-0.312l0.053,0.147C23.016,9.96,23.04,9.964,23.09,9.973z"/>
	<path fill="#EC1C24" d="M24.896,8.567c-0.048-0.007-0.046,0.133-0.095,0.126C24.848,8.561,25.18,9.242,24.896,8.567z"/>
</g>
</svg>
