<?xml version="1.0" encoding="utf-8"?>
<!-- Generator: Adobe Illustrator 16.0.3, SVG Export Plug-In . SVG Version: 6.00 Build 0)  -->
<!DOCTYPE svg PUBLIC "-//W3C//DTD SVG 1.1//EN" "http://www.w3.org/Graphics/SVG/1.1/DTD/svg11.dtd">
<svg version="1.1" id="Layer_8" xmlns="http://www.w3.org/2000/svg" xmlns:xlink="http://www.w3.org/1999/xlink" x="0px" y="0px"
	 width="72px" height="100px" viewBox="0 0 72 100" enable-background="new 0 0 72 100" xml:space="preserve">
<g>
	<path fill="#EC1C24" d="M55.021,63.525c-0.17-0.248-0.423,0.027-0.355-0.009C54.707,63.69,54.961,63.521,55.021,63.525z"/>
	<polygon fill="#EC1C24" points="52.959,61.086 53.092,61.088 52.656,60.805 	"/>
	<path fill="#EC1C24" d="M52.411,59.97l-0.077,0.117l0.458,0.049c-0.277-0.519-0.813-1.124-0.834-1.558
		C51.582,59.003,52.398,59.454,52.411,59.97z"/>
	<path fill="#EC1C24" d="M52.509,57.165c0.008-0.039,0.016-0.052,0.024-0.075c-0.024-0.055-0.054-0.13-0.092-0.26
		C52.291,56.986,52.167,56.603,52.509,57.165z"/>
	<path fill="#EC1C24" d="M52.533,57.089C52.651,57.347,52.618,56.854,52.533,57.089L52.533,57.089z"/>
	<path fill="#EC1C24" d="M52.346,55.841c-0.234-0.321-0.312-0.205-0.408,0.07l0.305,0.283
		C52.321,56.077,52.221,55.758,52.346,55.841z"/>
	<path fill="#EC1C24" d="M51.461,55.72l0.142,0.15C51.637,55.822,51.632,55.768,51.461,55.72z"/>
	<path fill="#EC1C24" d="M51.727,56.026c-0.152,0.026,0.011,0.046,0.177,0.168l-0.301-0.324
		C51.547,55.953,51.396,56.02,51.727,56.026z"/>
	<path fill="#EC1C24" d="M51.626,56.672c0.332,0.64,0.625,0.409,0.291-0.231C51.893,56.676,51.93,56.956,51.626,56.672z"/>
	<path fill="#EC1C24" d="M51.419,58.644l-0.034,0.317l0.25,0.163C51.511,59.042,51.561,58.568,51.419,58.644z"/>
	<path fill="#EC1C24" d="M51.191,54.159c0.016-0.161-0.021-0.438,0.122-0.513c-0.11,0.017-0.221,0.225-0.339,0.302L51.191,54.159z"
		/>
	<path fill="#EC1C24" d="M50.974,53.948l-0.327-0.316C50.764,53.983,50.872,54.012,50.974,53.948z"/>
	<polygon fill="#EC1C24" points="50.858,55.748 50.912,55.869 51.527,56.354 	"/>
	<polygon fill="#EC1C24" points="50.733,52.172 51.054,52.296 50.547,52.047 	"/>
	<path fill="#EC1C24" d="M50.726,50.984c-0.14-0.25-0.397-0.41-0.626-0.555c0.17,0.185,0.242,0.423,0.202,0.784
		C50.559,51.297,50.538,50.862,50.726,50.984z"/>
	<path fill="#EC1C24" d="M49.745,50.176c0.089,0.089,0.218,0.168,0.354,0.253C50.009,50.333,49.899,50.246,49.745,50.176z"/>
	<path fill="#EC1C24" d="M50.376,52.802c0.018,0.048,0.037,0.102,0.057,0.156c0.049-0.056,0.186-0.178,0.165-0.419L50.376,52.802z"
		/>
	<path fill="#EC1C24" d="M50.368,52.812l0.008-0.01c-0.057-0.166-0.099-0.282-0.115-0.331
		C50.274,52.514,50.307,52.615,50.368,52.812z"/>
	<path fill="#EC1C24" d="M50.447,52.995l-0.014-0.037C50.411,52.982,50.406,52.995,50.447,52.995z"/>
	<path fill="#EC1C24" d="M50.764,54.757c-0.248-0.162-0.608-0.565-0.664-0.014C50.356,54.828,50.389,54.513,50.764,54.757z"/>
	<path fill="#EC1C24" d="M50.268,53.758c0.072-0.036,0.151-0.154,0.275-0.074l-0.373-0.36L50.268,53.758z"/>
	<polygon fill="#EC1C24" points="49.998,53.161 50.17,53.325 50.132,53.165 	"/>
	<path fill="#EC1C24" d="M49.762,50.981c-0.193-0.126-0.282-0.316-0.39-0.526c0.041,0.255,0.107,0.51,0.199,0.738
		C49.673,51.191,49.871,51.228,49.762,50.981z"/>
	<path fill="#EC1C24" d="M50.032,51.882l-0.031-0.034C49.986,51.882,49.987,51.906,50.032,51.882z"/>
	<polygon fill="#EC1C24" points="48.513,48.309 48.476,48.364 48.529,48.351 	"/>
	<path fill="#EC1C24" d="M49.534,51.254c0.016,0.198,0.128,0.276,0.254,0.339c-0.08-0.12-0.154-0.251-0.217-0.4
		C49.526,51.196,49.499,51.205,49.534,51.254z"/>
	<path fill="#EC1C24" d="M49.372,49.629c-0.021,0.115-0.03,0.241-0.032,0.367C49.394,49.871,49.46,49.631,49.372,49.629z"/>
	<path fill="#EC1C24" d="M50.054,51.758l0.023,0.021C50.115,51.696,50.089,51.717,50.054,51.758z"/>
	<path fill="#EC1C24" d="M50.054,51.758c-0.076-0.075-0.174-0.117-0.266-0.165c0.065,0.1,0.135,0.185,0.212,0.254
		C50.011,51.819,50.034,51.785,50.054,51.758z"/>
	<path fill="#EC1C24" d="M48.758,49.144l0.099,0.151c-0.031-0.207,0.019-0.385,0.124-0.716c-0.238-0.227-0.358-0.244-0.452-0.229
		l0.291,0.833L48.758,49.144z"/>
	<path fill="#EC1C24" d="M48.33,50.044c0.216,0.479,0.375,0.245,0.615,0.487c-0.387-0.758,0.25,0.161,0.183-0.471
		c0.109,0.135,0.181,0.268,0.244,0.394c-0.021-0.155-0.033-0.309-0.032-0.458l-0.011,0.025l0.003,0.002l-0.005,0
		c-0.022,0.049-0.04,0.068-0.033,0.021c-0.005,0-0.009-0.011-0.013-0.012c-0.042,0.01-0.081,0.008-0.121,0.007
		c-0.033-0.251,0.06-0.066,0.121-0.007l0.046-0.009l0.002-0.003l-0.472-0.727c0.027,0.184,0.119,0.388,0.3,0.746
		C48.821,50.028,48.54,49.676,48.33,50.044z"/>
	<path fill="#EC1C24" d="M49.316,54.569c0.017-0.034,0.038-0.042,0.057-0.051C49.317,54.481,49.287,54.471,49.316,54.569z"/>
	<path fill="#EC1C24" d="M49.359,54.175c0.063,0.042,0.197,0.045,0.241,0.241c-0.021,0.196-0.137,0.054-0.227,0.101
		c0.121,0.082,0.363,0.31,0.358-0.096l-0.06-0.041c-0.029-0.357,0.162-0.907,0.222-0.866C49.676,53.708,49.525,53.864,49.359,54.175
		z"/>
	<path fill="#EC1C24" d="M48.66,51.947l0.142-0.075c0.092,0.395,0.243,0.242,0.375,0.242l-0.403-0.599L48.66,51.947z"/>
	<polygon fill="#EC1C24" points="48.624,48.177 48.96,48.143 48.383,47.934 	"/>
	<polygon fill="#EC1C24" points="48.272,47.103 48.246,47.338 48.52,47.264 	"/>
	<path fill="#EC1C24" d="M28.485,43.409l-0.158,0.007c-0.165,0.288-0.372,0.68-0.032,0.729l0.321-0.028
		c-0.172-0.304-0.242-0.524-0.252-0.687L28.485,43.409z"/>
	<path fill="#EC1C24" d="M43.805,37.345c-0.332,0.004-0.644,0.073-0.925,0.171C43.331,37.526,43.555,37.722,43.805,37.345z"/>
	<path fill="#EC1C24" d="M40.555,72.014c0.2,0.07,0.304,0.066,0.342,0.008C40.705,71.954,40.572,71.932,40.555,72.014z"/>
	<path fill="#EC1C24" d="M41.7,37.992c0.073,0.004,0.142-0.007,0.212-0.007c0.296-0.176,0.608-0.345,0.968-0.468
		C42.558,37.503,42.111,37.596,41.7,37.992z"/>
	<path fill="#EC1C24" d="M55.335,66.661c0.003-0.07-0.026-0.18-0.116-0.355C55.26,66.387,55.297,66.527,55.335,66.661z"/>
	<path fill="#EC1C24" d="M46.994,43.857C47.084,44.029,47.036,43.872,46.994,43.857L46.994,43.857z"/>
	<path fill="#EC1C24" d="M46.972,44.181c0.008-0.083,0.006-0.174-0.007-0.267C46.958,43.963,46.957,44.042,46.972,44.181z"/>
	<path fill="#EC1C24" d="M47.094,44.09c0.015,0.067,0.024,0.119,0.035,0.168C47.186,44.263,47.208,44.231,47.094,44.09z"/>
	<path fill="#EC1C24" d="M46.878,43.61c0.044,0.103,0.07,0.204,0.087,0.304c0.005-0.042,0.015-0.063,0.029-0.057
		C46.969,43.803,46.934,43.73,46.878,43.61z"/>
	<path fill="#EC1C24" d="M56.676,76.435c-0.126-0.019-0.316,0.207-0.503-0.079l0.62-0.723c-0.066-0.268-0.716-0.225-0.311-0.727
		c-0.103,0.073-0.256,0.181-0.306,0.005c0.517-2.714-0.931-5.27-0.535-8.168c-0.143,0.423-0.228,0.188-0.306-0.083
		c-0.009,0.193-0.3,0.077-0.453,0.158c0,0,0.043-0.308,0.085-0.614c0.036-0.307,0.046-0.615,0.046-0.615
		c-0.516-0.05-0.438-1.154-0.898-1.111l0.193,0.31c-0.349-0.138-0.582,0.167-0.826,0.499c-0.117-0.334-0.241-0.667-0.373-0.996
		c-1.903-4.738-3.984-9.92-5.751-14.322c0.01,0.02,0.019,0.042,0.041,0.056l0.142-0.075c-0.095-0.209-0.241-0.313-0.252-0.155
		c-0.08-0.199-0.159-0.396-0.238-0.591c0.365,0.26,1.09-0.319,1.426-0.839c-0.119,0.033-0.226,0.075-0.542-0.267
		c-0.086,0.2,0.026,1.031-0.348,0.785c-0.351-0.482-0.083-0.475-0.05-0.791c-0.209,0.311-0.633-0.31-1.029-0.242
		c-0.472-1.176-0.911-2.269-1.307-3.254c0.047,0.004,0.088-0.009,0.113-0.066l-0.17-0.282c0.175-0.394,0.624,0.408,0.604-0.027
		c0.363,0.324,0.861,0.65,0.929,1.283l-0.362,0.27c0.112-0.06,0.091-0.468-0.096-0.579c0.274,0.165-0.198,1.092,0.437,1.14
		l0.12-0.513c0.368,0.323,0.998,0.654,1.073,1.209c0.307-0.39-0.093-0.098,0.232-0.645c-0.458,0.545-0.494-1.3-0.906-0.555
		c0.396-0.586-0.024-0.728,0.245-1.395c-0.127,0.067-0.188,0.272-0.292-0.178c-0.047-0.003-0.115-0.029-0.154-0.045
		c-0.002-0.015-0.002-0.02-0.002-0.033l-0.006,0.029c-0.027-0.009-0.032-0.008-0.003,0.012c-0.017,0.125-0.055,0.234-0.115,0.297
		c-0.392-0.088-0.652-0.765-0.902-0.928c-0.037-0.276,0.195,0.044,0.283-0.151l-0.375-0.244c0.284-0.154,0.227-0.866,0.638-0.343
		l-0.202-0.538c0.041-0.38-0.066-0.839-0.298-1.057c-0.112-0.464-0.74-0.892-0.374-0.654l-0.713-1.242l0.056-0.078
		c-0.266-0.713-0.642-1.28-0.957-1.894c-0.721,0.356-1.354,0.603-2.092,0.594c-0.47,0.275-0.902,0.556-1.676,0.768l-0.242-0.202
		c-0.453,0.286-1.209,0.188-1.284,0.527c-0.662-0.536-1.79,0.544-2.468,0.673l0.112,0.346c-0.438,0.153-0.813,0.415-1.295,0.763
		l0.152,0.284c-0.363,0.427-1.271,0.265-1.988,0.59c0.003-0.135,0.201-0.179,0.36-0.163c-0.61-0.146-0.85,0.093-1.631,0.574
		c-0.651,0.43-1.112,0.809-1.984,0.875c-0.191,0.204-0.442,0.262-0.757,0.3c0.028-0.01,0.048-0.024,0.057-0.041
		c-0.034,0.014-0.082,0.03-0.132,0.05c-0.209,0.025-0.439,0.052-0.65,0.08c0.235-0.012,0.438-0.024,0.583-0.05
		c-0.118,0.051-0.259,0.121-0.402,0.202c0.091,0.172,0.199,0.358,0.316,0.545l-0.366,0.012c0.017,0.033,0.029,0.055,0.048,0.089
		c-0.005,0.331,0.31,0.34,0.554,0.251c0.136,0.193,0.281,0.366,0.424,0.502c-0.529,0.169,0.544,0.859,0.054,1.222
		c0.2,0.112,0.432,0.54,0.687,0.926c0.277,0.438,0.469,0.553,0.786,0.531c-0.07,0.039-0.079,0.118-0.132-0.002
		c0.038,0.277,0.074,0.554,0.323,0.718l-0.362,0.27l0.765,0.331c-0.112,0.435-0.201,0.631-0.646,0.423
		c0.802,0.609,0.442,0.577,1.19,1.069l-0.274,0.072c0.107,0.239,0.614,0.487,0.459,0.722c-0.279,0.745,1.012,2.724,1.112,4.308
		c0.661-0.581-0.084,0.788,0.535,0.603c-0.15,0.155-0.174,0.393-0.424,0.229c0.465,0.642,0.143,1.188,0.843,1.48
		c-0.149,0.154-0.327-0.046-0.407,0.069c0.063,0.042,0.248,0.164,0.171,0.282c-0.08,0.116-0.196-0.044-0.32-0.124
		c0.324,0.716,0.915,0.564,1.462,0.406c-0.101,0.47,0.008,0.641,0.46,0.769c-0.12,0.197-0.215,0.484-0.457,0.056
		c0.077,0.265,0.371,1.658,0.804,1.515c-0.075,0.121,0.111,0.367,0.188,0.415c0.205,0.582,0.186,0.648,0.451,1.194l0.007-0.184
		c0.598,0.018,0.301,0.421,0.545,0.851l-0.059,0.006c0.05,1.185,0.356,0.379,0.349,1.571l0.295-0.183
		c0.719-0.179-0.038,1.069,0.46,1.559l0.095-0.29c0.362,0.233-0.563,1.282-0.517,1.643c-0.031,0.093-0.14-0.075-0.224-0.157
		c-0.06,1.016,0.458-0.056,0.811,0.541c-0.177,0.207-0.629,0.079-0.5,0.522c-0.096,0.288,1.225,0.949,1.031,1.708
		c0.122-0.199,0.243-0.396,0.49-0.152c0.123,0.189,0.124,1,0.302,1.604c0.263,0.219,0.56,0.388,0.886,0.354
		c0.042,0.09,0.041,0.148,0.015,0.187c0.433,0.11,1.041,0.512,1.435,0.416c-0.268,0.558,0.212,0.814,0.692,1.052
		c0.468,0.247,0.897,0.501,0.495,0.859c0,0,0.779,0.75,0.755,0.771l-0.102,0.047c0.355,0.593,0.708,0.626,1.067,0.671
		c0.039,0.172-0.115,0.139-0.169,0.161c0.454,0.925,0.456,1.015,1.392,1.457l-0.257,0.258c0.143,0.049,0.235,0.423,0.348,0.883
		c0.096,0.473,0.248,1.004,0.645,1.368c-0.04,0.006-0.111,0.016-0.189-0.034c0.847,0.785,0.251,2.955,1.609,2.827
		c-0.03-0.057,0.703,0.772,0.688,0.741c-0.227-0.612-0.075-0.616,0.112-0.571c0.19,0.05,0.409,0.133,0.413-0.118
		c0.01,0.014,0.016,0.034,0.024,0.05c0.016,0.037,0.032,0.073,0.047,0.11c0.116,0.379,0.035,1.031-0.202,0.638l0.014-0.121
		c-0.624,0.223,0.459,1.563,0.157,1.961c0.579,1.212,1.099,2.528,1.666,3.943c0.535,1.419,1.227,2.873,1.868,4.14l-0.259-1.613
		l0.407,0.838c0.143,0.532,0.284,1.417-0.039,0.757c0.143,0.636,0.28,0.667,0.344,0.478c0.021-0.344,0.021-0.68,0.006-0.807
		c0.397-0.505,0.091,1.977,0.187,1.668c-0.002-0.016,0.041-0.041,0.071-0.233c0.029-0.157,0.061-0.315,0.061-0.315l-0.053-0.036
		c0.029-0.954-0.05-1.535,0.13-2.163c0.155-0.2,0.2,0.503,0.256,0.37c0.015,0.084,0.041,0.059,0.074-0.247l0.288-0.982
		c0,0-0.081-0.102-0.161-0.205c-0.077-0.112-0.154-0.222-0.154-0.222c0.002-0.864,0.228-0.884-0.126-1.373
		c0.259,0.404,0.528-0.41,0.72-1.347c0.197-0.94,0.321-1.922,0.439-2.039c-0.144-1.037-0.027-1.596,0.098-2.406
		c-0.103,0.157-0.538-0.071-0.42-0.638c0.86,0.778,0.547-1.108,1.266-1.502c-0.482,0.354,0.001-1.563-0.69-0.991
		c0.111-0.447,0.359-0.001,0.607-0.333C56.148,79.086,56.83,77.801,56.676,76.435z M45.938,41.979l-0.021-0.008
		C45.923,41.625,45.915,41.75,45.938,41.979z M47.02,49.128c-0.088-0.218-0.175-0.437-0.261-0.65
		C46.934,48.6,47.065,48.83,47.02,49.128z M46.714,48.311c-0.005,0.003-0.015,0-0.022,0.002c-0.006-0.016-0.013-0.032-0.019-0.048
		L46.714,48.311z M43.442,38.708c0.165,0.05,0.347,0.204,0.529,0.441c0.455,0.73-0.123,0.737-0.002,0.805
		c0.255,0.78,0.592,0.915,0.921,1.136c0.16,0.105,0.317,0.222,0.445,0.421c0.102,0.13,0.166,0.313,0.167,0.611
		c-0.193,0.549-0.698,0.303-0.917,0.494c-0.348-0.474-0.103-0.906-0.293-1.34l0.037,0.581c-0.192-0.141-0.415-0.435-0.404-0.703
		c-0.019,0.065-0.02,0.146-0.01,0.239c-0.496-1.234-0.785-1.954-0.785-1.954l-0.571,0.229
		C42.764,39.363,43.053,39.039,43.442,38.708z M39.836,40.762l-0.531,0.213c0.09-0.193,0.204-0.367,0.325-0.466
		C39.648,40.616,39.758,40.705,39.836,40.762z M37.313,41.596c0.058,0.034,0.099,0.077,0.129,0.126l-0.645,0.259l-0.216-0.498
		l0.124,0.535l-0.631,0.254c-0.159-0.39-0.261-0.75-0.241-0.935C35.912,41.345,37.001,41.432,37.313,41.596z M32.453,42.637
		l0.303,0.132c0.043-0.018,0.529-0.502,0.531-0.501c-0.032,0.296-0.219,0.786-0.338,1.26l-0.972,0.39
		C31.881,43.477,32.028,42.965,32.453,42.637z M31.851,48.989c0.163-0.021,0.367-0.125,0.585-0.242l0.181,0.451L31.851,48.989z
		 M36.295,59.183l-0.52-0.636c0.033-0.117,0.209-0.1,0.434-0.052c-0.056-0.033-0.108-0.065-0.155-0.092
		c0.021-0.127,0.086-0.187,0.169-0.222l0.14,0.349c-0.051-0.012-0.106-0.025-0.154-0.036c0.059,0.039,0.125,0.084,0.191,0.127
		l0.063,0.158C36.388,58.945,36.32,59.091,36.295,59.183z M54.479,92.096l-0.083-0.036C54.441,91.472,54.458,91.773,54.479,92.096z"
		/>
	<path fill="#EC1C24" d="M47.686,45.706c0.071-0.038,0.149-0.156,0.203-0.035l-0.239-0.36C47.74,45.496,47.699,45.59,47.686,45.706z
		"/>
	<path fill="#EC1C24" d="M46.975,46.458c-0.255,0.138-0.064,0.349,0.096,0.603c-0.009-0.016-0.018-0.031-0.021-0.048
		C47.458,46.942,47.215,46.702,46.975,46.458z"/>
	<path fill="#EC1C24" d="M47.104,47.121c0.046,0.081,0.089,0.165,0.109,0.253C47.375,47.345,47.202,47.257,47.104,47.121z"/>
	<path fill="#EC1C24" d="M46.535,43.351c-0.016,0.156,0.375-0.057,0.297,0.061C47.231,43.42,46.07,42.71,46.535,43.351z"/>
	<polygon fill="#EC1C24" points="46.474,46.803 46.145,46.757 46.182,47.037 	"/>
	<path fill="#EC1C24" d="M45.555,44.77l0.084,0.477c0.052-0.03,0.106,0.013,0.159,0.071C45.701,45.044,45.647,44.721,45.555,44.77z"
		/>
	<path fill="#EC1C24" d="M45.798,45.317c0.049,0.144,0.111,0.276,0.197,0.331C45.96,45.574,45.884,45.415,45.798,45.317z"/>
	<path fill="#EC1C24" d="M43.634,39.807l-0.274-0.413c-0.093,0.101-0.083,0.323,0.021,0.449
		C43.479,39.865,43.588,40.009,43.634,39.807z"/>
	<polygon fill="#EC1C24" points="55.111,64.736 55.113,64.286 54.975,64.626 	"/>
	<path fill="#EC1C24" d="M54.342,64.168l0.399-0.261l-0.472-0.081C54.318,63.907,54.417,64.063,54.342,64.168z"/>
	<path fill="#EC1C24" d="M25.229,32.452l0.138-0.028C25.28,32.409,25.22,32.413,25.229,32.452z"/>
	<path fill="#EC1C24" d="M22.583,26.685l-0.35-0.027C22.326,26.885,22.431,26.727,22.583,26.685z"/>
	<path fill="#EC1C24" d="M16.338,7.162c0.039,0.001,0.063,0,0.107,0C16.408,7.129,16.375,7.14,16.338,7.162z"/>
	<path fill="#EC1C24" d="M32.372,23.917l0.002,0.011C32.416,23.871,32.408,23.88,32.372,23.917z"/>
	<path fill="#EC1C24" d="M20.227,17.914c0.004-0.011,0.008-0.021,0.016-0.035C20.077,17.807,20.116,17.851,20.227,17.914z"/>
	<polygon fill="#EC1C24" points="22.646,26.691 22.646,26.676 22.583,26.685 	"/>
	<path fill="#EC1C24" d="M34.269,25.002c-0.015,0.102-0.054,0.171-0.101,0.226C34.246,25.2,34.297,25.137,34.269,25.002z"/>
	<polygon fill="#EC1C24" points="29.74,17.202 29.702,17.313 29.761,17.524 	"/>
	<path fill="#EC1C24" d="M31.506,20.154c-0.035,0.112-0.106,0.148-0.197,0.239l0.414-0.156L31.506,20.154z"/>
	<path fill="#EC1C24" d="M32.29,20.962c-0.124,0.013-0.343-0.261-0.323,0.063C32.093,21.011,32.475,21.347,32.29,20.962z"/>
	<path fill="#EC1C24" d="M36.228,29.101c-0.195-0.022-0.055,0.339-0.229,0.306c0.257,0.155,0.21,0.312,0.61,0.03
		C36.624,29.002,36.161,29.516,36.228,29.101z"/>
	<path fill="#EC1C24" d="M25.481,34.477l-0.165,0.282l0.111-0.023C25.524,34.655,25.51,34.595,25.481,34.477z"/>
	<polygon fill="#EC1C24" points="24.342,31.404 24.356,31.464 24.701,31.205 	"/>
	<path fill="#EC1C24" d="M22.76,28.895c0.027,0.118,0.166,0.214,0.195,0.329C22.788,29.012,23.231,28.671,22.76,28.895z"/>
	<path fill="#EC1C24" d="M46.016,27.92c-0.04,0.087,0.122,0.386,0.09,0.315C46.154,28.245,46.031,27.973,46.016,27.92z"/>
	<polygon fill="#EC1C24" points="45.73,29.116 45.697,28.999 45.716,29.313 	"/>
	<path fill="#EC1C24" d="M45.495,29.312l0.061,0.101l-0.104-0.399c-0.104,0.111-0.167,0.43-0.31,0.334
		C45.387,29.796,45.324,29.186,45.495,29.312z"/>
	<path fill="#EC1C24" d="M44.515,28.479c-0.015-0.016-0.022-0.027-0.031-0.04c-0.013,0.008-0.03,0.013-0.065,0.013
		C44.512,28.629,44.414,28.637,44.515,28.479z"/>
	<path fill="#EC1C24" d="M44.484,28.44C44.54,28.401,44.38,28.302,44.484,28.44L44.484,28.44z"/>
	<path fill="#EC1C24" d="M44.255,28.462c-0.061-0.103-0.143-0.098-0.147-0.187C44.062,28.4,44.12,28.5,44.24,28.658L44.255,28.462z"
		/>
	<path fill="#EC1C24" d="M44.314,28.948c-0.026-0.042-0.043-0.055-0.014,0.087L44.314,28.948z"/>
	<path fill="#EC1C24" d="M44.335,28.879c0.048,0.143,0.011,0.001,0.009-0.113l-0.03,0.183
		C44.357,29.019,44.419,29.172,44.335,28.879z"/>
	<path fill="#EC1C24" d="M44.58,29.137c0.13-0.125-0.026-0.449-0.154-0.32C44.512,28.902,44.595,28.943,44.58,29.137z"/>
	<path fill="#EC1C24" d="M45.413,29.782c0.005,0.087-0.169-0.082-0.105,0.064l0.116,0.115L45.413,29.782z"/>
	<path fill="#EC1C24" d="M43.839,28.861c-0.058-0.055-0.142-0.095-0.206-0.242c0.034,0.103,0.136,0.257,0.193,0.382L43.839,28.861z"
		/>
	<path fill="#EC1C24" d="M43.827,29l-0.022,0.21C43.895,29.197,43.875,29.11,43.827,29z"/>
	<polygon fill="#EC1C24" points="44.499,29.142 44.47,29.58 44.496,29.565 	"/>
	<polygon fill="#EC1C24" points="43.286,28.745 43.244,28.491 43.292,28.879 	"/>
	<path fill="#EC1C24" d="M43.074,28.876c-0.041-0.208-0.182-0.305-0.191-0.439c-0.048,0.059-0.034,0.246-0.022,0.414
		C42.877,28.748,42.939,28.747,43.074,28.876z"/>
	<path fill="#EC1C24" d="M42.867,29.098c0.006-0.055,0-0.149-0.006-0.248C42.851,28.907,42.851,28.98,42.867,29.098z"/>
	<path fill="#EC1C24" d="M43.632,29.222c-0.032-0.058-0.11-0.21-0.185-0.259l0.147,0.269L43.632,29.222z"/>
	<path fill="#EC1C24" d="M43.6,29.24l-0.006-0.008c-0.04,0.007-0.069,0.012-0.082,0.015C43.523,29.247,43.549,29.243,43.6,29.24z"/>
	<path fill="#EC1C24" d="M43.642,29.22l-0.009,0.002C43.646,29.249,43.652,29.256,43.642,29.22z"/>
	<path fill="#EC1C24" d="M44.33,29.995c-0.039-0.21-0.158-0.323-0.173-0.591C44.168,29.583,44.126,29.797,44.33,29.995z"/>
	<path fill="#EC1C24" d="M43.829,29.555l0.119,0.027c-0.031-0.074-0.093-0.176-0.097-0.265L43.829,29.555z"/>
	<polygon fill="#EC1C24" points="43.816,29.665 43.829,29.555 43.783,29.545 	"/>
	<path fill="#EC1C24" d="M43.137,29.298c0.008,0.139-0.033,0.168-0.075,0.208c0.076,0.032,0.145,0.041,0.198,0.018
		C43.232,29.434,43.19,29.264,43.137,29.298z"/>
	<path fill="#EC1C24" d="M43.372,29.294l-0.003,0.02C43.384,29.335,43.392,29.341,43.372,29.294z"/>
	<polygon fill="#EC1C24" points="42.587,29.754 42.568,29.705 42.558,29.707 	"/>
	<path fill="#EC1C24" d="M43.289,29.573c0.063,0.039,0.062-0.042,0.05-0.137c-0.019,0.041-0.044,0.071-0.079,0.088
		C43.272,29.566,43.282,29.593,43.289,29.573z"/>
	<path fill="#EC1C24" d="M42.78,29.288c0.045,0.051,0.089,0.091,0.135,0.126C42.857,29.333,42.758,29.211,42.78,29.288z"/>
	<path fill="#EC1C24" d="M43.325,29.242v-0.015C43.288,29.172,43.299,29.201,43.325,29.242z"/>
	<path fill="#EC1C24" d="M43.325,29.242c-0.006,0.05,0.005,0.126,0.014,0.195c0.016-0.033,0.028-0.073,0.03-0.122
		C43.358,29.295,43.341,29.269,43.325,29.242z"/>
	<path fill="#EC1C24" d="M42.64,30.167c0.09,0.131,0.343,0.251,0.36,0.52c-0.072,0.186-0.141-0.051-0.257-0.166
		c0.184,0.306,0.031,0.538,0.251,1.007l0.042-0.21c0.032,0.073,0.04,0.208,0.098,0.262c-0.098-0.262-0.087-0.55,0.119-0.306
		c0.012-0.231-0.393-1.07-0.666-1.519C42.628,29.869,42.672,29.974,42.64,30.167z"/>
	<path fill="#EC1C24" d="M42.775,29.665l0.003,0.043l0.025-0.048c-0.064-0.027-0.138-0.119-0.278-0.3
		c-0.014,0.155,0.013,0.255,0.043,0.345L42.775,29.665z"/>
	<path fill="#EC1C24" d="M43.196,30.331c0.107-0.066-0.014-0.271,0.005-0.422c-0.157,0.146-0.012-0.18-0.21-0.287
		c0.018-0.064,0.043-0.092,0.07-0.116c-0.047-0.021-0.097-0.051-0.147-0.092l0.011,0.016l-0.122,0.229
		c0.054,0.025,0.1-0.003,0.174-0.071C43.062,29.885,43.017,30.046,43.196,30.331z M42.942,29.476l-0.016-0.042
		c0.022,0.033,0.034,0.054,0.017,0.036L42.942,29.476c0.013,0.043,0.023,0.078,0.034,0.113
		C42.899,29.549,42.939,29.517,42.942,29.476z"/>
	<path fill="#EC1C24" d="M44.35,30.352c0.073,0.07,0.056,0.137,0.095,0.229c-0.004-0.086,0.01-0.241-0.128-0.345l0.002,0.043
		c-0.113-0.068-0.349-0.384-0.353-0.429c0.125,0.246,0.216,0.422,0.367,0.654C44.328,30.459,44.294,30.34,44.35,30.352z"/>
	<path fill="#EC1C24" d="M43.679,30.122l-0.098,0.201l0.176,0.215l-0.062-0.145C43.806,30.416,43.712,30.24,43.679,30.122z"/>
	<polygon fill="#EC1C24" points="42.483,29.572 42.383,29.261 42.466,29.723 	"/>
	<polygon fill="#EC1C24" points="42.298,29.687 42.2,29.423 42.212,29.602 	"/>
	<path fill="#EC1C24" d="M32.626,37.21c0.014,0.077,0.028,0.132,0.042,0.131L32.626,37.21z"/>
	<path fill="#EC1C24" d="M37.407,31.687c-0.165-0.22-0.39-0.567-0.265-0.278l0.136,0.28C37.304,31.619,37.353,31.636,37.407,31.687z
		"/>
	<path fill="#EC1C24" d="M30.672,38.476l0.065,0.313C30.819,38.754,30.723,38.623,30.672,38.476z"/>
	<path fill="#EC1C24" d="M40.296,30.615c-0.101-0.09-0.166-0.118-0.212-0.116C40.22,30.636,40.372,30.86,40.296,30.615z"/>
	<path fill="#EC1C24" d="M40.084,30.499c-0.099-0.103-0.188-0.155-0.162,0.067c0.023,0.022,0.037,0.033,0.055,0.055
		C40.001,30.555,40.025,30.499,40.084,30.499z"/>
	<path fill="#EC1C24" d="M24.103,40.838c-0.009-0.011-0.015-0.016-0.027-0.029C24.09,40.849,24.096,40.849,24.103,40.838z"/>
	<path fill="#EC1C24" d="M21.055,38.703c0.013-0.025,0.044-0.039,0.07-0.053C21.102,38.636,21.08,38.648,21.055,38.703z"/>
	<path fill="#EC1C24" d="M40.215,32.518l-0.003,0.001C40.247,32.57,40.24,32.559,40.215,32.518z"/>
	<path fill="#EC1C24" d="M41.499,29.858c0.021,0.006,0.035,0.009,0.049,0.013C41.532,29.821,41.514,29.793,41.499,29.858z"/>
	<path fill="#EC1C24" d="M41.444,29.884c-0.011,0.01-0.028,0.021-0.053,0.04c0.023-0.014,0.052-0.011,0.082,0.002
		C41.456,29.91,41.446,29.897,41.444,29.884z"/>
	<path fill="#EC1C24" d="M27.264,38.678c-0.008-0.006-0.012-0.013-0.02-0.023C27.249,38.791,27.26,38.765,27.264,38.678z"/>
	<polygon fill="#EC1C24" points="37.501,35.105 37.499,35.089 37.49,35.083 	"/>
	<path fill="#EC1C24" d="M28.294,39.361c-0.219,0.097-0.201-0.359-0.388-0.55c0.106-0.53,0.488,0.756,0.736,0.482
		c-0.024,0.061-0.232-0.126-0.227-0.297c0.086,0.042,0.21,0.13,0.313,0.28c0.177-0.147-0.161-0.309-0.152-0.539
		c0.182,0.292,0.092-0.024,0.076-0.234c0.016,0,0.032-0.001,0.048-0.003l0.083,0.205c0.146,0.051,0.112-0.095,0.064-0.249
		c0.027-0.012,0.055-0.022,0.083-0.041l0.045,0.241l0.063-0.16l0.041,0.125c-0.008,0.027-0.021,0.056-0.023,0.082
		c0.015-0.013,0.025-0.021,0.04-0.033l0.065,0.2c0.011-0.316,0.078-0.263,0.235-0.207c-0.029-0.052-0.057-0.115-0.081-0.179
		c0.072-0.061,0.134-0.113,0.19-0.16c0.041,0.188,0.071,0.36-0.088,0.127c0.028,0.109,0.056,0.208,0.083,0.317
		c0.163,0.188,0.211-0.026,0.262-0.051c-0.025-0.004-0.057-0.012-0.088-0.05l0.035-0.518c0.001-0.001,0.003-0.003,0.005-0.004
		c0.075,0.106,0.089,0.208,0.101,0.311c0.028-0.052,0-0.209,0.052-0.264c0.088,0.268,0.199,0.532,0.159,0.69l0.086-0.368
		c0.059,0.107,0.228,0.267,0.24,0.374c0.173,0.107,0.072-0.613,0.302-0.473c-0.013-0.054-0.018-0.106,0-0.157
		c0.164,0.003,0.413,0.271,0.437-0.15l0.28,0.428c0.088-0.158-0.361-0.535-0.216-0.796c0.093-0.209,0.215,0.373,0.321,0.482
		c-0.017-0.266-0.077-0.795,0.213-0.473c-0.011,0.105-0.074,0.052-0.105,0.103l0.212,0.216c0.041,0.475-0.111,0.366,0.135,0.688
		c-0.347-0.904,0.379-0.259,0.032-1.161l0.147,0.16c-0.024,0.001-0.007,0.055-0.031,0.052c0.311,0.375-0.158-0.688,0.069-0.631
		c0.089,0.044,0.185,0.156,0.185,0.281l0.048-0.279c0.047,0.004,0.1,0.164,0.054,0.162l0.18-0.156l0.009,0.027
		c-0.004-0.02-0.006-0.048-0.009-0.07c0.042-0.113,0.081-0.233,0.118-0.354c0.068,0.177,0.054,0.347-0.02,0.346
		c0.467,0.852,0.006-0.263,0.448,0.166L33.1,37.455c0.276,0.482,0.286,0.262,0.538,0.53c-0.097-0.153-0.569-0.702-0.533-0.974
		c0.062,0.054,0.122,0.067,0.117-0.142c0.129,0.319,0.164,0.213,0.239,0.164l0.164,0.425c0.041-0.159-0.054-0.372-0.077-0.583
		c0.116,0.002,0.268,0.321,0.404,0.587c0.187,0.003-0.322-0.48-0.166-0.637c0.177,0.097,0.215-0.065,0.263-0.323
		c0.031,0,0.065,0.008,0.102,0.012c0.039,0.09,0.026,0.191,0.084,0.266l-0.037-0.259c0.016,0.003,0.028,0.002,0.044,0.007
		c-0.023-0.039-0.032-0.067-0.048-0.101c0.023,0.022,0.05,0.096,0.066,0.143c0.012-0.122-0.09-0.308-0.11-0.459
		c0.021-0.054,0.06-0.104,0.119-0.15c0.147,0.149,0.356,0.379,0.311,0.034c0.082,0.106,0.085,0.266,0.164,0.425
		c0.017-0.157,0.029-0.241,0.036-0.312c0.252,0.015,0.328-0.187,0.348-0.394c0.005-0.037,0.009-0.071,0.013-0.106l0.178,0.355
		l-0.064-0.189l0.341,0.205c-0.011-0.204-0.037-0.437-0.057-0.666c0.101-0.06,0.234-0.098,0.361-0.112
		c0.024,0.055,0.047,0.106,0.072,0.17c-0.244-0.406-0.123,0.262-0.288,0.227c0.087,0.02,0.151,0.219,0.159,0.294l0.076-0.489
		c0.129,0.338,0.151,0.232,0.267,0.345c-0.172-0.356-0.154-0.473-0.101-0.548c0.087,0.013,0.154,0.043,0.169,0.098l-0.107,0.049
		c0.044-0.013,0.1-0.034,0.148-0.049c0.014,0.09-0.001,0.152-0.072,0.148c0.15,0.205,0.13,0.042,0.095-0.156
		c0.135-0.044,0.274-0.095,0.423-0.155c0.006-0.003,0.012-0.004,0.018-0.008c0.136-0.055,0.266-0.114,0.395-0.178
		c0.036,0.104,0.068,0.196,0.082,0.233l-0.052-0.248c0.036-0.018,0.072-0.036,0.106-0.055l0.148,0.501
		c-0.078-0.384-0.024-0.355,0.056-0.298l-0.118-0.248c0.029-0.016,0.054-0.032,0.081-0.048c0.035,0.125,0.056,0.233,0.046,0.303
		c0.073,0.052,0.159,0.109,0.186-0.099c-0.022-0.022-0.084-0.137-0.147-0.264c0.037-0.024,0.072-0.049,0.104-0.074
		c0.042,0.044,0.098,0.101,0.232,0.266c-0.034-0.032-0.093-0.17-0.147-0.326c0.001-0.001,0.003-0.002,0.004-0.003
		c-0.003-0.004-0.006-0.008-0.009-0.012c-0.072-0.209-0.132-0.44-0.118-0.503c0.008,0.004,0.015,0.007,0.023,0.01
		c0.054,0.158,0.294,0.716,0.299,0.8l-0.103-0.709c0.005,0.002,0.01,0.005,0.015,0.007c0.063,0.205,0.236,0.553,0.34,0.714
		c-0.078-0.137,0.161-0.047,0.179-0.14l-0.146-0.143c0.248,0.03-0.218-1.127-0.001-1.167c0.036,0.163,0.319,0.968,0.458,1.022
		c-0.105-0.4-0.526-1.916-0.466-2.279l0.123,0.204l0.037-0.303c0.145,0.606,0.389,1.907,0.447,2.43
		c0.144,0.142,0.124,0.246,0.23,0.182c0.124,0.188,0.063,0.334,0.034,0.361l0.318,0.023c-0.191-0.439,0.024-0.526-0.135-0.893
		l-0.103,0.575c-0.189-0.437-0.34-1.328-0.121-1.323c0.118,0.157,0.282,0.804,0.346,0.953c-0.038-0.166,0.06-0.366,0.121-0.264
		l0.015,0.27c0.172,0.125-0.065-0.657,0.231-0.283c0.054,0.01,0.358,0.519,0.261,0.253c-0.275-0.479-0.918-2.042-1.023-2.441
		c0.029,0.028,0.422,0.393,0.573,0.622c0.229,0.37,0.272,0.992,0.472,1.309c-0.048-0.124-0.069-0.289-0.071-0.342
		c0.087,0.084,0.132,0.382,0.209,0.289c-0.164-0.459,0.217-0.044-0.104-0.4c0.043-0.169,0.139,0.051,0.245-0.015
		c-0.153-0.275-0.295-1.032-0.25-1.197c0.04,0.115,0.122,0.254,0.159,0.319c0.215-0.038,0.405,0.124,0.591,0.052
		c0.062,0.103,0.203,0.199,0.244,0.408c-0.006-0.091-0.043-0.252,0.011-0.288c0.266,0.347-0.103,0.113,0.168,0.547
		c-0.097-0.266,0.002-0.421,0.019-0.617c-0.187-0.394-0.219-0.001-0.234,0.194c-0.225-0.559-0.316-1.199-0.228-1.535
		c0.1-0.2,0.213,0.334,0.207,0.243c0.328-0.017-0.145-1.072,0.256-0.766c0.238,0.316,0.289,0.705,0.412,0.953
		c-0.071,0.186-0.282-0.149-0.362-0.1l0.172,0.126c0.008,0.134-0.04,0.258-0.127,0.174c0.209,0.286,0.514-0.137,0.855,0.07
		c-0.009-0.136,0.011-0.287-0.079-0.416l-0.051,0.077c-0.179-0.26-0.024-0.449-0.169-0.547c0.014-0.239-0.008-0.598,0.191-0.489
		L42.276,31c-0.05-0.117-0.184-0.206-0.171-0.067c-0.016-0.203,0.425,0.465,0.271-0.089l-0.206-0.242
		c0.015-0.243-0.041-0.72,0.129-0.641c-0.215-0.377-0.009,0.057-0.282-0.376c0.307,0.553-0.311,0.096,0.051,0.663
		c-0.303-0.509-0.241-0.172-0.54-0.59c0.056,0.133,0.14,0.24,0.018,0.214c0.008,0.042,0.018,0.095,0.023,0.127l-0.01-0.007
		l0.013,0.013c0.003,0.021,0.004,0.024,0.004,0.003c0.046,0.05,0.094,0.113,0.132,0.184c0.073,0.326-0.087,0.38-0.077,0.561
		c-0.084-0.041-0.037-0.163-0.126-0.293l0.015,0.271c-0.126-0.294-0.354-0.432-0.285-0.661l-0.13,0.037
		c-0.14-0.138-0.268-0.163-0.281-0.013c-0.082-0.041-0.016,0.389-0.058,0.135l-0.121,0.262l-0.031-0.073
		c-0.209,0.041-0.202,0.651-0.637,0.205c-0.034,0.1-0.063,0.22-0.207,0.179l-0.124-0.249c-0.046,0.124-0.353-0.155-0.282,0.127
		c-0.368-0.655-0.466,0.01-0.662-0.052l0.129,0.337c-0.107,0.021-0.167,0.154-0.238,0.339l0.127,0.293
		c-0.01,0.287-0.362-0.098-0.521,0c-0.035-0.118,0.021-0.106,0.079-0.05c-0.473-0.587-0.234,0.66-0.616,0.247
		c-0.003,0.126-0.05,0.104-0.113,0.043c0.004-0.004,0.004-0.011,0.005-0.022c-0.008,0-0.014,0-0.021,0.005
		c-0.04-0.043-0.089-0.092-0.127-0.131c0.049,0.063,0.09,0.115,0.117,0.136c-0.033,0.021-0.072,0.078-0.095,0.175l-0.151-0.309
		c-0.003,0.005-0.003,0.005-0.008,0.014c-0.099-0.098,0.019,0.168,0.143,0.396c-0.006,0.062-0.004,0.134,0.007,0.218
		c-0.249-0.496-0.069,0.229-0.348-0.295c0.045,0.177-0.032,0.265-0.052,0.439c-0.089,0.032-0.194,0.058-0.297,0.069l-0.018-0.038
		l0.006,0.04c-0.078,0.008-0.147,0.005-0.204-0.006c-0.009-0.041-0.019-0.077-0.025-0.125c0.335-0.333,0.165-0.24,0.414-0.852
		c-0.036,0.209-0.931,0.169-0.991-0.052c0.133,0.005,0.759-0.271,0.884-0.184c0,0-0.271-0.137-0.521-0.226
		c-0.236-0.051-0.473-0.101-0.473-0.101c0.185,0.07,0.639-0.231,0.805-0.427c-0.126,0.11-0.161-0.439-0.288-0.543l-0.087,0.281
		c-0.116-0.611-1.27-0.141-1.457-0.717c0.181,0.006,1.012-0.212,0.99-0.535c-0.232,0.012-0.805,0.053-1.364,0.033l-0.252-0.63
		c0.604,0.071,1.241,0.173,1.594,0.273c0.087-0.28,0.233-0.162,0.086-0.47c0.159-0.193,0.38,0.047,0.428,0.136l-0.164-0.791
		c-0.431,0.211-0.671-0.387-1.03-0.21l0.781,0.62c-0.431,0.21-1.446,0.041-1.579-0.514c0.124-0.205,0.831-0.219,0.974-0.289
		c-0.18-0.006-0.491-0.379-0.401-0.471l0.325,0.127c0.05-0.358-0.779-0.238-0.497-0.76c-0.021-0.132,0.427-0.592,0.157-0.505
		c-0.256,0.24-0.915,0.574-1.496,0.81l-0.166-0.413l0.183-0.053L33.3,25.86l-0.17,0.071l-0.169-0.421
		c0.359-0.194,0.966-0.014,1.207-0.282c-0.125,0.041-0.319-0.009-0.386-0.035c0.054-0.169,0.397-0.099,0.232-0.353
		c-0.47,0.135-0.188-0.576-0.435,0.022c-0.236-0.218-0.022-0.324-0.17-0.633c-0.165,0.144-0.595,0.146-0.936,0.067l-0.139-0.346
		c0.011-0.011,0.029-0.025,0.037-0.033c-0.183-0.569-0.097-0.948-0.3-1.466c0.089-0.091,0.123-0.392,0.359-0.364
		c-0.109-0.044-0.291-0.05-0.366-0.204c0.266-0.464,0.204,0.33,0.578-0.092c-0.27,0.084-0.526-0.266-0.781-0.428
		c-0.376,0.232,0.131,0.555,0.387,0.716c-0.194,0.079-0.412,0.094-0.632,0.084l-0.658-1.639c0.022-0.441-0.523-1.317-0.485-1.967
		c-0.115-0.045-0.247-0.124-0.352-0.117l-0.852-2.122c0.049-0.012,0.099-0.03,0.15-0.061l-0.259-0.211l-0.012-0.03
		c0.078-0.021,0.218,0.023,0.25-0.081c-0.097,0.031-0.201,0.012-0.293-0.027l-0.169-0.422c0.006-0.015,0-0.026,0.007-0.042
		c-0.008-0.004-0.019-0.003-0.027-0.007l-0.155-0.386c0.004-0.016,0.013-0.025,0.013-0.05c-0.035-0.015-0.045-0.04-0.058-0.063
		l-3.75-9.34L24.314,5.86c-0.225-0.219-0.463-0.446-0.56-0.739c-0.087,0.686-1.157-0.5-1.348,0.508
		c-0.164-0.083,0.016-0.242-0.105-0.365c-0.02,0.324-0.154,0.444-0.494,0.439l0.006-0.08c-0.79,0.392-1.248,0.265-2.236,0.456
		l0.194,0.286c-0.199,0.031-0.319-0.035-0.498-0.055c-0.062,0.299,0.159,0.22,0.348,0.16c0.146-0.046,0.298-0.083,0.299,0.22
		c-0.203-0.288-0.727-0.081-1.223,0.104c-0.499,0.184-0.977,0.35-1.463,0.125c-0.48,0.188,0.48,0.227,0.024,0.406l-0.325-0.099
		l0.156,0.232c-0.326,0.082-0.772-0.024-0.988-0.13c0.103-0.019,0.168-0.121,0.237-0.167c-0.525,0.009-0.906,0.32-1.13,0.46
		c0.056,0.103,0.091,0.176,0.081,0.201c-0.003-0.057-0.005-0.114-0.035-0.182l0.391-0.054l-0.225,0.125
		c0.649,1.263,1.026,2.781,1.865,3.794l0.114-0.139c0.565,0.615,0.047,0.586,0.455,1.232l-0.046-0.011
		c0.201,0.073,0.347,0.225,0.404,0.414c-0.241-0.1-0.208,0.452-0.489,0.308c0.559,0.545,0.363,0.235,1.087,0.452l-0.205,0.2
		c0.282,0.059,0.404,0.024,0.602,0.333c-0.322-0.188-0.288,0.364-0.688,0.168c-0.254,0.918,0.959,0.826,0.305,1.464
		c0.806,0.05,0.132-0.761,0.35-0.637c0.161-0.241,0.615,0.063,0.634,0.31c0.075,0.23-0.713,0.73-0.475,1.289
		c-0.018-0.056-0.071-0.04-0.091-0.096c-0.088,0.28,0.399,0.319,0.222,0.691c0.47-0.019,0.113,0.347,0.653,0.178l-0.33-0.469
		c0.254,0.239,0.978,0.27,0.875,0.872c-0.122,0.004-0.318-0.083-0.434-0.152c-0.098,0.204,0.212,0.232,0.111,0.442
		c-0.539,0.168-0.366-0.585-0.893-0.739c-0.16,0.241,0.62,0.443-0.013,0.514c0.813-0.063,0.134,0.593,0.837,0.755l-0.322,0.1
		c0.072,0.041,0.272,0.106,0.309,0.222l-0.487-0.039c0.47,0.17-0.064,0.718,0.243,0.939c-0.258-0.617,0.322-0.291,0.446-0.645
		c0.727,0.595-0.644,0.769-0.148,1.567c-0.091-0.098,0.012-0.511,0.231-0.389c0,0.189-0.032,0.455-0.157,0.621
		c0.295,0.542,0.288-0.218,0.579-0.051c-0.305,0.347,0.267,0.216,0.49,0.416l-0.317,0.13c0.054,0.731,0.732-0.095,0.719,0.588
		l-0.541-0.068l0.237,0.258l-0.388,0.083c0.401,0.222,0.373,0.353,0.401,0.719c0.194-0.166,0.596-0.19,0.721,0.093
		c-0.11,0.272-0.348,0.011-0.137,0.399c-0.239-0.01-0.529-0.012-0.306-0.306c-0.111,0.023-0.235-0.011-0.346,0.013
		c-0.133,0.299,0.163,0.549,0.225,0.695c-0.012-0.062-0.021-0.136,0.012-0.189l0.678,0.412c-0.083,0.141-0.208,0.106-0.333,0.071
		c0.083,0.105,0.262,0.13,0.361,0.293c-0.277,0.06-0.541,0.178-0.762-0.021l0.513,0.446c-0.098,0.082-0.193,0.412-0.318,0.376
		c-0.027,0.375,0.809,0.565,0.775,1.057c0.058,0.002,0.124,0.025,0.196,0.099c0.097,0.412-0.083,0.885,0.457,1.202l-0.359,0.447
		c0.251,0.317,0.443-0.589,0.861-0.059c0.316,0.366-0.334,0.318-0.404,0.519c0.32,0.117,0.943,0.294,0.722,0.835
		c-0.139-0.094-0.111-0.222-0.194-0.331l-0.137,0.402c-0.569-0.191-0.529-0.507-0.777-0.084c0.915-0.318,0.556,1.119,1.47,0.803
		l-0.111,0.271c-0.013-0.061-0.07-0.048-0.083-0.106c-0.277,0.554,0.761,0.023,0.831,0.564c0.001,0.199-0.082,0.371-0.235,0.297
		l0.376,0.291c0.027,0.119-0.14,0.153-0.167,0.038l0.305,0.552l-0.028,0.007c0.175,0.025,0.467,0.126,0.597,0.182
		c-0.07,0.199-0.126-0.035-0.224,0.046l0.35,0.235c-0.181,0.225-0.514,0.048-0.571-0.188c-0.775,0.659,0.334,0.176,0.072,1.036
		l-0.236-0.258c-0.432,0.398-0.15,0.564-0.331,1.034c0.135-0.147,0.524-1.01,0.888-0.75c-0.028,0.126-0.009,0.269,0.249,0.385
		c-0.319,0.131-0.167,0.283-0.058,0.506l-0.426,0.155c0.221,0.199,0.429,0.093,0.678,0.164c0.091,0.346-0.157,0.679-0.379,0.92
		c0.252,0.824,0.287-0.798,0.714,0.035c0.02,0.144,0.056,0.266,0.095,0.384c-0.123,0.005-0.241,0.019-0.349,0.054l0.242,0.465
		l-0.154,0.029c-0.081-0.097-0.2-0.358-0.093-0.378c-0.163-0.253-0.075,0.297-0.036,0.403c-0.276-0.116-0.149-0.594-0.215-0.581
		l-0.066,0.069l0.039,0.049c0.013,0.225,0.093,0.436-0.039,0.46c-0.115-0.066-0.158-0.283-0.196-0.289
		c-0.013-0.033-0.03-0.046-0.052,0.004l-0.195,0.031l0.226,0.353c-0.003,0.22-0.175,0.048,0.081,0.446
		c-0.389-0.617-0.76,0.027-0.916-0.149c0,0.321-0.11,0.362-0.259,0.381c0.066,0.067,0.258,0.487,0.122,0.481
		c-0.313-0.901-0.368-0.298-0.717-0.897c0.253,0.387-0.29,0.237,0.083,0.783c-0.126-0.032-0.138-0.329-0.295-0.507
		c-0.094,0.437-0.6-0.019-0.838,0.211c0.042,0.118,0.161,0.276,0.168,0.475l-0.382-0.521c-0.035,0.08,0.216,0.692-0.049,0.33
		c0.055,0.092,0.136,0.23,0.113,0.283c-0.788-0.343-0.957,0.922-1.951,0.086c0.166,0.194,0.124,0.236,0.069,0.27
		c0.059,0.039,0.115,0.288,0.185,0.442l-0.414-0.342c0.133,0.455-0.242,0.132-0.1,0.56l0.045-0.105
		c0.098,0.534,0.581,1.04,0.82,1.68c-0.113-0.606,0.629,0.712,0.491-0.165c0.093,0.112,0.048,0.219,0.127,0.356
		c-0.062-0.291-0.028-0.37,0.126-0.29l0.014,0.071c0.268-0.184,0.5,0.033,0.901,0.08l-0.151-0.303
		c0.088,0.012,0.141,0.106,0.208,0.17c-0.111-0.508-0.211,0.052-0.349-0.501c0.351,0.6,0.504-0.191,0.857,0.51
		c0.112-0.041-0.175-0.35-0.067-0.391l0.109,0.185l-0.075-0.264c0.089,0.014,0.224,0.244,0.293,0.41
		c-0.025-0.014-0.031,0.065-0.044,0.087c0.186,0.194,0.231-0.183,0.292-0.121l-0.152-0.079c0.222-0.303,0.688-0.189,0.817-0.704
		l-0.082-0.14c0.11-0.361,0.241,0.093,0.432-0.13l0.004,0.04c-0.009-0.167,0.023-0.268,0.098-0.277
		c0.007,0.197,0.249,0.29,0.246,0.514c0.119-0.389,0.024-0.277-0.039-0.89l0.135,0.231c-0.037-0.243-0.079-0.361,0.016-0.473
		c-0.013,0.25,0.227,0.341,0.228,0.665c0.468,0.433,0.157-0.691,0.588,0.045c-0.156-0.725-0.371-0.289-0.363-0.459
		c-0.144-0.2-0.109-0.546-0.002-0.51c0.088-0.017,0.486,0.813,0.684,0.721c-0.023,0.002-0.003,0.055-0.025,0.061
		c0.146,0.142,0.056-0.294,0.262-0.051c-0.113-0.431,0.13-0.025-0.065-0.555l-0.137,0.196c0.051-0.18-0.095-0.831,0.196-0.604
		c0.03,0.11,0.032,0.271,0.029,0.361c0.112,0.135,0.055-0.14,0.173-0.005c0.194,0.531-0.182,0.206-0.133,0.651
		c0.144,0.199,0.061-0.466,0.232,0.125c-0.208-0.754,0.235,0.012,0.152-0.596l0.117,0.317c0.001-0.056-0.013-0.224,0.031-0.232
		l0.09,0.436C27.899,38.982,28.263,39.59,28.294,39.361z M41.084,30.331l0.004,0.018C40.969,30.251,41.014,30.291,41.084,30.331z
		 M25.916,33.752c-0.103-0.061-0.377-0.148-0.215-0.288C26.105,33.418,25.962,33.562,25.916,33.752z M36.807,33.158
		c0.004,0.011,0.01,0.027,0.015,0.039c-0.002,0-0.004,0-0.007,0L36.807,33.158z M37.071,32.839c0.007,0.024,0.005,0.037,0.014,0.063
		c-0.015-0.033-0.028-0.055-0.036-0.073C37.057,32.832,37.063,32.836,37.071,32.839z M36.833,33.285
		c0.007,0.003,0.017,0.008,0.025,0.011c0.032,0.083,0.068,0.173,0.111,0.272c-0.029-0.018-0.059-0.036-0.088-0.054L36.833,33.285z
		 M33.019,37.138c-0.113-0.38-0.015-0.215,0.081-0.132C33.095,37.084,33.115,37.316,33.019,37.138z M34.784,36.019
		c0.002-0.079-0.003-0.179-0.016-0.372c0.014-0.01,0.028-0.019,0.041-0.029l0.196,0.184c-0.057-0.073-0.101-0.155-0.136-0.244
		c0.015-0.016,0.036-0.03,0.047-0.047C35.06,35.675,35.094,35.874,34.784,36.019z M37.12,33.917
		c-0.058-0.042-0.116-0.074-0.175-0.104l-0.004-0.017c0.039,0.014,0.093,0.036,0.153,0.06C37.103,33.877,37.111,33.896,37.12,33.917
		z M37.818,34.135l-0.01-0.066c0.001,0.017,0.013,0.049,0.02,0.073C37.825,34.141,37.821,34.138,37.818,34.135z M36.9,32.792
		c-0.007,0.021-0.011,0.049-0.008,0.092l-0.05-0.104C36.862,32.783,36.881,32.787,36.9,32.792z M36.745,32.758l0.049,0.328
		c-0.101-0.124-0.171-0.223-0.224-0.347C36.629,32.745,36.688,32.75,36.745,32.758z M36.481,32.4c0,0.049-0.001,0.084-0.002,0.121
		c-0.034-0.01-0.061-0.023-0.076-0.043C36.435,32.447,36.456,32.425,36.481,32.4z M36.461,32.731
		c-0.022,0.104-0.05,0.096-0.03,0.447l-0.098-0.264c-0.036,0.022-0.026,0.206-0.055,0.255c-0.021-0.012-0.043-0.023-0.065-0.034
		c-0.002-0.003-0.002,0-0.004-0.004c-0.083-0.113-0.167-0.156-0.253-0.164l-0.098-0.245C36.053,32.721,36.257,32.72,36.461,32.731z
		 M25.949,36.715l0.063,0.072C25.985,36.905,25.969,36.814,25.949,36.715z"/>
	<polygon fill="#EC1C24" points="30.66,38.419 30.654,38.417 30.672,38.476 	"/>
	<path fill="#EC1C24" d="M40.149,34.004c-0.048-0.033-0.088-0.085-0.121-0.14C40.057,33.942,40.096,34.002,40.149,34.004z"/>
	<path fill="#EC1C24" d="M41.824,29.564l-0.058,0.121c0.039-0.032,0.082,0.029,0.125,0.071
		C41.859,29.682,41.799,29.583,41.824,29.564z"/>
	<path fill="#EC1C24" d="M43.414,31.218c-0.002-0.045,0.026-0.015,0.023-0.062l-0.063-0.146
		C43.32,31.042,43.329,31.179,43.414,31.218z"/>
	<path fill="#EC1C24" d="M42.517,30.666c-0.005,0.004-0.006,0.007-0.011,0.005c-0.134-0.384-0.15-0.231-0.169-0.08
		C42.451,30.854,42.472,30.741,42.517,30.666z"/>
	<path fill="#EC1C24" d="M42.527,30.651c0.016-0.021,0.032-0.037,0.057-0.031C42.531,30.467,42.548,30.599,42.527,30.651z"/>
	<path fill="#EC1C24" d="M41.393,30.161c0.06,0.057-0.117-0.351-0.058-0.248C41.234,29.557,41.3,30.407,41.393,30.161z"/>
	<polygon fill="#EC1C24" points="42.586,31.131 42.657,31.413 42.741,31.453 	"/>
	<path fill="#EC1C24" d="M42.259,31.339c-0.067,0.015-0.163-0.023-0.123,0.074l0.139,0.05
		C42.253,31.409,42.252,31.372,42.259,31.339z"/>
	<path fill="#EC1C24" d="M42.32,31.251c-0.017,0.011-0.051,0.038-0.061,0.088C42.294,31.333,42.321,31.313,42.32,31.251z"/>
	<polygon fill="#EC1C24" points="42.642,31.609 42.583,31.553 42.501,31.556 	"/>
	<path fill="#EC1C24" d="M41.007,31.793l-0.074,0.14c0.035,0.118,0.093,0.176,0.117,0.113
		C41.045,31.957,41.069,31.897,41.007,31.793z"/>
	<path fill="#EC1C24" d="M41.721,32.744l-0.011-0.18c-0.057-0.056-0.09-0.129-0.15-0.232L41.721,32.744z"/>
	<path fill="#EC1C24" d="M41.422,32.792c0.035,0.118-0.031,0.392,0.1,0.31C41.488,32.982,41.562,32.843,41.422,32.792z"/>
	<polygon fill="#EC1C24" points="39.524,32.95 39.552,32.933 39.277,32.262 	"/>
	<path fill="#EC1C24" d="M38.748,34.882c-0.032-0.171-0.165-0.125-0.188-0.275c-0.013,0.201-0.092,0.123,0.121,0.551
		C38.88,35.265,38.547,34.73,38.748,34.882z"/>
	<polygon fill="#EC1C24" points="20.456,38.361 20.602,38.565 20.599,38.468 	"/>
	<path fill="#EC1C24" d="M20.546,39.021c0.012-0.027,0.036-0.08,0.089,0.012l-0.193-0.421L20.546,39.021z"/>
	<path fill="#EC1C24" d="M33.52,37.562l0.164,0.213l-0.036-0.107C33.59,37.562,33.568,37.563,33.52,37.562z"/>
	<polygon fill="#EC1C24" points="32.396,37.92 32.419,37.919 32.227,37.547 	"/>
	<path fill="#EC1C24" d="M31.623,38.803c0.046,0.001,0.059-0.104,0.104-0.104C31.669,38.805,31.417,38.324,31.623,38.803z"/>
</g>
</svg>
