<?xml version="1.0" encoding="utf-8"?>
<!-- Generator: Adobe Illustrator 16.0.3, SVG Export Plug-In . SVG Version: 6.00 Build 0)  -->
<!DOCTYPE svg PUBLIC "-//W3C//DTD SVG 1.1//EN" "http://www.w3.org/Graphics/SVG/1.1/DTD/svg11.dtd">
<svg version="1.1" id="Layer_8" xmlns="http://www.w3.org/2000/svg" xmlns:xlink="http://www.w3.org/1999/xlink" x="0px" y="0px"
	 width="72px" height="100px" viewBox="0 0 72 100" enable-background="new 0 0 72 100" xml:space="preserve">
<path fill="#EC1C24" d="M29.53,13.589c0.035-0.004,0.064-0.009,0.103-0.014c-0.031-0.025-0.059-0.047-0.089-0.071
	C29.538,13.532,29.535,13.561,29.53,13.589z"/>
<path fill="#EC1C24" d="M29.768,13.56c0.142-0.016,0.284-0.031,0.419-0.045c-0.198-0.099-0.398-0.19-0.587-0.233
	c-0.014,0.06-0.032,0.117-0.045,0.177C29.625,13.492,29.692,13.523,29.768,13.56z"/>
<path fill="#EC1C24" d="M42.225,7.347c-0.23-0.548-1.021-0.548-1.245-0.869c-0.421-0.114-0.852-0.201-1.294-0.255
	c-0.103,0.269-0.184,0.552-0.211,0.844c0.182-0.221,0.616-0.655,0.564-0.044c-0.21,0.219-0.504,0.325-0.561,0.717
	c-0.082-0.729,0.324-0.162,0.181-0.781c-0.119-0.001-0.194,0.219-0.258,0.333c0.107-0.286-0.056-0.497-0.08-0.662
	c-0.393-0.013-0.613-0.375-1.062-0.399c0.017,0.067,0.022,0.083-0.009-0.001l0.009,0.001c-0.004-0.015-0.01-0.044-0.015-0.063
	c-0.094,0.003-0.187,0.008-0.279,0.014c-0.12,0.41-0.185,0.974-0.104,1.262c-0.216,0.041-0.268-0.272-0.433-0.055
	c0.382,0.582-0.075-0.095-0.003,0.583c-0.166,0.109-0.116-0.315-0.229-0.457c-0.02,0.077-0.053,0.31-0.023,0.491
	c0.037,0.087,0.082,0.169,0.146,0.23c-0.085-0.019-0.127-0.113-0.146-0.23c-0.196-0.431-0.068-1.149-0.201-1.707
	c-0.105,0.018-0.211,0.032-0.314,0.054l0.056,0.25l-0.059,0.023l-0.042-0.262c-0.109,0.023-0.215,0.055-0.322,0.083
	c0.219,0.853,0.52,1.842,0.69,2.271c0.084,0.39-0.252-0.373-0.345-0.394c-0.406-0.566-0.183,0.572-0.42,0.393l0.016-0.389
	c-0.082-0.144-0.278,0.152-0.231,0.381c-0.094-0.204-0.268-1.13-0.45-1.348c-0.442,0.018-0.229,1.325,0.096,1.904
	c0,0,0.037-0.212,0.073-0.424c0.039-0.221,0.104-0.417,0.104-0.417c0.215,0.507-0.116,0.651,0.187,1.262l-0.457-0.003
	c0.037-0.037,0.113-0.25-0.083-0.498c-0.161,0.109-0.134-0.046-0.378-0.217c-0.091-0.405-0.23-1.203-0.351-1.978
	c-0.154,0.071-0.309,0.142-0.458,0.22c0.185,0.712,0.454,1.443,0.584,1.732c-0.229-0.026-0.798-1.082-0.866-1.312
	c-0.419,0.19,0.544,1.632,0.165,1.714l0.261,0.129c0,0.141-0.392,0.132-0.23,0.287c-0.25-0.211-0.783-0.749-0.836-0.962
	c0,0,0.106,0.272,0.213,0.544c0.121,0.271,0.242,0.541,0.242,0.541c-0.043-0.122-0.693-0.828-0.788-0.972
	c-0.142,0.079,0.558,0.992,0.724,1.052c-0.658-0.338-0.35-0.108-1.086-0.539c-0.014,0.105,0.727,0.713,0.837,0.756
	c0.058,0.294-0.079,0.286-0.213,0.272l0.01,0.021l-0.027-0.023c-0.142-0.015-0.241-0.003,0.092,0.431c0,0-0.272-0.297-0.546-0.595
	c-0.267-0.305-0.533-0.61-0.533-0.61l0.987,0.774l0.018,0.002c-0.076-0.343-0.768-0.955-1.348-1.48
	c-0.055,0.057-0.106,0.117-0.16,0.176c0.097,0.15,0.201,0.309,0.31,0.465c0.414,0.609,0.871,1.17,0.871,1.17
	c-0.124-0.125-0.794-0.747-0.88-0.815c0.615,0.607,0.267,1.2,0.008,1.449l0.021-0.049c-0.209-0.22-0.578-0.068-0.385,0.188
	c-0.139-0.102-0.077-0.102-0.057-0.153c-0.701-0.092,0.991,0.879,0.221,0.733c0.162-0.15-0.124-0.348-0.426-0.495
	c0.194,0.307-0.292,0.542,0.662,0.87c-0.243,0.008-0.158,0.15-0.622-0.051c0,0,0.103,0.155,0.205,0.311
	c0.104,0.146,0.21,0.293,0.21,0.293c-0.087-0.061-0.355-0.186-0.465-0.091c0.206-0.166-0.584-0.746,0.074-0.617
	c-0.565-0.254-0.918-0.285-1.339-0.614c0.07,0.652,0.95,1.257,1.588,1.715c0,0-0.132,0.065-0.264,0.131
	c-0.134,0.071-0.268,0.143-0.268,0.143l0.272,0.077l-0.716-0.081c0.144,0.085,0.283,0.146,0.214,0.144
	c-0.064-0.003-0.154-0.034-0.255-0.076c0.028,0.053,0.085,0.105,0.154,0.139c0.09,0.013,0.179,0.025,0.261,0.024
	c-0.092,0.03-0.185,0.014-0.261-0.024c-0.371-0.051-0.782-0.206-1.149-0.375c-0.046,0.005-0.093,0.011-0.136,0.016
	c0.421,0.333,0.949,0.643,1.45,0.541l0.299-0.107l-0.299,0.107l-0.452,0.182c0.653,0.371,0.521,0.308,1.03,0.668
	c-0.248,0.005-0.454-0.097-0.639-0.047c0.78,0.259-0.961,0.607-0.241,0.67c0.185,0.2,0.619,0.063,0.823,0.174
	c-0.08-0.001-0.236-0.004-0.247,0.032l0.516,0.106c-0.181,0.073-0.358-0.105-0.571,0.075c0.393,0.253,0.699,0.347,0.482,0.61
	c0.161,0.281,0.983-0.307,0.916-0.046c-0.407,0.115-0.883,0.247-0.9,0.426c0.303,0.019,0.617-0.069,0.828,0.014l-0.619,0.158
	c0.061,0.126,0.198,0.195-0.263,0.339c0.298,0.03,0.281,0.112,0.204,0.204c0.389,0.075,1.174-0.567,1.404-0.66
	c-0.395,0.307-0.092,0.324-0.774,0.702l-0.221-0.103c-0.605,0.66,0.948-0.025-0.211,0.678c-0.019-0.138-0.396-0.165-0.688,0.049
	c-0.001,0,0.393,0.061,0.393,0.061c-0.144,0.093-0.162-0.061-0.297,0.107c0.156-0.001,0.507-0.03,0.721-0.08l0.181-0.074
	c0.002,0.024-0.073,0.05-0.181,0.074l-0.037,0.015c-0.001,0,0.243,0.276,0.252,0.27c-0.012-0.069-0.228,0.027-0.215,0.1l0.414,0.033
	l0.136,0.006l-0.136-0.006c-0.175,0.021-0.308,0.182-0.34,0.331c0.008,0.381,1.317-0.58,0.914-0.043
	c-0.008-0.033-0.076,0.009-0.086-0.024l-0.163,0.257c1.1-0.783,0.516,0.451,1.567-0.438c-0.319,0.464-0.228,0.235-0.851,0.507
	l-0.18,0.38c-0.087-0.019-0.049-0.129-0.202-0.1c-0.271,0.547,0.426,0.244,0.746,0.074c-0.078,0.199-0.779,0.672-0.426,0.689
	c0.449,0.048,0.633-0.764,0.893-0.745L34.2,20.36c0.533-0.219,0.394,0.233,0.525,0.457c0.073-0.015,0.134-0.059,0.187-0.114
	c0-0.004-0.003-0.004-0.003-0.009l0.059-0.058c0.131-0.174,0.213-0.385,0.313-0.32l-0.313,0.32l-0.056,0.067
	c0.04,0.392,0.775-0.334,0.785-0.049c-0.105,0.109-0.125,0.432-0.181,0.592c0,0,0.121-0.063,0.242-0.126
	c0.117-0.064,0.233-0.129,0.233-0.129c-0.198,0.108-0.374,0.474-0.571,0.814c0.119,0.011,0.258-0.168,0.344-0.184
	c-0.098,0.111-0.202,0.222-0.225,0.413c0,0,0.15-0.112,0.301-0.224c0.146-0.125,0.292-0.249,0.292-0.249
	c0.007-0.071-0.021-0.108-0.044-0.135c0.085,0.025,0.337-0.155,0.341,0.199c-0.061,0.143-0.149,0.265-0.212,0.409
	c0.049-0.455-0.134-0.118-0.301,0.143c0.27,0.024,0.023,0.117,0.046,0.431c0.19,0.054,0.424-0.43,0.486-0.769
	c0.13,0.217,0.181,0.317,0.47-0.022l-0.174,0.521l0.225-0.12l-0.313,0.61c0.297,0.457,0.283-0.883,0.611-0.506l-0.088,0.475
	c0.203-0.157,0.37-0.955,0.404-0.364c0.178-0.267-0.14-0.712,0.191-0.759c0.023,0.258,0.13,0.46,0.223,0.556
	c0.123-0.216-0.034-0.57-0.102-0.511c0.482-0.208,0.218,1.666,0.736,1.047c-0.162-0.344,0.121-0.922-0.236-0.926
	c0.162-0.265,0.348,0.697,0.518,0.165l-0.098,0.621c0.072,0.009,0.141-0.22,0.173-0.296l0.012,0.475
	c0.176-0.832,0.51,0.364,0.514-0.747c0.024,0.864,0.163-0.076,0.306,0.241c-0.101,0.621-0.555,0.078-0.503,0.857
	c0.126,0.236,0.171-0.174,0.295,0.046c0.048-0.119,0.079-0.153,0.022,0.038c-0.01-0.016-0.016-0.026-0.022-0.038
	c-0.052,0.126-0.129,0.351-0.141,0.514c0.416,0.39,0.487-0.558,0.63-0.787l-0.317,0.232c-0.097-0.786,0.137-0.158,0.118-0.782
	c0.25,0.402,0.24-0.254,0.426-0.026c-0.035,0.005-0.02,0.081-0.055,0.085c0.326-0.108,0.813,1.115,0.984,1.068
	c0.193,0.038,0.332-0.472,0.107-0.747c0.04-0.25-0.406,0.402-0.528-0.647c0.595,1.029,0.235-0.525,0.942,0.011
	c-0.01,0.473,0.401,0.548,0.361,0.921c0.182-0.195,0.111-0.357,0.051-0.699l0.236,0.297c-0.132-0.874-0.28-0.686-0.148-1.282
	c0.029,0.321,0.432,0.367,0.479,0.644c0.121-0.044,0.17-0.198,0.109-0.439l0.018,0.053c0.232-0.423,0.59,0.159,0.646-0.43
	l-0.175-0.144c-0.02-0.789,0.697-0.94,0.775-1.544l-0.249,0.03c0.124,0.022-0.093-0.47,0.286-0.388c0-0.019,0.008-0.026,0.055,0.008
	c-0.022-0.006-0.034-0.003-0.055-0.008c-0.001,0.036,0.049,0.135,0.007,0.141c0.204,0.139,0.558,0.308,0.676,0.227l-0.294-0.252
	l0.275,0.117c0.105-0.163-0.49-0.247-0.39-0.403c0.489,0.24,0.647,0.079,0.764-0.108c0.112-0.192,0.214-0.39,0.695-0.278
	c-0.665-0.443-0.274,0.302-0.858-0.139c0.133-0.001,0.278,0.038,0.394-0.053l-0.452-0.153c0.46-0.406,0.939-0.517,0.969-1.073
	l0.094,0.045c0.227-0.146,0.179-0.276-0.219-0.437c0.225,0.001,0.315,0.163,0.519,0.125c-0.572-0.289-0.33-0.399-0.039-0.524
	c0.297-0.118,0.621-0.248,0.199-0.391c0.429,0.059,0.854-0.015,1.262-0.089c0.01-0.174,0.026-0.347,0.026-0.523
	c0-2.653-1.127-5.037-2.92-6.719c-0.02-0.01-0.033-0.024-0.074-0.009c-0.004-0.021,0.004-0.035,0.006-0.053
	c-0.076-0.07-0.151-0.142-0.23-0.209c-0.009,0.003-0.021,0.013-0.029,0.015c0.004-0.015,0.002-0.023,0.005-0.037
	c-0.091-0.078-0.185-0.152-0.278-0.227c-0.102,0.048-0.211,0.132-0.297,0.238c0.009-0.113,0.16-0.199,0.236-0.283
	c-0.007-0.005-0.014-0.009-0.02-0.014l-0.311,0.051c0.042-0.071,0.087-0.13,0.133-0.184c-0.458-0.336-0.947-0.629-1.464-0.877
	C42.469,7.178,42.331,7.257,42.225,7.347z M32.75,17.14c0.012-0.065,0.017-0.098,0.175-0.163l0.152-0.034L32.75,17.14z
	 M32.85,18.997l0.467-0.363l0.004,0.033L32.85,18.997z M34.588,19.213c0.018,0.059,0.15,0.015,0.176,0.063
	C34.266,19.809,34.734,19.228,34.588,19.213z M35.012,9.915c-0.42-0.529-0.283-0.442-0.297-0.73c-0.002-0.046-0.007-0.1-0.019-0.17
	c0.012,0.07,0.017,0.124,0.019,0.17c0.063,0.204,0.259,0.096,0.336,0.33C34.719,9.359,35.324,10.014,35.012,9.915z M40.04,7.799
	c-0.272,0,0.066-0.276,0.126-0.441C40.337,7.532,40.09,7.631,40.04,7.799z M40.835,7.375L40.67,7.58l0.168-0.598
	C40.83,7.15,40.804,7.26,40.835,7.375z M43.321,7.526l0.003,0.125l-0.123-0.24L43.321,7.526z"/>
<path fill="#EC1C24" d="M30.656,13.302c-0.138,0.04-0.173,0.101-0.149,0.167C30.706,13.433,30.798,13.387,30.656,13.302z"/>
<path fill="#EC1C24" d="M32.131,17.827c0.254-0.136-0.073-0.121-0.188-0.139C31.824,17.823,31.594,17.967,32.131,17.827z"/>
<line fill="none" stroke="#FFFFFF" stroke-width="0" stroke-linecap="round" stroke-linejoin="round" x1="32.69" y1="18.852" x2="32.826" y2="18.857"/>
<line fill="none" stroke="#FFFFFF" stroke-width="0" stroke-linecap="round" stroke-linejoin="round" x1="31.083" y1="14.116" x2="31.381" y2="14.009"/>
<path fill="none" stroke="#FFFFFF" stroke-width="0" stroke-linecap="round" stroke-linejoin="round" d="M43.799,4.857
	c-0.017-0.067-0.045-0.131-0.083-0.184"/>
<path fill="none" stroke="#FFFFFF" stroke-width="0" stroke-linecap="round" stroke-linejoin="round" d="M34.715,9.185
	c-0.002-0.046-0.007-0.1-0.019-0.17"/>
<path fill="#EC1C24" d="M56.047,31.259c0.352-0.378,0.887-0.943,0.454-0.815l-0.42,0.188C56.17,30.878,56.132,31.087,56.047,31.259z
	"/>
<path fill="#EC1C24" d="M44.594,27.335c-0.066,0.088-0.139,0.185-0.215,0.286c0.021,0.042,0.045,0.086,0.067,0.131
	C44.5,27.603,44.548,27.464,44.594,27.335z"/>
<path fill="#EC1C24" d="M29.142,31.748l0.054,0.458C29.362,32.131,29.208,31.955,29.142,31.748z"/>
<path fill="#EC1C24" d="M55.95,41.212c0.17-0.195,0.241-0.349,0.262-0.485C55.963,40.961,55.589,41.15,55.95,41.212z"/>
<path fill="#EC1C24" d="M34.214,25.883c0.095-0.083,0.145-0.17,0.114-0.274C34.237,25.695,34.203,25.786,34.214,25.883z"/>
<path fill="#EC1C24" d="M56.21,40.165c-0.044,0.035-0.065,0.068-0.103,0.103c0.073,0.142,0.132,0.286,0.104,0.459
	C56.397,40.554,56.512,40.356,56.21,40.165z"/>
<path fill="#EC1C24" d="M53.51,38.72l0.002-0.013C53.426,38.75,53.443,38.743,53.51,38.72z"/>
<path fill="#EC1C24" d="M26.803,38.08c-0.014,0.009-0.022,0.021-0.041,0.031C26.942,38.257,26.914,38.193,26.803,38.08z"/>
<polygon fill="#EC1C24" points="50.817,30.076 50.837,30.062 50.836,30.044 "/>
<path fill="#EC1C24" d="M51.453,28.914c0,0-0.29,0.328-0.544,0.67c-0.256,0.34-0.477,0.698-0.477,0.698
	c0.346-0.461,0.402-0.365,0.404-0.238c0,0,0.161-0.28,0.321-0.561C51.305,29.199,51.453,28.914,51.453,28.914z"/>
<path fill="#EC1C24" d="M23.916,42.495c-0.001,0.204-0.02,0.361-0.095,0.421c0.046,0.041,0.069,0.083,0.105,0.124
	C24.073,42.828,24.242,42.614,23.916,42.495z"/>
<path fill="#EC1C24" d="M27.356,41.598c-0.181-0.337-0.463-0.581,0.238-0.815c-1.026-0.397-0.57,0.749-0.789,0.526
	c-0.336,0.186-0.768-0.328-0.664-0.6c0.022-0.276,1.313-0.47,1.293-1.165c-0.005,0.069,0.072,0.074,0.068,0.143
	c0.262-0.261-0.354-0.51,0.07-0.829c-0.62-0.179,0.036-0.414-0.756-0.466L27,39.03c-0.207-0.361-1.133-0.7-0.684-1.296
	c0.159,0.047,0.369,0.224,0.486,0.346c0.233-0.174-0.154-0.335,0.085-0.516c0.792,0.051,0.173,0.774,0.776,1.162
	c0.334-0.187-0.574-0.732,0.284-0.538c-1.091-0.28,0.138-0.685-0.695-1.156l0.475,0.031c-0.075-0.075-0.299-0.229-0.286-0.366
	l0.615,0.248c-0.525-0.381,0.459-0.734,0.173-1.1c0.015,0.765-0.571,0.171-0.918,0.496c-0.636-0.944,1.241-0.543,1.014-1.6
	c0.067,0.143-0.285,0.537-0.505,0.313c0.098-0.201,0.279-0.467,0.529-0.591c-0.1-0.7-0.488,0.107-0.78-0.19
	c0.578-0.238-0.235-0.344-0.421-0.65l0.482-0.002c0.311-0.784-1.005-0.242-0.631-0.899c0-0.033,0.669,0.273,0.669,0.272
	c0,0-0.043-0.093-0.087-0.187c-0.043-0.084-0.086-0.101-0.086-0.11l0.549,0.048c-0.407-0.159-0.302-0.25-0.148-0.354
	c-0.336-0.045-0.889-0.243-0.861-0.476c0.314-0.024,0.421,0.233,0.436-0.034c0.253,0.193,0.633,0.37,0.177,0.301
	c0.154,0.064,0.293,0.146,0.447,0.2c0.326,0.026,0.116-0.155,0.149-0.218c-0.025,0.011-0.063,0.021-0.136,0.001
	c0,0-0.131-0.129-0.255-0.295c-0.108-0.152-0.186-0.324-0.186-0.324c0.192,0.071,0.282,0.2,0.384,0.311
	c-0.005-0.069-0.173-0.257-0.119-0.346c0.289,0.285,0.599,0.564,0.712,0.732c-0.023,0.008-0.216-0.41-0.196-0.422
	c0.14,0.111,0.396,0.305,0.472,0.433c0.198,0.152-0.344-0.692,0.201-0.594c-0.011-0.079-0.005-0.163,0.061-0.242
	c0.402-0.042,0.836,0.314,1.172-0.323l0.42,0.597c-0.222,0.177-0.47,0.448-0.288,0.789l0.274-0.146
	c0.176,0.21-0.175,0.328-0.586,0.521c-0.41,0.183-0.882,0.446-0.946,0.664c-0.09,0.093-0.144-0.154-0.21-0.295
	c-0.305,0.605-0.147,0.563,0.104,0.568c0.252,0,0.598-0.021,0.67,0.238c-0.338,0.095-0.861-0.124-0.924,0.226
	c-0.275,0.173,1.1,1.011,0.449,1.487c0.262-0.105,0.522-0.209,0.719,0.032c0.094,0.369-0.987,0.997-0.164,1.331
	c-0.071,0.047-0.14,0.065-0.205,0.067c0.213,0.282,0.354,0.916,0.8,1.086c-1.657,0.261,0.806,1.753-0.722,1.747l0.081,0.867
	l-0.155-0.022c-0.085,0.465,0.161,0.676,0.459,0.848c0.73,0.159,1.341,0.437,1.514,0.271l0.115,0.496
	c1.109-0.761,1.241-0.826,2.564-0.518c-0.017,0.08-0.17,0.223,0.04,0.327c0.318-0.367,0.639-0.733,1.544-0.632l-0.037,0.156
	l1.417-0.082c-0.01,1.528,2.429-0.935,2.854,0.722c0.277-0.446,1.313-0.587,1.774-0.799c-0.005-0.097,0.063-0.185,0.22-0.264
	c0.033,0.106-0.059,0.189-0.22,0.264c0.003,0.065,0.032,0.133,0.108,0.205c0.545-0.823,1.571,0.257,2.174,0.164
	c0.394-0.196,0.223-0.457,0.052-0.718c0.777,0.65,2.146-0.725,2.43-0.45c0.57,0.063,0.213,0.586,0.369,0.925
	c0.847-0.146-0.143-1.383,0.993-0.774c-0.132,0.066-0.376,0.121-0.281,0.21c0.434,0.129,1.21,1.885,1.642,1.532l-0.285-0.274
	c0.134-0.067,0.276-0.072,0.422-0.045c-0.075-0.169-0.133-0.336-0.245-0.423c0.096-0.205,0.231,0.085,0.447-0.026l-0.359-0.277
	c0.449-0.028,0.746-0.543,1.01-0.062l0.02-0.434c0.252-0.255,0.352-0.606,0.163-0.823c0.097-0.205-0.497-0.517-0.146-0.339
	L50.15,39.35l0.112-0.006c0.057-0.672-0.744-1.382,0.066-2.15c-0.113-0.226-0.252-0.459-0.124-0.838l0.389-0.074
	c-0.136-0.29,0.389-0.872-0.017-0.996c0.523-0.157,0.58-0.509,0.529-0.886c-0.024-0.188-0.077-0.383-0.111-0.563l-0.021-0.137
	c-0.004-0.078-0.007-0.153-0.011-0.225c-0.001-0.056,0.009-0.101,0.011-0.153c0.325,0.184,0.429,0.605,0.857,0.578l-0.697-0.987
	c0.671-0.04,1.908,0.571,1.789,1.215c-0.268,0.164-1.196-0.123-1.42-0.109c0.23,0.083,0.441,0.611,0.277,0.67l-0.359-0.273
	c-0.253,0.359,0.891,0.585,0.25,1.017c-0.043,0.149-0.866,0.444-0.469,0.47c0.768-0.243,3.141-0.291,3.717-0.129
	c-0.052,0.053-0.733,0.781-1.112,0.951c-0.602,0.245-1.434-0.368-1.95-0.159c0.184,0.009,0.41,0.145,0.482,0.201
	c-0.156,0.156-0.568-0.065-0.485,0.274c0.682,0.057-0.058,0.69,0.576,0.161c0.194,0.332-0.14,0.353-0.11,0.743
	c0.44-0.124,1.499,0.351,1.693,0.683c-0.174-0.02-0.398,0.056-0.502,0.092c-0.062,0.681-0.371,1.046-0.377,1.681
	c-0.165,0.059-0.365,0.365-0.658,0.234c0.121,0.092,0.352,0.175,0.368,0.371c-0.589,0.379-0.092-0.437-0.8-0.147
	c0.396,0.024,0.547,0.506,0.794,0.785c0.612-0.086,0.117-0.645-0.13-0.924c0.844-0.001,1.728,0.485,2.117,1.148
	c0.21,0.527-0.545,0.229-0.425,0.32c-0.003,0.023,0.005,0.038,0.004,0.06c0.402-0.012,0.577,0.029,1.172,0.059
	c0.069-0.057,0.304-0.135,0.456-0.093c-0.066-0.611-0.664-1.255,0.076-1.946c-0.113-0.223-0.252-0.453-0.124-0.825l0.389-0.073
	c-0.136-0.286,0.389-0.858-0.017-0.981c1.046-0.308,0.229-1.387,0.414-1.89l-0.508-0.019c0.029-0.346-0.115-0.678-0.318-1.108
	l-0.448,0.026c-0.368-0.37,0.319-0.952,0.272-1.538c0.172,0.04,0.127,0.188,0.023,0.293c1.013-0.7-0.736-1.477,0.001-2.111
	c-0.163-0.159-0.107-0.27,0.005-0.387c0.002,0.021,0.01,0.03,0.023,0.042c0.006-0.014,0.007-0.038,0.004-0.082
	c0.072-0.109,0.156-0.227,0.223-0.357c-0.104,0.114-0.188,0.216-0.227,0.303c-0.018-0.189-0.085-0.478-0.207-0.737l0.468-0.193
	c-0.007-0.023-0.007-0.042-0.017-0.066c0.16-0.328-0.232-0.181-0.581,0.027c-0.083-0.121-0.181-0.223-0.296-0.287
	c0.374-0.196,0.302-0.367,0.238-0.532c-0.052-0.173-0.166-0.314,0.197-0.625c-0.202-0.01-0.379-0.296-0.637-0.515
	c-0.247-0.229-0.608-0.353-0.975-0.151c0.082-0.07,0.083-0.158,0.166-0.061c-0.086-0.255-0.206-0.523-0.564-0.502l0.352-0.506
	c-0.013-0.023-1.051,0.261-1.038,0.286c-0.053-0.447-0.101-0.728,0.528-0.917c-0.629,0.053-0.831,0.079-1.014,0.062
	c-0.178-0.007-0.369,0.009-0.84,0.227l0.186-0.356c-0.281-0.064-0.818,0.337-0.883-0.004c-0.415-0.888-2.332-0.474-3.465-1.196
	c0.184,1.174-0.531-0.545-0.605,0.36c-0.061-0.277-0.222-0.437-0.024-0.672c-0.606,0.256-0.9-0.453-1.313,0.308
	c-0.068-0.277,0.127-0.404,0.067-0.568c-0.048,0.06-0.189,0.24-0.251,0.076s0.087-0.232,0.182-0.352
	c-0.613,0.046-0.664,0.899-0.701,1.696c-0.305-0.375-0.456-0.319-0.664,0.207c-0.108-0.259-0.288-0.529,0.08-0.628
	c-0.209-0.037-1.276-0.357-1.28,0.283c-0.068-0.161-0.289-0.04-0.341,0.035c-0.384-0.021-0.49-0.059-0.77-0.031
	c-0.057,0.006-0.108,0.01-0.184,0.022l0.083,0.065l0.045,0.035c-0.155,0.776-0.37,0.183-0.729,0.286l0.009-0.08
	c-0.205-0.13-0.33-0.178-0.415-0.189c-0.046-0.005-0.081-0.001-0.109,0.01c-0.097,0.037-0.135,0.125-0.328,0.043
	c-0.033-0.015-0.068-0.031-0.112-0.058c-0.062-0.036-0.128-0.079-0.217-0.145l0.054,0.479c-0.037,0.667-0.332,0.226-0.659-0.064
	c-0.18-0.159-0.368-0.273-0.529-0.134l0.038,0.061l0.132,0.212c-0.087,0.124-0.203-0.018-0.33-0.251
	c-0.234-0.431-0.504-1.189-0.688-1.271c-0.062-0.089,0.093-0.145,0.176-0.212c-0.733-0.599-0.086,0.628-0.614,0.783
	c-0.107-0.335,0.107-0.866-0.258-0.917c-0.141-0.192-0.593,0.46-1.028,0.629c-0.165,0.064-0.326,0.057-0.469-0.093
	c-0.009-0.009-0.018-0.008-0.025-0.018c0.004,0.008,0.008,0.017,0.012,0.025c0.119,0.245,0.225,0.49-0.001,0.693
	c-0.146,0.043-0.352-0.094-0.563-0.221c-0.314-0.188-0.643-0.349-0.806,0.158c-0.054-0.067-0.078-0.133-0.086-0.198
	c-0.017,0.014-0.043,0.028-0.062,0.042c-0.293,0.22-0.851,0.437-0.961,0.869c-0.484-1.62-1.655,1.041-1.885-0.456l-0.883,0.247
	l-0.008-0.158c-0.603,0.029-0.727,0.424-0.837,0.834c-0.156-0.065-0.096-0.229-0.104-0.31c-0.914-0.079-1.022,0.021-1.466,0.98
	l-0.242-0.441c-0.067,0.17-0.37,0.087-0.938,0.164c-0.284,0.028-0.577,0.127-0.849,0.275c-0.27,0.149-0.53,0.331-0.64,0.63
	c-0.03-0.048-0.079-0.133-0.053-0.243c-0.311,0.608-1.117,0.906-1.612,1.479c-0.118,0.138-0.246,0.272-0.308,0.421
	c-0.05,0.152-0.078,0.303-0.07,0.449c-0.003,0.144,0.076,0.294,0.12,0.411c0.113,0.135,0.271,0.258,0.489,0.368
	c0,0,0.103,0.223,0.204,0.445c0.104,0.207,0.208,0.413,0.208,0.413c0.083-0.482,0.272-0.398,0.482-0.268
	c0.21,0.136,0.441,0.304,0.59,0.164c0.107,0.284-0.549,0.801-0.636,0.386l0.092-0.063c-0.463-0.131-0.562,0.229-0.604,0.449
	c-0.047,0.248-0.055,0.509-0.375,0.5c0.047,1.479-0.475,2.921-0.515,4.307l0.731-0.16l-0.042,0.483
	c-0.171,0.127-0.572,0.17-0.542-0.175c-0.414,0.182,0.348,0.579,0.506,0.588c-0.296,0.675-0.853-0.264-0.87-0.057l0.055,0.281
	l0.085-0.063c0.299,0.228,0.616,0.248,0.58,0.663c-0.146,0.262-0.451,0.135-0.479,0.238c-0.052,0-0.076,0.034-0.021,0.159
	l-0.063,0.608l0.577-0.243c0.284,0.27-0.03,0.572,0.624,0.292c-0.686,0.28-0.608,1.221-0.586,1.88l0.632-0.292
	C24.939,40.644,26.157,41.367,27.356,41.598z M48.463,28.897c0.074-0.045,0.146-0.083,0.219-0.124
	c0.037,0.019,0.074,0.058,0.113,0.132c-0.092-0.001-0.137-0.058-0.188,0.109c0.106-0.122,0.259-0.131,0.385-0.083l-0.107,0.154
	c0-0.009,0.169,0.128,0.28,0.221l-0.071-0.003c0.029,0.01,0.066,0.018,0.099,0.026c0.039,0.034,0.067,0.059,0.067,0.063
	c-0.368,0.121-0.91,0.309-1.465,0.595v-0.131h-0.656c0.065-0.055,0.127-0.111,0.195-0.166c0.009,0.009,0.018,0.016,0.027,0.027
	c-0.002-0.02,0.001-0.031-0.001-0.049c0.295-0.234,0.603-0.449,0.904-0.644c-0.044,0.241-0.164,0.42-0.446,0.341
	C48.053,29.885,48.251,29.206,48.463,28.897z M45.18,31.622c-0.064,0.061-0.117,0.11-0.164,0.155
	C45.063,31.732,45.116,31.683,45.18,31.622z M47.795,35.169c0.205,0.117,0.372,0.246,0.438,0.36
	c-0.148-0.017-0.322,0.035-0.438,0.073V35.169z M48.027,33.59c-0.074,0.034-0.151,0.052-0.231,0.062v-0.526l0.762-0.128
	c0,0-0.257,0.018-0.514,0.035c-0.088,0.008-0.171,0.015-0.248,0.022v-0.516c0.59-0.181,1.112-0.311,1.344-0.283
	C49.087,32.376,48.406,33.444,48.027,33.59z M47.322,27.661c-0.042,0.009-0.091,0.025-0.135,0.035
	c0.048-0.02,0.093-0.046,0.143-0.061C47.326,27.645,47.326,27.652,47.322,27.661z M42.582,29.856h-0.367l0.264-0.646
	c0.115,0.178-0.045,0.392-0.004,0.637c0.039-0.034,0.068-0.059,0.102-0.088C42.578,29.791,42.58,29.823,42.582,29.856z
	 M34.12,37.644l-0.112-0.157L34.12,37.644z M30.832,31.646c-0.001,0.001-0.003,0.002-0.004,0.003c0.1-0.162-0.144-0.414-0.219-0.671
	l0.091,0.039C31.215,31.359,31.063,31.464,30.832,31.646z M49.485,40.835c-0.537,0.331-1.069,0.015-1.457,0.088
	c-0.203-0.436,0.342-0.669,0.32-0.965l-0.255,0.364c-0.179-0.139-0.314-0.43-0.159-0.589c-0.059,0.034-0.103,0.085-0.139,0.149
	v-2.048c0.525,0.199,0.996,0.544,1.25,0.983c0.21,0.535-0.545,0.232-0.425,0.325C48.473,40.148,50.094,40,49.485,40.835z
	 M50.127,40.857l-0.023-0.012C50.292,40.606,50.217,40.691,50.127,40.857z M50.983,28.804c-0.05,0.1-0.469,0.934-0.549,1.093
	c0,0,0.397-0.64,1.014-1.188c0.608-0.577,1.367-0.959,1.367-0.959c-0.279,0.263-0.585,0.785-0.971,1.277
	c-0.372,0.485-0.77,0.912-1.007,1.035c0.01,0.125-0.014,0.247,0.308,0.127c0.048-0.099,0.627-0.923,0.767-0.921
	c-0.167,0.396-0.235,0.506-0.267,0.606c-0.037,0.095-0.047,0.198-0.267,0.522c0.071-0.164,1.147-0.894,1.243-0.677
	c-0.173,0.084-1.035,0.706-1.171,0.743c0,0,0.31-0.124,0.615-0.188c0.315-0.074,0.621-0.091,0.622-0.092
	c-0.229-0.015-0.933,0.474-1.233,0.67c0.226-0.128,0.01,0.254,0.113,0.292l0.261-0.217c-0.17,0.38,1.582,0.059,1.522,0.771
	c-0.116-0.045-0.474-0.083-0.819-0.075c-0.347,0.006-0.682,0.033-0.752,0.221c0.576,0.161,2.771,0.713,3.214,1.325l-0.329,0.117
	l0.375,0.47c-0.867-0.293-2.69-1.113-3.4-1.561c-0.26,0.261-0.388,0.072-0.357,0.463c-0.309,0.139-0.469-0.213-0.486-0.328
	l-0.166,0.758l-0.146,0.004c0.029-0.601-0.115-1.16-0.318-1.785l-0.448,0.213c-0.185-0.21-0.104-0.582,0.016-1.056
	c0.082-0.32,0.18-0.69,0.228-1.039c0.076-0.001,0.153-0.002,0.226-0.011C50.449,29.346,50.764,29.183,50.983,28.804z M44.089,27.094
	l0.583-0.351c0.072,0.104,0.015,0.325-0.078,0.592c0.039-0.053,0.076-0.105,0.105-0.154c0.163,0.181,0.137,0.441,0.05,0.716
	c-0.062,0.022-0.122,0.044-0.188,0.067c-0.038-0.071-0.076-0.141-0.115-0.212c-0.033,0.093-0.065,0.189-0.095,0.286
	c-0.144,0.055-0.274,0.125-0.384,0.213c0.107-0.218,0.261-0.433,0.411-0.63C44.26,27.391,44.158,27.189,44.089,27.094z
	 M23.556,39.63l0.126-0.095C23.821,39.75,23.696,39.69,23.556,39.63z"/>
<path fill="#EC1C24" d="M29.133,31.662c-0.005-0.002-0.008,0.001-0.012,0c0.004,0.03,0.012,0.058,0.021,0.086L29.133,31.662z"/>
<path fill="#EC1C24" d="M51.607,36.762c0.069-0.102,0.157-0.158,0.249-0.195C51.738,36.561,51.638,36.607,51.607,36.762z"/>
<path fill="#EC1C24" d="M53.69,41.74c0.119,0.092,0.186,0.234,0.352,0.175l-0.144-0.384C53.726,41.492,53.622,41.597,53.69,41.74z"
	/>
<path fill="#EC1C24" d="M52.069,41.887c0.171,0.039,0.314,0.423,0.455,0.07C52.352,41.919,52.03,41.399,52.069,41.887z"/>
<polygon fill="#EC1C24" points="54.336,36.251 53.31,36.167 53.318,36.265 "/>
<path fill="#EC1C24" d="M51.198,31.634c0.24,0.044,0.248-0.154,0.456-0.123c-0.254-0.114-0.11-0.177-0.78-0.026
	C50.629,31.645,51.502,31.455,51.198,31.634z"/>
<path fill="none" stroke="#EC1C24" stroke-width="0" stroke-linecap="round" stroke-linejoin="round" d="M51.809,31.574
	c-0.062-0.025-0.111-0.046-0.155-0.063"/>
<line fill="none" stroke="#EC1C24" stroke-width="0" stroke-linecap="round" stroke-linejoin="round" x1="34.12" y1="37.644" x2="34.007" y2="37.486"/>
<path fill="#EC1C24" d="M50.17,38.152c0.17-0.197,0.241-0.354,0.262-0.493C50.184,37.897,49.81,38.089,50.17,38.152z"/>
<path fill="#EC1C24" d="M29.667,37.174c-0.074-0.1-0.156-0.155-0.264-0.135C29.482,37.135,29.571,37.176,29.667,37.174z"/>
<path fill="#EC1C24" d="M50.431,37.089c-0.044,0.035-0.065,0.069-0.103,0.104c0.073,0.144,0.132,0.29,0.104,0.466
	C50.618,37.484,50.733,37.283,50.431,37.089z"/>
<path fill="#EC1C24" d="M50.52,42.473C50.548,42.62,50.568,42.496,50.52,42.473L50.52,42.473z"/>
<path fill="#EC1C24" d="M50.323,42.694c0.053-0.056,0.098-0.119,0.129-0.188C50.418,42.536,50.375,42.594,50.323,42.694z"/>
<path fill="#EC1C24" d="M50.528,42.665c-0.017,0.052-0.029,0.091-0.042,0.128C50.558,42.812,50.604,42.795,50.528,42.665z"/>
<path fill="#EC1C24" d="M50.497,42.268c0.007,0.084-0.014,0.163-0.045,0.238c0.029-0.029,0.054-0.041,0.068-0.033
	C50.515,42.429,50.508,42.368,50.497,42.268z"/>
<path fill="#EC1C24" d="M50.307,42.718c0.007-0.01,0.01-0.014,0.016-0.023l-0.023,0.02c-0.031-0.016-0.037-0.017-0.009,0.007
	c-0.009,0.008-0.02,0.014-0.028,0.021c0.073,0.045,0.145,0.088,0.213,0.127c0.004-0.027,0-0.04,0.011-0.076
	C50.426,42.778,50.352,42.741,50.307,42.718z"/>
<path fill="#EC1C24" d="M50.758,43.001c0.004,0.001,0.006,0.001,0.009,0.001c0.003-0.001,0.004-0.002,0.006-0.003
	C50.768,43,50.764,43.001,50.758,43.001z"/>
<path fill="#EC1C24" d="M50.187,41.988c-0.104,0.106,0.519,0.066,0.354,0.127C51.057,42.233,49.916,41.408,50.187,41.988z"/>
<path fill="#EC1C24" d="M47.911,38.688c0.119,0.094,0.186,0.238,0.352,0.179l-0.144-0.39C47.947,38.437,47.842,38.543,47.911,38.688
	z"/>
<path fill="none" stroke="#EC1C24" stroke-width="0" stroke-linecap="round" stroke-linejoin="round" d="M45.016,31.777
	c0.047-0.044,0.1-0.094,0.164-0.155"/>
<path fill="#EC1C24" d="M38.527,95.633c-0.073,0.054,0.765,0.035,0.915,0.043C39.256,95.585,38.309,95.635,38.527,95.633z"/>
<polygon fill="#EC1C24" points="36.625,94.736 36.966,94.752 36.128,94.62 "/>
<path fill="#EC1C24" d="M36.64,93.898c-1.428,0.079,0.23,0.304-0.277,0.453l-0.325,0.025l1.148,0.067
	C37.004,94.262,36.242,94.026,36.64,93.898z"/>
<path fill="#EC1C24" d="M39.728,93.451c-0.556,0.027-0.479-0.097-0.174,0.104c0.062-0.009,0.096-0.013,0.141-0.02
	C39.687,93.519,39.688,93.493,39.728,93.451z"/>
<path fill="#EC1C24" d="M39.695,93.536C39.735,93.625,40.162,93.479,39.695,93.536L39.695,93.536z"/>
<path fill="#EC1C24" d="M39.376,93.129l0.496,0.116c0.328-0.024,0.402-0.128,0.641-0.089C40.242,93.036,39.916,93.061,39.376,93.129
	z"/>
<path fill="#EC1C24" d="M38.334,93.019l0.21,0.061C38.682,93.068,38.73,93.052,38.334,93.019z"/>
<path fill="#EC1C24" d="M38.988,93.207l-0.443-0.127c-0.23,0.017-0.693,0.019,0.16,0.059C38.282,93.127,38.688,93.152,38.988,93.207
	z"/>
<path fill="#EC1C24" d="M38.77,93.279c-0.311,0.065-0.506,0.15-1,0.033C37.966,93.534,38.97,93.501,38.77,93.279z"/>
<path fill="#EC1C24" d="M34.746,93.942l0.479,0.075c-0.237-0.037,0.387-0.168-0.061-0.162L34.746,93.942z"/>
<path fill="#EC1C24" d="M40.116,92.404c-0.304-0.007-0.81,0.039-1.198,0.048l0.349,0.086C39.474,92.494,39.666,92.41,40.116,92.404z
	"/>
<path fill="#EC1C24" d="M38.917,92.452l-0.521-0.128C38.334,92.438,38.583,92.459,38.917,92.452z"/>
<polygon fill="#EC1C24" points="36.75,92.998 37.845,93.209 36.735,92.957 "/>
<polygon fill="#EC1C24" points="40.154,91.914 40.857,91.986 39.794,91.856 "/>
<path fill="#EC1C24" d="M40.031,91.588c0.582,0.054,0.985-0.074,1.344-0.017c-0.104-0.089-0.604-0.164-1.054-0.232
	C40.572,91.411,40.507,91.488,40.031,91.588z"/>
<path fill="#EC1C24" d="M40.321,91.339c-0.135-0.038-0.328-0.076-0.655-0.114C39.805,91.261,40.055,91.298,40.321,91.339z"/>
<path fill="#EC1C24" d="M38.546,92.104c0.184-0.01,0.664-0.029,0.867-0.101l-0.854,0.05L38.546,92.104z"/>
<path fill="#EC1C24" d="M38.532,92.056l0.027-0.001c0.019-0.055,0.038-0.093,0.048-0.109C38.598,91.959,38.575,91.992,38.532,92.056
	z"/>
<path fill="#EC1C24" d="M38.542,92.117l0.004-0.013C38.462,92.109,38.434,92.112,38.542,92.117z"/>
<path fill="#EC1C24" d="M37.523,92.661c-0.478-0.076-0.99-0.233-1.719-0.081C36.389,92.635,36.804,92.548,37.523,92.661z"/>
<path fill="#EC1C24" d="M37.474,92.18l-0.195,0.136c0.226-0.002,0.555-0.027,0.792,0.011L37.474,92.18z"/>
<polygon fill="#EC1C24" points="37.203,92.113 37.474,92.18 37.546,92.13 "/>
<path fill="#EC1C24" d="M38.146,91.498c0.269,0.011,0.75,0.044,0.72-0.039c-0.372-0.059-0.403-0.124-0.463-0.196
	C38.235,91.341,38.144,91.421,38.146,91.498z"/>
<path fill="#EC1C24" d="M38.628,91.749c-0.019-0.005-0.03-0.008-0.049-0.013C38.507,91.744,38.484,91.75,38.628,91.749z"/>
<path fill="#EC1C24" d="M38.409,90.545c-0.047,0.004-0.105,0.008-0.155,0.012l0.147,0.003L38.409,90.545z"/>
<path fill="#EC1C24" d="M37.987,91.511c-0.165,0.059,0.044,0.094,0.308,0.127c-0.086-0.043-0.142-0.09-0.148-0.14
	C38.025,91.493,37.945,91.492,37.987,91.511z"/>
<path fill="#EC1C24" d="M39.266,91.025c-0.179,0.031-0.33,0.065-0.47,0.102C39.067,91.097,39.489,91.036,39.266,91.025z"/>
<path fill="#EC1C24" d="M38.816,91.716c0.014,0.003,0.028,0.007,0.038,0.009C39.038,91.706,38.948,91.708,38.816,91.716z"/>
<path fill="#EC1C24" d="M38.816,91.716c-0.123-0.03-0.334-0.054-0.521-0.078c0.067,0.036,0.159,0.069,0.285,0.098
	C38.641,91.73,38.733,91.723,38.816,91.716z"/>
<path fill="#EC1C24" d="M32.922,90.328c0.792,0.01,1.524,0.164,0.675,0.298c0.594,0.131,3.199,0.045,4.656-0.069
	c-0.346-0.004-0.665-0.004-1.133-0.139c-0.433,0.047-1.012,0.299-1.729,0.186c-0.408-0.179,0.28-0.146,0.699-0.233
	c-0.987,0.074-1.437-0.228-2.888-0.188l0.511,0.156C33.489,90.341,33.128,90.284,32.922,90.328z"/>
<path fill="#EC1C24" d="M38.172,90.813l0.099,0.056c0.138-0.063,0.454-0.108,1.074-0.192c-0.387-0.092-0.681-0.112-0.944-0.118
	l-0.11,0.273L38.172,90.813z"/>
<path fill="#EC1C24" d="M38.274,91.118c-0.862-0.043-1.229-0.176-2.161-0.095c0.06,0.163,0.72,0.114,1.094,0.211
	c-0.214-0.263,0.48,0.076,0.969-0.115c0.146,0.052,0.191,0.099,0.228,0.143c0.104-0.048,0.234-0.093,0.394-0.136
	c-0.02,0.002-0.034,0.004-0.054,0.006l0.003,0.001h-0.014c-0.107,0.011-0.173,0.015-0.11,0.002
	c-0.011-0.001-0.015-0.004-0.018-0.005c-0.12-0.005-0.225-0.009-0.325-0.013c0.178-0.076,0.224-0.012,0.325,0.013
	c0.042,0,0.083,0.001,0.128,0.003l0.011-0.001l-0.472-0.264C38.151,90.925,38.175,90.995,38.274,91.118z"/>
<path fill="#EC1C24" d="M33.951,92.44c0.076-0.008,0.138-0.008,0.2-0.008C34.045,92.414,33.973,92.408,33.951,92.44z"/>
<path fill="#EC1C24" d="M36.379,92.21c0.062-0.002,0.116-0.005,0.181-0.007C36.537,92.199,36.466,92.203,36.379,92.21z"/>
<path fill="#EC1C24" d="M35.188,92.445l-0.117-0.019c0.236-0.085,0.963-0.188,1.309-0.217c-0.681,0.028-1.211,0.057-1.908,0.122
	c0.12,0.019,0.465,0.035,0.376,0.097c-0.259,0.054-0.413,0-0.696,0.003C34.379,92.469,34.769,92.563,35.188,92.445z"/>
<path fill="#EC1C24" d="M36.153,91.717l-0.423-0.219l-0.746,0.112l0.448-0.006C35.256,91.729,35.808,91.702,36.153,91.717z"/>
<polygon fill="#EC1C24" points="38.837,90.52 39.748,90.549 38.462,90.423 "/>
<polygon fill="#EC1C24" points="38.728,90.235 39.52,90.246 39.042,90.17 "/>
<line fill="none" stroke="#EC1C24" stroke-width="0" stroke-linecap="round" stroke-linejoin="round" x1="28.908" y1="74.155" x2="28.683" y2="74.091"/>
<path fill="#EC1C24" d="M28.854,74.621l0.39,0.012C29.029,74.611,28.871,74.603,28.854,74.621z"/>
<path fill="#EC1C24" d="M33.458,78.444c-0.084,0.009-0.175,0.018-0.264,0.027c0.297,0.023,0.572,0.043,0.83,0.063
	C33.848,78.506,33.658,78.476,33.458,78.444z"/>
<line fill="none" stroke="#EC1C24" stroke-width="0" stroke-linecap="round" stroke-linejoin="round" x1="30.427" y1="78.254" x2="29.868" y2="78.378"/>
<path fill="#EC1C24" d="M38.409,87.316c0.339-0.081,0.481-0.146,0.523-0.202C38.434,87.212,37.687,87.291,38.409,87.316z"/>
<path fill="#EC1C24" d="M37.588,74.283c0.148,0.041,0.314,0.063,0.527,0.056C37.958,74.299,37.782,74.282,37.588,74.283z"/>
<path fill="#EC1C24" d="M38.932,87.114c0.371-0.072,0.6-0.154-0.003-0.233c-0.084,0.018-0.132,0.027-0.204,0.043
	C38.871,86.982,38.988,87.042,38.932,87.114z"/>
<path fill="none" stroke="#EC1C24" stroke-width="0" stroke-linecap="round" stroke-linejoin="round" d="M39.165,89.115
	c-0.006,0.006-0.029,0.004-0.058-0.026"/>
<path fill="#EC1C24" d="M35.675,89.383c-0.098-0.013-0.222-0.023-0.422-0.024C35.462,89.363,35.595,89.372,35.675,89.383z"/>
<path fill="#EC1C24" d="M33.529,86.278l0.003-0.005C33.362,86.292,33.394,86.288,33.529,86.278z"/>
<path fill="none" stroke="#EC1C24" stroke-width="0" stroke-linecap="round" stroke-linejoin="round" d="M38.712,89.18
	c0.106-0.023,0.195-0.049,0.258-0.077"/>
<path fill="#EC1C24" d="M39.123,89.167c-0.035,0.022-0.06,0.038-0.084,0.053C39.183,89.228,39.274,89.221,39.123,89.167z"/>
<path fill="#EC1C24" d="M39.06,89.005c0.014,0.034-0.027,0.066-0.09,0.098c0.059-0.012,0.107-0.017,0.137-0.014
	C39.093,89.071,39.076,89.046,39.06,89.005z"/>
<path fill="#EC1C24" d="M29.628,81.664c0.01,0.001,0.03,0.005,0.042,0.007l0.03-0.009L29.628,81.664z"/>
<path fill="#EC1C24" d="M28.982,81.447c1.08,0.092,0.947,0.145,0.719,0.215l2.502-0.072L28.982,81.447z"/>
<path fill="#EC1C24" d="M30.284,78.387c0.163-0.013,0.343-0.016,0.524-0.019C30.646,78.351,30.458,78.35,30.284,78.387z"/>
<path fill="#EC1C24" d="M30.22,85.382c-0.236-0.002-0.436,0.017-0.498,0.082C29.861,85.421,30.038,85.397,30.22,85.382z"/>
<path fill="#EC1C24" d="M39.292,89.583c0.048,0.063-0.163,0.086-0.316,0.118c0.226-0.003,0.552-0.028,0.567,0.013L39.292,89.583z"/>
<path fill="#EC1C24" d="M33.572,90.851c0.118,0.02,0.013,0.041,0.133,0.06l0.448-0.005C34.124,90.824,33.762,90.767,33.572,90.851z"
	/>
<path fill="#EC1C24" d="M36.336,89.835c-0.812,0.01-0.536,0.092-0.386,0.184c-0.003-0.005-0.01-0.011,0-0.016
	C37.086,90.03,36.71,89.933,36.336,89.835z"/>
<path fill="#EC1C24" d="M35.978,90.041c0.038,0.028,0.06,0.057,0.021,0.085C36.454,90.137,36.093,90.091,35.978,90.041z"/>
<path fill="#EC1C24" d="M38.441,88.89c-0.209,0.044,1.038,0.027,0.707,0.052C40.181,88.99,37.898,88.652,38.441,88.89z"/>
<polygon fill="#EC1C24" points="33.663,89.91 34.665,89.877 33.857,89.825 "/>
<path fill="#EC1C24" d="M34.398,89.186l-0.277,0.146c0.168-0.002,0.267,0.016,0.342,0.039
	C34.496,89.281,34.695,89.182,34.398,89.186z"/>
<path fill="#EC1C24" d="M34.628,89.489c-0.011-0.025-0.044-0.08-0.166-0.118C34.443,89.418,34.464,89.463,34.628,89.489z"/>
<polygon fill="#EC1C24" points="33.362,89.709 33.571,89.666 33.644,89.563 "/>
<path fill="#EC1C24" d="M34.591,87.609l-0.287-0.16c-0.344-0.016-0.554,0.027-0.417,0.087
	C34.126,87.574,34.259,87.634,34.591,87.609z"/>
<path fill="#EC1C24" d="M31.847,88.093c0.208-0.043,0.432-0.046,0.762-0.071l-1.242-0.005L31.847,88.093z"/>
<path fill="#EC1C24" d="M30.646,87.597c0.342,0.016,0.628,0.176,0.911,0.03C31.212,87.611,30.568,87.395,30.646,87.597z"/>
<polygon fill="#EC1C24" points="33.128,85.216 33.144,85.257 35.181,85.251 "/>
<path fill="#EC1C24" d="M29.816,83.213c-0.508-0.114-0.221-0.174-1.561-0.122c-0.488,0.189,1.257,0.045,0.647,0.216
	C29.384,83.352,29.4,83.167,29.816,83.213z"/>
<path fill="none" stroke="#EC1C24" stroke-width="0" stroke-linecap="round" stroke-linejoin="round" d="M30.125,83.271
	c-0.129-0.024-0.228-0.043-0.31-0.059"/>
<path fill="#EC1C24" d="M26.666,75.655l0.313,0.009c0.338-0.019,0.363-0.047,0.416-0.104L26.666,75.655z"/>
<polygon fill="#EC1C24" points="27.637,74.001 27.611,74.03 28.785,73.977 "/>
<path fill="#EC1C24" d="M26.303,72.794c0.012-0.013,0.003-0.026-0.01-0.04C26.28,72.767,26.279,72.78,26.303,72.794z"/>
<path fill="#EC1C24" d="M26.14,72.614c-0.038,0.044,0.107,0.093,0.153,0.14C26.398,72.655,27.438,72.601,26.14,72.614z"/>
<path fill="#EC1C24" d="M49.194,95.633c-0.073,0.054,0.765,0.035,0.915,0.043C49.923,95.585,48.976,95.635,49.194,95.633z"/>
<polygon fill="#EC1C24" points="47.292,94.736 47.633,94.752 46.795,94.62 "/>
<path fill="#EC1C24" d="M47.307,93.898c-1.428,0.079,0.23,0.304-0.277,0.453l-0.325,0.025l1.148,0.067
	C47.671,94.262,46.909,94.026,47.307,93.898z"/>
<path fill="#EC1C24" d="M50.395,93.451c-0.556,0.027-0.479-0.097-0.174,0.104c0.062-0.009,0.096-0.013,0.141-0.02
	C50.354,93.519,50.355,93.493,50.395,93.451z"/>
<path fill="#EC1C24" d="M50.362,93.536C50.402,93.625,50.829,93.479,50.362,93.536L50.362,93.536z"/>
<path fill="#EC1C24" d="M50.043,93.129l0.496,0.116c0.328-0.024,0.402-0.128,0.641-0.089C50.909,93.036,50.583,93.061,50.043,93.129
	z"/>
<path fill="#EC1C24" d="M49.001,93.019l0.21,0.061C49.349,93.068,49.397,93.052,49.001,93.019z"/>
<path fill="#EC1C24" d="M49.655,93.207l-0.443-0.127c-0.23,0.017-0.693,0.019,0.16,0.059C48.949,93.127,49.355,93.152,49.655,93.207
	z"/>
<path fill="#EC1C24" d="M49.437,93.279c-0.311,0.065-0.506,0.15-1,0.033C48.633,93.534,49.637,93.501,49.437,93.279z"/>
<path fill="#EC1C24" d="M45.413,93.942l0.479,0.075c-0.237-0.037,0.387-0.168-0.061-0.162L45.413,93.942z"/>
<path fill="#EC1C24" d="M50.783,92.404c-0.304-0.007-0.81,0.039-1.198,0.048l0.349,0.086C50.141,92.494,50.333,92.41,50.783,92.404z
	"/>
<path fill="#EC1C24" d="M49.584,92.452l-0.521-0.128C49.001,92.438,49.25,92.459,49.584,92.452z"/>
<polygon fill="#EC1C24" points="47.417,92.998 48.512,93.209 47.402,92.957 "/>
<polygon fill="#EC1C24" points="50.821,91.914 51.524,91.986 50.461,91.856 "/>
<path fill="#EC1C24" d="M50.698,91.588c0.582,0.054,0.985-0.074,1.344-0.017c-0.104-0.089-0.604-0.164-1.054-0.232
	C51.239,91.411,51.174,91.488,50.698,91.588z"/>
<path fill="#EC1C24" d="M50.988,91.339c-0.135-0.038-0.328-0.076-0.655-0.114C50.472,91.261,50.722,91.298,50.988,91.339z"/>
<path fill="#EC1C24" d="M49.213,92.104c0.184-0.01,0.664-0.029,0.867-0.101l-0.854,0.05L49.213,92.104z"/>
<path fill="#EC1C24" d="M49.199,92.056l0.027-0.001c0.019-0.055,0.038-0.093,0.048-0.109C49.264,91.959,49.242,91.992,49.199,92.056
	z"/>
<path fill="#EC1C24" d="M49.209,92.117l0.004-0.013C49.129,92.109,49.101,92.112,49.209,92.117z"/>
<path fill="#EC1C24" d="M48.19,92.661c-0.478-0.076-0.99-0.233-1.719-0.081C47.056,92.635,47.471,92.548,48.19,92.661z"/>
<path fill="#EC1C24" d="M48.141,92.18l-0.195,0.136c0.226-0.002,0.555-0.027,0.792,0.011L48.141,92.18z"/>
<polygon fill="#EC1C24" points="47.87,92.113 48.141,92.18 48.213,92.13 "/>
<path fill="#EC1C24" d="M48.813,91.498c0.269,0.011,0.75,0.044,0.72-0.039c-0.372-0.059-0.403-0.124-0.463-0.196
	C48.902,91.341,48.811,91.421,48.813,91.498z"/>
<path fill="#EC1C24" d="M49.295,91.749c-0.019-0.005-0.03-0.008-0.049-0.013C49.174,91.744,49.151,91.75,49.295,91.749z"/>
<path fill="#EC1C24" d="M49.076,90.545c-0.047,0.004-0.105,0.008-0.155,0.012l0.147,0.003L49.076,90.545z"/>
<path fill="#EC1C24" d="M48.654,91.511c-0.165,0.059,0.044,0.094,0.308,0.127c-0.086-0.043-0.142-0.09-0.148-0.14
	C48.692,91.493,48.612,91.492,48.654,91.511z"/>
<path fill="#EC1C24" d="M49.933,91.025c-0.179,0.031-0.33,0.065-0.47,0.102C49.734,91.097,50.156,91.036,49.933,91.025z"/>
<path fill="#EC1C24" d="M49.483,91.716c0.014,0.003,0.028,0.007,0.038,0.009C49.705,91.706,49.615,91.708,49.483,91.716z"/>
<path fill="#EC1C24" d="M49.483,91.716c-0.123-0.03-0.334-0.054-0.521-0.078c0.067,0.036,0.159,0.069,0.285,0.098
	C49.308,91.73,49.399,91.723,49.483,91.716z"/>
<path fill="#EC1C24" d="M43.589,90.328c0.792,0.01,1.524,0.164,0.675,0.298c0.594,0.131,3.199,0.045,4.656-0.069
	c-0.346-0.004-0.665-0.004-1.133-0.139c-0.433,0.047-1.012,0.299-1.729,0.186c-0.408-0.179,0.28-0.146,0.699-0.233
	c-0.987,0.074-1.437-0.228-2.888-0.188l0.511,0.156C44.156,90.341,43.795,90.284,43.589,90.328z"/>
<path fill="#EC1C24" d="M48.839,90.813l0.099,0.056c0.138-0.063,0.454-0.108,1.074-0.192c-0.387-0.092-0.681-0.112-0.944-0.118
	l-0.11,0.273L48.839,90.813z"/>
<path fill="#EC1C24" d="M48.941,91.118c-0.862-0.043-1.229-0.176-2.161-0.095c0.06,0.163,0.72,0.114,1.094,0.211
	c-0.214-0.263,0.48,0.076,0.969-0.115c0.146,0.052,0.191,0.099,0.228,0.143c0.104-0.048,0.234-0.093,0.394-0.136
	c-0.02,0.002-0.034,0.004-0.054,0.006l0.003,0.001h-0.014c-0.107,0.011-0.173,0.015-0.11,0.002
	c-0.011-0.001-0.015-0.004-0.018-0.005c-0.12-0.005-0.225-0.009-0.325-0.013c0.178-0.076,0.224-0.012,0.325,0.013
	c0.042,0,0.083,0.001,0.128,0.003l0.011-0.001l-0.472-0.264C48.818,90.925,48.842,90.995,48.941,91.118z"/>
<path fill="#EC1C24" d="M44.618,92.44c0.076-0.008,0.138-0.008,0.2-0.008C44.712,92.414,44.64,92.408,44.618,92.44z"/>
<path fill="#EC1C24" d="M45.855,92.445l-0.117-0.019c0.236-0.085,0.962-0.188,1.309-0.217c-0.681,0.028-1.21,0.057-1.908,0.122
	c0.12,0.019,0.465,0.035,0.376,0.097c-0.259,0.054-0.413,0-0.696,0.003C45.046,92.469,45.436,92.563,45.855,92.445z"/>
<path fill="#EC1C24" d="M47.046,92.21c0.062-0.002,0.116-0.005,0.181-0.007C47.204,92.199,47.133,92.203,47.046,92.21z"/>
<path fill="#EC1C24" d="M46.82,91.717l-0.423-0.219l-0.746,0.112l0.448-0.006C45.923,91.729,46.475,91.702,46.82,91.717z"/>
<polygon fill="#EC1C24" points="49.504,90.52 50.415,90.549 49.129,90.423 "/>
<polygon fill="#EC1C24" points="49.395,90.235 50.187,90.246 49.709,90.17 "/>
<line fill="none" stroke="#EC1C24" stroke-width="0" stroke-linecap="round" stroke-linejoin="round" x1="39.575" y1="74.155" x2="39.35" y2="74.091"/>
<path fill="#EC1C24" d="M39.521,74.621l0.25,0.008c-0.008-0.003-0.015-0.006-0.023-0.009C39.627,74.611,39.533,74.608,39.521,74.621
	z"/>
<path fill="#EC1C24" d="M49.306,83.237c0.739-0.094,1.886-0.199,0.995-0.188l-0.867,0.029
	C49.589,83.144,49.493,83.194,49.306,83.237z"/>
<path fill="#EC1C24" d="M43.862,78.471c0.297,0.023,0.572,0.043,0.83,0.063c-0.177-0.028-0.367-0.059-0.566-0.091
	C44.042,78.453,43.951,78.462,43.862,78.471z"/>
<line fill="none" stroke="#EC1C24" stroke-width="0" stroke-linecap="round" stroke-linejoin="round" x1="40.535" y1="78.378" x2="41.094" y2="78.254"/>
<path fill="#EC1C24" d="M49.076,87.316c0.339-0.081,0.481-0.146,0.523-0.202C49.101,87.212,48.354,87.291,49.076,87.316z"/>
<path fill="#EC1C24" d="M48.255,74.283c0.148,0.041,0.314,0.063,0.527,0.056C48.625,74.299,48.449,74.282,48.255,74.283z"/>
<path fill="#EC1C24" d="M49.599,87.114c0.371-0.072,0.6-0.154-0.003-0.233c-0.084,0.018-0.132,0.027-0.204,0.043
	C49.538,86.982,49.655,87.042,49.599,87.114z"/>
<path fill="none" stroke="#EC1C24" stroke-width="0" stroke-linecap="round" stroke-linejoin="round" d="M49.831,89.115
	c-0.004,0.006-0.028,0.004-0.057-0.026"/>
<path fill="#EC1C24" d="M46.342,89.383c-0.098-0.013-0.222-0.023-0.422-0.024C46.129,89.363,46.262,89.372,46.342,89.383z"/>
<path fill="#EC1C24" d="M44.196,86.278l0.003-0.005C44.029,86.292,44.061,86.288,44.196,86.278z"/>
<path fill="none" stroke="#EC1C24" stroke-width="0" stroke-linecap="round" stroke-linejoin="round" d="M49.379,89.18
	c0.106-0.023,0.195-0.049,0.258-0.077"/>
<path fill="#EC1C24" d="M49.79,89.167c-0.035,0.022-0.06,0.038-0.084,0.053C49.85,89.228,49.941,89.221,49.79,89.167z"/>
<path fill="#EC1C24" d="M49.727,89.005c0.014,0.034-0.027,0.066-0.09,0.098c0.059-0.012,0.107-0.017,0.137-0.014
	C49.76,89.071,49.743,89.046,49.727,89.005z"/>
<path fill="#EC1C24" d="M40.295,81.664c0.01,0.001,0.03,0.005,0.042,0.007l0.03-0.009L40.295,81.664z"/>
<path fill="#EC1C24" d="M39.649,81.447c1.08,0.092,0.947,0.145,0.719,0.215l2.502-0.072L39.649,81.447z"/>
<path fill="#EC1C24" d="M47.071,73.206c-0.214,0.184-0.689-0.001-0.706-0.18l0.143,0.613c0.431,0.14,0.812,0.042,1.159-0.123
	C47.407,73.401,46.993,73.283,47.071,73.206z"/>
<path fill="#EC1C24" d="M40.165,74.501c-0.02,0.048-0.037,0.099-0.045,0.156c0.004,0,0.008,0.001,0.012,0.001
	C40.234,74.611,40.456,74.586,40.165,74.501z"/>
<path fill="#EC1C24" d="M39.575,74.155l0.34,0.099c0.002-0.028,0.018-0.055,0.036-0.081C39.824,74.179,39.695,74.178,39.575,74.155z
	"/>
<path fill="#EC1C24" d="M47.557,74.378c0.045,0.113,0.153,0.219,0.287,0.308c0.031-0.023,0.031-0.019,0.018,0
	c0.466-0.133,1.102-0.282-0.016-0.375c0.143-0.019,0.279-0.026,0.409-0.027c-0.146-0.04-0.276-0.097-0.419-0.157
	C47.721,74.191,47.622,74.271,47.557,74.378z"/>
<path fill="#EC1C24" d="M40.025,74.384c-0.138,0.001-0.281-0.015-0.251-0.047l0.13,0.179c0.082-0.017,0.165-0.035,0.253-0.066
	C40.092,74.429,40.061,74.406,40.025,74.384z"/>
<path fill="#EC1C24" d="M48.25,74.915c0.001,0-0.003-0.002-0.002-0.003c-0.188,0.005-0.354-0.015-0.519-0.037
	c-0.001,0.002-0.003,0.004-0.004,0.006c0.063,0.013,0.127,0.025,0.211,0.042c-0.214,0.076-0.241,0.03-0.211-0.042
	c-0.048-0.009-0.083-0.012-0.121-0.017c-0.025-0.005-0.061-0.001-0.086-0.008v0c-0.289-0.014-0.146,0.142-0.129,0.312
	c-0.64-0.701-0.998-0.228-1.487-1.05c0.664,0.926-1.466,0.008-1.053,0.889c-0.477-0.708-0.326-0.034-0.631-0.639
	c0.671,0.193,1.339-0.458,1.878-0.766l-0.53-0.425c0.345-0.802,1.188,0.295,1.505,0.028c0.054-0.051,0.322-0.085,1.03-0.084
	l-0.163-0.355l0.312,0.009c0.202-0.227-0.53-0.308-1.264-0.388c0.208-0.053,0.493-0.014,0.653-0.01
	c0.142-0.076,0.237-0.135,0.293-0.187h0.296c0.063-0.142,0.295-0.272,0.453-0.399c1.114,0.392,3.039,0.139,3.799,0.399h3.372
	c0.171-0.279,0.272-0.575,0.271-0.867c-0.463,0.247-1.389,0.742-1.531,0.13c0.463-0.248,1.262-0.398,1.303-0.794
	c0.479,0.708-0.874,0.21-0.245,0.8c0.324-0.017,0.464-0.248,0.615-0.368c-0.208,0.293,0.284,0.493,0.361,0.658
	c0.91,0.006,1.584,0.315,2.765,0.377c-0.09-0.067-0.115-0.083,0.021,0.001l-0.021-0.001c0.022,0.017,0.056,0.042,0.086,0.064h0.689
	c-0.001-0.036,0.015-0.063,0.008-0.101c-0.392-0.726-0.888-1.312-1.155-1.459c-0.03-0.445,0.306-0.252,0.11-0.769
	c-0.634,0.21,0.105-0.071-0.576-0.472c-0.083-0.35,0.329,0.036,0.486-0.069c-0.073-0.096-0.3-0.31-0.483-0.367
	c-0.091,0.008-0.18,0.03-0.249,0.086c0.031-0.113,0.131-0.125,0.249-0.086c0.259-0.025,0.596,0.149,0.943,0.398
	c0.263,0.178,0.53,0.4,0.775,0.455v-0.86l-0.257-0.034L60.01,68.76c0,0,0.115,0.03,0.265,0.069v-0.843
	c-0.88,0.005-1.913,0.128-2.372,0.354c-0.398-0.018,0.424-0.525,0.467-0.767c0.643-0.715-0.502-1.091-0.249-1.686l0.359,0.453
	c0.164-0.098-0.046-0.974-0.278-1.112c0.225-0.022,1.154,0.453,1.422,0.181c0.118-1.068-1.119-2.082-1.79-2.016l0.696,1.638
	c-0.56,0.058-0.561-1.163-1.234-1.096l0.199-1.508c0.019,0.19,0.178,0.772,0.486,0.544c-0.029-0.648,0.098-0.336,0.359-0.769
	c0.408,0.428,1.184,1.056,1.935,1.607v-1.286c-0.718-0.43-1.487-0.762-1.795-0.904c0.142-0.583,1.339-0.379,1.571-0.24
	c0.059-1.146-1.692-1.133-1.522-2.289l-0.261,0.434c-0.111-0.273,0.129-1.265-0.091-1.158c0.317-0.229,1.068-0.439,1.271-0.184
	l-1.124-1.024c0.119,0.15,1.079,0.052,1.25,0.116c0.036-0.411-1.108-0.7-1.266-0.44c0.693-0.803,0.315-0.604,1.128-1.255
	c-0.066-0.237-1.019,0.022-1.123,0.196c-0.258-0.537-0.136-0.852-0.031-1.106c-0.006-0.01-0.018-0.016-0.021-0.027l0.036-0.008
	c0.114-0.279,0.181-0.488-0.359-0.856l1.61,0.571l-1.251,0.286l-0.015,0.036c0.286,0.616,1.209,0.494,1.993,0.417v-0.601
	l-1.973-1.314c0.172,0.065,1.087,0.216,1.197,0.205c-0.851-0.16-0.962-2.345-0.843-3.414l0.006,0.161
	c0.293,0.216,0.53-0.703,0.231-1.079c0.171,0.063,0.119,0.15,0.128,0.311c0.641-0.714-1.29-0.927-0.536-1.654
	c-0.081,0.66,0.263,0.789,0.599,0.755c-0.153-0.258-0.146-0.745-0.227-1.04c-0.08-0.226-0.247-0.33-0.748-0.189
	c0.21-0.19,0.083-0.317,0.59-0.455c0,0-0.149-0.154-0.299-0.251c-0.148-0.103-0.298-0.149-0.298-0.149
	c0.103-0.027,0.398-0.15,0.468-0.416c-0.067,0.247,0.133,0.326,0.269,0.479c0.135,0.142,0.204,0.337-0.124,0.527
	c0.62-0.099,0.951-0.448,1.475-0.227c-0.293-1.396-1.338-1.34-2.056-0.989l-0.021,0.014c0,0-0.026-0.111-0.094-0.223
	c-0.063-0.112-0.167-0.223-0.167-0.223l-0.215,0.283c0,0,0.085-0.178,0.17-0.356c0.074-0.178,0.148-0.356,0.148-0.356
	c-0.203,0.163-0.333,0.305-0.318,0.237c0.016-0.064,0.088-0.158,0.187-0.264c-0.109,0.036-0.22,0.099-0.293,0.173
	c-0.034,0.091-0.067,0.181-0.077,0.262c-0.041-0.087-0.004-0.181,0.077-0.262c0.134-0.375,0.483-0.805,0.935-1.193l-0.032-0.132
	c-0.885,0.467-1.443,1.035-1.253,1.516c0.01,0,0.166,0.28,0.155,0.28c-0.072-0.089-0.124-0.182-0.155-0.28
	c0.022,0-0.343-0.42-0.366-0.42c-0.584,0.707-0.569,0.563-1.59,1.088c-0.058-0.248,0.223-0.458,0.033-0.64
	c-0.768,0.8-1.874-0.934-2.042-0.229c-0.62,0.174-0.258,0.615-0.653,0.813c0.019-0.079,0.056-0.236-0.059-0.248l-0.469,0.51
	c-0.189-0.183,0.432-0.354-0.097-0.574c-0.903,0.383-1.434,0.644-2.188,0.399c-1.075,0.121,0.46,1.017-0.448,0.915
	c-0.133-0.417-0.251-0.913-0.817-0.976c-0.3,0.288-0.26,0.614-0.769,0.798l0.032-0.64c-0.471,0.027-0.847,0.146-0.85-0.337
	c-0.386,0.273-0.65,0.225-0.852,0.122c-0.714,0.338,0.525,1.298,0.691,1.549c-0.702-0.48-1.187-0.201-1.587-0.972l0.621-0.172
	c-1.326-0.792-1.257,0.906-1.871-0.45c0.454,0.05,0.999-0.291,0.731-0.643l-0.658,0.329c-0.077-0.169,0.376-0.119,0.074-0.313
	c-0.188,0.14-0.571,0.469-0.741,0.683l-0.045,0.195c-0.076-0.008-0.041-0.087,0.045-0.195l0.009-0.04l-1.188,0.108
	c0.226,0.026,0.281-0.21,0.055-0.236l-0.779,0.336c-0.058,0.04-0.135,0.078-0.257,0.112l0.257-0.112
	c0.238-0.161-0.006-0.358-0.354-0.462c-1.004-0.193-0.804,1.439-1.582,0.789c0.113,0.014,0.132-0.066,0.247-0.053l-0.4-0.286
	c-0.085,1.357-2.358,0.138-2.444,1.496c-0.57-0.548-0.04-0.327,0.692-0.969l-0.606-0.39c0.246-0.052,0.453,0.052,0.717-0.081
	c-0.797-0.572-1.547,0.149-1.979,0.503c-0.304-0.196,0.239-1.02-0.628-0.795c-1.225,0.265,0.232,0.991-0.503,1.151l-0.533-0.703
	c-0.939,0.538-1.642,0.057-2.435-0.032c-0.179,0.056-0.267,0.129-0.311,0.205l0.027,0.005l-0.056,0.082
	c-0.037,0.217,0.169,0.439-0.299,0.442l0.299-0.442c0.005-0.029,0.013-0.058,0.028-0.087c-0.844-0.304-1.768,0.687-2.404,0.457
	c0.149-0.145-0.363-0.442-0.439-0.613l-1.147,0.435c0.508-0.185,0.485-0.589,0.578-0.981c-0.358,0.042-0.527,0.263-0.771,0.315
	c0.149-0.143,0.3-0.288,0.11-0.469l-1.204,0.668c0.07,0.069,0.209,0.095,0.325,0.113c-0.301,0.004-0.952,0.259-1.383-0.071
	c0.038-0.155,0.187-0.301,0.223-0.458c0.362,0.444,0.567,0.065,0.755-0.236c-0.831,0.069-0.207-0.103-0.607-0.39
	c-0.586,0.015-0.826,0.551-0.672,0.891c-0.331-0.077-0.549-0.142-0.77-0.136c-0.103,0.003-0.235,0.022-0.329,0.067
	c-0.049,0.045-0.1,0.115-0.146,0.217c0.001,0-0.003-0.549-0.004-0.549c-0.008,0-0.263,0.173-0.255,0.173
	c-0.024,0,0.116-0.669,0.142-0.669c-0.695-0.319-0.147,0.591-0.398,0.673c-0.027,0.046-0.075,0.077-0.159,0.095l-0.235-0.442
	c-0.143,0.392,0.348,1.049-0.155,0.73c-0.06,0.459,0.854,0.126,0.317,0.775c-0.32-0.039-0.765,0.134-1.073,0.293
	c-0.117,0.415,0.599,0.219,0.724,0.006c-1.109,1.375-1.925-0.442-2.618,1.099c0.627-0.12,0.32,0.984,1.228,0.097
	c-0.24,0.625-1.344,0.318-1.438,1.134l-0.128-0.729c-0.172,0.148-0.203,0.487-0.24,0.626l-0.291-0.379
	c0.011,1.142-1.323,0.717-0.905,1.826c-0.359-0.844-0.387,0.438-0.842,0.41c0.048-0.88,1.343-1.26,0.858-1.892
	c-0.383,0.033-0.308,0.499-0.678,0.529c-0.06,0.21-0.117,0.305-0.065,0.006c0.025,0.001,0.044-0.005,0.065-0.006
	c0.064-0.224,0.133-0.579,0.078-0.747c-1.024,0.357-0.791,1.415-1.082,1.979l0.639-0.862c0.484,0.631-0.251,0.426-0.037,1.08
	c-0.677,0.058-0.551,0.789-1.043,0.897c0.086-0.076,0.038-0.137,0.124-0.213c-0.82,0.81-1.943,0.099-2.29,0.398
	c-0.397,0.236-0.716,1.137-0.261,1.167c-0.115,0.414,0.944-1.229,1.177-0.031c-1.295-0.403-0.673,1.255-2.271,1.66
	c0.164-0.738-0.728-0.228-0.542-0.846c-0.428,0.542-0.324,0.688-0.313,1.14l-0.405-0.126c-0.026,0.601,0.031,0.799,0.096,0.925
	c0.058,0.133,0.038,0.271,0.013,0.603c-0.082-0.322-0.688-0.084-0.799-0.341c-0.199,0.155-0.266,0.374-0.129,0.551l-0.038-0.037
	c-0.268,0.473-0.82,0.422-1.035,0.734c0.085,0.058,0.22,0.132,0.413,0.216l0.254-0.066c0.724,0.273,1.039,0.501,1.353,0.783
	c0.209,0.193,0.418,0.386,0.623,0.575c0.339,0.307,0.68,0.594,1.033,0.836l-0.304-0.543c0.052,0.207,1.068,0.53,1.208,1.146
	c0.046,0.031,0.07,0.059,0.024,0.095c-0.002-0.034-0.019-0.062-0.024-0.095c-0.092-0.057-0.292-0.11-0.343-0.2
	c-0.162,0.192-0.27,0.602-0.02,0.927l0.377-0.168l-0.086,0.328c0.442,0.432,0.246-0.522,0.69-0.09
	c-0.495,1.042,1.826,1.946,1.547,3.011c0.852-0.282-0.769-0.891,0.062-1.092c0.055,0.216,0.014,0.382,0.261,0.706l0.227-0.438
	c1.169,1.488,1.406,2.274,2.681,3.353l-0.118,0.027c0.302,0.543,0.593,0.702,1.068,0.589c-0.064,0.246-0.452,0.032-0.42,0.333
	c1.596-0.156,0.896,2.087,1.943,1.913c-0.325,0.287-0.431,0.769-0.534,1.227l0.965,0.921h6.13c0.079,0.037,0.186,0.074,0.365,0.113
	l-1.406,0.134c0.319,0.185,1.771-0.181,2.302,0.126c0.448,0.218-1.199,0.082-1.591,0.158c0.266,0.041,0.634,0.092,0.93,0.151
	l0.175-0.139l0.347,0.209c0.005,0.047-0.024,0.06-0.06,0.069c0.099,0.065,0.022,0.134-0.385,0.206
	c-0.265-0.066-0.057-0.118-0.161-0.18l-0.779,0.152c-1.283-0.184-0.841-0.317-1.938-0.174c2.164,0.017,1.063,0.382,1.896,0.541
	c0.5-0.105,1.028-0.391,1.257,0.124c-0.076-0.03-0.177-0.025-0.271-0.032l-0.461,0.081c0.021-0.022-0.072-0.031-0.1-0.047
	c-0.1,0.018-0.196,0.031-0.301,0.055c-0.149,0.117,2.203,0.111,1.871,0.328c-0.208,0.087-0.603,0.149-0.925,0.089l0.672,0.195
	c-0.053,0.057-0.524,0.043-0.473-0.014l0.217,0.298l-0.08-0.002c0.427,0.043,1.085,0.139,1.365,0.186
	c-0.39,0.076-0.288-0.038-0.627-0.019l0.658,0.165c-0.704,0.067-1.387-0.07-1.286-0.184c-2.712,0.154,0.684,0.137-0.9,0.47
	l-0.345-0.156c-1.541,0.101-0.982,0.222-1.943,0.398c0.502-0.042,2.421-0.353,3.098-0.174c-0.205,0.051-0.303,0.117,0.244,0.214
	c-0.966,0.001-0.729,0.096-0.674,0.214l-1.279-0.008c0.369,0.127,1.021,0.118,1.597,0.193c-0.126,0.142-1.117,0.172-1.952,0.205
	c-0.203,0.228,1.589-0.157,1.83,0.112c-0.489,0.189,0.033,0.323,0.799,0.55c-0.44,0.133-0.782-0.023-1.148,0.024l1.021,0.117
	c-0.024,0.029-0.338,0.02-0.496,0.015c0.396,0.099,1.278,0.008,1.626,0.164c1.409,0.042-2.06,0.32-0.459,0.513
	c-0.363,0.048-0.784-0.022-1.279-0.008c1.05,0.265,0.763,0.227,2.176,0.444l-0.84,0.185c0.961-0.136,2.098,0.038,3.031,0.19
	c0.463-0.051,0.867-0.095,1.063-0.117l0.687,0.243c-0.21,0.029-0.649,0.005-1.184-0.035c0.106,0.015,0.211,0.031,0.307,0.044
	c-0.473,0.087-1.211,0.042-1.926-0.021c0.253-0.028,0.522-0.058,0.789-0.087c-0.777-0.06-1.638-0.116-2.387-0.104
	c0.147,0.016,0.274,0.046,0.346,0.08c-0.211-0.016-0.399-0.025-0.527-0.019c-0.135,0.008,0.148,0.034,0.475,0.073l-1.426,0.056
	l0.566,0.013l-0.893,0.318c1.436,0.227,3.549,0.425,4.138,0.786c-1.046-0.089-1.708-0.019-2.947-0.024
	c1.312-0.099-0.558-0.279-0.291-0.467c-0.138,0.098-0.729,0.076-0.935,0.052l1.193,0.333c-1.014-0.007-0.76,0.071-1.179,0.158
	c2.003-0.066,1.334,0.249,1.948,0.384c-0.673,0.008-1.359-0.024-1.197-0.19c-1.508,0.183,2.353,0.236,1.071,0.416
	c-0.017-0.041,0.087-0.062-0.255-0.078c0.598,0.094,0.124,0.326-0.462,0.271l-0.014-0.04c-0.237,0.268-0.015,0.816,1.687,0.856
	c-0.22-0.004-2.05-0.044-2.395-0.051l5.724,0.479c-1.461-0.042-4.94,0.12-5.766-0.103c-0.208,0.063-0.451,0.143,0.064,0.277
	c0.208-0.043,2.112-0.108,2.246-0.049c-1.627,0.163-0.87,0.113-2.257,0.315c0.313-0.065,2.604,0.007,2.531,0.111
	c-0.343-0.017-2.262,0.008-2.5-0.029l2.249,0.257c-0.405-0.064-1.906-0.011-2.542,0.046c0.44-0.026-0.041,0.223,0.182,0.291
	l0.521-0.109c-0.34,0.29,3.163,0.287,3.045,0.575c-0.465-0.035-2.859-0.086-3.143,0.06c1.152,0.067,5.541,0.297,6.428,0.552
	l-0.658,0.049l0.75,0.195c-1.733-0.122-5.381-0.463-6.8-0.65c-0.521,0.109-0.776,0.03-0.717,0.193
	c-0.617,0.058-0.937-0.089-0.973-0.137L27.7,83.997c1.346-0.017,1.349,0.29,2.469,0.275l-1.394-0.412
	c1.342-0.017,3.816,0.238,3.579,0.506c-0.535,0.068-2.394-0.051-2.842-0.046c0.463,0.035,0.884,0.255,0.556,0.279l-0.719-0.113
	c-0.506,0.149,1.782,0.243,0.499,0.423c-0.086,0.062-1.731,0.185-0.936,0.196c1.534-0.101,6.28-0.121,7.433-0.053
	c-0.104,0.021-1.467,0.325-2.225,0.396c-1.203,0.103-2.867-0.153-3.9-0.066c0.367,0.004,0.82,0.061,0.966,0.084
	c-0.313,0.065-1.138-0.027-0.972,0.114c1.363,0.023-0.115,0.288,1.152,0.067c0.39,0.138-0.28,0.147-0.221,0.309
	c0.881-0.052,2.998,0.146,3.387,0.285c-0.347-0.008-0.798,0.023-1.004,0.038c-0.123,0.284-0.742,0.436-0.754,0.7
	c-0.33,0.024-0.729,0.152-1.316,0.098c0.241,0.038,0.703,0.073,0.736,0.154c-1.179,0.158-0.184-0.182-1.6-0.062
	c0.792,0.011,1.093,0.211,1.588,0.327c1.224-0.036,0.234-0.269-0.26-0.385c1.688,0,3.455,0.202,4.235,0.479
	c0.419,0.22-1.091,0.095-0.851,0.133c-0.295,0.413,2.947,0.352,1.729,0.694c-1.075,0.136-2.14,0.006-2.915,0.036
	c-0.407-0.179,0.683-0.274,0.64-0.396l-0.509,0.149c-0.357-0.057-0.629-0.176-0.317-0.242c-0.966,0.114-0.186,0.697-1.077,1.015
	c0.36,0.057,0.733,0.154,1.166,0.108l-0.15-0.101c0.867-0.093,1.199,0.189,1.604,0.062c0.609,0.135,1.567,0.287,1.077,0.477
	l-1.227,0.036c0.358-0.004,0.73-0.124,0.357-0.178c0.543,0.079-1.66,0.292-0.055,0.379l0.85-0.134
	c0.616,0.136,1.918,0.304,1.531,0.472c1.211-0.076-0.139-0.039,1.278-0.158c-1.763,0.104,0.074-0.431-1.778-0.265
	c1.645-0.123,0.697-0.212,2.1-0.373c-0.404,0.005-0.773,0.057-0.574-0.084c-0.117-0.01-0.268-0.023-0.356-0.031
	c0.012-0.003,0.018-0.005,0.03-0.009l-0.048,0.008c-0.061-0.006-0.073-0.007-0.017,0.003c-0.177,0.033-0.39,0.061-0.615,0.072
	c-0.929-0.07-0.899-0.295-1.38-0.371c0.192-0.084,0.464,0.035,0.896-0.01l-0.719-0.114c0.898-0.011,1.492-0.223,2.019-0.025
	l0.04-0.178c0.504-0.104,0.704-0.249,0.326-0.338c0.194-0.084-0.994-0.212-0.291-0.139l-0.557-0.279l0.225-0.002
	c0.113-0.275-1.487-0.567,0.134-0.881c-0.227-0.093-0.504-0.189-0.249-0.344l0.777-0.03c-0.271-0.119,0.777-0.357-0.032-0.409
	c2.091-0.128,0.456-0.578,0.827-0.787l-1.015-0.008c0.058-0.144-0.23-0.283-0.638-0.461L37.5,84.896
	c-0.736-0.154,0.638-0.396,0.546-0.64c0.343,0.017,0.253,0.078,0.046,0.122c0.854-0.123,0.724-0.251,0.4-0.379
	c1.211,0.006,1.263,0.287,2.344,0.273l-1.394-0.412c1.342-0.017,3.816,0.238,3.579,0.506c-0.535,0.068-2.394-0.051-2.842-0.046
	c0.463,0.035,0.884,0.255,0.556,0.279l-0.719-0.113c-0.506,0.149,1.782,0.243,0.499,0.423c-0.086,0.062-1.731,0.185-0.936,0.196
	c1.534-0.101,6.28-0.121,7.433-0.053c-0.104,0.021-1.467,0.325-2.225,0.396c-1.203,0.103-2.867-0.153-3.9-0.066
	c0.367,0.004,0.82,0.061,0.966,0.084c-0.313,0.065-1.138-0.027-0.972,0.114c1.363,0.023-0.115,0.288,1.152,0.067
	c0.39,0.138-0.28,0.147-0.221,0.309c0.881-0.052,2.998,0.146,3.387,0.285c-0.347-0.008-0.798,0.023-1.004,0.038
	c-0.123,0.284-0.742,0.436-0.754,0.7c-0.33,0.024-0.729,0.152-1.316,0.098c0.241,0.038,0.703,0.073,0.736,0.154
	c-1.179,0.158-0.184-0.182-1.6-0.062c0.792,0.011,1.093,0.211,1.588,0.327c1.224-0.036,0.234-0.269-0.26-0.385
	c1.688,0,3.455,0.202,4.235,0.479c0.419,0.22-1.091,0.095-0.851,0.133c-0.295,0.413,2.947,0.352,1.729,0.694
	c-1.075,0.136-2.14,0.006-2.915,0.036c-0.407-0.179,0.683-0.274,0.64-0.396l-0.509,0.149c-0.357-0.057-0.629-0.176-0.317-0.242
	c-0.966,0.114-0.186,0.697-1.077,1.015c0.36,0.057,0.733,0.154,1.166,0.108l-0.15-0.101c0.867-0.093,1.199,0.189,1.604,0.062
	c0.609,0.135,1.567,0.287,1.077,0.477l-1.227,0.036c0.358-0.004,0.73-0.124,0.357-0.178c0.543,0.079-1.66,0.292-0.055,0.379
	l0.85-0.134c0.616,0.136,1.918,0.304,1.531,0.472c1.211-0.076-0.139-0.039,1.278-0.158c-1.763,0.104,0.074-0.431-1.778-0.265
	c1.645-0.123,0.697-0.212,2.1-0.373c-0.404,0.005-0.773,0.057-0.574-0.084c-0.117-0.01-0.268-0.023-0.356-0.031
	c0.012-0.003,0.018-0.005,0.03-0.009l-0.048,0.008c-0.061-0.006-0.073-0.007-0.017,0.003c-0.177,0.033-0.39,0.061-0.615,0.072
	c-0.929-0.07-0.899-0.295-1.38-0.371c0.192-0.084,0.464,0.035,0.896-0.01l-0.719-0.114c0.898-0.011,1.492-0.223,2.019-0.025
	l0.04-0.178c0.504-0.104,0.704-0.249,0.326-0.338c0.194-0.084-0.994-0.212-0.291-0.139l-0.557-0.279l0.225-0.002
	c0.113-0.275-1.487-0.567,0.134-0.881c-0.227-0.093-0.504-0.189-0.249-0.344l0.777-0.03c-0.271-0.119,0.777-0.357-0.032-0.409
	c2.091-0.128,0.456-0.578,0.827-0.787l-1.015-0.008c0.058-0.144-0.23-0.283-0.638-0.461l-0.896,0.011
	c-0.736-0.154,0.638-0.396,0.546-0.64c0.343,0.017,0.253,0.078,0.046,0.122c2.025-0.292-1.474-0.615,0.002-0.879
	c-0.326-0.066-0.215-0.114,0.011-0.16c0.002,0.006,0.019,0.012,0.047,0.017c0.011-0.007,0.013-0.017,0.011-0.027
	c0.154-0.029,0.33-0.063,0.478-0.091c-0.218,0.028-0.397,0.054-0.48,0.077c-0.019-0.051-0.13-0.128-0.354-0.203l0.963-0.032
	c-0.013-0.006-0.011-0.011-0.027-0.018c0.355-0.074-0.456-0.06-1.181-0.02c-0.158-0.038-0.349-0.073-0.581-0.1
	c1.555-0.06-0.523-0.198,1.135-0.28c-0.809-0.051-0.608-0.379-2.31-0.42c0.222-0.002,0.327-0.025,0.341,0.016
	c0.194-0.084,0.388-0.168-0.092-0.244l1.225-0.036l-1.646-0.184c0.746-0.111,1.18-0.158,2.122-0.047
	c-1.449-0.268-0.546-0.217-1.982-0.445l0.792,0.011c-0.03-0.082-1.091-0.212-0.437-0.261c1.505-0.182,0.208-0.901,1.606-1.368
	c-2.331,0.091,1.045-0.217-0.762-0.236c0.551-0.027,0.862-0.092,1.342-0.017c-0.542-0.239,0.874-0.358-0.649-0.523
	c0.554-0.027,0.809,0.051,1.136,0.026c-0.119-0.019-0.479-0.075-0.15-0.101c0.328-0.024,0.463,0.035,0.703,0.073
	c-0.093-0.244-1.792-0.269-3.387-0.286c0.755-0.124,0.648-0.186-0.397-0.274c0.521-0.043,1.067-0.115,1.255,0.037
	c0.076-0.085,0.765-0.521-0.514-0.529c0.324-0.026,0.095-0.119-0.053-0.142c0.076-0.191,0.191-0.208,0.07-0.396l-0.209,0.052
	c-1.542-0.074-0.344-0.155-0.529-0.307l0.158,0.004c1.112-0.347-0.533-0.149,0.736-0.492l-0.959,0.019
	c-2.063-0.032,1.217-0.303,0.428-0.502l-0.548,0.072c-0.706-0.108,2.806-0.303,3.063-0.412c0.18-0.024,0.288,0.037,0.421,0.07
	c1.217-0.285-1.257-0.037-1.549-0.249c0.678-0.039,1.724,0.05,1.85-0.093c0.538-0.07-2.087-0.402-0.961-0.599
	c0.001-0.003,0.001-0.005,0.002-0.008c-0.109,0.009-0.214,0.012-0.322,0.02C48.417,74.903,48.318,74.91,48.25,74.915
	C48.211,74.963,48.008,74.943,48.25,74.915z M57.574,60.328c0.67-0.209,0.526,0.03,0.78,0.485c0.043,0.039,0.092,0.101,0.154,0.233
	c-0.065-0.083-0.114-0.16-0.154-0.233c-0.208-0.182-0.216,0.554-0.457,0.376C58.202,60.507,57.33,61.083,57.574,60.328z
	 M54.073,71.14c-0.586-0.142,0.052-0.285,0.117-0.456C54.998,70.646,54.136,70.968,54.073,71.14z M52.514,71.045l-0.02,0.621
	c-0.097-0.165-0.108-0.277-0.28-0.381L52.514,71.045z M29.281,75.316c-0.202-0.044-0.827-0.132-0.258-0.165
	C30.128,75.202,29.599,75.241,29.281,75.316z M31.604,78.779c-0.319-0.033-0.161-0.084,0.204-0.141
	C31.887,78.68,31.851,78.727,31.604,78.779z M38.322,88.426c-0.016-0.001-0.027-0.002-0.047-0.004
	C38.651,88.323,38.502,88.358,38.322,88.426z M48.989,88.426c-0.016-0.001-0.027-0.002-0.047-0.004
	C49.318,88.323,49.169,88.358,48.989,88.426z M44.119,73.361c0.11,0.02,0.225,0.009,0.338-0.01
	C44.255,73.408,44.076,73.589,44.119,73.361z M44.606,73.337c-0.022-0.005-0.043-0.001-0.065,0c0.366-0.075,0.693-0.213,0.734,0.193
	C44.887,73.717,44.498,73.905,44.606,73.337z M45.11,72.694l-0.131-0.501l0.336,0.097L45.11,72.694z M47.079,73.199
	c0.043-0.04,0.076-0.106,0.096-0.211C47.168,73.089,47.13,73.15,47.079,73.199z M47.124,72.593c0.092-0.038,0.166-0.087,0.157-0.171
	l0.583,0.139C47.878,72.709,47.484,72.609,47.124,72.593c-0.15,0.061-0.368,0.078-0.47,0.083
	C46.758,72.594,46.936,72.583,47.124,72.593z M41.014,72.438l-0.021-0.224c0.075-0.06,0.161-0.007,0.237-0.066
	C41.566,72.243,41.338,72.423,41.014,72.438z M46.362,72.184l-0.412-0.037l-0.173-0.104L46.362,72.184z M47.415,46.945l-0.037,0.156
	l-0.379-0.364C47.226,46.764,47.339,46.776,47.415,46.945z M40.906,46.629l-0.113-0.013l-0.099-0.574L40.906,46.629z M35.982,47.283
	c-0.227-0.025-0.491,0.106-0.717,0.082C35.204,46.632,35.491,47.389,35.982,47.283z M38.809,72.19
	c0.079,0.037,0.186,0.074,0.365,0.113l-1.406,0.134c0.319,0.185,1.771-0.181,2.302,0.126c0.448,0.218-1.199,0.082-1.591,0.158
	c0.709,0.108,2.151,0.296,1.007,0.496c-0.265-0.066-0.057-0.118-0.161-0.18l-0.728,0.143l0.055,0.046l-0.53,0.128
	c0.07,0.137,0.218,0.265,1.479,0.275l-0.571,0.101c0.026-0.028-0.134-0.033-0.106-0.062c-0.813,0.122,0.159,0.148,0.906,0.212
	c0.221-0.188,0.154-0.438,0.714-0.463c0.175,0.25,0.101,0.419-0.029,0.588c0.019,0.018,0.021,0.037-0.014,0.06
	c-0.013,0.005-0.032,0.009-0.046,0.015c-0.07,0.083-0.147,0.17-0.211,0.269l0.004,0.001c-0.001,0.001-0.004,0.001-0.005,0.001
	c-0.029,0.046-0.056,0.094-0.077,0.146c0.492-0.049,0.771-0.062,0.992-0.001l0.222-0.049l-0.076,0.059l1.089,0.055l0.011-0.074
	c-0.456-0.729-0.797-2.031-0.274-2.328c0.53,0.425,1.145,0.059,1.186-0.337c0.174,0.103-0.053,0.283-0.041,0.396l0.624-0.255
	c0.155,0.725-1.044,0.95-0.75,1.443c-0.347-0.209-0.218-0.554-0.93-0.35c-0.453,0.358,0.551,0.648,0.739,0.864
	c-0.537,0.234-0.537,0.394-0.554,0.566l0.046,0.078l-0.057-0.004c-0.025,0.132-0.102,0.279-0.469,0.472
	c-0.333-0.31-0.514-0.468-0.766-0.537l-0.824,0.186c0.36,0.046,0.746,0.103,0.943,0.136c-0.39,0.076-0.288-0.038-0.627-0.019
	l0.658,0.165c-0.306,0.029-0.603,0.019-0.838-0.01c0.021,0.014,0.048,0.024,0.068,0.04c-0.025,0.066-0.121,0.015-0.221-0.063
	c-0.216-0.04-0.343-0.097-0.296-0.15c-2.712,0.154,0.684,0.137-0.9,0.47l-0.345-0.156c-0.246,0.016-0.424,0.033-0.578,0.05
	c-0.301-0.098-0.427-0.199,0.09-0.276c-0.522,0.043-1.044,0.086-1.437-0.013c-0.187-0.151,1.975-0.409,0.328-0.546
	c0.143-0.019,0.279-0.026,0.409-0.027c-0.425-0.115-0.706-0.376-1.599-0.445c3.313-0.107-1.611-0.719,1.444-0.717l-0.033-0.073
	c0.232,0.021,0.377,0.051,0.477,0.085c0.018-0.019,0.035-0.038,0.066-0.049c-0.292-0.063-0.415-0.111-0.584-0.124l-0.089-0.194
	l0.312,0.009c0.202-0.227-0.53-0.308-1.264-0.388c0.208-0.053,0.493-0.014,0.653-0.01c0.142-0.076,0.237-0.135,0.293-0.187H38.809z
	 M43.94,74.883l-0.299,0.239l0.042-0.396L43.94,74.883z M42.936,74.593l-0.504,0.643l0.115-0.455L42.936,74.593z M37.338,75.572
	c0.211-0.012,0.457-0.012,0.701-0.01l-0.514,0.067C37.44,75.616,37.373,75.598,37.338,75.572z M36.639,75.068
	c-0.287-0.102-0.363-0.342-0.403-0.434c-0.019-0.001-0.032-0.001-0.051-0.002c0.02-0.054,0.031-0.04,0.051,0.002
	c0.071,0.002,0.141,0.004,0.202,0.006l-0.008-0.014c0.254,0.021,0.387,0.033,0.442,0.038c-0.065-0.004-0.217-0.012-0.435-0.024
	L36.639,75.068z M34.901,72.337c0.127,0.011,0.102,0.047,0.034,0.1c0.011,0.142-0.205,0.219,0.01,0.348
	c0.248,0.044,0.312-0.128,0.388-0.188c0.257,0.348,0.369,0.612,0.48,0.951c0.031,0.045,0.048,0.082,0.032,0.094
	c-0.011-0.033-0.021-0.062-0.032-0.094c-0.118-0.175-0.523-0.534-0.858-0.651l-0.074,0.059c-0.469-0.209-0.095-0.404,0.055-0.519
	C34.932,72.406,34.934,72.375,34.901,72.337z M35.391,74.001l0.544,0.098l0.267-0.136l-0.064,0.172l-0.202-0.036l-0.584,0.298
	C35.5,74.278,35.402,74.114,35.391,74.001z M36.998,75.438l0.227-0.18l-0.517,0.531L36.998,75.438z M30.874,75.226
	c-0.169-0.02-0.269-0.021-0.34-0.017c0.229,0.233-0.352,0.02,0,0c-0.023-0.022-0.035-0.04-0.076-0.07
	C31.258,74.986,30.763,74.948,30.874,75.226z M31.428,74.247c-0.465,0.247-0.129,0.345,0.131,0.5
	C30.673,74.847,30.542,74.345,31.428,74.247z M32.049,75.618c0.153-0.119-0.259-0.156-0.355-0.32l0.463-0.248
	C32.427,75.319,32.525,75.482,32.049,75.618z M32.356,74.634l-0.509,0.222c0.217-0.15,0.317-0.353,0.275-0.142
	C32.282,74.287,32.29,74.519,32.356,74.634l0.24-0.105C32.461,74.727,32.398,74.703,32.356,74.634z M31.838,74.284l0.841-0.548
	l0.162-0.007L31.838,74.284z M34.341,73.264c0.607,0.364-0.02,0.621-0.32,0.859C34.473,73.764,34.125,73.556,34.341,73.264z
	 M34.51,74.995l0.342-0.174c-0.029-0.167,0.055-0.292,0.512-0.261l-0.512,0.261c0.035,0.194,0.22,0.447,0.19,0.599
	C35.019,75.194,34.686,75.099,34.51,74.995z M45.875,78.569c-0.21,0.029-0.649,0.005-1.184-0.035
	c0.106,0.015,0.211,0.031,0.307,0.044c-0.473,0.087-1.211,0.042-1.926-0.021c0.253-0.028,0.521-0.058,0.789-0.087
	c-0.777-0.06-1.638-0.116-2.387-0.104c0.147,0.016,0.274,0.046,0.346,0.08c-0.211-0.016-0.399-0.025-0.527-0.019
	c-0.135,0.008,0.148,0.034,0.475,0.073l-1.426,0.056l0.566,0.013l-0.893,0.318c1.436,0.227,3.549,0.425,4.138,0.786
	c-1.046-0.089-1.708-0.019-2.947-0.024c1.312-0.099-0.558-0.279-0.291-0.467c-0.138,0.098-0.729,0.076-0.935,0.052l1.193,0.333
	c-1.014-0.007-0.76,0.071-1.179,0.158c2.003-0.066,1.334,0.249,1.948,0.384c-0.673,0.008-1.359-0.024-1.197-0.19
	c-1.508,0.183,2.353,0.236,1.071,0.416c-0.017-0.041,0.087-0.062-0.255-0.078c0.598,0.094,0.124,0.326-0.462,0.271l-0.014-0.04
	c-0.237,0.268-0.015,0.816,1.687,0.856c-0.22-0.004-2.05-0.044-2.395-0.051l5.724,0.479c-1.461-0.042-4.94,0.12-5.766-0.103
	c-0.208,0.063-0.451,0.143,0.064,0.277c0.208-0.043,2.112-0.108,2.246-0.049c-1.627,0.163-0.87,0.113-2.257,0.315
	c0.313-0.065,2.604,0.007,2.531,0.111c-0.343-0.017-2.262,0.008-2.5-0.029l2.249,0.257c-0.405-0.064-1.906-0.011-2.542,0.046
	c0.44-0.026-0.041,0.223,0.182,0.291l0.521-0.109c-0.34,0.29,3.163,0.287,3.045,0.575c-0.465-0.035-2.859-0.086-3.143,0.06
	c1.152,0.067,5.541,0.297,6.428,0.552l-0.658,0.049l0.75,0.195c-1.733-0.122-5.381-0.463-6.8-0.65
	c-0.521,0.109-0.776,0.03-0.717,0.193c-0.617,0.058-0.937-0.089-0.973-0.137l-0.364,0.347c-0.451-0.163-1.105-0.323-0.308-0.466
	c-0.326-0.066-0.215-0.114,0.011-0.16c0.002,0.006,0.019,0.012,0.047,0.017c0.011-0.007,0.013-0.017,0.011-0.027
	c0.154-0.029,0.33-0.063,0.478-0.091c-0.218,0.028-0.397,0.054-0.48,0.077c-0.019-0.051-0.13-0.128-0.354-0.203l0.963-0.032
	c-0.013-0.006-0.011-0.011-0.027-0.018c0.355-0.074-0.456-0.06-1.181-0.02c-0.158-0.038-0.349-0.073-0.581-0.1
	c1.555-0.06-0.523-0.198,1.135-0.28c-0.809-0.051-0.608-0.379-2.31-0.42c0.222-0.002,0.327-0.025,0.341,0.016
	c0.194-0.084,0.388-0.168-0.092-0.244l1.225-0.036l-1.646-0.184c0.746-0.111,1.18-0.158,2.122-0.047
	c-1.449-0.268-0.546-0.217-1.982-0.445l0.792,0.011c-0.03-0.082-1.091-0.212-0.437-0.261c1.505-0.182,0.208-0.901,1.606-1.368
	c-2.331,0.091,1.045-0.217-0.762-0.236c0.551-0.027,0.862-0.092,1.342-0.017c-0.542-0.239,0.874-0.358-0.649-0.523
	c0.554-0.027,0.809,0.051,1.136,0.026c-0.119-0.019-0.479-0.075-0.15-0.101c0.328-0.024,0.463,0.035,0.703,0.073
	c-0.093-0.244-1.792-0.269-3.387-0.286c0.755-0.124,0.648-0.186-0.397-0.274c0.521-0.043,1.067-0.115,1.255,0.037
	c0.076-0.085,0.765-0.521-0.514-0.529c0.324-0.026,0.095-0.119-0.053-0.142c0.076-0.191,0.191-0.208,0.07-0.396l-0.209,0.052
	c-1.542-0.074-0.344-0.155-0.529-0.307l0.158,0.004c1.112-0.347-0.533-0.149,0.736-0.492l-0.959,0.019
	c-2.063-0.032,1.217-0.303,0.428-0.502l-0.548,0.072c-0.652-0.1,2.285-0.273,2.944-0.386c-0.022-0.034-0.047-0.07-0.066-0.108
	c-0.18-0.001-0.357-0.005-0.513-0.015c0.207-0.019,0.247-0.045,0.29-0.092c0.063,0,0.126,0.001,0.188,0.001
	c-0.01-0.058-0.002-0.12,0.048-0.187c0.161,0.097,0.306,0.152,0.442,0.184c0.232-0.007,0.404-0.028,0.451-0.081
	c0.22-0.028-0.089-0.101-0.454-0.189c0.323-0.022,0.632-0.033,0.88-0.016c0.01-0.006,0.02-0.012,0.028-0.018
	c-0.19-0.041-0.317-0.083,0.048-0.104c1.105,0.05,0.576,0.089,0.258,0.165c-0.067-0.015-0.182-0.035-0.283-0.056
	c-0.007,0.006-0.013,0.011-0.02,0.017c0.107,0.009,0.207,0.022,0.285,0.042c-0.205,0.051-0.303,0.117,0.244,0.214
	c-0.966,0.001-0.729,0.096-0.674,0.214l-0.344-0.002c0.104-0.04,0.063-0.059-0.063-0.068c-0.076,0.06-0.153,0.117-0.234,0.169
	c0.304,0.027,0.641,0.044,0.959,0.086c-0.126,0.142-1.117,0.172-1.952,0.205c-0.203,0.228,1.589-0.157,1.83,0.112
	c-0.489,0.189,0.033,0.323,0.799,0.55c-0.44,0.133-0.782-0.023-1.148,0.024l1.021,0.117c-0.024,0.029-0.338,0.02-0.496,0.015
	c0.396,0.099,1.278,0.008,1.626,0.164c1.409,0.042-2.06,0.32-0.459,0.513c-0.363,0.048-0.784-0.022-1.279-0.008
	c1.05,0.265,0.763,0.227,2.176,0.444l-0.84,0.185c0.961-0.136,2.098,0.038,3.031,0.19c0.463-0.051,0.867-0.095,1.063-0.117
	L45.875,78.569z M42.271,78.779c-0.319-0.033-0.161-0.084,0.204-0.141C42.554,78.68,42.518,78.727,42.271,78.779z M45.758,75.133
	c0.162-0.008,0.063-0.171,0.052-0.284c0.127,0.077,0.217,0.182,0.47,0.158L45.758,75.133z"/>
<path fill="#EC1C24" d="M40.951,78.387c0.163-0.013,0.343-0.016,0.524-0.019C41.313,78.351,41.125,78.35,40.951,78.387z"/>
<path fill="#EC1C24" d="M40.887,85.382c-0.236-0.002-0.436,0.017-0.498,0.082C40.528,85.421,40.705,85.397,40.887,85.382z"/>
<path fill="#EC1C24" d="M49.958,89.583c0.048,0.063-0.163,0.086-0.316,0.118c0.226-0.003,0.552-0.028,0.567,0.013L49.958,89.583z"/>
<path fill="#EC1C24" d="M44.239,90.851c0.118,0.02,0.013,0.041,0.133,0.06l0.448-0.005C44.791,90.824,44.429,90.767,44.239,90.851z"
	/>
<path fill="#EC1C24" d="M47.003,89.835c-0.812,0.01-0.536,0.092-0.386,0.184c-0.003-0.005-0.01-0.011,0-0.016
	C47.753,90.03,47.377,89.933,47.003,89.835z"/>
<path fill="#EC1C24" d="M46.645,90.041c0.038,0.028,0.06,0.057,0.021,0.085C47.121,90.137,46.76,90.091,46.645,90.041z"/>
<path fill="#EC1C24" d="M49.108,88.89c-0.209,0.044,1.038,0.027,0.707,0.052C50.848,88.99,48.565,88.652,49.108,88.89z"/>
<polygon fill="#EC1C24" points="44.33,89.91 45.332,89.877 44.524,89.825 "/>
<path fill="#EC1C24" d="M45.065,89.186l-0.277,0.146c0.168-0.002,0.267,0.016,0.342,0.039
	C45.163,89.281,45.362,89.182,45.065,89.186z"/>
<path fill="#EC1C24" d="M45.295,89.489c-0.011-0.025-0.044-0.08-0.166-0.118C45.11,89.418,45.131,89.463,45.295,89.489z"/>
<polygon fill="#EC1C24" points="44.029,89.709 44.238,89.666 44.311,89.563 "/>
<path fill="#EC1C24" d="M45.258,87.609l-0.287-0.16c-0.344-0.016-0.554,0.027-0.417,0.087
	C44.793,87.574,44.926,87.634,45.258,87.609z"/>
<path fill="#EC1C24" d="M42.514,88.093c0.208-0.043,0.432-0.046,0.762-0.071l-1.242-0.005L42.514,88.093z"/>
<path fill="#EC1C24" d="M41.313,87.597c0.342,0.016,0.628,0.176,0.911,0.03C41.879,87.611,41.235,87.395,41.313,87.597z"/>
<polygon fill="#EC1C24" points="43.795,85.216 43.811,85.257 45.848,85.251 "/>
<path fill="#EC1C24" d="M39.57,83.308c0.481,0.044,0.497-0.14,0.913-0.095c-0.304-0.068-0.328-0.116-0.58-0.134
	c0.112-0.021,0.067-0.034-0.269-0.03l-0.867,0.029c0.155,0.065,0.059,0.116-0.128,0.159c0.117-0.015,0.245-0.03,0.373-0.045
	C39.338,83.218,39.978,83.193,39.57,83.308z"/>
<path fill="none" stroke="#EC1C24" stroke-width="0" stroke-linecap="round" stroke-linejoin="round" d="M40.792,83.271
	c-0.129-0.024-0.228-0.043-0.31-0.059"/>
<polygon fill="#EC1C24" points="38.304,74.001 38.278,74.03 39.452,73.977 "/>
<path fill="#EC1C24" d="M58.58,44.53c0.039,0.183,0.1,0.262,0.336,0.102C58.872,44.509,58.734,44.491,58.58,44.53z"/>
<path fill="#EC1C24" d="M58.465,43.837c0.031,0.134,0.053,0.269,0.069,0.395c0.262-0.215,0.543-0.434,0.682-0.626h-0.473
	C58.652,43.682,58.565,43.754,58.465,43.837z"/>
<path fill="#EC1C24" d="M58.399,43.605c0.011,0.035,0.024,0.063,0.034,0.1c0.066-0.035,0.123-0.065,0.187-0.1H58.399z"/>
<path fill="#EC1C24" d="M45.374,45.923c0.129,0.285,0.479-0.028,0.655-0.129C45.729,45.635,45.575,45.37,45.374,45.923z"/>
</svg>
