<?xml version="1.0" encoding="utf-8"?>
<!-- Generator: Adobe Illustrator 16.0.3, SVG Export Plug-In . SVG Version: 6.00 Build 0)  -->
<!DOCTYPE svg PUBLIC "-//W3C//DTD SVG 1.1//EN" "http://www.w3.org/Graphics/SVG/1.1/DTD/svg11.dtd">
<svg version="1.1" id="Layer_8" xmlns="http://www.w3.org/2000/svg" xmlns:xlink="http://www.w3.org/1999/xlink" x="0px" y="0px"
	 width="72px" height="100px" viewBox="0 0 72 100" enable-background="new 0 0 72 100" xml:space="preserve">
<g>
	<polygon fill="#EC1C24" points="28.513,17.663 28.51,17.665 28.513,17.67 	"/>
	<path fill="#EC1C24" d="M28.53,17.724c0.034,0.025,0.019-0.006-0.017-0.054l0.007,0.064C28.523,17.731,28.529,17.729,28.53,17.724z
		"/>
	<path fill="#EC1C24" d="M25.71,20.146l-0.03-0.065c-0.007-0.002-0.016-0.003-0.022-0.005C25.677,20.099,25.701,20.119,25.71,20.146
		z"/>
	<path fill="#EC1C24" d="M23.352,20.53c-0.013,0.011-0.019,0.022-0.03,0.033v0.604c0.099,0.083,0.229,0.14,0.367,0.149
		c-0.095,0.106-0.255-0.01-0.367-0.022v0.041l0.161,0.263c0.098,0.005,0.193-0.018,0.278-0.112c-0.172-0.282-0.174-0.734-0.439-1.11
		v0.134C23.331,20.518,23.345,20.522,23.352,20.53z"/>
	<path fill="#EC1C24" d="M29.589,19.021c-0.031,0.077,0.02,0.154,0.128,0.14L29.589,19.021z"/>
	<path fill="#EC1C24" d="M28.529,17.897c0.001-0.051,0-0.104-0.009-0.163C28.48,17.793,28.349,17.84,28.529,17.897z"/>
	
		<line fill="none" stroke="#FFFFFF" stroke-width="0" stroke-linecap="round" stroke-linejoin="round" x1="48.685" y1="19.75" x2="48.588" y2="19.604"/>
	<path fill="#EC1C24" d="M31.558,49.548l-0.396,0.346c0.238-0.019,0.591,0.077,0.673-0.016c-0.006-0.07-0.006-0.144-0.033-0.189
		c0.061,0.099,0.063,0.155,0.033,0.189c0.013,0.142,0.048,0.265,0.382,0.082c-0.03-0.099-0.075-0.197-0.156-0.297
		C31.849,49.546,31.694,49.528,31.558,49.548z"/>
	<path fill="#EC1C24" d="M22.274,47.858c0.01,0.026,0.024,0.053,0.037,0.078l0.043-0.021C22.335,47.896,22.298,47.877,22.274,47.858
		z"/>
	<path fill="#EC1C24" d="M23.185,46.056c0.042-0.074,0.132-0.159,0.24-0.248c0.094-0.138,0.143-0.299,0.064-0.51l-0.481,0.104
		C23.121,45.644,23.176,45.892,23.185,46.056z"/>
	<path fill="#EC1C24" d="M32.076,49.044l0.015-0.023C31.871,48.931,31.758,48.856,32.076,49.044z"/>
	<path fill="#EC1C24" d="M50.941,27.807l-0.04,0.165C51.051,27.957,51.201,27.944,50.941,27.807z"/>
	<path fill="#EC1C24" d="M21.92,52l0.165-0.037C22.002,51.825,21.931,51.697,21.92,52z"/>
	<path fill="#EC1C24" d="M21.757,56.723c-0.301,0.24-0.042,0.396,0.066,0.671c0.073-0.903,1.297,0.785,0.937-0.381
		c1.086,0.409,2.505,0.359,3.647,0.396c-0.011-0.017-0.026-0.032-0.032-0.049c0.179,0.098,0.381-0.12,0.672-0.028
		c-0.053,0.038-0.092,0.073-0.125,0.107c0.267,0.02,0.505,0.056,0.71,0.108c-0.009-0.135,0.225-0.081,0.357-0.063
		c-0.004-0.085-0.031-0.164-0.074-0.239c-0.094-0.041-0.199-0.081-0.261-0.133c-0.065,0.014-0.11,0.018-0.019-0.015
		c0.004,0.005,0.012,0.01,0.019,0.015c0.042-0.009,0.088-0.021,0.118-0.034l-0.024-0.022c0.072-0.002,0.061,0.009,0.024,0.022
		c0.063,0.05,0.109,0.105,0.143,0.167c0.132,0.057,0.236,0.117,0.154,0.217c0.021,0.032-0.02,0.031-0.08,0.022
		c0,0.062-0.012,0.124-0.03,0.188c0.084,0.044,0.177,0.083,0.235,0.144c0.014,0.023,0.033,0.033,0.051,0.049
		c-0.041-0.42,0.454-0.385,0.081-0.867l-0.224,0.054c-0.164-0.19-0.251-0.396-0.302-0.605c-0.005,0.001-0.005,0.002-0.012,0.003
		c-0.002,0.03-0.005,0.061-0.007,0.087l0.014-0.003c-0.021,0.108-0.032,0.165-0.037,0.189c0.004-0.028,0.012-0.094,0.023-0.187
		l-0.427,0.086c0.102-0.123,0.342-0.155,0.434-0.173l0.002-0.021c0.005,0.001,0.003,0.002,0.007,0.002
		c-0.034-0.15-0.051-0.304-0.058-0.458l-0.137-0.115c-0.194,0.015-0.447,0.094-0.599,0.082c0.225-0.011,0.32-0.153,0.424-0.229
		l0.175,0.146c0.049-0.004,0.093-0.001,0.131,0.007c-0.009-0.385,0.012-0.771-0.122-1.12l-0.184,0.255
		c0.055-0.037-0.024-0.152-0.083-0.286c-0.251,0.105-0.409,0.14-0.54-0.057c0.119,0.065,0.156-0.111,0.32-0.152l0.201,0.161
		c-0.049-0.132-0.064-0.275,0.097-0.38c-0.01-0.023-0.007-0.039,0.052-0.035c-0.023,0.01-0.032,0.023-0.052,0.035
		c0.021,0.046,0.122,0.123,0.092,0.165c0.05-0.001,0.106-0.008,0.162-0.016c-0.072-0.32,0.274-0.383,0.433-0.147
		c0.041-0.03,0.075-0.064,0.09-0.104l-0.382-0.067l0.296-0.07c0.007-0.266-0.547,0.078-0.541-0.188
		c1.012-0.143,0.296-0.991,0.94-1.3c-0.014-0.033-0.034-0.067-0.044-0.099c-0.438-0.007,0.017,0.507-0.619,0.331
		c0.118-0.08,0.267-0.116,0.33-0.289l-0.474,0.06c0.27-0.803,0.675-1.109,0.574-1.824l0.102,0.029
		c0.185-0.255,0.099-0.392-0.312-0.506c0.222-0.053,0.335,0.131,0.53,0.032c-1.215-0.449,0.891-0.896,0.042-1.169
		c0.432,0.016,0.854-0.095,1.256-0.198v-0.03c0.048-0.002,0.096-0.007,0.143-0.006c0.287-0.072,0.561-0.126,0.82-0.126l0.136-0.042
		c-0.013,0.02-0.017,0.026-0.026,0.04c0.012,0.001,0.022,0.005,0.034,0.007c0.04-0.037,0.092-0.078,0.152-0.118l-0.011-0.017
		c0.012,0.001,0.017,0.005,0.027,0.007c0.088-0.056,0.186-0.095,0.271-0.064c0.063-0.041,0.137-0.063,0.213-0.078
		c0.055-0.043,0.02-0.106-0.003-0.144l0.587,0.125l-0.253,0.02c0.186,0.034,0.374,0.117,0.535,0.235l0.037-0.015l-0.021,0.02
		l0.563,0.021c-0.636,0.263,0.046,0.56,0.082,1.009l0.365-0.359c0.147,0.216-0.235,0.352,0.035,0.448
		c0.244-0.24,0.968-0.226,1.194-0.69c-0.036-0.112-0.124-0.219-0.232-0.308c-0.03,0.028-0.028,0.022-0.009-0.008l-0.025-0.024
		c-0.133-0.053-0.209-0.095-0.249-0.129c-0.1-0.031-0.203-0.052-0.314-0.045c0.133-0.012,0.214-0.019,0.271-0.023
		c0.031-0.048,0.195-0.028,0,0c-0.01,0.015,0.006,0.039,0.044,0.068c0.092,0.031,0.176,0.076,0.249,0.129
		c0.012,0.006,0.018,0.009,0.031,0.016c0.03-0.044,0.079-0.119,0.1-0.179c-0.051-0.013-0.103-0.025-0.17-0.042
		c0.173-0.075,0.194-0.03,0.17,0.042c0.455,0.1,0.288-0.085,0.271-0.287c0.518,0.701,0.807,0.228,1.201,1.05
		c-0.536-0.926,1.185-0.008,0.851-0.889c0.386,0.708,0.264,0.033,0.511,0.639c-0.542-0.193-1.082,0.458-1.519,0.766l0.417,0.412
		h-0.664l-0.084-0.449c-0.556-0.223-1.008,0.15-1.412,0.449h-1.963c0.012-0.127,0.004-0.258-0.037-0.391
		c-0.15,0.13-0.266,0.261-0.365,0.391h-1.619v7.063c0.16-0.067,0.368-0.174,0.719-0.412c-0.44,0.471-0.257,0.688,0.188,1.061
		l0.729-0.823l0.143,0.612c0.3-0.239,0.634-0.143,0.968-0.046c-0.162,0.007-0.073,0.06-0.063,0.171
		c0.16-0.851,1.466-0.751,1.668-1.155c0.326,0.829,0.874-0.21,1.113,0.567c0.107-0.116,0.245-0.211,0.396-0.29
		c-0.157-0.362-0.215-0.769,0.08-0.591c0.026-0.005,0.044-0.009,0.069-0.014l-0.115-0.434c-0.037-0.362,0.234-0.049,0.537,0.279
		c0.018-0.02,0.031-0.039,0.058-0.057c-0.01-0.023-0.007-0.039,0.052-0.035c-0.023,0.01-0.032,0.024-0.052,0.035
		c0.003,0.008,0.015,0.019,0.021,0.026c0.067-0.04,0.117-0.079,0.146-0.123l-0.236-0.43l-0.026,0.01
		c-0.069,0.06-0.146,0.116-0.235,0.166c-0.111-0.018,0.1-0.117,0.235-0.166c0.079-0.07,0.145-0.145,0.196-0.222
		c-0.029-0.118-0.045-0.224-0.23-0.319c-0.016-0.137,0.225-0.082,0.359-0.064c-0.004-0.081-0.031-0.157-0.074-0.229
		c-0.094-0.039-0.199-0.077-0.261-0.127c-0.065,0.014-0.11,0.018-0.019-0.015c0.004,0.006,0.012,0.01,0.019,0.015
		c0.042-0.009,0.088-0.021,0.118-0.032l-0.024-0.021c0.072-0.002,0.061,0.009,0.024,0.021c0.063,0.047,0.109,0.101,0.143,0.159
		c0.132,0.055,0.236,0.111,0.154,0.207c0.021,0.031-0.02,0.029-0.08,0.021c0.001,0.125-0.045,0.257-0.129,0.384
		c0.019,0.071,0.041,0.147,0.114,0.231c0.103-0.13,0.223-0.107,0.32-0.069c0.428-0.325-0.077-1.033,0.724-1.223
		c-0.792-0.181-0.114,0.502-0.832,0.305c0.118-0.081,0.267-0.117,0.33-0.29l-0.474,0.06c0.071-0.214,0.152-0.39,0.231-0.551
		l-0.248-0.197c0.101,0.051,0.228,0.031,0.335,0.021c0.073-0.146,0.132-0.291,0.181-0.431c-0.084-0.046-0.164-0.096-0.241-0.136
		c0.095,0.049,0.179,0.074,0.257,0.088c0.058-0.185,0.094-0.376,0.06-0.619l0.019,0.006l-0.496-0.367l0.548,0.344l0.004,0.039
		l0.027,0.008c0.185-0.255,0.099-0.392-0.312-0.506c0.222-0.053,0.335,0.131,0.53,0.032c-1.198-0.442,0.826-0.884,0.07-1.157
		c-0.036,0.047-0.109,0.088-0.266,0.116c0.199-0.208-0.183-0.593-0.272-0.889l0.574,0.11l-0.163,0.04
		c-0.192,0.185,0.235,0.439,0.142,0.608c0.148,0.003,0.295-0.01,0.439-0.03c-0.003-0.013,0.003-0.027-0.012-0.035l0.055,0.028
		c0.248-0.038,0.492-0.098,0.729-0.158v5.229c0.006,0.021,0.005,0.043,0.043,0.063c-0.012,0.018-0.028,0.022-0.043,0.032v0.322
		c0.009,0.005,0.023,0.008,0.03,0.013c-0.013,0.007-0.019,0.014-0.03,0.021v0.277c0.728-0.245,1.492-0.675,2.209-0.049
		c-0.174-0.104-0.42-0.148-0.486,0.023c0.969-0.046,1.932,0.641,2.544,0.272l-0.044-0.448c0.603-0.173,1.088-0.295,1.571-0.313
		c-0.008-0.052-0.016-0.09-0.021-0.114c-0.048-0.015-0.028-0.091,0,0c0.015,0.005,0.039-0.003,0.068-0.021
		c0.031-0.043,0.076-0.082,0.129-0.116l0.016-0.015c-0.044-0.014-0.119-0.037-0.179-0.047c-0.012,0.023-0.024,0.047-0.042,0.08
		c-0.075-0.081-0.03-0.091,0.042-0.08c0.1-0.212-0.085-0.134-0.287-0.127c0.618-0.213,0.326-0.343,0.812-0.497
		c-0.001-0.007-0.001-0.014-0.001-0.021c-0.497,0.036,0.133-0.579-0.649-0.44c0.692-0.176,0.071-0.126,0.607-0.231
		c-0.018-0.097-0.041-0.192-0.078-0.284l-0.183,0.244c0.087-0.057-0.166-0.301-0.131-0.509l-0.444-0.132l0.455,0.044l0.016,0.013
		c0.02-0.033,0.05-0.064,0.094-0.093c-0.105-0.019-0.22-0.053-0.363-0.156c0.311-0.125,0.469-0.193,0.537-0.288l-0.235-0.396
		l-0.027,0.009c-0.069,0.056-0.146,0.107-0.234,0.153c-0.111-0.017,0.1-0.108,0.234-0.153c0.08-0.064,0.145-0.133,0.197-0.204
		c-0.03-0.109-0.046-0.206-0.231-0.295c-0.016-0.126,0.226-0.075,0.359-0.059c-0.003-0.075-0.03-0.146-0.073-0.211
		c-0.094-0.036-0.199-0.071-0.262-0.117c-0.065,0.013-0.11,0.016-0.019-0.013c0.005,0.004,0.013,0.009,0.019,0.013
		c0.043-0.008,0.088-0.019,0.119-0.029l-0.025-0.021c0.072-0.002,0.061,0.008,0.025,0.021c0.063,0.043,0.108,0.093,0.143,0.146
		c0.131,0.05,0.236,0.103,0.153,0.191c0.021,0.028-0.02,0.026-0.08,0.02c0.001,0.115-0.044,0.236-0.128,0.354
		c0.018,0.066,0.04,0.136,0.113,0.214c0.244-0.286,0.592,0.223,0.484-0.172c0.013,0.01,0.03,0.013,0.044,0.021
		c0.028-0.295,0.001-0.613,0.488-0.738l-0.005-0.008c0.006,0.001,0.014,0.001,0.021,0.002c0.005-0.001,0.006-0.004,0.011-0.005
		c-0.792-0.172-0.114,0.479-0.833,0.29c0.119-0.077,0.268-0.111,0.331-0.276l-0.474,0.057c0.098-0.276,0.208-0.484,0.31-0.678
		l-0.063-0.009l0.037-0.076l-0.299-0.221c0.119,0.057,0.283,0.02,0.396,0.016l-0.098,0.205l0.05,0.037
		c0.106-0.202,0.194-0.395,0.231-0.605c-0.108-0.047-0.209-0.108-0.306-0.154c0.116,0.056,0.215,0.074,0.308,0.084
		c0.012-0.106,0.025-0.211,0.007-0.339l0.102,0.027c0.184-0.243,0.099-0.374-0.313-0.482c0.223-0.051,0.336,0.124,0.531,0.03
		c-1.215-0.429,0.891-0.855,0.042-1.116c0.145,0.005,0.287-0.006,0.43-0.022c-0.026-0.052,0.135-0.177,0.043-0.221l0.239,0.113
		l-0.137,0.086c0.231-0.037,0.459-0.09,0.681-0.145l-0.001,4.646c0.006,0.02,0.005,0.04,0.043,0.059
		c-0.013,0.017-0.028,0.021-0.043,0.03v0.296c0.009,0.005,0.023,0.007,0.03,0.012c-0.013,0.006-0.019,0.013-0.03,0.019v0.345
		c0.099,0.047,0.23,0.08,0.368,0.085c-0.096,0.061-0.255-0.005-0.368-0.011v0.021l0.228,0.209c-0.089,0.008-0.152-0.011-0.228-0.018
		v1.177c0.308,0.06,0.567,0.196,0.715,0.499c0.203-0.405,1.15,0.119,1.623-0.017l0.12,0.389c0.616,0.128,0.996-0.011,1.365-0.124
		c-0.059-0.037-0.114-0.059-0.171-0.103c0.315-0.301,0.644-0.187,0.93-0.001c0.225,0.021,0.48,0.092,0.803,0.262
		c-0.103,0.36-0.415-0.013-0.803-0.262c-0.287-0.028-0.524,0.03-0.759,0.104c0.625,0.405,1.227,0.407,1.81,0.315
		c0.07-0.011,0.139-0.027,0.208-0.041c-0.112-0.142-0.166-0.31,0.148-0.52c0.421,0.237,0.668-0.139,0.986,0.072
		c-0.097-0.258-0.273-0.267-0.609-0.382l0.371-0.078c-0.83-0.337-0.735-0.079-1.18-0.589c0.29,0.171,0.537-0.205,0.799-0.074
		c0.025-0.142-0.087-0.279-0.31-0.383l0.054,0.019c-0.191-0.517,0.467-0.423,0.054-0.893l-0.224,0.047
		c-0.603-0.616-0.213-1.395-0.49-2.032l-0.184,0.225c0.114-0.068-0.354-0.43-0.005-0.629c-0.01-0.021-0.007-0.034,0.052-0.031
		c-0.023,0.01-0.032,0.021-0.052,0.031c0.021,0.04,0.122,0.108,0.092,0.146c0.251-0.006,0.622-0.083,0.685-0.236l-0.382-0.059
		l0.296-0.062c0.007-0.234-0.547,0.068-0.541-0.165c1.095-0.137,0.146-1.006,1.109-1.207c-0.792-0.159-0.114,0.441-0.832,0.268
		c0.118-0.071,0.267-0.104,0.33-0.255l-0.474,0.052c0.27-0.706,0.675-0.977,0.574-1.605l0.102,0.025
		c0.185-0.224,0.099-0.345-0.312-0.444c0.222-0.047,0.335,0.114,0.53,0.027c-1.215-0.395,0.891-0.788,0.042-1.029
		c0.432,0.015,0.854-0.082,1.256-0.174v-0.503H53.8c0.278-1.973-0.436-3.961,0.207-5.886c-0.057-0.174-0.279-0.074-0.428-0.007
		c0.61-0.474-0.318-0.453-0.404-0.712l0.879-0.692c-0.262-0.281-0.531-0.062-0.707-0.082c-0.177-1.299,0.699-2.644,0.108-3.521
		c0.3-0.327,0.71,0.026,0.798-0.396c-0.444,0.319-0.546,0.024-0.66-0.279c-0.122-0.307-0.212-0.633-0.502-0.419
		c0.448-0.255,0.443-0.627,0.498-0.936c0.044-0.308,0.112-0.558,0.793-0.618c-0.052-0.521-0.657-0.271-0.739-0.105
		c-0.093-0.563-0.189-1.033-0.766-1.32c0.215-0.434-1.238-2.203-0.697-3.108c-0.383,0.629-0.31,0.146-0.722,0.014l-0.344,0.548
		l-0.316-0.644c-0.121-0.095-0.121-0.144-0.079-0.171c-0.051-0.113,0.294-0.162,0.223-0.499c-0.273-0.424-0.543-0.257-0.938-0.286
		l-0.023,0.111l-0.237-0.228c-0.138-0.215,0.971,0.344,0.718-0.493c-0.126,0.074-1.018,0.213-0.851-0.21
		c0.252,0.32,0.527,0.025,0.551-0.2l-0.369-0.468l-0.41,0.636c-1.041-1.215-2.066-2.753-3.689-3.589
		c0.335-0.566-1.137-0.587-0.589-1.372l0.028,0.113c0.464,0.121,0.193-0.731-0.213-0.81c0.24,0.44-1.008,0.575-0.204,1.104
		c0,0-0.207,0.018-0.414,0.051c-0.209,0.043-0.418,0.086-0.418,0.086c-0.517,0.776-0.896,0.584-1.345,0.232
		c-0.455-0.296-0.987-0.834-1.561-0.625c0.085-0.058,0.122-0.149,0.143-0.203c-0.517,0.219-0.996,0.014-1.414-0.202
		c-0.419-0.177-0.765-0.389-0.881-0.251l-0.066-0.499c-0.854,0.697-0.899,0.834-1.892,0.555c0.005-0.081,0.107-0.229-0.057-0.324
		c-0.198,0.343-0.383,0.719-0.95,0.757l2.317-2.157c-3.616,0-6.801,0.364-9.589,0.993c0.067-0.231,0.151-0.558,0.176-0.767
		l-0.059-0.192c0.063-0.028,0.073,0.058,0.059,0.192l0.012,0.039c-0.012-0.021,0.553-0.363,0.801-0.513l0.405-0.286
		c0,0.048,0.007,0.101,0.012,0.153l0.258-0.315c0.031-0.06,0.081-0.125,0.169-0.205l-0.169,0.205
		c-0.132,0.241,0.152,0.323,0.476,0.286c0.163-0.023,0.261-0.099,0.337-0.19c-0.038-0.102-0.075-0.199-0.114-0.316
		c-0.012,0.03,0.058,0.144,0.154,0.267c0.281-0.438-0.011-1.281,0.704-0.997c-0.104,0.023-0.095,0.105-0.199,0.129l0.19,0.063
		c0.014-0.023,0.027-0.047,0.039-0.069c-0.014,0.028-0.014,0.049-0.023,0.075l0.234,0.076c-0.349-1.371,2.078-0.701,1.867-2.054
		c0.664,0.449,0.084,0.296-0.439,1.108l0.636,0.241c-0.21,0.106-0.419,0.053-0.625,0.241c0.829,0.352,1.351-0.429,1.714-0.847
		c0.309,0.151-0.068,1.041,0.681,0.701c1.089-0.392-0.326-0.977,0.345-1.2l0.56,0.674c0.47-0.326,0.89-0.331,1.294-0.249
		c0.018-0.06,0.047-0.11,0.097-0.136c-0.006,0.024-0.006,0.086-0.007,0.154c0.294,0.069,0.579,0.175,0.869,0.235
		c0.169-0.048,0.255-0.116,0.3-0.19c-0.009-0.003-0.017-0.002-0.025-0.007l0.057-0.078c0.049-0.215-0.137-0.447,0.313-0.426
		l-0.313,0.426c-0.006,0.028-0.016,0.057-0.031,0.085c0.751,0.312,1.728-0.521,2.312-0.198c-0.163,0.121,0.265,0.489,0.3,0.667
		c-0.001-0.029,1.145-0.18,1.145-0.18c-0.513,0.06-0.577,0.461-0.745,0.823c0.323,0.039,0.524-0.139,0.756-0.133
		c-0.17,0.104-0.334,0.212-0.214,0.43c0,0,0.308-0.094,0.614-0.187c0.312-0.092,0.631-0.173,0.631-0.173
		c-0.04-0.093-0.158-0.146-0.258-0.191c0.273,0.051,0.928,0.047,1.195,0.487c-0.088,0.133-0.266,0.223-0.35,0.359
		c-0.162-0.532-0.469-0.24-0.717-0.009c0.723,0.188,0.145,0.161,0.383,0.554c0.485,0.16,0.886-0.263,0.878-0.628
		c0.522,0.346,0.635,0.53,1.371,0.432l-0.339,0.446l0.582,0.089l-0.699,0.405c0.77,0.801,0.608-0.785,1.518,0.066l-0.235,0.422
		c0.473,0.069,1.041-0.537,1.043,0.141c0.269-0.003,0.199-0.24,0.175-0.425l-0.097-0.146l0.097,0.146
		c-0.023-0.178,0.01-0.294,0.418-0.11c0.021-0.032,0.044-0.063,0.061-0.102c0.193-0.666-1.439-0.533-0.789-1.05
		c-0.014,0.075,0.066,0.088,0.053,0.164l0.286-0.266c-1.356-0.057-0.138-1.565-1.496-1.623c0.548-0.378,0.327-0.026,0.969,0.46
		l0.39-0.402c0.053,0.163-0.052,0.301,0.08,0.476c0.572-0.529-0.148-1.026-0.503-1.313c0.196-0.201,1.02,0.159,0.796-0.416
		c-0.266-0.813-0.992,0.153-1.151-0.335l0.703-0.354c-0.538-0.623-0.057-1.09,0.032-1.615c-0.057-0.119-0.129-0.178-0.205-0.207
		c-0.003,0.006-0.002,0.013-0.006,0.019l-0.081-0.037c-0.217-0.024-0.439,0.112-0.442-0.198l0.442,0.198
		c0.028,0.003,0.058,0.009,0.087,0.019c0.305-0.56-0.688-1.173-0.457-1.596c0.145,0.1,0.443-0.241,0.613-0.292
		c0-0.182-0.436-0.268-0.436-0.268c0.186,0.044,0.59,0.021,0.982,0.021c-0.042-0.112-0.264-0.129-0.316-0.179
		c0.143,0.008,0.289,0.038,0.47-0.056c0,0-0.167-0.074-0.334-0.109c-0.167-0.04-0.335-0.041-0.335-0.041
		c-0.068,0.043-0.094,0.08-0.112,0.11c-0.005-0.076-0.259-0.057,0.071-0.322c0.154-0.081,0.301-0.123,0.457-0.193
		c-0.443,0.327-0.064,0.176,0.236,0.128c-0.068-0.25,0.104-0.108,0.391-0.399c-0.016-0.246-0.551,0.022-0.891,0.28
		c0.153-0.254,0.259-0.449-0.148-0.256l0.549-0.444c0-0.005-0.173-0.035-0.173-0.03c0-0.017,0.669-0.462,0.669-0.445
		c0.154-0.341,0.022-0.275-0.165-0.11c-0.309,0.269-0.663,0.649-0.721,0.467l0.41-0.482C48.717,9.024,48.113,9.838,48.4,9.26
		c-0.299,0.291-0.285,0.681-0.573,0.779c0.121-0.249,0.113-0.431,0.066-0.528c-0.177,0.22-0.192,0.571-0.132,0.505
		c-0.338,0.228,0.314-1.649-0.39-1.014c0.119,0.346-0.169,0.933,0.089,0.918c-0.174,0.285-0.054-0.698-0.616-0.174l0.273-0.615
		c-0.151-0.012-0.321,0.212-0.403,0.287l0.034-0.475c-0.518,0.833-0.964-0.396-1.271,0.695c0.214-0.858-0.387,0.05-0.592-0.284
		c0.426-0.604,1.222,0.016,1.278-0.776c-0.198-0.24-0.376,0.148-0.567-0.085c-0.125,0.11-0.195,0.139-0.034-0.041
		c0.012,0.019,0.023,0.027,0.034,0.041c0.134-0.117,0.329-0.327,0.38-0.487c-0.655-0.449-1.028,0.478-1.426,0.685l0.701-0.184
		c-0.057,0.792-0.315,0.136-0.513,0.756c-0.351-0.425-0.626,0.191-0.912-0.07c0.076,0.004,0.081-0.073,0.157-0.068
		c-0.765,0.02-0.978-1.271-1.282-1.294c-0.299-0.103-0.864,0.329-0.659,0.664c-0.245,0.22,1.016-0.236,0.579,0.79
		c-0.438-1.187-0.898,0.443-1.851-0.367c0.416-0.421-0.245-0.668,0.127-0.986c-0.454,0.097-0.471,0.273-0.673,0.608l-0.137-0.37
		c-0.593,0.83-0.139,0.735-1.036,1.179c0.301-0.289-0.36-0.536-0.131-0.798c-0.248-0.025-0.491,0.087-0.673,0.31l0.033-0.054
		c-0.909,0.191-0.744-0.468-1.571-0.054l0.082,0.224c-1.084,0.603-2.453,0.213-3.574,0.49l0.395,0.183
		c-0.12-0.113-0.756,0.354-1.105,0.006c-0.036,0.01-0.061,0.007-0.055-0.052c0.016,0.022,0.037,0.032,0.055,0.052
		c0.07-0.021,0.19-0.122,0.256-0.092c-0.01-0.251-0.146-0.622-0.415-0.685L32.245,9.26l-0.109-0.297
		c-0.411-0.006,0.121,0.548-0.29,0.542c-0.24-1.095-1.77-0.146-2.123-1.109c-0.28,0.792,0.777,0.114,0.471,0.832
		c-0.125-0.118-0.182-0.267-0.449-0.33l0.093,0.474c-1.243-0.27-1.718-0.675-2.824-0.574l0.044-0.102
		c-0.394-0.185-0.606-0.099-0.782,0.312c-0.082-0.222,0.202-0.335,0.049-0.53c-0.694,1.215-1.387-0.891-1.81-0.042
		c0.024-0.433-0.146-0.854-0.306-1.256h-0.886v11.946l0.16-0.049c-0.315,0.394,0.229,0.513,0.406,0.927l0.104-0.42
		c0.167,0.17-0.026,0.383,0.176,0.413c0.07-0.281,0.528-0.43,0.523-0.921c-0.059-0.099-0.148-0.18-0.247-0.238
		c-0.011,0.034-0.012,0.027-0.009-0.006l-0.023-0.017c-0.104-0.02-0.166-0.042-0.203-0.064c-0.074-0.007-0.148-0.002-0.218,0.03
		c0.082-0.041,0.132-0.066,0.167-0.085c0.004-0.052,0.116-0.071,0,0c-0.002,0.017,0.017,0.036,0.051,0.055
		c0.069,0.009,0.139,0.031,0.203,0.064c0.01,0.003,0.014,0.004,0.024,0.007c0.006-0.048,0.013-0.131,0.007-0.191
		c-0.036,0-0.073,0-0.124,0c0.088-0.112,0.117-0.074,0.124,0c0.326-0.011,0.159-0.147,0.085-0.335
		c0.556,0.553,0.594,0.016,1.094,0.741c-0.618-0.793,0.764-0.214,0.301-1.001c0.447,0.613,0.184-0.015,0.508,0.525
		c-0.406-0.092-0.574,0.627-0.758,0.995l0.316,0.268c0.104-0.037,0.201-0.068,0.3-0.09c-0.059-0.006-0.116-0.056-0.175-0.221
		c0.146-0.232,0.296-0.467,0.396,0.094c0.012,0.002,0.021-0.004,0.032-0.009c-0.064,0.048-0.121,0.095-0.177,0.123
		c0.184-0.024,0.38,0.004,0.646,0.152l-0.369,0.484c0.247-0.01,0.406-0.065,0.535-0.135c0.064-0.334,0.231-0.596,0.056-0.882
		c0.175,0.12,0.228,0.352,0.382,0.322c0.039-0.082,0.09-0.136,0.179-0.135c0.11-0.388-0.442-0.532-0.592-0.712
		c0.22-0.3,0.184-0.455,0.149-0.625c-0.014-0.022-0.029-0.048-0.042-0.069l0.03-0.004c-0.019-0.132-0.014-0.285,0.137-0.524
		c0.249,0.255,0.38,0.384,0.527,0.416c-0.002-0.013,0.506-0.345,0.506-0.345l-0.019-0.023c-0.092-0.055-0.182-0.114-0.266-0.189
		c-0.001-0.113,0.175,0.068,0.266,0.189c0.108,0.061,0.219,0.106,0.329,0.14c0.148-0.058,0.281-0.098,0.371-0.304
		c0.176-0.048,0.148,0.202,0.151,0.338c0.104-0.022,0.197-0.067,0.283-0.127c0.033-0.102,0.064-0.214,0.117-0.286
		c-0.028-0.062-0.041-0.105,0.016-0.022c-0.006,0.006-0.01,0.015-0.016,0.022c0.02,0.039,0.043,0.081,0.063,0.108l0.023-0.029
		c0.016,0.071,0,0.062-0.023,0.029c-0.05,0.073-0.112,0.131-0.181,0.178c-0.047,0.143-0.102,0.259-0.24,0.2
		c-0.036,0.028-0.042-0.012-0.043-0.073c-0.161,0.031-0.341,0.018-0.522-0.034c-0.089,0.034-0.183,0.074-0.276,0.166
		c0.448,0.166-0.188,0.636,0.339,0.43c-0.164,0.221,0.005,0.525-0.323,0.615c-0.27-0.424-0.033-0.653-0.03-1.092
		c-0.251,0.096-0.396,0.132-0.525,0.109L27.9,18.088l0.026-0.067l-0.586,0.098l0.012,0.073c0.237,0.364,0.484,0.912,0.624,1.386
		c0.091,0.044,0.206,0.115,0.354,0.221c-0.098,0.045-0.186,0.113-0.256,0.194c0.026,0.181,0.022,0.331-0.025,0.423
		C28,20.37,27.956,20.34,27.914,20.319c-0.004,0.029-0.007,0.058-0.006,0.085c-0.11,0.027-0.223,0.054-0.332,0.082
		c-0.045,0.115-0.056,0.266-0.024,0.41c-0.109-0.077-0.048-0.276-0.079-0.385c-0.002,0-0.003,0-0.004,0.001l-0.236,0.323
		c-0.034-0.086-0.056-0.167-0.066-0.243c-0.006,0.001-0.012,0.003-0.018,0.005c-0.006-0.06-0.018-0.13-0.046-0.226
		c-0.212-0.135-0.304,0.143-0.366,0.345c-0.012,0.003-0.023,0.007-0.035,0.01c0.039-0.191-0.069-0.333-0.266-0.432l0.204,0.461
		l-0.192-0.049l-0.013-0.413c-0.117-0.059-0.261-0.102-0.407-0.139c-0.146,0.245-0.658-0.321-0.721-0.055
		c0.009-0.038,0.031-0.056,0.053-0.075c-0.058-0.01-0.109-0.02-0.143-0.028c0.153-0.006,0.28-0.03,0.399-0.059l-0.161-0.352
		c-0.457-0.098-0.612,0.467-0.773,0.849c0.315,0.102-0.179,0.455,0.148,0.799l0.092-0.076c0.004-0.01,0.003-0.016,0.008-0.025
		l0.009,0.011l0.059-0.049c0.159,0.172,0.035,0.415-0.01,0.623c-0.375-0.103-0.809,0.038-1.194,0.157
		c-0.299,0.102-0.557,0.205-0.755,0.162c-0.268,0.117-0.532,0.235-0.789,0.358c-0.106,0.051-0.211,0.103-0.316,0.154
		c-0.14,0.069-0.283,0.136-0.42,0.206c0.05,0.289,0.128,0.578,0.269,0.843c0.079-0.33,0.292-0.957,0.622-0.441
		c-0.1,0.319-0.385,0.615-0.219,0.975c-0.534-0.525,0.287-0.368-0.259-0.761c-0.141,0.078-0.088,0.326-0.096,0.467
		c-0.045-0.313-0.354-0.364-0.476-0.484c-0.455,0.257-0.873,0.141-1.402,0.376c0.053,0.048,0.066,0.058-0.01,0.004l0.01-0.004
		c-0.013-0.012-0.037-0.037-0.055-0.053c-0.101,0.062-0.205,0.122-0.304,0.185c0.058,0.443,0.246,1.005,0.464,1.208
		c-0.233,0.204-0.438-0.062-0.543,0.253c0.705,0.275-0.129-0.038,0.229,0.543c-0.166,0.221-0.267-0.214-0.459-0.269
		c0.006,0.085,0.053,0.329,0.157,0.48c0.078,0.057,0.166,0.103,0.271,0.113c-0.115,0.043-0.203-0.017-0.271-0.113
		c-0.397-0.28-0.511-1.066-0.893-1.499c-0.118,0.086-0.231,0.173-0.347,0.26l0.164,0.21l-0.062,0.054l-0.149-0.228
		c-0.114,0.087-0.229,0.173-0.34,0.261c0.549,0.687,1.24,1.455,1.609,1.754c0.226,0.318-0.447-0.182-0.563-0.138
		c-0.661-0.274-0.053,0.713-0.418,0.694l-0.08-0.405c-0.143-0.094-0.311,0.331-0.2,0.541c-0.162-0.156-0.617-0.991-0.896-1.104
		c-0.505,0.254,0.063,1.505,0.565,1.938c0,0,0.001-0.257,0.002-0.513c0.005-0.259,0.037-0.505,0.037-0.505
		c0.391,0.388-0.006,0.762,0.501,1.226l-0.582,0.331c0.042-0.071,0.1-0.365-0.191-0.507c-0.176,0.23-0.172,0.041-0.498,0.006
		c-0.174-0.404-0.527-1.176-0.867-1.912c-0.155,0.154-0.311,0.309-0.456,0.464c0.378,0.655,0.844,1.3,1.037,1.547
		c-0.289,0.1-1.134-0.748-1.259-0.954c-0.44,0.394,0.952,1.518,0.496,1.814l0.325,0.004c0.016,0.163-0.447,0.37-0.24,0.463
		c-0.318-0.108-0.994-0.46-1.084-0.675c0,0,0.155,0.258,0.312,0.516c0.171,0.255,0.342,0.511,0.342,0.511
		c-0.064-0.124-0.885-0.619-1.012-0.741c-0.138,0.155,0.759,0.887,0.95,0.872c-0.771-0.064-0.402,0.056-1.26-0.102
		c-0.001,0.13,0.885,0.506,1.013,0.497c0.098,0.332-0.077,0.384-0.229,0.431c0.002,0.006,0.011,0.014,0.012,0.021l-0.033-0.015
		c-0.166,0.048-0.256,0.111,0.157,0.495c0,0-0.332-0.239-0.664-0.479c-0.329-0.247-0.657-0.495-0.657-0.495l1.164,0.479l0.021-0.006
		c-0.105-0.375-0.942-0.785-1.645-1.144c-0.05,0.088-0.104,0.176-0.152,0.264c0.125,0.135,0.26,0.275,0.401,0.417
		c0.534,0.545,1.094,1.037,1.094,1.037c-0.144-0.098-0.938-0.56-1.039-0.604c0.365,0.223,0.469,0.569,0.443,0.897
		c-0.031,0.328-0.11,0.666-0.254,0.867l0.017-0.069c-0.245-0.188-0.607,0.142-0.377,0.385c-0.155-0.073-0.092-0.097-0.076-0.168
		c-0.736,0.152,1.156,0.715,0.352,0.826c0.135-0.249-0.188-0.385-0.518-0.453c0.252,0.306-0.191,0.777,0.82,0.83
		c-0.243,0.104-0.131,0.244-0.628,0.165c0,0,0.14,0.149,0.279,0.299c0.14,0.137,0.279,0.273,0.279,0.273
		c-0.101-0.04-0.392-0.094-0.474,0.06c0.161-0.271-0.764-0.687-0.082-0.769c-0.61-0.105-0.967-0.016-1.447-0.267
		c0.084,0.381,0.427,0.689,0.793,0.925c0.37,0.231,0.801,0.399,1.166,0.647l-0.446,0.644l0.283,0.027l-0.713,0.111
		c0.163,0.08,0.305,0.132,0.237,0.148c-0.064,0.015-0.158-0.006-0.264-0.037c0.035,0.067,0.1,0.129,0.173,0.161
		c0.091-0.006,0.181-0.013,0.263-0.038c-0.088,0.074-0.182,0.073-0.263,0.038c-0.374,0.025-0.805-0.089-1.193-0.21
		c-0.044,0.019-0.09,0.038-0.132,0.056c0.467,0.309,1.035,0.66,1.516,0.385l0.279-0.251l-0.279,0.251l-0.42,0.375
		c0.707,0.439,0.563,0.363,1.088,0.898c-0.248,0.029-0.458-0.113-0.64-0.017c0.8,0.391-0.935,0.953-0.229,1.038
		c0.174,0.315,0.615,0.131,0.813,0.332c-0.078-0.01-0.235-0.028-0.248,0.03l0.511,0.238c-0.183,0.096-0.354-0.22-0.574,0.049
		c0.383,0.459,0.644,0.729,0.399,1.112c0.121,0.547,1.017-0.233,0.915,0.228c-0.417,0.068-0.913,0.128-0.976,0.416
		c0.287,0.152,0.613,0.132,0.798,0.391l-0.64-0.017c0.027,0.239,0.146,0.431-0.337,0.433c0.273,0.195,0.225,0.33,0.122,0.433
		c0.338,0.363,1.298-0.267,1.549-0.352c-0.48,0.356-0.201,0.604-0.972,0.807l-0.173-0.315c-0.791,0.674,0.906,0.639-0.449,0.951
		c0.05-0.23-0.291-0.508-0.644-0.372l0.329,0.335c-0.17,0.039-0.119-0.191-0.313-0.038c0.14,0.096,0.47,0.291,0.683,0.377
		l0.195,0.023c-0.009,0.038-0.088,0.021-0.195-0.023l-0.04-0.005l0.108,0.604c0.025-0.115-0.21-0.144-0.236-0.028l0.336,0.396
		l0.112,0.13l-0.112-0.13c-0.161-0.121-0.358,0.003-0.463,0.181c-0.193,0.51,1.439,0.408,0.789,0.804
		c0.014-0.058-0.066-0.067-0.053-0.126l-0.286,0.204c1.356,0.043,0.138,1.199,1.496,1.242c-0.548,0.29-0.327,0.021-0.969-0.352
		l-0.39,0.309c-0.053-0.126,0.052-0.23-0.08-0.365c-0.572,0.405,0.148,0.787,0.503,1.006c-0.196,0.155-1.02-0.121-0.796,0.319
		c0.266,0.623,0.992-0.118,1.151,0.256c0,0-0.703,0.283-0.703,0.259c0.547,0.117,0.056,0.227,0.022,0.417
		c0.063,0.012,0.136-0.002,0.21-0.022c0.003-0.003,0.001-0.004,0.004-0.006l0.079-0.022c0.206-0.077,0.412-0.171,0.425-0.139
		l-0.425,0.139l-0.083,0.028c-0.13,0.119,0.07,0.12,0.252,0.066c0.179-0.042,0.357-0.146,0.287-0.058
		c-0.128,0.077-0.325,0.313-0.444,0.448c0,0.026,0.435-0.198,0.423-0.214c-0.165,0.111-0.458,0.411-0.751,0.689
		c0.102,0.021,0.276-0.129,0.344-0.14c-0.11,0.096-0.237,0.185-0.318,0.358c0,0,0.167-0.08,0.312-0.178
		c0.155-0.109,0.284-0.232,0.284-0.232c0.024-0.066,0.019-0.099,0.013-0.123c0.057,0.021,0.233-0.161,0.167,0.16
		c-0.065,0.145-0.151,0.271-0.225,0.415c0.118-0.44-0.069-0.11-0.271,0.132c0.222,0.04-0.006,0.115-0.03,0.434
		c0.189,0.05,0.423-0.449,0.506-0.781c0.061,0.188,0.121,0.309,0.31-0.088l-0.112,0.541l0.165-0.157c0,0-0.047,0.163-0.095,0.326
		c-0.058,0.163-0.116,0.325-0.116,0.325c0.164,0.204,0.209-0.026,0.238-0.271c0.017-0.121,0.032-0.245,0.061-0.319
		c0.015-0.037,0.03-0.062,0.055-0.066c0.053-0.006,0.118,0.008,0.202,0.047l0.002,0.482c0.259-0.186,0.348-0.999,0.549-0.421
		c0.251-0.291-0.43-0.681,0.16-0.779c0.085,0.249,0.386,0.431,0.398,0.527c0.032-0.108,0.006-0.252-0.021-0.36
		c-0.015-0.107-0.056-0.176-0.145-0.144c0.145-0.027,0.112-0.026,0.147,0.004c0.022,0.03,0.043,0.077,0.066,0.144
		c0.046,0.15,0.1,0.327,0.151,0.496c0.102,0.345,0.271,0.669,0.385,0.287c-0.218-0.303-0.225-0.909-0.41-0.853
		c0.011-0.141,0.086,0.013,0.187,0.137c0.093,0.122,0.213,0.214,0.146-0.054c0,0,0.049,0.15,0.098,0.301
		c0.04,0.149,0.08,0.3,0.08,0.3c0.063-0.002,0.019-0.241,0.005-0.32l0.209,0.437c-0.104-0.427,0.001-0.368,0.114-0.353
		c0.092,0.002,0.184-0.03-0.147-0.479c0.519,0.694,0.077-0.096,0.334,0.084c0.196,0.279,0.075,0.345,0.015,0.427
		c-0.063,0.086-0.101,0.176,0.104,0.515c0.232,0.158,0.05-0.237,0.272-0.104c-0.025-0.126-0.017-0.17,0.04,0.021
		c-0.017-0.01-0.026-0.015-0.04-0.021c0.026,0.134,0.074,0.376,0.145,0.53c0.287,0.056,0.352-0.154,0.307-0.38
		c-0.055-0.244-0.219-0.518-0.241-0.651c-0.001-0.012-0.06,0.396-0.084,0.382c-0.537-0.587,0.009-0.212-0.417-0.696
		c0.429,0.17-0.006-0.278,0.251-0.221c-0.017,0.022,0.05,0.065,0.031,0.088c0.114-0.217,1.348,0.16,1.435-0.042
		c0.185-0.165-0.233-0.598-0.571-0.531c-0.104-0.081-0.054,0.057-0.112,0.157c-0.076,0.104-0.235,0.132-0.705-0.105
		c0.605,0.1,0.511-0.063,0.364-0.2c-0.072-0.072-0.156-0.143-0.17-0.212c-0.012-0.036-0.004-0.068,0.032-0.112
		c0.035-0.08,0.099-0.165,0.2-0.257c0.421,0.319,0.668-0.188,0.986,0.098c-0.097-0.348-0.273-0.36-0.609-0.515l0.371-0.104
		c-0.83-0.454-0.735-0.106-1.18-0.794c0.29,0.23,0.537-0.276,0.799-0.101c0.025-0.19-0.087-0.376-0.31-0.516l0.054,0.025
		c-0.191-0.695,0.467-0.569,0.054-1.203l-0.224,0.063c-0.603-0.83-0.213-1.879-0.49-2.738l-0.184,0.303
		c0.114-0.092-0.354-0.579-0.005-0.847c-0.01-0.027-0.007-0.046,0.052-0.042c-0.023,0.012-0.032,0.028-0.052,0.042
		c0.021,0.054,0.122,0.146,0.092,0.196c0.251-0.008,0.622-0.112,0.685-0.318l-0.382-0.079l0.296-0.084
		c0.007-0.314-0.547,0.093-0.541-0.223c1.095-0.183,0.146-1.354,1.109-1.626c-0.792-0.214-0.114,0.596-0.832,0.361
		c0.118-0.097,0.267-0.14,0.33-0.344l-0.474,0.07c0.27-0.952,0.675-1.315,0.574-2.163l0.102,0.034
		c0.185-0.302,0.099-0.464-0.312-0.599c0.222-0.063,0.335,0.154,0.53,0.037c-1.215-0.532,0.891-1.063,0.042-1.387
		c0.432,0.02,0.854-0.111,1.256-0.234v-0.678l2.754-2.563c0.195,0.426-0.354,0.623-0.195,1.231c-0.205-0.25-0.385-0.099-0.669-0.064
		c0.887,0.184-0.921,0.832,0.274,0.724c-0.164,0.204-0.25,0.444-0.314,0.696l0.493,0.125l-0.535,0.048
		c-0.015,0.068-0.029,0.136-0.043,0.205c-0.035,0.207-0.063,0.413-0.081,0.624c0.051,0.049,0.119,0.093,0.241,0.115l-0.26,0.27
		c-0.002,0.071-0.01,0.137-0.01,0.21c-0.002,0.08-0.006,0.152-0.008,0.23c0.132,0.013,0.246,0.015,0.288-0.042
		c-0.006-0.082-0.006-0.17-0.033-0.224c0.061,0.116,0.063,0.184,0.033,0.224c0.013,0.17,0.047,0.318,0.387,0.096
		c-1.067,1.089-0.743,2.196-0.652,3.291c0.07,0.122,0.177,0.279,0.377,0.517c-0.14-0.105-0.253-0.155-0.358-0.181
		c0.006,0.263-0.013,0.523-0.075,0.782l0.196,0.142l-0.249,0.047c-0.039,0.116-0.085,0.232-0.146,0.348
		c0.057,0.109,0.279,0.047,0.428,0.005c-0.61,0.297,0.318,0.284,0.404,0.447l-0.637,0.315c0.052,0.065,0.098,0.134,0.137,0.207
		c0.125-0.01,0.238-0.041,0.328-0.035c0.048,0.225,0.017,0.446-0.04,0.665c0.053,0.092,0.111,0.167,0.193,0.2
		c-0.199,0.063-0.286,0.138-0.321,0.216c-0.003,0.01-0.006,0.019-0.01,0.028c-0.062,0.224,0.26,0.475-0.148,0.624
		c-0.003,0.047,0.004,0.094,0.008,0.14c0.069,0.068,0.142,0.134,0.195,0.216c0.361-0.127,0.768-0.174,0.59,0.064
		c0.008,0.021,0.008,0.036,0.014,0.057l0.434-0.093c0.445-0.037-0.128,0.301-0.498,0.603c-0.071,0.104-0.161,0.201-0.238,0.294
		c0.001,0.033,0,0.065-0.006,0.088c-0.014-0.016-0.021-0.033-0.023-0.053c-0.112,0.148-0.168,0.302-0.005,0.514
		c-0.185,0.213-0.214,0.438-0.169,0.669c0.011,0.058,0.026,0.117,0.046,0.175c0.019,0.027,0.041,0.054,0.065,0.078
		c0.049,0.051,0.105,0.096,0.16,0.137c0.219,0.18,0.402,0.187-0.104,0.63c0.104-0.114,0.148-0.205-0.023-0.158
		c0.008,0.048-0.007,0.107-0.028,0.172h-0.537c-0.037,0.07-0.057,0.167-0.056,0.302c0.003,0.096,0.006,0.203,0.01,0.316
		c0.009,0.152,0,0.314-0.023,0.475c-0.046,0.321-0.08,0.655-0.229,0.898c-0.162,0.24-0.371,0.399-0.639,0.408
		c0.699-0.058,0.324,0.145,0.455,0.556c0.008,0.013,0.639-0.049,0.639-0.048c0,0-0.065,0.188-0.183,0.354
		c-0.107,0.167-0.216,0.334-0.216,0.334c-0.03,0.17-0.075,0.197-0.118,0.169c-0.089,0.098-0.27-0.197-0.548-0.008
		c-0.333,0.363-0.102,0.575-0.075,1.006l0.118-0.006c0,0-0.202,0.326-0.214,0.315c-0.11,0.086-0.02-0.177-0.055-0.426
		c-0.026-0.242-0.144-0.424-0.494-0.243v0.022c0.092,0.115,0.167,0.626,0,0.787v2.959c0.006,0.022,0.005,0.046,0.043,0.066
		c-0.012,0.019-0.028,0.023-0.043,0.034v0.131C21.173,56.792,21.437,56.814,21.757,56.723z M45.159,54.529l-0.157,0.098
		l-0.238-0.113L45.159,54.529z M45.036,55.332c-0.077,0.048-0.183,0.082-0.158,0.178l-0.126-0.197
		C44.759,55.374,44.922,55.337,45.036,55.332z M47.701,55.541l0.037-0.155l0.104-0.065L47.701,55.541z M48.066,19.368l0.573-0.065
		l-0.587,0.141L48.066,19.368z M47.398,16.175c0.025-0.15-0.105-0.326-0.081-0.476C48.048,15.658,47.292,15.849,47.398,16.175z
		 M35.499,15.673c0.151,0.717-0.22,0.007-0.686,0.186C35.036,15.85,35.275,15.681,35.499,15.673z M33.4,16.448
		c0.093,0.011,0.146,0.006,0.185-0.002c-0.146-0.22,0.188-0.04,0,0c0.015,0.021,0.022,0.037,0.047,0.065
		C33.213,16.708,33.485,16.719,33.4,16.448z M32.721,16.125c-0.071,0.127,0.158,0.141,0.227,0.298l-0.224,0.273
		C32.549,16.443,32.476,16.287,32.721,16.125z M30.423,17.765l0.105-0.025l0.303,0.5L30.423,17.765z M31.117,16.495
		c0.045,0.222,0.238,0.297,0.347,0.39l-0.159,0.192c0.038,0.169,0.011,0.281-0.236,0.299l0.236-0.299
		C31.258,16.887,31.124,16.647,31.117,16.495z M30.723,17.869l0.111,0.017l0.264-0.351c-0.062,0.132,0.015,0.285,0.036,0.396
		l-0.3-0.045l-0.118,0.16L30.723,17.869z M30.484,17.398l-0.177-0.402c0.171,0.072,0.25,0.302,0.285,0.389l0.027-0.003
		c-0.002,0.056-0.011,0.043-0.027,0.003C30.554,17.39,30.517,17.395,30.484,17.398l0.006,0.013
		c-0.139,0.003-0.211,0.005-0.241,0.006C30.284,17.414,30.366,17.407,30.484,17.398z M30.153,16.291l-0.101,0.375l-0.092,0.199
		L30.153,16.291z M23.859,19.157c-0.398,0.432-0.091-0.893-0.013-0.371C23.739,18.648,23.985,19.223,23.859,19.157z M25.162,18.24
		l0.241-0.195c-0.085,0.03,0.017,0.172,0.056,0.278C25.369,18.269,25.289,18.18,25.162,18.24z M26.44,18.025l0.098-0.273l0.08,0.389
		L26.44,18.025z M26.582,19.573c0.087-0.083,0.131-0.28,0.17-0.056C26.69,19.514,26.634,19.54,26.582,19.573z M27.045,18.164
		l0.111-0.693l0.048,0.457L27.045,18.164z M28.793,16.811c-0.062,0.146-0.117,0.284-0.181,0.367
		C28.662,17.002,28.724,16.893,28.793,16.811c0.103-0.247,0.221-0.523,0.405-0.609c-0.091,0.199,0.225,0.346,0.161,0.653
		C29.101,16.66,28.925,16.659,28.793,16.811z M25.674,20.531c-0.025,0.096-0.108,0.138-0.203,0.16
		c-0.032,0.052-0.053,0.111-0.021,0.189l-0.327-0.029c-0.055-0.139,0.17-0.113,0.349-0.16
		C25.526,20.607,25.626,20.554,25.674,20.531z M25.324,20.325c-0.029-0.097-0.029-0.162-0.019-0.218
		C25.294,20.163,25.294,20.229,25.324,20.325z M24.957,20.721l-0.073-0.144c0,0,0.128,0.01,0.255,0.021
		c0.13,0.016,0.26,0.031,0.26,0.031C25.206,20.736,25.119,20.801,24.957,20.721z M15.102,42.348
		c0.026-0.115,0.039-0.173,0.208-0.211l0.156,0.019L15.102,42.348z M14.98,45.503l-0.573,0.051l0.587-0.108L14.98,45.503z
		 M15.648,47.948c-0.025,0.115,0.105,0.25,0.081,0.365C14.998,48.344,15.753,48.198,15.648,47.948z M17.133,29.572
		c-0.572-0.353-0.4-0.342-0.472-0.669c-0.013-0.053-0.022-0.107-0.047-0.179c0.024,0.071,0.034,0.126,0.047,0.179
		c0.103,0.193,0.331-0.043,0.46,0.174C16.684,29.099,17.519,29.478,17.133,29.572z M23.384,35.979l-0.13-0.088l0.343-0.159
		L23.384,35.979z M25.963,20.95c-0.001-0.006,0.212-0.023,0.212-0.023l0.115,0.078C26.291,21.005,25.961,20.942,25.963,20.95z
		 M47.124,48.354C47,48.166,47,48.035,47.311,47.925c-0.124,0.119,0.21,0.156,0.288,0.32l-0.164,0.108H47.124z M45.638,49.905
		c-0.247-0.175-0.345-0.049-0.5,0.05C45.039,49.62,45.541,49.571,45.638,49.905z M45.356,50.347
		c-0.197-0.051-0.174-0.075-0.104-0.091l-0.222-0.192c0.149,0.082,0.353,0.12,0.142,0.104c0.427,0.06,0.195,0.063,0.08,0.088
		L45.356,50.347z M44.626,52.093l-0.531-0.195l0.352,0.109L44.626,52.093z M37.946,48.422l-0.033,0.396l-0.209-0.157L37.946,48.422z
		 M37.713,49.884l0.248,0.189l-0.419-0.215L37.713,49.884z M38.923,48.308l-0.094,0.455l-0.314,0.188L38.923,48.308z M44.676,49.567
		c0.022-0.009,0.038-0.016,0.07-0.028c0.152,0.303,0.19,0.115-0.087,0.157C44.679,49.633,44.68,49.595,44.676,49.567
		C44.443,49.654,44.656,49.435,44.676,49.567z M42.266,48.166c-0.32-0.238-0.568-0.271-0.801-0.145
		c-0.131,0.133-0.251,0.258-0.367,0.327c0.122-0.163,0.243-0.26,0.367-0.327c0.219-0.225,0.462-0.476,0.746-0.527
		C42.028,47.674,42.439,47.875,42.266,48.166z M43.13,48.284l0.418-0.531l-0.234,0.352L43.13,48.284z M45.26,46.417
		c0.108-0.003-0.364,0.072-0.458-0.064C44.878,46.364,45.296,46.335,45.26,46.417z M44.587,50.006l0.248,0.175
		c-0.27,0.102-0.433,0.139-0.568-0.041C44.386,50.198,44.423,50.042,44.587,50.006z M44.934,48.354
		c-0.028-0.086-0.051-0.167-0.041-0.229c0.009,0.098,0.068,0.169,0.141,0.229H44.934z M46.211,47.765l0.248,0.175l-0.419-0.199
		L46.211,47.765z M27.341,50.353c0.076,0.014,0.494-0.02,0.458,0.073C27.908,50.422,27.435,50.508,27.341,50.353z M26.986,56.776
		l0.18,0.097l-0.531-0.222L26.986,56.776z M27.199,54.15c0.02-0.072,0.021-0.114,0.017-0.146c-0.233,0.099-0.021-0.15,0,0
		c0.022-0.01,0.04-0.015,0.07-0.032C27.438,54.316,27.476,54.104,27.199,54.15z M33.75,48.607c-0.079-0.165-0.027,0.458-0.167,0.354
		C32.817,49.232,33.907,48.091,33.75,48.607z M36.194,48.694c-0.104-0.077-0.176-0.183-0.38-0.158l0.422-0.126
		C36.104,48.418,36.184,48.581,36.194,48.694z M36.304,48.353c0.076,0.014,0.494-0.019,0.458,0.07
		C36.871,48.419,36.398,48.501,36.304,48.353z M37.56,50.183c-0.089-0.02-0.182-0.009-0.272,0.01
		C37.45,50.135,37.595,49.955,37.56,50.183z M37.167,50.206c0.018,0.005,0.034,0.002,0.053,0c-0.296,0.075-0.56,0.213-0.594-0.192
		C36.939,49.826,37.253,49.639,37.167,50.206z M35.769,52.46c0.119,0.063,0.156-0.105,0.32-0.146l0.248,0.189
		C36.068,52.614,35.905,52.654,35.769,52.46z M35.949,54.485l0.18,0.093l-0.531-0.212L35.949,54.485z M36.162,51.979
		c0.02-0.068,0.021-0.109,0.017-0.139c-0.233,0.094-0.021-0.145,0,0c0.022-0.01,0.04-0.015,0.07-0.031
		C36.401,52.137,36.439,51.934,36.162,51.979z M35.619,50.353h-0.167c-0.112-0.06-0.211-0.087-0.278-0.015
		C35.287,50.215,35.488,50.26,35.619,50.353z M35.168,50.344c-0.002,0.002-0.003,0.007-0.005,0.009l0,0
		C35.166,50.351,35.167,50.347,35.168,50.344z M35.865,55.421c-0.225-0.11-0.475-0.233-0.526-0.378
		c0.179,0.093,0.381-0.115,0.672-0.027C35.772,55.178,35.74,55.304,35.865,55.421c0.133,0.066,0.258,0.128,0.328,0.187
		C36.029,55.545,35.933,55.483,35.865,55.421z M36.752,54.173c-0.002,0.029-0.005,0.058-0.007,0.083l0.014-0.003
		c-0.021,0.104-0.032,0.158-0.037,0.181c0.004-0.026,0.012-0.089,0.023-0.178l-0.427,0.082
		C36.42,54.221,36.661,54.189,36.752,54.173l0.002-0.021C36.808,54.16,36.794,54.165,36.752,54.173z M36.567,53.607
		c-0.194,0.014-0.447,0.089-0.599,0.077c0.225-0.009,0.32-0.146,0.424-0.218L36.567,53.607c0.167-0.013,0.292,0.021,0.261,0.209
		L36.567,53.607z M36.753,52.586l0.105,0.098C36.661,52.629,36.685,52.603,36.753,52.586l-0.222-0.209
		c0.149,0.089,0.353,0.13,0.142,0.113C37.1,52.556,36.869,52.559,36.753,52.586z M36.64,52.26c-0.1-0.363,0.402-0.416,0.5-0.054
		C36.894,52.016,36.796,52.153,36.64,52.26z M38.37,50.353c0.015-0.067,0.015-0.139-0.023-0.217
		c0.089,0.066,0.138,0.146,0.184,0.217H38.37z M39.183,50.353c0.085-0.298-0.551-0.542-0.684-0.731
		c0.435-0.233,0.435-0.394,0.447-0.566c-0.012-0.025-0.025-0.054-0.037-0.077l0.046,0.004c0.017-0.107,0.067-0.226,0.241-0.368
		v0.383l-0.241-0.015l-0.009,0.073c0.092,0.183,0.179,0.401,0.25,0.632v0.666H39.183z M44.363,52.87
		c-0.225-0.102-0.476-0.216-0.527-0.349c0.18,0.086,0.381-0.106,0.672-0.025C44.269,52.646,44.237,52.762,44.363,52.87
		c0.133,0.062,0.258,0.117,0.327,0.172C44.527,52.984,44.43,52.928,44.363,52.87z M45.25,51.72
		c-0.002,0.026-0.004,0.053-0.006,0.076l0.014-0.003c-0.021,0.096-0.033,0.146-0.037,0.167c0.003-0.024,0.012-0.082,0.023-0.164
		l-0.428,0.076C44.917,51.764,45.158,51.734,45.25,51.72l0.002-0.02C45.306,51.708,45.292,51.712,45.25,51.72z M45.326,51.391
		l-0.262-0.193c-0.193,0.014-0.447,0.083-0.599,0.072c0.226-0.009,0.321-0.135,0.425-0.201l0.174,0.129
		C45.232,51.187,45.356,51.218,45.326,51.391z M46.149,50.378l0.007,0.061l-0.555-0.378L46.149,50.378z M46.204,49.024
		c0.199-0.192-0.183-0.547-0.273-0.819l0.574,0.102l-0.162,0.037C46.088,48.567,46.917,48.905,46.204,49.024z M28.387,20.185
		c0.001-0.073,0.056-0.153,0.146-0.187l0.061,0.216c-0.024,0.068-0.078,0.028-0.102,0.096c-0.032-0.008-0.047-0.025-0.064-0.042
		c-0.002,0.004-0.005,0.008-0.007,0.012c-0.034,0.008-0.065,0.017-0.1,0.024L28.387,20.185z M23.537,22.819l-0.038,0.281
		l-0.24-0.572C23.369,22.659,23.418,22.759,23.537,22.819z M22.77,23.333c0.319,0.009,0.098,0.269,0.145,0.435
		C22.58,23.965,22.814,23.502,22.77,23.333z M23.831,32.604l0.108-0.102c0.011,0.066,0.06,0.145,0.085,0.182
		C23.949,32.693,23.892,32.651,23.831,32.604z M24.048,32.4l0.177-0.165c0.076,0.131,0.11,0.277,0.084,0.447
		C24.224,32.562,24.192,32.407,24.048,32.4z M24.348,48.157c0.004,0.093,0.194-0.065,0.271-0.115
		c0.072-0.042,0.097,0.006,0.134,0.311h-0.539L24.348,48.157z"/>
	<path fill="#EC1C24" d="M28.475,52.458l0.185,0.037c0.01-0.002,0.014-0.007,0.023-0.01C28.595,52.466,28.531,52.459,28.475,52.458z
		"/>
	<path fill="#EC1C24" d="M27.694,54.432c0.131-0.019,0.261-0.058,0.36-0.112C27.903,54.257,27.811,54.345,27.694,54.432z"/>
	<path fill="#EC1C24" d="M14.288,43.174c0.284-0.065-0.028-0.243-0.129-0.333C14,42.993,13.735,43.072,14.288,43.174z"/>
	<path fill="#EC1C24" d="M11.97,36.145v0.236c0.076,0.023,0.148,0.046,0.231,0.071c0.133-0.06,0.268-0.12,0.395-0.177
		C12.38,36.199,12.163,36.144,11.97,36.145z"/>
	<path fill="#EC1C24" d="M12.998,35.829c-0.124,0.105-0.143,0.2-0.103,0.285C13.078,35.998,13.157,35.896,12.998,35.829z"/>
	<path fill="#EC1C24" d="M11.97,36.55c0.035-0.015,0.063-0.026,0.1-0.042c-0.035-0.022-0.065-0.043-0.1-0.064V36.55z"/>
	
		<line fill="none" stroke="#FFFFFF" stroke-width="0" stroke-linecap="round" stroke-linejoin="round" x1="14.345" y1="45.192" x2="14.458" y2="45.322"/>
	
		<line fill="none" stroke="#FFFFFF" stroke-width="0" stroke-linecap="round" stroke-linejoin="round" x1="13.585" y1="36.893" x2="13.865" y2="36.642"/>
	<path fill="none" stroke="#FFFFFF" stroke-width="0" stroke-linecap="round" stroke-linejoin="round" d="M25.324,20.325
		c-0.029-0.097-0.029-0.162-0.019-0.218"/>
	<path fill="none" stroke="#FFFFFF" stroke-width="0" stroke-linecap="round" stroke-linejoin="round" d="M16.662,28.903
		c-0.013-0.053-0.022-0.107-0.047-0.179"/>
	<path fill="#EC1C24" d="M36.888,55.781c0.007,0.027,0.006,0.043,0.012,0.067c0.049-0.008,0.078-0.023,0.119-0.034
		C36.975,55.803,36.937,55.789,36.888,55.781z"/>
	<path fill="#EC1C24" d="M36.607,56.756l0.097,0.082c-0.026-0.056-0.058-0.119-0.081-0.188c-0.08-0.027-0.168-0.071-0.27-0.15
		c0.016-0.007,0.027-0.012,0.042-0.019c-0.051,0.006-0.095-0.003-0.151,0.014l0.061,0.229L36.607,56.756z"/>
	<path fill="#EC1C24" d="M36.695,56.883l-0.381-0.122l0.057,0.216C36.481,56.936,36.588,56.909,36.695,56.883z"/>
	<polygon fill="#EC1C24" points="36.653,55.756 36.654,55.758 36.66,55.757 	"/>
	<path fill="#EC1C24" d="M36.912,56.743l-0.074,0.103c0.037-0.007,0.064-0.008,0.099-0.013
		C36.927,56.803,36.922,56.772,36.912,56.743z"/>
	<path fill="#EC1C24" d="M36.88,56.247l-0.024,0.199c0.249-0.015,0.584-0.1,0.644-0.265l-0.382-0.067l0.296-0.07
		c0.006-0.221-0.372-0.024-0.498-0.104c0.015,0.103,0.016,0.186-0.025,0.247l0.049,0.09L36.88,56.247z"/>
	<path fill="#EC1C24" d="M36.886,55.781c-0.051-0.009-0.103-0.017-0.162-0.02C36.775,55.801,36.797,55.905,36.886,55.781z"/>
	<path fill="#EC1C24" d="M36.714,55.753c0.031-0.021-0.001-0.015-0.055,0.004l0.064,0.005C36.722,55.759,36.72,55.754,36.714,55.753
		z"/>
	<polygon fill="#EC1C24" points="45.15,53.179 45.152,53.181 45.157,53.18 	"/>
	<path fill="#EC1C24" d="M45.212,53.176c0.031-0.019-0.002-0.014-0.056,0.004l0.064,0.005
		C45.219,53.182,45.217,53.178,45.212,53.176z"/>
	<path fill="#EC1C24" d="M45.883,53.335c-0.147-0.043-0.295-0.103-0.497-0.133c0.049,0.186,0.062,0.291,0.001,0.375l0.013,0.021
		C45.674,53.555,45.812,53.458,45.883,53.335z"/>
	<path fill="#EC1C24" d="M45.383,53.202c-0.05-0.008-0.103-0.016-0.162-0.018C45.272,53.22,45.294,53.316,45.383,53.202z"/>
	<path fill="#EC1C24" d="M45.503,54.898c-0.003-0.034-0.007-0.068-0.012-0.102C45.484,54.831,45.488,54.865,45.503,54.898z"/>
	<path fill="#EC1C24" d="M45.396,54.046c-0.024,0.006-0.054,0.013-0.077,0.018l0.004-0.021c-0.03-0.002-0.066-0.013-0.099-0.019
		c0.026,0.044,0.115,0.112,0.086,0.15c0.126-0.003,0.281-0.025,0.414-0.068C45.607,54.058,45.502,54.05,45.396,54.046z"/>
	<path fill="#EC1C24" d="M45.978,53.938c0.004-0.007,0.015-0.012,0.018-0.02l-0.383-0.063l0.297-0.067
		c0.006-0.233-0.445,0.008-0.516-0.147l-0.017-0.008l-0.055,0.41l0.073,0.004C45.565,54.006,45.767,53.969,45.978,53.938z"/>
	<path fill="#EC1C24" d="M44.997,56.367c0.085-0.003,0.17-0.01,0.255-0.005l0.018-0.287c-0.021,0.01-0.05,0.013-0.07,0.024
		c0.028,0.015,0.022,0.014-0.008,0.005l-0.024,0.012c-0.053,0.034-0.098,0.073-0.129,0.116
		C45.009,56.275,44.994,56.32,44.997,56.367z"/>
	<path fill="#EC1C24" d="M54.009,58.636l0.171-0.039c-0.114-0.06-0.217-0.118-0.271-0.177L54.009,58.636z"/>
	<path fill="#EC1C24" d="M48.553,58.751c0.114,0.105,0.225,0.218,0.365,0.296c-0.062-0.115-0.141-0.291-0.114-0.435
		C48.724,58.641,48.639,58.691,48.553,58.751z"/>
	<path fill="none" stroke="#FFFFFF" stroke-width="0" stroke-linecap="round" stroke-linejoin="round" d="M45.038,56.232
		c0.031-0.043,0.076-0.082,0.129-0.116"/>
	<path fill="#EC1C24" d="M58.088,59.223c-0.843-0.049-1.757-0.009-2.18-0.173h-1.206c0.016-0.165-0.223-0.297-0.454-0.417
		c0.024,0.129-0.163,0.196-0.298,0.303c-0.236,0.068-0.41-0.037-0.345-0.209l0.051-0.012c-0.02-0.057,0.015-0.127-0.319-0.188
		c0.266-0.125,0.124-0.232,0.045-0.336c-0.677,0.452-1.121,1.1-1.119,1.726c0.462-0.247,1.386-0.741,1.528-0.13
		c-0.462,0.248-1.258,0.398-1.299,0.794c-0.478-0.708,0.871-0.21,0.244-0.8c-0.324,0.017-0.463,0.248-0.613,0.368
		c0.216-0.293-0.291-0.493-0.388-0.658c-1.05-0.006-1.654-0.315-2.78-0.377c0.038,0.067,0.051,0.084-0.021-0.001l0.021,0.001
		c-0.01-0.017-0.022-0.041-0.035-0.064h-0.151c-0.034-0.064-0.078-0.111-0.344-0.004c0,0.001,0.002,0.002,0.003,0.004H48.33
		c-0.021-0.018-0.041-0.035-0.061-0.053c-0.4,0.405-0.736,1.003-0.594,1.309c-0.646,0.03-0.68-0.305-1.229-0.11
		c0.876,0.634-0.172-0.105-0.266,0.576c-0.562,0.083-0.196-0.329-0.455-0.485c-0.093,0.072-0.316,0.299-0.331,0.482
		c0.062,0.092,0.155,0.18,0.322,0.249c-0.256-0.031-0.332-0.131-0.322-0.249c-0.304-0.453,0.438-1.148,0.353-1.719h-0.231
		c0.007-0.191-0.12-0.378-0.212-0.559c-0.462-0.354-1.154-0.746-1.219-0.785c-0.268,0.576-0.189,2.949,0.212,3.717
		c-0.043,0.397-0.531-0.425-0.777-0.468c-0.713-0.642-1.088,0.502-1.681,0.249l0.451-0.359c-0.098-0.164-0.971,0.047-1.108,0.278
		c-0.022-0.225,0.451-1.153,0.181-1.421c-1.066-0.119-2.077,1.118-2.011,1.789l1.634-0.696c0.058,0.56-1.16,0.562-1.093,1.234
		l-1.504-0.199c0.19-0.019,0.771-0.178,0.542-0.486c-0.646,0.029-0.335-0.098-0.766-0.358c0.74-0.71,2.097-2.533,2.58-3.4
		l-0.776,0.375l-0.194-0.329c-0.199,0.087-0.392,0.255-0.578,0.451v0.968h-0.712c-0.429,0.719-0.759,1.487-0.901,1.795
		c-0.582-0.142-0.378-1.339-0.24-1.571c-1.143-0.059-1.129,1.692-2.281,1.522l0.433,0.261c-0.272,0.111-1.261-0.129-1.155,0.091
		c-0.229-0.317-0.438-1.068-0.183-1.271l-1.021,1.124c0.15-0.119,0.052-1.078,0.116-1.25c-0.41-0.036-0.698,1.109-0.439,1.266
		c-0.8-0.693-0.602-0.314-1.251-1.128c-0.237,0.066,0.021,1.019,0.194,1.123c-0.534,0.258-0.849,0.136-1.103,0.032
		c-0.01,0.005-0.017,0.017-0.027,0.021l-0.008-0.036c-0.278-0.114-0.487-0.181-0.854,0.359l0.569-1.61l0.285,1.251l0.035,0.016
		c0.884-0.413,0.241-2.152,0.408-2.883l-1.901,2.861c0.064-0.172,0.214-1.087,0.204-1.197c-0.159,0.851-2.339,0.962-3.404,0.844
		l0.16-0.007c0.216-0.293-0.701-0.53-1.076-0.231c0.063-0.171,0.149-0.119,0.311-0.127c-0.713-0.641-0.925,1.289-1.65,0.535
		c0.658,0.081,0.787-0.262,0.754-0.599c-0.539,0.308-1.788-0.027-1.526,0.975c-0.347-0.21-0.657-0.083-0.628-0.59l-1.324,0.597
		c0.099-0.103,0.184-0.398-0.204-0.467c0.743,0.133,1.462-0.802,1.853-0.146c0.02-0.62-0.26-0.951,0.096-1.474
		c-1.433,0.294-2.218,1.351-3.121,2.068c0,0-0.315-0.111-0.631-0.223c-0.187-0.056-0.269-0.112-0.326-0.153
		c-0.068-0.042-0.114-0.07-0.114-0.07l0.007,0.283c0,0-0.055-0.178-0.108-0.356c-0.064-0.178-0.128-0.356-0.128-0.356
		c-0.076,0.163-0.096,0.305-0.134,0.237c-0.034-0.063-0.035-0.158-0.019-0.264c-0.081,0.036-0.143,0.1-0.158,0.173
		c0.036,0.091,0.073,0.181,0.126,0.263c-0.108-0.088-0.144-0.182-0.126-0.263c-0.157-0.374-0.144-0.805,0.004-1.193l-0.135-0.132
		c-0.519,0.467-0.634,1.035-0.07,1.516c0.01,0,0.382,0.28,0.372,0.28c-0.141-0.089-0.266-0.183-0.372-0.28
		c0.022,0-0.669-0.42-0.691-0.42c-0.073,0.584-0.036,0.587-0.122,0.867c0.059,0.06,0.13,0.198,0.221,0.355
		c-0.248-0.192-0.458-0.535-0.64-0.604c0.4,0.576,0.167,0.564-0.079,0.666c-0.245,0.081-0.503,0.222-0.15,0.412
		c0.174,0.443,0.615,0.364,0.813,0.597c-0.078-0.025-0.235-0.081-0.248-0.027c0,0.018,0.511,0.291,0.511,0.273
		c-0.183,0.071-0.354-0.23-0.574-0.003c0.096,0.074,0.184,0.3,0.259,0.491c0.074,0.188,0.135,0.362,0.176,0.531
		c0.083,0.339,0.087,0.659-0.035,1.036c0.121,1.071,1.017-0.459,0.915,0.446c-0.417,0.133-0.913,0.25-0.976,0.815
		c0.287,0.299,0.613,0.259,0.798,0.766l-0.64-0.032c0.027,0.47,0.146,0.845-0.337,0.849c0.273,0.384,0.225,0.648,0.122,0.849
		c0.338,0.712,1.298-0.523,1.549-0.69c-0.48,0.7-0.201,1.184-0.972,1.583l-0.173-0.619c-0.791,1.322,0.906,1.254-0.449,1.866
		c0.05-0.453-0.291-0.996-0.644-0.729l0.329,0.656c-0.17,0.077-0.119-0.375-0.313-0.074c0.14,0.187,0.47,0.57,0.683,0.739
		l0.195,0.045c-0.009,0.076-0.088,0.041-0.195-0.045l-0.04-0.009l0.108,1.185c0.025-0.226-0.21-0.28-0.236-0.055l0.336,0.776
		c0.04,0.058,0.078,0.136,0.112,0.257l-0.112-0.257c-0.161-0.237-0.358,0.006-0.463,0.354c-0.193,1,1.439,0.801,0.789,1.577
		c0.014-0.113-0.066-0.132-0.053-0.246l-0.286,0.399c1.356,0.084,0.138,2.352,1.496,2.438c-0.548,0.568-0.327,0.04-0.969-0.691
		l-0.39,0.605c-0.053-0.245,0.052-0.452-0.08-0.715c-0.572,0.795,0.148,1.543,0.503,1.973c-0.196,0.304-1.02-0.238-0.796,0.626
		c0.266,1.222,0.992-0.231,1.151,0.502l-0.703,0.532c0.538,0.937,0.057,1.637-0.032,2.427c0.057,0.179,0.129,0.267,0.205,0.311
		l0.006-0.027l0.081,0.055c0.217,0.037,0.439-0.168,0.442,0.299l-0.442-0.299c-0.028-0.004-0.058-0.013-0.087-0.027
		c-0.152,0.396,0.02,0.914,0.201,1.223c0.181,0.101,0.371,0.102,0.256,0.186c-0.145,0.006-0.443,0.221-0.613,0.333
		c0.131,0.052,0.262,0.07,0.394,0.056c0.011,0.005,0.043-0.005,0.074-0.015c-0.04,0.014-0.077,0.027-0.111,0.039
		c-0.206,0.057-0.56,0.254-0.903,0.417c0.021,0.07,0.082,0.091,0.146,0.096c0.119-0.027,0.228-0.063,0.298-0.063
		c-0.181,0.081-0.396,0.151-0.48,0.313c0,0,0.302-0.059,0.55-0.139c0.254-0.079,0.454-0.179,0.454-0.179
		c0.022-0.064,0.001-0.102-0.02-0.129c0.111,0.04,0.387-0.124,0.365,0.223c-0.071,0.139-0.187,0.25-0.274,0.384
		c0.072-0.45-0.167-0.138-0.459,0.07c0.431,0.099,0.029,0.122,0.094,0.457c0.289,0.101,0.82-0.264,0.781-0.646
		c0.555,0.389,0.71,0.564,1.487,0.438l-0.323,0.462l0.639,0.07l-0.715,0.434c0.963,0.789,0.553-0.792,1.662-0.013l-0.176,0.448
		c0.539,0.018,1.004-0.672,1.155,0.011c0.565-0.087-0.528-0.945,0.583-0.605c0.096,0.307,0.436,0.64,0.708,0.854
		c0.426-0.066-0.048-0.636-0.292-0.662c1.706,0.44,0.392,1.935,2.076,1.927c-0.367-0.521,0.762-0.699-0.418-1.157
		c0.668-0.04,0.844,1.091,1.624,0.839l-0.61,0.418c0.206,0.096,0.526-0.018,0.669-0.041l-0.225,0.422
		c1.032-0.483,1.196,0.906,2.032,0.066c-0.618,0.676,0.558,0.17,0.72,0.595c-0.819,0.322-1.698-0.699-2.073,0.005
		c0.188,0.334,0.58,0.072,0.76,0.396c0.216-0.032,0.325-0.02,0.033,0.058c-0.01-0.024-0.023-0.039-0.033-0.058
		c-0.23,0.034-0.58,0.119-0.711,0.239c0.746,0.783,1.611,0.133,2.244,0.163l-1.047-0.223c0.374-0.703,0.49,0.052,0.996-0.414
		c0.331,0.591,0.943,0.173,1.245,0.576c-0.104-0.047-0.14,0.022-0.244-0.024c1.073,0.41,0.89,1.727,1.306,1.918
		c0.378,0.263,1.328,0.179,1.167-0.247c0.423-0.067-1.505-0.35-0.513-1.057c0.167,1.345,1.418,0.091,2.442,1.376
		c-0.737,0.157,0.093,0.757-0.544,0.844c0.668,0.165,0.757,0.011,1.164-0.188l0.052,0.42c0.294-0.105,0.452-0.204,0.523-0.299
		c0.086-0.089,0.132-0.157,0.18-0.21c0.09-0.11,0.219-0.152,0.518-0.271c-0.243,0.214,0.237,0.673,0.064,0.886l0.048,0.022
		c0.208-0.078,0.403-0.276,0.488-0.532l-0.016,0.063c0.19-0.128,0.255-0.147,0.448-0.194c0.186-0.044,0.33-0.047,0.47-0.055
		c0.278-0.016,0.532-0.052,1.032-0.475l-0.198-0.162c1.286-1.165,3.34-1.57,4.801-2.456l-0.619,0.052
		c0.21,0.038,0.922-0.752,1.539-0.624c0.047-0.029,0.082-0.04,0.096,0.018c-0.03-0.013-0.063-0.009-0.096-0.018
		c-0.09,0.06-0.221,0.22-0.322,0.229c0.107,0.228,0.435,0.495,0.834,0.403l0.002-0.413l0.263,0.214
		c0.575-0.224-0.372-0.44,0.203-0.665c0.741,0.883,2.521-0.854,3.373-0.158c0.095-0.892-1.126,0.329-0.967-0.509
		c0.219,0.04,0.353,0.146,0.749,0.056l-0.305-0.389c1.833-0.445,2.646-0.335,4.15-1.048l-0.023,0.119
		c0.617-0.05,0.882-0.248,0.975-0.728c0.196,0.16-0.157,0.425,0.129,0.521c0.516-1.517,2.266,0.05,2.54-0.975
		c0.126,0.415,0.521,0.711,0.894,0.994l1.234-0.495V68.06c-0.006-0.052-0.005-0.104-0.043-0.154
		c0.012-0.043,0.028-0.054,0.043-0.079v-0.785c-0.009-0.012-0.023-0.018-0.03-0.03c0.013-0.017,0.019-0.033,0.03-0.05v-0.908
		c-0.099-0.125-0.229-0.211-0.367-0.226c0.095-0.16,0.255,0.015,0.367,0.033v-0.062l-0.227-0.553c0.082-0.018,0.156-0.013,0.227,0
		v-4.319c-0.142,0.012-0.271-0.145-0.399-0.201C58.003,60.278,58.06,59.745,58.088,59.223z M39.24,58.148l0.105-0.07l-0.142,0.239
		L39.24,58.148z M18.591,78.569c-0.025,0.226,0.105,0.49,0.081,0.715C17.941,79.346,18.697,79.06,18.591,78.569z M58.254,62.787
		l-0.036,0.411l-0.105,0.172L58.254,62.787z M54.31,60.101c0.468,0.142-0.016,0.284-0.117,0.455
		C53.387,60.595,54.247,60.272,54.31,60.101z M55.681,59.574c0.019,0.165-0.017,0.277,0.068,0.381l-0.32,0.24L55.681,59.574z
		 M54.148,58.996c-0.018,0.008-0.027,0.013-0.041,0.019c0.017,0.011,0.044,0.023,0.063,0.035h-0.116
		c0.013-0.012,0.027-0.023,0.053-0.035C53.997,58.944,53.968,58.904,54.148,58.996z M52.961,58.947
		c0.858,0.122-0.05-0.22,0.284-0.337c0.3,0.12,0.298,0.293,0.317,0.439h-0.229C53.261,59.014,53.158,58.979,52.961,58.947z
		 M45.377,59.05h-0.21c0.039-0.042,0.082-0.085,0.15-0.134C45.523,58.938,45.489,58.986,45.377,59.05z M44.873,58.288l0.023,1.019
		l-0.161,0.008L44.873,58.288z M36.78,60.971c0.038-0.042,0.1-0.091,0.231-0.154C36.929,60.882,36.852,60.931,36.78,60.971
		c-0.182,0.208,0.552,0.216,0.375,0.457c-0.681-0.305-0.106,0.567-0.859,0.323C36.086,61.081,36.325,61.225,36.78,60.971z
		 M18.253,67.168l0.156,0.037l-0.364,0.379C18.072,67.356,18.084,67.243,18.253,67.168z M17.923,73.772l-0.573,0.099l0.587-0.212
		L17.923,73.772z"/>
	<path fill="#EC1C24" d="M17.749,59.05c0.038,0.035,0.073,0.063,0.111,0.1c0.039-0.035,0.071-0.065,0.108-0.1H17.749z"/>
	<path fill="#EC1C24" d="M19.167,60.077c-0.2-0.124-0.414-0.142-0.52-0.103C18.796,60.157,19.055,60.236,19.167,60.077z"/>
	<path fill="#EC1C24" d="M17.995,59.281c0.136,0.134,0.262,0.269,0.376,0.395c0.094-0.216,0.191-0.433,0.178-0.626h-0.255h-0.201
		C18.059,59.126,18.025,59.198,17.995,59.281z"/>
	<path fill="#EC1C24" d="M17.231,69.203c0.284-0.128-0.028-0.478-0.129-0.652C16.943,68.85,16.678,69.004,17.231,69.203z"/>
</g>
</svg>
