<?xml version="1.0" encoding="utf-8"?>
<!-- Generator: Adobe Illustrator 16.0.3, SVG Export Plug-In . SVG Version: 6.00 Build 0)  -->
<!DOCTYPE svg PUBLIC "-//W3C//DTD SVG 1.1//EN" "http://www.w3.org/Graphics/SVG/1.1/DTD/svg11.dtd">
<svg version="1.1" id="Layer_8" xmlns="http://www.w3.org/2000/svg" xmlns:xlink="http://www.w3.org/1999/xlink" x="0px" y="0px"
	 width="72px" height="100px" viewBox="0 0 72 100" enable-background="new 0 0 72 100" xml:space="preserve">
<g>
	<path fill="#EC1C24" d="M52.745,75.133c-0.039-0.333-0.107-0.656-0.166-0.982c0.362-0.3,0.738-0.633,1.172-0.708
		c-0.484-0.214-0.27-0.675-0.146-1.204c0.129-0.521,0.169-1.119-0.586-1.393c0.103-0.286,0.357,0.076,0.522-0.118
		c-0.48-0.11-0.669-0.366-0.742-0.986l0.121,0.021c-0.361-0.726-0.707-1.417-0.656-1.682c-0.097-0.589-0.166-1.217-0.376-2.084
		L51.5,66.298c-0.085-0.373,0.022-0.503,0.063-0.712c-0.829-0.123,0.369,0.995-0.516,0.933c0.707-0.835-1.016-2.444-0.152-3.189
		c-0.229-0.533-0.433,0.377-0.661-0.155l0.208-0.261l-0.409,0.022c-0.097-0.371,0.162-0.698,0.385-0.815
		c0.011,0.096,0.172,0.211,0.232,0.292c0.117-0.596-0.684-1.219-0.651-1.419l0.067,0.583c-0.908-1.321-1.386-3.229-2.601-4.328
		l-0.15,0.202c-0.884-0.855-0.189-0.942-0.932-1.993l0.068,0.017c-0.313-0.127-0.567-0.378-0.702-0.7
		c0.379,0.167,0.179-0.77,0.628-0.526c-0.968-0.917-0.595-0.395-1.712-0.749l0.241-0.34c-0.428-0.096-0.595-0.035-0.974-0.55
		c0.523,0.313,0.313-0.621,0.957-0.3c0.099-1.56-1.647-1.363-0.888-2.461c-1.193-0.054,0.04,1.285-0.315,1.086
		c-0.162,0.41-0.914-0.083-1.02-0.498c-0.18-0.384,0.817-1.258,0.288-2.19c0.047,0.096,0.119,0.065,0.166,0.161
		c0.031-0.388-0.436-0.493-0.541-0.858l-0.015-0.219c0.001-0.013,0-0.024,0.002-0.037c0.103,0.046,0.194,0.267,0.338,0.196
		c-0.342-0.205-0.489-0.759,0.062-0.938c-0.072-0.304-0.65-0.524-1.263-0.651c-0.029-0.062-0.051-0.128-0.072-0.199
		c-0.044-0.147-0.085-0.307-0.184-0.443c-0.069-0.095-0.172-0.182-0.348-0.277c0.05-0.063,0.092-0.148,0.127-0.257l0.091-0.04
		c-0.018-0.014-0.045-0.031-0.068-0.047c0.021-0.076,0.042-0.143,0.065-0.245c0.363,0.258,0.402,0.67,0.917,0.628
		c0.134-0.436-0.224-0.424-0.304-0.737c-0.155,0.707-0.153-0.273-0.565,0.122c-0.008-0.061-0.005-0.114-0.002-0.167
		c0.055,0.011,0.095,0.02,0.095,0.02c-0.037-0.021-0.061-0.052-0.093-0.076c0.006-0.061,0.017-0.117,0.029-0.171
		c-0.035,0.037-0.079,0.066-0.117,0.1c-0.292-0.263-0.409-0.644-0.513-1.072c-0.001-0.004-0.002-0.008-0.003-0.012
		c0.041-0.032,0.08-0.064,0.135-0.095c-0.058-0.055-0.12-0.08-0.181-0.091c-0.11-0.451-0.243-0.919-0.53-1.167
		c0.46,0.789,0.46,1.034,0.342,1.165c-0.117,0.011-0.221,0.025-0.284-0.072c-0.007,0.079,0.017,0.164,0.049,0.25
		c-0.094,0.081-0.163,0.205-0.122,0.481c-0.737-0.652-0.665-1.146-0.646-1.838c0.031-0.667,0.017-1.52-0.745-2.583
		c0.229,0.253,0.573,1.539,0.185,1.313c-0.2-0.536-0.463-1.339-0.545-1.967c-0.486-0.712-0.478-0.46-0.422-0.082
		c0.058,0.383,0.153,0.876-0.069,0.79c-0.124-1.338-0.488-0.352-0.844-0.587l0.082-0.802c-0.923-2.132-0.355,1.358-1.106-0.616
		c-0.011-0.018,0.349-0.713,0.36-0.695l-0.446-0.406l0.086-0.916c-0.507-0.052-0.632-0.463-1.167-1.64
		c0.09,0.476,0.11,0.929,0.065,1.199c-0.022,0.135-0.06,0.224-0.116,0.243c-0.028,0.01-0.06,0.002-0.097-0.027
		c-0.018-0.008-0.041-0.048-0.058-0.045c-0.015,0.011-0.032,0.017-0.05,0.019c-0.207-0.523-0.128-0.861-0.221-1
		c-0.025,0.02-0.073,0.181-0.165,0.565c-0.017-0.623-0.033-1.354,0.032-1.668c0.063,0.029,0.148,0.198,0.275,0.676
		c-0.013-0.324,0.065-0.476,0.061-0.781c-0.079-0.249-0.165-0.482-0.244-0.647c-0.071-0.131-0.147-0.239-0.222-0.326
		c-0.147,0.499-0.26,1.23-0.343,1.522c0.06-0.14,0.132-0.294,0.188-0.237c0,0-0.072,0.839-0.144,1.678
		c-0.058,0.789-0.116,1.577-0.116,1.577c-0.156-0.117-0.159-0.62-0.152-1.148c-0.086,0.478-0.061,1.176-0.19,1.757
		c-0.145-0.895-0.349-1.628-0.183-2.852l-0.336,2.68c-0.118-0.2-0.526,0.139-0.534-0.342c-0.223,0.353-0.315,1.34-0.401,2.256
		c-0.089,0.932-0.175,1.778-0.483,2.253c0.033,0.148,0.042,0.358,0,0.679c-0.217,0.536-0.507,0.969-0.755,1.521
		c-0.246,0.543-0.452,1.211-0.442,2.018c0,0-0.229,0.128-0.458,0.256c-0.234,0.135-0.476,0.308-0.465,0.274
		c-0.066,0.686,1.052-0.335,0.94,0.809c-0.047,0.822-0.664,0.083-0.939,0.281c0.036,0.085,0.08,0.186,0.123,0.292
		c-0.004,0.003-0.006,0.003-0.011,0.006l-0.343,0.275c0.149,0.107,0.168,0.242,0.142,0.385c0.085-0.171,0.2-0.356,0.277-0.499
		c0.152,0.42,0.23,0.917-0.156,1.277c0.003-0.026-0.008-0.044-0.001-0.072c-0.056-0.012-0.1-0.029-0.134-0.05
		c0.039-0.131,0.105-0.244,0.122-0.39l-0.171,0.122c-0.005-0.018-0.015-0.038-0.028-0.06c0.029-0.106,0.069-0.22,0.09-0.329
		c-0.06,0.117-0.103,0.224-0.11,0.297c-0.072-0.111-0.216-0.256-0.41-0.373l0.378-0.31c-0.013-0.011-0.019-0.022-0.034-0.032
		c0.061-0.238-0.243-0.042-0.501,0.206c-0.039-0.165-0.114-0.194-0.411-0.071c0.561-0.476-0.499-0.337,0.151-0.906
		c-0.419,0.054-0.699-0.785-1.53-0.556c0.099-0.05,0.122-0.126,0.175-0.026c-0.013-0.248,0.009-0.508-0.293-0.614l0.535-0.317
		l-0.951-0.183c0.238-0.424,0.399-0.607,0.95-0.487c-0.949-0.438-0.45-0.466-1.33-0.849l0.387-0.089
		c-0.081-0.209-0.697-0.408-0.424-0.633c0.567-0.678-0.539-2.479-0.059-3.894c-1.104,0.44,0.402-0.674-0.482-0.586
		c0.262-0.117,0.393-0.317,0.657-0.146c-0.354-0.618,0.307-1.029-0.51-1.391c0.266-0.105,0.42,0.094,0.574,0.009
		c-0.066-0.044-0.266-0.18-0.111-0.265c0.154-0.083,0.243,0.07,0.375,0.159c-0.125-0.649-0.956-0.644-1.76-0.621
		c0.349-0.384,0.283-0.546-0.258-0.763c0.25-0.142,0.507-0.36,0.634,0.058c0.007-0.245,0.28-1.474-0.342-1.476
		c0.16-0.082,0.039-0.338-0.037-0.4c0.024-0.542,0.081-0.59,0.006-1.121l-0.101,0.148c-0.782-0.208-0.172-0.445-0.254-0.876
		l0.079,0.014c0.582-0.972-0.255-0.439,0.404-1.385l-0.48,0.03c-1.042-0.147,0.665-0.832,0.313-1.413l-0.289,0.182
		c-0.327-0.345,1.463-0.739,1.616-1.016c0.096-0.056,0.132,0.117,0.193,0.215c0.688-0.711-0.617-0.165-0.689-0.768
		c0.351-0.067,0.838,0.237,0.951-0.141c0.307-0.144-0.966-1.289-0.206-1.715c-0.279,0.071-0.559,0.147-0.702-0.157
		c-0.011-0.442,1.175-0.927,0.441-1.465c0.083-0.037,0.154-0.042,0.218-0.03c-0.131-0.354-0.096-1.088-0.481-1.392
		c1.635,0.143-0.201-2.165,1.25-1.709c0,0,0.045-0.244,0.113-0.477c0.067-0.233,0.135-0.467,0.135-0.467l0.137,0.078
		c0.313-0.539,0.049-0.876-0.21-1.227c0.15-0.095,0.241,0.059,0.311,0.101c0.665-0.699,0.621-0.785,0.28-1.821l0.479,0.16
		c-0.133-0.321,1.264-0.75,1.275-1.72c0.042,0.039,0.11,0.108,0.131,0.203c0.012-0.576,0.651-0.8,1.089-1.017
		c0.428-0.256,0.726-0.4,0.228-1.198c0,0,0.145-0.764,0.165-0.744c-0.71,0.43-0.415-0.7-0.863-0.698
		c0.221-0.318,1.054-0.094,0.769,0.218l-0.106-0.035c0.46,0.844,1.007-0.346,1.334,0.264c0.612-0.353,1.296-0.507,1.907-0.417
		l0.445,0.045c0.145,0.037,0.285,0.097,0.421,0.134c0.136,0.048,0.272,0.055,0.404,0.113c0.131,0.064,0.26,0.118,0.393,0.161
		c0,0,0.023-0.184,0.045-0.368c0.018-0.186,0.035-0.371,0.035-0.371l0.424,0.166c0.049,0.215-0.076,0.564-0.339,0.467
		c-0.008,0.394,0.587-0.116,0.683-0.255c0.423,0.546-0.588,0.659-0.417,0.764l0.231,0.057l-0.008-0.1
		c0.305-0.163,0.502-0.481,0.814-0.205c0.128,0.275-0.147,0.451-0.084,0.532c-0.03,0.042-0.019,0.081,0.106,0.103
		c0,0,0.42,0.369,0.41,0.395c0,0,0.05-0.152,0.101-0.304c0.044-0.148,0.089-0.297,0.089-0.297c0.394-0.047,0.419,0.434,0.633-0.272
		c-0.178,0.561,0.221,0.956,0.575,1.441c0.195,0.221,0.386,0.438,0.54,0.611c0.134,0.197,0.22,0.357,0.195,0.459
		c0.57,0.108,0.837,0.445,1.033,0.941c0.041-0.174,0.558-0.579,0.719-0.127c-1.259,0.521-0.071,1.003-0.807,1.776
		c0.438-0.575,0.675,1.084,1.29,0.25c0.062,0.392-0.449,0.225-0.618,0.609c0.822,0.64,0.413,1.953,0.88,2.956
		c0.174-0.032,0.375-0.291,0.699-0.133c0,0-0.167,0.204-0.334,0.407c-0.171,0.201-0.342,0.401-0.342,0.401
		c0.135,0.189,1.029-0.062,0.536,0.487c0.13-0.092,0.325-0.232,0.416-0.099c-0.129,1.179,0.238,2.249,0.508,3.372
		c0.114,0.563,0.207,1.134,0.188,1.713c-0.042,0.582-0.207,1.173-0.563,1.756c0.316-0.325,0.366-0.126,0.397,0.107
		c0.069-0.157,0.434-0.023,0.669-0.067c0,0-0.15,0.248-0.299,0.496c-0.159,0.245-0.319,0.49-0.319,0.49
		c0.666,0.151,0.071,1.017,0.706,1.107l-0.122-0.303c0.757,0.401,1.644-0.608,2.603-0.586c-0.851-0.436,1.22-1.339-0.068-2.058
		c0.181-0.19,0.319,0.125,0.534,0.015c-0.425-0.171-0.529-0.403-0.381-0.87l0.105,0.042c-0.238-1.251,0.113-1.837,0.131-3.316
		l-0.447,0.186c0.006-0.314,0.14-0.405,0.23-0.57c-0.771-0.218,0.12,0.862-0.72,0.68c0.88-0.574-0.379-2.118,0.592-2.632
		c-0.109-0.471-0.5,0.265-0.607-0.202l0.257-0.196l-0.399-0.023c-0.013-0.318,0.307-0.569,0.546-0.646
		c-0.01,0.083,0.121,0.195,0.161,0.27c0.253-0.496-0.431-1.097-0.363-1.263l-0.037,0.5c-0.632-1.183-0.804-2.871-1.899-3.813
		l-0.164,0.179c-0.798-0.704-0.073-0.824-0.764-1.694l0.066,0.009c-0.303-0.085-0.54-0.279-0.662-0.548
		c0.362,0.109,0.184-0.71,0.611-0.542c-0.939-0.708-0.595-0.289-1.668-0.416l0.213-0.345c-0.416-0.002-0.551,0.074-0.95-0.285
		c0.538,0.148,0.223-0.616,0.882-0.48c-0.059-0.707-0.517-0.933-0.864-1.099c-0.346-0.176-0.647-0.266-0.436-0.896
		c-1.107,0.365,0.358,1.123-0.028,1.068c-0.077,0.4-0.861,0.223-1.043-0.081c-0.239-0.25,0.458-1.426-0.433-2.018
		c0.081,0.063,0.131,0.004,0.213,0.068c-0.186-0.44-0.779-0.164-1.02-0.739c-0.534,0.422-0.562-0.324-0.963,0.36l0.911,0.257
		c-0.29-0.034-0.648,0.102-0.983,0.159c-0.168,0.028-0.331,0.037-0.486-0.01c-0.167-0.024-0.326-0.1-0.488-0.266
		c0.107-0.135,0.416-0.26,0.631-0.315c-0.168-0.297-0.519,0.001-0.703-0.303c0.141-0.372,0.448-0.326,0.809-0.232
		c0.363,0.095,0.712,0.314,1.13,0.175c-0.128-0.443-1.262,0.016-0.654-0.641c-0.416,0.413-0.657,0.318-0.938,0.159
		c-0.28-0.139-0.606-0.385-1.055-0.004l0.13-0.462c-0.14,0.058-0.422,0.252-0.639,0.218c0,0,0.119-0.143,0.238-0.285
		c0.127-0.141,0.254-0.282,0.254-0.282c-0.694,0.454-1.257-0.615-1.93-0.233C34.428,7.3,34.5,7.456,34.478,7.645
		c-0.024,0.187-0.128,0.411,0.126,0.605c-0.74,0.319-0.945,0.073-1.25-0.271c-0.148-0.166-0.313-0.342-0.559-0.445
		c-0.217-0.079-0.502-0.065-0.876,0.078c0.293-0.06,0.819,0.097,0.542,0.375c-0.345-0.004-0.83-0.046-1.126-0.212
		c-1.065,0.543,0.33,0.367-0.016,0.834c-0.568-0.366-0.401,0.458-0.71,0.824L30.374,9.01c-0.648,0.148-0.547,0.443-0.474,0.673
		c0.08,0.242,0.176,0.46-0.346,0.605c0,0-0.009-0.2-0.018-0.399c-0.003-0.204-0.005-0.407-0.005-0.407l-0.358,0.47l-0.232-0.509
		c-0.282,0.692-0.457,0.727-0.994,1.025c0.33,0.156,0.539,0.694,0.2,1.038c-0.44,0.04-0.214-0.465-0.633,0.102
		c-0.13-0.323-0.275-0.722,0.279-0.629c-0.088-0.133-0.095-0.328-0.178-0.463c-0.254,0.018-0.457,0.176-0.598,0.358
		c-0.129,0.187-0.216,0.39-0.3,0.492c0.08-0.066,0.177-0.142,0.269-0.143c0,0-0.042,0.309-0.083,0.617
		c-0.034,0.301-0.067,0.602-0.067,0.602c-0.244,0.011-0.279-0.175-0.308-0.363c-0.089,0.197-0.024,0.436-0.15,0.706
		c-0.263-0.294-0.631-0.524-0.481-0.987c-0.03-0.002-0.231,1.062-0.232,1.062c-0.175-0.046-0.671,0.154-0.719-0.032
		c-0.538,0.343-0.061,1.531-0.661,1.987c0.049,0.068,0.078,0.166,0.055,0.322c-0.386,0.526-1.043,0.864-0.88,1.777l-0.817,0.129
		c-0.065,0.616,1.025-0.202,0.922,0.81c-0.035,0.721-0.651,0.024-0.921,0.184c0.204,0.458,0.671,1.239-0.044,1.662
		c-0.064-0.24,0.083-0.365,0.092-0.567l-0.514,0.34c-0.442-0.762-0.078-1.112-0.751-0.843c1.266,0.497-0.44,1.89,0.846,2.326
		l-0.353,0.23c0.034-0.085-0.04-0.12-0.005-0.203c-0.777,0.433,0.84,0.695,0.468,1.397c-0.166,0.238-0.403,0.381-0.516,0.164
		c0,0,0.188,0.664,0.188,0.664c-0.058,0.167-0.281,0.077-0.223-0.091l-0.064,0.929l-0.038-0.014c0.186,0.17,0.455,0.52,0.567,0.684
		c-0.234,0.193-0.121-0.139-0.298-0.11l0.232,0.551c-0.385,0.146-0.646-0.322-0.531-0.662c-1.415,0.244,0.235,0.468-0.674,1.367
		l-0.107-0.507c-0.804,0.198-0.578,0.62-1.127,1.115c0.268-0.11,1.344-0.941,1.607-0.341c-0.122,0.14-0.197,0.34,0.036,0.668
		c-0.48-0.056-0.4,0.25-0.419,0.615l-0.633-0.092c0.146,0.417,0.477,0.417,0.745,0.675c-0.097,0.43-0.598,0.482-1.022,0.555
		c-0.156,0.703,0.83-0.427,0.886,0.416c-0.297,0.566-0.059,0.999,0.314,1.702c-0.231,0.399-0.389-0.083-0.576,0.057l0.501,0.375
		c-0.015,0.087-0.17,0.056-0.249,0.04c0.19,0.307,0.638,0.04,0.8,0.512c0.689,0.124-1.038,0.97-0.215,1.551
		c-0.178,0.149-0.394-0.061-0.64-0.011c0.546,0.795,0.397,0.687,1.124,1.308l-0.376,0.582c0.448-0.44,1.056,0.051,1.555,0.456
		c0.221-0.159,0.414-0.293,0.504-0.379l0.396,0.67c-0.098,0.093-0.322,0.043-0.597-0.05c0.056,0.043,0.112,0.084,0.163,0.116
		c-0.216,0.272-0.593,0.178-0.964,0.024c0.121-0.094,0.248-0.193,0.373-0.29c-0.401-0.144-0.843-0.281-1.214-0.216
		c0.078,0.042,0.148,0.129,0.191,0.226c-0.108-0.039-0.205-0.062-0.267-0.035c-0.065,0.03,0.082,0.096,0.254,0.202l-0.697,0.228
		l0.285,0.016c0,0-0.092,0.251-0.185,0.503c-0.097,0.253-0.171,0.507-0.171,0.507c0.813,0.617,1.907,1.064,2.376,2.052
		c-0.564-0.173-0.853,0.084-1.466,0.173c0.582-0.396-0.4-0.794-0.346-1.383c-0.03,0.304-0.331,0.28-0.443,0.218l0.728,0.923
		c-0.504,0.058-0.335,0.273-0.493,0.573c0.95-0.367,0.795,0.63,1.172,0.973c-0.325,0.093-0.679,0.064-0.693-0.451
		c-0.629,0.701,1.27,0.476,0.771,1.131c-0.037-0.117-0.002-0.192-0.181-0.203c0.36,0.213,0.295,0.943-0.029,0.854l-0.036-0.118
		c0.045,0.411,0.175,1.025,0.444,1.509c0.274,0.483,0.636,0.84,1.059,0.767c-0.102,0.042-1.008,0.209-1.188,0.212
		c0,0,0.793,0.142,1.576,0.251c0.789,0.111,1.588,0.176,1.588,0.176c-0.733,0.128-2.187,1.2-2.82,0.692
		c-0.027,0.221-0.052,0.5,0.339,0.802c0.047-0.168,0.867-0.69,0.994-0.545c-0.58,0.76-0.287,0.476-0.7,1.325
		c0.065-0.249,1.208-0.48,1.306-0.19c-0.178,0.024-1.024,0.479-1.184,0.418c0,0,0.341,0.068,0.683,0.137
		c0.337,0.061,0.675,0.121,0.675,0.121c-0.265-0.09-0.879,0.371-1.087,0.676c0.167-0.174,0.266,0.653,0.492,0.79l0.065-0.425
		c0.298,0.897,1.827,0.032,2.185,0.793c-0.24,0.034-1.368,0.516-1.228,0.987c0.448-0.082,1.68-0.418,2.624-0.527
		c0.069,0.071,0.155,0.136,0.278,0.188l-0.394,0.245c0.048-0.094-0.021-0.137,0.027-0.229c-0.417,0.215-0.25,0.419-0.028,0.664
		c-0.133,0.025-0.266,0.05-0.402,0.07c-0.74,0.104-1.486,0.113-1.956,0.06c-0.016,0.44-0.266,0.3,0.063,0.729
		c-0.14,0.341-0.55,0.026-0.658-0.1c0,0,0.143,0.296,0.285,0.592c0.13,0.3,0.327,0.586,0.327,0.586
		c0.493-0.458,1.167,0.344,1.55-0.072c0,0-0.353-0.149-0.706-0.299c-0.355-0.156-0.717-0.327-0.717-0.327
		c0.453-0.376,1.695-0.527,2.252-0.065c-0.14,0.091-0.269,0.099-0.317-0.068l0.057,0.689c-0.065,0.041-0.132,0.08-0.199,0.117
		c-0.021-0.04-0.03-0.09,0.003-0.153l-0.048,0.178c-0.208,0.114-0.399,0.211-0.461,0.274c0.081-0.018,0.222,0.016,0.368,0.072
		l-0.142,0.526l-0.035-0.021c0.144,0.22,0.326,0.667,0.394,0.877c-0.282,0.187-0.084-0.182-0.268-0.177l0.089,0.68
		c-0.417,0.1-0.554-0.488-0.357-0.856c-1.468,0.029,0.14,0.59-1.042,1.421l0.048-0.588c-0.851,0.055-0.752,0.565-1.436,0.975
		c0.289-0.043,1.598-0.732,1.672-0.005c-0.164,0.132-0.298,0.338-0.176,0.766c-0.45-0.178-0.466,0.184-0.604,0.589l-0.582-0.27
		c-0.003,0.496,0.311,0.587,0.473,0.948c-0.255,0.453-0.756,0.358-1.187,0.308c-0.412,0.718,0.954-0.215,0.686,0.729
		c-0.493,0.536-0.442,1.078-0.421,1.985c-0.396,0.351-0.324-0.235-0.562-0.151l0.295,0.595c-0.054,0.09-0.183-0.004-0.249-0.052
		c0.034,0.408,0.572,0.287,0.5,0.875c0.578,0.433-1.415,0.629-0.985,1.595c-0.237,0.079-0.32-0.242-0.567-0.299
		c0.068,1.087-0.003,0.901,0.291,1.918L22.971,65.7c0.325-0.114,0.545,0.032,0.706,0.296c0.155,0.254,0.311,0.608,0.307,0.958
		c0.049,0,0.089-0.005,0.136-0.006c-0.044,0.056-0.084,0.115-0.128,0.172c-0.003-0.057-0.005-0.107-0.008-0.166
		c-0.053-0.001-0.11-0.002-0.165-0.003c0.039,0.091,0.073,0.171,0.109,0.255c-0.085,0.112-0.169,0.225-0.252,0.338
		c-0.163-0.11-0.284-0.323-0.373-0.575c0.169-0.013,0.347-0.021,0.515-0.019c-0.178-0.405-0.457-0.745-0.8-0.917
		c0.043,0.069,0.049,0.162,0.026,0.249c-0.061-0.093-0.125-0.164-0.188-0.188c-0.076-0.012,0.038,0.072,0.062,0.307l-0.705-0.255
		l0.193,0.213c0,0-0.279,0.2-0.558,0.399c-0.283,0.202-0.549,0.425-0.549,0.425c0.102,1.195,0.646,2.355,0.412,3.686
		c-0.358-0.51-0.761-0.397-1.328-0.648c0.746-0.102,0.197-1.139,0.681-1.765c-0.243,0.318-0.466,0.106-0.509-0.035
		c0,0-0.024,0.375-0.048,0.749c-0.006,0.371-0.012,0.741-0.012,0.741c-0.456-0.233-0.463,0.113-0.792,0.372
		c0.52,0.061,0.569,0.354,0.529,0.71c-0.014,0.086-0.029,0.176-0.044,0.269l-0.021,0.175c-0.019,0.13-0.043,0.208-0.04,0.376
		c-0.162-0.053-0.284-0.19-0.351-0.31c-0.071-0.112-0.07-0.229,0.01-0.366c-0.753-0.072,0.722,1.105-0.129,1.534
		c0.061-0.168,0.145-0.234,0.016-0.369c0.085,0.479-0.41,1.398-0.627,1.103l0.042-0.188c-0.157,0.397-0.288,0.99-0.272,1.606
		c-0.001,0.58,0.212,1.355,0.385,1.416c0.073,0.108,0.147,0.21,0.249,0.294c0.101,0.117,0.22,0.206,0.36,0.231
		c-0.11,0.011-1.024-0.156-1.194-0.231c0,0,0.703,0.52,1.432,0.949c0.196,0.118,0.392,0.229,0.576,0.329
		c0.009,0.18,0.012,0.361,0.027,0.54c-0.778,0.142-1.698,0.346-2.03-0.265c-0.087,0.267-0.189,0.614,0.134,1.137
		c0.082-0.197,1.001-0.548,1.094-0.325c-0.729,0.737-0.387,0.485-0.934,1.409c0.106-0.29,1.286-0.198,1.327,0.187
		c-0.181-0.027-1.1,0.268-1.249,0.14c0,0,0.331,0.194,0.661,0.389c0.333,0.186,0.668,0.353,0.668,0.353
		c-0.261-0.188-0.936,0.192-1.179,0.512c0.175-0.165,0.238,0.891,0.447,1.122l0.105-0.507c0.227,1.192,1.86,0.538,2.238,1.521
		c-0.261-0.012-1.445,0.294-1.313,0.896c0.349,0.012,1.18-0.057,2.004-0.059c0.194,0.347,0.4,0.686,0.618,1.017
		c-0.122-0.001-0.242,0-0.365-0.006c-0.799-0.035-1.614-0.18-2.108-0.353c-0.014,0.518-0.286,0.299,0.081,0.874
		c-0.141,0.369-0.597-0.086-0.71-0.262c0,0,0.162,0.379,0.323,0.758c0.179,0.373,0.359,0.746,0.359,0.746
		c0.514-0.421,1.261,0.624,1.678,0.223c0,0-0.394-0.225-0.778-0.478c-0.388-0.25-0.765-0.528-0.765-0.528
		c0.545-0.391,2.104-0.216,2.635,0.628c-0.041,0.376-1.063,0.592-1.229,0.74c0.271-0.022,0.999,0.526,0.949,0.703l-0.579-0.119
		c0.225,0.65,1.315,0.151,1.373,1.111c0.143,0.206-0.03,1.162,0.274,0.897c0.114-0.52,0.742-1.361,1.344-2.009
		c0.189,0.176,0.376,0.354,0.573,0.521L26.1,89.509l0.121,0.092l0.163-0.204c0.202,0.169,0.417,0.322,0.626,0.48
		c-0.268,0.519-1.279,0.627-1.332,1.167c0.126-0.133,0.444-0.176,0.561-0.178c0.112,0.282-0.432,0.391,0.081,0.664
		c0.47-0.495,0.916,0.699,0.551-0.317c0.557,0.144,0.399,0.443,0.966,0.754c0.042-0.317,0.578-0.652,1.083-0.832
		c0.187,0.104,0.381,0.193,0.573,0.29c0,0.028-0.004,0.067-0.004,0.088c0.907,0.512,1.328,1.009,2.279,1.325
		c0.036,0.184,0.453,0.516,0.17,0.738c0.177-0.075,0.369-0.261,0.675-0.2c0.455,0.724-0.71-0.087-0.434,0.715
		c0.143-0.366,0.945-0.324,1.429-0.492c-0.021-0.62-0.965-0.316-1.474-0.209c0.084-0.288,0.259-0.552,0.489-0.786
		c0.975,0.255,1.983,0.422,3.021,0.491c0.647,0.337,2.484,0.067,3.584,0.262c0.132-0.152,0.325-0.319,0.354-0.47
		c0.992-0.178,1.951-0.446,2.871-0.796l0.009,0l-0.001-0.002c0.313-0.12,0.617-0.255,0.92-0.394
		c0.018,0.074,0.048,0.149,0.099,0.222l0.373-0.434c0.015-0.007,0.03-0.013,0.045-0.021c0.037,0.107-0.043,0.325,0.136,0.346
		c-0.045-0.13-0.034-0.284,0.023-0.424c0.245-0.125,0.479-0.267,0.715-0.404c0.026,0.003,0.049,0,0.076,0.005
		c0.009-0.017,0.005-0.037,0.012-0.055c0.204-0.12,0.408-0.238,0.605-0.366c0.029,0,0.05,0.009,0.095-0.004
		c0.021-0.072,0.082-0.093,0.119-0.143c3.91-2.62,6.62-6.892,7.1-11.827c0.309-0.889,0.358-1.897,0.077-3.034
		C52.824,75.419,52.782,75.274,52.745,75.133z M37.145,12.983l-0.002-0.157C37.393,12.835,37.272,12.903,37.145,12.983z
		 M21.41,26.112c-0.083-0.148-0.356-0.464-0.062-0.521C21.875,25.826,21.598,25.903,21.41,26.112z M22.381,36.605
		c-0.167-0.082-0.1-0.243,0.069-0.43C22.499,36.295,22.492,36.437,22.381,36.605z M41.672,46.12c0.1,0.146,0.2,0.314,0.318,0.475
		c-0.112,0.071-0.284,0.019-0.461,0.097c0.163,0.006,0.259,0.096,0.336,0.218c-0.072,0.002-0.163,0.02-0.303,0.08l0.633,0.77
		c-0.449-0.389-1.511-0.395-1.562-1.411c0.174-0.016,0.49,0.12,0.683,0.227c0.025-0.116-0.016-0.192-0.07-0.261
		C41.371,46.263,41.524,46.174,41.672,46.12z M42.118,46.263c-0.003,0.054-0.009,0.101-0.018,0.14
		C42.06,46.35,42.066,46.304,42.118,46.263z M41.032,46.041c0.007,0.016,0.017,0.025,0.023,0.044
		C41.046,46.071,41.039,46.056,41.032,46.041z M42.061,46.166c-0.088-0.015-0.153-0.045-0.207-0.084
		C41.934,46.078,42.004,46.103,42.061,46.166z M41.387,45.841c-0.079-0.012-0.155-0.021-0.231-0.03
		C41.242,45.799,41.32,45.808,41.387,45.841z M41.083,44.97c-0.059-0.031-0.125-0.063-0.201-0.097l0.208-0.09L41.083,44.97z
		 M41.174,44.198c-0.033,0.026-0.06,0.058-0.094,0.081l0.031-0.005v-0.003l0.006,0.003c0.061-0.009,0.095-0.007,0.054,0.014
		c0.004,0.004,0.003,0.013,0.003,0.017c0.054,0.025,0.099,0.056,0.141,0.087c-0.155,0.159-0.116-0.01-0.141-0.087l-0.057-0.03
		l-0.006,0l-0.01,0.258c-0.068-0.045-0.136-0.098-0.204-0.156c0.062-0.032,0.125-0.059,0.183-0.097
		c-0.07,0.012-0.157,0.035-0.226,0.061c-0.073-0.067-0.14-0.141-0.185-0.228c0,0,0.194,0.031,0.389,0.063
		C41.098,44.183,41.136,44.191,41.174,44.198z M29.183,48.002l-0.042,0.03c0.002-0.017,0.002-0.033,0.006-0.051
		C29.155,47.993,29.168,47.999,29.183,48.002z M26.844,55.133c0.447,0.373,0.148,0.408-0.1,0.602
		C26.709,55.548,26.536,55.137,26.844,55.133z M22.883,67.042c-0.062,0.155-0.181,0.292-0.4,0.39
		C22.423,67.237,22.606,67.116,22.883,67.042z"/>
	<path fill="#EC1C24" d="M27.463,53.31l0.167,0.109C27.559,53.307,27.496,53.248,27.463,53.31z"/>
	<path fill="#EC1C24" d="M22.971,65.7c-0.131,0.042-0.234,0.049-0.364,0.099C22.607,65.8,22.951,65.74,22.971,65.7z"/>
	<path fill="#EC1C24" d="M31.411,40.682l-0.157-0.973C31.013,40.491,31.277,40.384,31.411,40.682z"/>
	<path fill="#EC1C24" d="M50.651,62.413c-0.007,0.031-0.003,0.062-0.015,0.092C50.692,62.488,50.681,62.455,50.651,62.413z"/>
	<path fill="#EC1C24" d="M29.49,91.513l-0.017-0.01C29.495,91.609,29.492,91.589,29.49,91.513z"/>
	<path fill="#EC1C24" d="M41.317,46.575c-0.004,0.02-0.004,0.039-0.013,0.062C41.571,46.747,41.498,46.674,41.317,46.575z"/>
	<path fill="#EC1C24" d="M18.601,78.059c0.005,0.011,0.017,0.017,0.023,0.027l0.013-0.038L18.601,78.059z"/>
	<path fill="#EC1C24" d="M19.058,77.447c-0.405-0.141-0.809-0.281-0.809-0.281c0.543,0.38,0.487,0.585,0.388,0.882l1.237-0.346
		C19.873,77.703,19.465,77.575,19.058,77.447z"/>
	<path fill="#EC1C24" d="M23.019,66.034c-0.054-0.081-0.128-0.122-0.247-0.108C22.856,65.95,22.939,65.992,23.019,66.034z"/>
	<path fill="#EC1C24" d="M31.441,40.854l0.017-0.036c-0.013-0.054-0.03-0.098-0.048-0.136L31.441,40.854z"/>
	<path fill="#EC1C24" d="M25.79,91.445c-0.096-0.161-0.118-0.289-0.111-0.4C25.598,91.133,25.598,91.259,25.79,91.445z"/>
	<polygon fill="#EC1C24" points="41.259,92.509 41.817,92.48 41.633,92.429 	"/>
	<path fill="#EC1C24" d="M35.629,93.638l-0.059,0.619l0.308-0.222C35.715,93.921,35.711,93.808,35.629,93.638z"/>
	<path fill="#EC1C24" d="M34.056,93.994c-0.083,0.164-0.996,0.333-0.187,0.431C33.963,94.271,34.606,94.216,34.056,93.994z"/>
	<path fill="#EC1C24" d="M20.161,84.22c-0.42-0.332-0.378-0.628-0.918-0.171c0.089,0.847,0.648-0.067,0.663,0.717
		C20.198,84.833,19.891,84.129,20.161,84.22z"/>
	<path fill="#EC1C24" d="M20.161,84.22c0.067,0.053,0.144,0.106,0.238,0.156C20.286,84.278,20.215,84.239,20.161,84.22z"/>
	<path fill="#EC1C24" d="M25.539,56.2l-0.467,0.181l0.132,0.09C25.387,56.471,25.437,56.381,25.539,56.2z"/>
	<path fill="#EC1C24" d="M28.539,46.654c0.047-0.456,0.847-0.455,0.137-0.642C28.585,46.198,28.63,46.468,28.539,46.654z"/>
	<path fill="#EC1C24" d="M43.232,32.26c0.041-0.15-0.379-0.096-0.454-0.119C42.864,32.39,43.342,32.255,43.232,32.26z"/>
	<polygon fill="#EC1C24" points="44.094,34.79 43.927,34.735 44.316,35.135 	"/>
	<path fill="#EC1C24" d="M44.308,35.829l-0.557-0.238c0.063,0.513,0.371,1.216,0.116,1.549c0.741-0.138,0.001-0.862,0.274-1.255
		L44.308,35.829z"/>
	<path fill="#EC1C24" d="M42.3,37.882c-0.033,0.023-0.052,0.028-0.076,0.041c-0.002,0.049-0.012,0.116-0.046,0.226
		C42.462,38.117,42.381,38.445,42.3,37.882z"/>
	<path fill="#EC1C24" d="M42.224,37.922C42.235,37.683,41.973,38.042,42.224,37.922L42.224,37.922z"/>
	<path fill="#EC1C24" d="M42.196,39.032l-0.187-0.351c-0.174,0.036-0.261,0.3-0.359,0.179
		C41.726,39.195,41.897,39.163,42.196,39.032z"/>
	<path fill="#EC1C24" d="M42.653,39.422L42.58,39.24C42.507,39.256,42.476,39.294,42.653,39.422z"/>
	<path fill="#EC1C24" d="M42.426,38.859l0.154,0.381c0.122-0.024,0.351,0.012-0.049-0.172C42.733,39.134,42.546,39.03,42.426,38.859
		z"/>
	<path fill="#EC1C24" d="M43.079,38.679c0.008-0.622-0.499-0.604-0.51,0.005C42.755,38.536,42.895,38.322,43.079,38.679z"/>
	<path fill="#EC1C24" d="M44.583,37.352l0.24-0.223l-0.209-0.243C44.717,37.007,44.359,37.339,44.583,37.352z"/>
	<path fill="#EC1C24" d="M41.933,40.602c-0.13,0.092-0.276,0.287-0.499,0.248c0.143,0.055,0.418-0.005,0.613,0.017L41.933,40.602z"
		/>
	<path fill="#EC1C24" d="M42.047,40.867l0.17,0.4C42.322,40.97,42.215,40.886,42.047,40.867z"/>
	<polygon fill="#EC1C24" points="42.99,38.951 43.407,39.741 43.421,39.627 	"/>
	<polygon fill="#EC1C24" points="41.218,42.292 41.09,42.099 40.808,41.821 	"/>
	<path fill="#EC1C24" d="M41.517,41.974l0.448-0.017c0.012-0.04,0.025-0.085,0.039-0.131C41.906,41.827,41.669,41.817,41.517,41.974
		z"/>
	<path fill="#EC1C24" d="M41.979,41.956l-0.014,0.001c-0.046,0.142-0.091,0.234-0.107,0.275
		C41.873,42.198,41.91,42.115,41.979,41.956z"/>
	<path fill="#EC1C24" d="M42.014,41.792l-0.01,0.033C42.047,41.824,42.063,41.819,42.014,41.792z"/>
	<path fill="#EC1C24" d="M43.648,40.875c-0.249-0.212-0.51-0.022-0.785-0.406C43.047,40.721,43.19,41.211,43.648,40.875z"/>
	<path fill="#EC1C24" d="M42.377,41.297l0.193,0.465l0.185-0.342C42.644,41.4,42.468,41.426,42.377,41.297z"/>
	<polygon fill="#EC1C24" points="42.658,41.977 42.57,41.763 42.502,41.889 	"/>
	<path fill="#EC1C24" d="M41.349,43.44c0.134,0.212,0.087,0.379,0.044,0.57c0.158-0.164,0.272-0.355,0.328-0.557
		C41.603,43.383,41.4,43.221,41.349,43.44z"/>
	<path fill="#EC1C24" d="M41.691,42.732l0.013,0.041C41.745,42.763,41.762,42.75,41.691,42.732z"/>
	<path fill="#EC1C24" d="M41.808,43.444c0.125-0.126,0.054-0.25-0.045-0.376c0.006,0.126-0.005,0.255-0.042,0.386
		C41.775,43.485,41.813,43.5,41.808,43.444z"/>
	<path fill="#EC1C24" d="M41.576,42.79c-0.004-0.01-0.01-0.019-0.011-0.028C41.461,42.783,41.506,42.791,41.576,42.79z"/>
	<path fill="#EC1C24" d="M41.576,42.79c0.035,0.095,0.117,0.188,0.187,0.278c-0.003-0.103-0.021-0.202-0.059-0.294
		C41.669,42.783,41.62,42.789,41.576,42.79z"/>
	<path fill="#EC1C24" d="M44.454,41.478c-0.042,0.014-0.072,0.006-0.103,0C44.391,41.539,44.421,41.565,44.454,41.478z"/>
	<path fill="#EC1C24" d="M44.351,41.478c-0.085-0.133-0.211-0.438-0.495-0.159l0.044,0.065c-0.217,0.262-0.829,0.5-0.873,0.434
		c0.396,0.014,0.682,0.008,1.099-0.097c-0.045-0.068-0.202-0.154-0.116-0.317C44.173,41.283,44.211,41.453,44.351,41.478z"/>
	<path fill="#EC1C24" d="M43.098,43.592c0.188-0.312-0.097-0.321-0.249-0.414l0.019,0.654l0.448-0.188L43.098,43.592z"/>
	<path fill="#EC1C24" d="M21.546,23.956l0.185,0.071C21.637,23.941,21.565,23.899,21.546,23.956z"/>
	<path fill="#EC1C24" d="M23.228,35.532l-0.125,0.091c0.153,0.054,0.296,0.104,0.428,0.15
		C23.438,35.699,23.335,35.617,23.228,35.532z"/>
	<path fill="#EC1C24" d="M21.672,35.076c-0.091,0.09-0.175,0.217-0.25,0.395L21.672,35.076z"/>
	<path fill="#EC1C24" d="M24.221,14.752l-0.264-0.434C23.763,14.669,24.045,14.621,24.221,14.752z"/>
	<path fill="#EC1C24" d="M26.236,24.061c-0.056-0.123-0.127-0.186-0.224-0.203C26.056,23.981,26.128,24.062,26.236,24.061z"/>
	<path fill="#EC1C24" d="M46.826,21.469c-0.014,0.025-0.017,0.052-0.034,0.077C46.85,21.537,46.845,21.508,46.826,21.469z"/>
	<path fill="#EC1C24" d="M43.71,29.956c-0.033-0.072-0.042-0.192-0.057-0.305C43.628,29.707,43.638,29.799,43.71,29.956z"/>
	<path fill="#EC1C24" d="M37.103,9.263c0.008,0.017,0.021,0.03,0.028,0.052C37.391,9.235,37.301,9.213,37.103,9.263z"/>
	<path fill="#EC1C24" d="M23.29,45.389c0.007,0.007,0.02,0.008,0.028,0.013l0.004-0.031L23.29,45.389z"/>
	<path fill="#EC1C24" d="M22.767,44.848c0.598,0.107,0.581,0.279,0.555,0.522l1.103-0.618L22.767,44.848z"/>
	<path fill="#EC1C24" d="M31.919,7.612c-0.042,0.008-0.081,0.021-0.11,0.04C31.849,7.634,31.882,7.626,31.919,7.612z"/>
	<path fill="#EC1C24" d="M21.632,35.482c0.078-0.044,0.167-0.061,0.257-0.076C21.804,35.36,21.71,35.365,21.632,35.482z"/>
	<path fill="#EC1C24" d="M24.27,14.831c0.007-0.005,0.01-0.012,0.016-0.018c-0.019-0.025-0.042-0.045-0.065-0.062L24.27,14.831z"/>
	<path fill="#EC1C24" d="M43.239,45.95c-0.035-0.075,0.037-0.114,0-0.188l-0.213-0.069C42.956,45.918,43.063,46.144,43.239,45.95z"
		/>
	<path fill="#EC1C24" d="M25.176,50.299c0.276,0-0.01-0.524,0.242-0.5c-0.399-0.191-0.372-0.437-0.871,0.043
		C24.645,50.513,25.163,49.656,25.176,50.299z"/>
	<path fill="#EC1C24" d="M25.418,49.799c0.063,0.031,0.136,0.06,0.225,0.083C25.536,49.823,25.47,49.804,25.418,49.799z"/>
	<polygon fill="#EC1C24" points="42.993,31.555 43.33,31.332 43.197,31.215 	"/>
	<path fill="#EC1C24" d="M43.915,32.142c-0.031-0.077-0.091-0.227,0.054-0.286l-0.646,0.084L43.915,32.142z"/>
	<path fill="#EC1C24" d="M20.376,26.744l-0.401,0.257l0.151,0.046C20.302,27.007,20.326,26.92,20.376,26.744z"/>
	<polygon fill="#EC1C24" points="21.364,21.923 21.33,22.008 21.939,21.984 	"/>
	<path fill="#EC1C24" d="M21.99,17.406c-0.09,0.167-0.046,0.42-0.136,0.587C21.9,17.571,22.69,17.624,21.99,17.406z"/>
</g>
</svg>
