<?xml version="1.0" encoding="utf-8"?>
<!-- Generator: Adobe Illustrator 16.0.3, SVG Export Plug-In . SVG Version: 6.00 Build 0)  -->
<!DOCTYPE svg PUBLIC "-//W3C//DTD SVG 1.1//EN" "http://www.w3.org/Graphics/SVG/1.1/DTD/svg11.dtd">
<svg version="1.1" id="Layer_1" xmlns="http://www.w3.org/2000/svg" xmlns:xlink="http://www.w3.org/1999/xlink" x="0px" y="0px"
	 width="380px" height="270px" viewBox="0 0 380 270" enable-background="new 0 0 380 270" xml:space="preserve">
<g>
	<path fill-rule="evenodd" clip-rule="evenodd" fill="#EC1C24" d="M369.198,198.857c0.33,2.359-1.208,1.476-0.881,3.828
		c-3.874-1.5-1.245,3.547-3.961,3.827C363.68,202.09,365.666,196.536,369.198,198.857z M284.267,13.782
		c2.334-0.996,1.366,3.74,3.52,3.059c-0.924,3.924,0.647,4.649,0.881,8.411C284.755,24.123,286.047,17.503,284.267,13.782z
		 M269.744,19.134c-0.828-1.366-1.659-2.729-2.642-3.818c0.103-1.108,1.313-0.28,1.319-1.534
		C269.557,14.357,269.955,16.224,269.744,19.134z M259.621,12.25c3.087-0.847,0.171,4.183,2.642,3.824
		c0.122,1.229-0.414,1.316-0.441,2.294C259.985,18.256,260.171,14.619,259.621,12.25z M242.019,11.488
		c0.125,1.238-0.414,1.313-0.441,2.294c-1.687-0.996-2.512,0.47-3.52-2.294C239.128,8.391,239.91,12.216,242.019,11.488z
		 M213.853,9.191c-1.714,0.607-2.281,0.797-3.52-0.756c0.159-1.012,0.775-1.211,0.881-2.303
		C211.479,8.917,213.91,4.91,213.853,9.191z M209.017,3.838h1.759C211.121,6.786,208.666,6.786,209.017,3.838z M200.649,23.724
		c0.912-1.743,3.803-0.016,4.842-1.525C205.177,25.498,201.81,23.441,200.649,23.724z M178.648,50.49
		c1.41-3.787,4.024-0.734,6.604-2.287c-0.109-1.354-0.759-1.749-1.761-1.528c1.045-2.567,2.598-0.181,3.958,0.756
		c-1.036,2.54-3.109,3.259-4.397,5.353C181.667,51.264,181.863,49.827,178.648,50.49z M178.648,35.96
		c-0.884-1.662-0.809-2.658-3.081-3.06c0.841-1.904,1.911,0.949,3.081-0.774C179.479,33.595,178.39,33.517,178.648,35.96z
		 M169.406,40.547c-1.572-2.069-5.145,2.355-6.159-2.294c2.212-1.799,3.846,3.273,4.839-1.528
		C168.503,38.048,169.717,37.973,169.406,40.547z M157.524,42.843c-1.786-1.029-0.093-1.954,0-3.83h3.523
		C160.58,42.127,157.683,38.191,157.524,42.843z M152.685,27.555c1.36-1.974,5.439-0.881,7.481-0.775
		C158.312,28.174,154.054,27.648,152.685,27.555z M149.601,23.724c0.06-1.693,1.87-0.327,2.646-0.766
		C152.648,25.772,149.925,24.349,149.601,23.724z M144.765,126.206c0.181-1.465,0.162-3.295,1.319-3.053
		C146.536,125.297,146.583,126.399,144.765,126.206z M141.243,63.492c2.274,1.677,1.892-1.264,4.4,0
		c-0.909,2.361-2.717,0.893-4.839,2.303C141.034,65.168,141.264,64.543,141.243,63.492z M144.324,110.914
		c0.974,1.096-0.551,1.871,0.441,2.291c-0.056,1.692-1.867,0.323-2.639,0.762C142.69,112.657,143.035,110.96,144.324,110.914z
		 M141.243,202.685h2.2C143.116,204.446,141.068,206.208,141.243,202.685z M132.881,133.086c-0.339-0.682-0.473-1.721-0.439-3.053
		c1.345,0.545,1.295-1.316,2.639-0.771C133.96,129.86,134.34,133.068,132.881,133.086z M129.803,78.787
		c1.344,0.56,1.292-1.316,2.639-0.76c-1.102,1.531,1.718,3.545-0.88,3.818c-0.862-4.186-2.751-0.983-4.839-2.287
		c1.301,0.81-0.669-4.167-1.322-1.531c0.152-1.543-0.09-2.396-0.881-2.3C126.567,74.912,129.078,75.326,129.803,78.787z
		 M132.003,137.676c-0.056,1.693-1.867,0.321-2.642,0.766c-0.467-2.848,0.927-2.474,1.323-3.83
		C132.598,134.754,130.158,138.246,132.003,137.676z M130.242,62.726v2.293c-1.742,0.996-0.899-2.518-2.642-1.527
		C127.656,61.804,129.47,63.165,130.242,62.726z M127.6,123.153h2.203c-0.847,1.329-1.652,2.735-2.639,3.815
		C126.797,124.802,127.781,124.993,127.6,123.153z M124.081,73.434c0.663-1.086,1.901-2.826,2.642-1.531
		C127.099,74.797,124.752,74.617,124.081,73.434z M126.281,223.333v3.059c-1.245-0.631-1.139,1.08-2.2,0.766
		c-0.149-2.691-1.155-1.973-2.2-1.524c0.071-0.896-0.1-1.36-0.442-1.534C122.465,220.92,124.613,225.386,126.281,223.333z
		 M122.322,124.681c-1.699,0.37-6.037,3.946-7.48,0C117.623,125.714,119.44,123.47,122.322,124.681z M119.68,65.794
		c0.401-1.348,0.821-2.67,2.2-2.303v2.303H119.68z M121.438,26.017c-0.88-0.265-1.375,0.159-1.316,1.538
		c-0.582-0.274-0.694-1.354-1.323-1.538C119.378,24.676,121.445,21.994,121.438,26.017z M117.922,223.333
		c-1.282,0.121-1.341-3.1-0.88-3.824c1.615,0.245,3.015,0.877,3.961,2.296C120.079,223.541,118.298,219.013,117.922,223.333z
		 M119.241,144.56c-0.788,0.097-0.93-0.934-1.761-0.759c-0.125-1.239,0.414-1.323,0.442-2.304h0.877
		C118.747,142.868,119.341,143.117,119.241,144.56z M117.48,91.023c-0.775-0.181-1.005-1.313-0.884-3.057h1.326
		C118.109,89.569,117.617,89.99,117.48,91.023z M113.963,130.034c-1.463,2.29-0.252,0.847,1.316,0.76
		c-0.171,2.498-2.156,1.867-3.52,2.293c-0.013-0.737-0.542-0.591-0.881-0.763c0.734-1.521-0.04-0.971,0-3.062
		C112.336,133.541,112.308,128.478,113.963,130.034z M113.519,63.492c0.031,2.445-2.767,1.988-3.081,1.527
		C110.497,62.726,112.937,62.564,113.519,63.492z M111.318,100.203c-0.364-2.163,0.623-1.988,0.442-3.831
		c0.598,0.24,0.364,1.917,0.438,3.065h0.881C112.946,100.477,111.978,100.072,111.318,100.203z M110.438,97.147
		c0.417,2.764-1.733,1.064-2.639,1.531v-2.307C108.726,94.695,109.096,97.355,110.438,97.147z M103.837,144.56
		c2.209-2.337-0.865-4.982,2.2-5.355c-1.037,3.305,1.873,0.414,2.642,0C107.067,143.969,107.323,144.05,103.837,144.56z
		 M101.634,28.311c-1.382-0.865-0.996-0.065-2.636,0c0.18-2.707,1.923-1.51,0.877-4.587c0.75,0.28,0.831-0.592,0.881-1.525h2.203
		c-0.663,0.881-1.077,2.203-2.203,2.288c0.075,0.898,0.803,0.65,1.319,0.765C101.737,25.93,101.606,26.976,101.634,28.311z
		 M99.875,141.498c1.064-0.313,0.959,1.4,2.2,0.775c0.137,2.017-0.918,1.961-1.758,2.287c-0.016-0.75-0.539-0.591-0.881-0.759
		C99.673,143.178,99.895,142.556,99.875,141.498z M99.437,195.036c-0.847,2.462-2.213,0.601-4.4,1.528
		C94.974,193.402,98.096,195.77,99.437,195.036z M96.356,145.326c-0.899-1.245-2.586-1.114-2.639-3.828
		c0.747-0.273,0.828,0.595,0.877,1.531c0.825-0.606,1.612-1.275,2.642-1.531C97.567,143.857,96.026,142.973,96.356,145.326z
		 M91.959,98.678c1.251-0.772,3.526-2.49,4.397-1.531c0.672,3.457-2.872-0.408-2.197,3.056
		C92.802,100.769,93.313,98.105,91.959,98.678z M95.92,61.963c0.414,2.767-1.733,1.067-2.645,1.528
		C93.68,62.157,94.651,61.804,95.92,61.963z M90.198,130.034c1.107-2.698,3.85-0.598,5.723,0
		C94.866,133.964,91.741,131.416,90.198,130.034z M92.395,146.854c0.846-3.1,2.069,0.438,3.081,0
		c-0.352,1.684-0.881,3.059-2.2,3.059C93.972,148.783,93.767,146.502,92.395,146.854z M94.159,120.85
		c0.371-0.143,0.414,0.302,0.436,0.766c-0.078,0.647,0.171,0.729,0.442,0.763c-0.753,0.731-0.965,2.399-1.319,3.827
		c-3.152-0.525-2.925-2.707-5.284-3.827C90.076,117.511,92.734,124.374,94.159,120.85z M91.075,169.033h2.2
		C93.951,171.378,90.403,171.378,91.075,169.033z M91.075,99.437c-0.657,0.896-1.077,2.21-2.2,2.294
		c0.072-0.884-0.1-1.36-0.442-1.528C88.492,98.51,90.303,99.875,91.075,99.437z M81.394,143.801
		c1.195-2.801,6.834-2.402,8.362-1.528c-0.389,2.583-3.302-0.05-2.204,2.287C86.93,144.846,83.803,142.952,81.394,143.801z
		 M88.875,60.439c0.258,1.808,0.678,3.554-0.877,3.817c0.526-1.005,0.171-1.204,0-2.293c-0.996,0.427,0.529,1.188-0.445,2.293
		c-2.34-0.168-0.759-2.402-2.636-3.059C85.383,59.464,87.683,60.912,88.875,60.439z M84.917,127.734
		c-0.507-0.265-1.117-1.345-0.441-1.528c-0.013-0.74-0.539-0.594-0.881-0.765v-1.531c0.373,0.143,0.414-0.299,0.442-0.757
		C85.163,123.237,84.911,125.705,84.917,127.734z M82.275,126.968c-1.615,1.235-2.564,2.446-4.4,1.531
		C78.045,124.755,80.762,126.623,82.275,126.968z M81.836,38.253c-0.1,1.102-1.316,0.265-1.323,1.534
		c-0.333-1.204-1.397-1.146-1.319-3.063C80.206,34.955,81.223,37.086,81.836,38.253z M80.075,98.678
		c0.352-0.414,0.716-0.807,1.319-0.772c0.342,0.688,0.473,1.73,0.442,3.06C80.685,101.18,79.941,100.682,80.075,98.678z
		 M77.875,143.801c-0.308-2.651,1.543-2.755,2.2-1.528C80.012,143.938,78.967,143.913,77.875,143.801z M79.194,60.439
		c1.494,1.904-1.036,3.236-2.197,3.053v-3.053C77.775,59.975,78.824,62.676,79.194,60.439z M75.232,87.966h2.2
		C77.594,90.575,74.89,91.197,75.232,87.966z M76.116,125.441c-0.996-3-3.927-2.005-5.284-0.76c0.884-0.685-0.193-3.352-0.439-1.528
		c-1.099-2.047,0.464-2.24,1.762-1.537c0.544-2.477-1.425-0.582-0.881-3.059C73.966,118.199,75.699,120.084,76.116,125.441z
		 M72.155,176.681c1.789,0.626,1.516,0.118,3.52,0c-0.635,2.113-1.634,1.239-3.084,3.057
		C72.251,179.069,72.118,178.01,72.155,176.681z M73.032,72.674c-0.162,1.295,0.345,1.444,0.884,1.525
		c-0.815,1.136-2.094,1.462-3.523,1.527C70.406,73.209,71.644,72.802,73.032,72.674z M73.471,217.977
		c-1.438-0.669-2.913,0.386-4.842-0.763c0.196-0.942,0.566-1.565,1.326-1.531c-0.063-2.19-1.839-1.391-3.084-1.527
		c0.349-2.973,1.758,0.927,0.442-3.065C71.66,211.046,71.28,215.192,73.471,217.977z M68.193,102.497
		c-0.479-0.181-0.302-1.513-0.88-1.531c0.1-2.371,2.191-1.288,3.52-1.528C70.642,103.352,67.618,97.577,68.193,102.497z
		 M70.393,91.794v2.29c-1.764-0.613-3.065-1.194-2.2,2.287c-1.083-0.656-0.989-3.389-2.642-3.053
		C66.435,89.836,68.013,92.167,70.393,91.794z M68.193,90.26c-1.244-0.632-1.139,1.08-2.2,0.763
		c1.006-2.207-0.635-2.533-1.761-1.528c0.644-2.916,2.922-1.82,4.397-1.528C68.402,88.583,68.171,89.206,68.193,90.26z
		 M66.871,127.734c-1.062-0.75-3.803-5.704-4.839-1.528c-0.65-1.979-0.946-4.014-2.643-2.296c0.038-1.086,0.072-2.166-0.436-2.294
		c1.513-1.151,4.282-0.158,6.598-0.766c0.414,2.347,2.25,2.213,2.642,4.591C68.143,126.884,66.74,125.976,66.871,127.734z
		 M60.712,222.567c2.122,1.668,5.832-2.014,7.039,2.294C65.255,224.363,61.882,225.371,60.712,222.567z M60.712,101.731
		c-0.554-0.193-0.445-1.528,0-1.528c-2.963-1.826,2.919-4.973,2.203,1.528C61.82,102.723,60.777,100.019,60.712,101.731z
		 M56.75,110.914c0.971-1.381,3.134-0.672,4.403-1.534C60.622,112.856,58.195,112.617,56.75,110.914z M58.954,151.444
		c0.427-0.031,0.333-0.934,0.436-1.531c1.397,4.264-2.807,8.041-4.842,4.594c0.115-2.023,0.912-2.518-0.881-2.3
		C53.975,147.893,58.546,146.34,58.954,151.444z M59.389,211.09c-0.056,1.378,0.539,1.621,0.442,3.065
		c-2.032,0.249-5.692-0.374-4.403,1.527c-0.417,1.886-1.728-0.983-1.762-2.287C55.437,210.794,56.331,210.412,59.389,211.09z
		 M57.628,91.023c-1.531-3.159-5.646,0.604-7.917-2.294c1.556-0.894,4.765-0.694,7.917-0.763V91.023z M53.231,22.958
		c1.646,1.136,1.332,1.254,3.52,0.766C56.878,25.741,52.425,26.721,53.231,22.958z M54.112,143.801h2.2
		C56.984,146.144,53.439,146.144,54.112,143.801z M54.112,222.567c0.373,0.14,0.414-0.296,0.436-0.763
		c1.543,1.298-0.859,1.967-1.758,1.528c-0.187-1.597,0.302-2.02,0.442-3.053C53.772,220.61,54.133,221.248,54.112,222.567z
		 M50.589,210.331c0.837,0.33,1.108,1.649,2.2,1.534c-0.504,2.586-0.872,1.198-0.439,4.584c-0.787-0.087-0.927,0.943-1.761,0.766
		c-0.18-1.839,0.806-1.668,0.442-3.818c-2.636,0.896-3.902-0.659-5.723,0C45.644,208.927,50.458,213.406,50.589,210.331z
		 M46.189,92.553c2.3,2.378,3.258-0.56,6.161,0.766c-1.746,4.479-4.126,0.734-6.161,3.053V92.553z M51.912,221.804
		c-0.844,1.631-2.297,1.672-3.522,0.763C49.276,218.662,50.903,221.599,51.912,221.804z M44.427,101.731
		c1.87,2.038,0.853-2.294,3.081-1.528c-0.389,2.68,0.084,2.521-0.881,4.587C45.56,104.357,44.362,104.133,44.427,101.731z
		 M43.546,119.323c-0.105,0.824-0.874,0.52-0.88,1.527c0.523,2.061,2.3-0.003,3.084,0c-1.559,3.121,2.234-1.462,1.758,3.06
		c-2.91-0.286-7.521,5.98-10.12,3.824c1.503-0.438,2.2-2.293,1.761-6.118c0.918-0.32,1.164,0.526,1.758,0.763
		c1.077-1.802-0.656-1.419-0.442-3.821C41.9,118.112,42.517,119.077,43.546,119.323z M46.627,220.28
		c-0.05,3.013-1.914,2.337-0.877,5.353C42.193,226.445,43.662,218.699,46.627,220.28z M40.908,188.917
		c-0.996,0.566-0.965,2.916-2.2,3.053c0.915,3.442,1.211,3.32,1.319,7.662c-1.157,0.221-0.349-2.976-1.758-2.303
		c-0.654,0.336,0.171,0.979,0,2.303c-0.623-0.075-1.248-0.125-1.319,0.756c-1.055-1.631,0.357-5.439,1.758-5.353
		c-1.344-2.169-1.148-2.477-1.319-6.118c2.832,0.144,4.954-3.834,7.92,0.766c-1.052,1.743-4.183-0.124-3.958,3.821h-0.884
		c0.084-0.644-0.171-0.722-0.439-0.759c-0.383-2.462,1.45-1.056,1.323-3.063C40.976,189.82,40.933,189.381,40.908,188.917z
		 M40.027,213.396c0.598-0.239,0.367-1.917,0.439-3.065h1.764c0.057,1.373-0.538,1.612-0.441,3.065
		c1.503,0.569,0.56-3.115,2.203-2.306c-1.295,2.636,1.503,3.05,1.316,6.124c-1.058-0.703-2.129-1.388-3.078-2.293
		c-0.591,2.754-3.485-1.348-5.723,1.527c0.056-1.375-0.538-1.612-0.438-3.053c1.167,0,2.515-0.292,3.081,0.76
		c0.996-0.424-0.539-1.198,0.436-2.291C40.015,211.88,39.931,212.801,40.027,213.396z M42.666,223.333
		c-0.623,2.101-2.767,1.146-5.278,1.528c1.288-2.614,3.336,0.899,3.078-3.057C42.134,220.697,41.312,223.899,42.666,223.333z
		 M39.585,87.966c1.385,0.523,1.798-0.087,2.203,0.763c0.016,2.315-1.544,1.911-2.639,2.294
		C39.09,89.653,39.688,89.414,39.585,87.966z M38.269,23.724c0.273-1.563,2.222-0.221,1.758-3.056
		c0.592,0.494,0.818,1.627,0.881,3.056C40.124,25.152,39.791,23.101,38.269,23.724z M32.991,97.147
		c-0.068-1.024,1.787-2.318,0.436-3.063c0.853-1.917,2.682,0.896,3.961,0.763c-0.155,3.905-2.866,0.797-3.081,3.831
		C33.725,98.398,33.61,97.328,32.991,97.147z M36.95,186.621c-0.265,2.761-0.744,5.126,0,7.656
		c-2.399-0.536-8.387,0.88-12.763-0.772c3.28-4.058,5.415-1.44,10.12-2.293c1.298-0.663-1.021-1.14-0.441-3.06
		C34.821,187.514,35.369,186.173,36.95,186.621z M32.991,197.33c0.287-1.024,0.934-1.42,1.755-1.528
		c-0.327,2.358,1.516,0.934,0.877,3.831c-0.507-0.125-0.781,0.155-0.877,0.756c-0.554-0.187-0.442-1.519,0-1.531
		C34.681,197.454,33.258,198.39,32.991,197.33z M35.188,114.732c0.199,2.394-0.937,2.446-2.197,2.294
		C32.926,114.875,34.065,114.82,35.188,114.732z M33.427,91.794c-0.287,1.021-0.94,1.413-1.761,1.524
		c-0.19-1.459-1.257-1.382-0.878-3.824C32.344,89.078,31.868,92.202,33.427,91.794z M32.107,195.801
		c-0.535,3.585-1.191,2.415-3.522,2.293C28.759,195.596,30.741,196.234,32.107,195.801z M25.065,96.372
		c1.708-1.301,9.242-1.167,3.084,0.775c1.951,1.739-1.332,1.789-2.2,3.056C26.275,97.847,24.738,98.734,25.065,96.372z
		 M24.187,84.914c0.103-2.885,1.805-2.99,3.078-3.83c-0.134,2.016,0.918,1.973,1.761,2.293
		C27.897,86.442,26.714,84.795,24.187,84.914z M28.584,169.033c-0.23,2.61-2.119,1.167-3.081,0.766
		C25.513,167.576,27.993,167.987,28.584,169.033z M27.707,102.497c-0.355,1.425-0.57,3.09-1.323,3.824
		c-1.123-0.087-0.871-2.562-0.881-4.59C26.528,101.491,27.194,101.855,27.707,102.497z M19.345,87.966
		c1.718-3.214-2.072-1.49-1.762-4.59c-0.843,1.846-2.492,2.294-3.081,4.59c-1.882-0.902-1.79,0.057-3.516,0.763
		c1.008-1.416-5.014-3.37-5.723-3.815c-1.64-2.078,2.097-3.467,1.761,0c1.04-2.343,4.836-4.076,6.598-0.774
		c1.901-1.4,5.471-3.855,6.161,0.774c-0.302-1.705,1.56-1.938,0.878-2.303c1.039-0.367,1.758,1.12,3.525-0.766
		C22.983,86.171,21.181,85.804,19.345,87.966z M18.903,216.449c0.299-1.87,2.561-2.34,3.084-1.527
		C21.321,216.057,20.055,216.153,18.903,216.449z M21.106,127.734c-1.189,2.509-3.875,3.233-4.842,0
		C18.477,128.914,18.894,126.551,21.106,127.734z M17.583,228.685c0.134-1.783,0.94-3.289-0.438-3.824
		c0.137-1.033,1.104-0.635,1.758-0.763C17.683,225.84,19.917,228.869,17.583,228.685z M15.384,167.501
		c0.448,0.491,0.455,1.761,1.323,1.531c-0.582,2.203-2.792,1.565-3.962,0.766C12.751,167.514,16.006,170.875,15.384,167.501z
		 M15.826,225.632c0.125,1.998-0.162,3.283-1.323,3.053C14.381,226.687,14.357,224.861,15.826,225.632z M12.303,152.207
		c-0.203-2.396,0.383-3.411,1.761-3.053C13.408,150.049,13.547,152.325,12.303,152.207z M7.903,224.861v-3.057
		c1.313,0.016,1.497,1.989,2.639,2.294C10.489,225.791,8.681,224.424,7.903,224.861z M9.661,35.96
		c-0.295,2.038-3.021,2.162-3.517,1.527C6.844,36.163,8.124,35.838,9.661,35.96z M2.619,92.553h3.084
		C5.743,95.005,2.279,96.123,2.619,92.553z M2.619,79.558 M69.363,163.68c-0.069,0.255-0.159,0.525-0.29,0.766
		C69.052,163.985,69.176,163.776,69.363,163.68z M265.782,266.162c-4.773-0.653-7.388,0.57-12.323-1.53
		c-0.507-1.13-0.507-1.927,0-3.06c-1.733,0.464-2.284-1.123-3.081-2.293c-5.729,5.838-10.954,1.182-16.72,3.059
		c0.438-1.021,0.728-2.306,1.322-3.059c-4.391-6.511-9.333,4.954-13.204,0c-0.411,0.56-0.669,1.391-0.877,2.293
		c-0.358-0.401-0.719-0.8-1.326-0.766c-0.127-3.793,1.603-4.351,2.643-6.118c-3.495,1.827-8.651-1.917-11.001,3.831h-2.642
		c-0.33-2.875,1.68-1.668,1.761-3.831c0.221-2.489-2.188-1.621-0.88-3.824c-2.586-3.476-4.4,8.757-6.159,1.531
		c-1.677-1.124-0.087,3.426-1.765,2.293c-1.49-2.686,1.534-1.836,0.881-5.358c-2.138-0.959-4.425-4.372-5.278,0
		c-0.501-0.137-0.243-0.76,0-0.76c0.122-1.742-0.106-2.875-0.88-3.059c0.108-1.345,0.759-1.743,1.761-1.531
		c-3.544-0.609-8.039-5.489-10.565-3.056c-0.149-2.368-3.125-0.031-2.197-3.053c-1.354,2.583-3.261-2.058-3.081,0.756
		c-3.239-3.498-8.237-2.778-10.564-1.531c-0.775-0.18-1.002-1.307-0.878-3.056c-2.132,0.225-0.317,3.349-2.642,3.831
		c0.037-2.098-0.731-1.547,0-3.068c-3.034-0.003-3.769-0.993-7.481-0.763c-0.121-1.238,0.417-1.316,0.442-2.297
		c-1.145-0.457-1.581,0.309-1.319,2.297c-1.609-1.201,0.031-2.732-0.88-4.59c-0.601,0.239-0.368,1.923-0.442,3.065
		c-0.389-0.474-0.787-0.928-0.881,0c-1.021-0.072-1.848-3.532-1.758,0.759c-0.831-0.087-0.305-2.53-1.323-2.29
		c-0.134-1.768,1.276-0.855,1.323-2.3c-0.202-1.503-1.901,0.685-2.203,1.524c-5.602-5.24-11.838,6.286-14.962-3.818
		c2.288-0.488,3.532,1.693,5.284,0c-0.542-0.662-2.648-2.437-3.081-0.759c-1.473-0.697-0.386-1.718,0-3.065
		c-2.396,2.856-2.624-1.438-5.281,1.531c-0.14-2.325-2.515-3.05-1.319-5.347c-1.04-0.021-1.298,1.308-2.642,0.757
		c1.229,4.018-1.344,2.243-2.2,3.059c0.395,1.363,1.786,0.974,1.323,3.824c-0.965-1.64-0.946,0.203-0.881,2.294H127.6
		c-0.722-3.75-0.243-3.899-0.878-6.881c1.055-2.035,2.337,1.059,3.081-1.524c-0.884-2.284-2.748-0.572-3.522-1.528
		c-0.601,2.406-2.842,3.358-5.723,2.287c-0.202-1.634,0.632-1.459,1.323-1.53c-1.139-2.602-3.766,0.547-5.72-1.531
		c2.492,3.855-3.467,0.308-3.523,3.062c-1.205-0.706-1.876-2.346-3.081-3.062c-0.551,0.187-0.445,1.521,0,1.531
		c-0.249,1.12-2.353-0.946-1.758-3.825c5.349,2.567,14.598,0.037,20.243,1.531c0.479-0.181,0.299-1.513,0.884-1.531
		c-0.295-2.287-0.946,0.734-1.761,0c0.227-1.129,0.65-1.926,0.877-3.059c-1.338,0.996-3.528,0.491-4.403,2.297
		c-0.908-0.427-0.934-1.189-0.436-2.297c-0.265,1.316-2.088-0.06-2.2,1.531c-0.656-0.337,0.171-0.978,0-2.291
		c-1.403-1.008-2.686,4.08-3.081,0c-1.737-0.218-1.344,3.271-3.081,3.057c-0.834-1.363-1.777-2.521-3.523-2.297
		c0.143-1.768-0.072-2.941-0.439-3.821c-1.257,1.749-2.913-1.164-3.958,1.527c-0.451,0.087-0.896-3.299-1.326-0.766
		c-0.656-0.662,0.122-1.142-0.436-3.053c-1.662-0.591-2.106,0.934-3.525,0.76c2.349-0.019,2.555,2.993,4.842,4.593
		c-0.177,1.693-2.577,1.021-1.758-1.534c-0.576,2.244-3.401-2.449-3.52,1.534c-1.061,0.312-0.961-1.4-2.2-0.774
		c0.494-0.921,1.254-1.382,0.877-3.818c-0.504,0.271-1.11,1.341-0.438,1.531c-0.396,1.614-3.081-1.516-3.961,0.762
		c0.137,1.043,1.102,0.639,1.761,0.766c-0.097,9.774,6.968,3.411,7.923,8.421c-5.909,0-10.475,0-15.843,0v-2.303
		c-0.601,1.768-1.099,3.706-3.081,3.06c0.784-2.64-0.027-5.014-1.319-6.112c0.044,1.951,0.249,3.645,0.878,4.581
		c-0.374,1.145-1.413,1.107-2.2,1.531c0.14-1.768-0.068-2.935-0.439-3.825c-0.65,0.891-1.111,0.891-1.761,0
		c-0.813,0.112-0.268,2.593-0.881,3.068c-0.653-0.647-0.638-2.471-0.881-3.83c-1.092-0.112-2.135-0.144-2.2,1.527
		c0.137,1.316,1.528-0.989,1.323,2.303c-2.154-1.002-2.77,0.084-4.839-0.774c0.19-0.931,0.56-1.568,1.316-1.528
		c0.324-2.079-0.872-1.531-0.877-3.053c-0.433,0.01-0.343,0.934-0.439,1.525c-0.875-0.526-1.176-2.036-1.326-3.831
		c1.689,3.438,4.285-1.544,5.284,0.774c0.955,0.125,0.199-2.717,0.438-3.827c-2.262-0.582-3.457,1.524-4.397-0.766
		c-0.517,0.121-0.374,1.394-0.445,2.293c-1.867,0.822-3.554-4.186-3.958,0.766c-1.276-1.783-4.071-2.651-5.72-1.527
		c-0.529-1.012-0.174-1.201,0-2.291c-0.66,0.896-1.802,0.943-2.204,2.291c-0.992-0.421,0.536-1.195-0.436-2.291
		c-1.929,5.104-5.645,1.84-9.684,3.053v-2.293c-0.632,2.284-2.293-2.004-2.2,1.531c-0.436-2.126-2.269-0.125-1.316-3.063
		c-6.324,1.235-9.006,3.797-12.33,1.531c-0.398,0.215-1.167,3.389-0.436,3.059c-0.656,1.581-3.821,1.086-3.961-0.766
		c-1.136,0.184,0.604,1.316,0,3.06c-5.312-3.859-10.363-5.415-15.401-4.587c-1.319-0.504,0.417-1.634,0-3.06
		c-3.013,0.296-2.15,2.661-4.839,3.06c0.631-6.924,6.363-0.853,7.039-6.878c1.799,1.351,2.079,2.381,3.961,2.287
		c0.517-0.121,0.371-1.391,0.436-2.287c10.979,0.075,16.036,2.727,26.847,0.76c0.324,2.24,1.332,3.283,2.2,4.593
		c1.201-0.697-0.781-2.683,0.442-3.827c1.154,1.593,0.23,3.229,0.877,4.587c0.772-1.718,2.508-1.755,2.639-4.587
		c1.478,0.69,0.389,1.715,0,3.056c-0.206,1.733,2.39-1.758,2.642,0.771c0.52-0.127,0.371-1.396,0.439-2.3
		c2.079,0.321,2.418,0.246,3.961,2.3c0.479-0.192,0.302-1.524,0.881-1.534c-0.065-1.419-1.491-0.47-1.762-1.531
		c1.009-2.125,2.334,1.046,3.523-0.762c-0.324,0.712-0.803,1.151-1.319,1.527c2.58,3.252,3.66-2.094,6.162-1.527
		c-0.006-1.522-1.201-0.971-0.881-3.053c0.352,0.517,1.204,1.179,1.319,0c1.096,0.108,0.128,2.583,0,3.053h2.197
		c-0.722-1.525-1.232-2.683,0-3.828c-0.283-0.771-1.008-0.784-0.877-2.293c-2.331,2.617-5.851-2.16-7.04-1.528
		c0.321,0.713,0.797,1.157,1.319,1.528c-0.137,1.042-1.102,0.638-1.761,0.766c0.246,1.564,1.322,1.5,0.441,3.059
		c-2.06,1.204-1.466-0.641-3.52-0.756c0.485-2.402,0.206-2.026-0.441-3.831c-1.426,0.33-0.361,4.985-2.643,3.831
		c-0.326-2.359,1.211-1.473,0.884-3.831c-1.755-0.501-1.26,2.909-1.325,5.358c-0.983-2.875-4.143,1.201-4.397-3.83
		c1.288-2.254,1.78,0.78,2.639,1.527c0.642-0.659,1.706-0.604,1.323-3.056c-0.663-0.902-1.245-1.923-1.764-3.056
		c-0.902,0.719-0.909,3.003-2.197,3.056c-0.859-1.429-0.137-2.801,0-4.59c-1.988,0.056-5.206-1.998-8.362-3.06
		c0.383-1.879,1.027-3.313,2.639-3.059v2.3c0.557-0.881,2.334-2.686,1.322,0c5.001,1.335,8.782-4.6,14.085-0.772
		c-0.072,1.905-1.497,0.222-1.762,0c-0.305,2.061,0.909,1.484,1.316,2.297c0.423-4.624,5.163-3.504,7.923-3.824
		c0.165,1.304-0.345,1.438-0.88,1.527c1.394,1.594,2.284-0.69,3.52-0.762c0.591,0.501,0.818,1.631,0.884,3.059
		c3.84,0.071,6.252-0.965,10.559,0c-3.031,4.466-8.359,1.799-11.004,0c0.246,6.28-5.695,1.571-7.039,3.828
		c3.28,1.618,5.639,2.138,8.8,1.531c0.115,2.738,0.246,5.063,0.884,5.355c0.053,3.693-2.293-0.355-2.645,1.527
		c0.411,1.329,1.375,1.681,2.645,1.525c0.899-0.215,0.877-2.042,1.316-3.053c1.59,0.444,2.95,1.282,4.403,0
		c0.081,0.644-0.174,0.716-0.442,0.756c-1.201,0.694,1.338,1.715,0,3.059h1.761c-0.038-1.207,0.211-2.909-0.439-3.059
		c0.654-2.132,3.657-3.202,3.959,0c1.291-0.05,1.633-1.742,2.2-3.059c-0.283-0.775-1.014-0.791-0.877-2.294
		c0.847-1.484,2.695-0.797,2.2,2.294c6.781,3.248,11.825-0.601,18.481,1.527c-0.401,2.779-1.301,0.47-2.642,0.775
		c0.354,6.554,3.205-1.4,3.964,2.287c1.316-0.501-0.423-1.634,0-3.063c1.795-1.823,2.315,1.553,3.961,0
		c0.392,3.797-1.447,3.152-2.645,2.303c0.352,4.603,5.981,1.503,3.081,0.76c2.929-1.133,5.664,1.59,8.362-0.76
		c0.541,0.33,0.905,0.968,0.877,2.287c1.407,0.458,1.366-1.431,2.204,0c0.946-1.142-0.314-1.863,0.439-3.814
		c-1.002-0.222-1.653,0.174-1.762,1.527c-1.705-1.058,2.959-3.696,0.445-3.83c2.025-2.742,3.609,1.509,5.277,0
		c0.028,2.754,3.569,3.481,0,3.059c0.632,1.12,0.645,2.963-0.88,2.297c1.179,2.293,2.185,0.902,3.52,0
		c0.389,1.354,1.394,2.231,0.442,3.827c1.721-1.351,4.167-1.422,5.72-3.065c1.307,4.971,4.687,0.327,5.281,0
		c4.857-2.62,7.929,2.378,11.884-1.527c1.447-0.946,4.509,5.032,5.278,0c-0.314-1.407-3.305,1.385-1.758-2.287
		c-0.943-0.364-0.84,1.086-0.88,2.287c-1.245-2.179-1.874-1.954-3.52-2.287c-0.653,0.323,0.171,0.971,0,2.287
		c-1.098,0.118-1.363-1.201-2.2-1.531c-0.65,0.336,0.171,0.986,0,2.297c-0.921,0.323-1.167-0.52-1.762-0.766
		c2.182-1.796-1.164-3.323-1.319,0c-2.807-1.07-5.794-4.319-7.92-0.76c-2.614-2.33-5.169-3.36-9.246-1.527
		c0.072-0.899-0.096-1.369-0.439-1.538c-0.081-1.668,0.361-2.43,1.319-2.293c0.141-2.026-2.464,0.713-1.758-2.297
		c-0.165,1.771-1.927,0.734-1.762,3.06c-0.625-0.928-1.002-2.916-0.438-3.818c-1.307,0.271-2.231,1.22-3.081,2.29
		c-1.366-0.181-1.708-2.132-2.642-3.065c-0.355,0.663-1.205,0.464-1.319,1.534c-0.542-0.33-0.906-0.977-0.881-2.293
		c-1.846,1.139-2.704-1.192-3.52,3.065c-1.404-1.638-1.304-1.127-2.639,0c0.576-2.307-2.387-3.934,0-4.594
		c-0.115-0.635-3.647-0.781-3.523,1.528c-0.821-2.275-0.616-3.442-2.642-2.294c-0.672-4.304-0.38-3.728-2.636-3.059
		c0.862-1.89-0.925-4.064-1.326-6.121c-0.725-0.324,0.044,2.847,0.442,3.062c-0.156,1.192-0.775-0.672-0.878,0.766
		c-1.011-2.072-2.091-4.015-2.642-6.884c-0.393,0.592-0.993,0.815-1.762,0.763c0.815-1.466,0.806-0.601,0.442-3.059
		c1.992,0.578,2.303,2.896,4.397,1.53c-0.522,3.859,4.04,1.606,2.643,4.597c2.101,0.837,0.989-3.902,2.2-4.597
		c2.579,0.321,4.297,2.826,6.604,1.528c-0.221-1.901-1.174-2.549-1.32-4.593c0.264,6.302-6.967-2.023-7.923,4.593
		c-1.814-0.946,0.168-2.229,0.439-3.818c-0.393,0.588-0.993,0.821-1.762,0.76c0.016-0.744,0.542-0.592,0.881-0.76
		c0.056-1.375-0.535-1.621-0.436-3.063c-0.791-0.103-0.931,0.934-1.762,0.763c0.38,0.619,0.258,2.101,0.878,2.3
		c-0.003,2.138-1.201-1.823-0.878,1.531c-0.737-2.53-2.113-1.678-3.084-2.306c0.125-1.762,1.18-1.749,1.762-0.76
		c-0.14-1.786-1.36-1.708-1.762-3.059c-0.513,0.121-0.37,1.394-0.441,2.293c-2.627-3.389-4.4,0.635-7.04-3.053
		c1.911-9.861-2.091-13.098-6.162-11.477c-0.476,0.184-0.296,1.519-0.881,1.528c0.374,0.725,1.086,0.51,2.646,0.765
		c0.669,4.927,2.496-0.286,1.316,7.649c-0.333-3.498-2.387-4.005-3.962-5.346c-0.663,0.653,0.122,1.139-0.436,3.053
		c0.122,1.574,1.173,1.519,1.758,2.293c-2.461,3.66-4.055-0.996-7.039,0c-0.405-3,2.322-0.557,2.639-2.293
		c-0.682-1.114-0.39-3.918-0.439-6.121c1.248-0.794,1.833-0.794,3.081,0c-0.488-5.051-4.92,1.443-5.281-3.818
		c-0.719,1.304-0.728,3.837-1.761,4.583c-0.302,2.061,0.908,1.479,1.319,2.304c-0.766-0.306-3.367,5.731-4.397,0.756
		c1.404-0.448,1.36,1.438,2.197,0c-0.563-2.126-2.256-1.759-2.642,0c-0.348-1.12,0.563-2.022,0-5.353
		c-0.214,2.179-1.332,2.782-1.758,4.597c-0.239-3.414-2.523-3.271-3.52-5.356c-0.725,0.726,0.034,3.723-1.319,3.818
		c1.711,3.635,5.424,3.477,7.042,5.353c0.006,1.806-0.759,2.253-0.445,4.591c0.258,2.131,4.04,2.109,4.407,1.527
		c1.301,2.483-0.632,2.848-1.326,3.06c0.106,2.361,2.191,1.291,1.762,4.59c-0.803-1.668-3.598,0.137-4.397-1.531
		c0.134-1.033,1.099-0.632,1.759-0.763c-0.763-2.144-1.155-0.716-2.639-0.766c-0.159-2.277-1.814-1.957-1.323-5.353
		c0.355,0.405,0.713,0.8,1.323,0.763c0.156-4.139-2.938-2.381-1.761-4.587c-0.847,1.335-2.58,1.12-3.081,3.06
		c-0.33,2.613,1.786,0.977,1.316,3.827c-1.307,0.784-3.517,0-3.961,2.29c-0.623-1.021-1.158-3.4-0.436-4.59
		c-2.81,0.47-4.139,3.52-7.923,2.3c0.218-3.149-1.519,0.734-0.438-2.3c-5.076,2.667-6.265,1.469-10.562,0.766
		c0.23-0.606,0.458-1.245,0.442-2.293c-0.448-2.15-1.87,0.208-2.642,0c0.433,1.042,1.176,1.527,1.761,2.293
		c-1.372,0.679-2.172,2.34-3.522,3.065c-0.367-0.902-0.579-2.054-0.439-3.831c-1.752-0.551-1.771-0.551-3.52,0
		c-0.775-1.608-0.993-2.256-0.442-4.587c-0.787-0.097-0.927,0.937-1.758,0.763c0.318,3.031-1.746-0.1-1.761,3.824
		c-1.348-2.71-1.379,0.713-3.081-0.763c-0.383-3.504-1.839-4.422-1.761-6.883c1.064,0.05,2.396,0.79,2.2-2.287
		c1.593,1.123,0.243,5.458,2.204,7.64c0.968-1.88,1.776-4.043,2.2-6.884c1.684,0.74,2.87-1.759,3.961,2.297
		c1.525-0.956,0.81-2.226,1.316-3.828c2.25,0.98,0.467-2.231,1.323-2.293c1.005,4.095,3.902,1.53,3.961,6.121
		c1.111,0.812,2.508-1.612,1.319-2.297c0.106-1.967,0.756,1.052,1.758,0c-0.489,1.954-1.341,3.273-2.639,3.824
		c1.886,2.222,3.853,1.239,4.843-1.527c-1.338-0.965-1.547-1.979-0.445-3.828c-0.271-1.559-2.219-0.212-1.758-3.056
		c3.772-1.348,3.585,10.512,7.923,10.711c0.51-1.151,1.27-1.876,1.319-3.827c-0.815-2.338-2.091,0.88-3.523,0
		c0.041-1.093,0.072-2.169-0.439-2.297c1.995,0.178,4.086-0.937,7.042,0c0.125,1.241-0.414,1.316-0.439,2.297
		c2.229-0.818,2.216,2.259,3.52,3.056c0.744-2.559,2.3,1.403,4.397-0.763c-0.174-1.475-2.014-0.065-1.316-3.059
		c-0.464,0.295-1.425-0.271-1.911,0c0.507-2.017-0.712-4.581-2.493-3.825c-0.501-2.047,6.149-5.935,3.522-9.177
		c0.153,1.896-1.076,3.404-1.764,0c-0.417,2.854-1.167,3.722-3.956,5.358c-0.246-1.699,0.841-1.095,0.878-2.306
		c0.311-1.226-2.076-1.226-1.758,0c-0.921-0.685-1.344-2.253-1.323-4.577c2.263-0.854,5.431-1.311,6.159,0.759
		c0.996-0.566,0.174-4.288,0.445-6.111c2.026,0.706,4.148,0.497,4.842,0.759c0.753,0.983,0.544,3.641,1.758,3.821
		c1.817-0.911,3.952-1.288,4.4-4.58c1.727,0.56,3.342,1.319,4.842,2.287c-0.51,1.133-0.51,1.933,0,3.065
		c0.769,0.208,2.194-2.157,2.636,0c0.539,0.229,1.519-2.213,0.445-2.3c0.05-1.684,1.861-0.327,2.636-0.766
		c-1.316,0.644-1.634,5.778-3.081,3.824c-0.258,2.437,0.828,2.365,0,3.818c0.396-0.464,0.788-0.921,0.881,0
		c1.04-0.233,0.262-3.616,1.765-3.053c-0.94,4.432,3.137,0.152,2.197,4.587c1.565-1.497,1.603,1.002,3.525,0.771
		c-1.684,2.169,0.566,3.922,1.316,6.112c0.075-5.542-0.644-11.471-4.842-9.942c0.538-2.126,2.704-1.423,4.403-1.528
		c0.053,1.951,0.641,2.966,1.758,3.053c-0.087-1.432,0.364-4.432,2.642-3.818c-0.286-0.774-1.008-0.784-0.88-2.293
		c-0.374,0.719-2.807,1.63-3.081,0c2.3-4.167,7.31-0.775,9.239,0.762c0.775-0.697,0.806-2.679,1.323-3.821
		c0.597,0.239,0.364,1.917,0.439,3.06c2.495-1.03,4.936,0.463,6.604-3.06v3.06c2.178,0.983,2.163-1.852,3.958-1.531
		c-0.632,1.348-0.404,1.749,0.881,1.531c-0.813,1.472-0.806,0.601-0.439,3.059c-0.694,0.065-1.68-0.367-1.761,0.766
		c1.472,2.35,5.872-2.253,6.601,1.528c0.357-0.146,0.438-0.77,0.884-0.766c0.541-4.002-5.25-4.298-3.962-4.587
		c1.948-0.367,2.185,1.048,3.517,0c0.208,5.256,3.249,5.576,6.165,6.111c0.389-0.336,0.784-0.663,0.877-1.524
		c-0.374-1.136-1.416-1.105-2.2-1.528c-0.448,0.501-0.455,1.758-1.32,1.528v-3.053c-0.635,3.027-1.459-0.424-1.761,0.759
		c-0.791-3.364,2.716-1.13,3.961-3.059c-0.342,0.678-0.473,1.724-0.438,3.059c0.847-1.413,0.346-1.4,1.758-0.759
		c0.327-2.362-1.516-0.934-0.877-3.828c0.918-0.323,1.164,0.532,1.758,0.763c0.485-4.553-2.24-0.613-2.639-2.287
		c1.22-1.715,2.888-2.633,3.958-4.597c-1.527,0.103,0.293-3.021,0-5.353c1.687,0.128,2.263,2.197,3.081,3.824
		c1.537-0.224-0.034-2.069,0.881-2.29c-0.377-1.136-1.104-1.646-2.2-1.534c0.342-0.682,0.47-1.728,0.442-3.059
		c0.463,0.463,0.896,0.968,1.319,1.493c0.031-1.207-0.208-2.872,0.439-3.024c1.521-0.825,1.183,4.503-0.377,3.096
		c0.663,0.838,1.273,1.771,1.696,3.028c0.582-1.264,1.214-7.055,3.084-8.418c-2.029-2.228-5.098,0.461-8.804-0.763
		c0.694-1.985,2.835-1.021,5.278-1.524c0.638-2.903-1.208-1.469-0.877-3.831c2.331,0.134,2.244,0.495,4.403,0
		c-0.05,1.958-1.479,1.516-2.646,1.528c0.532,1.776,3.946,1.089,4.404-0.763c0.631,1.382,0.099,2.344,0.439,5.353
		c-1.998-2.085-1.79,2.651-0.881,4.59c-0.769,0.704-1.525,1.426-1.316,3.828c-0.582-0.273-0.697-1.345-1.322-1.534
		c-1.012,1.046-1.416,3.152-2.204,4.59c0.613,1.497,2.275-1.603,3.526-1.524c0.821,1.341-0.523,2.228,0.436,3.818
		c1.096-0.087,1.363-1.429,2.203,0c-0.942-2.437-0.974-6.47-0.88-10.702c1.78,2.428,0.516,1.403,2.639,0
		c0.352-0.128-2.636,6.357,0.444,8.408c0.869-1.964-0.438-3.1,0.436-6.118c1.332,2.029,1.96,1.806,3.523,2.288
		c0.924-0.209-0.642-2.039,0.438-3.054c1.21,1.821,0.174,3.106,1.319,5.359c-0.769-0.71-2.358,0.024-2.2-2.306l-2.642,2.306
		c1.6,4.378,5.219-2.004,6.165,1.524c0.846-0.311,0.342-2.969,1.758-2.296c0.52-4.73-1.547-4.955-2.203-7.646
		c-1.148-0.398-1.497,4.435-2.636,1.534c-0.815,0.112-0.271,2.589-0.881,3.053c-1.195-2.981-1.432-1.073-3.078-3.824
		c0.632-3.899,2.11,2.243,3.078,0c0.208-3.165-2.057-2.029-3.078-3.057c0.349-2.647-0.659-2.943-0.444-5.355
		c1.705-0.662,1.568,1.867,2.642,2.303c0.358-0.155,0.436-0.774,0.881-0.774c-1.242-1.307-1.024-0.943-1.323-3.056
		c-1.749,0.131-2.57,0.224-3.958,2.293c-0.613-0.965-0.189-3.743-1.322-3.818c0.438,3.162-1.954-0.548,0-3.065
		c0.171-0.214,0.647,1.158,0.881,0.76c0.781-1.329,1.692-4.936,3.081-3.818c-0.187-1.708-2.172-0.312-3.081-0.76
		c-0.081-2.938,0.357-0.279,1.319-0.771c-1.232-0.396-0.853-3.613-2.2-3.821c-1.254,0.949,1.914,2.229,0.442,3.821
		c-3.759-2.029-4.297,3.473-7.484,5.35c1.528,0.128,4.462-1.406,6.162,0.774c-0.445,1.516-0.763,3.259-1.758,3.818
		c-1.684-2.15-3.722,0.526-5.281-2.287c-0.598,0.233-0.367,1.911-0.442,3.053c-1.192-1.023-3.321,0.109-2.2-3.053
		c-3.019,1.192,0.096,5.399-1.758,6.884c0.134,1.033,1.104,0.626,1.758,0.76c-0.302,1.509-1.173,2.038-2.197,2.293
		c-0.038-2.518-0.156-7.341-2.203-8.411c-0.517,0.124-0.374,1.391-0.439,2.293c-0.777-0.685-0.56-3.1-2.2-2.293
		c1.541-2.761-2.039-4.783-3.081-3.057c0.635,0.149,0.986,1.382,2.639,1.531c-0.529,1.87-2.048,2.045-2.197,4.581
		c-0.774-0.181-1.005-1.313-0.881-3.056c-2.421,0.566-4.593,0.255-7.48,0c0.187-1.201,1.385-0.654,0.88-3.057
		c-2.62,2.402-4.102,2.897-8.365,3.057c0.37,2.732,1.086,0.09,2.645,0.762c0.314,2.092-0.875,1.547-0.88,3.068h1.316
		c-0.137,1.027-1.102,0.629-1.759,0.757c0.442-2.559-0.613-2.502-1.758-2.294c-0.588-1.615,0.215-2.262-0.445-4.59
		c-0.905,0.407-0.103,3.625-1.316,1.531c-0.121,1.742,0.106,2.878,0.878,3.059c-1.329,0.75-3.679-1.627-6.601,0
		c0.771-1.715,2.935-1.021,2.639-4.59c-0.193-1.257-3.323-1.257-3.52,0c-1.462-0.246,1.161-3.339-0.438-3.821
		c-1.232,0.743,0.638,2.038-0.439,3.062c-3.019-4.235-4.854,1.429-6.604-3.062c-0.299,1.519-2.621-0.477-2.2,2.287
		c-1.344,0.557-1.292-1.319-2.639-0.76c2.31-7.394-3.015-0.855-3.52-6.883c0.884,0.264,1.379-0.153,1.32-1.528
		c8.225,2.549,18.498-1.531,25.521,2.294c0.078,1.668-1.563,0.348-2.2,0.765c1.186,1.544,0.604,2.59,1.765,3.06
		c-0.71-2.692,2.147-2.559,2.639-5.353c1.55,2.567,2.667,1.354,3.961,1.528c0.053,1.372-0.542,1.611-0.442,3.059
		c0.374,0.725,2.271,2.564,2.642,0.766c-0.193-1.133-0.566,0.305-1.326,0c0.488-2.474,2.3-2.633,2.645-5.353
		c1.332,3.865,3.557-2.707,3.961,2.293c-1.27,0.091-2.882-0.417-3.522,0.763c1.817,4.235,4.151-1.967,5.284-3.821
		c-0.072-0.899-0.803-0.647-1.326-0.76c1.839-4.036,4.979-0.796,7.046-0.771c0.071-0.881-0.097-1.356-0.442-1.531
		c-0.074-1.655,1.563-0.345,2.2-0.762c-0.23,0.616-0.46,1.238-0.438,2.293c1.873,0.312,4.534-0.734,5.72,0.771
		c-0.912-1.729-2.051-3.064-3.962-3.064c1.301-2.142,2.017-3.172,0.878-6.125c3.031,1.198,2.704-3.46,4.842-3.818
		c0.187,1.597-0.298,2.029-0.438,3.06c3.61-3.309-3.289-5.287-2.642-9.171c-2.144-0.165-2.147,3.401-4.397,3.053
		c0.065-1.901-0.694-2.371-0.881-3.824c-1.382-0.377-1.164,2.636-2.197,0.771c3.952-3.862,5.014-0.508,8.359-3.065
		c-2.007-1.876,1.587-2.673,1.316-6.124c1.721,0.787,0.551,3.473-0.436,3.831c1.525,4.362,2.757,1.621,4.397,3.83
		c0.744-1.264,0.551-4.148,1.319-5.355h0.006c1.948,0.367,2.664-0.221,2.636-1.531c1.674-1.126,0.084,3.42,1.761,2.291
		c1.289-0.647-0.264-2.468,0-3.825c1.46-0.245,0.479,3.763,2.643,2.294c0.65-0.33-0.175-0.978,0-2.294
		c1.369,0.424,2.197,1.79,2.636,3.825c-0.128-2.365,0.964-4.927,0.445-7.644c-2.372,2.391-4.055,2.02-7.923,0
		c-0.622,2.253-1.089,4.684-2.197,6.884h-0.003h-0.003c-0.261,0.52-0.522,1.039-0.874,1.525c-1.447-1.202-1.942-1.14-3.081-1.525
		v-3.065c1.749,0.561,1.771,0.561,3.517,0c0.43-2.788-2.141-0.349-1.316-3.818c-1.519,2.203-4.428,0.993-5.726,1.525
		c1.294-2.347,3.495-3.103,4.404-6.118c0.656,0.336-0.178,0.983,0,2.293c0.961-0.121,0.945-1.926,0.88-3.824
		c2.116,1.083,2.797,2.657,3.958,3.824c0.187-1.416,0.983-1.151,0.441-3.824c0.753,3.569,2.35,0.98,4.843,1.531
		c-1.332-2.478-1.261-1.519,0.438-3.063c-0.063-1.257-1.833,0.803-3.081,0c-0.127-0.747,3.75-2.206,1.316-5.353
		c1.04-0.019,1.298,1.316,2.646,0.772c-0.417,2.626-0.84,9.488,2.197,8.408c-1.867-3.097-0.986-3.98-0.88-8.408
		c1.948-0.128-0.209,2.149,0.88,3.053c0.965-0.112,0.946-1.921,0.884-3.825c2.026-0.713,1.817,2.449,2.642,3.825
		c-0.404,2.081-0.821-2.039-2.203-0.766c-0.24,5.156,2.987,0.062,2.639,4.596c0.199-2.71,2.085-2.505,3.962-2.303
		c0.249-5.116-2.123-4.605,1.322-6.887c-0.009-1.519-1.201-0.965-0.881-3.053c1.17,1.911,2.023,3.131,3.52,0.766
		c-0.448,1.942,1.992,1.382,3.962,2.287c-0.156,2.54-2.536,1.211-3.962,1.534c-0.812,0.118-0.273,2.586-0.88,3.06
		c0.915,1.117,1.942,2.514,0.439,3.824c0.541,2.324,1.516-0.831,2.639,0c-0.286-0.774-1.008-0.784-0.881-2.294
		c2.234-0.407,1.195,0.647,1.762,2.294c1.938-0.713,2.271-4.207,4.403-4.587c-0.33-4.662-3.09-0.343-3.081-5.355
		c1.88,0.591,1.92-0.737,4.839,0c-0.13,1.562-1.188,1.503-1.319,3.059c0.654,2.549,4.046-0.498,2.2-2.293
		c2.63-0.246,4.148-1.13,6.159-3.818c0.379,2.816-0.299,2.859,2.203,3.053c-1.394-2.334,2.154-3.277,3.961-1.528
		c-0.647-2.987-1.78-3.638-0.438-6.877c0.918-0.327,1.167,0.522,1.758,0.759c0.038-2.085-0.731-1.54,0-3.062
		c0.479,0.187,0.299,1.521,0.884,1.53c0.859-2.309,0.766-4.008,2.197-3.824c0.059-1.886,0.065-3.678-0.438-4.593
		c-0.358,0.149-0.442,0.774-0.881,0.774c-1.136,0.181,0.604,1.313,0,3.056c-1.142-0.979-1.329-1.674-2.642-0.766
		c1.111,2.182-0.828,3.7-0.877,0.766c-1.232,0.754,0.635,2.039-0.439,3.057c-2.215,1.045-1.457-3.072-2.203-4.581
		c-2.496,0.809-2.897-2.106-5.72-3.065c0.308-2.744,2.063-1.08,2.636,0c0.741-1.272,0.818-3.682,1.764-4.59
		c-0.323-0.713-0.803-1.161-1.319-1.537c0.374-1.124,1.108-1.637,2.2-1.519c-0.04,2.085,0.729,1.537,0,3.056
		c0.771-0.181,1.002-1.313,0.881-3.056c1.018,1.142,0.837,2.159,0,3.056c-0.075,1.658,1.562,0.349,2.2,0.771
		c-0.741-1.27-0.352-4.497-0.439-6.88c0.974,0.843,1.189,3.021,2.197,3.814c1.148-2.411,4.824-0.398,7.042-2.287
		c0.974,1.096-0.554,1.861,0.439,2.287c1.235-0.746-0.638-2.038,0.442-3.059c1.475-0.529,1.441,1.571,2.2,2.297
		c0.579-0.265,0.691-1.357,1.316-1.525c-0.348-3.134-1.814,0.393-2.636-1.527c0.162-2.776,3.218-0.526,3.517-3.068
		c0.952,0.65,0.71,3.357,1.323,4.596c-0.174-2.791,1.033-5.216,3.961-4.596c-0.137,1.036-1.102,0.638-1.758,0.765
		c1.267,2.402,3.034-0.8,3.081-3.053c3.358-0.572,3.85,1.158,7.036-0.771c0.215-2.405-1.351-1.733-0.877-4.587
		c2.826,0.619,1.945-4.055,4.397-6.118c1.563,0.255,1.083,2.104,2.643,0.766c0.395-2.474-1.435-1.077-1.762-2.297
		c-0.386-2.452,1.142-1.58,1.323-3.059c0.339,1.702,1.459,2.051,1.319,4.59c0.302,1.018,1.176-0.373,2.2,0.766
		c-0.078-2.163-2.091-0.955-1.761-3.828c1.677-0.363,2.751,0.324,3.081,2.297c0.165,1.301-0.342,1.444-0.877,1.531
		c0.053,1.687,1.864,0.323,2.639,0.763c0.14,8.558,7.736-5.854,9.239,3.824c2.627-0.734,3.588,1.419,4.843,3.06
		c0.357-0.146,0.438-0.77,0.88-0.766c0.314-2.069-2.076,0.551-1.761-1.528c0.152-3.121,1.157,0.031,2.203-1.524
		c0.177,5.041,2.172,6.917,5.278,6.883c0.199-3.152-1.572-2.875-1.758-5.358c2.007-0.43,2.742,1.356,4.842,0.766
		c0.29,3.821,2.614,4.126,3.958,6.118c-0.364,1.652-0.393,4.459-1.762,6.118c3.168,2.368,6.691,3.864,10.123,3.821
		c-1.692,2.415,0.364,2.178,0.881,4.59c0.784-0.423,1.827-0.398,2.197-1.528c-2.437-1.478-3.968-9.718-7.039-5.355
		c0.616-4.378-2.02,0.623-1.759-3.814c0.921-0.33,1.164,0.517,1.759,0.756c-1.563-2.381-2.633-5.617-2.639-10.705
		c1.643-0.053,2.521,1.232,3.083,3.063c0.837-0.33,0.794-2.191,2.197-1.534c-2.471,2.993,2.521,2.891,1.762,7.646
		c2.542,0.044,3.961,2.116,6.158,0.775c-0.056,1.91-0.84,2.383,0.438,3.053c1.357-2.879-1.789-3.233-0.438-6.884
		c1.892,1.559,5.269,0.532,5.723,4.587c5.029-3.824,10.556-3.713,11.882,6.124c2.34,1.005,1.63-3.283,3.081-3.827
		c-0.921-2.315-1.955-2.745-3.081-3.053c1.098-2.559,4.422,0.37,6.158,0c-0.999-4.631-0.339-6.218-0.438-9.949
		c1.605,2.048,2.81,6.662,3.081,13.002c-0.588-0.766-0.865-2.066-1.761-2.297c-0.971,1.677,0.771,2.539,0.877,4.59
		c2.365-4.254,3.374,3.38,6.604,2.294c-2.191-1.096-1.805-5.098-3.52-5.353c0.401-1.342,0.822-2.658,2.2-2.287
		c-0.074-3.7-0.196-7.311-1.761-8.421c2.464-4.305,4.537,2.642,4.4,7.646c1.512,4.012,4.671,5.147,4.407,12.233
		c0.999-2.396,0.127-1.883,1.758-0.76c0.352-0.146,0.439-0.769,0.878-0.766c-1.313-3.189,0.865-8.906-1.758-12.236
		c0.902-2.421,1.955,0.134,3.52,0.766c-1.646,3.122,1.69,2.804,0.439,4.591c0.109,1.584,1.933,0.202,2.203,1.519
		c0.958,0.146,1.397-0.616,1.319-2.284c2.929-2.412,6.703,3.124,10.12,3.821c0.958,0.196,2.347-0.713,3.522,0
		c2.222,1.356,2.079,3.433,5.278,4.59c4.786,1.733,8.984,4.783,11.881,9.177c1.064,0.312,0.956-1.396,2.203-0.756
		c10.338,14.931,19.086,30.603,21.121,56.584c0.874-0.006,0.56-2.078,1.761-1.527c0.371,0.893,0.582,2.051,0.439,3.83
		c4.254-1.082,2.816,8.116,3.081,12.996c0.46,8.482,2.197,21.319-2.2,26.769c0.968,2.707,0.336,4.762,0.444,9.181h-1.764
		c4.525,11.243-3.193,20.063-3.52,30.587c-0.376,1.646-1.086,2.707-2.639,2.3c-1.78,16.533-11.775,18.793-14.965,32.887
		c0.771,2.253,2.343-0.451,3.517,0c-0.187,5.057-2.68,3.572-4.397,3.053c-0.688,3.65-3.8,3.084-3.961,7.652
		c-8.527,4.319-13.378,19.045-22.443,19.879c-0.613,2.508-3.012,1.907-3.961,3.824c-3.893-2.508-6.678,2.947-9.242,3.831
		c-3.918,1.345-6.753,0.713-11.439-0.771c-2.16-0.688-5.126,0.563-7.04,3.059c-0.918-0.448-1.425-1.605-2.2-2.287
		c-7.07,5.169-14.486,7.443-22.882,5.353C267.326,264.768,266.184,264.815,265.782,266.162z M212.095,24.487
		c-1.382,0.373-1.164-2.633-2.197-0.763C209.683,26.901,211.451,25.709,212.095,24.487z M213.853,31.37
		c-1.257-0.146-2.402-0.096-2.197,2.294C213.175,34.267,213.592,32.951,213.853,31.37z M186.568,42.078h1.765v-2.29
		C186.919,39.119,186.957,40.955,186.568,42.078z M206.814,45.9c0.053,1.954,0.081,3.939,1.323,3.827
		c-0.025-1.049,0.206-1.684,0.436-2.297C207.925,47.033,207.464,46.301,206.814,45.9z M199.772,43.606
		c2.312,0.477,0.464,1.521,0,3.068c0.874-0.579,3.858-1.395,3.081-2.303c-1.82,0.202-1.771-0.905-1.323-3.053
		c-0.656,0.121-1.621-0.28-1.758,0.759C201.602,42.184,199.859,42.583,199.772,43.606z M197.572,46.674
		c0.271-0.962,2.816-3.861,0.881-3.831C198.863,44.913,195.736,44.626,197.572,46.674z M194.936,47.43
		c-1.186-0.601-1.762-0.248-0.445-2.293c-0.601,0.031-0.968-0.358-1.319-0.766c0.324,2.085-0.875,1.54-0.881,3.059
		C193.417,46.6,194.391,49.755,194.936,47.43z M203.294,51.246c1.382-0.868,1.064,1.214,1.758,1.537
		c0.791-2.772,0.084-2.838-0.442-5.353c0.246,0,0.501-0.612,0-0.756C203.581,48.174,204.25,48.915,203.294,51.246z M189.649,55.08
		c0.824,0.041,0.934-0.591,0.441-1.524c1.127-0.084,1.541-1.407,2.2-2.31C190.595,51.109,189.764,52.469,189.649,55.08z
		 M203.294,57.374c-0.803-3.482,0.398-5.761-1.765-6.884c0.022,1.052-0.205,1.684-0.438,2.293
		C202.233,53.082,201.888,55.895,203.294,57.374z M183.932,59.667c0.535,0.087,1.039,0.23,0.877,1.531
		c1.323,0.457,2.496-3.221,1.323-4.59c-0.302,2.259-1.124,2.872-1.762,0.766C184.393,58.428,184.163,59.057,183.932,59.667z
		 M178.648,65.019c1.108-1.385-0.361-7.852-1.758-3.821C177.739,62.013,178.038,63.787,178.648,65.019z M171.17,68.847
		c2.19-0.676,4.083,1.089,4.396-1.525c-1.354,0.566-0.846-2.106-2.2-1.527c0.295,5.563-1.867-1.572-2.639,1.527
		C171.553,67.276,171.659,67.911,171.17,68.847z M162.367,68.082c-1.04,0.019-1.298-1.326-2.639-0.76
		C159.108,69.765,162.36,69.251,162.367,68.082z M171.606,78.787c0.538,0.087,1.045,0.23,0.88,1.531
		c0.775-0.7,2.2-0.265,2.645-1.531C174.307,78.616,172.212,76.823,171.606,78.787z M171.17,75.727
		c2.219,1.516-0.903-0.793-0.881,0.766c0.42,1.603,4.055,0.604,2.642-0.766c-0.028,0.471-0.068,0.899-0.445,0.766
		C173.174,74.617,170.993,74.24,171.17,75.727z M165.886,74.965c-0.178,1.839,0.806,1.661,0.441,3.821
		C168.058,78.864,167.893,74.2,165.886,74.965z M165.008,78.027c-0.028,0.461-0.065,0.902-0.441,0.76
		c0.205-2.381-1.183-2.863-1.32-0.76c0.345,0.168,0.865,0.016,0.88,0.76c-0.342,0.177-0.51,0.644-0.438,1.531
		C164.544,80.678,165.936,78.267,165.008,78.027z M157.085,87.966c0.703-1.584,1.556-2.903,2.642-3.827
		c-0.607,0.037-0.971-0.364-1.323-0.763C158.617,85.586,155.672,86.19,157.085,87.966z M140.804,102.497
		c0.071-1.214,0.986-4.099,0-6.125c-1.423,3.647-3.274-0.087-3.962,3.831c0.775,0.442,2.586-0.928,2.639,0.763
		c-1.089-0.109-2.135-0.141-2.197,1.531C139.077,103.134,138.796,102.608,140.804,102.497z M142.562,103.258
		c1.762-0.874,1.41-7.032,3.962-5.353c-1.893-1.6-1.491-6.326-3.517-9.177c0.199,5.315,1.646,4.733,1.316,9.949
		c-0.875-1.597-1.877-0.025-2.197,1.524C144.286,100.258,141.13,101.952,142.562,103.258z M125.4,113.966h1.322
		c-0.498-1.683-0.507-4.213-1.758-4.587C124.731,112.47,127.177,112.368,125.4,113.966z M122.761,114.732
		c1.092,0.112,2.138,0.134,2.203-1.527C124.062,111.561,122.864,112.806,122.761,114.732z M112.199,114.732
		c-0.242-1.359-0.227-3.171-0.88-3.818c-0.006,1.006-0.772,0.697-0.88,1.525C111.598,112.214,110.783,115.405,112.199,114.732z
		 M129.803,113.966c0.896,0.479,0.125,3.865,1.758,3.06C132.146,114.412,130.581,111.689,129.803,113.966z M128.042,108.615
		c-1.534,2.361,3.14,4.823,3.52,1.527C130.049,110.226,128.403,110.543,128.042,108.615z M128.481,106.321
		c-0.875-0.924-1.877-0.629-2.2,0c0.345,0.171,0.513,0.641,0.441,1.528C127.724,108.063,128.378,107.666,128.481,106.321z
		 M160.167,107.849c-1.211-0.807-2.72,3.473-4.4,2.293C156.815,112.672,159.404,110.251,160.167,107.849z M227.057,114.732
		c-1.245,0.134-3.021-0.656-3.078,1.534C225.221,116.132,226.995,116.929,227.057,114.732z M164.567,130.034
		c-0.769,1.556,0.326,1.497-0.439,3.053c0.607-0.028,0.968,0.364,1.32,0.766c-0.489-4.655,0.473-1.341,0.439-6.118
		c-0.511-0.638-1.177-1.015-2.197-0.766c0.208,2.412-1.351,1.733-0.881,4.59C164.006,132.109,163.692,130.043,164.567,130.034z
		 M167.644,127.734c2.157,1.039,0.33,1.342,0.442,4.59c0.834-0.174,0.971,0.856,1.761,0.763c-1.107-3.289,0.828-0.952,0.881-3.824
		c-1.148,0.215-1.895-0.271-1.758-2.294c0.656,1.211,1.798,0.566,2.2-0.763C169.838,126.439,167.744,125.353,167.644,127.734z
		 M165.447,121.616c-2.013-3.843-4.126,0.081-5.281,3.825c0.56,1.048,2.156,1.182,2.2-0.76c-0.539-0.087-1.04-0.236-0.881-1.528
		c1.886-2.642,2.751,0.01,2.642,2.288c0.175-2.173,2.07,2.854,2.639,0C165.338,125.693,164.426,123.38,165.447,121.616z
		 M159.286,122.378h-1.762c-0.121,1.736,0.109,2.872,0.881,3.063C158.635,124.308,159.058,123.511,159.286,122.378z
		 M177.329,118.557c2.592,0.143-1.827,2.707-0.438,3.059c0.824-1.151,3.806-2.515,2.639-4.59
		C179.423,120.228,177.895,116.161,177.329,118.557z M155.327,128.5c-0.697-2.994,1.139-1.581,1.316-3.059
		c-1.431,0.198-1.267-2.378-2.2-3.063c-0.171-2.854,2.751-0.317,3.081-2.294c-2.212-2.39-2.471,0.054-4.839,0.766
		c1.108-1.854-0.887-1.692-1.758-2.293c-0.33,2.358,1.515,0.934,0.877,3.821c0.66,0.134,1.625-0.273,1.759,0.774
		c-0.657,2.116-1.796-1.331-2.197,0.757c0.865-0.225,0.875,1.03,1.319,1.531c0.274-1.861,2.225-0.405,1.758,1.527
		c-0.831,0.178-0.964-0.855-1.758-0.763C152.526,128.773,154.596,127.479,155.327,128.5z M159.286,129.262
		c-0.228-0.361-3.825-1.728-2.642,0.771C157.424,127.936,158.504,132.691,159.286,129.262z M160.605,132.324
		c-0.302-2.536,0.909-1.235,1.326-0.766c-0.616-2.196,1.195-3.887,0-4.59C161.442,128.222,159.419,130.706,160.605,132.324z
		 M159.728,136.917c0.14-2.555,2.088,2.306,1.758-1.531c-1.447-0.548-1.479-3.548-3.081-3.828c0.022,1.049-0.208,1.688-0.436,2.294
		C160.665,132.766,158.822,135.993,159.728,136.917z M163.689,141.498c-1.388,0.884-1.073-1.191-1.758-1.527
		c-0.009,2.284-1.148,2.596-1.326,4.59C162.226,144.57,162.597,142.41,163.689,141.498z M176.448,142.273
		c1.541-2.057,1.369-1.771,3.523-2.303c-0.924-0.438-1.26-1.896-2.642-1.528C177.659,140.801,176.121,139.915,176.448,142.273z
		 M150.927,143.029c0.532,0.159,0.271,0.847,0,1.531c0.902-1.235,1.776-2.515,3.081-3.063c-0.688-0.202-0.308-1.674,0-2.293
		C152.417,139.619,152.585,141.429,150.927,143.029z M139.926,144.56c-0.071-0.899,0.071-2.172-0.445-2.287
		c-0.124,2.673-1.64-1.927-1.758,0.756C138.255,143.891,138.523,145.213,139.926,144.56z M134.204,147.62
		c0.84-0.321,1.892-0.277,1.761-2.294c-0.274-0.044-0.523-0.118-0.442-0.766C134.362,144.324,134.39,146.15,134.204,147.62z
		 M144.324,148.381c1.453-0.027,1.684-2.175,1.761-4.58C144.833,144.162,144.821,146.702,144.324,148.381z M45.308,168.273
		c-0.171-1.836,2.007,0.427,1.319-2.3c-1.061,0.312-0.952-1.394-2.2-0.766C44.49,166.636,44.717,167.766,45.308,168.273z
		 M63.793,170.563c1.341-0.302,2.237,2.008,2.639-0.765C65.588,168.93,63.721,166.857,63.793,170.563z M77.433,154.506
		c0.429-1.622,3.538-2.981,1.323-4.594c-0.523,3.171-0.959,1.73-2.204,0.766C76.487,152.574,76.474,154.394,77.433,154.506z
		 M141.243,153.731c-0.075-1.136,0.159-2.813-0.438-3.053c0.189,0.653-2.929-0.053-1.762,1.528c0.442,0.006,0.526-0.616,0.884-0.763
		C139.842,153.106,140.284,153.875,141.243,153.731z M116.161,149.913c-0.339,2.229-3.629-0.694-3.962,1.531
		C113.609,152.589,117.467,152.511,116.161,149.913z M105.16,153.731c-1.36-0.942-3.13-1.183-4.842-1.524
		C100.822,155.103,104.114,155.837,105.16,153.731z M98.999,162.149c2.458,0.357,1.692-3.196,2.2-4.587
		c-0.865-1.043-2.514-0.734-3.52-1.525c0.046,1.896,0.822,2.365,0,3.818C99.185,159.258,99.944,160.568,98.999,162.149z
		 M104.718,162.149c1.362-0.896-0.069-1.917,0.877-3.06c0.679,3.922,2.515-2.34,3.084,2.304c-0.112-2.238,0.828-2.643,1.323-3.831
		c-0.61-0.031-0.968,0.364-1.323,0.763c0.097-1.441-0.498-1.688-0.441-3.06c1.646,0.016,4.372,1.699,2.642,3.06
		c1.429,1.571,3.047,1.758,3.52-1.528c-2.309,2.243-1.288,0.228-1.761-2.29c-1.083-0.1-2.123-0.122-2.636,0.759
		c-0.059-1.941-0.644-2.966-1.764-3.059c0.043,2.548-1.56,4.4-4.839,4.59C103.342,159.442,104.257,160.406,104.718,162.149z
		 M125.842,169.798c-1.152,0.295-2.415,0.392-3.081,1.527C123.346,172.256,125.789,172.091,125.842,169.798z M129.361,175.916
		c1.061-0.308,0.958,1.392,2.2,0.766C131.988,173.875,129.402,173.638,129.361,175.916z M121.438,178.209
		c0.414-0.815,1.628-0.239,1.323-2.294c-0.283-0.644-2.061-2.39-2.204-0.759c0.557,0.312,0.903,0.986,0.88,2.287
		c-1.556,0.414-1.08-2.71-2.639-2.287C118.905,177.522,120.362,177.538,121.438,178.209z M176.448,193.504
		c-1.375-0.354-1.403,1.637-1.316,3.825C176.448,197.391,177.36,195.085,176.448,193.504z M160.167,195.036
		c-0.324-1.223-2.153,0.175-1.762-2.29h-0.881c0.003,0.769-0.354,0.911-0.438,1.531
		C158.604,193.231,159.158,197.712,160.167,195.036z M153.563,195.036c-0.862-0.224-0.868,1.036-1.316,1.528
		c-0.517,0.124-1.251-0.131-1.319,0.766c0.765-0.206,2.193,2.156,2.636,0C152.884,197.13,153.261,195.658,153.563,195.036z
		 M167.644,191.211c-0.273,2.859-0.69,4.385,0.881,5.353c0.61-1.743-1.13-2.876,0-3.06c0.781,0.016,1.276,4.295,2.203,1.531
		c-0.996-0.511-2.206-2.297-1.322-3.824H167.644z M163.689,191.211c0.312,2.259,0.115,5.398,1.319,6.118
		C166.063,195.117,164.47,192.612,163.689,191.211z M160.605,190.446c-0.105,1.095-0.725,1.291-0.877,2.3
		c1.79-1.855,1.484,0.513,2.203,2.29c0.093-0.598,0.364-0.887,0.877-0.759C162.724,191.874,161.987,190.588,160.605,190.446z
		 M158.405,188.917c-0.071,0.891-0.694,0.825-1.319,0.766c0.031,3.42,1.005,0.968,1.762,2.287
		C158.772,190.834,159.002,189.158,158.405,188.917z M133.323,190.446c2.085-2.11,4.154,3.009,5.278-0.763
		C137.066,190.181,133.852,186.746,133.323,190.446z M121.88,187.393c0.395,3.858,5.284,3.171,5.284,1.524
		C125.798,189.048,124.155,187.592,121.88,187.393z M122.761,186.621c0.006-1.257,1.223-0.426,1.319-1.527
		c-0.532-0.159-0.271-0.85,0-1.528c-1.901,0.561-2.727-1.727-3.523,0.763C121.843,184.134,122.076,185.771,122.761,186.621z
		 M117.922,191.211c0.846-1.403-0.379-2.583-0.88-3.818C116.123,188.912,117.029,190.651,117.922,191.211z M155.327,191.97
		c-0.616-0.043-1.684,0.175-0.884,0.775c0.831,0.168,0.974-0.865,1.765-0.775c0,0.436,0.358,0.871,0.436,0
		c-1.435-0.861,0.112-2.545-1.758-3.053C154.854,190.244,154.982,191.298,155.327,191.97z M149.166,194.277
		c1.69,1.655,3.059,0.233,3.52-2.307C150.734,191.787,149.396,190.328,149.166,194.277z M135.965,196.564
		c0.137-1.027,0.623-1.457,0.436-3.06c-1.948,1.046-2.785-3.771-3.078,0.772C135.243,193.231,134.913,196.09,135.965,196.564z
		 M142.126,198.857c0.009-2.014-0.414-4.792,1.316-3.821v-2.29c-0.604-0.041-0.968,0.357-1.316,0.759
		c-0.05-0.937-0.134-1.805-0.884-1.534c-0.884,1.571,0.196,1.51,0.442,3.065c-1.201,0.071-0.884-1.27-1.758,0
		C140.291,198.322,141.208,196.218,142.126,198.857z M180.848,198.857c-0.016-1.049,0.208-1.674,0.442-2.293
		c-1.124,0.339-2.023,1.076-2.642,2.293H180.848z M172.931,201.16v2.287c1.146,0.215,1.889-0.279,1.759-2.287H172.931z
		 M165.886,203.447c-0.691-0.071-1.525,0.104-1.319-1.527c1.095,0.112,2.135,0.143,2.2-1.531c-2.58-0.495-3.125,3.009-4.836,0v3.059
		C164.043,202.712,164.815,206.55,165.886,203.447z M61.589,194.277c0.393-4.345,3.178,0.087,4.403-2.307
		c-0.513-0.121-0.479-1.207-0.441-2.287c-3.905,2.94-6.277-1.366-7.923,3.821C59.007,193.669,60.862,192.995,61.589,194.277z
		 M91.514,204.978c-1.426,0.065-2.708,0.393-3.517,1.534C89.917,206.6,90.717,207.782,91.514,204.978z M83.594,207.272
		c0.98-0.588,2.387-0.438,2.642-2.294C84.926,204.994,83.554,204.907,83.594,207.272z M87.552,211.09
		c-1.425-0.314-1.397-3.171-2.636-3.818c0.236,1.11-0.513,3.955,0.439,3.818c0.98,0.016,5.486,3.131,4.842,6.124
		c1.494-1.226,2.978-2.458,4.839-3.059c-1.279-0.663-0.492-1.148-0.442-3.065c-1.369,0.485-6.435,0.158-4.397-1.525
		C88.548,208.75,88.944,211.47,87.552,211.09z M94.159,205.741c0.015,1.062-0.208,1.681-0.442,2.297
		c0.594,0.245,0.84,1.089,1.758,0.766C95.55,206.886,94.803,206.417,94.159,205.741z M146.524,208.803
		c-0.682,2.723,1.497,0.457,1.319,2.287v1.534c-0.766,0.063-1.366-0.171-1.759-0.76c-0.323,2.163,1.447,4.525,2.2,2.291
		c-1.301-2.069,1.939-2.705,2.643-3.825C149.797,207.558,148.001,210.157,146.524,208.803z M144.324,208.038
		c-0.474,1.724-1.649,2.228-2.197,3.827c1.015-0.249,1.689,0.125,2.197,0.76c-0.595-3.078-0.137-2.017,1.319-1.534
		c0.688-2.708-1.491-0.458-1.319-2.287C144.566,208.803,144.825,208.18,144.324,208.038z M138.601,208.803
		c-1.124-0.398-1.541-1.015-2.2,0.762c0.775,0.445,2.589-0.927,2.642,0.766c-0.271,0.047-0.52,0.112-0.442,0.76
		c1.596,0.734,0.451-3.299,1.326-3.818C139.058,207.047,139.052,208.302,138.601,208.803z M132.003,208.803
		c-1.852-0.94-2.368,0.376-3.962,1.527C129.262,209.649,132.171,211.903,132.003,208.803z M145.204,214.921
		c-0.831-0.343-2.648,1.042-2.197-1.525c-1.36-0.572-0.847,2.091-2.203,1.525c1.562-4.311-4.208-1.634-4.839-4.591
		C136.799,215.633,143.602,217.886,145.204,214.921z M135.965,216.449c-2.178-0.423,0.455-0.392,0.436-1.527
		c-1.03-0.757-2.16-1.339-3.52-1.525c-0.224,1.127-0.647,1.923-0.877,3.053C133.279,214.043,136.351,218.724,135.965,216.449z
		 M154.008,215.683c-0.52,0.125-1.254-0.131-1.323,0.766c0.725,1.796,2.567,1.659,4.4,1.528c-0.955-1.967,0.404-4.332,1.319-2.294
		c-0.243,0-0.498,0.623,0,0.766c0.025-0.46,0.065-0.902,0.442-0.766v-1.527c-0.775-0.437-2.586,0.927-2.639-0.76
		c0.317-1.749,3.043,0.697,2.639-2.306c-1.416-1.615-3.508-1.846-5.284-0.76c1.179,0.501,2.751,0.33,3.522,1.534
		c-3.38,1.03-4.615,0.286-8.362,1.531c0.694,2.798,1.41,1.12,1.323,4.581C151.559,217.784,153.09,212.167,154.008,215.683z
		 M138.601,218.751c-0.918-1.671-1.254,0.37-2.636,0C135.51,221.988,138.529,220.961,138.601,218.751z M145.643,226.391
		c1.095,0.118,1.826-0.392,2.2-1.53c-0.94-0.437-2.101-3.141-2.639,0C145.549,225.035,145.714,225.504,145.643,226.391z
		 M172.931,230.985c-1.665,0.551-2.371-3.542-2.642,0.759C171.061,231.308,172.873,232.668,172.931,230.985z M204.175,250.104
		c0.065-5.495,4.833,2.49,3.52-3.062c-0.514,2.182-0.514-1.235,0-1.531C206.239,246.183,201.925,247.82,204.175,250.104z
		 M220.454,251.635c0,0.424,0.358,0.865,0.445,0c-0.423-3.781-1.646-1.631-3.084-3.065c0.582-2.047,2.06-2.539,2.639-4.59
		c-1.354,0.572-0.843-2.094-2.197-1.527c-1.549,1.167-4.039,4.671-2.645,8.411c1.083-1.018-0.788-2.303,0.441-3.059
		c0.367,3.009,3.844,1.802,2.643,5.355C220.118,254.106,219.028,250.686,220.454,251.635z M137.723,77.252
		c-0.448,2.035-0.722,4.362-2.2,4.593c0.909-2.396-0.302-0.992-1.319-0.762c0.815-2.406,0.65-4.528-1.323-3.057
		C133.313,74.927,136.908,77.977,137.723,77.252z M121.438,195.801c1.04-0.236,0.822-2.654,2.2-2.297
		c-1.612,2.25,2.857,5.34-0.436,6.128c0.343-0.691,0.47-1.736,0.436-3.068c-1.478,1.351-2.256-0.508-4.397,0
		c-0.022-1.951,0.33-0.928,0.881-0.763c0.498-0.144,0.243-0.766,0-0.766c0.109-0.828,0.875-0.52,0.88-1.531
		C121.519,193.629,121.373,194.899,121.438,195.801z M367.436,197.33c0.604-3.978,2.779-8.26,3.081-12.236h1.762
		c0.242,4.425-0.794,5.437-1.316,9.942c-0.445,0.831-3.327,1.27-2.203,2.294C369.864,198.764,368.025,197.41,367.436,197.33z
		 M150.927,29.842c-1.201-0.75-1.948-3.937-3.084-0.76c-1.491-3.656,3.326-2.859,4.842-3.831c-0.009,0.744-0.538,0.598-0.881,0.766
		C151.73,27.25,150.977,26.966,150.927,29.842z M132.003,75.727h-2.642c0.109-0.824,0.875-0.513,0.88-1.527
		c0.078-0.653-0.171-0.713-0.438-0.766c0.423-3.289,2.754-2.085,3.52,0C133.497,75.27,131.316,73.01,132.003,75.727z
		 M128.925,96.372c-1.067,0.445-0.983,2.892-1.325,4.594c-0.729-0.766-0.477-3.246-0.878-4.594c1.578,0.642,2.132-1.718,3.081,0
		C129.691,97.346,128.925,97.147,128.925,96.372z M121.88,91.023c-1.235,0.108-1.267-1.871-1.323-3.822
		c-4.21,0.458-7.578-2.051-11.436-1.53c0.04-3.922,5.57-1.56,6.6,0c0.594-0.747,0.875-2.045,1.32-3.06
		c1.039,1.005,3.037,0.32,3.961,1.528c-0.112,0.834-0.877,0.522-0.88,1.531c0.065,1.702,1.111-0.99,2.2,0
		C122.182,87.465,121.625,88.545,121.88,91.023z M121.002,98.678c-0.924,0.323-1.167-0.535-1.761-0.772
		c0.305-0.609,0.685-2.091,0-2.293C119.556,94.144,120.822,97.38,121.002,98.678z M118.361,96.372
		c-0.01,1.525-1.201,0.98-0.881,3.065c-0.352-0.407-0.713-0.797-1.319-0.759c0.286-0.791,1.011-0.797,0.881-2.307
		c-0.402-2.075-0.987,2.331-1.762,0C115.66,93.45,117.573,95.603,118.361,96.372z M117.48,72.674h-1.319
		c-0.115-2.243,0.996-2.353,0.881-4.593C118.747,68.554,116.391,69.781,117.48,72.674z M109.557,79.558
		c-0.408,0.563-0.666,1.388-0.878,2.287c-1.229-0.697-3.942-2.788-5.281-0.762c-0.616-4.457,8.399-2.036,8.362,0
		C110.668,81.195,109.623,81.226,109.557,79.558z M110.438,94.084c-0.75,0.162-1.14-1.307-1.316,0c-0.504-0.146-0.246-0.766,0-0.766
		c-0.312-1.805-1.012-4.848,0.88-4.59c0.016,1.307-0.33,1.979-0.88,2.294C109.298,92.507,110.824,91.632,110.438,94.084z
		 M99.437,127.734c2.567,1.54,4.914,1.54,7.484,0c0.04,4.111,1.907,1.08,3.517,1.528c0.88,3.373-3.523,1.443-1.759,3.824
		c0.078,0.23-4.416-0.978-3.084-3.053c-2.269,4.123-7.083-0.128-9.239,2.29C97.084,130.264,98.59,129.57,99.437,127.734z
		 M110.002,136.146c-0.072,0.893-0.803,0.644-1.323,0.771c-0.376-1.793,1.538-3.299,0.442-3.831
		c-0.084-0.647,0.171-0.722,0.436-0.763h0.881C110.966,134.54,107.802,135.809,110.002,136.146z M107.357,105.561
		c-2.362-0.485-3.675,0.393-4.839-3.064h1.319C103.778,105.786,107.121,101.475,107.357,105.561z M104.279,134.612
		c1.382-0.361,1.718,1.098,2.643,1.534C107.808,136.668,104.195,137.904,104.279,134.612z M105.595,191.97
		c-0.482-1.03-3.065,0.753-4.397,0.775c-0.734-1.519,0.041-0.975,0-3.063c-3.896,3.98-7.665,0.458-14.523,1.528
		c-0.19-1.597,0.302-2.029,0.441-3.06c-1.217,0.097-1.512,1.463-0.881-0.759c-0.323-0.726-0.803-1.155-1.319-1.534
		c-0.501,0.146-0.246,0.769,0,0.762c-0.084,0.869-0.441,0.43-0.441,0h-0.881c0.04-1.967,1.718-1.089,1.761-3.056
		c1.052,0.467,2.004,1.099,3.52,0.763c-0.053,2.897,2.577,1.133,2.639,3.824c0.51-0.249,1.519-3.339,0.445-3.824
		c1.067-2.054,3.51-0.031,4.839,0c-0.041,2.082,0.734,1.547,0,3.065c0.386-0.598,0.989-0.822,1.758-0.772
		c-0.165-1.543,1.18-1.045,1.762-3.056c-0.087-0.619-0.442-0.766-0.442-1.524c-1.413-0.175-1.857,1.344-3.52,0.759
		c0.383-2.9,3.731-0.662,4.842-2.287c-0.038,3.993,1.31,4.739,3.52,4.581c0.221,4.042,0.024,4.251,1.319,7.652
		C105.664,192.885,105.624,192.45,105.595,191.97z M102.518,134.612c-0.075,0.898,0.1,1.372,0.441,1.534
		c-0.441,0.948-1.776,0.774-2.642-0.76C100.243,133.724,101.88,135.035,102.518,134.612z M95.476,94.847
		c-6.268,0.277-11.412,1.699-20.243-0.763c1.979-5.573,6.809-2.602,10.123-3.824c-0.016,0.747-0.539,0.591-0.88,0.763
		c6.566,1.49,11.003,1.428,17.159,0c0.974,1.107-0.551,1.867,0.441,2.296c-0.61,3.181-2.274-0.224-3.52,1.528
		c0.156-0.999,0.775-1.201,0.881-2.294c-2.552-0.949-3.202,2.254-4.842,0.766C94.791,93.998,94.981,94.685,95.476,94.847z
		 M98.999,87.966c0.071,0.896,0.803,0.642,1.319,0.763c0.137,2.022-0.918,1.97-1.762,2.294c0.737-1.967-0.498-4.323,1.762-4.581
		C100.526,88.073,99.686,87.898,98.999,87.966z M85.794,169.033c1.021-0.246,1.692,0.121,2.203,0.766
		c-1.945,2.859,1.154,2.66,0.436,6.883c3.504,0.592,6.46,0.915,11.004,0.763c-0.258,2.355-2.172,1.833-3.081,3.068
		c0.84-3.663-1.512,1.833-2.197-1.537c-1.242,0.137-0.554,3.635-2.2,3.065c0.361-2.169-0.623-1.985-0.445-3.831
		c-3.296,5.15-5.624-1.907-8.798,0.766c-0.551-2.515,3.063-3.561,0.878-7.649C84.478,169.456,86.943,173.386,85.794,169.033z
		 M90.633,48.203c0.202-4.631,3.302-0.71,4.403,0C94.318,49.481,91.85,46.462,90.633,48.203z M92.395,71.14
		c-0.436-1.684,0.187-4.217-0.881-2.293c-1.04-1.124,1.562-2.321,2.645-2.297C94.701,67.723,94.331,71.94,92.395,71.14z
		 M81.394,112.439c-1.002-2.132-2.745,1.758-2.639-2.297c-1.637,1.681-2.014,0.98-4.4,0.771c0.105-0.837,0.871-0.525,0.877-1.534
		c-0.371-1.133-1.108-1.643-2.2-1.53c-0.542,0.336-0.906,0.979-0.877,2.293c0.1,0.978,1.31,1.002,1.316,0
		c0.666,0.676-0.122,1.146,0.445,3.063c-2.95-0.19-5.194,1.761-8.804,2.287c1.36-1.957,2.595-4.151,2.2-9.171
		c6.933,1.214,9.233,0.336,14.962,2.294C82.343,110.516,81.583,110.979,81.394,112.439z M59.389,126.968
		c-2.312-0.184-4.574-1.049-6.158-0.763c-1.036-0.006,0.162-2.091,0.881-1.524c-0.934-2.546-1.279,2.287-2.642,1.524
		c-1.089-2.482-2.269-0.843-3.081-4.59C52.478,121.13,58.223,120.322,59.389,126.968z M49.27,103.258
		c-0.666-0.659,0.122-1.145-0.439-3.056c0.719-0.071,1.914,1.272,0.881,0c1.391-3.441,4.142-0.79,4.836-0.766
		c1.198,0.694-1.002,1.712-0.881,3.06C52.164,102.154,50.688,101.802,49.27,103.258z M43.992,84.914
		c-5.906-1.145-10.11,1.354-13.646,0.757c1.325-1.002,0.323-2.438-0.881-3.06c1.895-2.399,4.44,2.882,4.4-1.527
		c6.55-0.592,13.633-1.675,17.604,0.762C50.157,85.088,45.159,80.143,43.992,84.914z M42.23,101.731
		c-0.522,0.566-3.003,1.086-3.522,3.83c-0.977-0.323-0.349-4.063,0-4.596c-0.105-1.973-0.756,1.046-1.758,0
		c-0.545,2.48,1.422,0.588,0.877,3.068c-0.575-0.787-1.621-0.757-2.203-1.537c0.268-2.437-0.821-2.365,0-3.818
		c2.079,2.141,2.701,0.342,4.842-0.772C38.907,100.722,42.019,99.711,42.23,101.731z M40.027,94.084
		c0.19,2.614-1.316,2.303-1.758,3.821C37.708,97.617,38.826,93.838,40.027,94.084z M37.827,119.323
		c-0.046,1.443-1.456,0.532-1.319,2.293c0.657,1.229,2.203-0.653,2.2,3.065c-2.044-1.183-2.863-3.75-4.842-2.303
		c-1.556-1.783,0.635-3.414,0.88-4.581c0.479,0.187,0.299,1.521,0.877,1.525c0.632-0.604,0.125-3.592,0-3.831
		c0.137-1.03,1.105-0.632,1.765-0.76C36.958,116.475,37.637,117.695,37.827,119.323z M25.949,221.039
		c-0.56,6.063,5.001,1.497,5.717,5.353c-3.187-1.117-6.025-0.36-9.678-0.759c0.031-2.331,2.875-1.796,3.516-0.771
		c0.038-3.797-1.291-0.498-2.197-2.294C24.237,221.696,24.583,222.271,25.949,221.039z M20.662,194.277
		c0.641-4.217,1.008,3.273-3.078,2.287c0.038-1.08,0.075-2.166-0.438-2.287c-1.397,3.103-3.053,1.191-6.158,1.524
		C11.879,186.954,18.303,191.603,20.662,194.277z M18.903,104.034l-1.32-2.303c1.457-2.119,1.273,2.856,3.523,3.059
		c-3.009,0.225-2.938,1.783-5.723,0.771c0.292-2.962,0-2.723,0.442-4.596C17.407,101.018,17.045,104.457,18.903,104.034z
		 M9.225,193.504c0.063,2.153-1.08,2.21-2.2,2.297c0.377,0.616,0.259,2.095,0.878,2.293c-0.691,0.582-0.657,2.428-1.759,2.294
		c0.084-3.451,1.102-1.712,0.436-5.353 M3.502,217.214c-0.271,0.685-0.532,1.372,0,1.537 M2.619,231.744 M275.463,12.25
		c2.234,1.733,4.416,3.551,4.4,9.177c-1.441-1.406-1.479-0.834-3.078-2.293C277.577,14.811,274.265,14.892,275.463,12.25z
		 M138.601,62.726c0.143,1.776-0.068,2.943-0.436,3.824c-1.715,1.678-2.542-2.701-4.404-0.756
		C134.68,62.299,136.531,64.643,138.601,62.726z M137.723,90.26c0.059,1.876,0.068,3.688-0.439,4.587
		c-0.84-0.323-0.796-2.182-2.203-1.528C135.828,92.065,136.176,90.117,137.723,90.26z M127.165,88.729
		c-1.413-2.287-1.958-1.854-4.403-1.528c0.053-1.372-0.542-1.608-0.439-3.062c0.841-0.317,1.893-0.274,1.759-2.294
		c1.375,1.186,4.136-0.04,4.4,3.068C128.811,87.522,126.694,85.875,127.165,88.729z M124.964,140.736
		c-0.346,0.685-0.473,1.733-0.445,3.065c-1.167-0.016-2.515,0.279-3.081-0.772c-0.373-2.445,0.697-2.361,0.884-3.824
		c-1.4-3.38-3.719-2.462-5.28-2.287c1.014-3.196,5.617-2.963,6.597,0.759c-0.283,0.775-1.011,0.797-0.877,2.294
		C123.299,142.307,124.441,138.85,124.964,140.736z M77.875,196.564c-0.19-0.772-0.949-4.002-0.878-0.763
		c-0.451-0.492-0.457-1.765-1.322-1.524c1.366-2.54,3.105-0.595,5.72-0.772c-0.495,1.108-0.473,1.87,0.442,2.297
		C81.553,198.561,79.726,195.596,77.875,196.564z M63.351,95.613c-2.972-1.183-4.805,0.949-7.481-1.528
		c2.58-4.095,5.402-0.877,8.804-0.766C64.848,95.159,62.667,92.896,63.351,95.613z M3.502,207.272
		c-0.162-1.295,0.342-1.447,0.881-1.531c-0.013-0.744-0.539-0.588-0.881-0.763c1.086-3.818,3.137,0.902,4.4,1.534
		C7.625,209.226,5.432,206.289,3.502,207.272z"/>
</g>
</svg>
