<?xml version="1.0" standalone="no"?>
<!DOCTYPE svg PUBLIC "-//W3C//DTD SVG 1.1//EN" "http://www.w3.org/Graphics/SVG/1.1/DTD/svg11.dtd" >
<svg xmlns="http://www.w3.org/2000/svg">
<metadata>
Copyright   : Copyright 1997-2011 Lucas de Groot. Published by LucasFonts.
Designer    : Lucas de Groot
Foundry     : LucasFonts
Foundry URL : http://www.lucasfonts.com
</metadata>
<defs>
<font id="Spiegel-Bold" horiz-adv-x="2335" >
<font-face units-per-em="4096" ascent="3154" descent="-942" />
<missing-glyph horiz-adv-x="1024" />
<glyph horiz-adv-x="0" />
<glyph horiz-adv-x="0" />
<glyph unicode="&#xd;" horiz-adv-x="2355" />
<glyph unicode=" "  horiz-adv-x="1024" />
<glyph unicode="&#x09;" horiz-adv-x="1024" />
<glyph unicode="&#xa0;" horiz-adv-x="1024" />
<glyph unicode="!" horiz-adv-x="1237" d="M467 827q-46 232 -80.5 457.5t-57.5 456t-34.5 471.5t-11.5 504h741q0 -264 -11.5 -506t-34.5 -472.5t-57.5 -455t-80.5 -455.5h-373zM352 0v606h602v-606h-602z" />
<glyph unicode="&#x22;" horiz-adv-x="1634" d="M1016 1663l-127 1053h557l-127 -1053h-303zM303 1663l-127 1053h557l-127 -1053h-303z" />
<glyph unicode="#" horiz-adv-x="2544" d="M1266 0l114 721h-422l-114 -721h-500l115 721h-344v442h413l74 459h-319v442h385l102 652h500l-103 -652h422l103 652h499l-102 -652h340v-442h-410l-73 -459h315v-442h-381l-115 -721h-499zM1520 1622h-418l-78 -459h422z" />
<glyph unicode="$" horiz-adv-x="2499" d="M1090 -422v406q-232 7 -400 57t-276.5 146t-160.5 241.5t-52 345.5l622 66q0 -69 10.5 -124.5t32 -98.5t54.5 -74.5t78 -52t102.5 -30t128.5 -9.5q68 0 127 8.5t107.5 24.5t85.5 39.5t62.5 52.5t38.5 63.5t13 73.5q0 93 -40.5 156.5t-109.5 107.5t-161 74t-195.5 56 l-212.5 53.5t-212.5 67.5t-195.5 97t-161 142t-109.5 203t-40.5 280q0 155 57.5 288t167.5 235.5t271.5 170.5t368.5 92v389h360v-381q199 -15 345.5 -68t242.5 -141.5t143 -210.5t47 -276l-594 -66q0 77 -21.5 134t-67.5 95t-118 56.5t-174 18.5q-89 0 -157 -19.5t-114 -52 t-69.5 -75.5t-23.5 -91q0 -79 40.5 -133.5t110.5 -94t163 -68.5t197.5 -56.5l215.5 -58t215.5 -74t197.5 -104.5t163 -148.5t110.5 -206t40.5 -277.5q0 -105 -27.5 -201.5t-81 -181t-130.5 -156t-176.5 -128t-219.5 -96.5t-258 -60v-426h-360z" />
<glyph unicode="%" horiz-adv-x="2974" d="M524 0l1499 2716h377l-1491 -2716h-385zM696 1278q-175 0 -291 52t-185 148t-97.5 232t-28.5 305q0 166 37.5 304t115 237t196.5 154t282 55q175 0 291 -52t185 -148t97.5 -232t28.5 -305q0 -166 -37.5 -304t-115 -237t-196.5 -154t-282 -55zM713 1581q60 0 98.5 28 t61 82.5t31.5 135t9 184.5q0 114 -9 198.5t-32 140.5t-62.5 84t-100.5 28q-60 0 -99 -28t-61.5 -82.5t-31.5 -135t-9 -184.5q0 -114 9 -198.5t32 -140.5t62.5 -84t101.5 -28zM2220 -49q-175 0 -291 52t-185 148t-97.5 232t-28.5 305q0 166 37.5 304t115 237t196.5 154 t282 55q175 0 291 -52t185 -148t97.5 -232.5t28.5 -305.5q0 -166 -37.5 -303.5t-115 -236.5t-196.5 -154t-282 -55zM2236 254q60 0 99 28t61.5 82.5t31.5 135t9 184.5q0 114 -9 198.5t-32 140.5t-63 84t-101 28q-60 0 -98.5 -28t-61 -82.5t-31.5 -135t-9 -184.5 q0 -114 9 -198.5t32 -141t62.5 -84t100.5 -27.5z" />
<glyph unicode="&#x26;" horiz-adv-x="2757" d="M2621 0q-40 -15 -83 -24t-93 -9q-68 0 -141 15.5t-151 45t-160 71t-166 94.5q-94 -63 -195.5 -109.5t-206.5 -76.5t-210.5 -45t-206.5 -15q-212 0 -382 52.5t-289 145.5t-183 220.5t-64 277.5q0 126 36.5 231.5t100 196.5t148.5 169t182 149q-71 100 -125.5 197.5 t-92.5 186t-57.5 165t-19.5 135.5q0 99 16 189t56 167t107 139t169 106t242.5 67.5t327.5 23.5q134 0 244.5 -17.5t198.5 -51.5t153 -84t108 -115t64.5 -145t21.5 -173q0 -86 -26.5 -161t-73 -142t-109.5 -126.5t-136 -115.5t-152 -108.5l-158 -104.5q57 -65 119 -128 l127.5 -124l132.5 -119l133 -112q21 55 36.5 118.5t23 134.5t7 149.5t-9.5 162.5h574q0 -107 -12.5 -224t-38 -231.5t-64 -220.5t-90.5 -192q46 -28 89 -49.5t82 -36t74 -22t66 -7.5q16 0 30.5 2.5t26.5 5.5v-528zM1438 471l-150 127l-148.5 135.5l-145 142.5l-138.5 148 q-21 -32 -37.5 -64t-27 -65.5t-16 -69t-5.5 -75.5q0 -62 14 -114t39.5 -93t60 -71.5t75.5 -50.5t87 -30t93 -10q65 0 141.5 22t157.5 68zM1065 1733q60 43 114 88t95.5 95t65.5 105.5t24 120.5q0 61 -13.5 108t-41 78.5t-70 47.5t-100.5 16q-54 0 -98 -17.5t-75 -51.5 t-48 -84.5t-17 -116.5q0 -39 9.5 -83t29.5 -93.5t51 -102.5t74 -110z" />
<glyph unicode="'" horiz-adv-x="1217" d="M459 1663l-127 1053h557l-127 -1053h-303z" />
<glyph unicode="(" horiz-adv-x="1462" d="M885 -737q-160 190 -285 402t-211 440t-131 469.5t-45 490.5q0 186 23.5 362.5t67 342t104.5 319.5t136.5 294.5t162.5 268t182 240.5l381 -152q-70 -106 -133 -224.5t-117.5 -248.5t-98.5 -270.5t-74.5 -289.5t-47.5 -306t-17 -320q0 -236 35 -460t98.5 -433t153.5 -402 t201 -368z" />
<glyph unicode=")" horiz-adv-x="1462" d="M578 2892q160 -191 284.5 -403t210.5 -440t131 -469t45 -490q0 -280 -52 -537t-143 -487.5t-214.5 -432t-266.5 -370.5l-380 151q69 105 132.5 224t117.5 249t98 270.5t74.5 289.5t47.5 306t17 320q0 237 -35 460.5t-98.5 432.5t-153.5 402t-200 368z" />
<glyph unicode="*" horiz-adv-x="2216" d="M1434 1212l-230 517l-217 -517l-364 205l364 434l-549 -49v381l533 -53l-307 446l352 201l201 -520l217 520l344 -225l-332 -422l536 53v-381l-536 49l332 -413z" />
<glyph unicode="+" horiz-adv-x="2376" d="M934 295v815h-729v479h729v811h508v-811h729v-479h-729v-815h-508z" />
<glyph unicode="," horiz-adv-x="1122" d="M246 -590l241 590h-241v655h631v-626l-365 -725z" />
<glyph unicode="-" horiz-adv-x="950" d="M0 901v447h930v-447h-930z" />
<glyph unicode="." horiz-adv-x="1122" d="M246 0v655h631v-655h-631z" />
<glyph unicode="/" horiz-adv-x="1720" d="M-49 -475l1298 3420h516l-1298 -3420h-516z" />
<glyph unicode="0" horiz-adv-x="2441" d="M1184 -49q-173 0 -318.5 30t-262.5 96.5t-205 174t-147.5 262.5t-89.5 362t-30 472t37.5 473t108 365.5t170.5 267.5t225 179t272.5 100.5t312.5 31.5q173 0 318.5 -30t262.5 -96.5t205.5 -173.5t147.5 -262t89 -361t30 -470q0 -266 -37.5 -475t-108 -367t-170.5 -268 t-225 -179t-272.5 -100.5t-312.5 -31.5zM1241 426q66 0 123.5 15.5t105 54.5t84 105.5t62 169t38.5 244.5t13 333q0 199 -12.5 345.5t-37.5 251.5t-63.5 172t-90.5 105.5t-117.5 53t-145.5 14.5q-66 0 -123.5 -15.5t-105 -54t-84.5 -105t-62 -168.5t-38 -244t-13 -331 q0 -201 12.5 -349t37.5 -253t63.5 -172t90.5 -105t117.5 -52.5t145.5 -14.5z" />
<glyph unicode="1" horiz-adv-x="1880" d="M131 0v524h533v1610l-410 -152l-143 447l827 307h360v-2212h533v-524h-1700z" />
<glyph unicode="2" horiz-adv-x="2355" d="M160 0v516q86 133 186.5 245t206.5 208.5t212.5 180.5l205 161l184 150t148.5 148t99 154.5t36 169.5q0 58 -8.5 106t-26 85t-44 64.5t-63.5 45.5t-84.5 26.5t-105.5 8.5q-92 0 -158 -24.5t-108 -76t-62 -131t-20 -190.5h-615q0 157 27 286t81.5 231t137 177.5t194 125 t252.5 74t312 24.5q182 0 326 -29t253 -81t186 -125t125.5 -162t70.5 -191t22 -211q0 -143 -38.5 -261.5t-104.5 -219t-154 -185.5t-186 -160.5t-201 -143.5l-199 -135.5t-180 -136.5t-145 -146h1294l-78 -578h-1978z" />
<glyph unicode="3" horiz-adv-x="2331" d="M750 1167v475h155q163 0 268.5 27.5t167 77t85.5 119t24 153.5q0 68 -20 126t-64.5 100t-115.5 66t-173 24q-81 0 -151.5 -26t-122.5 -73t-81.5 -112.5t-29.5 -145.5h-569q0 129 33 237.5t94 196t149.5 153.5t199.5 110.5t242.5 67t280.5 22.5q252 0 437 -48t306.5 -138 t180.5 -218t59 -288q0 -109 -28 -202.5t-90.5 -171.5t-163 -139t-246.5 -106v-8q171 -28 289.5 -84t192.5 -136t107.5 -183t33.5 -224q0 -154 -38.5 -278.5t-110.5 -221t-174.5 -166t-230.5 -114.5t-278.5 -66.5t-318.5 -21.5q-183 0 -327 20.5t-251.5 62.5t-180.5 106.5 t-114 152t-52.5 199.5t3.5 249h651q-12 -86 0 -150.5t52 -107.5t109.5 -64.5t170.5 -21.5q77 0 151 18.5t132.5 63t94.5 118.5t36 185q0 77 -15 135.5t-46 101t-80 71.5t-117.5 46t-157 24t-199.5 7h-159z" />
<glyph unicode="4" horiz-adv-x="2396" d="M1253 0v606h-1204v426l1000 1684h856v-1614h385v-496h-385v-606h-652zM1253 2146h-8l-602 -1036h610v1036z" />
<glyph unicode="5" horiz-adv-x="2306" d="M758 803q-17 -102 -2.5 -172t57 -114t111.5 -63.5t161 -19.5t166.5 19t127 61.5t80.5 111.5t28 169q0 81 -14 148t-47.5 120t-89 92.5t-139 66t-197.5 39.5t-263 13q-101 0 -221.5 -6t-261.5 -19l98 1467h1635l-33 -553h-1127l-36 -434l48.5 2t49 1.5t48 0.5h46.5 q215 0 386.5 -29.5t303 -83t225 -130t153.5 -170t88 -202.5t28 -229q0 -162 -35.5 -294.5t-102.5 -236.5t-165 -180.5t-222.5 -127t-275 -75t-322.5 -24.5q-264 0 -448 49t-294.5 152.5t-149.5 265t-13 385.5h619z" />
<glyph unicode="6" horiz-adv-x="2437" d="M2306 926q0 -154 -37.5 -286t-107 -240t-169.5 -192t-225.5 -141t-273 -86.5t-313.5 -29.5q-143 0 -276.5 24t-249.5 81t-211.5 150.5t-164 233.5t-106 329.5t-37.5 438.5q0 220 25.5 404.5t72.5 335t113.5 270t149 210t178 155t201 105t218.5 59t230 18.5q145 0 267 -19 t219.5 -57.5t170 -96.5t120 -137t69.5 -178.5t18 -220.5l-639 -69q9 90 -7 153t-50.5 102.5t-82 57.5t-101.5 18q-67 0 -127 -18.5t-111.5 -59t-93.5 -103t-73.5 -150t-50.5 -202t-24 -257.5q86 29 170 54.5t167.5 44t168.5 29.5t174 11q181 0 329 -38t252 -125t161 -229 t57 -349zM1642 856q0 95 -24 163.5t-70.5 112.5t-114.5 64.5t-155 20.5q-63 0 -124 -8.5t-116.5 -22.5t-104.5 -32t-89 -36q0 -102 6.5 -195t22 -172.5t43 -144t69 -110.5t100 -70.5t136.5 -24.5q66 0 123.5 12.5t104 38t82.5 63.5t61 88.5t37.5 113.5t12.5 139z" />
<glyph unicode="7" horiz-adv-x="2032" d="M406 0q55 213 119 424.5t134.5 413.5t145 390t150.5 353.5t152 304.5t150 244h-1163v586h1843v-336q-87 -155 -168.5 -329.5t-157 -364.5t-144 -393.5t-130 -416t-114.5 -433t-97 -443.5h-720z" />
<glyph unicode="8" horiz-adv-x="2380" d="M2171 2134q0 -118 -33.5 -218.5t-93 -186.5t-141.5 -159t-179 -136q72 -42 138.5 -88.5t125 -99t106.5 -112t82.5 -127.5t53.5 -145.5t19 -165.5q0 -96 -26.5 -188.5t-83.5 -175.5t-145.5 -153t-213.5 -120.5t-287.5 -79t-366.5 -28.5q-240 0 -425 36t-312 114 t-192.5 200.5t-65.5 296.5q0 126 42.5 233t116 198.5t172 170.5t210.5 148q-103 58 -193.5 126.5t-157.5 150.5t-106 179.5t-39 214.5q0 107 30.5 204.5t90 180t149 149.5t207 114t264 72.5t320.5 25.5q209 0 381 -38.5t295 -117t190.5 -197t67.5 -278.5zM1548 2081 q0 55 -23.5 102.5t-70 82t-115.5 54t-159 19.5q-58 0 -105 -9t-84.5 -25t-65 -38.5t-45.5 -50t-27 -58.5t-9 -65q0 -43 14 -82t39 -74.5t61 -68.5t80 -64t95.5 -61l107.5 -60q67 43 123.5 88.5t97.5 95t63.5 102.5t22.5 112zM1581 647q0 47 -15.5 90t-44.5 82.5t-69.5 76.5 t-90 72t-107 68l-119.5 66q-75 -45 -139 -91.5t-110.5 -98t-73 -109t-26.5 -123.5q0 -57 15.5 -102t43 -78.5t65 -57t81 -38t92 -21t97.5 -6.5q53 0 103.5 6.5t95 20t82 35t64 51.5t41.5 69t15 88z" />
<glyph unicode="9" horiz-adv-x="2437" d="M131 1790q0 154 37.5 285.5t107 240t169.5 192t225.5 141t273 87t313.5 29.5q143 0 276.5 -24t249.5 -81t211.5 -151t164 -234.5t106 -331t37.5 -440.5q0 -220 -26.5 -403t-75 -333.5t-117 -269.5t-152.5 -209.5t-181.5 -154.5t-204.5 -104.5t-220.5 -59t-230.5 -18.5 q-145 0 -269.5 19.5t-225.5 59t-177 100.5t-125 143.5t-69.5 188t-10.5 234.5h643q-6 -78 12 -134.5t53 -93t83 -54t102 -17.5q66 0 127.5 18.5t115.5 58t99 102t78.5 150.5t54 202.5t25.5 259.5l-172 -54.5t-167 -44.5t-167.5 -29.5t-173.5 -10.5q-182 0 -329.5 37.5 t-251.5 124t-161 228.5t-57 351zM795 1855q0 -93 24 -160.5t70.5 -111t114.5 -64t155 -20.5q63 0 124 9t116.5 23t104.5 31.5t89 34.5q0 103 -6.5 196.5t-22 173.5t-43 144t-69 109t-99.5 69.5t-136 24.5q-100 0 -178.5 -28.5t-132.5 -85.5t-82.5 -143.5t-28.5 -201.5z" />
<glyph unicode=":" horiz-adv-x="1184" d="M307 1425v639h631v-639h-631zM307 0v639h631v-639h-631z" />
<glyph unicode=";" horiz-adv-x="1184" d="M307 1425v639h631v-639h-631zM307 -590l242 590h-242v639h631v-610l-365 -725z" />
<glyph unicode="&#x3c;" horiz-adv-x="2376" d="M188 1106v487l1966 738v-508l-1355 -467l1355 -463v-524z" />
<glyph unicode="=" horiz-adv-x="2376" d="M217 1589v459h1942v-459h-1942zM217 651v459h1942v-459h-1942z" />
<glyph unicode="&#x3e;" horiz-adv-x="2376" d="M2187 1593v-487l-1966 -737v508l1352 466l-1352 463v525z" />
<glyph unicode="?" horiz-adv-x="2097" d="M750 827q0 110 15 197.5t41 158t60.5 126t73.5 102.5t80 87l80 78.5t73.5 79t60.5 87.5t41 103.5t15 127.5t-19 129t-55.5 99.5t-91 64.5t-125.5 23q-83 0 -141 -37.5t-98 -100t-66.5 -143t-46.5 -166.5l-475 197q30 115 70.5 213t96 179t126.5 143t161.5 104t202.5 64 t248 22q201 0 357.5 -55.5t264 -155t163 -237t55.5 -302.5q0 -134 -29 -236.5t-76 -182.5t-107.5 -142.5t-123.5 -117l-123.5 -106.5t-107.5 -110.5t-76 -129.5t-29 -163h-495zM696 0v606h602v-606h-602z" />
<glyph unicode="@" horiz-adv-x="3252" d="M2318 -49q-90 -42 -187.5 -74t-200.5 -53.5t-211 -33t-220 -11.5q-210 0 -392 46.5t-332 131.5t-267 206t-197 270.5t-122 323t-42 365.5q0 243 56.5 458.5t160 398t248.5 327.5t322.5 246t381.5 155t425 54q218 0 401.5 -50t331.5 -137.5t259.5 -206.5t187 -257 t113.5 -290t38 -304q0 -158 -31 -293t-87.5 -245.5t-136 -196t-176 -143.5t-207 -88t-230.5 -30q-97 0 -170.5 17.5t-127 49.5t-88 76.5t-53.5 98.5q-35 -57 -80 -102t-96 -76t-106.5 -47.5t-110.5 -16.5q-104 0 -192 32.5t-152 103.5t-99.5 184t-35.5 274q0 218 53 395 t154.5 302.5t250.5 193.5t341 68q76 0 155 -3.5t151 -9.5t132 -13.5t98 -14.5l-102 -807q-12 -94 -14 -163.5t13.5 -115t50.5 -68t97 -22.5q41 0 88.5 14t95 45t91 79.5t77.5 118.5t54 161.5t20 208.5q0 139 -32 265t-93 233t-148.5 193.5t-198 147.5t-242.5 94t-281 33 q-156 0 -304 -42.5t-279.5 -122.5t-242 -194.5t-190 -257.5t-124 -313t-44.5 -360q0 -163 33.5 -305.5t96 -262t152.5 -213.5t203 -158.5t246.5 -99t284.5 -34.5q83 0 173.5 10t180 29t172 45.5t150.5 58.5zM1778 1733q-17 3 -36.5 5t-39 3.5t-38.5 2.5t-34 1 q-87 0 -148 -44.5t-99 -122.5t-55 -185.5t-17 -233.5q0 -87 9 -145.5t26 -93.5t41 -49.5t55 -14.5q34 0 65 13t59 38t52 62t43.5 85t34.5 107t24 129z" />
<glyph unicode="A" horiz-adv-x="2425" d="M1729 0l-59 260.5l-68 276.5h-902l-67 -262.5t-64 -274.5h-569l189 699.5l202 686l214.5 672l225.5 658.5h758q240 -676 447 -1356.5t389 -1359.5h-696zM1470 1016l-70 265.5l-76 271l-84 280l-93 293.5v0l-88.5 -290.5l-82 -278.5l-76.5 -271.5l-73 -269.5h643z" />
<glyph unicode="B" horiz-adv-x="2343" d="M246 0v2716h979q262 0 439 -45.5t284 -132.5t152.5 -214.5t45.5 -291.5q0 -103 -26.5 -197.5t-82 -172t-140 -132.5t-201.5 -80v-8q88 -4 162 -27.5t134 -62.5t106 -92t76.5 -117t46 -137.5t15.5 -153.5q0 -98 -24 -199.5t-76.5 -196t-135.5 -178t-200.5 -145 t-271.5 -97.5t-348 -36h-934zM1171 1626q61 0 109.5 11t85 31.5t62 48.5t41.5 62.5t23 74.5t7 83q0 42 -7 80.5t-23 71.5t-42.5 60.5t-66 46.5t-93.5 29.5t-124 10.5h-283v-610h311zM1176 483q104 0 179 26t123.5 70.5t71.5 104t23 127.5q0 55 -10.5 102.5t-32 86 t-53.5 68.5t-74.5 50t-96.5 30.5t-118 10.5h-328v-676h316z" />
<glyph unicode="C" horiz-adv-x="2441" d="M2331 926q-10 -138 -50.5 -264t-108 -234.5t-162.5 -196.5t-214.5 -150t-262.5 -96t-308 -34q-266 0 -470.5 90t-344 260.5t-211.5 415t-72 553.5q0 222 31.5 419.5t95.5 363.5t160.5 298t227 224t294 141t362.5 49q263 0 456.5 -72.5t316.5 -203t176 -312t34 -399.5 l-634 -70q6 132 -13 234.5t-66 172t-123 106t-183 36.5q-84 0 -152 -29t-121.5 -84t-92.5 -134.5t-64.5 -180.5t-37.5 -222t-12 -259q0 -157 13.5 -283.5t40.5 -225.5t67.5 -170.5t93.5 -118t119.5 -69t145.5 -22.5q103 0 178 39t126 104t79.5 149t37.5 175h648z" />
<glyph unicode="D" horiz-adv-x="2445" d="M246 0v2716q101 0 195.5 0.5t192 1.5t203 1.5t228.5 0.5q198 0 368.5 -31.5t311 -97.5t249.5 -168t184 -243t114 -323t39 -407q0 -217 -35 -409t-107 -353t-183 -288.5t-264 -216.5t-348 -136t-436 -47h-712zM1016 508q113 0 207 24.5t168 73t129 122t91 172t54 221.5 t18 272q0 128 -14.5 238.5t-46.5 201.5t-83.5 161.5t-125.5 119t-172.5 73.5t-224.5 25h-148v-1704h148z" />
<glyph unicode="E" horiz-adv-x="2064" d="M246 0v2716h1741l-58 -508h-1061v-570h865v-491h-865v-639h1090v-508h-1712z" />
<glyph unicode="F" horiz-adv-x="1876" d="M246 0v2716h1650l-57 -508h-971v-643h779v-492h-779v-1073h-622z" />
<glyph unicode="G" horiz-adv-x="2466" d="M1679 979h-467v475h1049v-1229q-108 -63 -229.5 -113t-250.5 -85t-262 -53.5t-262 -18.5q-204 0 -367 42.5t-288.5 123.5t-215.5 198.5t-147.5 266.5t-84.5 328t-27 384q0 192 29.5 376t91 347t156 299.5t226 235.5t300 154t377.5 55q155 0 286.5 -24t237.5 -71.5 t186.5 -117.5t134 -162.5t79 -207t22.5 -249.5l-590 -78q4 99 -19.5 174.5t-73.5 127t-126.5 78t-177.5 26.5q-89 0 -160.5 -31.5t-126 -88.5t-93.5 -138t-64 -179t-36.5 -211.5t-11.5 -236.5q0 -240 29 -413t96.5 -285t177.5 -165.5t271 -53.5q46 0 92.5 5t90 15t81.5 24.5 t67 33.5v442z" />
<glyph unicode="H" horiz-adv-x="2527" d="M1659 0v1151h-791v-1151h-622v2716h622v-1049h791v1049h622v-2716h-622z" />
<glyph unicode="I" horiz-adv-x="1114" d="M246 0v2716h622v-2716h-622z" />
<glyph unicode="J" horiz-adv-x="1360" d="M37 483q18 -2 40 -4q18 -2 42.5 -3t52.5 -1q98 0 163 22.5t103.5 72.5t54 129.5t15.5 193.5v1823h622v-1794q0 -260 -58.5 -442.5t-168.5 -297t-267 -167t-353 -52.5q-42 0 -76.5 2t-64 6t-55.5 9.5t-50 11.5v491z" />
<glyph unicode="K" horiz-adv-x="2392" d="M1589 0l-721 1266v-1266h-622v2716h622v-1180l680 1180h750l-844 -1258l959 -1458h-824z" />
<glyph unicode="L" horiz-adv-x="1712" d="M246 0v2716h622v-2200h865l-41 -516h-1446z" />
<glyph unicode="M" horiz-adv-x="3371" d="M2535 0q0 267 -4 533t-11.5 527t-17 516t-20.5 501h-12l-574 -2077h-540l-529 2077h-8q-14 -248 -26.5 -503.5t-22 -516.5t-15 -526t-5.5 -531h-541q12 679 45.5 1359.5t101.5 1356.5h922l418 -1684h12l471 1684h823q32 -338 60 -676t49 -677.5t34.5 -680t16.5 -682.5 h-627z" />
<glyph unicode="N" horiz-adv-x="2511" d="M1663 0l-946 1946v-1946h-471v2716h741l807 -1672v1672h471v-2716h-602z" />
<glyph unicode="O" horiz-adv-x="2523" d="M1237 -49q-198 0 -357 41.5t-282.5 121.5t-212.5 196t-146 264t-84.5 327t-27.5 385q0 209 30.5 400t92.5 355t157 298t223.5 228.5t292 146t363.5 51.5q198 0 357 -41.5t282.5 -121.5t212.5 -196t146 -264t84.5 -327t27.5 -385q0 -190 -27 -374t-85 -348t-149.5 -303 t-220 -240t-297 -157.5t-380.5 -56.5zM1262 459q84 0 152.5 27.5t122.5 80.5t94 130t66 177t39 221t13 261q0 226 -27.5 395t-87 281.5t-151.5 168.5t-221 56q-84 0 -153 -27.5t-123 -80.5t-94 -130t-66 -177t-39 -221t-13 -261q0 -226 28 -395t87 -281.5t151.5 -168.5 t221.5 -56z" />
<glyph unicode="P" horiz-adv-x="2183" d="M246 0v2716h889q244 0 425.5 -51t301.5 -158t179.5 -272t59.5 -392q0 -139 -33 -265t-99 -233t-163.5 -193.5t-226 -147.5t-288.5 -94t-349 -33h-74v-877h-622zM1012 1356q118 0 201.5 31t136 89t76.5 140.5t24 185.5q0 105 -22 185.5t-69 136t-120 84t-174 28.5h-197 v-880h144z" />
<glyph unicode="Q" horiz-adv-x="2523" d="M1159 -475l78 426q-198 0 -357 41.5t-282.5 121.5t-212.5 196t-146 264t-84.5 327t-27.5 385q0 209 30.5 400t92.5 355t157 298t223.5 228.5t292 146t363.5 51.5q198 0 357 -41.5t282.5 -121.5t212.5 -196t146 -264t84.5 -327t27.5 -385q0 -167 -20.5 -328t-64 -308.5 t-110.5 -277t-160 -232.5t-212.5 -176t-267.5 -108h823l-86 -475h-1139zM1262 459q84 0 152.5 27.5t122.5 80.5t94 130t66 177t39 221t13 261q0 226 -27.5 395t-87 281.5t-151.5 168.5t-221 56q-84 0 -153 -27.5t-123 -80.5t-94 -130t-66 -177t-39 -221t-13 -261 q0 -226 28 -395t87 -281.5t151.5 -168.5t221.5 -56z" />
<glyph unicode="R" horiz-adv-x="2306" d="M1511 0l-471 1069h-172v-1069h-622v2716h975q233 0 407.5 -49t290.5 -148t173.5 -247.5t57.5 -346.5q0 -132 -36 -245.5t-103 -207t-161.5 -167t-211.5 -125.5l598 -1180h-725zM1130 1536q92 0 162 24t117 69.5t70.5 112t23.5 150.5q0 78 -22 141.5t-67 108.5 t-114.5 69.5t-164.5 24.5h-267v-700h262z" />
<glyph unicode="S" horiz-adv-x="2388" d="M1540 1970q0 78 -21 136t-66 96t-116.5 56.5t-173.5 18.5q-89 0 -157 -20t-114 -54.5t-69.5 -81t-23.5 -98.5q0 -78 40.5 -132t110.5 -93.5t163 -69t197.5 -57.5l215.5 -60t215.5 -76t197.5 -105t163 -148t110.5 -204.5t40.5 -274.5q0 -124 -34 -235.5t-100.5 -206 t-164 -170.5t-225 -129.5t-284 -82t-339.5 -28.5q-258 0 -445.5 46.5t-310 145t-181 251t-58.5 364.5l622 82q0 -70 10.5 -126.5t32.5 -100.5t56.5 -76.5t82.5 -53.5t109.5 -31t138.5 -10q71 0 129 9.5t103.5 27.5t79 43.5t55.5 57.5t32.5 69.5t10.5 79.5q0 90 -40.5 151.5 t-109.5 104.5t-161 73t-195.5 57l-212.5 56t-212.5 69.5t-195.5 97.5t-161 141.5t-109.5 200.5t-40.5 274q0 177 72.5 325.5t211.5 256.5t342 168.5t464 60.5q163 0 294.5 -21.5t233.5 -63.5t176.5 -103t122.5 -141t71 -177t23 -211z" />
<glyph unicode="T" horiz-adv-x="1937" d="M659 0v2200h-643v516h1926l-41 -516h-619v-2200h-623z" />
<glyph unicode="U" horiz-adv-x="2572" d="M2335 1061q0 -162 -24.5 -307t-77 -268.5t-135 -222.5t-199.5 -168t-270.5 -106.5t-346.5 -37.5q-179 0 -326 28.5t-263 87t-201.5 147t-142 208t-84 271t-27.5 335.5v1688h622v-1622q0 -110 10.5 -199.5t32.5 -160t56.5 -122.5t83 -86t112 -50.5t143.5 -16.5 q105 0 189 26.5t143 94.5t91 184.5t32 296.5v1655h582v-1655z" />
<glyph unicode="V" horiz-adv-x="2277" d="M791 0q-228 679 -425 1361t-354 1355h647q58 -287 122 -567.5l129.5 -545.5l130.5 -510.5l126 -461.5l143 522l132 521.5t119.5 521t105.5 520.5h598q-78 -352 -166.5 -697.5t-186 -685t-204 -673t-221.5 -660.5h-696z" />
<glyph unicode="W" horiz-adv-x="3416" d="M2105 0l-413 1872l-426 -1872h-619q-191 664 -332.5 1344t-248.5 1372h598l73 -467.5l78.5 -468.5l84 -470.5l91.5 -473.5h13l409 1880h684l385 -1885h21l85 460.5l79.5 468.5l75 475.5l71.5 480.5h537l-122 -684.5t-134.5 -681.5t-153 -677.5t-176.5 -672.5h-660z" />
<glyph unicode="X" horiz-adv-x="2322" d="M1561 -49l-447 942l-112.5 -205.5l-119.5 -221l-123.5 -231l-123.5 -235.5h-676l216 356.5l216.5 356l216.5 353l215 347.5l-774 1286l770 66l389 -799l86.5 185l86.5 188.5l85 189.5l82 187h709l-189 -310l-189.5 -311l-189 -308l-186.5 -300l819 -1471z" />
<glyph unicode="Y" horiz-adv-x="2138" d="M733 0v1147q-218 396 -411.5 785.5t-362.5 783.5h713q92 -246 197 -492.5t225 -494.5h12l134.5 260l119.5 245.5l110 239.5l107 242h602l-189 -395l-195.5 -381.5l-209 -381.5l-229.5 -395v-1163h-623z" />
<glyph unicode="Z" horiz-adv-x="2171" d="M82 0v414l1126 1786h-1061l46 516h1802v-422l-1123 -1778h1196l-40 -516h-1946z" />
<glyph unicode="[" horiz-adv-x="1425" d="M287 -696v3547h934v-320h-394v-2908h394v-319h-934z" />
<glyph unicode="\" horiz-adv-x="1683" d="M1253 -475l-1298 3420h549l1298 -3420h-549z" />
<glyph unicode="]" horiz-adv-x="1425" d="M1139 2851v-3547h-934v319h393v2908h-393v320h934z" />
<glyph unicode="^" horiz-adv-x="2441" d="M1675 1085l-475 1242l-475 -1242h-516l668 1631h647l667 -1631h-516z" />
<glyph unicode="_" horiz-adv-x="2441" d="M0 -737v418h2441v-418h-2441z" />
<glyph unicode="`" horiz-adv-x="1278" d="M717 2294l-512 557h549l319 -557h-356z" />
<glyph unicode="a" horiz-adv-x="2163" d="M1458 0l-37 229q-75 -65 -149.5 -116.5t-155 -87.5t-169.5 -55t-193 -19q-186 0 -315.5 48.5t-210.5 131.5t-117.5 193t-36.5 233q0 106 26.5 201.5t84.5 176.5t151 146t226.5 110.5t310 70t401.5 24.5h69v74q0 94 -24 155.5t-69 98t-109.5 51t-145.5 14.5 q-74 0 -157.5 -15.5t-168.5 -41.5t-167.5 -60t-153.5 -71l-184 377q111 55 224.5 100.5t230 77.5t236.5 50t243 18q165 0 291 -20.5t219.5 -61t156.5 -99.5t101 -136.5t54.5 -172.5t16.5 -207v-909q0 -51 2 -115t5.5 -132.5l7 -136l6.5 -124.5h-500zM1343 922h-102 q-91 0 -167 -7.5t-136.5 -22.5t-105.5 -38.5t-75.5 -56t-45.5 -74t-15 -92.5q0 -65 19.5 -112.5t53.5 -79t79.5 -47t97.5 -15.5q57 0 107.5 11t98.5 32.5t95 53t96 71.5v377z" />
<glyph unicode="b" horiz-adv-x="2216" d="M225 2851h594v-901q51 32 111 60.5t129.5 49.5t148.5 33t168 12q175 0 309 -60.5t224.5 -181t137 -300.5t46.5 -420q0 -183 -29.5 -342.5t-90.5 -292t-155.5 -236t-224.5 -175t-297 -109t-374 -37.5q-95 0 -193.5 6t-190.5 16.5t-172.5 24.5t-140.5 31v2822zM819 377 q20 -9 42 -16t46.5 -11.5t50.5 -7t54 -2.5q100 0 183.5 45t143.5 132t93.5 215.5t33.5 295.5q0 187 -21.5 313t-62.5 202t-100.5 108t-134.5 32q-40 0 -82 -7.5t-83.5 -22t-82.5 -36t-80 -48.5v-1192z" />
<glyph unicode="c" horiz-adv-x="2077" d="M2003 377q-100 -112 -201 -192.5t-213.5 -132.5t-243 -76.5t-288.5 -24.5q-159 0 -290 27t-234.5 82.5t-180.5 141t-128 202t-76 265t-25 330.5q0 175 28 326t84 275t140.5 219.5t198.5 161t257 99.5t316 34q148 0 268.5 -23t213.5 -68t160.5 -112t110 -156t60.5 -199 t14 -241h-590q7 69 2 125t-20.5 98.5t-40.5 73t-57.5 50.5t-72.5 29t-85 9q-55 0 -102.5 -18.5t-87 -55t-69.5 -90t-51 -123.5t-31.5 -156.5t-10.5 -187.5q0 -116 11.5 -211t34.5 -170t57.5 -130.5t80.5 -92t103 -54.5t126 -18q71 0 134.5 20.5t123.5 58.5t117.5 93.5 t116.5 126.5z" />
<glyph unicode="d" horiz-adv-x="2216" d="M1499 0l-33 213q-69 -55 -144 -101.5t-154 -80.5t-161.5 -53t-166.5 -19q-175 0 -309 60.5t-224.5 181.5t-137 301t-46.5 420q0 229 43.5 406t120 308.5t180 221t224.5 144.5t254 79t267 24q25 0 51 -1.5t51 -3.5t46.5 -5t36.5 -6v762h594v-2851h-492zM1397 1683 q-18 9 -41.5 17t-49 13t-51.5 8t-51 3q-100 0 -183.5 -44.5t-143.5 -131.5t-93.5 -214.5t-33.5 -293.5q0 -170 18 -294t54 -204t89.5 -118.5t124.5 -38.5q52 0 102.5 14t96.5 36.5t87 51.5t75 58v1138z" />
<glyph unicode="e" horiz-adv-x="2241" d="M2093 229q-108 -68 -224.5 -119.5t-242.5 -87t-261.5 -53.5t-279.5 -18q-241 0 -421.5 61t-300.5 187t-180 320t-60 460q0 175 27.5 327t84.5 278t143.5 225t203.5 166.5t266.5 103t331.5 35.5q151 0 279.5 -29.5t231.5 -92.5t179.5 -161.5t125.5 -235.5t68.5 -314.5 t8.5 -399.5h-1319q0 -77 13 -142.5t39.5 -119t65.5 -94t91 -68.5t116.5 -42t141.5 -14q83 0 170 14.5t170 41.5t158.5 65t135.5 84zM1483 1245q3 103 -16 187.5t-62 145t-111.5 93.5t-163.5 33q-80 0 -147.5 -31.5t-117 -90.5t-79 -144t-32.5 -193h729z" />
<glyph unicode="f" horiz-adv-x="1241" d="M283 0v1614h-283v450h283v103q0 108 11 203t40 173.5t78.5 140t126.5 104t184 65t252 22.5q99 0 195.5 -15t177.5 -46l-95 -414q-27 12 -54 21t-54.5 14t-55.5 7.5t-57 2.5q-43 0 -72 -14.5t-46.5 -42.5t-25 -69t-7.5 -95v-160h389l-45 -450h-344v-1614h-598z" />
<glyph unicode="g" horiz-adv-x="2245" d="M1589 2462h627l-344 -570q41 -23 73 -73t54 -109t33.5 -118t11.5 -101q0 -123 -26 -222t-79 -175t-133.5 -131.5t-188.5 -90.5t-245 -52t-303 -17h-9t-13.5 0.5t-16.5 1t-18 2.5q-34 -5 -56 -15.5t-35 -25t-18.5 -30.5t-5.5 -31q0 -41 36 -65t97.5 -38.5t143.5 -23 t174.5 -17t189.5 -21.5t189.5 -37t174.5 -62.5t143.5 -97.5t97.5 -143.5t36 -199.5q0 -133 -28 -239.5t-88 -188t-153.5 -140.5t-223.5 -96.5t-298.5 -55t-379.5 -17.5q-178 0 -318.5 12.5t-247 38.5t-181.5 66t-122 95t-68.5 125.5t-21.5 157.5q0 75 28.5 140t80 119 t123 96t157.5 71q-57 23 -94 52.5t-58.5 66.5t-30.5 81.5t-9 98.5q0 57 25.5 113t72.5 108t112.5 98t145.5 83q-117 21 -200.5 72t-137 124.5t-79 165.5t-25.5 195t26 192t78.5 162.5t132 130t187.5 95.5t244 59t302 20q52 0 105.5 -2.5t104 -7.5t97.5 -12.5t87 -18.5z M1122 1122q71 0 126.5 18.5t94 57t58.5 98t20 142.5q0 92 -21.5 157t-62.5 106.5t-100.5 61t-134.5 19.5q-77 0 -137 -18.5t-101.5 -57t-63.5 -96t-22 -135.5q0 -94 23 -161t67.5 -109.5t108.5 -62.5t145 -20zM770 106q-32 -27 -54 -56.5t-35.5 -60.5t-19.5 -62t-6 -62 q0 -60 30.5 -106.5t90 -78.5t147.5 -48.5t203 -16.5q137 0 225 17t139 47t71 72t20 93q0 43 -9.5 76t-39 58.5t-84 44.5t-144.5 33.5t-221 26.5t-313 23z" />
<glyph unicode="h" horiz-adv-x="2228" d="M1413 0v1319q0 92 -12.5 156t-42 104t-78.5 58t-121 18q-45 0 -93 -11t-94 -29t-85.5 -40t-67.5 -43v-1532h-594v2851h594v-942q83 48 166.5 84.5t164.5 61t156.5 37.5t143.5 13q154 0 260 -33.5t172 -108t95.5 -193.5t29.5 -291v-1479h-594z" />
<glyph unicode="i" horiz-adv-x="1044" d="M217 2339v512h610v-512h-610zM225 0v2064h594v-2064h-594z" />
<glyph unicode="j" horiz-adv-x="1044" d="M217 2339v512h610v-512h-610zM-70 -324q75 36 130.5 78.5t92 95t54.5 117t18 144.5v1953h594v-1880q0 -209 -44 -360.5t-129 -259.5t-210.5 -180t-288.5 -121z" />
<glyph unicode="k" horiz-adv-x="2183" d="M1413 0l-594 1024v-1024h-594v2851h594v-1594l631 807h664l-725 -864l782 -1200h-758z" />
<glyph unicode="l" horiz-adv-x="1044" d="M225 0v2851h594v-2851h-594z" />
<glyph unicode="m" horiz-adv-x="3367" d="M2552 0v1323q0 91 -10.5 154t-36.5 102.5t-70.5 57.5t-112.5 18q-46 0 -95 -11.5t-94.5 -29.5t-85 -40.5t-65.5 -45.5v-1528h-593v1323q0 91 -10.5 154t-37 102.5t-71 57.5t-111.5 18q-46 0 -95 -11.5t-95 -29.5t-85 -40.5t-65 -45.5v-1528h-594v2064h504l33 -237 q80 66 171.5 117.5t184.5 87.5t183.5 54.5t168.5 18.5q88 0 160 -17t129 -51.5t98.5 -87t67.5 -122.5q80 66 171.5 117.5t184.5 87.5t184 54.5t169 18.5q114 0 208 -32t161.5 -105.5t105 -193.5t37.5 -295v-1479h-594z" />
<glyph unicode="n" horiz-adv-x="2228" d="M1413 0v1319q0 92 -12.5 156t-40 104t-73 58t-111.5 18q-48 0 -97 -12t-95.5 -32t-88.5 -46t-76 -54v-1511h-594v2064h492l33 -225q78 60 165 109t177 84t181 54t177 19q154 0 260 -33.5t172 -108t95.5 -193.5t29.5 -291v-1479h-594z" />
<glyph unicode="o" horiz-adv-x="2224" d="M1077 -49q-244 0 -423.5 61t-297.5 188t-175.5 322.5t-57.5 464.5q0 278 65 489t193.5 352.5t320 213.5t445.5 72q244 0 423.5 -61t297.5 -188.5t175.5 -323t57.5 -464.5q0 -185 -29 -340.5t-86.5 -280.5t-143 -219.5t-199.5 -158t-255.5 -95.5t-310.5 -32zM1114 352 q92 0 158 35t108 111t62 196t20 289q0 207 -20.5 347t-63.5 225t-109.5 121t-158.5 36t-158 -35t-108 -111t-62 -196t-20 -289q0 -207 20.5 -347t63.5 -225t109.5 -121t158.5 -36z" />
<glyph unicode="p" horiz-adv-x="2216" d="M225 -696v2760h492l33 -213q69 55 144 102t154 80.5t161.5 52.5t166.5 19q175 0 309 -60.5t224.5 -181t137 -300.5t46.5 -420q0 -230 -43.5 -407.5t-120 -309.5t-181 -223t-226.5 -147t-256.5 -80.5t-270.5 -24.5q-32 0 -57.5 0.5t-46 2t-38 4t-34.5 5.5v-659h-594z M819 385q23 -11 49.5 -19.5t52 -14t49.5 -8.5t42 -3q100 0 183.5 44.5t143.5 131.5t93.5 214.5t33.5 293.5q0 171 -18.5 294.5t-54.5 203.5t-89.5 118.5t-123.5 38.5q-53 0 -103 -14t-96 -36.5t-87 -51t-75 -57.5v-1135z" />
<glyph unicode="q" horiz-adv-x="2216" d="M1397 -696v802q-48 -30 -107 -58t-129 -49.5t-150.5 -34.5t-170.5 -13q-175 0 -309 60.5t-224.5 181t-137 300.5t-46.5 420q0 183 29.5 343t90.5 292.5t155.5 236t224.5 174.5t297 108.5t374 37.5q95 0 193.5 -6t190.5 -16.5t172.5 -25.5t140.5 -34v-2719h-594z M1397 1679q-20 9 -42.5 16t-46.5 11.5t-50 7t-54 2.5q-100 0 -183.5 -44.5t-143.5 -131.5t-93.5 -215.5t-33.5 -296.5q0 -188 21.5 -313.5t62.5 -201.5t100.5 -108t134.5 -32q40 0 82 7.5t83.5 22t82.5 36t80 48.5v1192z" />
<glyph unicode="r" horiz-adv-x="1450" d="M225 0v2064h520l33 -331q61 103 117 174t112.5 115t115 63.5t126.5 19.5q47 0 101 -8t100 -20l-74 -578q-43 16 -96.5 24.5t-99.5 8.5q-33 0 -63.5 -6.5t-60 -19t-58.5 -31.5t-58 -44t-59 -56t-62 -68v-1307h-594z" />
<glyph unicode="s" horiz-adv-x="2036" d="M1315 1487q4 69 -15 116t-58.5 76t-98 41.5t-131.5 12.5q-69 0 -125 -14.5t-95.5 -41.5t-61 -66.5t-21.5 -90.5q0 -55 34 -92.5t92 -64t135.5 -45.5t165 -37.5t179.5 -40t179.5 -53t165 -77t135.5 -111t92 -155t34 -209.5q0 -101 -30 -191.5t-88 -166.5t-143.5 -136.5 t-196.5 -102.5t-247 -64.5t-294 -22.5q-232 0 -391.5 38t-252.5 114t-124 190.5t-7 267.5l492 41q-11 -74 8 -125t65.5 -83.5t119 -47t167.5 -14.5q52 0 96.5 6t81 18t64.5 30t47 41t29 51.5t10 62.5q0 61 -33.5 103t-91 71.5t-134 50.5t-162.5 40.5l-177 41t-177 52 t-162.5 73.5t-134 106.5t-91 150.5t-33.5 204q0 155 59.5 280.5t175 214.5t286 137t392.5 48q183 0 335 -36.5t258 -109.5t158.5 -183t35.5 -257z" />
<glyph unicode="t" horiz-adv-x="1507" d="M1446 53q-74 -24 -152 -42t-157.5 -29.5t-157.5 -17t-152 -5.5q-96 0 -174.5 14.5t-140 45t-106.5 79.5t-74.5 117.5t-43.5 158.5t-14 204v1036h-274v450h274v578l598 70v-648h533l-49 -450h-484v-909q0 -65 8.5 -115t30 -83.5t57 -51t89.5 -17.5q31 0 65.5 2.5t72 7.5 t76 12.5t77.5 18.5z" />
<glyph unicode="u" horiz-adv-x="2228" d="M1511 0l-32 225q-78 -60 -165 -109t-177.5 -84t-181.5 -54t-177 -19q-153 0 -259.5 33.5t-172.5 109.5t-95.5 197.5t-29.5 298.5v1466h594v-1319q0 -92 12.5 -156t40.5 -103.5t73.5 -57.5t111.5 -18q48 0 96.5 12t95 32t88.5 45.5t76 53.5v1511h594v-2064h-492z" />
<glyph unicode="v" horiz-adv-x="1999" d="M721 0l-187 507l-178 513l-165.5 519t-149.5 525h639q34 -163 73.5 -325l83 -324.5l91 -325.5l96.5 -327q9 -34 15 -59.5t10 -47.5h8q1 11 4 25.5t6.5 29.5l7 29t6.5 23q102 328 190 652t159 650h528q-69 -266 -146.5 -528t-162.5 -520.5t-177 -512.5l-190 -503h-561z " />
<glyph unicode="w" horiz-adv-x="3117" d="M1896 0l-323 1270l-21 147h-4l-20 -147l-328 -1270h-532q-91 252 -172 506l-155.5 511l-144 518.5l-135.5 528.5h644q21 -147 52.5 -306t68.5 -322t78.5 -327.5l82.5 -322.5l21 -131l20 131l311 1278h603l303 -1282l20 -127l21 127q46 189 81 358t63.5 326t52 304.5 t44.5 293.5h533q-48 -267 -111 -528.5t-138.5 -518.5t-162.5 -511t-182 -506h-570z" />
<glyph unicode="x" horiz-adv-x="2077" d="M1372 -41l-389 713q-54 -86 -101 -172.5l-90 -171.5l-83 -167.5l-78 -160.5h-631l700 1077l-594 987l705 41l303 -569q42 74 76.5 144l65 136l59 128l57.5 120h619l-594 -925l680 -1139z" />
<glyph unicode="y" horiz-adv-x="1970" d="M324 -459q84 55 144.5 119t99.5 135t57 149t18 162q0 57 -29 160.5t-77.5 244.5l-110.5 315l-128 372.5t-131 417t-118 448.5h639q32 -163 76.5 -343t94.5 -364l102 -365l100 -345v0q51 163 94.5 343.5t80 365t65.5 365t51 343.5h569l-139 -576t-130.5 -486.5t-124 -407 t-118.5 -336.5q-56 -145 -112 -263.5t-112.5 -215t-114.5 -173t-119.5 -138.5t-126.5 -112t-136 -93z" />
<glyph unicode="z" horiz-adv-x="1745" d="M74 0v410l848 1228h-824l41 426h1475v-368l-877 -1262h934l-37 -434h-1560z" />
<glyph unicode="{" horiz-adv-x="1487" d="M938 -696q-103 0 -199 35t-170 101t-118.5 161t-44.5 215v864q0 41 -5.5 76.5t-17 64.5t-29 51.5t-41 38t-53.5 23.5t-67 8h-70v344h65q63 0 105 14.5t67 41.5t35.5 65t10.5 84v852q0 78 18 145.5t51.5 124t81.5 101t107 75t128 46.5t146 16h344v-320h-152 q-57 0 -92.5 -12.5t-56 -37t-28 -62t-7.5 -88.5v-791q0 -87 -22 -151t-58 -109.5t-81 -74.5t-91 -46.5t-88.5 -25.5t-73.5 -11v-8q31 -2 73.5 -7t88.5 -20t91 -42.5t81 -75.5t58 -118.5t22 -170.5v-856q0 -52 9 -90t30.5 -62.5t57 -36.5t87.5 -12h152v-319h-344z" />
<glyph unicode="|" horiz-adv-x="1311" d="M410 -696v3547h491v-3547h-491z" />
<glyph unicode="}" horiz-adv-x="1487" d="M549 2851q103 0 199 -35t170 -101t118.5 -161t44.5 -215v-791q0 -41 5.5 -76.5t17 -64.5t29 -51.5t41 -38t53.5 -23.5t67 -8h70v-344h-66q-63 0 -105 -14.5t-66.5 -41.5t-35 -65t-10.5 -84v-925q0 -78 -18 -146t-51.5 -124.5t-81.5 -100.5t-107 -74.5t-128 -46.5 t-146 -16h-344v319h151q57 0 93 12.5t56.5 37.5t28 62.5t7.5 88.5v864q0 87 22 151t57.5 109.5t80.5 74.5t91 46.5t88.5 25.5t73.5 11v8q-31 2 -73.5 7t-88.5 20t-91 42.5t-80.5 75.5t-57.5 118.5t-22 170.5v783q0 52 -9 90t-31 62.5t-57.5 36t-87.5 11.5h-151v320h344z" />
<glyph unicode="~" horiz-adv-x="2441" d="M2269 2429q0 -197 -44.5 -343.5t-126 -244t-197.5 -146t-259 -48.5q-104 0 -185 24.5t-146 64.5t-116 91t-93.5 104.5l-79.5 104.5t-74.5 91t-77.5 64.5t-88 24.5q-44 0 -76.5 -22t-53.5 -68t-31.5 -117.5t-10.5 -169.5v-119h-438v144q0 196 44.5 343t126 244.5 t197.5 146t259 48.5q104 0 187.5 -24.5t150.5 -64.5t120.5 -91t97.5 -104.5t81.5 -104.5t73 -91t72 -64.5t77.5 -24.5q45 0 77.5 22t53.5 68t31 117t10 170v118h438v-143z" />
<glyph unicode="&#xa1;" horiz-adv-x="1237" d="M770.028 1487.05q45.9971 -231.986 80.4951 -457.473t57.4971 -455.972q22.998 -230.486 34.4971 -471.472q11.5 -240.985 11.5 -503.969h-740.955q0 263.983 11.499 505.969q11.5 241.985 34.498 472.472q22.999 230.485 57.4971 454.972 q34.4971 224.486 80.4941 455.473h372.978zM885.021 2314v-605.963h-601.963v605.963h601.963z" />
<glyph unicode="&#xa2;" horiz-adv-x="2175" d="M975 0v373q-136 9 -249 40.5t-203.5 86.5t-157.5 135t-112 186.5t-67 240.5t-22 298q0 150 22 281.5t67 241.5t112 199t157.5 154.5t203.5 108t249 59.5v312h344v-303q184 -15 315.5 -72t214.5 -153.5t119.5 -232t30.5 -308.5h-565q6 67 0.5 120t-20.5 93t-40.5 68 t-58.5 45.5t-74.5 25.5t-89.5 8q-58 0 -107.5 -15.5t-89.5 -47.5t-70.5 -79.5t-51 -112t-31 -145t-10.5 -177.5q0 -112 11.5 -200.5t34 -155.5t57 -115t81 -78t104.5 -44t129 -14q68 0 134 17.5t129.5 52.5t123.5 86t117 119l336 -340q-71 -77 -151.5 -139t-171.5 -109 t-192.5 -78.5t-213.5 -46.5v-385h-344z" />
<glyph unicode="&#xa3;" horiz-adv-x="2310" d="M156 0v414q55 23 102.5 54.5t86.5 70.5t70 84t53 96.5t35 108t17 118.5h-364v397h258l-76 121.5t-71.5 130.5t-53 149t-20.5 177q0 113 28 219t83.5 200t138 172t193 134.5t247.5 87.5t301 31q171 0 307 -34t239.5 -97t175 -153.5t113.5 -203.5t56 -247.5t2 -284.5h-647 q7 115 -0.5 212t-38.5 167t-90 109.5t-154 39.5q-68 0 -123.5 -26.5t-95.5 -71t-62 -101t-22 -116.5q0 -65 13 -122.5t35.5 -110t51 -101t59.5 -95.5l61.5 -93t57.5 -93h631l-29 -397h-524q-6 -44 -16 -85.5t-24.5 -80t-33 -75t-41 -70.5t-49 -65.5t-57.5 -61.5h1143 l-41 -508h-1925z" />
<glyph unicode="&#xa4;" horiz-adv-x="2441" d="M1565 668q-31 -22 -76.5 -43t-99.5 -38t-112.5 -27.5t-113.5 -10.5q-32 0 -81.5 5.5t-102.5 18t-102.5 32t-81.5 46.5l-385 -385l-287 287l356 356q-21 43 -38 91t-28.5 101t-17.5 111t-6 123q0 58 6.5 113.5t19.5 107.5t31 100t41 93l-352 352l320 324l368 -373 q43 23 95.5 42t107 32.5t109 20.5t102.5 7q45 0 96 -6t102.5 -19t100 -33t86.5 -48l381 377l287 -283l-361 -356q20 -40 35 -85t25.5 -95.5t16 -108t5.5 -121.5q0 -58 -7 -114t-20 -108t-32 -100t-43 -91l372 -369l-319 -324zM1200 930q84 0 149.5 26t110.5 79.5t68.5 136 t23.5 196.5q0 95 -20 170.5t-63 128t-110.5 80t-162.5 27.5q-69 0 -132 -27t-111 -79.5t-76.5 -130.5t-28.5 -181q0 -91 20 -169t62.5 -135t109 -89.5t160.5 -32.5z" />
<glyph unicode="&#xa5;" horiz-adv-x="2298" d="M1430 414v-414h-615v414h-696v319h696v287h-696v319h594l-154 283l-170.5 334.5l-177.5 370l-174 389.5h713q91 -246 196.5 -492.5t224.5 -494.5h13l134.5 260l119 245.5l110 239.5l107.5 242h602l-188 -392l-185.5 -362.5l-180 -329.5l-171.5 -293h594v-319h-696v-287 h696v-319h-696z" />
<glyph unicode="&#xa6;" horiz-adv-x="1217" d="M365 1528v1323h487v-1323h-487zM365 -696v1323h487v-1323h-487z" />
<glyph unicode="&#xa7;" horiz-adv-x="2437" d="M877 29q0 -92 20.5 -159t64 -110t110.5 -63.5t161 -20.5q91 0 162.5 17t121 47.5t75.5 72.5t26 93q0 84 -35.5 141.5t-96 97t-141.5 66.5t-172.5 50.5l-187.5 48.5t-187.5 60.5t-172.5 87t-141.5 127.5t-96 181.5t-35.5 249.5q0 78 16 150.5t47.5 138t78 122.5t108.5 105 q-43 26 -83.5 70.5t-72 108.5t-50.5 148.5t-19 192.5q0 157 63 288t183 225.5t294.5 147t397.5 52.5q141 0 258 -18t209.5 -54t161.5 -89t115 -122t68.5 -154.5t22.5 -185.5l-540 -57q0 69 -18 119t-57 83t-101.5 48.5t-151.5 15.5q-53 0 -98 -7.5t-81 -21t-63 -32.5 t-45.5 -42.5t-27.5 -50t-9 -55.5q0 -71 36 -120.5t97.5 -84.5t143.5 -61t174.5 -50.5l190 -52t190 -66t174.5 -93t143.5 -132.5t97.5 -184.5t36 -248.5q0 -75 -16 -146t-47.5 -136t-77 -123t-105.5 -107q49 -42 89.5 -93.5t70 -115.5t45.5 -142.5t16 -173.5 q0 -109 -33 -207.5t-95.5 -181.5t-153 -149.5t-205 -113.5t-252 -72t-293.5 -25q-224 0 -386 40.5t-266.5 126.5t-154 220t-49.5 321zM1053 1339q-32 -21 -55.5 -50t-38.5 -60.5t-22 -64.5t-7 -62q0 -58 24 -100.5t67 -74.5t102 -56.5t128.5 -46t147 -42t157.5 -45.5 q23 22 40 47t28.5 51.5t17 54.5t5.5 56q0 57 -17.5 102.5t-52 81.5t-85 65t-116.5 53.5t-147 46z" />
<glyph unicode="&#xa8;" horiz-adv-x="1581" d="M934 2380v426h442v-426h-442zM205 2380v426h442v-426h-442z" />
<glyph unicode="&#xa9;" horiz-adv-x="3006" d="M1536 -49q-201 0 -383.5 51t-339 144.5t-283.5 224.5t-216.5 291t-138 345t-48.5 386q0 200 50 386t141.5 348t220.5 295.5t287 228.5t341.5 147.5t384.5 52.5t383.5 -51t339 -144.5t283.5 -224.5t216.5 -291t138 -345t48.5 -386t-50 -387t-141 -348t-220 -295 t-287.5 -228.5t-342 -147.5t-384.5 -52zM1552 205q165 0 312.5 42t273 119t225.5 185.5t170.5 240.5t108 284t37.5 317t-39 318t-111 287t-174.5 244t-229.5 189t-275.5 122.5t-313.5 43.5t-312.5 -42t-272.5 -119.5t-225 -185.5t-170.5 -240t-108 -284t-37.5 -317t39 -318 t111 -287t174 -244t229 -189t275.5 -122.5t313.5 -43.5zM2302 889q-72 -78 -155.5 -138t-180 -100.5t-206.5 -61t-236 -20.5q-194 0 -337 46t-237.5 144.5t-141 252t-46.5 368.5q0 137 23 254.5t68.5 213t114 169t160 123.5t206 75.5t251.5 25.5q124 0 223.5 -18t176 -53.5 t130.5 -88.5t88 -122.5t48 -156t10 -188.5h-467q6 54 2.5 97t-15.5 75t-32 55t-47 37t-60.5 20.5t-72.5 6.5q-47 0 -87 -12.5t-72.5 -38.5t-57 -65t-41 -91t-25 -118t-8.5 -146q0 -137 19.5 -231t60.5 -152t104.5 -83.5t151.5 -25.5q57 0 111 14t105.5 41.5t100 69 t92.5 96.5z" />
<glyph unicode="&#xaa;" horiz-adv-x="1737" d="M1094 1462l-17 193q-41 -51 -89 -91t-107 -68t-130.5 -43t-160.5 -15q-122 0 -213 25t-152.5 73.5t-92 119.5t-30.5 163q0 111 47 206t153 164.5t277 109.5t420 40h58v49q0 64 -17.5 105t-50.5 64t-82 31.5t-112 8.5q-54 0 -114 -9t-121.5 -24.5t-121.5 -37.5t-114 -48 l-156 254q74 35 154 65t167.5 52t183 34.5t199.5 12.5q186 0 310.5 -30.5t199.5 -89.5t106.5 -146t31.5 -201v-619q0 -35 1.5 -79t3.5 -90.5t5 -92.5t6 -86h-442zM1057 2109h-62q-107 0 -185 -17.5t-128.5 -48t-75 -72.5t-24.5 -91q0 -43 15 -74.5t40 -52.5t57.5 -31 t67.5 -10q54 0 106.5 15t94.5 54.5t68 108.5t26 178v41zM160 831v386h1376v-386h-1376z" />
<glyph unicode="&#xab;" horiz-adv-x="1626" d="M1180 492l-369 675l369 693h221l-221 -693l221 -675h-221zM594 492l-373 675l373 693h217l-217 -693l217 -675h-217z" />
<glyph unicode="&#xac;" horiz-adv-x="2376" d="M1663 377v733h-1458v479h1966v-1212h-508z" />
<glyph unicode="&#xad;" horiz-adv-x="950" d="M0 901v447h930v-447h-930z" />
<glyph unicode="&#xae;" horiz-adv-x="2462" d="M1229 913q-158 0 -302.5 39.5t-270 111.5t-227.5 173.5t-175 225t-112.5 265t-39.5 295.5t40 296t113.5 265t176.5 224.5t228 173.5t269 111.5t300 39.5t300.5 -39t269.5 -111t227.5 -173t175.5 -224t113 -265.5t40 -297.5q0 -151 -40.5 -292.5t-114 -264.5t-176.5 -225 t-228.5 -175t-269 -113t-297.5 -40zM1229 1167q116 0 223.5 30.5t201 86.5t171 134.5t132.5 173.5t85.5 204t30.5 227q0 117 -30.5 226t-85.5 204.5t-132.5 175t-171 136t-201 88t-223.5 31.5t-223.5 -30.5t-201 -86.5t-171 -134.5t-132.5 -173.5t-85.5 -204t-30.5 -227 q0 -117 30.5 -226t85.5 -204.5t132.5 -175t171 -136t201 -88t223.5 -31.5zM1397 1458l-217 447h-74v-447h-283v1180h443q211 0 314 -84.5t103 -259.5q0 -60 -16 -112t-46 -95t-72.5 -76.5t-94.5 -56.5l258 -496h-315zM1221 2114q86 0 131 43t45 120q0 42 -10.5 69.5 t-31.5 44t-53.5 23.5t-76.5 7h-119v-307h115z" />
<glyph unicode="&#xaf;" horiz-adv-x="1511" d="M205 2380v381h1102v-381h-1102z" />
<glyph unicode="&#x2c9;" horiz-adv-x="1511" d="M205 2380v381h1102v-381h-1102z" />
<glyph unicode="&#xb0;" horiz-adv-x="1626" d="M1425 2224q0 -84 -22.5 -161.5t-63 -145t-97.5 -122.5t-125.5 -94.5t-147 -61t-162.5 -21.5q-128 0 -239 45.5t-193.5 126t-130 189.5t-47.5 237q0 84 22.5 161.5t63 145t97.5 122.5t125.5 94.5t147 61t162.5 21.5q127 0 238.5 -45.5t194 -126t130 -190t47.5 -236.5z M1110 2216q0 63 -23.5 119.5t-65 99t-96.5 67.5t-118 25t-117 -23.5t-93.5 -65t-62 -96.5t-22.5 -118t23.5 -119.5t65 -99t96.5 -67.5t118 -25t117 23.5t93.5 65t62 96.5t22.5 118z" />
<glyph unicode="&#xb1;" horiz-adv-x="2376" d="M934 705v733h-729v479h729v729h508v-729h729v-479h-729v-733h-508zM205 0v479h1966v-479h-1966z" />
<glyph unicode="&#xb2;" horiz-adv-x="1446" d="M164 1266v340q47 66 99.5 122.5t107 106t108 92l102.5 81.5l91 74.5t73 70.5t48.5 69.5t17.5 71.5q0 43 -9 70t-26 42.5t-41 21t-55 5.5q-35 0 -60.5 -9t-42.5 -30.5t-26 -57t-10 -87.5h-389q1 136 35 230.5t102 153.5t172.5 85t247.5 26q156 0 260.5 -35t167.5 -94 t89.5 -137t26.5 -164q0 -97 -33 -172t-86 -135t-119 -108t-133 -91l-128 -85t-103 -89h660l-49 -368h-1098z" />
<glyph unicode="&#xb3;" horiz-adv-x="1536" d="M532 1864v299h58q89 0 144 14t86 38.5t41.5 58t10.5 73.5q0 26 -7 50.5t-25.5 43t-50 30t-80.5 11.5q-28 0 -59 -11.5t-57.5 -33t-45 -53.5t-19.5 -74h-348q1 75 20 136t54 109.5t84.5 84t110.5 58.5t132.5 34.5t151.5 11.5q146 0 251 -24.5t173 -71.5t100.5 -114.5 t32.5 -153.5q0 -57 -14 -105.5t-48 -89.5t-91.5 -75t-145.5 -62v-4q102 -20 169 -51t106.5 -73t56 -94.5t16.5 -113.5q0 -94 -23.5 -166t-66 -124.5t-102.5 -88t-132 -57t-155 -30.5t-172 -9q-109 0 -191 11.5t-139.5 34.5t-94 58t-55.5 82.5t-23 107t3 132.5h414 q-6 -37 -2 -66t19.5 -49t42.5 -30.5t67 -10.5q20 0 50.5 4t59.5 22.5t49.5 55.5t20.5 103q0 63 -18 97.5t-56.5 51t-98 20t-142.5 3.5h-62z" />
<glyph unicode="&#xb4;" horiz-adv-x="1278" d="M205 2294l319 557h549l-512 -557h-356z" />
<glyph unicode="&#xb5;" horiz-adv-x="2204" d="M1483 0l-33 229q-63 -55 -126 -102.5t-127.5 -82t-133 -54t-141.5 -19.5q-25 0 -53 5t-50 24v-696h-594v2760h594v-1323q0 -93 10 -157t35 -103.5t65.5 -57t102.5 -17.5q48 0 100 11t100 28.5t87.5 39.5t60.5 43v1536h598v-2064h-495z" />
<glyph unicode="&#x3bc;" horiz-adv-x="2204" d="M1483 0l-33 229q-63 -55 -126 -102.5t-127.5 -82t-133 -54t-141.5 -19.5q-25 0 -53 5t-50 24v-696h-594v2760h594v-1323q0 -93 10 -157t35 -103.5t65.5 -57t102.5 -17.5q48 0 100 11t100 28.5t87.5 39.5t60.5 43v1536h598v-2064h-495z" />
<glyph unicode="&#xb6;" horiz-adv-x="2388" d="M1692 -696v3092h-312v-3092h-430v1650v0q-130 16 -242 49.5t-204.5 87t-164 126.5t-120.5 167.5t-74.5 211t-25.5 255.5q0 122 27.5 233.5t81 207.5t131.5 174.5t179.5 134t225.5 85.5t268 30h1090v-3412h-430z" />
<glyph unicode="&#xb7;" horiz-adv-x="1122" d="M246 1040v656h631v-656h-631z" />
<glyph unicode="&#x2219;" horiz-adv-x="1122" d="M246 1040v656h631v-656h-631z" />
<glyph unicode="&#xb8;" horiz-adv-x="1192" d="M205 -696l74 340h442l-168 356h270l164 -356l-74 -340h-708z" />
<glyph unicode="&#xb9;" horiz-adv-x="1204" d="M135 1266v315h275v778l-213 -69l-86 266l495 176h209v-1151h262v-315h-942z" />
<glyph unicode="&#xba;" horiz-adv-x="1720" d="M819 1434q-183 0 -316.5 40t-220.5 125.5t-129 217.5t-42 317q0 190 48 333t143.5 238.5t238 143t331.5 47.5q184 0 319.5 -41t223.5 -126t131 -216.5t43 -312.5q0 -191 -49 -334.5t-145.5 -239.5t-241 -144t-334.5 -48zM856 1708q66 0 114 22.5t79 72t46 128.5t15 191 q0 144 -15 240t-46 153.5t-79 81.5t-114 24q-72 0 -123 -22.5t-84 -73t-48 -130.5t-15 -195q0 -141 15 -235.5t48 -151.5t84 -81t123 -24zM176 831v386h1376v-386h-1376z" />
<glyph unicode="&#xbb;" horiz-adv-x="1626" d="M811 492l221 675l-221 693h221l369 -693l-369 -675h-221zM221 492l221 675l-221 693h221l369 -693l-369 -675h-221z" />
<glyph unicode="&#xbc;" horiz-adv-x="2957" d="M496 0l1499 2716h377l-1491 -2716h-385zM2191 0v315h-626v271l499 864h545v-823h197v-312h-197v-315h-418zM2191 1085h-4l-245 -450h249v450zM135 1266v315h275v778l-213 -69l-86 266l495 176h209v-1151h262v-315h-942z" />
<glyph unicode="&#xbd;" horiz-adv-x="3002" d="M496 0l1499 2716h377l-1491 -2716h-385zM135 1266v315h275v778l-213 -69l-86 266l495 176h209v-1151h262v-315h-942zM1720 0v340q62 88 134.5 159.5t144.5 131.5l138.5 111t117.5 98t81.5 93t30.5 95q0 43 -9 70t-26 42.5t-41 21t-55 5.5q-35 0 -60.5 -9t-42.5 -30.5 t-26 -57t-10 -87.5h-389q0 133 33.5 227.5t102 154t173.5 87t248 27.5q157 0 261.5 -35t167.5 -94t89.5 -137t26.5 -164q0 -98 -33 -173t-86 -135t-119 -108t-133 -91l-128 -84.5t-103 -88.5h659l-49 -369h-1098z" />
<glyph unicode="&#xbe;" horiz-adv-x="3142" d="M532 1864v299h58q89 0 144 14t86 38.5t41.5 58t10.5 73.5q0 26 -7 50.5t-25.5 43t-50 30t-80.5 11.5q-28 0 -59 -11.5t-57.5 -33t-45 -53.5t-19.5 -74h-348q1 75 20 136t54 109.5t84.5 84t110.5 58.5t132.5 34.5t151.5 11.5q146 0 251 -24.5t173 -71.5t100.5 -114.5 t32.5 -153.5q0 -57 -14 -105.5t-48 -89.5t-91.5 -75t-145.5 -62v-4q102 -20 169 -51t106.5 -73t56 -94.5t16.5 -113.5q0 -94 -23.5 -166t-66 -124.5t-102.5 -88t-132 -57t-155 -30.5t-172 -9q-109 0 -191 11.5t-139.5 34.5t-94 58t-55.5 82.5t-23 107t3 132.5h414 q-6 -37 -2 -66t19.5 -49t42.5 -30.5t67 -10.5q20 0 50.5 4t59.5 22.5t49.5 55.5t20.5 103q0 63 -18 97.5t-56.5 51t-98 20t-142.5 3.5h-62zM680 0l1499 2716h377l-1491 -2716h-385zM2376 0v315h-627v271l500 864h544v-823h197v-312h-197v-315h-417zM2376 1085h-4l-246 -450 h250v450z" />
<glyph unicode="&#xbf;" horiz-adv-x="2097" d="M1339.05 1483.05q0 -109.993 -14.999 -197.488q-14.999 -87.4941 -40.998 -157.99q-25.998 -70.4961 -60.4961 -125.992q-34.498 -55.4971 -73.4951 -102.494q-38.998 -46.9971 -79.9951 -86.9941l-79.9951 -78.4951q-38.998 -38.498 -73.4961 -78.9961 q-34.4971 -40.4971 -60.4961 -87.4941q-25.998 -46.9971 -40.9971 -103.494q-14.999 -56.4961 -14.999 -127.492q0 -70.9951 18.998 -128.992q18.999 -57.9961 55.4971 -99.4932q36.498 -41.498 90.9941 -64.4961q54.4971 -22.999 125.492 -22.999q82.9951 0 140.992 37.498 q57.9961 37.4971 97.9941 99.9941q39.9971 62.4961 66.4951 142.991q26.499 80.4951 46.4971 166.489l474.972 -196.987q-29.998 -114.993 -70.4961 -212.987q-40.4971 -97.9941 -95.9941 -178.989q-55.4961 -80.9951 -126.492 -142.991q-70.9951 -61.9961 -161.49 -103.994 q-90.4941 -41.9971 -202.487 -63.9961q-111.993 -21.998 -247.985 -21.998q-200.987 0 -357.478 55.4961q-156.491 55.4971 -263.984 154.991q-107.493 99.4932 -162.99 236.985q-55.4961 137.491 -55.4961 302.481q0 133.992 28.998 236.485 q28.998 102.494 75.9951 182.489t107.494 142.491q60.4961 62.4961 123.492 116.993l123.492 106.493t107.493 110.493t75.9961 129.492q28.998 70.9951 28.998 162.99h494.97zM1393.04 2310v-605.963h-601.964v605.963h601.964z" />
<glyph unicode="&#xc0;" horiz-adv-x="2425" d="M1729 0l-59 260.5l-68 276.5h-902l-67 -262.5t-64 -274.5h-569l189 699.5l202 686l214.5 672l225.5 658.5h758q240 -676 447 -1356.5t389 -1359.5h-696zM1470 1016l-70 265.5l-76 271l-84 280l-93 293.5v0l-88.5 -290.5l-82 -278.5l-76.5 -271.5l-73 -269.5h643z M1016 2851l-504 426h557l311 -426h-364z" />
<glyph unicode="&#xc1;" horiz-adv-x="2425" d="M1729 0l-59 260.5l-68 276.5h-902l-67 -262.5t-64 -274.5h-569l189 699.5l202 686l214.5 672l225.5 658.5h758q240 -676 447 -1356.5t389 -1359.5h-696zM1470 1016l-70 265.5l-76 271l-84 280l-93 293.5v0l-88.5 -290.5l-82 -278.5l-76.5 -271.5l-73 -269.5h643z M1016 2851l311 426h557l-504 -426h-364z" />
<glyph unicode="&#xc2;" horiz-adv-x="2425" d="M1729 0l-59 260.5l-68 276.5h-902l-67 -262.5t-64 -274.5h-569l189 699.5l202 686l214.5 672l225.5 658.5h758q240 -676 447 -1356.5t389 -1359.5h-696zM1470 1016l-70 265.5l-76 271l-84 280l-93 293.5v0l-88.5 -290.5l-82 -278.5l-76.5 -271.5l-73 -269.5h643z M1430 2830l-226 242l-217 -242h-446l467 447h401l467 -447h-446z" />
<glyph unicode="&#xc3;" horiz-adv-x="2425" d="M1729 0l-59 260.5l-68 276.5h-902l-67 -262.5t-64 -274.5h-569l189 699.5l202 686l214.5 672l225.5 658.5h758q240 -676 447 -1356.5t389 -1359.5h-696zM1470 1016l-70 265.5l-76 271l-84 280l-93 293.5v0l-88.5 -290.5l-82 -278.5l-76.5 -271.5l-73 -269.5h643z M1970 3203q-37 -77 -88 -140.5t-115.5 -108.5t-142 -70t-166.5 -25q-53 0 -100.5 12t-91 30.5t-84 39.5t-80.5 39.5t-80.5 30.5t-83.5 12q-42 0 -79 -12t-70.5 -35.5t-63.5 -58t-57 -78.5l-209 176q37 75 89 138t116 109t138.5 71.5t156.5 25.5q52 0 98.5 -12t90 -30.5 t85 -39.5t83.5 -39.5t85 -30.5t90 -12q74 0 141 49t129 135z" />
<glyph unicode="&#xc4;" horiz-adv-x="2425" d="M1729 0l-59 260.5l-68 276.5h-902l-67 -262.5t-64 -274.5h-569l189 699.5l202 686l214.5 672l225.5 658.5h758q240 -676 447 -1356.5t389 -1359.5h-696zM1470 1016l-70 265.5l-76 271l-84 280l-93 293.5v0l-88.5 -290.5l-82 -278.5l-76.5 -271.5l-73 -269.5h643z M1348 2851v426h442v-426h-442zM619 2851v426h442v-426h-442z" />
<glyph unicode="&#xc5;" horiz-adv-x="2425" d="M1729 0l-59 260.5l-68 276.5h-902l-67 -262.5t-64 -274.5h-569l189 699.5l202 686l214.5 672l225.5 658.5h758q240 -676 447 -1356.5t389 -1359.5h-696zM1470 1016l-70 265.5l-76 271l-84 280l-93 293.5v0l-88.5 -290.5l-82 -278.5l-76.5 -271.5l-73 -269.5h643z M1671 3187q0 -100 -31.5 -176.5t-93 -128.5t-151.5 -78.5t-207 -26.5q-112 0 -196.5 22.5t-140.5 69t-84.5 117.5t-28.5 168q0 100 31.5 176.5t93 128.5t151.5 78.5t207 26.5q112 0 196.5 -22.5t140.5 -69t84.5 -117.5t28.5 -168zM1209 3006q76 0 109.5 42t33.5 122 q0 81 -37 122.5t-115 41.5q-77 0 -110 -41.5t-33 -122.5q0 -80 37 -122t115 -42z" />
<glyph unicode="&#xc6;" horiz-adv-x="3351" d="M1532 0v537h-725l-100.5 -262.5l-100.5 -274.5h-614l279.5 699.5l292.5 686l303.5 672l312.5 658.5h2093l-58 -508h-1073v-578h877v-491h-877v-631h1102v-508h-1712zM1532 2208h-33l-145 -336.5l-133 -312l-118.5 -286l-103.5 -257.5h533v1192z" />
<glyph unicode="&#xc7;" horiz-adv-x="2441" d="M725 -696l74 340h442l-147 311q-157 15 -289.5 65t-240 132t-189 194.5t-137 253.5t-83.5 309t-28 361q0 222 31.5 419.5t95.5 363.5t160.5 298t227 224t294 141t362.5 49q263 0 456.5 -72.5t316.5 -203t176 -312t34 -399.5l-634 -70q6 132 -13 234.5t-66 172t-123 106 t-183 36.5q-84 0 -152 -29t-121.5 -84t-92.5 -134.5t-64.5 -180.5t-37.5 -222t-12 -259q0 -157 13.5 -283.5t40.5 -225.5t67.5 -170.5t93.5 -118t119.5 -69t145.5 -22.5q103 0 178 39t126 104t79.5 149t37.5 175h648q-14 -192 -85.5 -359.5t-195.5 -296t-298 -210 t-392 -101.5l147 -315l-73 -340h-709z" />
<glyph unicode="&#xc8;" horiz-adv-x="2064" d="M246 0v2716h1741l-58 -508h-1061v-570h865v-491h-865v-639h1090v-508h-1712zM1000 2851l-504 426h557l311 -426h-364z" />
<glyph unicode="&#xc9;" horiz-adv-x="2064" d="M246 0v2716h1741l-58 -508h-1061v-570h865v-491h-865v-639h1090v-508h-1712zM897 2851l311 426h557l-504 -426h-364z" />
<glyph unicode="&#xca;" horiz-adv-x="2064" d="M246 0v2716h1741l-58 -508h-1061v-570h865v-491h-865v-639h1090v-508h-1712zM1340 2830l-226 242l-217 -242h-446l467 447h401l467 -447h-446z" />
<glyph unicode="&#xcb;" horiz-adv-x="2064" d="M246 0v2716h1741l-58 -508h-1061v-570h865v-491h-865v-639h1090v-508h-1712zM1258 2851v426h442v-426h-442zM529 2851v426h442v-426h-442z" />
<glyph unicode="&#xcc;" horiz-adv-x="1114" d="M246 0v2716h622v-2716h-622zM399 2851l-504 426h557l311 -426h-364z" />
<glyph unicode="&#xcd;" horiz-adv-x="1114" d="M246 0v2716h622v-2716h-622zM352 2851l311 426h557l-504 -426h-364z" />
<glyph unicode="&#xce;" horiz-adv-x="1114" d="M246 0v2716h622v-2716h-622zM767 2830l-226 242l-217 -242h-446l467 447h401l467 -447h-446z" />
<glyph unicode="&#xcf;" horiz-adv-x="1114" d="M246 0v2716h622v-2716h-622zM697 2851v426h442v-426h-442zM-32 2851v426h442v-426h-442z" />
<glyph unicode="&#xd0;" horiz-adv-x="2494" d="M295 0v1139h-246v508h246v1069q104 0 207.5 0.5t206.5 1.5t204 1.5t201 0.5q198 0 368.5 -31.5t311 -97.5t250 -167.5t184 -242.5t113.5 -322t39 -405q0 -218 -35 -410.5t-107 -354t-183 -289.5t-263.5 -217t-348 -136t-435.5 -47h-713zM1065 508q114 0 207.5 24.5 t168 73t129.5 122t91 172t54 221.5t18 272q0 128 -14.5 238.5t-46.5 201.5t-84 161.5t-126 119t-172.5 73.5t-224.5 25h-147v-565h294v-508h-294v-631h147z" />
<glyph unicode="&#xd1;" horiz-adv-x="2511" d="M1663 0l-946 1946v-1946h-471v2716h741l807 -1672v1672h471v-2716h-602zM2056 3203q-37 -77 -88 -140.5t-115.5 -108.5t-142 -70t-166.5 -25q-53 0 -100.5 12t-91 30.5t-84 39.5t-80.5 39.5t-80.5 30.5t-83.5 12q-42 0 -79 -12t-70.5 -35.5t-63.5 -58t-57 -78.5l-209 176 q37 75 89 138t116 109t138.5 71.5t156.5 25.5q52 0 98.5 -12t90 -30.5t85 -39.5t83.5 -39.5t85 -30.5t90 -12q74 0 141 49t129 135z" />
<glyph unicode="&#xd2;" horiz-adv-x="2523" d="M1237 -49q-198 0 -357 41.5t-282.5 121.5t-212.5 196t-146 264t-84.5 327t-27.5 385q0 209 30.5 400t92.5 355t157 298t223.5 228.5t292 146t363.5 51.5q198 0 357 -41.5t282.5 -121.5t212.5 -196t146 -264t84.5 -327t27.5 -385q0 -190 -27 -374t-85 -348t-149.5 -303 t-220 -240t-297 -157.5t-380.5 -56.5zM1262 459q84 0 152.5 27.5t122.5 80.5t94 130t66 177t39 221t13 261q0 226 -27.5 395t-87 281.5t-151.5 168.5t-221 56q-84 0 -153 -27.5t-123 -80.5t-94 -130t-66 -177t-39 -221t-13 -261q0 -226 28 -395t87 -281.5t151.5 -168.5 t221.5 -56zM1131 2851l-504 426h557l311 -426h-364z" />
<glyph unicode="&#xd3;" horiz-adv-x="2523" d="M1237 -49q-198 0 -357 41.5t-282.5 121.5t-212.5 196t-146 264t-84.5 327t-27.5 385q0 209 30.5 400t92.5 355t157 298t223.5 228.5t292 146t363.5 51.5q198 0 357 -41.5t282.5 -121.5t212.5 -196t146 -264t84.5 -327t27.5 -385q0 -190 -27 -374t-85 -348t-149.5 -303 t-220 -240t-297 -157.5t-380.5 -56.5zM1262 459q84 0 152.5 27.5t122.5 80.5t94 130t66 177t39 221t13 261q0 226 -27.5 395t-87 281.5t-151.5 168.5t-221 56q-84 0 -153 -27.5t-123 -80.5t-94 -130t-66 -177t-39 -221t-13 -261q0 -226 28 -395t87 -281.5t151.5 -168.5 t221.5 -56zM1065 2851l311 426h557l-504 -426h-364z" />
<glyph unicode="&#xd4;" horiz-adv-x="2523" d="M1237 -49q-198 0 -357 41.5t-282.5 121.5t-212.5 196t-146 264t-84.5 327t-27.5 385q0 209 30.5 400t92.5 355t157 298t223.5 228.5t292 146t363.5 51.5q198 0 357 -41.5t282.5 -121.5t212.5 -196t146 -264t84.5 -327t27.5 -385q0 -190 -27 -374t-85 -348t-149.5 -303 t-220 -240t-297 -157.5t-380.5 -56.5zM1262 459q84 0 152.5 27.5t122.5 80.5t94 130t66 177t39 221t13 261q0 226 -27.5 395t-87 281.5t-151.5 168.5t-221 56q-84 0 -153 -27.5t-123 -80.5t-94 -130t-66 -177t-39 -221t-13 -261q0 -226 28 -395t87 -281.5t151.5 -168.5 t221.5 -56zM1487 2830l-226 242l-217 -242h-446l467 447h401l467 -447h-446z" />
<glyph unicode="&#xd5;" horiz-adv-x="2523" d="M1237 -49q-198 0 -357 41.5t-282.5 121.5t-212.5 196t-146 264t-84.5 327t-27.5 385q0 209 30.5 400t92.5 355t157 298t223.5 228.5t292 146t363.5 51.5q198 0 357 -41.5t282.5 -121.5t212.5 -196t146 -264t84.5 -327t27.5 -385q0 -190 -27 -374t-85 -348t-149.5 -303 t-220 -240t-297 -157.5t-380.5 -56.5zM1262 459q84 0 152.5 27.5t122.5 80.5t94 130t66 177t39 221t13 261q0 226 -27.5 395t-87 281.5t-151.5 168.5t-221 56q-84 0 -153 -27.5t-123 -80.5t-94 -130t-66 -177t-39 -221t-13 -261q0 -226 28 -395t87 -281.5t151.5 -168.5 t221.5 -56zM2052 3203q-37 -77 -88 -140.5t-115.5 -108.5t-142 -70t-166.5 -25q-53 0 -100.5 12t-91 30.5t-84 39.5t-80.5 39.5t-80.5 30.5t-83.5 12q-42 0 -79 -12t-70.5 -35.5t-63.5 -58t-57 -78.5l-209 176q37 75 89 138t116 109t138.5 71.5t156.5 25.5q52 0 98.5 -12 t90 -30.5t85 -39.5t83.5 -39.5t85 -30.5t90 -12q74 0 141 49t129 135z" />
<glyph unicode="&#xd6;" horiz-adv-x="2523" d="M1237 -49q-198 0 -357 41.5t-282.5 121.5t-212.5 196t-146 264t-84.5 327t-27.5 385q0 209 30.5 400t92.5 355t157 298t223.5 228.5t292 146t363.5 51.5q198 0 357 -41.5t282.5 -121.5t212.5 -196t146 -264t84.5 -327t27.5 -385q0 -190 -27 -374t-85 -348t-149.5 -303 t-220 -240t-297 -157.5t-380.5 -56.5zM1262 459q84 0 152.5 27.5t122.5 80.5t94 130t66 177t39 221t13 261q0 226 -27.5 395t-87 281.5t-151.5 168.5t-221 56q-84 0 -153 -27.5t-123 -80.5t-94 -130t-66 -177t-39 -221t-13 -261q0 -226 28 -395t87 -281.5t151.5 -168.5 t221.5 -56zM1405 2851v426h442v-426h-442zM676 2851v426h442v-426h-442z" />
<glyph unicode="&#xd7;" horiz-adv-x="2376" d="M1827 381l-656 655l-659 -655l-283 283l656 655l-656 655l320 320l655 -652l656 656l286 -287l-655 -655l655 -656z" />
<glyph unicode="&#xd8;" horiz-adv-x="2523" d="M213 -258l254 475q-91 88 -155.5 202.5t-105.5 251t-60 291.5t-19 324q0 209 30.5 400t92.5 355t157 298t223.5 228.5t292 146t363.5 51.5q158 0 289 -27t227 -67l238 442l266 -135l-258 -475q95 -91 161.5 -207t108 -253t60 -291.5t18.5 -321.5q0 -190 -27 -374 t-85 -348t-149.5 -303t-220 -240t-297 -157.5t-380.5 -56.5q-71 0 -142.5 6.5t-139 19.5t-128.5 31t-110 41l-238 -442zM979 532q23 -20 54 -37t67.5 -30t77.5 -20t84 -7q89 0 161.5 28t129.5 82.5t98.5 133.5t69 181t40.5 225.5t13 267.5q0 87 -4.5 164.5t-12 145.5 t-17 126.5t-20.5 108.5zM1540 2183q-23 18 -52 35t-64 30t-75.5 21t-86.5 8q-87 0 -159 -28.5t-129 -83t-99 -133.5t-70 -181t-41.5 -225.5t-13.5 -265.5q0 -91 4 -166t11.5 -138.5t17 -118.5t20.5 -106z" />
<glyph unicode="&#xd9;" horiz-adv-x="2572" d="M2335 1061q0 -162 -24.5 -307t-77 -268.5t-135 -222.5t-199.5 -168t-270.5 -106.5t-346.5 -37.5q-179 0 -326 28.5t-263 87t-201.5 147t-142 208t-84 271t-27.5 335.5v1688h622v-1622q0 -110 10.5 -199.5t32.5 -160t56.5 -122.5t83 -86t112 -50.5t143.5 -16.5 q105 0 189 26.5t143 94.5t91 184.5t32 296.5v1655h582v-1655zM1213 2851l-504 426h557l311 -426h-364z" />
<glyph unicode="&#xda;" horiz-adv-x="2572" d="M2335 1061q0 -162 -24.5 -307t-77 -268.5t-135 -222.5t-199.5 -168t-270.5 -106.5t-346.5 -37.5q-179 0 -326 28.5t-263 87t-201.5 147t-142 208t-84 271t-27.5 335.5v1688h622v-1622q0 -110 10.5 -199.5t32.5 -160t56.5 -122.5t83 -86t112 -50.5t143.5 -16.5 q105 0 189 26.5t143 94.5t91 184.5t32 296.5v1655h582v-1655zM1131 2851l311 426h557l-504 -426h-364z" />
<glyph unicode="&#xdb;" horiz-adv-x="2572" d="M2335 1061q0 -162 -24.5 -307t-77 -268.5t-135 -222.5t-199.5 -168t-270.5 -106.5t-346.5 -37.5q-179 0 -326 28.5t-263 87t-201.5 147t-142 208t-84 271t-27.5 335.5v1688h622v-1622q0 -110 10.5 -199.5t32.5 -160t56.5 -122.5t83 -86t112 -50.5t143.5 -16.5 q105 0 189 26.5t143 94.5t91 184.5t32 296.5v1655h582v-1655zM1532 2830l-226 242l-217 -242h-446l467 447h401l467 -447h-446z" />
<glyph unicode="&#xdc;" horiz-adv-x="2572" d="M2335 1061q0 -162 -24.5 -307t-77 -268.5t-135 -222.5t-199.5 -168t-270.5 -106.5t-346.5 -37.5q-179 0 -326 28.5t-263 87t-201.5 147t-142 208t-84 271t-27.5 335.5v1688h622v-1622q0 -110 10.5 -199.5t32.5 -160t56.5 -122.5t83 -86t112 -50.5t143.5 -16.5 q105 0 189 26.5t143 94.5t91 184.5t32 296.5v1655h582v-1655zM1471 2851v426h442v-426h-442zM742 2851v426h442v-426h-442z" />
<glyph unicode="&#xdd;" horiz-adv-x="2138" d="M733 0v1147q-218 396 -411.5 785.5t-362.5 783.5h713q92 -246 197 -492.5t225 -494.5h12l134.5 260l119.5 245.5l110 239.5l107 242h602l-189 -395l-195.5 -381.5l-209 -381.5l-229.5 -395v-1163h-623zM918 2851l311 426h557l-504 -426h-364z" />
<glyph unicode="&#xde;" horiz-adv-x="2183" d="M246 0v2716h622v-369h267q244 0 425.5 -51t301.5 -157.5t179.5 -271.5t59.5 -392q0 -139 -33 -265t-99 -233.5t-163.5 -194t-226 -147.5t-288.5 -94t-349 -33h-74v-508h-622zM1012 999q118 0 201.5 29.5t136 85t76.5 136.5t24 184q0 104 -22 183t-69 132t-120 79.5 t-174 26.5h-197v-856h144z" />
<glyph unicode="&#xdf;" horiz-adv-x="2462" d="M1163 475q32 -17 73 -30.5t85.5 -23.5t89 -15t84.5 -5q63 0 112.5 14.5t83.5 41t52 63.5t18 82q0 65 -30 112.5t-79 86t-111.5 71.5l-127.5 70t-127.5 82t-111.5 107t-79 144.5t-30 194.5q0 78 21 138.5t54.5 108.5t77 86t89 72.5l89 67.5t77 70t54.5 81t21 101 q0 66 -22.5 120.5t-65.5 93.5t-105.5 60t-142.5 21q-97 0 -170.5 -35.5t-123 -96.5t-74.5 -142t-25 -172v-2044h-594v2003q0 156 38 282.5t106.5 225t164.5 170.5t212 119t248.5 69.5t275.5 22.5q207 0 370 -43.5t275.5 -123.5t171.5 -193t59 -251q0 -77 -19.5 -139 t-51.5 -112.5t-72.5 -91t-83.5 -75.5l-83.5 -65.5t-72.5 -61.5t-51.5 -63.5t-19.5 -70.5q0 -51 30 -92.5t79.5 -80t113 -76.5t129.5 -82t129 -96.5t112.5 -119t80 -151t30.5 -191.5q0 -100 -23 -194.5t-71.5 -177.5t-122 -152t-174.5 -118t-230 -76.5t-288 -27.5 q-45 0 -100 4.5t-113 12.5t-113 19.5t-100 25.5z" />
<glyph unicode="&#xe0;" horiz-adv-x="2163" d="M1458 0l-37 229q-75 -65 -149.5 -116.5t-155 -87.5t-169.5 -55t-193 -19q-186 0 -315.5 48.5t-210.5 131.5t-117.5 193t-36.5 233q0 106 26.5 201.5t84.5 176.5t151 146t226.5 110.5t310 70t401.5 24.5h69v74q0 94 -24 155.5t-69 98t-109.5 51t-145.5 14.5 q-74 0 -157.5 -15.5t-168.5 -41.5t-167.5 -60t-153.5 -71l-184 377q111 55 224.5 100.5t230 77.5t236.5 50t243 18q165 0 291 -20.5t219.5 -61t156.5 -99.5t101 -136.5t54.5 -172.5t16.5 -207v-909q0 -51 2 -115t5.5 -132.5l7 -136l6.5 -124.5h-500zM1343 922h-102 q-91 0 -167 -7.5t-136.5 -22.5t-105.5 -38.5t-75.5 -56t-45.5 -74t-15 -92.5q0 -65 19.5 -112.5t53.5 -79t79.5 -47t97.5 -15.5q57 0 107.5 11t98.5 32.5t95 53t96 71.5v377zM991 2294l-512 557h549l319 -557h-356z" />
<glyph unicode="&#xe1;" horiz-adv-x="2163" d="M1458 0l-37 229q-75 -65 -149.5 -116.5t-155 -87.5t-169.5 -55t-193 -19q-186 0 -315.5 48.5t-210.5 131.5t-117.5 193t-36.5 233q0 106 26.5 201.5t84.5 176.5t151 146t226.5 110.5t310 70t401.5 24.5h69v74q0 94 -24 155.5t-69 98t-109.5 51t-145.5 14.5 q-74 0 -157.5 -15.5t-168.5 -41.5t-167.5 -60t-153.5 -71l-184 377q111 55 224.5 100.5t230 77.5t236.5 50t243 18q165 0 291 -20.5t219.5 -61t156.5 -99.5t101 -136.5t54.5 -172.5t16.5 -207v-909q0 -51 2 -115t5.5 -132.5l7 -136l6.5 -124.5h-500zM1343 922h-102 q-91 0 -167 -7.5t-136.5 -22.5t-105.5 -38.5t-75.5 -56t-45.5 -74t-15 -92.5q0 -65 19.5 -112.5t53.5 -79t79.5 -47t97.5 -15.5q57 0 107.5 11t98.5 32.5t95 53t96 71.5v377zM942 2294l319 557h549l-512 -557h-356z" />
<glyph unicode="&#xe2;" horiz-adv-x="2163" d="M1458 0l-37 229q-75 -65 -149.5 -116.5t-155 -87.5t-169.5 -55t-193 -19q-186 0 -315.5 48.5t-210.5 131.5t-117.5 193t-36.5 233q0 106 26.5 201.5t84.5 176.5t151 146t226.5 110.5t310 70t401.5 24.5h69v74q0 94 -24 155.5t-69 98t-109.5 51t-145.5 14.5 q-74 0 -157.5 -15.5t-168.5 -41.5t-167.5 -60t-153.5 -71l-184 377q111 55 224.5 100.5t230 77.5t236.5 50t243 18q165 0 291 -20.5t219.5 -61t156.5 -99.5t101 -136.5t54.5 -172.5t16.5 -207v-909q0 -51 2 -115t5.5 -132.5l7 -136l6.5 -124.5h-500zM1343 922h-102 q-91 0 -167 -7.5t-136.5 -22.5t-105.5 -38.5t-75.5 -56t-45.5 -74t-15 -92.5q0 -65 19.5 -112.5t53.5 -79t79.5 -47t97.5 -15.5q57 0 107.5 11t98.5 32.5t95 53t96 71.5v377zM1299 2310l-226 311l-217 -311h-446l467 541h401l467 -541h-446z" />
<glyph unicode="&#xe3;" horiz-adv-x="2163" d="M1458 0l-37 229q-75 -65 -149.5 -116.5t-155 -87.5t-169.5 -55t-193 -19q-186 0 -315.5 48.5t-210.5 131.5t-117.5 193t-36.5 233q0 106 26.5 201.5t84.5 176.5t151 146t226.5 110.5t310 70t401.5 24.5h69v74q0 94 -24 155.5t-69 98t-109.5 51t-145.5 14.5 q-74 0 -157.5 -15.5t-168.5 -41.5t-167.5 -60t-153.5 -71l-184 377q111 55 224.5 100.5t230 77.5t236.5 50t243 18q165 0 291 -20.5t219.5 -61t156.5 -99.5t101 -136.5t54.5 -172.5t16.5 -207v-909q0 -51 2 -115t5.5 -132.5l7 -136l6.5 -124.5h-500zM1343 922h-102 q-91 0 -167 -7.5t-136.5 -22.5t-105.5 -38.5t-75.5 -56t-45.5 -74t-15 -92.5q0 -65 19.5 -112.5t53.5 -79t79.5 -47t97.5 -15.5q57 0 107.5 11t98.5 32.5t95 53t96 71.5v377zM1884 2675q-37 -75 -88.5 -138.5t-114.5 -109t-137 -71t-155 -25.5q-57 0 -108 12t-97 30 t-88.5 39.5t-83.5 39.5t-81.5 30t-82.5 12t-79 -12t-70.5 -35.5t-63.5 -57.5t-57 -79l-209 176q37 75 88.5 138.5t114.5 109t137 71t155 25.5q57 0 108 -12t97 -30.5t88.5 -39.5l83.5 -39.5t81.5 -30.5t82.5 -12t79 12t70.5 35.5t63.5 58t57 79.5z" />
<glyph unicode="&#xe4;" horiz-adv-x="2163" d="M1458 0l-37 229q-75 -65 -149.5 -116.5t-155 -87.5t-169.5 -55t-193 -19q-186 0 -315.5 48.5t-210.5 131.5t-117.5 193t-36.5 233q0 106 26.5 201.5t84.5 176.5t151 146t226.5 110.5t310 70t401.5 24.5h69v74q0 94 -24 155.5t-69 98t-109.5 51t-145.5 14.5 q-74 0 -157.5 -15.5t-168.5 -41.5t-167.5 -60t-153.5 -71l-184 377q111 55 224.5 100.5t230 77.5t236.5 50t243 18q165 0 291 -20.5t219.5 -61t156.5 -99.5t101 -136.5t54.5 -172.5t16.5 -207v-909q0 -51 2 -115t5.5 -132.5l7 -136l6.5 -124.5h-500zM1343 922h-102 q-91 0 -167 -7.5t-136.5 -22.5t-105.5 -38.5t-75.5 -56t-45.5 -74t-15 -92.5q0 -65 19.5 -112.5t53.5 -79t79.5 -47t97.5 -15.5q57 0 107.5 11t98.5 32.5t95 53t96 71.5v377zM1241 2380v426h442v-426h-442zM512 2380v426h442v-426h-442z" />
<glyph unicode="&#xe5;" horiz-adv-x="2163" d="M1458 0l-37 229q-75 -65 -149.5 -116.5t-155 -87.5t-169.5 -55t-193 -19q-186 0 -315.5 48.5t-210.5 131.5t-117.5 193t-36.5 233q0 106 26.5 201.5t84.5 176.5t151 146t226.5 110.5t310 70t401.5 24.5h69v74q0 94 -24 155.5t-69 98t-109.5 51t-145.5 14.5 q-74 0 -157.5 -15.5t-168.5 -41.5t-167.5 -60t-153.5 -71l-184 377q111 55 224.5 100.5t230 77.5t236.5 50t243 18q165 0 291 -20.5t219.5 -61t156.5 -99.5t101 -136.5t54.5 -172.5t16.5 -207v-909q0 -51 2 -115t5.5 -132.5l7 -136l6.5 -124.5h-500zM1343 922h-102 q-91 0 -167 -7.5t-136.5 -22.5t-105.5 -38.5t-75.5 -56t-45.5 -74t-15 -92.5q0 -65 19.5 -112.5t53.5 -79t79.5 -47t97.5 -15.5q57 0 107.5 11t98.5 32.5t95 53t96 71.5v377zM1548 2707q0 -103 -31.5 -181t-93 -130.5t-151.5 -79t-207 -26.5q-112 0 -196.5 22.5t-140.5 70 t-84.5 120t-28.5 172.5q0 103 31.5 181t93 130.5t151.5 79t207 26.5q112 0 196.5 -22.5t140.5 -70t84.5 -120t28.5 -172.5zM1086 2519q77 0 110 42.5t33 129.5q0 86 -37.5 129t-114.5 43t-110 -42.5t-33 -129.5q0 -86 37.5 -129t114.5 -43z" />
<glyph unicode="&#xe6;" horiz-adv-x="3424" d="M3289 250q-123 -77 -243.5 -133.5t-245 -93t-256 -54.5t-275.5 -18q-138 0 -258 20t-219 63.5t-176 111.5t-129 165q-83 -94 -168.5 -162t-176.5 -112t-187.5 -65t-200.5 -21q-186 0 -315.5 48.5t-210.5 131.5t-117.5 193t-36.5 233q0 106 26.5 201.5t84.5 176t151 145 t226.5 109.5t310 69t401.5 24h69v78q0 94 -24 155.5t-69 98t-109.5 51t-145.5 14.5q-74 0 -157.5 -15.5t-168.5 -41.5t-167.5 -60t-153.5 -71l-184 377q111 55 224.5 100.5t230 77.5t236.5 50t243 18q115 0 212.5 -10.5t177 -34t141 -60t104.5 -88.5q66 54 136 90.5 t147 59.5t163 33t184 10q152 0 280 -28t231 -87.5t180 -154t125.5 -227t68 -306.5t8.5 -393h-1319q-1 -82 12 -150.5t39 -123.5t65.5 -97t92 -69.5t117 -41.5t141.5 -14q83 0 170 14.5t170.5 41.5t159 65t135.5 84zM1343 918h-102q-137 0 -239 -16t-170 -50.5t-102 -89 t-34 -131.5q0 -65 19.5 -112.5t53.5 -79t79.5 -47t97.5 -15.5q45 0 92 8t91 28t83 54t68 86t46 125t17 170v70zM2666 1282q3 98 -15.5 179.5t-61.5 140t-111.5 90.5t-163.5 32q-80 0 -147.5 -30.5t-117.5 -87.5t-79.5 -139t-32.5 -185h729z" />
<glyph unicode="&#xe7;" horiz-adv-x="2077" d="M586 -696l73 340h443l-152 311q-212 11 -367.5 80t-257.5 198t-152 320t-50 446q0 175 28 326t84 275t140.5 219.5t198.5 161t257 99.5t316 34q148 0 268.5 -23t213.5 -68t160.5 -112t110 -156t60.5 -199t14 -241h-590q7 69 2 125t-20.5 98.5t-40.5 73t-57.5 50.5 t-72.5 29t-85 9q-55 0 -102.5 -18.5t-87 -55t-69.5 -90t-51 -123.5t-31.5 -156.5t-10.5 -187.5q0 -116 11.5 -211t34.5 -170t57.5 -130.5t80.5 -92t103 -54.5t126 -18q71 0 134.5 20.5t123.5 58.5t117.5 93.5t116.5 126.5l340 -315q-92 -105 -183 -179.5t-186.5 -124.5 t-197 -77.5t-215.5 -36.5l147 -315l-74 -340h-708z" />
<glyph unicode="&#xe8;" horiz-adv-x="2241" d="M2093 229q-108 -68 -224.5 -119.5t-242.5 -87t-261.5 -53.5t-279.5 -18q-241 0 -421.5 61t-300.5 187t-180 320t-60 460q0 175 27.5 327t84.5 278t143.5 225t203.5 166.5t266.5 103t331.5 35.5q151 0 279.5 -29.5t231.5 -92.5t179.5 -161.5t125.5 -235.5t68.5 -314.5 t8.5 -399.5h-1319q0 -77 13 -142.5t39.5 -119t65.5 -94t91 -68.5t116.5 -42t141.5 -14q83 0 170 14.5t170 41.5t158.5 65t135.5 84zM1483 1245q3 103 -16 187.5t-62 145t-111.5 93.5t-163.5 33q-80 0 -147.5 -31.5t-117 -90.5t-79 -144t-32.5 -193h729zM1024 2294l-512 557 h549l319 -557h-356z" />
<glyph unicode="&#xe9;" horiz-adv-x="2241" d="M2093 229q-108 -68 -224.5 -119.5t-242.5 -87t-261.5 -53.5t-279.5 -18q-241 0 -421.5 61t-300.5 187t-180 320t-60 460q0 175 27.5 327t84.5 278t143.5 225t203.5 166.5t266.5 103t331.5 35.5q151 0 279.5 -29.5t231.5 -92.5t179.5 -161.5t125.5 -235.5t68.5 -314.5 t8.5 -399.5h-1319q0 -77 13 -142.5t39.5 -119t65.5 -94t91 -68.5t116.5 -42t141.5 -14q83 0 170 14.5t170 41.5t158.5 65t135.5 84zM1483 1245q3 103 -16 187.5t-62 145t-111.5 93.5t-163.5 33q-80 0 -147.5 -31.5t-117 -90.5t-79 -144t-32.5 -193h729zM910 2294l319 557 h549l-512 -557h-356z" />
<glyph unicode="&#xea;" horiz-adv-x="2241" d="M2093 229q-108 -68 -224.5 -119.5t-242.5 -87t-261.5 -53.5t-279.5 -18q-241 0 -421.5 61t-300.5 187t-180 320t-60 460q0 175 27.5 327t84.5 278t143.5 225t203.5 166.5t266.5 103t331.5 35.5q151 0 279.5 -29.5t231.5 -92.5t179.5 -161.5t125.5 -235.5t68.5 -314.5 t8.5 -399.5h-1319q0 -77 13 -142.5t39.5 -119t65.5 -94t91 -68.5t116.5 -42t141.5 -14q83 0 170 14.5t170 41.5t158.5 65t135.5 84zM1483 1245q3 103 -16 187.5t-62 145t-111.5 93.5t-163.5 33q-80 0 -147.5 -31.5t-117 -90.5t-79 -144t-32.5 -193h729zM1381 2310l-226 311 l-217 -311h-446l467 541h401l467 -541h-446z" />
<glyph unicode="&#xeb;" horiz-adv-x="2241" d="M2093 229q-108 -68 -224.5 -119.5t-242.5 -87t-261.5 -53.5t-279.5 -18q-241 0 -421.5 61t-300.5 187t-180 320t-60 460q0 175 27.5 327t84.5 278t143.5 225t203.5 166.5t266.5 103t331.5 35.5q151 0 279.5 -29.5t231.5 -92.5t179.5 -161.5t125.5 -235.5t68.5 -314.5 t8.5 -399.5h-1319q0 -77 13 -142.5t39.5 -119t65.5 -94t91 -68.5t116.5 -42t141.5 -14q83 0 170 14.5t170 41.5t158.5 65t135.5 84zM1483 1245q3 103 -16 187.5t-62 145t-111.5 93.5t-163.5 33q-80 0 -147.5 -31.5t-117 -90.5t-79 -144t-32.5 -193h729zM1315 2380v426h442 v-426h-442zM586 2380v426h442v-426h-442z" />
<glyph unicode="&#xec;" horiz-adv-x="1044" d="M225 0v2064h594v-2064h-594zM431 2294l-512 557h549l319 -557h-356z" />
<glyph unicode="&#xed;" horiz-adv-x="1044" d="M225 0v2064h594v-2064h-594zM234 2294l319 557h549l-512 -557h-356z" />
<glyph unicode="&#xee;" horiz-adv-x="1044" d="M225 0v2064h594v-2064h-594zM747 2310l-226 311l-217 -311h-446l467 541h401l467 -541h-446z" />
<glyph unicode="&#xef;" horiz-adv-x="1044" d="M225 0v2064h594v-2064h-594zM616 2380v426h442v-426h-442zM-15 2380v426h442v-426h-442z" />
<glyph unicode="&#xf0;" horiz-adv-x="2224" d="M1450 2523q175 -150 298.5 -312.5t202 -336.5t114.5 -360t36 -384t-29 -362t-87 -294.5t-145 -227t-201.5 -160.5t-257 -95.5t-312.5 -31.5q-162 0 -295 26t-238 79.5t-182.5 136.5t-129 197t-76.5 261t-25 328q0 287 64 492.5t186 337.5t299.5 194t404.5 62 q28 0 47.5 -3t34.5 -6q-20 25 -43 51l-49.5 53.5t-56.5 55.5l-64 57l-274 -131l-307 197l294 143q-65 44 -136.5 83.5t-145.5 76.5l524 242l137.5 -80l128.5 -80l197 94l311 -196zM1118 360q89 0 153.5 33t106 106t61 188t19.5 280q0 210 -19.5 351t-61 226t-106 120.5 t-153.5 35.5q-95 0 -163.5 -33.5t-112 -107t-64 -191.5t-20.5 -287q0 -207 20.5 -346t64 -222t112 -118t163.5 -35z" />
<glyph unicode="&#xf1;" horiz-adv-x="2228" d="M1413 0v1319q0 92 -12.5 156t-40 104t-73 58t-111.5 18q-48 0 -97 -12t-95.5 -32t-88.5 -46t-76 -54v-1511h-594v2064h492l33 -225q78 60 165 109t177 84t181 54t177 19q154 0 260 -33.5t172 -108t95.5 -193.5t29.5 -291v-1479h-594zM1876 2675q-37 -75 -88.5 -138.5 t-114.5 -109t-137 -71t-155 -25.5q-57 0 -108 12t-97 30t-88.5 39.5t-83.5 39.5t-81.5 30t-82.5 12t-79 -12t-70.5 -35.5t-63.5 -57.5t-57 -79l-209 176q37 75 88.5 138.5t114.5 109t137 71t155 25.5q57 0 108 -12t97 -30.5t88.5 -39.5l83.5 -39.5t81.5 -30.5t82.5 -12 t79 12t70.5 35.5t63.5 58t57 79.5z" />
<glyph unicode="&#xf2;" horiz-adv-x="2224" d="M1077 -49q-244 0 -423.5 61t-297.5 188t-175.5 322.5t-57.5 464.5q0 278 65 489t193.5 352.5t320 213.5t445.5 72q244 0 423.5 -61t297.5 -188.5t175.5 -323t57.5 -464.5q0 -185 -29 -340.5t-86.5 -280.5t-143 -219.5t-199.5 -158t-255.5 -95.5t-310.5 -32zM1114 352 q92 0 158 35t108 111t62 196t20 289q0 207 -20.5 347t-63.5 225t-109.5 121t-158.5 36t-158 -35t-108 -111t-62 -196t-20 -289q0 -207 20.5 -347t63.5 -225t109.5 -121t158.5 -36zM1024 2294l-512 557h549l319 -557h-356z" />
<glyph unicode="&#xf3;" horiz-adv-x="2224" d="M1077 -49q-244 0 -423.5 61t-297.5 188t-175.5 322.5t-57.5 464.5q0 278 65 489t193.5 352.5t320 213.5t445.5 72q244 0 423.5 -61t297.5 -188.5t175.5 -323t57.5 -464.5q0 -185 -29 -340.5t-86.5 -280.5t-143 -219.5t-199.5 -158t-255.5 -95.5t-310.5 -32zM1114 352 q92 0 158 35t108 111t62 196t20 289q0 207 -20.5 347t-63.5 225t-109.5 121t-158.5 36t-158 -35t-108 -111t-62 -196t-20 -289q0 -207 20.5 -347t63.5 -225t109.5 -121t158.5 -36zM881 2294l319 557h549l-512 -557h-356z" />
<glyph unicode="&#xf4;" horiz-adv-x="2224" d="M1077 -49q-244 0 -423.5 61t-297.5 188t-175.5 322.5t-57.5 464.5q0 278 65 489t193.5 352.5t320 213.5t445.5 72q244 0 423.5 -61t297.5 -188.5t175.5 -323t57.5 -464.5q0 -185 -29 -340.5t-86.5 -280.5t-143 -219.5t-199.5 -158t-255.5 -95.5t-310.5 -32zM1114 352 q92 0 158 35t108 111t62 196t20 289q0 207 -20.5 347t-63.5 225t-109.5 121t-158.5 36t-158 -35t-108 -111t-62 -196t-20 -289q0 -207 20.5 -347t63.5 -225t109.5 -121t158.5 -36zM1332 2310l-226 311l-217 -311h-446l467 541h401l467 -541h-446z" />
<glyph unicode="&#xf5;" horiz-adv-x="2224" d="M1077 -49q-244 0 -423.5 61t-297.5 188t-175.5 322.5t-57.5 464.5q0 278 65 489t193.5 352.5t320 213.5t445.5 72q244 0 423.5 -61t297.5 -188.5t175.5 -323t57.5 -464.5q0 -185 -29 -340.5t-86.5 -280.5t-143 -219.5t-199.5 -158t-255.5 -95.5t-310.5 -32zM1114 352 q92 0 158 35t108 111t62 196t20 289q0 207 -20.5 347t-63.5 225t-109.5 121t-158.5 36t-158 -35t-108 -111t-62 -196t-20 -289q0 -207 20.5 -347t63.5 -225t109.5 -121t158.5 -36zM1859 2675q-37 -75 -88.5 -138.5t-114.5 -109t-137 -71t-155 -25.5q-57 0 -108 12t-97 30 t-88.5 39.5t-83.5 39.5t-81.5 30t-82.5 12t-79 -12t-70.5 -35.5t-63.5 -57.5t-57 -79l-209 176q37 75 88.5 138.5t114.5 109t137 71t155 25.5q57 0 108 -12t97 -30.5t88.5 -39.5l83.5 -39.5t81.5 -30.5t82.5 -12t79 12t70.5 35.5t63.5 58t57 79.5z" />
<glyph unicode="&#xf6;" horiz-adv-x="2224" d="M1077 -49q-244 0 -423.5 61t-297.5 188t-175.5 322.5t-57.5 464.5q0 278 65 489t193.5 352.5t320 213.5t445.5 72q244 0 423.5 -61t297.5 -188.5t175.5 -323t57.5 -464.5q0 -185 -29 -340.5t-86.5 -280.5t-143 -219.5t-199.5 -158t-255.5 -95.5t-310.5 -32zM1114 352 q92 0 158 35t108 111t62 196t20 289q0 207 -20.5 347t-63.5 225t-109.5 121t-158.5 36t-158 -35t-108 -111t-62 -196t-20 -289q0 -207 20.5 -347t63.5 -225t109.5 -121t158.5 -36zM1266 2380v426h442v-426h-442zM537 2380v426h442v-426h-442z" />
<glyph unicode="&#xf7;" horiz-adv-x="2376" d="M205 1110v479h1966v-479h-1966zM901 274v566h574v-566h-574zM901 1860v565h574v-565h-574z" />
<glyph unicode="&#xf8;" horiz-adv-x="2224" d="M238 -168l184 307q-151 117 -225 327t-74 521q0 278 65.5 489t194.5 352.5t320.5 213.5t443.5 72q61 0 119 -4t111.5 -11.5t103.5 -19.5t96 -27l205 336l217 -131l-201 -328q74 -55 130.5 -137.5t95 -190t58 -239t19.5 -285.5q0 -185 -29 -340.5t-86.5 -280.5 t-143 -219.5t-199.5 -158t-255.5 -95.5t-310.5 -32q-124 0 -234 15.5t-200 49.5l-192 -319zM1114 344q95 0 164.5 34.5t115 111t67.5 198t22 295.5q0 54 -1.5 105.5t-4.5 100t-8 93t-11 82.5l-569 -942q43 -40 98.5 -59t126.5 -19zM1331 1638q-40 41 -96.5 61.5t-124.5 20.5 q-97 0 -166.5 -35.5t-114.5 -112t-66.5 -198t-21.5 -293.5q0 -58 1.5 -110.5t5 -99t8 -88t10.5 -78.5z" />
<glyph unicode="&#xf9;" horiz-adv-x="2228" d="M1511 0l-32 225q-78 -60 -165 -109t-177.5 -84t-181.5 -54t-177 -19q-153 0 -259.5 33.5t-172.5 109.5t-95.5 197.5t-29.5 298.5v1466h594v-1319q0 -92 12.5 -156t40.5 -103.5t73.5 -57.5t111.5 -18q48 0 96.5 12t95 32t88.5 45.5t76 53.5v1511h594v-2064h-492zM942 2294 l-512 557h549l319 -557h-356z" />
<glyph unicode="&#xfa;" horiz-adv-x="2228" d="M1511 0l-32 225q-78 -60 -165 -109t-177.5 -84t-181.5 -54t-177 -19q-153 0 -259.5 33.5t-172.5 109.5t-95.5 197.5t-29.5 298.5v1466h594v-1319q0 -92 12.5 -156t40.5 -103.5t73.5 -57.5t111.5 -18q48 0 96.5 12t95 32t88.5 45.5t76 53.5v1511h594v-2064h-492zM910 2294 l319 557h549l-512 -557h-356z" />
<glyph unicode="&#xfb;" horiz-adv-x="2228" d="M1511 0l-32 225q-78 -60 -165 -109t-177.5 -84t-181.5 -54t-177 -19q-153 0 -259.5 33.5t-172.5 109.5t-95.5 197.5t-29.5 298.5v1466h594v-1319q0 -92 12.5 -156t40.5 -103.5t73.5 -57.5t111.5 -18q48 0 96.5 12t95 32t88.5 45.5t76 53.5v1511h594v-2064h-492z M1340 2310l-226 311l-217 -311h-446l467 541h401l467 -541h-446z" />
<glyph unicode="&#xfc;" horiz-adv-x="2228" d="M1511 0l-32 225q-78 -60 -165 -109t-177.5 -84t-181.5 -54t-177 -19q-153 0 -259.5 33.5t-172.5 109.5t-95.5 197.5t-29.5 298.5v1466h594v-1319q0 -92 12.5 -156t40.5 -103.5t73.5 -57.5t111.5 -18q48 0 96.5 12t95 32t88.5 45.5t76 53.5v1511h594v-2064h-492z M1258 2380v426h442v-426h-442zM529 2380v426h442v-426h-442z" />
<glyph unicode="&#xfd;" horiz-adv-x="1970" d="M324 -459q84 55 144.5 119t99.5 135t57 149t18 162q0 57 -29 160.5t-77.5 244.5l-110.5 315l-128 372.5t-131 417t-118 448.5h639q32 -163 76.5 -343t94.5 -364l102 -365l100 -345v0q51 163 94.5 343.5t80 365t65.5 365t51 343.5h569l-139 -576t-130.5 -486.5t-124 -407 t-118.5 -336.5q-56 -145 -112 -263.5t-112.5 -215t-114.5 -173t-119.5 -138.5t-126.5 -112t-136 -93zM774 2294l319 557h549l-512 -557h-356z" />
<glyph unicode="&#xfe;" horiz-adv-x="2216" d="M225 2851h594v-901q51 32 111 60.5t129.5 49.5t148.5 33t168 12q175 0 309 -60.5t224.5 -181t137 -300.5t46.5 -420q0 -183 -29 -342.5t-90 -292t-154.5 -236t-221.5 -175t-292.5 -109t-367.5 -37.5q-17 0 -34 0.5t-33 2t-29.5 2.5t-22.5 3v-655h-594v3547zM819 377 q20 -9 42 -16t46.5 -11.5t50.5 -7t54 -2.5q100 0 183.5 45t143.5 132t93.5 215.5t33.5 295.5q0 187 -21.5 313t-62.5 202t-100.5 108t-134.5 32q-40 0 -82 -7.5t-83.5 -22t-82.5 -36t-80 -48.5v-1192z" />
<glyph unicode="&#xff;" horiz-adv-x="1970" d="M324 -459q84 55 144.5 119t99.5 135t57 149t18 162q0 57 -29 160.5t-77.5 244.5l-110.5 315l-128 372.5t-131 417t-118 448.5h639q32 -163 76.5 -343t94.5 -364l102 -365l100 -345v0q51 163 94.5 343.5t80 365t65.5 365t51 343.5h569l-139 -576t-130.5 -486.5t-124 -407 t-118.5 -336.5q-56 -145 -112 -263.5t-112.5 -215t-114.5 -173t-119.5 -138.5t-126.5 -112t-136 -93zM1155 2380v426h442v-426h-442zM426 2380v426h442v-426h-442z" />
<glyph unicode="&#x100;" horiz-adv-x="2425" d="M1729 0l-59 260.5l-68 276.5h-902l-67 -262.5t-64 -274.5h-569l189 699.5l202 686l214.5 672l225.5 658.5h758q240 -676 447 -1356.5t389 -1359.5h-696zM1470 1016l-70 265.5l-76 271l-84 280l-93 293.5v0l-88.5 -290.5l-82 -278.5l-76.5 -271.5l-73 -269.5h643z M615 2875v381h1184v-381h-1184z" />
<glyph unicode="&#x101;" horiz-adv-x="2163" d="M1458 0l-37 229q-75 -65 -149.5 -116.5t-155 -87.5t-169.5 -55t-193 -19q-186 0 -315.5 48.5t-210.5 131.5t-117.5 193t-36.5 233q0 106 26.5 201.5t84.5 176.5t151 146t226.5 110.5t310 70t401.5 24.5h69v74q0 94 -24 155.5t-69 98t-109.5 51t-145.5 14.5 q-74 0 -157.5 -15.5t-168.5 -41.5t-167.5 -60t-153.5 -71l-184 377q111 55 224.5 100.5t230 77.5t236.5 50t243 18q165 0 291 -20.5t219.5 -61t156.5 -99.5t101 -136.5t54.5 -172.5t16.5 -207v-909q0 -51 2 -115t5.5 -132.5l7 -136l6.5 -124.5h-500zM1343 922h-102 q-91 0 -167 -7.5t-136.5 -22.5t-105.5 -38.5t-75.5 -56t-45.5 -74t-15 -92.5q0 -65 19.5 -112.5t53.5 -79t79.5 -47t97.5 -15.5q57 0 107.5 11t98.5 32.5t95 53t96 71.5v377zM524 2380v381h1102v-381h-1102z" />
<glyph unicode="&#x102;" horiz-adv-x="2425" d="M1729 0l-59 260.5l-68 276.5h-902l-67 -262.5t-64 -274.5h-569l189 699.5l202 686l214.5 672l225.5 658.5h758q240 -676 447 -1356.5t389 -1359.5h-696zM1470 1016l-70 265.5l-76 271l-84 280l-93 293.5v0l-88.5 -290.5l-82 -278.5l-76.5 -271.5l-73 -269.5h643z M1892 3400q-15 -119 -72.5 -219.5t-148.5 -173.5t-212 -114.5t-263 -41.5q-134 0 -249.5 38t-203.5 109t-145 172.5t-74 229.5h364q3 -54 27 -95.5t65.5 -69.5t99 -42.5t128.5 -14.5q67 0 123.5 12.5t97.5 39.5t66.5 69t31.5 101h365z" />
<glyph unicode="&#x103;" horiz-adv-x="2163" d="M1458 0l-37 229q-75 -65 -149.5 -116.5t-155 -87.5t-169.5 -55t-193 -19q-186 0 -315.5 48.5t-210.5 131.5t-117.5 193t-36.5 233q0 106 26.5 201.5t84.5 176.5t151 146t226.5 110.5t310 70t401.5 24.5h69v74q0 94 -24 155.5t-69 98t-109.5 51t-145.5 14.5 q-74 0 -157.5 -15.5t-168.5 -41.5t-167.5 -60t-153.5 -71l-184 377q111 55 224.5 100.5t230 77.5t236.5 50t243 18q165 0 291 -20.5t219.5 -61t156.5 -99.5t101 -136.5t54.5 -172.5t16.5 -207v-909q0 -51 2 -115t5.5 -132.5l7 -136l6.5 -124.5h-500zM1343 922h-102 q-91 0 -167 -7.5t-136.5 -22.5t-105.5 -38.5t-75.5 -56t-45.5 -74t-15 -92.5q0 -65 19.5 -112.5t53.5 -79t79.5 -47t97.5 -15.5q57 0 107.5 11t98.5 32.5t95 53t96 71.5v377zM1757 2851q-15 -119 -72.5 -219.5t-148.5 -173.5t-212 -114.5t-263 -41.5q-134 0 -249.5 38 t-203.5 109t-145 172.5t-74 229.5h364q3 -54 27 -95.5t65.5 -69t99 -42t128.5 -14.5q67 0 123.5 12.5t97.5 39.5t66.5 68.5t31.5 100.5h365z" />
<glyph unicode="&#x104;" horiz-adv-x="2425" d="M1470 1016l-70 265.5l-76 271l-84 280l-93 293.5l-88.5 -290.5l-82 -278.5l-76.5 -271.5l-73 -269.5h643zM1729 0l-59 260.5l-68 276.5h-902l-67 -262.5t-64 -274.5h-569l189 699.5l202 686l214.5 672l225.5 658.5h758q240 -676 447 -1356.5t389 -1359.5 q-74 -48 -122 -90.5t-76.5 -81t-40 -74t-11.5 -69.5q0 -38 22.5 -58t59.5 -20q34 0 70.5 7t76.5 26l86 -304q-83 -37 -175.5 -53t-209.5 -16q-87 0 -161 15t-127 51t-83 95t-30 146q0 63 20 121.5t60.5 111.5t101 101.5t142.5 91.5h-299z" />
<glyph unicode="&#x105;" horiz-adv-x="2163" d="M2003 -664q-83 -37 -175.5 -53t-209.5 -16q-88 0 -161.5 15t-127 51t-83 95t-29.5 146q0 63 18 117t51 101.5t81 90.5t108 84l-54 262q-75 -65 -149.5 -116.5t-155 -87.5t-169.5 -55t-193 -19q-186 0 -315.5 48.5t-210.5 131.5t-117.5 193t-36.5 233q0 106 26.5 201.5 t84.5 176.5t151 146t226.5 110.5t310 70t401.5 24.5h69v74q0 94 -24 155.5t-69 98t-109.5 51t-145.5 14.5q-74 0 -157.5 -15.5t-168.5 -41.5t-167.5 -60t-153.5 -71l-184 377q111 55 224.5 100.5t230 77.5t236.5 50t243 18q165 0 291 -20.5t219.5 -61t156.5 -99.5 t101 -136.5t54.5 -172.5t16.5 -207v-909q0 -51 2 -115t5.5 -132.5l7 -136l6.5 -124.5q-77 -40 -128.5 -81.5t-83 -82t-45 -79t-13.5 -72.5q0 -38 22 -58t59 -20q35 0 71.5 7t76.5 26zM1343 922h-102q-91 0 -167 -7.5t-136.5 -22.5t-105.5 -38.5t-75.5 -56t-45.5 -74 t-15 -92.5q0 -65 19.5 -112.5t53.5 -79t79.5 -47t97.5 -15.5q57 0 107.5 11t98.5 32.5t95 53t96 71.5v377z" />
<glyph unicode="&#x106;" horiz-adv-x="2441" d="M2331 926q-10 -138 -50.5 -264t-108 -234.5t-162.5 -196.5t-214.5 -150t-262.5 -96t-308 -34q-266 0 -470.5 90t-344 260.5t-211.5 415t-72 553.5q0 222 31.5 419.5t95.5 363.5t160.5 298t227 224t294 141t362.5 49q263 0 456.5 -72.5t316.5 -203t176 -312t34 -399.5 l-634 -70q6 132 -13 234.5t-66 172t-123 106t-183 36.5q-84 0 -152 -29t-121.5 -84t-92.5 -134.5t-64.5 -180.5t-37.5 -222t-12 -259q0 -157 13.5 -283.5t40.5 -225.5t67.5 -170.5t93.5 -118t119.5 -69t145.5 -22.5q103 0 178 39t126 104t79.5 149t37.5 175h648zM1057 2851 l311 426h557l-504 -426h-364z" />
<glyph unicode="&#x107;" horiz-adv-x="2077" d="M2003 377q-100 -112 -201 -192.5t-213.5 -132.5t-243 -76.5t-288.5 -24.5q-159 0 -290 27t-234.5 82.5t-180.5 141t-128 202t-76 265t-25 330.5q0 175 28 326t84 275t140.5 219.5t198.5 161t257 99.5t316 34q148 0 268.5 -23t213.5 -68t160.5 -112t110 -156t60.5 -199 t14 -241h-590q7 69 2 125t-20.5 98.5t-40.5 73t-57.5 50.5t-72.5 29t-85 9q-55 0 -102.5 -18.5t-87 -55t-69.5 -90t-51 -123.5t-31.5 -156.5t-10.5 -187.5q0 -116 11.5 -211t34.5 -170t57.5 -130.5t80.5 -92t103 -54.5t126 -18q71 0 134.5 20.5t123.5 58.5t117.5 93.5 t116.5 126.5zM971 2294l319 557h549l-512 -557h-356z" />
<glyph unicode="&#x108;" horiz-adv-x="2441" d="M2331 926q-10 -138 -50.5 -264t-108 -234.5t-162.5 -196.5t-214.5 -150t-262.5 -96t-308 -34q-266 0 -470.5 90t-344 260.5t-211.5 415t-72 553.5q0 222 31.5 419.5t95.5 363.5t160.5 298t227 224t294 141t362.5 49q263 0 456.5 -72.5t316.5 -203t176 -312t34 -399.5 l-634 -70q6 132 -13 234.5t-66 172t-123 106t-183 36.5q-84 0 -152 -29t-121.5 -84t-92.5 -134.5t-64.5 -180.5t-37.5 -222t-12 -259q0 -157 13.5 -283.5t40.5 -225.5t67.5 -170.5t93.5 -118t119.5 -69t145.5 -22.5q103 0 178 39t126 104t79.5 149t37.5 175h648zM1500 2830 l-226 242l-217 -242h-446l467 447h401l467 -447h-446z" />
<glyph unicode="&#x109;" horiz-adv-x="2077" d="M2003 377q-100 -112 -201 -192.5t-213.5 -132.5t-243 -76.5t-288.5 -24.5q-159 0 -290 27t-234.5 82.5t-180.5 141t-128 202t-76 265t-25 330.5q0 175 28 326t84 275t140.5 219.5t198.5 161t257 99.5t316 34q148 0 268.5 -23t213.5 -68t160.5 -112t110 -156t60.5 -199 t14 -241h-590q7 69 2 125t-20.5 98.5t-40.5 73t-57.5 50.5t-72.5 29t-85 9q-55 0 -102.5 -18.5t-87 -55t-69.5 -90t-51 -123.5t-31.5 -156.5t-10.5 -187.5q0 -116 11.5 -211t34.5 -170t57.5 -130.5t80.5 -92t103 -54.5t126 -18q71 0 134.5 20.5t123.5 58.5t117.5 93.5 t116.5 126.5zM1323 2310l-226 311l-217 -311h-446l467 541h401l467 -541h-446z" />
<glyph unicode="&#x10a;" horiz-adv-x="2441" d="M2331 926q-10 -138 -50.5 -264t-108 -234.5t-162.5 -196.5t-214.5 -150t-262.5 -96t-308 -34q-266 0 -470.5 90t-344 260.5t-211.5 415t-72 553.5q0 222 31.5 419.5t95.5 363.5t160.5 298t227 224t294 141t362.5 49q263 0 456.5 -72.5t316.5 -203t176 -312t34 -399.5 l-634 -70q6 132 -13 234.5t-66 172t-123 106t-183 36.5q-84 0 -152 -29t-121.5 -84t-92.5 -134.5t-64.5 -180.5t-37.5 -222t-12 -259q0 -157 13.5 -283.5t40.5 -225.5t67.5 -170.5t93.5 -118t119.5 -69t145.5 -22.5q103 0 178 39t126 104t79.5 149t37.5 175h648zM955 2875 v484h631v-484h-631z" />
<glyph unicode="&#x10b;" horiz-adv-x="2077" d="M2003 377q-100 -112 -201 -192.5t-213.5 -132.5t-243 -76.5t-288.5 -24.5q-159 0 -290 27t-234.5 82.5t-180.5 141t-128 202t-76 265t-25 330.5q0 175 28 326t84 275t140.5 219.5t198.5 161t257 99.5t316 34q148 0 268.5 -23t213.5 -68t160.5 -112t110 -156t60.5 -199 t14 -241h-590q7 69 2 125t-20.5 98.5t-40.5 73t-57.5 50.5t-72.5 29t-85 9q-55 0 -102.5 -18.5t-87 -55t-69.5 -90t-51 -123.5t-31.5 -156.5t-10.5 -187.5q0 -116 11.5 -211t34.5 -170t57.5 -130.5t80.5 -92t103 -54.5t126 -18q71 0 134.5 20.5t123.5 58.5t117.5 93.5 t116.5 126.5zM803 2339v512h610v-512h-610z" />
<glyph unicode="&#x10c;" horiz-adv-x="2441" d="M2331 926q-10 -138 -50.5 -264t-108 -234.5t-162.5 -196.5t-214.5 -150t-262.5 -96t-308 -34q-266 0 -470.5 90t-344 260.5t-211.5 415t-72 553.5q0 222 31.5 419.5t95.5 363.5t160.5 298t227 224t294 141t362.5 49q263 0 456.5 -72.5t316.5 -203t176 -312t34 -399.5 l-634 -70q6 132 -13 234.5t-66 172t-123 106t-183 36.5q-84 0 -152 -29t-121.5 -84t-92.5 -134.5t-64.5 -180.5t-37.5 -222t-12 -259q0 -157 13.5 -283.5t40.5 -225.5t67.5 -170.5t93.5 -118t119.5 -69t145.5 -22.5q103 0 178 39t126 104t79.5 149t37.5 175h648zM1020 2830 l-467 447h446l226 -242l217 242h446l-467 -447h-401z" />
<glyph unicode="&#x10d;" horiz-adv-x="2077" d="M2003 377q-100 -112 -201 -192.5t-213.5 -132.5t-243 -76.5t-288.5 -24.5q-159 0 -290 27t-234.5 82.5t-180.5 141t-128 202t-76 265t-25 330.5q0 175 28 326t84 275t140.5 219.5t198.5 161t257 99.5t316 34q148 0 268.5 -23t213.5 -68t160.5 -112t110 -156t60.5 -199 t14 -241h-590q7 69 2 125t-20.5 98.5t-40.5 73t-57.5 50.5t-72.5 29t-85 9q-55 0 -102.5 -18.5t-87 -55t-69.5 -90t-51 -123.5t-31.5 -156.5t-10.5 -187.5q0 -116 11.5 -211t34.5 -170t57.5 -130.5t80.5 -92t103 -54.5t126 -18q71 0 134.5 20.5t123.5 58.5t117.5 93.5 t116.5 126.5zM951 2310l-467 541h446l226 -311l217 311h446l-467 -541h-401z" />
<glyph unicode="&#x10e;" horiz-adv-x="2445" d="M246 0v2716q101 0 195.5 0.5t192 1.5t203 1.5t228.5 0.5q198 0 368.5 -31.5t311 -97.5t249.5 -168t184 -243t114 -323t39 -407q0 -217 -35 -409t-107 -353t-183 -288.5t-264 -216.5t-348 -136t-436 -47h-712zM1016 508q113 0 207 24.5t168 73t129 122t91 172t54 221.5 t18 272q0 128 -14.5 238.5t-46.5 201.5t-83.5 161.5t-125.5 119t-172.5 73.5t-224.5 25h-148v-1704h148zM901 2830l-467 447h446l226 -242l217 242h446l-467 -447h-401z" />
<glyph unicode="&#x10f;" horiz-adv-x="2339" d="M1499 0l-33 213q-69 -55 -144 -101.5t-154 -80.5t-161.5 -53t-166.5 -19q-175 0 -309 60.5t-224.5 181.5t-137 301t-46.5 420q0 229 43.5 406t120 308.5t180 221t224.5 144.5t254 79t267 24q25 0 51 -1.5t51 -3.5t46.5 -5t36.5 -6v762h594v-2851h-492zM1397 1683 q-18 9 -41.5 17t-49 13t-51.5 8t-51 3q-100 0 -183.5 -44.5t-143.5 -131.5t-93.5 -214.5t-33.5 -293.5q0 -170 18 -294t54 -204t89.5 -118.5t124.5 -38.5q52 0 102.5 14t96.5 36.5t87 51.5t75 58v1138zM2073 2552l98 561h430l-205 -561h-323z" />
<glyph unicode="&#x110;" horiz-adv-x="2494" d="M295 0v1139h-246v508h246v1069q104 0 207.5 0.5t206.5 1.5t204 1.5t201 0.5q198 0 368.5 -31.5t311 -97.5t250 -167.5t184 -242.5t113.5 -322t39 -405q0 -218 -35 -410.5t-107 -354t-183 -289.5t-263.5 -217t-348 -136t-435.5 -47h-713zM1065 508q114 0 207.5 24.5 t168 73t129.5 122t91 172t54 221.5t18 272q0 128 -14.5 238.5t-46.5 201.5t-84 161.5t-126 119t-172.5 73.5t-224.5 25h-147v-565h294v-508h-294v-631h147z" />
<glyph unicode="&#x111;" horiz-adv-x="2216" d="M1499 0l-33 213q-69 -55 -144 -101.5t-154 -80.5t-161.5 -53t-166.5 -19q-175 0 -309 60.5t-224.5 181.5t-137 301t-46.5 420q0 229 43.5 404.5t120 305.5t180 217.5t224.5 140.5t254 76t267 23q25 0 51 -1.5t51 -3.5t46.5 -5t36.5 -6v192h-553v381h553v205h594v-205h225 v-381h-225v-2265h-492zM1397 1667q-18 9 -41.5 17t-49 13t-51.5 8t-51 3q-100 0 -183.5 -42t-143.5 -126t-93.5 -209t-33.5 -291q0 -170 18 -294t54 -204t89.5 -118.5t124.5 -38.5q52 0 102.5 14t96.5 36.5t87 51.5t75 58v1122z" />
<glyph unicode="&#x112;" horiz-adv-x="2064" d="M246 0v2716h1741l-58 -508h-1061v-570h865v-491h-865v-639h1090v-508h-1712zM500 2875v381h1184v-381h-1184z" />
<glyph unicode="&#x113;" horiz-adv-x="2241" d="M2093 229q-108 -68 -224.5 -119.5t-242.5 -87t-261.5 -53.5t-279.5 -18q-241 0 -421.5 61t-300.5 187t-180 320t-60 460q0 175 27.5 327t84.5 278t143.5 225t203.5 166.5t266.5 103t331.5 35.5q151 0 279.5 -29.5t231.5 -92.5t179.5 -161.5t125.5 -235.5t68.5 -314.5 t8.5 -399.5h-1319q0 -77 13 -142.5t39.5 -119t65.5 -94t91 -68.5t116.5 -42t141.5 -14q83 0 170 14.5t170 41.5t158.5 65t135.5 84zM1483 1245q3 103 -16 187.5t-62 145t-111.5 93.5t-163.5 33q-80 0 -147.5 -31.5t-117 -90.5t-79 -144t-32.5 -193h729zM574 2380v381h1102 v-381h-1102z" />
<glyph unicode="&#x116;" horiz-adv-x="2064" d="M246 0v2716h1741l-58 -508h-1061v-570h865v-491h-865v-639h1090v-508h-1712zM762 2834v484h631v-484h-631z" />
<glyph unicode="&#x117;" horiz-adv-x="2241" d="M2093 229q-108 -68 -224.5 -119.5t-242.5 -87t-261.5 -53.5t-279.5 -18q-241 0 -421.5 61t-300.5 187t-180 320t-60 460q0 175 27.5 327t84.5 278t143.5 225t203.5 166.5t266.5 103t331.5 35.5q151 0 279.5 -29.5t231.5 -92.5t179.5 -161.5t125.5 -235.5t68.5 -314.5 t8.5 -399.5h-1319q0 -77 13 -142.5t39.5 -119t65.5 -94t91 -68.5t116.5 -42t141.5 -14q83 0 170 14.5t170 41.5t158.5 65t135.5 84zM1483 1245q3 103 -16 187.5t-62 145t-111.5 93.5t-163.5 33q-80 0 -147.5 -31.5t-117 -90.5t-79 -144t-32.5 -193h729zM811 2339v512h610 v-512h-610z" />
<glyph unicode="&#x118;" horiz-adv-x="2064" d="M2023 -664q-83 -37 -175.5 -53t-209.5 -16q-87 0 -161 15t-127 51t-83 95t-30 146q0 63 20 121.5t60.5 111.5t101 101.5t142.5 91.5h-1315v2716h1741l-58 -508h-1061v-570h865v-491h-865v-639h1090v-508q-74 -48 -122 -90.5t-76.5 -81t-40 -74t-11.5 -69.5 q0 -38 22.5 -58t59.5 -20q34 0 70.5 7t76.5 26z" />
<glyph unicode="&#x119;" horiz-adv-x="2241" d="M1581 -664q-83 -37 -175.5 -53t-209.5 -16q-87 0 -161 15t-127 51t-83 95t-30 146q0 55 15.5 106t46.5 97.5t77.5 90t109.5 83.5q-229 6 -401.5 70t-288 190.5t-173.5 317t-58 450.5q0 175 27.5 327t84.5 278t143.5 225t203.5 166.5t266.5 103t331.5 35.5 q151 0 279.5 -29.5t231.5 -92.5t179.5 -161.5t125.5 -235.5t68.5 -314.5t8.5 -399.5h-1319q0 -77 13 -142.5t39.5 -119t65.5 -94t91 -68.5t116.5 -42t141.5 -14q83 0 170 14.5t170 41.5t158.5 65t135.5 84l238 -377q-90 -56 -167.5 -92.5t-145 -61.5t-126 -43.5t-110 -38.5 t-97 -47t-87.5 -69q-50 -49 -72 -96t-22 -96q0 -38 22 -58t60 -20q34 0 70.5 7t76.5 26zM1483 1245q3 103 -16 187.5t-62 145t-111.5 93.5t-163.5 33q-80 0 -147.5 -31.5t-117 -90.5t-79 -144t-32.5 -193h729z" />
<glyph unicode="&#x11a;" horiz-adv-x="2064" d="M246 0v2716h1741l-58 -508h-1061v-570h865v-491h-865v-639h1090v-508h-1712zM918 2830l-467 447h446l226 -242l217 242h446l-467 -447h-401z" />
<glyph unicode="&#x11b;" horiz-adv-x="2241" d="M2093 229q-108 -68 -224.5 -119.5t-242.5 -87t-261.5 -53.5t-279.5 -18q-241 0 -421.5 61t-300.5 187t-180 320t-60 460q0 175 27.5 327t84.5 278t143.5 225t203.5 166.5t266.5 103t331.5 35.5q151 0 279.5 -29.5t231.5 -92.5t179.5 -161.5t125.5 -235.5t68.5 -314.5 t8.5 -399.5h-1319q0 -77 13 -142.5t39.5 -119t65.5 -94t91 -68.5t116.5 -42t141.5 -14q83 0 170 14.5t170 41.5t158.5 65t135.5 84zM1483 1245q3 103 -16 187.5t-62 145t-111.5 93.5t-163.5 33q-80 0 -147.5 -31.5t-117 -90.5t-79 -144t-32.5 -193h729zM955 2310l-467 541 h446l226 -311l217 311h446l-467 -541h-401z" />
<glyph unicode="&#x11c;" horiz-adv-x="2466" d="M1679 979h-467v475h1049v-1229q-108 -63 -229.5 -113t-250.5 -85t-262 -53.5t-262 -18.5q-204 0 -367 42.5t-288.5 123.5t-215.5 198.5t-147.5 266.5t-84.5 328t-27 384q0 192 29.5 376t91 347t156 299.5t226 235.5t300 154t377.5 55q155 0 286.5 -24t237.5 -71.5 t186.5 -117.5t134 -162.5t79 -207t22.5 -249.5l-590 -78q4 99 -19.5 174.5t-73.5 127t-126.5 78t-177.5 26.5q-89 0 -160.5 -31.5t-126 -88.5t-93.5 -138t-64 -179t-36.5 -211.5t-11.5 -236.5q0 -240 29 -413t96.5 -285t177.5 -165.5t271 -53.5q46 0 92.5 5t90 15t81.5 24.5 t67 33.5v442zM1500 2830l-226 242l-217 -242h-446l467 447h401l467 -447h-446z" />
<glyph unicode="&#x11d;" horiz-adv-x="2245" d="M1589 2462h627l-344 -570q41 -23 73 -73t54 -109t33.5 -118t11.5 -101q0 -123 -26 -222t-79 -175t-133.5 -131.5t-188.5 -90.5t-245 -52t-303 -17h-9t-13.5 0.5t-16.5 1t-18 2.5q-34 -5 -56 -15.5t-35 -25t-18.5 -30.5t-5.5 -31q0 -41 36 -65t97.5 -38.5t143.5 -23 t174.5 -17t189.5 -21.5t189.5 -37t174.5 -62.5t143.5 -97.5t97.5 -143.5t36 -199.5q0 -133 -28 -239.5t-88 -188t-153.5 -140.5t-223.5 -96.5t-298.5 -55t-379.5 -17.5q-178 0 -318.5 12.5t-247 38.5t-181.5 66t-122 95t-68.5 125.5t-21.5 157.5q0 75 28.5 140t80 119 t123 96t157.5 71q-57 23 -94 52.5t-58.5 66.5t-30.5 81.5t-9 98.5q0 57 25.5 113t72.5 108t112.5 98t145.5 83q-117 21 -200.5 72t-137 124.5t-79 165.5t-25.5 195t26 192t78.5 162.5t132 130t187.5 95.5t244 59t302 20q52 0 105.5 -2.5t104 -7.5t97.5 -12.5t87 -18.5z M1122 1122q71 0 126.5 18.5t94 57t58.5 98t20 142.5q0 92 -21.5 157t-62.5 106.5t-100.5 61t-134.5 19.5q-77 0 -137 -18.5t-101.5 -57t-63.5 -96t-22 -135.5q0 -94 23 -161t67.5 -109.5t108.5 -62.5t145 -20zM770 106q-32 -27 -54 -56.5t-35.5 -60.5t-19.5 -62t-6 -62 q0 -60 30.5 -106.5t90 -78.5t147.5 -48.5t203 -16.5q137 0 225 17t139 47t71 72t20 93q0 43 -9.5 76t-39 58.5t-84 44.5t-144.5 33.5t-221 26.5t-313 23zM1319 2593l-226 242l-217 -242h-446l467 447h401l467 -447h-446z" />
<glyph unicode="&#x11e;" horiz-adv-x="2466" d="M1679 979h-467v475h1049v-1229q-108 -63 -229.5 -113t-250.5 -85t-262 -53.5t-262 -18.5q-204 0 -367 42.5t-288.5 123.5t-215.5 198.5t-147.5 266.5t-84.5 328t-27 384q0 192 29.5 376t91 347t156 299.5t226 235.5t300 154t377.5 55q155 0 286.5 -24t237.5 -71.5 t186.5 -117.5t134 -162.5t79 -207t22.5 -249.5l-590 -78q4 99 -19.5 174.5t-73.5 127t-126.5 78t-177.5 26.5q-89 0 -160.5 -31.5t-126 -88.5t-93.5 -138t-64 -179t-36.5 -211.5t-11.5 -236.5q0 -240 29 -413t96.5 -285t177.5 -165.5t271 -53.5q46 0 92.5 5t90 15t81.5 24.5 t67 33.5v442zM1970 3400q-15 -119 -72.5 -219.5t-148.5 -173.5t-212 -114.5t-263 -41.5q-134 0 -249.5 38t-203.5 109t-145 172.5t-74 229.5h364q3 -54 27 -95.5t65.5 -69.5t99 -42.5t128.5 -14.5q67 0 123.5 12.5t97.5 39.5t66.5 69t31.5 101h365z" />
<glyph unicode="&#x11f;" horiz-adv-x="2245" d="M1655 2421h602l-356 -549q34 -29 60.5 -76.5t45 -101.5t28 -107.5t9.5 -95.5q0 -123 -26 -222t-79 -175t-133.5 -131.5t-188.5 -90.5t-245 -52t-303 -17h-9t-13.5 0.5t-16.5 1t-18 2.5q-34 -5 -56 -15.5t-35 -25t-18.5 -30.5t-5.5 -31q0 -41 36 -65t97.5 -38.5t143.5 -23 t174.5 -17t189.5 -21.5t189.5 -37t174.5 -62.5t143.5 -97.5t97.5 -143.5t36 -199.5q0 -133 -28 -239.5t-88 -188t-153.5 -140.5t-223.5 -96.5t-298.5 -55t-379.5 -17.5q-178 0 -318.5 12.5t-247 38.5t-181.5 66t-122 95t-68.5 125.5t-21.5 157.5q0 75 28.5 140t80 119 t123 96t157.5 71q-57 23 -94 52.5t-58.5 66.5t-30.5 81.5t-9 98.5q0 57 25.5 113t72.5 108t112.5 98t145.5 83q-117 21 -200.5 72t-137 124.5t-79 165.5t-25.5 195t26 192t78.5 162.5t132 130t187.5 95.5t244 59t302 20q52 0 108 -2.5t111 -8.5t107 -16.5t96 -25.5z M1122 1122q71 0 126.5 18.5t94 57t58.5 98t20 142.5q0 92 -21.5 157t-62.5 106.5t-100.5 61t-134.5 19.5q-77 0 -137 -18.5t-101.5 -57t-63.5 -96t-22 -135.5q0 -94 23 -161t67.5 -109.5t108.5 -62.5t145 -20zM770 106q-32 -27 -54 -56.5t-35.5 -60.5t-19.5 -62t-6 -62 q0 -60 30.5 -106.5t90 -78.5t147.5 -48.5t203 -16.5q137 0 225 17t139 47t71 72t20 93q0 43 -9.5 76t-39 58.5t-84 44.5t-144.5 33.5t-221 26.5t-313 23zM1696 2892q-15 -119 -69 -219.5t-141.5 -173.5t-205 -114.5t-260.5 -41.5q-134 0 -246 38t-196.5 109t-138 172.5 t-70.5 229.5h364q3 -54 23.5 -95.5t58.5 -69t92 -42t125 -14.5q135 0 211 52t88 169h365z" />
<glyph unicode="&#x120;" horiz-adv-x="2466" d="M1679 979h-467v475h1049v-1229q-108 -63 -229.5 -113t-250.5 -85t-262 -53.5t-262 -18.5q-204 0 -367 42.5t-288.5 123.5t-215.5 198.5t-147.5 266.5t-84.5 328t-27 384q0 192 29.5 376t91 347t156 299.5t226 235.5t300 154t377.5 55q155 0 286.5 -24t237.5 -71.5 t186.5 -117.5t134 -162.5t79 -207t22.5 -249.5l-590 -78q4 99 -19.5 174.5t-73.5 127t-126.5 78t-177.5 26.5q-89 0 -160.5 -31.5t-126 -88.5t-93.5 -138t-64 -179t-36.5 -211.5t-11.5 -236.5q0 -240 29 -413t96.5 -285t177.5 -165.5t271 -53.5q46 0 92.5 5t90 15t81.5 24.5 t67 33.5v442zM963 2875v484h631v-484h-631z" />
<glyph unicode="&#x121;" horiz-adv-x="2245" d="M1589 2462h627l-344 -570q41 -23 73 -73t54 -109t33.5 -118t11.5 -101q0 -123 -26 -222t-79 -175t-133.5 -131.5t-188.5 -90.5t-245 -52t-303 -17h-9t-13.5 0.5t-16.5 1t-18 2.5q-34 -5 -56 -15.5t-35 -25t-18.5 -30.5t-5.5 -31q0 -41 36 -65t97.5 -38.5t143.5 -23 t174.5 -17t189.5 -21.5t189.5 -37t174.5 -62.5t143.5 -97.5t97.5 -143.5t36 -199.5q0 -133 -28 -239.5t-88 -188t-153.5 -140.5t-223.5 -96.5t-298.5 -55t-379.5 -17.5q-178 0 -318.5 12.5t-247 38.5t-181.5 66t-122 95t-68.5 125.5t-21.5 157.5q0 75 28.5 140t80 119 t123 96t157.5 71q-57 23 -94 52.5t-58.5 66.5t-30.5 81.5t-9 98.5q0 57 25.5 113t72.5 108t112.5 98t145.5 83q-117 21 -200.5 72t-137 124.5t-79 165.5t-25.5 195t26 192t78.5 162.5t132 130t187.5 95.5t244 59t302 20q52 0 105.5 -2.5t104 -7.5t97.5 -12.5t87 -18.5z M1122 1122q71 0 126.5 18.5t94 57t58.5 98t20 142.5q0 92 -21.5 157t-62.5 106.5t-100.5 61t-134.5 19.5q-77 0 -137 -18.5t-101.5 -57t-63.5 -96t-22 -135.5q0 -94 23 -161t67.5 -109.5t108.5 -62.5t145 -20zM770 106q-32 -27 -54 -56.5t-35.5 -60.5t-19.5 -62t-6 -62 q0 -60 30.5 -106.5t90 -78.5t147.5 -48.5t203 -16.5q137 0 225 17t139 47t71 72t20 93q0 43 -9.5 76t-39 58.5t-84 44.5t-144.5 33.5t-221 26.5t-313 23zM774 2339v512h610v-512h-610z" />
<glyph unicode="&#x122;" horiz-adv-x="2466" d="M1679 979h-467v475h1049v-1229q-108 -63 -229.5 -113t-250.5 -85t-262 -53.5t-262 -18.5q-204 0 -367 42.5t-288.5 123.5t-215.5 198.5t-147.5 266.5t-84.5 328t-27 384q0 192 29.5 376t91 347t156 299.5t226 235.5t300 154t377.5 55q155 0 286.5 -24t237.5 -71.5 t186.5 -117.5t134 -162.5t79 -207t22.5 -249.5l-590 -78q4 99 -19.5 174.5t-73.5 127t-126.5 78t-177.5 26.5q-89 0 -160.5 -31.5t-126 -88.5t-93.5 -138t-64 -179t-36.5 -211.5t-11.5 -236.5q0 -240 29 -413t96.5 -285t177.5 -165.5t271 -53.5q46 0 92.5 5t90 15t81.5 24.5 t67 33.5v442zM979 -737l156 209h-176v372h573v-356l-250 -225h-303z" />
<glyph unicode="&#x123;" horiz-adv-x="2245" d="M1589 2462h627l-344 -570q41 -23 73 -73t54 -109t33.5 -118t11.5 -101q0 -123 -26 -222t-79 -175t-133.5 -131.5t-188.5 -90.5t-245 -52t-303 -17h-9t-13.5 0.5t-16.5 1t-18 2.5q-34 -5 -56 -15.5t-35 -25t-18.5 -30.5t-5.5 -31q0 -41 36 -65t97.5 -38.5t143.5 -23 t174.5 -17t189.5 -21.5t189.5 -37t174.5 -62.5t143.5 -97.5t97.5 -143.5t36 -199.5q0 -133 -28 -239.5t-88 -188t-153.5 -140.5t-223.5 -96.5t-298.5 -55t-379.5 -17.5q-178 0 -318.5 12.5t-247 38.5t-181.5 66t-122 95t-68.5 125.5t-21.5 157.5q0 75 28.5 140t80 119 t123 96t157.5 71q-57 23 -94 52.5t-58.5 66.5t-30.5 81.5t-9 98.5q0 57 25.5 113t72.5 108t112.5 98t145.5 83q-117 21 -200.5 72t-137 124.5t-79 165.5t-25.5 195t26 192t78.5 162.5t132 130t187.5 95.5t244 59t302 20q52 0 105.5 -2.5t104 -7.5t97.5 -12.5t87 -18.5z M1122 1122q71 0 126.5 18.5t94 57t58.5 98t20 142.5q0 92 -21.5 157t-62.5 106.5t-100.5 61t-134.5 19.5q-77 0 -137 -18.5t-101.5 -57t-63.5 -96t-22 -135.5q0 -94 23 -161t67.5 -109.5t108.5 -62.5t145 -20zM770 106q-32 -27 -54 -56.5t-35.5 -60.5t-19.5 -62t-6 -62 q0 -60 30.5 -106.5t90 -78.5t147.5 -48.5t203 -16.5q137 0 225 17t139 47t71 72t20 93q0 43 -9.5 76t-39 58.5t-84 44.5t-144.5 33.5t-221 26.5t-313 23zM729 2306v377l250 233h303l-156 -217h176v-393h-573z" />
<glyph unicode="&#x124;" horiz-adv-x="2527" d="M1659 0v1151h-791v-1151h-622v2716h622v-1049h791v1049h622v-2716h-622zM1483 2830l-226 242l-217 -242h-446l467 447h401l467 -447h-446z" />
<glyph unicode="&#x125;" horiz-adv-x="2228" d="M1413 0v1319q0 92 -12.5 156t-42 104t-78.5 58t-121 18q-45 0 -93 -11t-94 -29t-85.5 -40t-67.5 -43v-1532h-594v2851h594v-942q83 48 166.5 84.5t164.5 61t156.5 37.5t143.5 13q154 0 260 -33.5t172 -108t95.5 -193.5t29.5 -291v-1479h-594zM1352 3006l-226 242 l-217 -242h-446l467 447h401l467 -447h-446z" />
<glyph unicode="&#x126;" horiz-adv-x="2609" d="M1700 0v1110h-791v-1110h-622v1982h-217v381h217v353h622v-353h791v353h622v-353h218v-381h-218v-1982h-622zM1700 1626v356h-791v-356h791z" />
<glyph unicode="&#x127;" horiz-adv-x="2228" d="M1413 0v1319q0 92 -12.5 156t-42 104t-78.5 58t-121 18q-45 0 -93 -11t-94 -29t-85.5 -40t-67.5 -43v-1532h-594v2265h-225v381h225v205h594v-205h553v-381h-553v-356q83 48 166.5 84.5t164.5 61t156.5 37.5t143.5 13q154 0 260 -33.5t172 -108t95.5 -193.5t29.5 -291 v-1479h-594z" />
<glyph unicode="&#x128;" horiz-adv-x="1114" d="M246 0v2716h622v-2716h-622zM1311 3203q-37 -77 -88 -140.5t-115.5 -108.5t-142 -70t-166.5 -25q-53 0 -100.5 12t-91 30.5t-84 39.5t-80.5 39.5t-80.5 30.5t-83.5 12q-42 0 -79 -12t-70.5 -35.5t-63.5 -58t-57 -78.5l-209 176q37 75 89 138t116 109t138.5 71.5 t156.5 25.5q52 0 98.5 -12t90 -30.5t85 -39.5t83.5 -39.5t85 -30.5t90 -12q74 0 141 49t129 135z" />
<glyph unicode="&#x129;" horiz-adv-x="1044" d="M225 0v2064h594v-2064h-594zM1283 2675q-37 -75 -88.5 -138.5t-114.5 -109t-137 -71t-155 -25.5q-57 0 -108 12t-97 30t-88.5 39.5t-83.5 39.5t-81.5 30t-82.5 12t-79 -12t-70.5 -35.5t-63.5 -57.5t-57 -79l-209 176q37 75 88.5 138.5t114.5 109t137 71t155 25.5 q57 0 108 -12t97 -30.5t88.5 -39.5l83.5 -39.5t81.5 -30.5t82.5 -12t79 12t70.5 35.5t63.5 58t57 79.5z" />
<glyph unicode="&#x12a;" horiz-adv-x="1114" d="M246 0v2716h622v-2716h-622zM-36 2875v381h1184v-381h-1184z" />
<glyph unicode="&#x12b;" horiz-adv-x="1044" d="M225 0v2064h594v-2064h-594zM-27 2380v381h1102v-381h-1102z" />
<glyph unicode="&#x12e;" horiz-adv-x="1114" d="M934 -664q-83 -37 -175.5 -53t-209.5 -16q-88 0 -161.5 15t-127 51t-83.5 95t-30 146q0 63 20 121.5t60.5 111.5t101.5 101.5t142 91.5h-225v2716h622v-2716q-74 -48 -122 -90.5t-76.5 -81t-40 -74t-11.5 -69.5q0 -38 22.5 -58t59.5 -20q34 0 71 7t77 26z" />
<glyph unicode="&#x12f;" horiz-adv-x="1044" d="M885 -664q-83 -37 -176 -53t-209 -16q-88 0 -161.5 15t-127 51t-83.5 95t-30 146q0 63 20 121.5t60.5 111.5t101.5 101.5t142 91.5h-197v2064h594v-2064q-74 -48 -122 -90.5t-76.5 -81t-40 -74t-11.5 -69.5q0 -38 22.5 -58t59.5 -20q34 0 70.5 7t77.5 26zM217 2339v512 h610v-512h-610z" />
<glyph unicode="&#x130;" horiz-adv-x="1114" d="M246 0v2716h622v-2716h-622zM238 2834v484h631v-484h-631z" />
<glyph unicode="&#x131;" horiz-adv-x="1044" d="M225 0v2064h594v-2064h-594z" />
<glyph unicode="&#x132;" horiz-adv-x="2466" d="M246 0v2716h622v-2716h-622zM1143 483q18 -2 40 -4q18 -2 42.5 -3t52.5 -1q98 0 163 22.5t103.5 72.5t54 129.5t15.5 193.5v1823h622v-1794q0 -260 -58.5 -442.5t-168.5 -297t-267 -167t-353 -52.5q-42 0 -76.5 2t-64 6t-55.5 9.5t-50 11.5v491z" />
<glyph unicode="&#x133;" horiz-adv-x="2089" d="M217 2339v512h610v-512h-610zM225 0v2064h594v-2064h-594zM1261 2339v512h610v-512h-610zM974 -324q75 36 130.5 78.5t92 95t54.5 117t18 144.5v1953h594v-1880q0 -209 -44 -360.5t-129 -259.5t-210.5 -180t-288.5 -121z" />
<glyph unicode="&#x134;" horiz-adv-x="1360" d="M37 483q18 -2 40 -4q18 -2 42.5 -3t52.5 -1q98 0 163 22.5t103.5 72.5t54 129.5t15.5 193.5v1823h622v-1794q0 -260 -58.5 -442.5t-168.5 -297t-267 -167t-353 -52.5q-42 0 -76.5 2t-64 6t-55.5 9.5t-50 11.5v491zM1042 2830l-226 242l-217 -242h-446l467 447h401 l467 -447h-446z" />
<glyph unicode="&#x135;" horiz-adv-x="1044" d="M-70 -324q75 36 130.5 78.5t92 95t54.5 117t18 144.5v1953h594v-1880q0 -209 -44 -360.5t-129 -259.5t-210.5 -180t-288.5 -121zM747 2310l-226 311l-217 -311h-446l467 541h401l467 -541h-446z" />
<glyph unicode="&#x136;" horiz-adv-x="2392" d="M1589 0l-721 1266v-1266h-622v2716h622v-1180l680 1180h750l-844 -1258l959 -1458h-824zM934 -733l156 217h-176v393h573v-377l-250 -233h-303z" />
<glyph unicode="&#x137;" horiz-adv-x="2183" d="M1413 0l-594 1024v-1024h-594v2851h594v-1594l631 807h664l-725 -864l782 -1200h-758zM823 -733l156 217h-176v393h573v-377l-250 -233h-303z" />
<glyph unicode="&#x138;" horiz-adv-x="2183" d="M1393 0l-574 983v-983h-594v2064h594v-847l651 847h664l-745 -905l761 -1159h-757z" />
<glyph unicode="&#x139;" horiz-adv-x="1712" d="M246 0v2716h622v-2200h865l-41 -516h-1446zM434 2851l311 426h557l-504 -426h-364z" />
<glyph unicode="&#x13a;" horiz-adv-x="1044" d="M225 0v2851h594v-2851h-594zM316 2982l311 426h557l-504 -426h-364z" />
<glyph unicode="&#x13b;" horiz-adv-x="1712" d="M246 0v2716h622v-2200h865l-41 -516h-1446zM721 -733l156 217h-176v393h573v-377l-250 -233h-303z" />
<glyph unicode="&#x13c;" horiz-adv-x="1044" d="M225 0v2851h594v-2851h-594zM258 -733l156 217h-176v393h573v-377l-250 -233h-303z" />
<glyph unicode="&#x13d;" horiz-adv-x="1712" d="M246 0v2716h622v-2200h865l-41 -516h-1446zM1041 2552l98 561h430l-205 -561h-323z" />
<glyph unicode="&#x13e;" horiz-adv-x="1167" d="M225 0v2851h594v-2851h-594zM901 2552l98 561h430l-205 -561h-323z" />
<glyph unicode="&#x13f;" horiz-adv-x="1933" d="M246 0v2716h622v-2200h865l-41 -516h-1446zM1217 1081v656h631v-656h-631z" />
<glyph unicode="&#x140;" horiz-adv-x="1798" d="M225 0v2851h594v-2851h-594zM1114 1040v656h631v-656h-631z" />
<glyph unicode="&#x141;" horiz-adv-x="1753" d="M287 0v1081l-217 -135l-33 365l250 155v1250h622v-861l287 181l33 -365l-320 -201v-954h865l-41 -516h-1446z" />
<glyph unicode="&#x142;" horiz-adv-x="1212" d="M287 0v1143l-242 -152l-33 365l275 172v1323h594v-955l282 181l33 -365l-315 -201v-1511h-594z" />
<glyph unicode="&#x143;" horiz-adv-x="2511" d="M1663 0l-946 1946v-1946h-471v2716h741l807 -1672v1672h471v-2716h-602zM1110 2851l311 426h557l-504 -426h-364z" />
<glyph unicode="&#x144;" horiz-adv-x="2228" d="M1413 0v1319q0 92 -12.5 156t-40 104t-73 58t-111.5 18q-48 0 -97 -12t-95.5 -32t-88.5 -46t-76 -54v-1511h-594v2064h492l33 -225q78 60 165 109t177 84t181 54t177 19q154 0 260 -33.5t172 -108t95.5 -193.5t29.5 -291v-1479h-594zM971 2294l319 557h549l-512 -557 h-356z" />
<glyph unicode="&#x145;" horiz-adv-x="2511" d="M1663 0l-946 1946v-1946h-471v2716h741l807 -1672v1672h471v-2716h-602zM987 -733l156 217h-176v393h573v-377l-250 -233h-303z" />
<glyph unicode="&#x146;" horiz-adv-x="2228" d="M1413 0v1319q0 92 -12.5 156t-40 104t-73 58t-111.5 18q-48 0 -97 -12t-95.5 -32t-88.5 -46t-76 -54v-1511h-594v2064h492l33 -225q78 60 165 109t177 84t181 54t177 19q154 0 260 -33.5t172 -108t95.5 -193.5t29.5 -291v-1479h-594zM852 -733l156 217h-176v393h573v-377 l-250 -233h-303z" />
<glyph unicode="&#x147;" horiz-adv-x="2511" d="M1663 0l-946 1946v-1946h-471v2716h741l807 -1672v1672h471v-2716h-602zM1061 2830l-467 447h446l226 -242l217 242h446l-467 -447h-401z" />
<glyph unicode="&#x148;" horiz-adv-x="2228" d="M1413 0v1319q0 92 -12.5 156t-40 104t-73 58t-111.5 18q-48 0 -97 -12t-95.5 -32t-88.5 -46t-76 -54v-1511h-594v2064h492l33 -225q78 60 165 109t177 84t181 54t177 19q154 0 260 -33.5t172 -108t95.5 -193.5t29.5 -291v-1479h-594zM926 2310l-467 541h446l226 -311 l217 311h446l-467 -541h-401z" />
<glyph unicode="&#x14a;" horiz-adv-x="2511" d="M2265 184q0 -209 -44 -360.5t-129 -259.5t-210.5 -180t-288.5 -121l-217 413q61 29 109.5 62.5t84.5 73.5t59 86.5t34 101.5l-946 1946v-1946h-471v2716h741l807 -1672v1672h471v-2532z" />
<glyph unicode="&#x14b;" horiz-adv-x="2228" d="M2007 184q0 -209 -44 -360.5t-129.5 -259.5t-210.5 -180t-288 -121l-217 413q75 36 130.5 78.5t92 95t54.5 117t18 144.5v1208q0 92 -12.5 156t-40 104t-73 58t-111.5 18q-48 0 -97 -12t-95.5 -32t-88.5 -46t-76 -54v-1511h-594v2064h492l33 -225q78 60 165 109t177 84 t181 54t177 19q154 0 260 -33.5t172 -108t95.5 -193.5t29.5 -291v-1295z" />
<glyph unicode="&#x14c;" horiz-adv-x="2523" d="M1237 -49q-198 0 -357 41.5t-282.5 121.5t-212.5 196t-146 264t-84.5 327t-27.5 385q0 209 30.5 400t92.5 355t157 298t223.5 228.5t292 146t363.5 51.5q198 0 357 -41.5t282.5 -121.5t212.5 -196t146 -264t84.5 -327t27.5 -385q0 -190 -27 -374t-85 -348t-149.5 -303 t-220 -240t-297 -157.5t-380.5 -56.5zM1262 459q84 0 152.5 27.5t122.5 80.5t94 130t66 177t39 221t13 261q0 226 -27.5 395t-87 281.5t-151.5 168.5t-221 56q-84 0 -153 -27.5t-123 -80.5t-94 -130t-66 -177t-39 -221t-13 -261q0 -226 28 -395t87 -281.5t151.5 -168.5 t221.5 -56zM680 2875v381h1184v-381h-1184z" />
<glyph unicode="&#x14d;" horiz-adv-x="2224" d="M1077 -49q-244 0 -423.5 61t-297.5 188t-175.5 322.5t-57.5 464.5q0 278 65 489t193.5 352.5t320 213.5t445.5 72q244 0 423.5 -61t297.5 -188.5t175.5 -323t57.5 -464.5q0 -185 -29 -340.5t-86.5 -280.5t-143 -219.5t-199.5 -158t-255.5 -95.5t-310.5 -32zM1114 352 q92 0 158 35t108 111t62 196t20 289q0 207 -20.5 347t-63.5 225t-109.5 121t-158.5 36t-158 -35t-108 -111t-62 -196t-20 -289q0 -207 20.5 -347t63.5 -225t109.5 -121t158.5 -36zM561 2380v381h1102v-381h-1102z" />
<glyph unicode="&#x150;" horiz-adv-x="2523" d="M1237 -49q-198 0 -357 41.5t-282.5 121.5t-212.5 196t-146 264t-84.5 327t-27.5 385q0 209 30.5 400t92.5 355t157 298t223.5 228.5t292 146t363.5 51.5q198 0 357 -41.5t282.5 -121.5t212.5 -196t146 -264t84.5 -327t27.5 -385q0 -190 -27 -374t-85 -348t-149.5 -303 t-220 -240t-297 -157.5t-380.5 -56.5zM1262 459q84 0 152.5 27.5t122.5 80.5t94 130t66 177t39 221t13 261q0 226 -27.5 395t-87 281.5t-151.5 168.5t-221 56q-84 0 -153 -27.5t-123 -80.5t-94 -130t-66 -177t-39 -221t-13 -261q0 -226 28 -395t87 -281.5t151.5 -168.5 t221.5 -56zM1426 2822l294 455h557l-487 -455h-364zM713 2822l213 455h549l-406 -455h-356z" />
<glyph unicode="&#x151;" horiz-adv-x="2224" d="M1077 -49q-244 0 -423.5 61t-297.5 188t-175.5 322.5t-57.5 464.5q0 278 65 489t193.5 352.5t320 213.5t445.5 72q244 0 423.5 -61t297.5 -188.5t175.5 -323t57.5 -464.5q0 -185 -29 -340.5t-86.5 -280.5t-143 -219.5t-199.5 -158t-255.5 -95.5t-310.5 -32zM1114 352 q92 0 158 35t108 111t62 196t20 289q0 207 -20.5 347t-63.5 225t-109.5 121t-158.5 36t-158 -35t-108 -111t-62 -196t-20 -289q0 -207 20.5 -347t63.5 -225t109.5 -121t158.5 -36zM1258 2294l360 557h557l-553 -557h-364zM545 2294l278 557h549l-471 -557h-356z" />
<glyph unicode="&#x152;" horiz-adv-x="3412" d="M1593 0q-40 -11 -82 -20t-86.5 -15.5t-91.5 -10t-96 -3.5q-198 0 -357 41.5t-282.5 121.5t-212.5 196t-146 264t-84.5 327t-27.5 385q0 209 30.5 400t92.5 355t157 298t223.5 228.5t292 146t363.5 51.5q90 0 189.5 -12.5t183.5 -36.5h1675l-57 -508h-1073v-570h876v-491 h-876v-639h1101v-508h-1712zM1593 2183q-62 34 -145.5 54t-185.5 20q-84 0 -153 -27.5t-124 -80.5t-95 -130t-67 -177t-40 -221t-13 -261q0 -226 28.5 -395t88.5 -281.5t153 -168.5t222 -56q49 0 96.5 4.5t90.5 12.5t80 20.5t64 27.5v1659z" />
<glyph unicode="&#x153;" horiz-adv-x="3568" d="M3432 250q-123 -77 -243 -133.5t-244.5 -93t-256 -54.5t-275.5 -18q-108 0 -204 12.5t-180 40t-156 73t-132 111.5q-52 -61 -121.5 -105.5t-153.5 -74t-182 -43.5t-207 -14q-244 0 -423.5 60.5t-297.5 187t-175.5 322.5t-57.5 466q0 278 65 489t193 352.5t319 213.5 t443 72q109 0 205 -13t179.5 -41.5t154 -74t128.5 -109.5q129 126 302.5 182t394.5 56q151 0 279.5 -28t231.5 -89t179.5 -156.5t125.5 -230t68.5 -311t8.5 -398.5h-1319q0 -77 13.5 -142t39.5 -118.5t65.5 -94t91 -68.5t116 -42t141.5 -14q83 0 170 14.5t170.5 41.5t159 65 t135.5 84zM1118 352q91 0 156 35t107 111t61.5 196t19.5 289q0 206 -20.5 345.5t-63.5 225t-109.5 122t-158.5 36.5t-158 -35t-108 -111t-62 -196t-20 -289q0 -207 20.5 -347t64 -225t110.5 -121t161 -36zM2810 1266q3 103 -16 187.5t-62 144.5t-111 93t-163 33 q-80 0 -147.5 -31.5t-117.5 -90.5t-79.5 -144t-32.5 -192h729z" />
<glyph unicode="&#x154;" horiz-adv-x="2306" d="M1511 0l-471 1069h-172v-1069h-622v2716h975q233 0 407.5 -49t290.5 -148t173.5 -247.5t57.5 -346.5q0 -132 -36 -245.5t-103 -207t-161.5 -167t-211.5 -125.5l598 -1180h-725zM1130 1536q92 0 162 24t117 69.5t70.5 112t23.5 150.5q0 78 -22 141.5t-67 108.5 t-114.5 69.5t-164.5 24.5h-267v-700h262zM905 2851l311 426h557l-504 -426h-364z" />
<glyph unicode="&#x155;" horiz-adv-x="1450" d="M225 0v2064h520l33 -331q61 103 117 174t112.5 115t115 63.5t126.5 19.5q47 0 101 -8t100 -20l-74 -578q-43 16 -96.5 24.5t-99.5 8.5q-33 0 -63.5 -6.5t-60 -19t-58.5 -31.5t-58 -44t-59 -56t-62 -68v-1307h-594zM619 2294l319 557h549l-512 -557h-356z" />
<glyph unicode="&#x156;" horiz-adv-x="2306" d="M1511 0l-471 1069h-172v-1069h-622v2716h975q233 0 407.5 -49t290.5 -148t173.5 -247.5t57.5 -346.5q0 -132 -36 -245.5t-103 -207t-161.5 -167t-211.5 -125.5l598 -1180h-725zM1130 1536q92 0 162 24t117 69.5t70.5 112t23.5 150.5q0 78 -22 141.5t-67 108.5 t-114.5 69.5t-164.5 24.5h-267v-700h262zM905 -733l156 217h-176v393h573v-377l-250 -233h-303z" />
<glyph unicode="&#x157;" horiz-adv-x="1450" d="M225 0v2064h520l33 -331q61 103 117 174t112.5 115t115 63.5t126.5 19.5q47 0 101 -8t100 -20l-74 -578q-43 16 -96.5 24.5t-99.5 8.5q-33 0 -63.5 -6.5t-60 -19t-58.5 -31.5t-58 -44t-59 -56t-62 -68v-1307h-594zM262 -733l156 217h-176v393h573v-377l-250 -233h-303z " />
<glyph unicode="&#x158;" horiz-adv-x="2306" d="M1511 0l-471 1069h-172v-1069h-622v2716h975q233 0 407.5 -49t290.5 -148t173.5 -247.5t57.5 -346.5q0 -132 -36 -245.5t-103 -207t-161.5 -167t-211.5 -125.5l598 -1180h-725zM1130 1536q92 0 162 24t117 69.5t70.5 112t23.5 150.5q0 78 -22 141.5t-67 108.5 t-114.5 69.5t-164.5 24.5h-267v-700h262zM852 2830l-467 447h446l226 -242l217 242h446l-467 -447h-401z" />
<glyph unicode="&#x159;" horiz-adv-x="1450" d="M225 0v2064h520l33 -331q61 103 117 174t112.5 115t115 63.5t126.5 19.5q47 0 101 -8t100 -20l-74 -578q-43 16 -96.5 24.5t-99.5 8.5q-33 0 -63.5 -6.5t-60 -19t-58.5 -31.5t-58 -44t-59 -56t-62 -68v-1307h-594zM672 2310l-467 541h446l226 -311l217 311h446l-467 -541 h-401z" />
<glyph unicode="&#x15a;" horiz-adv-x="2388" d="M1540 1970q0 78 -21 136t-66 96t-116.5 56.5t-173.5 18.5q-89 0 -157 -20t-114 -54.5t-69.5 -81t-23.5 -98.5q0 -78 40.5 -132t110.5 -93.5t163 -69t197.5 -57.5l215.5 -60t215.5 -76t197.5 -105t163 -148t110.5 -204.5t40.5 -274.5q0 -124 -34 -235.5t-100.5 -206 t-164 -170.5t-225 -129.5t-284 -82t-339.5 -28.5q-258 0 -445.5 46.5t-310 145t-181 251t-58.5 364.5l622 82q0 -70 10.5 -126.5t32.5 -100.5t56.5 -76.5t82.5 -53.5t109.5 -31t138.5 -10q71 0 129 9.5t103.5 27.5t79 43.5t55.5 57.5t32.5 69.5t10.5 79.5q0 90 -40.5 151.5 t-109.5 104.5t-161 73t-195.5 57l-212.5 56t-212.5 69.5t-195.5 97.5t-161 141.5t-109.5 200.5t-40.5 274q0 177 72.5 325.5t211.5 256.5t342 168.5t464 60.5q163 0 294.5 -21.5t233.5 -63.5t176.5 -103t122.5 -141t71 -177t23 -211zM938 2851l311 426h557l-504 -426h-364z " />
<glyph unicode="&#x15b;" horiz-adv-x="2036" d="M1315 1487q4 69 -15 116t-58.5 76t-98 41.5t-131.5 12.5q-69 0 -125 -14.5t-95.5 -41.5t-61 -66.5t-21.5 -90.5q0 -55 34 -92.5t92 -64t135.5 -45.5t165 -37.5t179.5 -40t179.5 -53t165 -77t135.5 -111t92 -155t34 -209.5q0 -101 -30 -191.5t-88 -166.5t-143.5 -136.5 t-196.5 -102.5t-247 -64.5t-294 -22.5q-232 0 -391.5 38t-252.5 114t-124 190.5t-7 267.5l492 41q-11 -74 8 -125t65.5 -83.5t119 -47t167.5 -14.5q52 0 96.5 6t81 18t64.5 30t47 41t29 51.5t10 62.5q0 61 -33.5 103t-91 71.5t-134 50.5t-162.5 40.5l-177 41t-177 52 t-162.5 73.5t-134 106.5t-91 150.5t-33.5 204q0 155 59.5 280.5t175 214.5t286 137t392.5 48q183 0 335 -36.5t258 -109.5t158.5 -183t35.5 -257zM803 2294l319 557h549l-512 -557h-356z" />
<glyph unicode="&#x15c;" horiz-adv-x="2388" d="M1540 1970q0 78 -21 136t-66 96t-116.5 56.5t-173.5 18.5q-89 0 -157 -20t-114 -54.5t-69.5 -81t-23.5 -98.5q0 -78 40.5 -132t110.5 -93.5t163 -69t197.5 -57.5l215.5 -60t215.5 -76t197.5 -105t163 -148t110.5 -204.5t40.5 -274.5q0 -124 -34 -235.5t-100.5 -206 t-164 -170.5t-225 -129.5t-284 -82t-339.5 -28.5q-258 0 -445.5 46.5t-310 145t-181 251t-58.5 364.5l622 82q0 -70 10.5 -126.5t32.5 -100.5t56.5 -76.5t82.5 -53.5t109.5 -31t138.5 -10q71 0 129 9.5t103.5 27.5t79 43.5t55.5 57.5t32.5 69.5t10.5 79.5q0 90 -40.5 151.5 t-109.5 104.5t-161 73t-195.5 57l-212.5 56t-212.5 69.5t-195.5 97.5t-161 141.5t-109.5 200.5t-40.5 274q0 177 72.5 325.5t211.5 256.5t342 168.5t464 60.5q163 0 294.5 -21.5t233.5 -63.5t176.5 -103t122.5 -141t71 -177t23 -211zM1381 2830l-226 242l-217 -242h-446 l467 447h401l467 -447h-446z" />
<glyph unicode="&#x15d;" horiz-adv-x="2036" d="M1315 1487q4 69 -15 116t-58.5 76t-98 41.5t-131.5 12.5q-69 0 -125 -14.5t-95.5 -41.5t-61 -66.5t-21.5 -90.5q0 -55 34 -92.5t92 -64t135.5 -45.5t165 -37.5t179.5 -40t179.5 -53t165 -77t135.5 -111t92 -155t34 -209.5q0 -101 -30 -191.5t-88 -166.5t-143.5 -136.5 t-196.5 -102.5t-247 -64.5t-294 -22.5q-232 0 -391.5 38t-252.5 114t-124 190.5t-7 267.5l492 41q-11 -74 8 -125t65.5 -83.5t119 -47t167.5 -14.5q52 0 96.5 6t81 18t64.5 30t47 41t29 51.5t10 62.5q0 61 -33.5 103t-91 71.5t-134 50.5t-162.5 40.5l-177 41t-177 52 t-162.5 73.5t-134 106.5t-91 150.5t-33.5 204q0 155 59.5 280.5t175 214.5t286 137t392.5 48q183 0 335 -36.5t258 -109.5t158.5 -183t35.5 -257zM1237 2310l-226 311l-217 -311h-446l467 541h401l467 -541h-446z" />
<glyph unicode="&#x15e;" horiz-adv-x="2388" d="M1434 -696h-709l74 340h442l-147 307q-249 0 -432 46.5t-302.5 145t-178 251t-58.5 364.5l622 82q0 -70 10.5 -126.5t33 -100.5t56.5 -76.5t82 -53.5t110 -31t139 -10q70 0 128 9.5t103.5 27.5t79 43.5t55.5 57.5t32.5 69.5t10.5 79.5q0 90 -40.5 151.5t-109.5 104.5 t-161 73t-195.5 57l-212.5 56t-212.5 69.5t-195.5 97.5t-161 141.5t-109.5 200.5t-40.5 274q0 177 72.5 325.5t211.5 256.5t342 168.5t464 60.5q162 0 293 -21.5t233.5 -63.5t177 -103t123 -141t72 -177t23.5 -211l-607 -78q0 78 -21 136t-66 96t-116.5 56.5t-172.5 18.5 q-89 0 -157.5 -20t-114.5 -55t-69.5 -82t-23.5 -101q0 -77 40.5 -131t110.5 -93t163 -68t197.5 -57l215.5 -59.5t215.5 -75.5t197.5 -105t163 -148t110.5 -204.5t40.5 -274.5q0 -169 -61 -310.5t-177 -249.5t-284 -179.5t-383 -100.5l147 -319z" />
<glyph unicode="&#x15f;" horiz-adv-x="2036" d="M483 -696l74 340h442l-147 307q-204 6 -349 44.5t-232 113t-117.5 187t-6.5 265.5l492 41q-11 -74 8 -125t65.5 -83.5t119 -47t167.5 -14.5q52 0 96.5 6t81 18t64.5 30t47 41t29 51.5t10 62.5q0 61 -33.5 103t-91 71.5t-134 50.5t-162.5 40.5l-177 41t-177 52 t-162.5 73.5t-134 106.5t-91 150.5t-33.5 204q0 155 59.5 280.5t175 214.5t286 137t392.5 48q183 0 335 -36.5t258 -109.5t158.5 -183t35.5 -257l-516 -41q4 69 -15 116t-58.5 76t-98 41.5t-131.5 12.5q-69 0 -125 -14.5t-95.5 -41.5t-61 -66.5t-21.5 -90.5q0 -55 34 -92.5 t92 -64t135.5 -45.5t165 -37.5t179.5 -40t179.5 -53t165 -77t135.5 -111t92 -155t34 -209.5q0 -90 -23.5 -171.5t-70 -152.5t-114.5 -129.5t-157.5 -103.5t-199 -75.5t-238.5 -43.5l148 -315l-74 -340h-709z" />
<glyph unicode="&#x160;" horiz-adv-x="2388" d="M1540 1970q0 78 -21 136t-66 96t-116.5 56.5t-173.5 18.5q-89 0 -157 -20t-114 -54.5t-69.5 -81t-23.5 -98.5q0 -78 40.5 -132t110.5 -93.5t163 -69t197.5 -57.5l215.5 -60t215.5 -76t197.5 -105t163 -148t110.5 -204.5t40.5 -274.5q0 -124 -34 -235.5t-100.5 -206 t-164 -170.5t-225 -129.5t-284 -82t-339.5 -28.5q-258 0 -445.5 46.5t-310 145t-181 251t-58.5 364.5l622 82q0 -70 10.5 -126.5t32.5 -100.5t56.5 -76.5t82.5 -53.5t109.5 -31t138.5 -10q71 0 129 9.5t103.5 27.5t79 43.5t55.5 57.5t32.5 69.5t10.5 79.5q0 90 -40.5 151.5 t-109.5 104.5t-161 73t-195.5 57l-212.5 56t-212.5 69.5t-195.5 97.5t-161 141.5t-109.5 200.5t-40.5 274q0 177 72.5 325.5t211.5 256.5t342 168.5t464 60.5q163 0 294.5 -21.5t233.5 -63.5t176.5 -103t122.5 -141t71 -177t23 -211zM1028 2867l-467 447h446l226 -242 l217 242h446l-467 -447h-401z" />
<glyph unicode="&#x161;" horiz-adv-x="2036" d="M1315 1487q4 69 -15 116t-58.5 76t-98 41.5t-131.5 12.5q-69 0 -125 -14.5t-95.5 -41.5t-61 -66.5t-21.5 -90.5q0 -55 34 -92.5t92 -64t135.5 -45.5t165 -37.5t179.5 -40t179.5 -53t165 -77t135.5 -111t92 -155t34 -209.5q0 -101 -30 -191.5t-88 -166.5t-143.5 -136.5 t-196.5 -102.5t-247 -64.5t-294 -22.5q-232 0 -391.5 38t-252.5 114t-124 190.5t-7 267.5l492 41q-11 -74 8 -125t65.5 -83.5t119 -47t167.5 -14.5q52 0 96.5 6t81 18t64.5 30t47 41t29 51.5t10 62.5q0 61 -33.5 103t-91 71.5t-134 50.5t-162.5 40.5l-177 41t-177 52 t-162.5 73.5t-134 106.5t-91 150.5t-33.5 204q0 155 59.5 280.5t175 214.5t286 137t392.5 48q183 0 335 -36.5t258 -109.5t158.5 -183t35.5 -257zM807 2310l-467 541h446l226 -311l217 311h446l-467 -541h-401z" />
<glyph unicode="&#x162;" horiz-adv-x="1937" d="M659 0v2200h-643v516h1926l-41 -516h-619v-2200h-623zM700 -733l156 217h-176v393h573v-377l-250 -233h-303z" />
<glyph unicode="&#x163;" horiz-adv-x="1507" d="M1446 53q-74 -24 -152 -42t-157.5 -29.5t-157.5 -17t-152 -5.5q-96 0 -174.5 14.5t-140 45t-106.5 79.5t-74.5 117.5t-43.5 158.5t-14 204v1036h-274v450h274v578l598 70v-648h533l-49 -450h-484v-909q0 -65 8.5 -115t30 -83.5t57 -51t89.5 -17.5q31 0 65.5 2.5t72 7.5 t76 12.5t77.5 18.5zM577 -737l156 209h-176v372h573v-356l-250 -225h-303z" />
<glyph unicode="&#x164;" horiz-adv-x="1937" d="M659 0v2200h-643v516h1926l-41 -516h-619v-2200h-623zM787 2830l-467 447h446l226 -242l217 242h446l-467 -447h-401z" />
<glyph unicode="&#x165;" horiz-adv-x="1507" d="M1446 53q-74 -24 -152 -42t-157.5 -29.5t-157.5 -17t-152 -5.5q-96 0 -174.5 14.5t-140 45t-106.5 79.5t-74.5 117.5t-43.5 158.5t-14 204v1036h-274v450h274v578l598 70v-648h533l-49 -450h-484v-909q0 -65 8.5 -115t30 -83.5t57 -51t89.5 -17.5q31 0 65.5 2.5t72 7.5 t76 12.5t77.5 18.5zM1057 2332l98 561h430l-205 -561h-323z" />
<glyph unicode="&#x166;" horiz-adv-x="1937" d="M659 0v1073h-434v492h434v635h-643v516h1926l-41 -516h-619v-635h434v-492h-434v-1073h-623z" />
<glyph unicode="&#x167;" horiz-adv-x="1507" d="M1446 53q-74 -24 -152 -42t-157.5 -29.5t-157.5 -17t-152 -5.5q-96 0 -174.5 14.5t-140 45t-106.5 79.5t-74.5 117.5t-43.5 158.5t-14 204v286h-213v369h213v381h-274v450h274v578l598 70v-648h533l-49 -450h-484v-381h385v-369h-385v-159q0 -65 8.5 -115t30 -83.5 t57 -51t89.5 -17.5q31 0 65.5 2.5t72 7.5t76 12.5t77.5 18.5z" />
<glyph unicode="&#x168;" horiz-adv-x="2572" d="M2335 1061q0 -162 -24.5 -307t-77 -268.5t-135 -222.5t-199.5 -168t-270.5 -106.5t-346.5 -37.5q-179 0 -326 28.5t-263 87t-201.5 147t-142 208t-84 271t-27.5 335.5v1688h622v-1622q0 -110 10.5 -199.5t32.5 -160t56.5 -122.5t83 -86t112 -50.5t143.5 -16.5 q105 0 189 26.5t143 94.5t91 184.5t32 296.5v1655h582v-1655zM2044 3203q-37 -77 -88 -140.5t-115.5 -108.5t-142 -70t-166.5 -25q-53 0 -100.5 12t-91 30.5t-84 39.5t-80.5 39.5t-80.5 30.5t-83.5 12q-42 0 -79 -12t-70.5 -35.5t-63.5 -58t-57 -78.5l-209 176q37 75 89 138 t116 109t138.5 71.5t156.5 25.5q52 0 98.5 -12t90 -30.5t85 -39.5t83.5 -39.5t85 -30.5t90 -12q74 0 141 49t129 135z" />
<glyph unicode="&#x169;" horiz-adv-x="2228" d="M1511 0l-32 225q-78 -60 -165 -109t-177.5 -84t-181.5 -54t-177 -19q-153 0 -259.5 33.5t-172.5 109.5t-95.5 197.5t-29.5 298.5v1466h594v-1319q0 -92 12.5 -156t40.5 -103.5t73.5 -57.5t111.5 -18q48 0 96.5 12t95 32t88.5 45.5t76 53.5v1511h594v-2064h-492z M1872 2675q-37 -75 -88.5 -138.5t-114.5 -109t-137 -71t-155 -25.5q-57 0 -108 12t-97 30t-88.5 39.5t-83.5 39.5t-81.5 30t-82.5 12t-79 -12t-70.5 -35.5t-63.5 -57.5t-57 -79l-209 176q37 75 88.5 138.5t114.5 109t137 71t155 25.5q57 0 108 -12t97 -30.5t88.5 -39.5 l83.5 -39.5t81.5 -30.5t82.5 -12t79 12t70.5 35.5t63.5 58t57 79.5z" />
<glyph unicode="&#x16a;" horiz-adv-x="2572" d="M2335 1061q0 -162 -24.5 -307t-77 -268.5t-135 -222.5t-199.5 -168t-270.5 -106.5t-346.5 -37.5q-179 0 -326 28.5t-263 87t-201.5 147t-142 208t-84 271t-27.5 335.5v1688h622v-1622q0 -110 10.5 -199.5t32.5 -160t56.5 -122.5t83 -86t112 -50.5t143.5 -16.5 q105 0 189 26.5t143 94.5t91 184.5t32 296.5v1655h582v-1655zM701 2875v381h1184v-381h-1184z" />
<glyph unicode="&#x16b;" horiz-adv-x="2228" d="M1511 0l-32 225q-78 -60 -165 -109t-177.5 -84t-181.5 -54t-177 -19q-153 0 -259.5 33.5t-172.5 109.5t-95.5 197.5t-29.5 298.5v1466h594v-1319q0 -92 12.5 -156t40.5 -103.5t73.5 -57.5t111.5 -18q48 0 96.5 12t95 32t88.5 45.5t76 53.5v1511h594v-2064h-492zM561 2380 v381h1102v-381h-1102z" />
<glyph unicode="&#x16c;" horiz-adv-x="2572" d="M2335 1061q0 -162 -24.5 -307t-77 -268.5t-135 -222.5t-199.5 -168t-270.5 -106.5t-346.5 -37.5q-179 0 -326 28.5t-263 87t-201.5 147t-142 208t-84 271t-27.5 335.5v1688h622v-1622q0 -110 10.5 -199.5t32.5 -160t56.5 -122.5t83 -86t112 -50.5t143.5 -16.5 q105 0 189 26.5t143 94.5t91 184.5t32 296.5v1655h582v-1655zM1970 3400q-15 -119 -72.5 -219.5t-148.5 -173.5t-212 -114.5t-263 -41.5q-134 0 -249.5 38t-203.5 109t-145 172.5t-74 229.5h364q3 -54 27 -95.5t65.5 -69.5t99 -42.5t128.5 -14.5q67 0 123.5 12.5t97.5 39.5 t66.5 69t31.5 101h365z" />
<glyph unicode="&#x16d;" horiz-adv-x="2228" d="M1511 0l-32 225q-78 -60 -165 -109t-177.5 -84t-181.5 -54t-177 -19q-153 0 -259.5 33.5t-172.5 109.5t-95.5 197.5t-29.5 298.5v1466h594v-1319q0 -92 12.5 -156t40.5 -103.5t73.5 -57.5t111.5 -18q48 0 96.5 12t95 32t88.5 45.5t76 53.5v1511h594v-2064h-492z M1798 2851q-15 -119 -72.5 -219.5t-148.5 -173.5t-212 -114.5t-263 -41.5q-134 0 -249.5 38t-203.5 109t-145 172.5t-74 229.5h364q3 -54 27 -95.5t65.5 -69t99 -42t128.5 -14.5q67 0 123.5 12.5t97.5 39.5t66.5 68.5t31.5 100.5h365z" />
<glyph unicode="&#x16e;" horiz-adv-x="2572" d="M2335 1061q0 -162 -24.5 -307t-77 -268.5t-135 -222.5t-199.5 -168t-270.5 -106.5t-346.5 -37.5q-179 0 -326 28.5t-263 87t-201.5 147t-142 208t-84 271t-27.5 335.5v1688h622v-1622q0 -110 10.5 -199.5t32.5 -160t56.5 -122.5t83 -86t112 -50.5t143.5 -16.5 q105 0 189 26.5t143 94.5t91 184.5t32 296.5v1655h582v-1655zM1769 3187q0 -100 -31.5 -176.5t-93 -128.5t-151.5 -78.5t-207 -26.5q-112 0 -196.5 22.5t-140.5 69t-84.5 117.5t-28.5 168q0 100 31.5 176.5t93 128.5t151.5 78.5t207 26.5q112 0 196.5 -22.5t140.5 -69 t84.5 -117.5t28.5 -168zM1307 3006q76 0 109.5 42t33.5 122q0 81 -37 122.5t-115 41.5q-77 0 -110 -41.5t-33 -122.5q0 -80 37 -122t115 -42z" />
<glyph unicode="&#x16f;" horiz-adv-x="2228" d="M1511 0l-32 225q-78 -60 -165 -109t-177.5 -84t-181.5 -54t-177 -19q-153 0 -259.5 33.5t-172.5 109.5t-95.5 197.5t-29.5 298.5v1466h594v-1319q0 -92 12.5 -156t40.5 -103.5t73.5 -57.5t111.5 -18q48 0 96.5 12t95 32t88.5 45.5t76 53.5v1511h594v-2064h-492z M1581 2707q0 -103 -31.5 -181t-93 -130.5t-151.5 -79t-207 -26.5q-112 0 -196.5 22.5t-140.5 70t-84.5 120t-28.5 172.5q0 103 31.5 181t93 130.5t151.5 79t207 26.5q112 0 196.5 -22.5t140.5 -70t84.5 -120t28.5 -172.5zM1119 2519q77 0 110 42.5t33 129.5q0 86 -37.5 129 t-114.5 43t-110 -42.5t-33 -129.5q0 -86 37.5 -129t114.5 -43z" />
<glyph unicode="&#x170;" horiz-adv-x="2572" d="M2335 1061q0 -162 -24.5 -307t-77 -268.5t-135 -222.5t-199.5 -168t-270.5 -106.5t-346.5 -37.5q-179 0 -326 28.5t-263 87t-201.5 147t-142 208t-84 271t-27.5 335.5v1688h622v-1622q0 -110 10.5 -199.5t32.5 -160t56.5 -122.5t83 -86t112 -50.5t143.5 -16.5 q105 0 189 26.5t143 94.5t91 184.5t32 296.5v1655h582v-1655zM1475 2822l294 455h557l-487 -455h-364zM762 2822l213 455h549l-406 -455h-356z" />
<glyph unicode="&#x171;" horiz-adv-x="2228" d="M1511 0l-32 225q-78 -60 -165 -109t-177.5 -84t-181.5 -54t-177 -19q-153 0 -259.5 33.5t-172.5 109.5t-95.5 197.5t-29.5 298.5v1466h594v-1319q0 -92 12.5 -156t40.5 -103.5t73.5 -57.5t111.5 -18q48 0 96.5 12t95 32t88.5 45.5t76 53.5v1511h594v-2064h-492z M1250 2294l360 557h557l-553 -557h-364zM537 2294l278 557h549l-471 -557h-356z" />
<glyph unicode="&#x172;" horiz-adv-x="2572" d="M1823 -664q-83 -37 -176 -53t-209 -16q-88 0 -161.5 15t-127 51t-83.5 95t-30 146q0 57 16 108t48.5 97.5t80.5 89t113 82.5h-4q-182 0 -331 28.5t-266 87t-202.5 147t-141.5 209t-83.5 272.5t-27.5 337v1684h622v-1622q0 -110 10.5 -199.5t32.5 -160t56.5 -122.5t83 -86 t112 -50.5t143.5 -16.5q105 0 189 27t143 95t91 185.5t32 298.5v1651h582v-1655q0 -163 -22.5 -294t-61 -234.5t-88 -180.5t-103.5 -131q-42 -42 -80 -72t-74 -53t-71 -43l-69.5 -41.5t-70 -48.5t-73.5 -65q-62 -62 -88.5 -113t-26.5 -100q0 -38 22.5 -58t59.5 -20 q34 0 70.5 7t77.5 26z" />
<glyph unicode="&#x173;" horiz-adv-x="2228" d="M2003 0q-74 -48 -122 -90.5t-76.5 -81t-40 -74t-11.5 -69.5q0 -38 22.5 -58t59.5 -20q34 0 70.5 7t76.5 26l86 -304q-83 -37 -175.5 -53t-209.5 -16q-87 0 -161 15t-127 51t-83 95t-30 146q0 57 15.5 108.5t45.5 98t73.5 88t99.5 78.5l-37 278q-78 -60 -165 -109 t-177.5 -84t-181.5 -54t-177 -19q-153 0 -259.5 33.5t-172.5 109.5t-95.5 197.5t-29.5 298.5v1466h594v-1319q0 -92 12.5 -156t40.5 -103.5t73.5 -57.5t111.5 -18q48 0 96.5 12t95 32t88.5 45.5t76 53.5v1511h594v-2064z" />
<glyph unicode="&#x174;" horiz-adv-x="3416" d="M2105 0l-413 1872l-426 -1872h-619q-191 664 -332.5 1344t-248.5 1372h598l73 -467.5l78.5 -468.5l84 -470.5l91.5 -473.5h13l409 1880h684l385 -1885h21l85 460.5l79.5 468.5l75 475.5l71.5 480.5h537l-122 -684.5t-134.5 -681.5t-153 -677.5t-176.5 -672.5h-660z M1971 2830l-226 242l-217 -242h-446l467 447h401l467 -447h-446z" />
<glyph unicode="&#x175;" horiz-adv-x="3117" d="M1896 0l-323 1270l-21 147h-4l-20 -147l-328 -1270h-532q-91 252 -172 506l-155.5 511l-144 518.5l-135.5 528.5h644q21 -147 52.5 -306t68.5 -322t78.5 -327.5l82.5 -322.5l21 -131l20 131l311 1278h603l303 -1282l20 -127l21 127q46 189 81 358t63.5 326t52 304.5 t44.5 293.5h533q-48 -267 -111 -528.5t-138.5 -518.5t-162.5 -511t-182 -506h-570zM1860 2310l-226 311l-217 -311h-446l467 541h401l467 -541h-446z" />
<glyph unicode="&#x176;" horiz-adv-x="2138" d="M733 0v1147q-218 396 -411.5 785.5t-362.5 783.5h713q92 -246 197 -492.5t225 -494.5h12l134.5 260l119.5 245.5l110 239.5l107 242h602l-189 -395l-195.5 -381.5l-209 -381.5l-229.5 -395v-1163h-623zM1303 2830l-226 242l-217 -242h-446l467 447h401l467 -447h-446z " />
<glyph unicode="&#x177;" horiz-adv-x="1970" d="M324 -459q84 55 144.5 119t99.5 135t57 149t18 162q0 57 -29 160.5t-77.5 244.5l-110.5 315l-128 372.5t-131 417t-118 448.5h639q32 -163 76.5 -343t94.5 -364l102 -365l100 -345v0q51 163 94.5 343.5t80 365t65.5 365t51 343.5h569l-139 -576t-130.5 -486.5t-124 -407 t-118.5 -336.5q-56 -145 -112 -263.5t-112.5 -215t-114.5 -173t-119.5 -138.5t-126.5 -112t-136 -93zM1246 2310l-226 311l-217 -311h-446l467 541h401l467 -541h-446z" />
<glyph unicode="&#x178;" horiz-adv-x="2138" d="M733 0v1147q-218 396 -411.5 785.5t-362.5 783.5h713q92 -246 197 -492.5t225 -494.5h12l134.5 260l119.5 245.5l110 239.5l107 242h602l-189 -395l-195.5 -381.5l-209 -381.5l-229.5 -395v-1163h-623zM1241 2851v426h442v-426h-442zM512 2851v426h442v-426h-442z" />
<glyph unicode="&#x179;" horiz-adv-x="2171" d="M82 0v414l1126 1786h-1061l46 516h1802v-422l-1123 -1778h1196l-40 -516h-1946zM901 2851l311 426h557l-504 -426h-364z" />
<glyph unicode="&#x17a;" horiz-adv-x="1745" d="M74 0v410l848 1228h-824l41 426h1475v-368l-877 -1262h934l-37 -434h-1560zM750 2294l319 557h549l-512 -557h-356z" />
<glyph unicode="&#x17b;" horiz-adv-x="2171" d="M82 0v414l1126 1786h-1061l46 516h1802v-422l-1123 -1778h1196l-40 -516h-1946zM819 2834v484h631v-484h-631z" />
<glyph unicode="&#x17c;" horiz-adv-x="1745" d="M74 0v410l848 1228h-824l41 426h1475v-368l-877 -1262h934l-37 -434h-1560zM615 2339v512h610v-512h-610z" />
<glyph unicode="&#x17d;" horiz-adv-x="2171" d="M82 0v414l1126 1786h-1061l46 516h1802v-422l-1123 -1778h1196l-40 -516h-1946zM959 2830l-467 447h446l226 -242l217 242h446l-467 -447h-401z" />
<glyph unicode="&#x17e;" horiz-adv-x="1745" d="M74 0v410l848 1228h-824l41 426h1475v-368l-877 -1262h934l-37 -434h-1560zM738 2310l-467 541h446l226 -311l217 311h446l-467 -541h-401z" />
<glyph unicode="&#x192;" horiz-adv-x="1815" d="M-37 -258q28 -12 54.5 -21t52.5 -14t53.5 -7.5t56.5 -2.5q43 0 73.5 14.5t51 42.5t31.5 69t16 95l123 1442h-303l37 450h303l33 353q10 108 30 203t55.5 173.5t90 140t135 104t189.5 65t253 22.5q100 0 194 -15t171 -46l-127 -414q-28 12 -54.5 21t-52.5 14t-53.5 7.5 t-56.5 2.5q-43 0 -73.5 -14.5t-51 -42.5t-32 -69t-15.5 -95l-37 -410h389l-82 -450h-344l-119 -1385q-9 -108 -28 -203t-55 -173.5t-91 -140t-135.5 -104t-190 -65t-253.5 -22.5q-99 0 -193 15t-172 46z" />
<glyph unicode="&#x218;" horiz-adv-x="2388" d="M1540 1970q0 78 -21 136t-66 96t-116.5 56.5t-173.5 18.5q-89 0 -157 -20t-114 -54.5t-69.5 -81t-23.5 -98.5q0 -78 40.5 -132t110.5 -93.5t163 -69t197.5 -57.5l215.5 -60t215.5 -76t197.5 -105t163 -148t110.5 -204.5t40.5 -274.5q0 -124 -34 -235.5t-100.5 -206 t-164 -170.5t-225 -129.5t-284 -82t-339.5 -28.5q-258 0 -445.5 46.5t-310 145t-181 251t-58.5 364.5l622 82q0 -70 10.5 -126.5t32.5 -100.5t56.5 -76.5t82.5 -53.5t109.5 -31t138.5 -10q71 0 129 9.5t103.5 27.5t79 43.5t55.5 57.5t32.5 69.5t10.5 79.5q0 90 -40.5 151.5 t-109.5 104.5t-161 73t-195.5 57l-212.5 56t-212.5 69.5t-195.5 97.5t-161 141.5t-109.5 200.5t-40.5 274q0 177 72.5 325.5t211.5 256.5t342 168.5t464 60.5q163 0 294.5 -21.5t233.5 -63.5t176.5 -103t122.5 -141t71 -177t23 -211zM938 -737l156 209h-176v372h573v-356 l-250 -225h-303z" />
<glyph unicode="&#x219;" horiz-adv-x="2036" d="M1315 1487q4 69 -15 116t-58.5 76t-98 41.5t-131.5 12.5q-69 0 -125 -14.5t-95.5 -41.5t-61 -66.5t-21.5 -90.5q0 -55 34 -92.5t92 -64t135.5 -45.5t165 -37.5t179.5 -40t179.5 -53t165 -77t135.5 -111t92 -155t34 -209.5q0 -101 -30 -191.5t-88 -166.5t-143.5 -136.5 t-196.5 -102.5t-247 -64.5t-294 -22.5q-232 0 -391.5 38t-252.5 114t-124 190.5t-7 267.5l492 41q-11 -74 8 -125t65.5 -83.5t119 -47t167.5 -14.5q52 0 96.5 6t81 18t64.5 30t47 41t29 51.5t10 62.5q0 61 -33.5 103t-91 71.5t-134 50.5t-162.5 40.5l-177 41t-177 52 t-162.5 73.5t-134 106.5t-91 150.5t-33.5 204q0 155 59.5 280.5t175 214.5t286 137t392.5 48q183 0 335 -36.5t258 -109.5t158.5 -183t35.5 -257zM766 -737l156 209h-176v372h573v-356l-250 -225h-303z" />
<glyph unicode="&#x21a;" horiz-adv-x="1937" d="M659 0v2200h-643v516h1926l-41 -516h-619v-2200h-623zM700 -733l156 217h-176v393h573v-377l-250 -233h-303z" />
<glyph unicode="&#x21b;" horiz-adv-x="1507" d="M1446 53q-74 -24 -152 -42t-157.5 -29.5t-157.5 -17t-152 -5.5q-96 0 -174.5 14.5t-140 45t-106.5 79.5t-74.5 117.5t-43.5 158.5t-14 204v1036h-274v450h274v578l598 70v-648h533l-49 -450h-484v-909q0 -65 8.5 -115t30 -83.5t57 -51t89.5 -17.5q31 0 65.5 2.5t72 7.5 t76 12.5t77.5 18.5zM577 -737l156 209h-176v372h573v-356l-250 -225h-303z" />
<glyph unicode="&#x237;" horiz-adv-x="1044" d="M-70 -324q75 36 130.5 78.5t92 95t54.5 117t18 144.5v1953h594v-1880q0 -209 -44 -360.5t-129 -259.5t-210.5 -180t-288.5 -121z" />
<glyph unicode="&#x2c6;" horiz-adv-x="1745" d="M1094 2310l-226 311l-217 -311h-446l467 541h401l467 -541h-446z" />
<glyph unicode="&#x2c7;" horiz-adv-x="1745" d="M672 2310l-467 541h446l226 -311l217 311h446l-467 -541h-401z" />
<glyph unicode="&#x2d8;" horiz-adv-x="1778" d="M1573 2851q-15 -119 -72.5 -219.5t-148.5 -173.5t-212 -114.5t-263 -41.5q-134 0 -249.5 38t-203.5 109t-145 172.5t-74 229.5h364q3 -54 27 -95.5t65.5 -69t99 -42t128.5 -14.5q67 0 123.5 12.5t97.5 39.5t66.5 68.5t31.5 100.5h365z" />
<glyph unicode="&#x2d9;" horiz-adv-x="1020" d="M205 2339v512h610v-512h-610z" />
<glyph unicode="&#x2da;" horiz-adv-x="1319" d="M1126 2707q0 -103 -31.5 -181t-93 -130.5t-151.5 -79t-207 -26.5q-112 0 -196.5 22.5t-140.5 70t-84.5 120t-28.5 172.5q0 103 31.5 181t93 130.5t151.5 79t207 26.5q112 0 196.5 -22.5t140.5 -70t84.5 -120t28.5 -172.5zM664 2519q77 0 110 42.5t33 129.5 q0 86 -37.5 129t-114.5 43t-110 -42.5t-33 -129.5q0 -86 37.5 -129t114.5 -43z" />
<glyph unicode="&#x2db;" horiz-adv-x="1196" d="M991 -664q-83 -37 -175.5 -53t-209.5 -16q-87 0 -161 15t-127 51t-83 95t-30 146q0 63 20 121.5t60 111.5t101 101.5t142 91.5h398q-74 -48 -122 -90.5t-76.5 -81t-40 -74t-11.5 -69.5q0 -38 22.5 -58t59.5 -20q34 0 70.5 7t76.5 26z" />
<glyph unicode="&#x2dc;" horiz-adv-x="1921" d="M1720 2675q-37 -75 -88.5 -138.5t-114.5 -109t-137 -71t-155 -25.5q-57 0 -108 12t-97 30t-88.5 39.5t-83.5 39.5t-81.5 30t-82.5 12t-79 -12t-70.5 -35.5t-63.5 -57.5t-57 -79l-209 176q37 75 88.5 138.5t114.5 109t137 71t155 25.5q57 0 108 -12t97 -30.5t88.5 -39.5 l83.5 -39.5t81.5 -30.5t82.5 -12t79 12t70.5 35.5t63.5 58t57 79.5z" />
<glyph unicode="&#x2dd;" horiz-adv-x="2040" d="M918 2294l360 557h557l-553 -557h-364zM205 2294l278 557h549l-471 -557h-356z" />
<glyph unicode="&#x312;" horiz-adv-x="983" d="M205 2306v377l250 233h303l-156 -217h176v-393h-573z" />
<glyph unicode="&#x326;" horiz-adv-x="983" d="M225 -733l156 217h-176v393h573v-377l-250 -233h-303z" />
<glyph unicode="&#x394;" horiz-adv-x="2454" d="M4 0l1004 2757h438l1008 -2757h-2450zM1204 1810l-479 -1339h922z" />
<glyph unicode="&#x2206;" horiz-adv-x="2454" d="M4 0l1004 2757h438l1008 -2757h-2450zM1204 1810l-479 -1339h922z" />
<glyph unicode="&#x3a9;" horiz-adv-x="2810" d="M1638 0v528q74 81 130 163.5t93.5 176t56.5 203t19 244.5q0 160 -15 292.5t-45.5 238t-75.5 184t-106 131t-137.5 78.5t-168.5 26q-86 0 -157.5 -28.5t-128.5 -83.5t-99.5 -134.5t-70.5 -181.5t-42 -225t-14 -264q0 -90 9 -169.5t26 -150.5t42.5 -135t59.5 -122.5 t75.5 -113.5t90.5 -108v-549h-1057v487h479q-39 33 -78 89.5t-74 129.5t-66 158.5t-53 175t-35 180t-13 173.5q1 178 28 349t83 323.5t143.5 280.5t210.5 221.5t282 145.5t359 52q197 0 359 -52t289.5 -145.5t221 -223t155 -283.5t91.5 -327t30 -354q0 -83 -13 -173 t-35 -179t-53 -174t-66 -156.5t-74 -126t-78 -84.5h475v-487h-1053z" />
<glyph unicode="&#x2126;" horiz-adv-x="2810" d="M1638 0v528q74 81 130 163.5t93.5 176t56.5 203t19 244.5q0 160 -15 292.5t-45.5 238t-75.5 184t-106 131t-137.5 78.5t-168.5 26q-86 0 -157.5 -28.5t-128.5 -83.5t-99.5 -134.5t-70.5 -181.5t-42 -225t-14 -264q0 -90 9 -169.5t26 -150.5t42.5 -135t59.5 -122.5 t75.5 -113.5t90.5 -108v-549h-1057v487h479q-39 33 -78 89.5t-74 129.5t-66 158.5t-53 175t-35 180t-13 173.5q1 178 28 349t83 323.5t143.5 280.5t210.5 221.5t282 145.5t359 52q197 0 359 -52t289.5 -145.5t221 -223t155 -283.5t91.5 -327t30 -354q0 -83 -13 -173 t-35 -179t-53 -174t-66 -156.5t-74 -126t-78 -84.5h475v-487h-1053z" />
<glyph unicode="&#x3c0;" horiz-adv-x="2642" d="M2560 16q-45 -12 -93.5 -22.5t-100.5 -18t-106.5 -12t-109.5 -4.5q-170 0 -290 31.5t-195.5 106t-110 198t-34.5 307.5v963h-562v-1565h-593v1565h-328v499h2445v-499h-368v-820q0 -101 9 -165t34 -100t69 -49t113 -13q26 0 51 1.5t48.5 4t45 6t39.5 8.5z" />
<glyph unicode="&#x1e02;" horiz-adv-x="2343" d="M246 0v2716h979q262 0 439 -45.5t284 -132.5t152.5 -214.5t45.5 -291.5q0 -103 -26.5 -197.5t-82 -172t-140 -132.5t-201.5 -80v-8q88 -4 162 -27.5t134 -62.5t106 -92t76.5 -117t46 -137.5t15.5 -153.5q0 -98 -24 -199.5t-76.5 -196t-135.5 -178t-200.5 -145 t-271.5 -97.5t-348 -36h-934zM1171 1626q61 0 109.5 11t85 31.5t62 48.5t41.5 62.5t23 74.5t7 83q0 42 -7 80.5t-23 71.5t-42.5 60.5t-66 46.5t-93.5 29.5t-124 10.5h-283v-610h311zM1176 483q104 0 179 26t123.5 70.5t71.5 104t23 127.5q0 55 -10.5 102.5t-32 86 t-53.5 68.5t-74.5 50t-96.5 30.5t-118 10.5h-328v-676h316zM811 2834v484h631v-484h-631z" />
<glyph unicode="&#x1e03;" horiz-adv-x="2216" d="M225 2851h594v-901q51 32 111 60.5t129.5 49.5t148.5 33t168 12q175 0 309 -60.5t224.5 -181t137 -300.5t46.5 -420q0 -183 -29.5 -342.5t-90.5 -292t-155.5 -236t-224.5 -175t-297 -109t-374 -37.5q-95 0 -193.5 6t-190.5 16.5t-172.5 24.5t-140.5 31v2822zM819 377 q20 -9 42 -16t46.5 -11.5t50.5 -7t54 -2.5q100 0 183.5 45t143.5 132t93.5 215.5t33.5 295.5q0 187 -21.5 313t-62.5 202t-100.5 108t-134.5 32q-40 0 -82 -7.5t-83.5 -22t-82.5 -36t-80 -48.5v-1192zM1065 2339v512h610v-512h-610z" />
<glyph unicode="&#x1e0a;" horiz-adv-x="2445" d="M246 0v2716q101 0 195.5 0.5t192 1.5t203 1.5t228.5 0.5q198 0 368.5 -31.5t311 -97.5t249.5 -168t184 -243t114 -323t39 -407q0 -217 -35 -409t-107 -353t-183 -288.5t-264 -216.5t-348 -136t-436 -47h-712zM1016 508q113 0 207 24.5t168 73t129 122t91 172t54 221.5 t18 272q0 128 -14.5 238.5t-46.5 201.5t-83.5 161.5t-125.5 119t-172.5 73.5t-224.5 25h-148v-1704h148zM832 2834v484h631v-484h-631z" />
<glyph unicode="&#x1e0b;" horiz-adv-x="2216" d="M1499 0l-33 213q-69 -55 -144 -101.5t-154 -80.5t-161.5 -53t-166.5 -19q-175 0 -309 60.5t-224.5 181.5t-137 301t-46.5 420q0 229 43.5 406t120 308.5t180 221t224.5 144.5t254 79t267 24q25 0 51 -1.5t51 -3.5t46.5 -5t36.5 -6v762h594v-2851h-492zM1397 1683 q-18 9 -41.5 17t-49 13t-51.5 8t-51 3q-100 0 -183.5 -44.5t-143.5 -131.5t-93.5 -214.5t-33.5 -293.5q0 -170 18 -294t54 -204t89.5 -118.5t124.5 -38.5q52 0 102.5 14t96.5 36.5t87 51.5t75 58v1138zM598 2339v512h610v-512h-610z" />
<glyph unicode="&#x1e1e;" horiz-adv-x="1876" d="M246 0v2716h1650l-57 -508h-971v-643h779v-492h-779v-1073h-622zM778 2834v484h631v-484h-631z" />
<glyph unicode="&#x1e1f;" horiz-adv-x="1241" d="M283 0v1614h-283v450h283v103q0 108 11 203t40 173.5t78.5 140t126.5 104t184 65t252 22.5q99 0 195.5 -15t177.5 -46l-95 -414q-27 12 -54 21t-54.5 14t-55.5 7.5t-57 2.5q-43 0 -72 -14.5t-46.5 -42.5t-25 -69t-7.5 -95v-160h389l-45 -450h-344v-1614h-598zM590 2981 v484h631v-484h-631z" />
<glyph unicode="&#x1e40;" horiz-adv-x="3371" d="M2535 0q0 267 -4 533t-11.5 527t-17 516t-20.5 501h-12l-574 -2077h-540l-529 2077h-8q-14 -248 -26.5 -503.5t-22 -516.5t-15 -526t-5.5 -531h-541q12 679 45.5 1359.5t101.5 1356.5h922l418 -1684h12l471 1684h823q32 -338 60 -676t49 -677.5t34.5 -680t16.5 -682.5 h-627zM1368 2834v484h631v-484h-631z" />
<glyph unicode="&#x1e41;" horiz-adv-x="3367" d="M2552 0v1323q0 91 -10.5 154t-36.5 102.5t-70.5 57.5t-112.5 18q-46 0 -95 -11.5t-94.5 -29.5t-85 -40.5t-65.5 -45.5v-1528h-593v1323q0 91 -10.5 154t-37 102.5t-71 57.5t-111.5 18q-46 0 -95 -11.5t-95 -29.5t-85 -40.5t-65 -45.5v-1528h-594v2064h504l33 -237 q80 66 171.5 117.5t184.5 87.5t183.5 54.5t168.5 18.5q88 0 160 -17t129 -51.5t98.5 -87t67.5 -122.5q80 66 171.5 117.5t184.5 87.5t184 54.5t169 18.5q114 0 208 -32t161.5 -105.5t105 -193.5t37.5 -295v-1479h-594zM1376 2339v512h610v-512h-610z" />
<glyph unicode="&#x1e56;" horiz-adv-x="2183" d="M246 0v2716h889q244 0 425.5 -51t301.5 -158t179.5 -272t59.5 -392q0 -139 -33 -265t-99 -233t-163.5 -193.5t-226 -147.5t-288.5 -94t-349 -33h-74v-877h-622zM1012 1356q118 0 201.5 31t136 89t76.5 140.5t24 185.5q0 105 -22 185.5t-69 136t-120 84t-174 28.5h-197 v-880h144zM774 2834v484h631v-484h-631z" />
<glyph unicode="&#x1e57;" horiz-adv-x="2216" d="M225 -696v2760h492l33 -213q69 55 144 102t154 80.5t161.5 52.5t166.5 19q175 0 309 -60.5t224.5 -181t137 -300.5t46.5 -420q0 -230 -43.5 -407.5t-120 -309.5t-181 -223t-226.5 -147t-256.5 -80.5t-270.5 -24.5q-32 0 -57.5 0.5t-46 2t-38 4t-34.5 5.5v-659h-594z M819 385q23 -11 49.5 -19.5t52 -14t49.5 -8.5t42 -3q100 0 183.5 44.5t143.5 131.5t93.5 214.5t33.5 293.5q0 171 -18.5 294.5t-54.5 203.5t-89.5 118.5t-123.5 38.5q-53 0 -103 -14t-96 -36.5t-87 -51t-75 -57.5v-1135zM803 2339v512h610v-512h-610z" />
<glyph unicode="&#x1e60;" horiz-adv-x="2388" d="M1540 1970q0 78 -21 136t-66 96t-116.5 56.5t-173.5 18.5q-89 0 -157 -20t-114 -54.5t-69.5 -81t-23.5 -98.5q0 -78 40.5 -132t110.5 -93.5t163 -69t197.5 -57.5l215.5 -60t215.5 -76t197.5 -105t163 -148t110.5 -204.5t40.5 -274.5q0 -124 -34 -235.5t-100.5 -206 t-164 -170.5t-225 -129.5t-284 -82t-339.5 -28.5q-258 0 -445.5 46.5t-310 145t-181 251t-58.5 364.5l622 82q0 -70 10.5 -126.5t32.5 -100.5t56.5 -76.5t82.5 -53.5t109.5 -31t138.5 -10q71 0 129 9.5t103.5 27.5t79 43.5t55.5 57.5t32.5 69.5t10.5 79.5q0 90 -40.5 151.5 t-109.5 104.5t-161 73t-195.5 57l-212.5 56t-212.5 69.5t-195.5 97.5t-161 141.5t-109.5 200.5t-40.5 274q0 177 72.5 325.5t211.5 256.5t342 168.5t464 60.5q163 0 294.5 -21.5t233.5 -63.5t176.5 -103t122.5 -141t71 -177t23 -211zM864 2875v484h631v-484h-631z" />
<glyph unicode="&#x1e61;" horiz-adv-x="2036" d="M1315 1487q4 69 -15 116t-58.5 76t-98 41.5t-131.5 12.5q-69 0 -125 -14.5t-95.5 -41.5t-61 -66.5t-21.5 -90.5q0 -55 34 -92.5t92 -64t135.5 -45.5t165 -37.5t179.5 -40t179.5 -53t165 -77t135.5 -111t92 -155t34 -209.5q0 -101 -30 -191.5t-88 -166.5t-143.5 -136.5 t-196.5 -102.5t-247 -64.5t-294 -22.5q-232 0 -391.5 38t-252.5 114t-124 190.5t-7 267.5l492 41q-11 -74 8 -125t65.5 -83.5t119 -47t167.5 -14.5q52 0 96.5 6t81 18t64.5 30t47 41t29 51.5t10 62.5q0 61 -33.5 103t-91 71.5t-134 50.5t-162.5 40.5l-177 41t-177 52 t-162.5 73.5t-134 106.5t-91 150.5t-33.5 204q0 155 59.5 280.5t175 214.5t286 137t392.5 48q183 0 335 -36.5t258 -109.5t158.5 -183t35.5 -257zM713 2339v512h610v-512h-610z" />
<glyph unicode="&#x1e6a;" horiz-adv-x="1937" d="M659 0v2200h-643v516h1926l-41 -516h-619v-2200h-623zM651 2834v484h631v-484h-631z" />
<glyph unicode="&#x1e6b;" horiz-adv-x="1507" d="M1446 53q-74 -24 -152 -42t-157.5 -29.5t-157.5 -17t-152 -5.5q-96 0 -174.5 14.5t-140 45t-106.5 79.5t-74.5 117.5t-43.5 158.5t-14 204v1036h-274v450h274v578l598 70v-648h533l-49 -450h-484v-909q0 -65 8.5 -115t30 -83.5t57 -51t89.5 -17.5q31 0 65.5 2.5t72 7.5 t76 12.5t77.5 18.5zM271 2912v512h610v-512h-610z" />
<glyph unicode="&#x1e80;" horiz-adv-x="3416" d="M2105 0l-413 1872l-426 -1872h-619q-191 664 -332.5 1344t-248.5 1372h598l73 -467.5l78.5 -468.5l84 -470.5l91.5 -473.5h13l409 1880h684l385 -1885h21l85 460.5l79.5 468.5l75 475.5l71.5 480.5h537l-122 -684.5t-134.5 -681.5t-153 -677.5t-176.5 -672.5h-660z M1643 2851l-504 426h557l311 -426h-364z" />
<glyph unicode="&#x1e81;" horiz-adv-x="3117" d="M1896 0l-323 1270l-21 147h-4l-20 -147l-328 -1270h-532q-91 252 -172 506l-155.5 511l-144 518.5l-135.5 528.5h644q21 -147 52.5 -306t68.5 -322t78.5 -327.5l82.5 -322.5l21 -131l20 131l311 1278h603l303 -1282l20 -127l21 127q46 189 81 358t63.5 326t52 304.5 t44.5 293.5h533q-48 -267 -111 -528.5t-138.5 -518.5t-162.5 -511t-182 -506h-570zM1553 2294l-512 557h549l319 -557h-356z" />
<glyph unicode="&#x1e82;" horiz-adv-x="3416" d="M2105 0l-413 1872l-426 -1872h-619q-191 664 -332.5 1344t-248.5 1372h598l73 -467.5l78.5 -468.5l84 -470.5l91.5 -473.5h13l409 1880h684l385 -1885h21l85 460.5l79.5 468.5l75 475.5l71.5 480.5h537l-122 -684.5t-134.5 -681.5t-153 -677.5t-176.5 -672.5h-660z M1499 2851l311 426h557l-504 -426h-364z" />
<glyph unicode="&#x1e83;" horiz-adv-x="3117" d="M1896 0l-323 1270l-21 147h-4l-20 -147l-328 -1270h-532q-91 252 -172 506l-155.5 511l-144 518.5l-135.5 528.5h644q21 -147 52.5 -306t68.5 -322t78.5 -327.5l82.5 -322.5l21 -131l20 131l311 1278h603l303 -1282l20 -127l21 127q46 189 81 358t63.5 326t52 304.5 t44.5 293.5h533q-48 -267 -111 -528.5t-138.5 -518.5t-162.5 -511t-182 -506h-570zM1368 2294l319 557h549l-512 -557h-356z" />
<glyph unicode="&#x1e84;" horiz-adv-x="3416" d="M2105 0l-413 1872l-426 -1872h-619q-191 664 -332.5 1344t-248.5 1372h598l73 -467.5l78.5 -468.5l84 -470.5l91.5 -473.5h13l409 1880h684l385 -1885h21l85 460.5l79.5 468.5l75 475.5l71.5 480.5h537l-122 -684.5t-134.5 -681.5t-153 -677.5t-176.5 -672.5h-660z M1880 2851v426h442v-426h-442zM1151 2851v426h442v-426h-442z" />
<glyph unicode="&#x1e85;" horiz-adv-x="3117" d="M1896 0l-323 1270l-21 147h-4l-20 -147l-328 -1270h-532q-91 252 -172 506l-155.5 511l-144 518.5l-135.5 528.5h644q21 -147 52.5 -306t68.5 -322t78.5 -327.5l82.5 -322.5l21 -131l20 131l311 1278h603l303 -1282l20 -127l21 127q46 189 81 358t63.5 326t52 304.5 t44.5 293.5h533q-48 -267 -111 -528.5t-138.5 -518.5t-162.5 -511t-182 -506h-570zM1794 2380v426h442v-426h-442zM1065 2380v426h442v-426h-442z" />
<glyph unicode="&#x1ef2;" horiz-adv-x="2138" d="M733 0v1147q-218 396 -411.5 785.5t-362.5 783.5h713q92 -246 197 -492.5t225 -494.5h12l134.5 260l119.5 245.5l110 239.5l107 242h602l-189 -395l-195.5 -381.5l-209 -381.5l-229.5 -395v-1163h-623zM971 2851l-504 426h557l311 -426h-364z" />
<glyph unicode="&#x1ef3;" horiz-adv-x="1970" d="M324 -459q84 55 144.5 119t99.5 135t57 149t18 162q0 57 -29 160.5t-77.5 244.5l-110.5 315l-128 372.5t-131 417t-118 448.5h639q32 -163 76.5 -343t94.5 -364l102 -365l100 -345v0q51 163 94.5 343.5t80 365t65.5 365t51 343.5h569l-139 -576t-130.5 -486.5t-124 -407 t-118.5 -336.5q-56 -145 -112 -263.5t-112.5 -215t-114.5 -173t-119.5 -138.5t-126.5 -112t-136 -93zM889 2294l-512 557h549l319 -557h-356z" />
<glyph unicode="&#x2000;" horiz-adv-x="1782" />
<glyph unicode="&#x2001;" horiz-adv-x="3564" />
<glyph unicode="&#x2002;" horiz-adv-x="1782" />
<glyph unicode="&#x2003;" horiz-adv-x="3564" />
<glyph unicode="&#x2004;" horiz-adv-x="1188" />
<glyph unicode="&#x2005;" horiz-adv-x="891" />
<glyph unicode="&#x2006;" horiz-adv-x="594" />
<glyph unicode="&#x2007;" horiz-adv-x="594" />
<glyph unicode="&#x2008;" horiz-adv-x="445" />
<glyph unicode="&#x2009;" horiz-adv-x="712" />
<glyph unicode="&#x200a;" horiz-adv-x="198" />
<glyph unicode="&#x2010;" horiz-adv-x="950" d="M0 901v447h930v-447h-930z" />
<glyph unicode="&#x2011;" horiz-adv-x="950" d="M0 901v447h930v-447h-930z" />
<glyph unicode="&#x2012;" horiz-adv-x="950" d="M0 901v447h930v-447h-930z" />
<glyph unicode="&#x2013;" horiz-adv-x="2048" d="M0 1028v479h2052v-479h-2052z" />
<glyph unicode="&#x2014;" horiz-adv-x="4096" d="M410 1028v479h3276v-479h-3276z" />
<glyph unicode="&#x2015;" horiz-adv-x="4096" d="M410 1028v479h3276v-479h-3276z" />
<glyph unicode="&#x2018;" horiz-adv-x="1044" d="M225 1749v549l365 688l201 -94l-242 -557h270v-586h-594z" />
<glyph unicode="&#x2019;" horiz-adv-x="1044" d="M254 1573l242 557h-271v586h594v-549l-364 -688z" />
<glyph unicode="&#x201a;" horiz-adv-x="1044" d="M254 -557l242 557h-271v586h594v-549l-364 -688z" />
<glyph unicode="&#x201c;" horiz-adv-x="1819" d="M225 1761v541l353 672l200 -95l-237 -544h258v-574h-574zM1020 1761v541l352 672l201 -95l-238 -544h258v-574h-573z" />
<glyph unicode="&#x201d;" horiz-adv-x="1819" d="M1040 1597l238 545h-258v574h573v-541l-352 -672zM246 1597l237 545h-258v574h574v-541l-353 -672z" />
<glyph unicode="&#x201e;" horiz-adv-x="1819" d="M1040 -545l238 545h-258v573h573v-540l-352 -672zM246 -545l237 545h-258v573h574v-540l-353 -672z" />
<glyph unicode="&#x2020;" horiz-adv-x="2048" d="M868 582l-90 958l74 492l-619 -17v299l619 -16l-74 553h492l-74 -553l619 16v-299l-619 17l74 -492l-94 -958h-308z" />
<glyph unicode="&#x2021;" horiz-adv-x="2048" d="M1196 836l74 -553h-492l74 553l-619 -17v299l619 -16l-74 467l74 463l-619 -17v299l619 -16l-74 553h492l-74 -553l619 16v-299l-619 17l74 -463l-74 -467l619 16v-299z" />
<glyph unicode="&#x2022;" horiz-adv-x="2441" d="M1221 696q-96 0 -185.5 25t-167.5 71t-142 110t-110 142t-71 167.5t-25 185.5t25 185.5t71 167t110 141.5t142 110t167.5 71t185.5 25t185.5 -25t167 -71t141.5 -110t110 -141.5t71 -167t25 -185.5t-25 -185.5t-71 -167.5t-110 -142t-141.5 -110t-167 -71t-185.5 -25z " />
<glyph unicode="&#x2023;" horiz-adv-x="2908" d="M451 -41v2703l2310 -1351z" />
<glyph unicode="&#x2026;" horiz-adv-x="3629" d="M2753 0v655h630v-655h-630zM1499 0v655h631v-655h-631zM246 0v655h631v-655h-631z" />
<glyph unicode="&#x202f;" horiz-adv-x="712" />
<glyph unicode="&#x2030;" horiz-adv-x="4342" d="M3617 -49q-175 0 -291 52t-185 148t-97.5 232t-28.5 305q0 166 37.5 304t115 237t196 154t281.5 55q175 0 291 -52t185.5 -148t98 -232.5t28.5 -305.5q0 -166 -37.5 -303.5t-115 -236.5t-196.5 -154t-282 -55zM2220 -49q-175 0 -291 52t-185 148t-97.5 232t-28.5 305 q0 166 37.5 304t115 237t196.5 154t282 55q175 0 291 -52t185 -148t97.5 -232.5t28.5 -305.5q0 -166 -37.5 -303.5t-115 -236.5t-196.5 -154t-282 -55zM524 0l1499 2716h377l-1491 -2716h-385zM696 1278q-175 0 -291 52t-185 148t-97.5 232t-28.5 305q0 166 37.5 304 t115 237t196.5 154t282 55q175 0 291 -52t185 -148t97.5 -232t28.5 -305q0 -166 -37.5 -304t-115 -237t-196.5 -154t-282 -55zM3633 254q60 0 99 28t61.5 82.5t31.5 135t9 184.5q0 114 -9 198.5t-32 140.5t-63 84t-101 28q-60 0 -99 -28t-61.5 -82.5t-31.5 -135t-9 -184.5 q0 -114 9 -198.5t32 -141t62.5 -84t101.5 -27.5zM2236 254q60 0 99 28t61.5 82.5t31.5 135t9 184.5q0 114 -9 198.5t-32 140.5t-63 84t-101 28q-60 0 -98.5 -28t-61 -82.5t-31.5 -135t-9 -184.5q0 -114 9 -198.5t32 -141t62.5 -84t100.5 -27.5zM713 1581q60 0 98.5 28 t61 82.5t31.5 135t9 184.5q0 114 -9 198.5t-32 140.5t-62.5 84t-100.5 28q-60 0 -99 -28t-61.5 -82.5t-31.5 -135t-9 -184.5q0 -114 9 -198.5t32 -140.5t62.5 -84t101.5 -28z" />
<glyph unicode="&#x2039;" horiz-adv-x="1057" d="M602 496l-369 671l369 688h213l-213 -688l213 -671h-213z" />
<glyph unicode="&#x203a;" horiz-adv-x="1057" d="M233 496l218 671l-218 688h218l364 -688l-364 -671h-218z" />
<glyph unicode="&#x2044;" horiz-adv-x="1106" d="M-344 0l1499 2716h377l-1491 -2716h-385z" />
<glyph unicode="&#x2215;" horiz-adv-x="1106" d="M-344 0l1499 2716h377l-1491 -2716h-385z" />
<glyph unicode="&#x205f;" horiz-adv-x="891" />
<glyph unicode="&#x20ac;" horiz-adv-x="2441" d="M2327 324q-91 -89 -185 -158.5t-202.5 -117t-236.5 -72.5t-286 -25q-218 0 -392 59.5t-303.5 173.5t-214 280t-122.5 380h-352v319h315q-2 17 -2.5 31.5l-1 29.5t-0.5 32v38q0 41 0.5 84.5t3.5 83.5h-315v320h352q37 221 114.5 402.5t201.5 310.5t297.5 199.5t402.5 70.5 q157 0 283 -24t224.5 -68.5t170.5 -107.5t119.5 -140.5t73 -169t30.5 -191.5l-586 -65q-2 86 -24 146.5t-63.5 99t-100 56t-131.5 17.5q-71 0 -133 -34.5t-110.5 -102t-82 -167.5t-47.5 -232h578v-320h-603v-47v-51q0 -29 1 -54.5l2 -49t2.5 -47.5t3.5 -50h594v-319h-562 q15 -98 52.5 -172.5t92 -124.5t124 -75.5t149.5 -25.5q66 0 140.5 14t152.5 44t155.5 78.5t149.5 117.5z" />
<glyph unicode="&#x2122;" horiz-adv-x="2761" d="M451 1614v880h-332v263h983l-21 -263h-319v-880h-311zM2277 1614q0 55 -2 146t-6 202t-9 235.5t-11 247.5h-4l-287 -831h-275l-262 831h-4q-8 -124 -14.5 -249.5t-11.5 -236.5t-8 -201t-3 -144h-270q3 90 8.5 218t14.5 278t21.5 315.5t29.5 331.5h463l208 -717h9l233 717 h414q15 -166 28.5 -331t24 -314.5t17 -277.5t8.5 -220h-312z" />
<glyph unicode="&#x2202;" horiz-adv-x="2245" d="M954 2929q157 -82 304.5 -178.5t278 -209.5t239 -243t186 -279.5t121 -319t43.5 -360.5q0 -73 -7 -171.5t-27.5 -209.5t-58 -229t-99.5 -230t-151 -211.5t-212 -174.5t-283.5 -118.5t-365.5 -43.5q-110 0 -212.5 21t-192.5 65t-165 112.5t-128.5 164t-83 219t-29.5 278.5 q0 80 11.5 177t37.5 201.5t68 211.5t103.5 206.5t144 186.5t189.5 151.5t240 102t295 37.5h12h11h10.5h11.5q-59 67 -122.5 129t-130.5 117.5t-139 106.5t-149 96.5t-158.5 86.5t-168.5 78zM991 348q79 0 143 32.5t114.5 87.5t88.5 129t66 157.5t46.5 171.5t29.5 172 t15.5 159t4.5 132q0 70 -12 129t-42.5 101t-82 65.5t-129.5 23.5q-94 0 -167 -44.5t-128 -120t-92.5 -175t-60.5 -208.5t-33.5 -221.5t-10.5 -213.5q0 -100 17.5 -171.5t49.5 -117t78.5 -67t104.5 -21.5z" />
<glyph unicode="&#x220f;" horiz-adv-x="2609" d="M1708 -696v3014h-807v-3014h-614v3014h-238v533h2511v-533h-238v-3014h-614z" />
<glyph unicode="&#x2211;" horiz-adv-x="2523" d="M217 -696v413l950 1336l-905 1327v471h1868l57 -533h-1151l836 -1212l-909 -1270h1339l-66 -532h-2019z" />
<glyph unicode="&#x2212;" horiz-adv-x="2376" d="M205 1110v479h1966v-479h-1966z" />
<glyph unicode="&#x221a;" horiz-adv-x="2589" d="M836 0l-533 1548h-242v516h672l459 -1265l836 2298h536l-1110 -3097h-618z" />
<glyph unicode="&#x221e;" horiz-adv-x="4026" d="M1999 1044l-153.5 -109t-161 -102.5t-168.5 -90t-175.5 -72t-182 -47.5t-187.5 -17q-198 0 -346.5 58t-247.5 158t-148 233.5t-49 283.5q0 112 27 212.5t77.5 187t123 156t164 118t200.5 75t232 26.5q83 0 165.5 -14t166 -41t168 -65.5t170.5 -88.5t174.5 -109.5 t179.5 -128.5l149 107t160.5 103.5t169 93t176 75t181 50t183.5 18.5q192 0 341.5 -56t252 -154.5t156 -232.5t53.5 -291q0 -158 -55 -299t-162.5 -246.5t-265 -167t-361.5 -61.5q-77 0 -155 13t-158.5 38.5t-163.5 63t-169.5 86.5t-176.5 108t-184 129zM2421 1368l181 -129 t159 -96.5t141.5 -60.5t128.5 -21q78 0 140 24.5t104.5 65.5t65 96t22.5 117q0 63 -23.5 117t-67 93.5t-105 62t-136.5 22.5q-66 0 -137.5 -22t-148 -60.5t-157.5 -92t-167 -116.5zM1606 1348q-95 72 -179 129.5t-158.5 98t-141.5 62t-128 21.5q-78 0 -139 -24t-102.5 -65.5 t-63.5 -95.5t-22 -114q0 -65 23.5 -119.5t67 -94.5t105 -62.5t136.5 -22.5q63 0 132 20.5t144 58.5t156.5 90.5t169.5 117.5z" />
<glyph unicode="&#x222b;" horiz-adv-x="1290" d="M37 -287q17 -6 36 -10.5t39 -7.5t41.5 -4.5t43.5 -1.5q40 0 67 14t44 43.5t24.5 75t7.5 108.5v2224q0 111 13 208.5t44 179.5t82.5 147t128.5 110t183 69t245 24q68 0 144.5 -9.5t138.5 -27.5l-66 -414q-17 6 -36 11t-39 8t-41.5 4.5t-42.5 1.5q-40 0 -67.5 -14 t-44.5 -44t-24.5 -75.5t-7.5 -108.5v-2224q0 -110 -13 -208t-44 -179.5t-82.5 -146.5t-128.5 -110t-183 -69t-245 -24q-68 0 -144.5 9t-138.5 28z" />
<glyph unicode="&#x2248;" horiz-adv-x="2376" d="M2236 1929q-51 -106 -122.5 -194t-160.5 -151.5t-192 -98.5t-217 -35q-84 0 -156 19t-136 47t-121.5 61t-112 61t-107.5 47t-108 19q-59 0 -110.5 -15.5t-98 -47t-88.5 -79.5t-80 -112l-287 217q51 106 122.5 194t160.5 151.5t192 98.5t217 35q84 0 156.5 -19t136.5 -47 t121.5 -61t112 -61t107.5 -47t108 -19q58 0 110 15.5t98.5 47t88 79t80.5 112.5zM2236 1032q-51 -106 -122.5 -194t-160.5 -151.5t-192 -98.5t-217 -35q-84 0 -156 19t-136 47t-121.5 61t-112 61t-107.5 47t-108 19q-59 0 -110.5 -15.5t-98 -47t-88.5 -79.5t-80 -112 l-287 217q51 106 122.5 194t160.5 151.5t192 98.5t217 35q84 0 156.5 -19t136.5 -47t121.5 -61t112 -61t107.5 -47t108 -19q58 0 110 15.5t98.5 47t88 79t80.5 112.5z" />
<glyph unicode="&#x2260;" horiz-adv-x="2376" d="M1004 651l-279 -532h-369l279 532h-418v459h660l253 479h-913v459h1155l279 532h368l-278 -532h418v-459h-660l-254 -479h914v-459h-1155z" />
<glyph unicode="&#x2264;" horiz-adv-x="2376" d="M205 0v479h1966v-479h-1966zM205 1434v487l1966 737v-508l-1352 -467l1352 -462v-525z" />
<glyph unicode="&#x2265;" horiz-adv-x="2376" d="M205 0v479h1966v-479h-1966zM2171 1921v-487l-1966 -738v508l1351 467l-1351 463v524z" />
<glyph unicode="&#x25c6;" horiz-adv-x="3154" d="M205 1311l1413 1413l1413 -1413l-1413 -1413z" />
<glyph unicode="&#x25ca;" horiz-adv-x="2388" d="M1130 0l-991 1364l983 1352h303l992 -1364l-975 -1352h-312zM1733 1294l-500 705l-414 -582l504 -704z" />
<glyph unicode="&#x274f;" horiz-adv-x="3457" d="M721 0v393h-393v2409h2408v-394h393v-2408h-2408zM2531 2597h-1999v-1999h1999v1999z" />
<glyph unicode="&#xe000;" horiz-adv-x="2105" d="M0 2105h2105v-2105h-2105v2105z" />
<glyph unicode="&#xefed;" horiz-adv-x="1040" d="M205 2834v484h631v-484h-631z" />
<glyph unicode="&#xefee;" horiz-adv-x="1778" d="M1573 3400q-15 -119 -72.5 -219.5t-148.5 -173.5t-212 -114.5t-263 -41.5q-134 0 -249.5 38t-203.5 109t-145 172.5t-74 229.5h364q3 -54 27 -95.5t65.5 -69.5t99 -42.5t128.5 -14.5q67 0 123.5 12.5t97.5 39.5t66.5 69t31.5 101h365z" />
<glyph unicode="&#xeff3;" horiz-adv-x="1331" d="M1130 3187q0 -100 -31.5 -176.5t-93 -128.5t-151.5 -78.5t-207 -26.5q-112 0 -196.5 22.5t-140.5 69t-84.5 117.5t-28.5 168q0 100 31.5 176.5t93 128.5t151.5 78.5t207 26.5q112 0 196.5 -22.5t140.5 -69t84.5 -117.5t28.5 -168zM668 3006q76 0 109.5 42t33.5 122 q0 81 -37 122.5t-115 41.5q-77 0 -110 -41.5t-33 -122.5q0 -80 37 -122t115 -42z" />
<glyph unicode="&#xeff5;" horiz-adv-x="1921" d="M1716 3203q-37 -77 -88 -140.5t-115.5 -108.5t-142 -70t-166.5 -25q-53 0 -100.5 12t-91 30.5t-84 39.5t-80.5 39.5t-80.5 30.5t-83.5 12q-42 0 -79 -12t-70.5 -35.5t-63.5 -58t-57 -78.5l-209 176q37 75 89 138t116 109t138.5 71.5t156.5 25.5q52 0 98.5 -12t90 -30.5 t85 -39.5t83.5 -39.5t85 -30.5t90 -12q74 0 141 49t129 135z" />
<glyph unicode="&#xeff7;" horiz-adv-x="1745" d="M1094 2830l-226 242l-217 -242h-446l467 447h401l467 -447h-446z" />
<glyph unicode="&#xf66d;" horiz-adv-x="2122" d="M1438 0l-45.5 193l-44.5 184h-684q-25 -89 -47 -187l-44 -190h-557q148 580 320.5 1137t363.5 1091h725l185 -556.5l175 -557.5l165 -557.5l155 -556.5h-667zM1225 831l-53.5 198l-58 208.5l-59 204.5l-55.5 184v0l-55 -184.5l-58.5 -205.5l-58 -209l-53.5 -196h451z M1745 2961q-15 -118 -72.5 -218.5t-148.5 -173.5t-212 -114.5t-263 -41.5q-134 0 -249.5 38t-203.5 108.5t-145 172t-74 229.5h364q3 -54 27 -95t65.5 -69t99 -42.5t128.5 -14.5q67 0 123.5 12.5t97.5 39.5t66.5 69t31.5 100h365z" />
<glyph unicode="&#xf66e;" horiz-adv-x="2122" d="M1438 0l-45.5 193l-44.5 184h-684q-25 -89 -47 -187l-44 -190h-557q148 580 320.5 1137t363.5 1091h725l185 -556.5l175 -557.5l165 -557.5l155 -556.5h-667zM1225 831l-53.5 198l-58 208.5l-59 204.5l-55.5 184v0l-55 -184.5l-58.5 -205.5l-58 -209l-53.5 -196h451z M512 2462v381h1102v-381h-1102z" />
<glyph unicode="&#xf66f;" horiz-adv-x="2122" d="M2171 -664q-83 -37 -175.5 -53t-209.5 -16q-88 0 -161.5 15t-127 51t-83.5 95t-30 146q0 63 20 121.5t60.5 111.5t101.5 101.5t142 91.5h-270l-45.5 193l-44.5 184h-684q-25 -89 -47 -187l-44 -190h-557q148 580 320.5 1137t363.5 1091h725l185 -556.5l175 -557.5 l165 -557.5l155 -556.5q-74 -48 -122 -90.5t-76.5 -81t-40 -74t-11.5 -69.5q0 -38 22.5 -58t59.5 -20q34 0 71 7t77 26zM1225 831l-53.5 198l-58 208.5l-59 204.5l-55.5 184v0l-55 -184.5l-58.5 -205.5l-58 -209l-53.5 -196h451z" />
<glyph unicode="&#xf671;" horiz-adv-x="2175" d="M2060 762q-8 -115 -44.5 -219.5t-97.5 -194.5t-145.5 -163.5t-189.5 -125.5t-228 -80t-261 -28q-153 0 -283.5 33t-237.5 96.5t-189.5 156t-138.5 213t-85 266.5t-29 316q0 191 30.5 358t90.5 305.5t149 246.5t206 182.5t261.5 113.5t315.5 39q232 0 398.5 -62.5 t271 -172t148 -259.5t30.5 -325l-602 -69q3 101 -13.5 176t-51.5 124t-90 73t-128 24q-50 0 -98 -17t-90 -52t-77.5 -89.5t-61 -129.5t-40 -171.5t-14.5 -216.5q0 -191 31 -319t82.5 -205.5t118 -110.5t137.5 -33q67 0 120.5 21.5t92.5 63t62.5 101t31.5 134.5h618z M938 2417l320 499h557l-512 -499h-365z" />
<glyph unicode="&#xf672;" horiz-adv-x="2175" d="M2060 762q-8 -115 -44.5 -219.5t-97.5 -194.5t-145.5 -163.5t-189.5 -125.5t-228 -80t-261 -28q-153 0 -283.5 33t-237.5 96.5t-189.5 156t-138.5 213t-85 266.5t-29 316q0 191 30.5 358t90.5 305.5t149 246.5t206 182.5t261.5 113.5t315.5 39q232 0 398.5 -62.5 t271 -172t148 -259.5t30.5 -325l-602 -69q3 101 -13.5 176t-51.5 124t-90 73t-128 24q-50 0 -98 -17t-90 -52t-77.5 -89.5t-61 -129.5t-40 -171.5t-14.5 -216.5q0 -191 31 -319t82.5 -205.5t118 -110.5t137.5 -33q67 0 120.5 21.5t92.5 63t62.5 101t31.5 134.5h618z M942 2916l217 -270l226 270h438l-467 -499h-401l-467 499h454z" />
<glyph unicode="&#xf673;" horiz-adv-x="2175" d="M2060 762q-8 -115 -44.5 -219.5t-97.5 -194.5t-145.5 -163.5t-189.5 -125.5t-228 -80t-261 -28q-153 0 -283.5 33t-237.5 96.5t-189.5 156t-138.5 213t-85 266.5t-29 316q0 191 30.5 358t90.5 305.5t149 246.5t206 182.5t261.5 113.5t315.5 39q232 0 398.5 -62.5 t271 -172t148 -259.5t30.5 -325l-602 -69q3 101 -13.5 176t-51.5 124t-90 73t-128 24q-50 0 -98 -17t-90 -52t-77.5 -89.5t-61 -129.5t-40 -171.5t-14.5 -216.5q0 -191 31 -319t82.5 -205.5t118 -110.5t137.5 -33q67 0 120.5 21.5t92.5 63t62.5 101t31.5 134.5h618z M1364 2417l-217 270l-225 -270h-438l467 499h401l467 -499h-455z" />
<glyph unicode="&#xf674;" horiz-adv-x="2175" d="M2060 762q-8 -115 -44.5 -219.5t-97.5 -194.5t-145.5 -163.5t-189.5 -125.5t-228 -80t-261 -28q-153 0 -283.5 33t-237.5 96.5t-189.5 156t-138.5 213t-85 266.5t-29 316q0 191 30.5 358t90.5 305.5t149 246.5t206 182.5t261.5 113.5t315.5 39q232 0 398.5 -62.5 t271 -172t148 -259.5t30.5 -325l-602 -69q3 101 -13.5 176t-51.5 124t-90 73t-128 24q-50 0 -98 -17t-90 -52t-77.5 -89.5t-61 -129.5t-40 -171.5t-14.5 -216.5q0 -191 31 -319t82.5 -205.5t118 -110.5t137.5 -33q67 0 120.5 21.5t92.5 63t62.5 101t31.5 134.5h618z M860 2437v512h610v-512h-610z" />
<glyph unicode="&#xf675;" horiz-adv-x="2241" d="M238 0v2228h172h193.5h211.5h225q152 0 290 -22t257 -71t215.5 -128t164.5 -194t105 -268t37 -349q0 -275 -72.5 -496t-217.5 -376.5t-363 -239.5t-510 -84h-708zM983 492q75 0 140.5 14.5t121 46.5t99 82.5t73.5 124t46 170.5t16 221q0 101 -13 184t-39 148t-65.5 113 t-91.5 79t-117.5 46.5t-144.5 15.5h-164v-1245h139zM823 2916l217 -270l226 270h438l-467 -499h-401l-467 499h454z" />
<glyph unicode="&#xf676;" horiz-adv-x="2281" d="M279 893h-177v475h177v860h172h193.5h211.5h225q152 0 290 -22t257 -71t215.5 -128t164.5 -194t105 -268t37 -349q0 -275 -72.5 -496t-217.5 -376.5t-363 -239.5t-510 -84h-708v893zM885 893v-401h139q75 0 140.5 14.5t121 46.5t99 82.5t73.5 124t46 170.5t16 221 q0 101 -13 184t-39 148t-65.5 113t-91.5 79t-117.5 46.5t-144.5 15.5h-164v-369h250v-475h-250z" />
<glyph unicode="&#xf678;" horiz-adv-x="1876" d="M238 0v2228h1531l-57 -491h-868v-369h712v-475h-712v-401h880v-492h-1486zM794 2916l217 -270l226 270h438l-467 -499h-401l-467 499h454z" />
<glyph unicode="&#xf679;" horiz-adv-x="1876" d="M238 0v2228h1531l-57 -491h-868v-369h712v-475h-712v-401h880v-492h-1486zM705 2437v512h610v-512h-610z" />
<glyph unicode="&#xf67a;" horiz-adv-x="1876" d="M238 0v2228h1531l-57 -491h-868v-369h712v-475h-712v-401h880v-492h-1486zM447 2462v381h1102v-381h-1102z" />
<glyph unicode="&#xf67b;" horiz-adv-x="2290" d="M2052 184q0 -209 -44 -360.5t-129 -259.5t-210.5 -180t-288.5 -121l-209 397q61 29 112 64.5t89.5 77.5t62 91.5t31.5 106.5l-778 1499v-1499h-450v2228h720l644 -1224v1224h450v-2044z" />
<glyph unicode="&#xf67c;" horiz-adv-x="1876" d="M1790 -664q-83 -37 -175.5 -53t-209.5 -16q-88 0 -161.5 15t-127 51t-83 95t-29.5 146q0 63 20 121.5t60 111.5t101 101.5t142 91.5h-1089v2228h1531l-57 -491h-868v-369h712v-475h-712v-401h880v-492q-74 -48 -122 -90.5t-76 -81t-39.5 -74t-11.5 -69.5q0 -38 22 -58 t59 -20q35 0 71.5 7t76.5 26z" />
<glyph unicode="&#xf67d;" horiz-adv-x="2277" d="M1495 774h-348v443h938v-1049q-92 -52 -203.5 -92.5t-232 -68t-245.5 -42t-245 -14.5q-185 0 -333.5 37t-262.5 106t-196 168t-134.5 223.5t-77 272.5t-24.5 315q0 172 30.5 328t90.5 290t150.5 242t210 184.5t268.5 118t327 41.5q200 0 364.5 -43.5t281 -130t179.5 -215 t60 -299.5l-598 -78q1 72 -21.5 125.5t-64 88.5t-100.5 52t-129 17q-65 0 -121 -21t-102 -60.5t-82.5 -96.5t-61.5 -129.5t-38 -159t-13 -184.5q0 -191 29 -325.5t84 -219.5t134 -124.5t179 -39.5q77 0 156.5 15t150.5 43v282zM1864 2961q-15 -118 -72.5 -218.5 t-148.5 -173.5t-212 -114.5t-263 -41.5q-134 0 -249.5 38t-203.5 108.5t-145 172t-74 229.5h364q3 -54 27 -95t65.5 -69t99 -42.5t128.5 -14.5q67 0 123.5 12.5t97.5 39.5t66.5 69t31.5 100h365z" />
<glyph unicode="&#xf67e;" horiz-adv-x="2277" d="M1495 774h-348v443h938v-1049q-92 -52 -203.5 -92.5t-232 -68t-245.5 -42t-245 -14.5q-185 0 -333.5 37t-262.5 106t-196 168t-134.5 223.5t-77 272.5t-24.5 315q0 172 30.5 328t90.5 290t150.5 242t210 184.5t268.5 118t327 41.5q200 0 364.5 -43.5t281 -130t179.5 -215 t60 -299.5l-598 -78q1 72 -21.5 125.5t-64 88.5t-100.5 52t-129 17q-65 0 -121 -21t-102 -60.5t-82.5 -96.5t-61.5 -129.5t-38 -159t-13 -184.5q0 -191 29 -325.5t84 -219.5t134 -124.5t179 -39.5q77 0 156.5 15t150.5 43v282zM1409 2417l-217 270l-225 -270h-438l467 499 h401l467 -499h-455z" />
<glyph unicode="&#xf67f;" horiz-adv-x="2277" d="M1495 774h-348v443h938v-1049q-92 -52 -203.5 -92.5t-232 -68t-245.5 -42t-245 -14.5q-185 0 -333.5 37t-262.5 106t-196 168t-134.5 223.5t-77 272.5t-24.5 315q0 172 30.5 328t90.5 290t150.5 242t210 184.5t268.5 118t327 41.5q200 0 364.5 -43.5t281 -130t179.5 -215 t60 -299.5l-598 -78q1 72 -21.5 125.5t-64 88.5t-100.5 52t-129 17q-65 0 -121 -21t-102 -60.5t-82.5 -96.5t-61.5 -129.5t-38 -159t-13 -184.5q0 -191 29 -325.5t84 -219.5t134 -124.5t179 -39.5q77 0 156.5 15t150.5 43v282zM880 -737l156 209h-176v372h573v-356 l-250 -225h-303z" />
<glyph unicode="&#xf680;" horiz-adv-x="2277" d="M1495 774h-348v443h938v-1049q-92 -52 -203.5 -92.5t-232 -68t-245.5 -42t-245 -14.5q-185 0 -333.5 37t-262.5 106t-196 168t-134.5 223.5t-77 272.5t-24.5 315q0 172 30.5 328t90.5 290t150.5 242t210 184.5t268.5 118t327 41.5q200 0 364.5 -43.5t281 -130t179.5 -215 t60 -299.5l-598 -78q1 72 -21.5 125.5t-64 88.5t-100.5 52t-129 17q-65 0 -121 -21t-102 -60.5t-82.5 -96.5t-61.5 -129.5t-38 -159t-13 -184.5q0 -191 29 -325.5t84 -219.5t134 -124.5t179 -39.5q77 0 156.5 15t150.5 43v282zM877 2437v512h610v-512h-610z" />
<glyph unicode="&#xf681;" horiz-adv-x="2417" d="M1532 0v819h-647v-819h-606v1618h-181v352h181v258h606v-258h647v258h606v-258h180v-352h-180v-1618h-606zM1532 1319v299h-647v-299h647z" />
<glyph unicode="&#xf682;" d="M1491 0v885h-647v-885h-606v2228h606v-844h647v844h606v-2228h-606zM1380 2417l-217 270l-225 -270h-438l467 499h401l467 -499h-455z" />
<glyph unicode="&#xf684;" horiz-adv-x="2343" d="M238 0v2228h606v-2228h-606zM1081 492q28 -5 57 -9q25 -3 55.5 -5.5t59.5 -2.5q66 0 114 17.5t79 56t46 99.5t15 147v1433h606v-1413q0 -154 -28.5 -277t-79 -216.5t-121 -160t-155.5 -109t-181 -62t-197 -19.5q-27 0 -62 1.5t-71.5 5t-72 8t-64.5 10.5v496z" />
<glyph unicode="&#xf685;" horiz-adv-x="1081" d="M238 0v2228h606v-2228h-606zM-7 2462v381h1102v-381h-1102z" />
<glyph unicode="&#xf686;" horiz-adv-x="1081" d="M909 -664q-83 -37 -175.5 -53t-209.5 -16q-87 0 -161 15t-127 51t-83 95t-30 146q0 63 20 121.5t60 111.5t101 101.5t142 91.5h-208v2228h606v-2228q-74 -48 -122 -90.5t-76.5 -81t-40 -74t-11.5 -69.5q0 -38 22.5 -58t59.5 -20q34 0 70.5 7t76.5 26z" />
<glyph unicode="&#xf687;" horiz-adv-x="1081" d="M238 0v2228h606v-2228h-606zM1300 2761q-37 -75 -88.5 -138.5t-115 -109t-137.5 -71t-155 -25.5q-57 0 -108 12t-97 30t-88.5 39.5t-83.5 39.5t-81 30t-82 12t-79 -12t-70.5 -35.5t-63.5 -57.5t-58 -79l-209 176q37 75 88.5 138.5t115 109t137.5 71t155 25.5 q57 0 108 -12t97 -30t88.5 -39.5t83.5 -39.5t81.5 -30t82.5 -12q41 0 78 12t70.5 35.5t63.5 57.5t58 79z" />
<glyph unicode="&#xf688;" horiz-adv-x="1262" d="M0 492q28 -5 57 -9q25 -3 55.5 -5.5t59.5 -2.5q66 0 114 17.5t79 56t46 99.5t15 147v1433h606v-1413q0 -154 -28.5 -277t-79 -216.5t-121 -160t-155.5 -109t-181 -62t-197 -19.5q-27 0 -62 1.5t-71.5 5t-72 8t-64.5 10.5v496zM935 2417l-217 270l-225 -270h-438l467 499 h401l467 -499h-455z" />
<glyph unicode="&#xf689;" horiz-adv-x="2150" d="M1393 0l-549 1012v-1012h-606v2228h606v-950l536 950h701l-656 -1028l738 -1200h-770zM839 -733l156 217h-176v393h573v-377l-250 -233h-303z" />
<glyph unicode="&#xf68a;" horiz-adv-x="1556" d="M238 0v2228h606v-1728h700l-37 -500h-1269zM455 2417l320 499h557l-512 -499h-365z" />
<glyph unicode="&#xf68b;" horiz-adv-x="1556" d="M238 0v2228h606v-1728h700l-37 -500h-1269zM922 2021l98 561h430l-205 -561h-323z" />
<glyph unicode="&#xf68c;" horiz-adv-x="1556" d="M238 0v2228h606v-1728h700l-37 -500h-1269zM606 -733l156 217h-176v393h573v-377l-250 -233h-303z" />
<glyph unicode="&#xf68d;" horiz-adv-x="1835" d="M238 0v2228h606v-1728h700l-37 -500h-1269zM1135 877v656h631v-656h-631z" />
<glyph unicode="&#xf68e;" horiz-adv-x="2290" d="M1458 0l-770 1499v-1499h-450v2228h720l644 -1237v1237h450v-2228h-594zM1003 2417l320 499h557l-512 -499h-365z" />
<glyph unicode="&#xf68f;" horiz-adv-x="2290" d="M1458 0l-770 1499v-1499h-450v2228h720l644 -1237v1237h450v-2228h-594zM987 2916l217 -270l226 270h438l-467 -499h-401l-467 499h454z" />
<glyph unicode="&#xf690;" horiz-adv-x="2290" d="M1458 0l-770 1499v-1499h-450v2228h720l644 -1237v1237h450v-2228h-594zM807 -733l156 217h-176v393h573v-377l-250 -233h-303z" />
<glyph unicode="&#xf692;" horiz-adv-x="2376" d="M1167 -49q-184 0 -332.5 32.5t-263.5 96t-198 157.5t-137 216t-79.5 271.5t-25.5 324.5q0 153 24.5 304t77.5 287.5t137 253t204 201.5t277 133.5t357 48.5q184 0 333 -32.5t264 -95.5t198 -156.5t137 -215.5t79.5 -271.5t25.5 -325.5q0 -154 -24.5 -304.5t-77.5 -287.5 t-137.5 -253.5t-204 -201.5t-277 -133.5t-357.5 -48.5zM1188 442q65 0 122.5 18.5t104.5 55.5t84 93t62.5 130.5t39 168t13.5 206.5q0 175 -29 302t-84 209t-134 121.5t-179 39.5q-66 0 -123 -18.5t-104 -55.5t-84 -93t-62.5 -130.5t-39 -168t-13.5 -206.5q0 -175 29 -302 t84 -209t134 -121.5t179 -39.5zM1348 2417l331 499h557l-524 -499h-364zM635 2417l250 499h549l-443 -499h-356z" />
<glyph unicode="&#xf693;" horiz-adv-x="2376" d="M1167 -49q-184 0 -332.5 32.5t-263.5 96t-198 157.5t-137 216t-79.5 271.5t-25.5 324.5q0 153 24.5 304t77.5 287.5t137 253t204 201.5t277 133.5t357 48.5q184 0 333 -32.5t264 -95.5t198 -156.5t137 -215.5t79.5 -271.5t25.5 -325.5q0 -154 -24.5 -304.5t-77.5 -287.5 t-137.5 -253.5t-204 -201.5t-277 -133.5t-357.5 -48.5zM1188 442q65 0 122.5 18.5t104.5 55.5t84 93t62.5 130.5t39 168t13.5 206.5q0 175 -29 302t-84 209t-134 121.5t-179 39.5q-66 0 -123 -18.5t-104 -55.5t-84 -93t-62.5 -130.5t-39 -168t-13.5 -206.5q0 -175 29 -302 t84 -209t134 -121.5t179 -39.5zM639 2462v381h1102v-381h-1102z" />
<glyph unicode="&#xf695;" horiz-adv-x="2064" d="M1298 0l-299 774h-155v-774h-606v2228h884q192 0 340 -43.5t249.5 -131t153.5 -219t52 -306.5q0 -103 -23 -200.5t-67.5 -180.5t-108.5 -148.5t-145 -105.5l426 -893h-701zM1036 1225q64 0 110 21t75.5 58t43 88t13.5 111t-15 108.5t-45 82.5t-76.5 52.5t-109.5 18.5 h-188v-540h192zM790 2417l320 499h557l-512 -499h-365z" />
<glyph unicode="&#xf696;" horiz-adv-x="2064" d="M1298 0l-299 774h-155v-774h-606v2228h884q192 0 340 -43.5t249.5 -131t153.5 -219t52 -306.5q0 -103 -23 -200.5t-67.5 -180.5t-108.5 -148.5t-145 -105.5l426 -893h-701zM1036 1225q64 0 110 21t75.5 58t43 88t13.5 111t-15 108.5t-45 82.5t-76.5 52.5t-109.5 18.5 h-188v-540h192zM794 2916l217 -270l226 270h438l-467 -499h-401l-467 499h454z" />
<glyph unicode="&#xf697;" horiz-adv-x="2064" d="M1298 0l-299 774h-155v-774h-606v2228h884q192 0 340 -43.5t249.5 -131t153.5 -219t52 -306.5q0 -103 -23 -200.5t-67.5 -180.5t-108.5 -148.5t-145 -105.5l426 -893h-701zM1036 1225q64 0 110 21t75.5 58t43 88t13.5 111t-15 108.5t-45 82.5t-76.5 52.5t-109.5 18.5 h-188v-540h192zM811 -733l156 217h-176v393h573v-377l-250 -233h-303z" />
<glyph unicode="&#xf698;" horiz-adv-x="2130" d="M1343 1585q-2 63 -22.5 107t-59 71t-93.5 39.5t-124 12.5q-72 0 -124.5 -12.5t-86.5 -35.5t-50.5 -54.5t-16.5 -70.5q0 -58 34.5 -96.5t93 -66.5t137 -48t166.5 -40t181.5 -43.5t181.5 -59t166.5 -86t137 -123.5t93 -173t34.5 -234q0 -163 -70.5 -296t-200.5 -227.5 t-315 -146t-414 -51.5q-224 0 -387.5 39.5t-270 123t-157.5 212.5t-49 309l594 78q-2 -83 19.5 -140t63 -92.5t100 -51t132.5 -15.5q86 0 145.5 17.5t96.5 44.5t53.5 60.5t16.5 65.5q0 67 -34 112.5t-92 78t-136 55t-165 43.5l-179.5 44t-179.5 56.5t-165 81.5t-136 117.5 t-92 165t-34 225.5q0 146 61 273t182 221t301.5 148t418.5 54q227 0 381.5 -44t249.5 -124.5t136.5 -194t43.5 -251.5zM835 2417l320 499h557l-512 -499h-365z" />
<glyph unicode="&#xf699;" horiz-adv-x="2130" d="M950 -49q-207 3 -362.5 43t-258 122.5t-153.5 210.5t-49 308l594 78q-2 -83 19.5 -140t63 -92.5t100 -51t132.5 -15.5q86 0 145.5 17.5t96.5 44.5t53.5 60.5t16.5 65.5q0 67 -34 112.5t-92 78t-136 55t-165 43.5l-179.5 44t-179.5 56.5t-165 81.5t-136 117.5t-92 165 t-34 225.5q0 146 61 273t182 221t301.5 148t418.5 54q227 0 381.5 -44t249.5 -124.5t136.5 -194t43.5 -251.5l-566 -78q-2 63 -22.5 107t-59 71t-93.5 39.5t-124 12.5q-72 0 -124.5 -12.5t-86.5 -35.5t-50.5 -54.5t-16.5 -70.5q0 -58 34.5 -96.5t93 -66.5t137 -48t166.5 -40 t181.5 -43.5t181.5 -59t166.5 -86t137 -123.5t93 -173t34.5 -234q0 -109 -30 -200t-82.5 -165.5t-125.5 -133t-159 -100.5t-182 -68.5t-195 -37.5l147 -323l-74 -340h-708l73 340h443z" />
<glyph unicode="&#xf69a;" horiz-adv-x="2130" d="M1343 1585q-2 63 -22.5 107t-59 71t-93.5 39.5t-124 12.5q-72 0 -124.5 -12.5t-86.5 -35.5t-50.5 -54.5t-16.5 -70.5q0 -58 34.5 -96.5t93 -66.5t137 -48t166.5 -40t181.5 -43.5t181.5 -59t166.5 -86t137 -123.5t93 -173t34.5 -234q0 -163 -70.5 -296t-200.5 -227.5 t-315 -146t-414 -51.5q-224 0 -387.5 39.5t-270 123t-157.5 212.5t-49 309l594 78q-2 -83 19.5 -140t63 -92.5t100 -51t132.5 -15.5q86 0 145.5 17.5t96.5 44.5t53.5 60.5t16.5 65.5q0 67 -34 112.5t-92 78t-136 55t-165 43.5l-179.5 44t-179.5 56.5t-165 81.5t-136 117.5 t-92 165t-34 225.5q0 146 61 273t182 221t301.5 148t418.5 54q227 0 381.5 -44t249.5 -124.5t136.5 -194t43.5 -251.5zM1278 2417l-217 270l-225 -270h-438l467 499h401l467 -499h-455z" />
<glyph unicode="&#xf69b;" horiz-adv-x="2130" d="M1343 1585q-2 63 -22.5 107t-59 71t-93.5 39.5t-124 12.5q-72 0 -124.5 -12.5t-86.5 -35.5t-50.5 -54.5t-16.5 -70.5q0 -58 34.5 -96.5t93 -66.5t137 -48t166.5 -40t181.5 -43.5t181.5 -59t166.5 -86t137 -123.5t93 -173t34.5 -234q0 -163 -70.5 -296t-200.5 -227.5 t-315 -146t-414 -51.5q-224 0 -387.5 39.5t-270 123t-157.5 212.5t-49 309l594 78q-2 -83 19.5 -140t63 -92.5t100 -51t132.5 -15.5q86 0 145.5 17.5t96.5 44.5t53.5 60.5t16.5 65.5q0 67 -34 112.5t-92 78t-136 55t-165 43.5l-179.5 44t-179.5 56.5t-165 81.5t-136 117.5 t-92 165t-34 225.5q0 146 61 273t182 221t301.5 148t418.5 54q227 0 381.5 -44t249.5 -124.5t136.5 -194t43.5 -251.5zM782 -737l156 209h-176v372h573v-356l-250 -225h-303z" />
<glyph unicode="&#xf69c;" horiz-adv-x="1737" d="M557 0v823h-307v488h307v418h-528v499h1679l-37 -499h-508v-418h307v-488h-307v-823h-606z" />
<glyph unicode="&#xf69d;" horiz-adv-x="1737" d="M565 0v1729h-528v499h1679l-37 -499h-508v-1729h-606zM655 2916l217 -270l226 270h438l-467 -499h-401l-467 499h454z" />
<glyph unicode="&#xf69e;" horiz-adv-x="1737" d="M565 0v1729h-528v499h1679l-37 -499h-508v-1729h-606zM602 -733l156 217h-176v393h573v-377l-250 -233h-303z" />
<glyph unicode="&#xf69f;" horiz-adv-x="2286" d="M2056 881q0 -127 -20 -245t-64.5 -221t-115.5 -187.5t-172.5 -145t-235.5 -94t-305 -33.5q-220 0 -390 52.5t-286.5 162t-177 278t-60.5 400.5v1380h607v-1319q0 -123 20.5 -209.5t60 -142t97.5 -81t133 -25.5q47 0 90.5 5.5t81 22.5t69 47t53.5 78.5t34 118.5t12 166 v1339h569v-1347zM1839 2961q-15 -118 -72.5 -218.5t-148.5 -173.5t-212 -114.5t-263 -41.5q-134 0 -249.5 38t-203.5 108.5t-145 172t-74 229.5h364q3 -54 27 -95t65.5 -69t99 -42.5t128.5 -14.5q67 0 123.5 12.5t97.5 39.5t66.5 69t31.5 100h365z" />
<glyph unicode="&#xf6a0;" horiz-adv-x="2286" d="M2056 881q0 -127 -20 -245t-64.5 -221t-115.5 -187.5t-172.5 -145t-235.5 -94t-305 -33.5q-220 0 -390 52.5t-286.5 162t-177 278t-60.5 400.5v1380h607v-1319q0 -123 20.5 -209.5t60 -142t97.5 -81t133 -25.5q47 0 90.5 5.5t81 22.5t69 47t53.5 78.5t34 118.5t12 166 v1339h569v-1347zM1278 2417l331 499h557l-524 -499h-364zM565 2417l250 499h549l-443 -499h-356z" />
<glyph unicode="&#xf6a1;" horiz-adv-x="2286" d="M2056 881q0 -127 -20 -245t-64.5 -221t-115.5 -187.5t-172.5 -145t-235.5 -94t-305 -33.5q-220 0 -390 52.5t-286.5 162t-177 278t-60.5 400.5v1380h607v-1319q0 -123 20.5 -209.5t60 -142t97.5 -81t133 -25.5q47 0 90.5 5.5t81 22.5t69 47t53.5 78.5t34 118.5t12 166 v1339h569v-1347zM615 2462v381h1102v-381h-1102z" />
<glyph unicode="&#xf6a2;" horiz-adv-x="2286" d="M1683 -664q-83 -37 -175.5 -53t-209.5 -16q-87 0 -161 15t-127 51t-83 95t-30 146q0 63 19 117.5t52 102t78 87.5t97 74q-220 0 -390 52.5t-286.5 162t-177 278t-60.5 400.5v1380h607v-1319q0 -123 20.5 -209.5t60 -142t97.5 -81t133 -25.5q47 0 90.5 5.5t81 22.5t69 47 t53.5 78.5t34 118.5t12 166v1339h569v-1347q0 -138 -21.5 -248t-55.5 -194.5t-75 -145t-81 -100.5q-39 -39 -73 -69.5l-64.5 -56l-58.5 -48l-55 -44.5l-54 -45.5t-56 -52.5q-26 -26 -44 -51t-29 -48.5t-16 -46.5t-5 -46q0 -38 21 -58t61 -20q34 0 70.5 7t76.5 26z" />
<glyph unicode="&#xf6a3;" horiz-adv-x="2286" d="M2056 881q0 -127 -20 -245t-64.5 -221t-115.5 -187.5t-172.5 -145t-235.5 -94t-305 -33.5q-220 0 -390 52.5t-286.5 162t-177 278t-60.5 400.5v1380h607v-1319q0 -123 20.5 -209.5t60 -142t97.5 -81t133 -25.5q47 0 90.5 5.5t81 22.5t69 47t53.5 78.5t34 118.5t12 166 v1339h569v-1347zM1622 2830q0 -103 -31.5 -181t-93 -130.5t-151.5 -79t-207 -26.5q-112 0 -196.5 22.5t-140.5 70t-84.5 120t-28.5 172.5q0 103 31.5 181t93 130.5t151.5 79t207 26.5q112 0 196.5 -22.5t140.5 -70t84.5 -120t28.5 -172.5zM1160 2642q77 0 110 42.5t33 129.5 q0 86 -37.5 129t-114.5 43t-110 -42.5t-33 -129.5q0 -86 37.5 -129t114.5 -43z" />
<glyph unicode="&#xf6a4;" horiz-adv-x="2286" d="M2056 881q0 -127 -20 -245t-64.5 -221t-115.5 -187.5t-172.5 -145t-235.5 -94t-305 -33.5q-220 0 -390 52.5t-286.5 162t-177 278t-60.5 400.5v1380h607v-1319q0 -123 20.5 -209.5t60 -142t97.5 -81t133 -25.5q47 0 90.5 5.5t81 22.5t69 47t53.5 78.5t34 118.5t12 166 v1339h569v-1347zM1905 2761q-37 -75 -88.5 -138.5t-115 -109t-137.5 -71t-155 -25.5q-57 0 -108 12t-97 30t-88.5 39.5t-83.5 39.5t-81 30t-82 12t-79 -12t-70.5 -35.5t-63.5 -57.5t-58 -79l-209 176q37 75 88.5 138.5t115 109t137.5 71t155 25.5q57 0 108 -12t97 -30 t88.5 -39.5t83.5 -39.5t81.5 -30t82.5 -12q41 0 78 12t70.5 35.5t63.5 57.5t58 79z" />
<glyph unicode="&#xf6a5;" horiz-adv-x="3019" d="M1839 0l-336 1417l-344 -1417h-606q-160 538 -282.5 1097t-204.5 1131h585q25 -187 55.5 -373l63.5 -372l66.5 -372.5l64.5 -373.5v0l352 1491h627l328 -1491v0l62 353l61.5 365t59 379t54.5 394h508q-46 -279 -98.5 -558.5t-113 -558.5t-130 -557t-149.5 -554h-623z M1376 2417l320 499h557l-512 -499h-365z" />
<glyph unicode="&#xf6a6;" horiz-adv-x="3019" d="M1839 0l-336 1417l-344 -1417h-606q-160 538 -282.5 1097t-204.5 1131h585q25 -187 55.5 -373l63.5 -372l66.5 -372.5l64.5 -373.5v0l352 1491h627l328 -1491v0l62 353l61.5 365t59 379t54.5 394h508q-46 -279 -98.5 -558.5t-113 -558.5t-130 -557t-149.5 -554h-623z M1782 2417l-217 270l-225 -270h-438l467 499h401l467 -499h-455z" />
<glyph unicode="&#xf6a7;" horiz-adv-x="3019" d="M1839 0l-336 1417l-344 -1417h-606q-160 538 -282.5 1097t-204.5 1131h585q25 -187 55.5 -373l63.5 -372l66.5 -372.5l64.5 -373.5v0l352 1491h627l328 -1491v0l62 353l61.5 365t59 379t54.5 394h508q-46 -279 -98.5 -558.5t-113 -558.5t-130 -557t-149.5 -554h-623z M1708 2494v426h442v-426h-442zM979 2494v426h442v-426h-442z" />
<glyph unicode="&#xf6a8;" horiz-adv-x="3019" d="M1839 0l-336 1417l-344 -1417h-606q-160 538 -282.5 1097t-204.5 1131h585q25 -187 55.5 -373l63.5 -372l66.5 -372.5l64.5 -373.5v0l352 1491h627l328 -1491v0l62 353l61.5 365t59 379t54.5 394h508q-46 -279 -98.5 -558.5t-113 -558.5t-130 -557t-149.5 -554h-623z M1376 2417l-512 499h557l320 -499h-365z" />
<glyph unicode="&#xf6a9;" horiz-adv-x="1888" d="M631 0v889q-94 164 -182 334l-169.5 340l-155.5 337.5l-140 327.5h684q32 -98 70 -204l80 -214.5l87.5 -216t93.5 -209.5v0q49 100 95 207.5t88 216.5l79.5 215.5l69.5 204.5h574l-139.5 -327l-157 -341l-171 -341.5l-180.5 -329.5v-889h-626zM1208 2417l-217 270 l-225 -270h-438l467 499h401l467 -499h-455z" />
<glyph unicode="&#xf6aa;" horiz-adv-x="1888" d="M631 0v889q-94 164 -182 334l-169.5 340l-155.5 337.5l-140 327.5h684q32 -98 70 -204l80 -214.5l87.5 -216t93.5 -209.5v0q49 100 95 207.5t88 216.5l79.5 215.5l69.5 204.5h574l-139.5 -327l-157 -341l-171 -341.5l-180.5 -329.5v-889h-626zM827 2417l-512 499h557 l320 -499h-365z" />
<glyph unicode="&#xf6ab;" horiz-adv-x="1966" d="M115 0v393l893 1336h-832l41 499h1557v-393l-893 -1335h962l-37 -500h-1691zM754 2417l320 499h557l-512 -499h-365z" />
<glyph unicode="&#xf6ac;" horiz-adv-x="1966" d="M115 0v393l893 1336h-832l41 499h1557v-393l-893 -1335h962l-37 -500h-1691zM688 2437v512h610v-512h-610z" />
<glyph unicode="&#xf6ad;" horiz-adv-x="1081" d="M238 0v2228h606v-2228h-606zM238 2437v512h610v-512h-610z" />
<glyph unicode="&#xf6c9;" horiz-adv-x="1278" d="M205 2851l311 426h557l-504 -426h-364z" />
<glyph unicode="&#xf6ca;" horiz-adv-x="1745" d="M672 2830l-467 447h446l226 -242l217 242h446l-467 -447h-401z" />
<glyph unicode="&#xf6cb;" horiz-adv-x="1581" d="M934 2851v426h442v-426h-442zM205 2851v426h442v-426h-442z" />
<glyph unicode="&#xf6ce;" horiz-adv-x="1278" d="M709 2851l-504 426h557l311 -426h-364z" />
<glyph unicode="&#xf6cf;" horiz-adv-x="1974" d="M918 2822l294 455h557l-487 -455h-364zM205 2822l213 455h549l-406 -455h-356z" />
<glyph unicode="&#xf6d0;" horiz-adv-x="1593" d="M205 2875v381h1184v-381h-1184z" />
<glyph unicode="&#xf6f4;" horiz-adv-x="1589" d="M1573 2961q-15 -118 -72.5 -218.5t-148.5 -173.5t-212 -114.5t-263 -41.5q-134 0 -249.5 38t-203.5 108.5t-145 172t-74 229.5h364q3 -54 27 -95t65.5 -69t99 -42.5t128.5 -14.5q67 0 123.5 12.5t97.5 39.5t66.5 69t31.5 100h365z" />
<glyph unicode="&#xf6f5;" horiz-adv-x="1556" d="M565 2916l217 -270l226 270h438l-467 -499h-401l-467 499h454z" />
<glyph unicode="&#xf6f6;" horiz-adv-x="1556" d="M991 2417l-217 270l-225 -270h-438l467 499h401l467 -499h-455z" />
<glyph unicode="&#xf6f7;" horiz-adv-x="1008" d="M205 2437v512h610v-512h-610z" />
<glyph unicode="&#xf6f8;" horiz-adv-x="1769" d="M918 2417l331 499h557l-524 -499h-364zM205 2417l250 499h549l-443 -499h-356z" />
<glyph unicode="&#xf6f9;" horiz-adv-x="1597" d="M279 0v831l-156 -98l-33 352l189 119v1024h606v-643l225 139l33 -352l-258 -160v-712h700l-37 -500h-1269z" />
<glyph unicode="&#xf6fa;" horiz-adv-x="3052" d="M1188 442q65 0 129 15.5t129 46.5v1225q-56 27 -124.5 42t-133.5 15q-66 0 -123 -18.5t-104 -55.5t-84 -93t-62.5 -130.5t-39 -168t-13.5 -206.5q0 -175 29 -302t84 -209t134 -121.5t179 -39.5zM1528 0q-40 -12 -83.5 -21.5t-89.5 -15.5t-93 -9t-95 -3 q-184 0 -332.5 32.5t-263.5 96t-198 157.5t-137 216t-79.5 271.5t-25.5 324.5q0 153 24.5 304t77.5 287.5t137 253t204 201.5t277 133.5t357 48.5q112 0 213.5 -12t188.5 -37h1335l-57 -491h-836v-369h680v-475h-680v-401h848v-492h-1372z" />
<glyph unicode="&#xf6fc;" horiz-adv-x="1217" d="M1126 2830q0 -103 -31.5 -181t-93 -130.5t-151.5 -79t-207 -26.5q-112 0 -196.5 22.5t-140.5 70t-84.5 120t-28.5 172.5q0 103 31.5 181t93 130.5t151.5 79t207 26.5q112 0 196.5 -22.5t140.5 -70t84.5 -120t28.5 -172.5zM664 2642q77 0 110 42.5t33 129.5 q0 86 -37.5 129t-114.5 43t-110 -42.5t-33 -129.5q0 -86 37.5 -129t114.5 -43z" />
<glyph unicode="&#xf6fd;" horiz-adv-x="2130" d="M1343 1585q-2 63 -22.5 107t-59 71t-93.5 39.5t-124 12.5q-72 0 -124.5 -12.5t-86.5 -35.5t-50.5 -54.5t-16.5 -70.5q0 -58 34.5 -96.5t93 -66.5t137 -48t166.5 -40t181.5 -43.5t181.5 -59t166.5 -86t137 -123.5t93 -173t34.5 -234q0 -163 -70.5 -296t-200.5 -227.5 t-315 -146t-414 -51.5q-224 0 -387.5 39.5t-270 123t-157.5 212.5t-49 309l594 78q-2 -83 19.5 -140t63 -92.5t100 -51t132.5 -15.5q86 0 145.5 17.5t96.5 44.5t53.5 60.5t16.5 65.5q0 67 -34 112.5t-92 78t-136 55t-165 43.5l-179.5 44t-179.5 56.5t-165 81.5t-136 117.5 t-92 165t-34 225.5q0 146 61 273t182 221t301.5 148t418.5 54q227 0 381.5 -44t249.5 -124.5t136.5 -194t43.5 -251.5zM852 2941l217 -270l226 270h438l-467 -499h-401l-467 499h454z" />
<glyph unicode="&#xf6fe;" horiz-adv-x="1966" d="M1741 2761q-37 -75 -88.5 -138.5t-115 -109t-137.5 -71t-155 -25.5q-57 0 -108 12t-97 30t-88.5 39.5t-83.5 39.5t-81 30t-82 12t-79 -12t-70.5 -35.5t-63.5 -57.5t-58 -79l-209 176q37 75 88.5 138.5t115 109t137.5 71t155 25.5q57 0 108 -12t97 -30t88.5 -39.5 t83.5 -39.5t81.5 -30t82.5 -12q41 0 78 12t70.5 35.5t63.5 57.5t58 79z" />
<glyph unicode="&#xf6ff;" horiz-adv-x="1966" d="M115 0v393l893 1336h-832l41 499h1557v-393l-893 -1335h962l-37 -500h-1691zM790 2916l217 -270l226 270h438l-467 -499h-401l-467 499h454z" />
<glyph unicode="&#xf721;" horiz-adv-x="1237" d="M459 705q-42 184 -74.5 363.5t-55 364.5t-34.5 381t-12 414h741q0 -221 -12 -418.5t-34.5 -382t-54 -362t-71.5 -360.5h-393zM352 0v545h602v-545h-602z" />
<glyph unicode="&#xf726;" horiz-adv-x="2482" d="M2265 1233q-3 -198 -46.5 -360t-121.5 -295q40 -20 75.5 -36t65 -27t53 -17t40.5 -6q9 0 16.5 2l7.5 2v-500q-34 -16 -71.5 -24.5t-83.5 -8.5q-43 0 -100 13t-124.5 37t-144.5 59t-160 80q-87 -53 -181.5 -90.5t-192.5 -62.5t-198 -36.5t-198 -11.5q-216 0 -369.5 44 t-250.5 120.5t-142 179.5t-45 221q0 103 29.5 189.5t80.5 159.5t120 135.5t147 117.5q-59 72 -106 144.5t-80 143t-50.5 138.5t-17.5 131q0 84 17.5 161.5t57 144t104 121.5t158.5 93.5t220.5 60t290.5 21.5q141 0 251 -20.5t192.5 -56.5t139 -83.5t92 -101t51 -110.5 t15.5 -111q0 -70 -23 -130.5t-63.5 -115t-95.5 -103t-119 -93.5t-133.5 -87.5l-138.5 -84.5l105 -89l110 -87l113 -84.5l114 -79.5q31 83 42.5 182t-1.5 211h549zM819 1716q0 -28 11 -60.5t32 -69t50.5 -76t66.5 -80.5q52 34 96 69.5t75.5 74t49 81t17.5 90.5q0 45 -16.5 76 t-44 50.5t-63 28.5t-73.5 9q-37 0 -73 -10.5t-64.5 -34t-46 -60t-17.5 -88.5zM1036 352q53 0 112 13t118 41q-130 89 -255.5 188t-240.5 205q-12 -20 -21.5 -42.5t-15.5 -45.5t-9 -47.5t-3 -49.5q0 -58 21 -106.5t61.5 -83t99 -53.5t133.5 -19z" />
<glyph unicode="&#xf730;" horiz-adv-x="2441" d="M1184 -49q-173 0 -318.5 30.5t-262.5 92.5t-205 156.5t-147.5 223t-89.5 291t-30 361.5t37.5 363t108 294t170.5 226.5t225 160.5t272.5 95.5t312.5 31.5q173 0 318.5 -30.5t262.5 -92.5t205.5 -156t147.5 -222t89 -290t30 -360q0 -199 -37.5 -364t-108 -295.5 t-170.5 -227.5t-225 -161t-272.5 -95.5t-312.5 -31.5zM1241 426q100 0 179 39t134 121.5t84 211t29 308.5q0 189 -28 321.5t-85.5 215.5t-145.5 121t-208 38q-100 0 -179 -38.5t-134 -121t-84 -210.5t-29 -306q0 -192 28 -325.5t86 -216.5t145.5 -120.5t207.5 -37.5z" />
<glyph unicode="&#xf731;" horiz-adv-x="1880" d="M131 0v524h533v1110l-410 -151l-143 446l827 307h360v-1712h533v-524h-1700z" />
<glyph unicode="&#xf732;" horiz-adv-x="2355" d="M160 0v471q91 141 193 247t208 187t211.5 141.5t201.5 109.5l178.5 92t143 89t95 99.5t34.5 124.5q0 51 -18.5 99.5t-59 86.5t-105.5 61t-157 23q-84 0 -152 -25.5t-116 -75t-74 -122t-26 -166.5h-574q0 195 61 350t182.5 262.5t304.5 165t427 57.5q186 0 330.5 -25.5 t253 -71t184 -108.5t122.5 -137.5t68 -158t21 -170.5q0 -134 -37.5 -237t-102 -182t-150 -139.5t-181 -110.5t-196 -94t-194 -90t-175 -99.5t-139.5 -121.5h1286l-70 -532h-1978z" />
<glyph unicode="&#xf733;" horiz-adv-x="2331" d="M750 680v475h155q163 0 268.5 27.5t167 77t85.5 119t24 153.5q0 67 -20 125t-64.5 100t-115.5 66t-173 24q-81 0 -151.5 -25.5t-122.5 -72.5t-81.5 -112.5t-29.5 -145.5h-569q0 129 33 237.5t94 195.5t149.5 153.5t199.5 110.5t242.5 66.5t280.5 22.5q252 0 437 -48 t306.5 -138t180.5 -218t59 -288q0 -109 -28 -202.5t-90.5 -171t-163 -139t-246.5 -105.5v-9q171 -27 289.5 -83t192.5 -136.5t107.5 -183t33.5 -223.5q0 -155 -38.5 -279.5t-110.5 -221t-174.5 -166t-230.5 -114.5t-278.5 -66.5t-318.5 -21.5q-183 0 -327 20.5t-251.5 62.5 t-180.5 106.5t-114 152.5t-52.5 200t3.5 249h651q-12 -86 0 -150.5t52 -107.5t109.5 -64.5t170.5 -21.5q51 0 101.5 8t96.5 26t85.5 47.5t68.5 72.5t45.5 100t16.5 131q0 77 -15 135t-46 101t-80 71.5t-117.5 46t-157 24.5t-199.5 7h-159z" />
<glyph unicode="&#xf734;" horiz-adv-x="2396" d="M1253 -487v606h-1204v426l1000 1683h856v-1614h385v-495h-385v-606h-652zM1253 1659h-8l-602 -1036h610v1036z" />
<glyph unicode="&#xf735;" horiz-adv-x="2306" d="M758 315q-17 -101 -2.5 -171.5t57 -114t111.5 -63t161 -19.5t166.5 19t127 61.5t80.5 111t28 168.5q0 81 -14 148t-47.5 120t-89 93t-139 66t-197.5 39t-263 13q-101 0 -221.5 -6t-261.5 -18l98 1466h1635l-29 -532h-1127l-40 -455l48.5 2t49 1.5t48 0.5h46.5 q215 0 386.5 -29t303 -83t225 -130t153.5 -170t88 -203t28 -229q0 -162 -35.5 -294.5t-102.5 -236.5t-165 -180.5t-222.5 -127t-275 -75t-322.5 -24.5q-264 0 -448 49t-294.5 152.5t-149.5 265t-13 385.5h619z" />
<glyph unicode="&#xf736;" horiz-adv-x="2437" d="M2306 926q0 -154 -37.5 -286t-107 -240t-169.5 -192t-225.5 -141t-273 -86.5t-313.5 -29.5q-143 0 -276.5 24t-249.5 81t-211.5 150.5t-164 233.5t-106 329.5t-37.5 438.5q0 220 25.5 404.5t72.5 335t113.5 270t149 210t178 155t201 105t218.5 59t230 18.5q145 0 267 -19 t219.5 -57.5t170 -96.5t120 -137t69.5 -178.5t18 -220.5l-639 -69q9 90 -7 153t-50.5 102.5t-82 57.5t-101.5 18q-67 0 -127 -18.5t-111.5 -59t-93.5 -103t-73.5 -150t-50.5 -202t-24 -257.5q86 29 170 54.5t167.5 44t168.5 29.5t174 11q181 0 329 -38t252 -125t161 -229 t57 -349zM1642 856q0 95 -24 163.5t-70.5 112.5t-114.5 64.5t-155 20.5q-63 0 -124 -8.5t-116.5 -22.5t-104.5 -32t-89 -36q0 -102 6.5 -195t22 -172.5t43 -144t69 -110.5t100 -70.5t136.5 -24.5q66 0 123.5 12.5t104 38t82.5 63.5t61 88.5t37.5 113.5t12.5 139z" />
<glyph unicode="&#xf737;" horiz-adv-x="2032" d="M406 -487q55 213 119 428.5t134.5 423t145 402.5t150.5 366.5t152 314.5t150 248h-1163v532h1843v-319q-87 -155 -168.5 -330.5t-157 -367.5t-144 -397.5t-130 -420t-114.5 -436t-97 -444.5h-720z" />
<glyph unicode="&#xf738;" horiz-adv-x="2380" d="M2171 2134q0 -118 -33.5 -218.5t-93 -186.5t-141.5 -159t-179 -136q72 -42 138.5 -88.5t125 -99t106.5 -112t82.5 -127.5t53.5 -145.5t19 -165.5q0 -96 -26.5 -188.5t-83.5 -175.5t-145.5 -153t-213.5 -120.5t-287.5 -79t-366.5 -28.5q-240 0 -425 36t-312 114 t-192.5 200.5t-65.5 296.5q0 126 42.5 233t116 198.5t172 170.5t210.5 148q-103 58 -193.5 126.5t-157.5 150.5t-106 179.5t-39 214.5q0 107 30.5 204.5t90 180t149 149.5t207 114t264 72.5t320.5 25.5q209 0 381 -38.5t295 -117t190.5 -197t67.5 -278.5zM1548 2081 q0 55 -23.5 102.5t-70 82t-115.5 54t-159 19.5q-58 0 -105 -9t-84.5 -25t-65 -38.5t-45.5 -50t-27 -58.5t-9 -65q0 -43 14 -82t39 -74.5t61 -68.5t80 -64t95.5 -61l107.5 -60q67 43 123.5 88.5t97.5 95t63.5 102.5t22.5 112zM1581 647q0 47 -15.5 90t-44.5 82.5t-69.5 76.5 t-90 72t-107 68l-119.5 66q-75 -45 -139 -91.5t-110.5 -98t-73 -109t-26.5 -123.5q0 -57 15.5 -102t43 -78.5t65 -57t81 -38t92 -21t97.5 -6.5q53 0 103.5 6.5t95 20t82 35t64 51.5t41.5 69t15 88z" />
<glyph unicode="&#xf739;" horiz-adv-x="2437" d="M131 1303q0 153 37.5 285t107 240.5t169.5 192t225.5 140.5t273 86.5t313.5 29.5q143 0 276.5 -24t249.5 -81t211.5 -151t164 -234t106 -330.5t37.5 -440.5q0 -220 -26.5 -403.5t-75 -333.5t-117 -269t-152.5 -210t-181.5 -155t-204.5 -104.5t-220.5 -59t-230.5 -18.5 q-145 0 -269.5 19.5t-225.5 59.5t-177 100.5t-125 143.5t-69.5 188.5t-10.5 234.5h643q-6 -78 12 -134.5t53 -93t83 -54t102 -17.5q66 0 127.5 18.5t115.5 58t99 102t78.5 150.5t54 202.5t25.5 258.5l-172 -54.5t-167 -44t-167.5 -29.5t-173.5 -11q-121 0 -227 16t-195 52 t-159 93.5t-118.5 140t-74 191.5t-25.5 249zM795 1368q0 -94 24 -161t70.5 -110.5t114.5 -64t155 -20.5q63 0 124 9t116.5 23t104.5 31.5t89 34.5q0 103 -6.5 196.5t-22 173.5t-43 144t-69 109t-99.5 69.5t-136 24.5q-100 0 -178.5 -28.5t-132.5 -86t-82.5 -143.5 t-28.5 -201z" />
<glyph unicode="&#xf73f;" horiz-adv-x="2048" d="M750 705q0 105 21 184t55.5 139t78.5 105.5t90.5 84.5l90.5 75.5t78.5 78t55.5 91.5t21 118q0 48 -14.5 92t-46 78.5t-81.5 55t-120 20.5q-68 0 -119.5 -26.5t-91 -75.5t-69 -118t-52.5 -153l-475 197q28 94 67 177t92.5 152.5t123 124.5t159 93.5t199.5 58.5t244 20 q201 0 353 -48t253.5 -131t153 -194t51.5 -237q0 -116 -27 -205t-70.5 -159t-99.5 -124t-114.5 -99.5l-114.5 -86t-99.5 -83.5t-70.5 -92.5t-27 -112.5h-495zM696 0v545h602v-545h-602z" />
<glyph unicode="&#xf760;" horiz-adv-x="1311" d="M729 2417l-512 499h557l320 -499h-365z" />
<glyph unicode="&#xf761;" horiz-adv-x="2122" d="M1438 0l-45.5 193l-44.5 184h-684q-25 -89 -47 -187l-44 -190h-557q148 580 320.5 1137t363.5 1091h725l185 -556.5l175 -557.5l165 -557.5l155 -556.5h-667zM1225 831l-53.5 198l-58 208.5l-59 204.5l-55.5 184v0l-55 -184.5l-58.5 -205.5l-58 -209l-53.5 -196h451z" />
<glyph unicode="&#xf762;" horiz-adv-x="2114" d="M238 0v2228h909q229 0 380.5 -41t241.5 -116.5t127 -181t37 -234.5q0 -80 -24 -154.5t-72 -136t-120 -106.5t-169 -66v-8q108 -3 193.5 -42t145.5 -103.5t92 -149.5t32 -180q0 -84 -20.5 -169t-65 -164t-115.5 -147.5t-172 -119.5t-234 -80t-302 -29h-864zM1130 1356 q45 0 78.5 16.5t56.5 45t34.5 66.5t11.5 81q0 28 -5 54t-15.5 48.5t-28.5 40.5t-43.5 30.5t-59.5 19.5t-78 7h-250v-409h299zM1110 463q63 0 111 16t81 44.5t49.5 67.5t16.5 85q0 36 -7.5 67.5t-21.5 57.5t-35 47t-48 35.5t-59.5 22t-70.5 7.5h-295v-450h279z" />
<glyph unicode="&#xf763;" horiz-adv-x="2175" d="M2060 762q-8 -115 -44.5 -219.5t-97.5 -194.5t-145.5 -163.5t-189.5 -125.5t-228 -80t-261 -28q-153 0 -283.5 33t-237.5 96.5t-189.5 156t-138.5 213t-85 266.5t-29 316q0 191 30.5 358t90.5 305.5t149 246.5t206 182.5t261.5 113.5t315.5 39q232 0 398.5 -62.5 t271 -172t148 -259.5t30.5 -325l-602 -69q3 101 -13.5 176t-51.5 124t-90 73t-128 24q-50 0 -98 -17t-90 -52t-77.5 -89.5t-61 -129.5t-40 -171.5t-14.5 -216.5q0 -191 31 -319t82.5 -205.5t118 -110.5t137.5 -33q67 0 120.5 21.5t92.5 63t62.5 101t31.5 134.5h618z" />
<glyph unicode="&#xf764;" horiz-adv-x="2241" d="M238 0v2228h172h193.5h211.5h225q152 0 290 -22t257 -71t215.5 -128t164.5 -194t105 -268t37 -349q0 -275 -72.5 -496t-217.5 -376.5t-363 -239.5t-510 -84h-708zM983 492q75 0 140.5 14.5t121 46.5t99 82.5t73.5 124t46 170.5t16 221q0 101 -13 184t-39 148t-65.5 113 t-91.5 79t-117.5 46.5t-144.5 15.5h-164v-1245h139z" />
<glyph unicode="&#xf765;" horiz-adv-x="1876" d="M238 0v2228h1531l-57 -491h-868v-369h712v-475h-712v-401h880v-492h-1486z" />
<glyph unicode="&#xf766;" horiz-adv-x="1712" d="M238 0v2228h1445l-57 -491h-782v-430h639v-484h-639v-823h-606z" />
<glyph unicode="&#xf767;" horiz-adv-x="2277" d="M1495 774h-348v443h938v-1049q-92 -52 -203.5 -92.5t-232 -68t-245.5 -42t-245 -14.5q-185 0 -333.5 37t-262.5 106t-196 168t-134.5 223.5t-77 272.5t-24.5 315q0 172 30.5 328t90.5 290t150.5 242t210 184.5t268.5 118t327 41.5q200 0 364.5 -43.5t281 -130t179.5 -215 t60 -299.5l-598 -78q1 72 -21.5 125.5t-64 88.5t-100.5 52t-129 17q-65 0 -121 -21t-102 -60.5t-82.5 -96.5t-61.5 -129.5t-38 -159t-13 -184.5q0 -191 29 -325.5t84 -219.5t134 -124.5t179 -39.5q77 0 156.5 15t150.5 43v282z" />
<glyph unicode="&#xf768;" d="M1491 0v885h-647v-885h-606v2228h606v-844h647v844h606v-2228h-606z" />
<glyph unicode="&#xf769;" horiz-adv-x="1081" d="M238 0v2228h606v-2228h-606z" />
<glyph unicode="&#xf76a;" horiz-adv-x="1262" d="M0 492q28 -5 57 -9q25 -3 55.5 -5.5t59.5 -2.5q66 0 114 17.5t79 56t46 99.5t15 147v1433h606v-1413q0 -154 -28.5 -277t-79 -216.5t-121 -160t-155.5 -109t-181 -62t-197 -19.5q-27 0 -62 1.5t-71.5 5t-72 8t-64.5 10.5v496z" />
<glyph unicode="&#xf76b;" horiz-adv-x="2150" d="M1393 0l-549 1012v-1012h-606v2228h606v-950l536 950h701l-656 -1028l738 -1200h-770z" />
<glyph unicode="&#xf76c;" horiz-adv-x="1556" d="M238 0v2228h606v-1728h700l-37 -500h-1269z" />
<glyph unicode="&#xf76d;" horiz-adv-x="3109" d="M2302 0q1 84 -0.5 203t-5 256.5t-9 284.5t-11.5 287.5t-13 266t-14 218.5l-8 110h-13l-463 -1626h-508l-462 1626h-13l-8 -102q-7 -89 -14 -202.5t-13.5 -242t-11.5 -267t-8.5 -278t-5 -275.5t-0.5 -259h-520q9 556 42.5 1114t92.5 1114h872l361 -1270h4l360 1270h840 q28 -278 51.5 -555.5t41 -555.5t28.5 -557t14 -560h-606z" />
<glyph unicode="&#xf76e;" horiz-adv-x="2290" d="M1458 0l-770 1499v-1499h-450v2228h720l644 -1237v1237h450v-2228h-594z" />
<glyph unicode="&#xf76f;" horiz-adv-x="2376" d="M1167 -49q-184 0 -332.5 32.5t-263.5 96t-198 157.5t-137 216t-79.5 271.5t-25.5 324.5q0 153 24.5 304t77.5 287.5t137 253t204 201.5t277 133.5t357 48.5q184 0 333 -32.5t264 -95.5t198 -156.5t137 -215.5t79.5 -271.5t25.5 -325.5q0 -154 -24.5 -304.5t-77.5 -287.5 t-137.5 -253.5t-204 -201.5t-277 -133.5t-357.5 -48.5zM1188 442q65 0 122.5 18.5t104.5 55.5t84 93t62.5 130.5t39 168t13.5 206.5q0 175 -29 302t-84 209t-134 121.5t-179 39.5q-66 0 -123 -18.5t-104 -55.5t-84 -93t-62.5 -130.5t-39 -168t-13.5 -206.5q0 -175 29 -302 t84 -209t134 -121.5t179 -39.5z" />
<glyph unicode="&#xf770;" horiz-adv-x="2011" d="M238 0v2228h831q226 0 388.5 -48t267.5 -144t154.5 -240.5t49.5 -337.5q0 -123 -30 -233.5t-88 -204.5t-142 -170t-192.5 -129.5t-239.5 -82t-283 -28.5h-110v-610h-606zM1004 1077q81 0 138.5 24t94 68.5t53.5 108t17 143.5q0 86 -17 150t-52 106t-88.5 63t-125.5 21 h-180v-684h160z" />
<glyph unicode="&#xf771;" horiz-adv-x="2376" d="M1085 -446l82 397q-184 0 -332.5 32.5t-263.5 96t-198 157.5t-137 216t-79.5 271.5t-25.5 324.5q0 153 24.5 304t77.5 287.5t137 253t204 201.5t277 133.5t357 48.5q184 0 333 -32.5t264 -95.5t198 -156.5t137 -215.5t79.5 -271.5t25.5 -325.5q0 -154 -22 -294 t-65.5 -262.5t-108.5 -226t-150.5 -183t-191.5 -134.5t-232 -80h761l-86 -446h-1065zM1188 442q65 0 122.5 18.5t104.5 55.5t84 93t62.5 130.5t39 168t13.5 206.5q0 175 -29 302t-84 209t-134 121.5t-179 39.5q-66 0 -123 -18.5t-104 -55.5t-84 -93t-62.5 -130.5t-39 -168 t-13.5 -206.5q0 -175 29 -302t84 -209t134 -121.5t179 -39.5z" />
<glyph unicode="&#xf772;" horiz-adv-x="2064" d="M1298 0l-299 774h-155v-774h-606v2228h884q192 0 340 -43.5t249.5 -131t153.5 -219t52 -306.5q0 -103 -23 -200.5t-67.5 -180.5t-108.5 -148.5t-145 -105.5l426 -893h-701zM1036 1225q64 0 110 21t75.5 58t43 88t13.5 111t-15 108.5t-45 82.5t-76.5 52.5t-109.5 18.5 h-188v-540h192z" />
<glyph unicode="&#xf773;" horiz-adv-x="2130" d="M1343 1585q-2 63 -22.5 107t-59 71t-93.5 39.5t-124 12.5q-72 0 -124.5 -12.5t-86.5 -35.5t-50.5 -54.5t-16.5 -70.5q0 -58 34.5 -96.5t93 -66.5t137 -48t166.5 -40t181.5 -43.5t181.5 -59t166.5 -86t137 -123.5t93 -173t34.5 -234q0 -163 -70.5 -296t-200.5 -227.5 t-315 -146t-414 -51.5q-224 0 -387.5 39.5t-270 123t-157.5 212.5t-49 309l594 78q-2 -83 19.5 -140t63 -92.5t100 -51t132.5 -15.5q86 0 145.5 17.5t96.5 44.5t53.5 60.5t16.5 65.5q0 67 -34 112.5t-92 78t-136 55t-165 43.5l-179.5 44t-179.5 56.5t-165 81.5t-136 117.5 t-92 165t-34 225.5q0 146 61 273t182 221t301.5 148t418.5 54q227 0 381.5 -44t249.5 -124.5t136.5 -194t43.5 -251.5z" />
<glyph unicode="&#xf774;" horiz-adv-x="1737" d="M565 0v1729h-528v499h1679l-37 -499h-508v-1729h-606z" />
<glyph unicode="&#xf775;" horiz-adv-x="2286" d="M2056 881q0 -127 -20 -245t-64.5 -221t-115.5 -187.5t-172.5 -145t-235.5 -94t-305 -33.5q-220 0 -390 52.5t-286.5 162t-177 278t-60.5 400.5v1380h607v-1319q0 -123 20.5 -209.5t60 -142t97.5 -81t133 -25.5q47 0 90.5 5.5t81 22.5t69 47t53.5 78.5t34 118.5t12 166 v1339h569v-1347z" />
<glyph unicode="&#xf776;" horiz-adv-x="2048" d="M680 0q-182 556 -341 1117t-282 1111h627q43 -232 91 -459l96 -437.5l93.5 -398l84.5 -339.5l104 414.5l96 413l87.5 407.5t76.5 399h578q-62 -287 -131 -570.5t-147 -562t-165 -552.5t-184 -543h-684z" />
<glyph unicode="&#xf777;" horiz-adv-x="3019" d="M1839 0l-336 1417l-344 -1417h-606q-160 538 -282.5 1097t-204.5 1131h585q25 -187 55.5 -373l63.5 -372l66.5 -372.5l64.5 -373.5v0l352 1491h627l328 -1491v0l62 353l61.5 365t59 379t54.5 394h508q-46 -279 -98.5 -558.5t-113 -558.5t-130 -557t-149.5 -554h-623z" />
<glyph unicode="&#xf778;" horiz-adv-x="2105" d="M1401 -49l-389 725l-82 -154l-87 -169l-87.5 -176.5l-83.5 -176.5h-672l177.5 286.5l177 284l177 282.5l177.5 282l-639 1077l700 65l324 -618l74 134.5l77 145.5l73 147.5t62 141.5h664l-160.5 -257.5l-165 -262.5l-163.5 -259.5l-158 -248.5l708 -1184z" />
<glyph unicode="&#xf779;" horiz-adv-x="1888" d="M631 0v889q-94 164 -182 334l-169.5 340l-155.5 337.5l-140 327.5h684q32 -98 70 -204l80 -214.5l87.5 -216t93.5 -209.5v0q49 100 95 207.5t88 216.5l79.5 215.5l69.5 204.5h574l-139.5 -327l-157 -341l-171 -341.5l-180.5 -329.5v-889h-626z" />
<glyph unicode="&#xf77a;" horiz-adv-x="1954" d="M115 0v393l893 1336h-832l41 499h1557v-393l-893 -1335h962l-37 -500h-1691z" />
<glyph unicode="&#xf7a1;" horiz-adv-x="1237" d="M778 1524q42 -185 74.5 -364t55 -364t34.5 -381.5t12 -414.5h-741q0 221 12 418.5t34.5 382t54 362.5t71.5 361h393zM885 2228v-545h-602v545h602z" />
<glyph unicode="&#xf7a8;" horiz-adv-x="1581" d="M934 2494v426h442v-426h-442zM205 2494v426h442v-426h-442z" />
<glyph unicode="&#xf7af;" horiz-adv-x="1405" d="M205 2462v381h1102v-381h-1102z" />
<glyph unicode="&#xf7b4;" horiz-adv-x="1311" d="M217 2417l320 499h557l-512 -499h-365z" />
<glyph unicode="&#xf7bf;" horiz-adv-x="2048" d="M1298 1524q0 -105 -21 -184t-55.5 -139t-78.5 -106t-90.5 -85l-90.5 -75t-78.5 -77.5t-55.5 -92t-21 -118.5q0 -48 14.5 -92t46 -78.5t81 -55t120.5 -20.5q67 0 119 26.5t91.5 75.5t69 118t52.5 153l475 -196q-28 -94 -67 -177t-92.5 -153t-123 -125t-159 -93 t-199.5 -58.5t-244 -20.5q-201 0 -353 48t-253.5 131t-153 194t-51.5 237q0 116 27 205.5t70.5 159t99.5 123.5t114.5 99.5l114.5 86.5t99.5 84t70.5 92.5t27 112.5h495zM1352 2228v-545h-602v545h602z" />
<glyph unicode="&#xf7e0;" horiz-adv-x="2122" d="M1438 0l-45.5 193l-44.5 184h-684q-25 -89 -47 -187l-44 -190h-557q148 580 320.5 1137t363.5 1091h725l185 -556.5l175 -557.5l165 -557.5l155 -556.5h-667zM1225 831l-53.5 198l-58 208.5l-59 204.5l-55.5 184v0l-55 -184.5l-58.5 -205.5l-58 -209l-53.5 -196h451z M917 2417l-512 499h557l320 -499h-365z" />
<glyph unicode="&#xf7e1;" horiz-adv-x="2122" d="M1438 0l-45.5 193l-44.5 184h-684q-25 -89 -47 -187l-44 -190h-557q148 580 320.5 1137t363.5 1091h725l185 -556.5l175 -557.5l165 -557.5l155 -556.5h-667zM1225 831l-53.5 198l-58 208.5l-59 204.5l-55.5 184v0l-55 -184.5l-58.5 -205.5l-58 -209l-53.5 -196h451z M856 2417l320 499h557l-512 -499h-365z" />
<glyph unicode="&#xf7e2;" horiz-adv-x="2122" d="M1438 0l-45.5 193l-44.5 184h-684q-25 -89 -47 -187l-44 -190h-557q148 580 320.5 1137t363.5 1091h725l185 -556.5l175 -557.5l165 -557.5l155 -556.5h-667zM1225 831l-53.5 198l-58 208.5l-59 204.5l-55.5 184v0l-55 -184.5l-58.5 -205.5l-58 -209l-53.5 -196h451z M1282 2417l-217 270l-225 -270h-438l467 499h401l467 -499h-455z" />
<glyph unicode="&#xf7e3;" horiz-adv-x="2122" d="M1438 0l-45.5 193l-44.5 184h-684q-25 -89 -47 -187l-44 -190h-557q148 580 320.5 1137t363.5 1091h725l185 -556.5l175 -557.5l165 -557.5l155 -556.5h-667zM1225 831l-53.5 198l-58 208.5l-59 204.5l-55.5 184v0l-55 -184.5l-58.5 -205.5l-58 -209l-53.5 -196h451z M1819 2761q-37 -75 -88.5 -138.5t-115 -109t-137.5 -71t-155 -25.5q-57 0 -108 12t-97 30t-88.5 39.5t-83.5 39.5t-81 30t-82 12t-79 -12t-70.5 -35.5t-63.5 -57.5t-58 -79l-209 176q37 75 88.5 138.5t115 109t137.5 71t155 25.5q57 0 108 -12t97 -30t88.5 -39.5t83.5 -39.5 t81.5 -30t82.5 -12q41 0 78 12t70.5 35.5t63.5 57.5t58 79z" />
<glyph unicode="&#xf7e4;" horiz-adv-x="2122" d="M1438 0l-45.5 193l-44.5 184h-684q-25 -89 -47 -187l-44 -190h-557q148 580 320.5 1137t363.5 1091h725l185 -556.5l175 -557.5l165 -557.5l155 -556.5h-667zM1225 831l-53.5 198l-58 208.5l-59 204.5l-55.5 184v0l-55 -184.5l-58.5 -205.5l-58 -209l-53.5 -196h451z M1204 2494v426h442v-426h-442zM475 2494v426h442v-426h-442z" />
<glyph unicode="&#xf7e5;" horiz-adv-x="2122" d="M1438 0l-45.5 193l-44.5 184h-684q-25 -89 -47 -187l-44 -190h-557q148 580 320.5 1137t363.5 1091h725l185 -556.5l175 -557.5l165 -557.5l155 -556.5h-667zM1225 831l-53.5 198l-58 208.5l-59 204.5l-55.5 184v0l-55 -184.5l-58.5 -205.5l-58 -209l-53.5 -196h451z M1527 2830q0 -103 -31.5 -181t-93 -130.5t-151.5 -79t-207 -26.5q-112 0 -196.5 22.5t-140.5 70t-84.5 120t-28.5 172.5q0 103 31.5 181t93 130.5t151.5 79t207 26.5q112 0 196.5 -22.5t140.5 -70t84.5 -120t28.5 -172.5zM1065 2642q77 0 110 42.5t33 129.5q0 86 -37.5 129 t-114.5 43t-110 -42.5t-33 -129.5q0 -86 37.5 -129t114.5 -43z" />
<glyph unicode="&#xf7e6;" horiz-adv-x="2830" d="M2724 2228l-58 -491h-835v-369h680v-475h-680v-401h848v-492h-1454v377h-619l-37 -92l-38 -95l-37 -96l-35 -94h-586q236 580 497.5 1137l534.5 1091h1819zM1225 1737h-33l-97 -211.5l-105.5 -234l-104.5 -237.5l-94 -223h434v906z" />
<glyph unicode="&#xf7e7;" horiz-adv-x="2175" d="M565 -696l74 340h442l-147 315q-172 23 -319 98t-254.5 206.5t-168.5 322.5t-61 446q0 191 30.5 358t90.5 305.5t149 246.5t206 182.5t261.5 113.5t315.5 39q232 0 398.5 -62.5t271 -172t148 -259.5t30.5 -325l-602 -69q3 101 -13.5 176t-51.5 124t-90 73t-128 24 q-50 0 -98 -17t-90 -52t-77.5 -89.5t-61 -129.5t-40 -171.5t-14.5 -216.5q0 -191 31 -319t82.5 -205.5t118 -110.5t137.5 -33q67 0 120.5 21.5t92.5 63t62.5 101t31.5 134.5h618q-12 -172 -83.5 -314.5t-186.5 -247.5t-266.5 -168t-323.5 -77l148 -311l-74 -340h-709z" />
<glyph unicode="&#xf7e8;" horiz-adv-x="1876" d="M238 0v2228h1531l-57 -491h-868v-369h712v-475h-712v-401h880v-492h-1486zM934 2417l-512 499h557l320 -499h-365z" />
<glyph unicode="&#xf7e9;" horiz-adv-x="1876" d="M238 0v2228h1531l-57 -491h-868v-369h712v-475h-712v-401h880v-492h-1486zM799 2417l320 499h557l-512 -499h-365z" />
<glyph unicode="&#xf7ea;" horiz-adv-x="1876" d="M238 0v2228h1531l-57 -491h-868v-369h712v-475h-712v-401h880v-492h-1486zM1212 2417l-217 270l-225 -270h-438l467 499h401l467 -499h-455z" />
</font>
</defs>
</svg>
