
<svg xmlns="http://www.w3.org/2000/svg" version="1.1" xmlns:xlink="http://www.w3.org/1999/xlink" preserveAspectRatio="none" x="0px" y="0px" width="550px" height="400px" viewBox="0 0 550 400">
<defs>
<path id="Layer0_0_1_STROKES" stroke="#000000" stroke-width="2" stroke-linejoin="round" stroke-linecap="round" fill="none" d="
M 277.85 201.9
L 279.75 203.9
Q 268.6 218.8 266 220.45 265.7 220.6 265.55 220.65 264.1 220.95 262.65 220.45 262.05 220.25 261.45 219.9 259.35 218.65 260.3 217.3
L 274.85 202.85 266.2 194.15
Q 263.75 196.55 260.7 194.7
L 252.75 188.8
Q 251.9 187.9 252.9 186.95 253.9 186.05 254.8 186.65
L 260.9 191.6
Q 262.8 191.1 262.65 190
L 257.05 184.85
Q 256.35 184.1 257.35 183.2 258.35 182.3 259.15 182.9
L 264.7 188.1
Q 266 187.9 266.1 186.5
L 261.3 181
Q 260.85 180.2 261.85 179.4 262.75 178.55 263.3 179
L 269.65 186.3
Q 271.35 189.4 268.75 191.35
L 277.35 199.6 296.75 178.75
Q 301.5 186.2 294.2 194.45
L 281.85 203.65 296 218.45
Q 295.9 222.4 292.7 220.7
L 281.25 208.85"/>
</defs>

<g transform="matrix( 1, 0, 0, 1, 0,0) ">
<use xlink:href="#Layer0_0_1_STROKES"/>
</g>
</svg>
