
<svg xmlns="http://www.w3.org/2000/svg" version="1.1" xmlns:xlink="http://www.w3.org/1999/xlink" preserveAspectRatio="none" x="0px" y="0px" width="550px" height="400px" viewBox="0 0 550 400">
<defs>
<path id="Layer0_0_1_STROKES" stroke="#000000" stroke-width="2" stroke-linejoin="round" stroke-linecap="round" fill="none" d="
M 292.5 224.35
Q 293.95 222.55 292.9 221.7 291.85 220.85 289.55 222.05 288.35 222.7 287.5 222.6 286.7 222.5 286.5 221.65 286 220.05 288.4 219.35 288.5 219.35 289.2 219.05 290.1 218.7 290.3 218.4 290.9 217.65 290.55 216.85 289.55 214.65 286.25 216.55 285.15 217.25 283.7 217.65 279.5 218.9 274.55 216 269.55 213.15 263.8 202.7 258.05 192.3 257.65 186.8 257.2 181.3 260.15 178.05 261.95 176.1 263.3 175.7 264.75 175.25 265.95 176.45
L 269.85 182.7
Q 271 184.65 270.15 186.05 269.45 187.05 267.8 187.5 267.7 187.55 267.05 187.55 263.6 187.4 264.4 191.8 265.15 196.3 270.35 204.9 271.85 207.35 274.4 208.4 277.25 209.45 278.2 207.35 278.4 206.75 278.5 206.7 279.7 205.4 280.85 205.2 282.5 205 283.75 206.9
L 287.1 212"/>
</defs>

<g transform="matrix( 1, 0, 0, 1, 0,0) ">
<use xlink:href="#Layer0_0_1_STROKES"/>
</g>
</svg>
