<?xml version="1.0" encoding="utf-8"?>
<!-- Generator: Adobe Illustrator 16.0.0, SVG Export Plug-In . SVG Version: 6.00 Build 0)  -->
<!DOCTYPE svg PUBLIC "-//W3C//DTD SVG 1.1//EN" "http://www.w3.org/Graphics/SVG/1.1/DTD/svg11.dtd">
<svg version="1.1" id="Layer_1" xmlns="http://www.w3.org/2000/svg" xmlns:xlink="http://www.w3.org/1999/xlink" x="0px" y="0px"
	 width="161px" height="111px" viewBox="0 0 161 111" enable-background="new 0 0 161 111" xml:space="preserve">
<g>
	<path fill="#222222" d="M124.016,56.705l1.478-1.848l-1.561-1.777c-13.134-14.971-27.264-22.563-41.994-22.563
		c-10.389,0-21.132,3.93-31.068,11.363c-7.431,5.561-11.794,11.088-11.977,11.32l-1.441,1.842l1.541,1.758
		c12.999,14.836,27.06,22.359,41.79,22.359c10.383,0,21.154-3.889,31.154-11.248C119.417,62.406,123.83,56.934,124.016,56.705z
		 M81.464,69.783c-8.243,0-14.948-6.701-14.948-14.945c0-8.24,6.705-14.945,14.948-14.945c8.241,0,14.946,6.705,14.946,14.945
		C96.41,63.082,89.705,69.783,81.464,69.783z M44.882,54.904c3.419-3.74,12.282-12.416,24.215-16.52
		c-4.993,3.764-8.228,9.738-8.228,16.453c0,7.092,3.604,13.355,9.071,17.061C61.324,69.313,52.936,63.633,44.882,54.904z
		 M93.9,71.236c4.952-3.766,8.156-9.713,8.156-16.398c0-7.008-3.523-13.207-8.889-16.928c8.514,2.66,16.836,8.359,24.862,17.049
		C114.592,58.66,105.762,67.15,93.9,71.236z"/>
	<path fill="#222222" d="M6,10.439C6,7.328,9.441,6,12.554,6H40V0H12.554C6.328,0,0,4.215,0,10.439V43h6V10.439z"/>
	<path fill="#222222" d="M6,99.369V68H0v31.369C0,105.598,6.328,111,12.554,111H40v-6H12.554C9.441,105,6,102.482,6,99.369z"/>
	<path fill="#222222" d="M155,99.369c0,3.113-1.281,5.631-4.394,5.631H119v6h31.606c6.226,0,10.394-5.402,10.394-11.631V68h-6
		V99.369z"/>
	<path fill="#222222" d="M150.606,0H119v6h31.606C153.719,6,155,7.328,155,10.439V43h6V10.439C161,4.215,156.832,0,150.606,0z"/>
</g>
</svg>
