<?xml version="1.0" encoding="utf-8"?>
<!-- Generator: Adobe Illustrator 19.2.1, SVG Export Plug-In . SVG Version: 6.00 Build 0)  -->
<svg version="1.1" id="Calque_1" xmlns="http://www.w3.org/2000/svg" xmlns:xlink="http://www.w3.org/1999/xlink" x="0px" y="0px"
	 viewBox="0 0 18 18" style="enable-background:new 0 0 18 18;" xml:space="preserve">
<style type="text/css">
	.st0{fill:#FFFFFF;stroke:#3E6798;stroke-width:0.6195;stroke-miterlimit:10;}
	.st1{fill:#FFFFFF;}
	.st2{fill:#3E6798;}
</style>
<g>
	<ellipse transform="matrix(0.7071 -0.7071 0.7071 0.7071 -3.7715 8.9721)" class="st0" cx="8.9" cy="9" rx="8.7" ry="8.7"/>
	<g>
		<g>
			<line class="st1" x1="13" y1="5.2" x2="5.4" y2="12.8"/>
			<path class="st2" d="M13,5.2c0,0,0,0.2-0.1,0.6c0,0.2-0.1,0.4-0.1,0.6c0,0.1,0,0.3-0.1,0.4c0,0.1-0.2,0.1-0.3,0.3
				c-0.7,0.7-1.7,1.7-2.6,2.6c-1,1-1.9,1.9-2.6,2.6c-0.1,0.1-0.1,0.2-0.3,0.2c-0.1,0-0.3,0.1-0.4,0.1c-0.2,0.1-0.5,0.1-0.6,0.1
				c-0.4,0-0.6,0.1-0.6,0.1s0-0.2,0.1-0.6c0-0.2,0.1-0.4,0.1-0.6c0-0.1,0-0.3,0.1-0.4c0-0.1,0.2-0.2,0.2-0.3
				c0.7-0.7,1.7-1.7,2.6-2.6s1.9-1.9,2.6-2.6c0.1-0.1,0.1-0.2,0.3-0.3c0.1,0,0.3-0.1,0.4-0.1c0.2-0.1,0.5-0.1,0.6-0.1
				C12.7,5.2,13,5.2,13,5.2z"/>
		</g>
		<g>
			<line class="st1" x1="13" y1="12.8" x2="5.4" y2="5.2"/>
			<path class="st2" d="M13,12.8c0,0-0.2,0-0.6-0.1c-0.2,0-0.4-0.1-0.6-0.1c-0.1,0-0.3,0-0.4-0.1c-0.1,0-0.1-0.2-0.3-0.3
				c-0.7-0.7-1.7-1.7-2.6-2.6c-1-1-1.9-1.9-2.6-2.6C5.8,7,5.6,6.9,5.6,6.8c0-0.1-0.1-0.3-0.1-0.4C5.5,6.2,5.4,5.9,5.4,5.8
				c0-0.4-0.1-0.6-0.1-0.6s0.2,0,0.6,0.1c0.2,0,0.4,0.1,0.6,0.1c0.1,0,0.3,0,0.4,0.1c0.1,0,0.2,0.2,0.3,0.2C8,6.4,8.9,7.3,9.9,8.3
				s1.9,1.9,2.6,2.6c0.1,0.1,0.2,0.1,0.3,0.3c0,0.1,0.1,0.3,0.1,0.4c0.1,0.2,0.1,0.5,0.1,0.6C13,12.6,13,12.8,13,12.8z"/>
		</g>
	</g>
</g>
</svg>
