<?xml version="1.0" encoding="utf-8"?>
<!-- Generator: Adobe Illustrator 19.2.1, SVG Export Plug-In . SVG Version: 6.00 Build 0)  -->
<svg version="1.1" id="Calque_1" xmlns="http://www.w3.org/2000/svg" xmlns:xlink="http://www.w3.org/1999/xlink" x="0px" y="0px"
	 viewBox="0 0 18 18" style="enable-background:new 0 0 18 18;" xml:space="preserve">
<style type="text/css">
	.st0{fill:#3E6798;stroke:#FFFFFF;stroke-width:0.6195;stroke-miterlimit:10;}
	.st1{fill:#FFFFFF;}
</style>
<g>
	<circle class="st0" cx="8.9" cy="9" r="8.7"/>
	<g>
		<g>
			<path class="st1" d="M9.1,3.5c0,0,0.2,0.2,0.4,0.5c0.1,0.1,0.3,0.3,0.4,0.5C9.9,4.6,10,4.7,10,4.8c0.1,0.1,0,0.2,0,0.4
				c0,1,0,2.4,0,3.7s0,2.7,0,3.7c0,0.1,0.1,0.2,0,0.4C10,13,9.9,13.1,9.8,13.2c-0.1,0.2-0.3,0.4-0.4,0.5c-0.2,0.3-0.4,0.5-0.4,0.5
				s-0.2-0.2-0.4-0.5c-0.1-0.1-0.2-0.3-0.4-0.5c-0.1-0.1-0.1-0.2-0.2-0.3c-0.1-0.1,0-0.2,0-0.4c0-1,0-2.4,0-3.7s0-2.7,0-3.7
				c0-0.1-0.1-0.2,0-0.4c0.1-0.1,0.2-0.2,0.2-0.3c0.1-0.2,0.3-0.4,0.4-0.5C8.9,3.6,9.1,3.5,9.1,3.5z"/>
		</g>
		<g>
			<path class="st1" d="M14.4,8.8c0,0-0.2,0.2-0.5,0.4c-0.1,0.1-0.3,0.3-0.5,0.4c-0.1,0.1-0.2,0.1-0.3,0.2c-0.1,0.1-0.2,0-0.4,0
				c-1,0-2.4,0-3.7,0s-2.7,0-3.7,0c-0.1,0-0.2,0.1-0.4,0C4.9,9.7,4.8,9.7,4.7,9.6C4.5,9.5,4.3,9.3,4.1,9.2C3.8,9,3.7,8.8,3.7,8.8
				s0.2-0.2,0.5-0.4c0.1-0.1,0.3-0.2,0.5-0.4C4.8,8,4.9,7.9,5,7.9c0.1-0.1,0.2,0,0.4,0c1,0,2.4,0,3.7,0s2.7,0,3.7,0
				c0.1,0,0.2-0.1,0.4,0c0.1,0.1,0.2,0.2,0.3,0.2c0.2,0.1,0.4,0.3,0.5,0.4C14.3,8.7,14.4,8.8,14.4,8.8z"/>
		</g>
	</g>
</g>
</svg>
