<?xml version="1.0" encoding="utf-8"?>
<!-- Generator: Adobe Illustrator 19.2.1, SVG Export Plug-In . SVG Version: 6.00 Build 0)  -->
<svg version="1.1" id="Calque_1" xmlns="http://www.w3.org/2000/svg" xmlns:xlink="http://www.w3.org/1999/xlink" x="0px" y="0px"
	 viewBox="0 0 89.2 136.8" style="enable-background:new 0 0 89.2 136.8;" xml:space="preserve">
<style type="text/css">
	.st0{fill:none;stroke:#3E6798;stroke-width:1.2849;stroke-linecap:round;stroke-miterlimit:10;}
	.st1{fill:none;stroke:#3E6798;stroke-width:1.2849;stroke-linecap:round;stroke-miterlimit:10;stroke-dasharray:0.1938,3.2297;}
	.st2{fill:#231F20;}
</style>
<g>
	<g>
		<line class="st0" x1="4.5" y1="2.9" x2="4.5" y2="3"/>
		<line class="st1" x1="4.5" y1="6.3" x2="4.5" y2="110.8"/>
		<line class="st0" x1="4.5" y1="112.4" x2="4.5" y2="112.5"/>
	</g>
</g>
<g>
	<g>
		<path class="st2" d="M9.9,117.1h2.6c0.5,0,0.9,0,1.1,0.1c0.3,0,0.5,0.1,0.7,0.3c0.2,0.1,0.4,0.3,0.5,0.5c0.1,0.2,0.2,0.5,0.2,0.8
			s-0.1,0.6-0.2,0.8c-0.2,0.3-0.4,0.4-0.7,0.6c0.4,0.1,0.7,0.3,0.9,0.6s0.3,0.6,0.3,1c0,0.3-0.1,0.6-0.2,0.9s-0.3,0.5-0.6,0.7
			c-0.2,0.2-0.5,0.3-0.9,0.3c-0.2,0-0.7,0-1.6,0H9.9V117.1z M11.2,118.2v1.5h0.9c0.5,0,0.8,0,0.9,0c0.2,0,0.4-0.1,0.5-0.2
			s0.2-0.3,0.2-0.5s-0.1-0.4-0.2-0.5s-0.3-0.2-0.5-0.2c-0.1,0-0.5,0-1.1,0h-0.7V118.2z M11.2,120.8v1.7h1.2c0.5,0,0.8,0,0.9,0
			c0.2,0,0.4-0.1,0.5-0.3c0.1-0.1,0.2-0.3,0.2-0.5s0-0.4-0.1-0.5c-0.1-0.1-0.2-0.2-0.4-0.3c-0.2-0.1-0.6-0.1-1.2-0.1
			C12.3,120.8,11.2,120.8,11.2,120.8z"/>
		<path class="st2" d="M17.6,123.6h-1.2v-4.7h1.1v0.7c0.2-0.3,0.4-0.5,0.5-0.6s0.3-0.1,0.5-0.1c0.3,0,0.6,0.1,0.8,0.2l-0.4,1.1
			c-0.2-0.1-0.4-0.2-0.6-0.2c-0.2,0-0.3,0-0.4,0.1c-0.1,0.1-0.2,0.3-0.3,0.5s-0.1,0.8-0.1,1.6v1.4H17.6z"/>
		<path class="st2" d="M19.6,121.2c0-0.4,0.1-0.8,0.3-1.2c0.2-0.4,0.5-0.7,0.9-0.9c0.4-0.2,0.8-0.3,1.2-0.3c0.7,0,1.3,0.2,1.7,0.7
			c0.5,0.5,0.7,1,0.7,1.7s-0.2,1.3-0.7,1.8c-0.5,0.5-1,0.7-1.7,0.7c-0.4,0-0.8-0.1-1.2-0.3c-0.4-0.2-0.7-0.5-0.9-0.9
			C19.7,122.1,19.6,121.7,19.6,121.2z M20.9,121.2c0,0.5,0.1,0.8,0.3,1.1c0.2,0.3,0.5,0.4,0.8,0.4s0.6-0.1,0.8-0.4
			c0.2-0.3,0.3-0.6,0.3-1.1s-0.1-0.8-0.3-1.1c-0.2-0.3-0.5-0.4-0.8-0.4s-0.6,0.1-0.8,0.4C21,120.4,20.9,120.8,20.9,121.2z"/>
		<path class="st2" d="M26.3,123.6l-1.5-4.7H26l0.9,3.1l0.8-3.1h1.2l0.8,3.1l0.9-3.1h1.2l-1.5,4.7h-1.2l-0.8-3l-0.8,3H26.3z"/>
		<path class="st2" d="M36.7,123.6h-1.2v-2.4c0-0.5,0-0.8-0.1-1c-0.1-0.2-0.1-0.3-0.3-0.3c-0.1-0.1-0.3-0.1-0.4-0.1
			c-0.2,0-0.4,0.1-0.6,0.2c-0.2,0.1-0.3,0.3-0.3,0.5c-0.1,0.2-0.1,0.6-0.1,1.1v2.1h-1.2V119h1.1v0.7c0.4-0.5,0.9-0.8,1.5-0.8
			c0.3,0,0.5,0,0.7,0.1c0.2,0.1,0.4,0.2,0.5,0.4c0.1,0.2,0.2,0.3,0.2,0.5s0.1,0.5,0.1,0.8L36.7,123.6L36.7,123.6z"/>
		<path class="st2" d="M37.9,118.3v-1.1h1.2v1.1H37.9z M37.9,123.6v-4.7h1.2v4.7H37.9z"/>
		<path class="st2" d="M44.7,123.6h-1.2v-2.4c0-0.5,0-0.8-0.1-1s-0.1-0.3-0.3-0.3c-0.1-0.1-0.3-0.1-0.4-0.1c-0.2,0-0.4,0.1-0.6,0.2
			s-0.3,0.3-0.3,0.5c-0.1,0.2-0.1,0.6-0.1,1.1v2.1h-1.2V119h1.1v0.7c0.4-0.5,0.9-0.8,1.5-0.8c0.3,0,0.5,0,0.7,0.1s0.4,0.2,0.5,0.4
			s0.2,0.3,0.2,0.5s0.1,0.5,0.1,0.8L44.7,123.6L44.7,123.6z"/>
		<path class="st2" d="M45.8,123.9l1.4,0.2c0,0.2,0.1,0.3,0.2,0.3c0.1,0.1,0.3,0.1,0.6,0.1s0.6,0,0.7-0.1c0.1-0.1,0.2-0.2,0.2-0.3
			c0-0.1,0.1-0.3,0.1-0.6v-0.7c-0.4,0.5-0.8,0.8-1.4,0.8c-0.6,0-1.1-0.3-1.5-0.8c-0.3-0.4-0.4-0.9-0.4-1.6c0-0.8,0.2-1.4,0.6-1.8
			c0.4-0.4,0.8-0.6,1.4-0.6c0.6,0,1.1,0.3,1.4,0.8v-0.7h1.2v4.2c0,0.6,0,1-0.1,1.2s-0.2,0.5-0.4,0.6s-0.4,0.3-0.7,0.4
			s-0.6,0.1-1,0.1c-0.8,0-1.4-0.1-1.7-0.4S45.9,124.4,45.8,123.9C45.8,124,45.8,123.9,45.8,123.9z M46.9,121.1
			c0,0.5,0.1,0.9,0.3,1.1s0.4,0.3,0.7,0.3s0.6-0.1,0.8-0.4c0.2-0.2,0.3-0.6,0.3-1c0-0.5-0.1-0.8-0.3-1.1s-0.5-0.4-0.8-0.4
			s-0.5,0.1-0.7,0.3C47,120.3,46.9,120.7,46.9,121.1z"/>
		<path class="st2" d="M53.6,121.5l1.3-0.1c0.1,0.4,0.2,0.7,0.5,0.9c0.2,0.2,0.5,0.3,0.9,0.3s0.7-0.1,0.9-0.3s0.3-0.4,0.3-0.6
			s0-0.3-0.1-0.4s-0.2-0.2-0.5-0.3c-0.2-0.1-0.5-0.1-1-0.3c-0.7-0.2-1.2-0.4-1.5-0.6c-0.4-0.4-0.6-0.8-0.6-1.3
			c0-0.3,0.1-0.6,0.3-0.9s0.5-0.5,0.8-0.7c0.3-0.1,0.8-0.2,1.3-0.2c0.8,0,1.4,0.2,1.8,0.5s0.6,0.8,0.6,1.4l-1.3,0.1
			c-0.1-0.3-0.2-0.6-0.4-0.7s-0.5-0.2-0.8-0.2c-0.4,0-0.7,0.1-0.9,0.2c-0.1,0.1-0.2,0.2-0.2,0.4c0,0.2,0.1,0.3,0.2,0.4
			c0.2,0.1,0.6,0.3,1.2,0.4c0.6,0.1,1.1,0.3,1.4,0.5c0.3,0.2,0.5,0.4,0.7,0.7c0.2,0.3,0.3,0.6,0.3,1s-0.1,0.7-0.3,1
			s-0.5,0.6-0.9,0.7c-0.4,0.2-0.8,0.2-1.4,0.2c-0.8,0-1.4-0.2-1.9-0.6S53.7,122.2,53.6,121.5z"/>
		<path class="st2" d="M59.9,123.6v-1.2h1.2v1.2H59.9z"/>
		<path class="st2" d="M68.2,123.6h-1.4l-0.6-1.5h-2.6l-0.5,1.5h-1.4l2.5-6.4h1.4L68.2,123.6z M65.8,121l-0.9-2.4L64,121H65.8z"/>
		<path class="st2" d="M68.9,123.6v-1.2h1.2v1.2H68.9z"/>
		<path class="st2" d="M4.1,118.3l-1.1,2l1.1,2h-1l-1.4-2l1.4-2H4.1z M5.8,118.3l-1.1,2l1.1,2h-1l-1.4-2l1.4-2H5.8z"/>
		<path class="st2" d="M9.3,129.9h1.1v0.6c0.4-0.5,0.9-0.7,1.5-0.7c0.3,0,0.6,0.1,0.8,0.2s0.4,0.3,0.5,0.6c0.2-0.2,0.4-0.4,0.7-0.6
			s0.5-0.2,0.8-0.2s0.6,0.1,0.9,0.2c0.2,0.1,0.4,0.3,0.5,0.6c0.1,0.2,0.1,0.5,0.1,1v3H15v-2.7c0-0.5,0-0.8-0.1-0.9
			c-0.1-0.2-0.3-0.3-0.5-0.3s-0.3,0.1-0.5,0.2s-0.3,0.3-0.3,0.5c-0.1,0.2-0.1,0.5-0.1,1v2.2h-1.2V132c0-0.5,0-0.7-0.1-0.9
			s-0.1-0.2-0.2-0.3c-0.1-0.1-0.2-0.1-0.4-0.1s-0.4,0.1-0.5,0.2s-0.3,0.3-0.3,0.4c-0.1,0.2-0.1,0.5-0.1,1v2.3H9.3V129.9z"/>
		<path class="st2" d="M18.3,131.3l-1.1-0.2c0.1-0.5,0.3-0.8,0.7-1s0.8-0.3,1.4-0.3s1,0.1,1.2,0.2c0.3,0.1,0.5,0.3,0.6,0.5
			s0.2,0.6,0.2,1.1v1.4c0,0.4,0,0.7,0.1,0.9c0,0.2,0.1,0.4,0.2,0.6h-1.2c0-0.1-0.1-0.2-0.1-0.4c0-0.1,0-0.1,0-0.1
			c-0.2,0.2-0.4,0.4-0.7,0.5c-0.2,0.1-0.5,0.2-0.8,0.2c-0.5,0-0.9-0.1-1.1-0.4c-0.3-0.3-0.4-0.6-0.4-1c0-0.3,0.1-0.5,0.2-0.7
			s0.3-0.4,0.5-0.5s0.6-0.2,1-0.3c0.6-0.1,1-0.2,1.2-0.3v-0.1c0-0.2-0.1-0.4-0.2-0.5s-0.3-0.2-0.7-0.2c-0.2,0-0.4,0-0.5,0.1
			C18.5,130.9,18.4,131.1,18.3,131.3z M20,132.3c-0.2,0.1-0.4,0.1-0.8,0.2c-0.3,0.1-0.6,0.1-0.7,0.2c-0.2,0.1-0.2,0.3-0.2,0.4
			c0,0.2,0.1,0.3,0.2,0.4s0.3,0.2,0.5,0.2s0.4-0.1,0.6-0.2c0.1-0.1,0.2-0.2,0.3-0.4c0-0.1,0-0.3,0-0.6v-0.2H20z"/>
		<path class="st2" d="M26.7,134.6h-1.1v-0.7c-0.2,0.3-0.4,0.5-0.7,0.6c-0.3,0.1-0.5,0.2-0.8,0.2c-0.5,0-1-0.2-1.4-0.6
			c-0.4-0.4-0.6-1-0.6-1.8s0.2-1.4,0.6-1.8c0.4-0.4,0.8-0.6,1.4-0.6c0.5,0,1,0.2,1.4,0.7v-2.3h1.2V134.6z M23.4,132.1
			c0,0.5,0.1,0.9,0.2,1.1c0.2,0.3,0.5,0.5,0.8,0.5s0.5-0.1,0.7-0.4c0.2-0.2,0.3-0.6,0.3-1.1s-0.1-0.9-0.3-1.2
			c-0.2-0.2-0.4-0.4-0.7-0.4c-0.3,0-0.5,0.1-0.7,0.3C23.5,131.3,23.4,131.7,23.4,132.1z"/>
		<path class="st2" d="M30.6,133.1l1.2,0.2c-0.2,0.5-0.4,0.8-0.7,1c-0.3,0.2-0.8,0.4-1.3,0.4c-0.8,0-1.4-0.3-1.8-0.8
			c-0.3-0.4-0.5-1-0.5-1.6c0-0.8,0.2-1.4,0.6-1.8c0.4-0.4,0.9-0.7,1.5-0.7c0.7,0,1.2,0.2,1.6,0.7s0.6,1.2,0.6,2.1h-3.1
			c0,0.4,0.1,0.7,0.3,0.9c0.2,0.2,0.4,0.3,0.7,0.3c0.2,0,0.4-0.1,0.5-0.2S30.6,133.3,30.6,133.1z M30.7,131.8c0-0.4-0.1-0.6-0.3-0.8
			c-0.2-0.2-0.4-0.3-0.6-0.3c-0.3,0-0.5,0.1-0.7,0.3s-0.3,0.5-0.3,0.8H30.7z"/>
		<path class="st2" d="M35.4,129.3v-1.1h1.2v1.1H35.4z M35.4,134.6v-4.7h1.2v4.7H35.4z"/>
		<path class="st2" d="M42.2,134.6H41v-2.4c0-0.5,0-0.8-0.1-1c-0.1-0.1-0.1-0.3-0.3-0.3c-0.1-0.1-0.3-0.1-0.4-0.1
			c-0.2,0-0.4,0.1-0.6,0.2c-0.2,0.1-0.3,0.3-0.3,0.5c-0.1,0.2-0.1,0.6-0.1,1.1v2.1H38V130h1.1v0.7c0.4-0.5,0.9-0.8,1.5-0.8
			c0.3,0,0.5,0,0.7,0.1s0.4,0.2,0.5,0.4s0.2,0.3,0.2,0.5s0.1,0.5,0.1,0.8L42.2,134.6L42.2,134.6z"/>
		<path class="st2" d="M45.9,128.1h2.6c0.5,0,0.9,0,1.1,0.1c0.3,0,0.5,0.1,0.7,0.3c0.2,0.1,0.4,0.3,0.5,0.5s0.2,0.5,0.2,0.8
			s-0.1,0.6-0.2,0.8c-0.2,0.3-0.4,0.4-0.7,0.6c0.4,0.1,0.7,0.3,0.9,0.6s0.3,0.6,0.3,1c0,0.3-0.1,0.6-0.2,0.9
			c-0.1,0.3-0.3,0.5-0.6,0.7c-0.2,0.2-0.5,0.3-0.9,0.3c-0.2,0-0.7,0-1.6,0h-2.2v-6.6H45.9z M47.2,129.2v1.5h0.9c0.5,0,0.8,0,0.9,0
			c0.2,0,0.4-0.1,0.5-0.2c0.1-0.1,0.2-0.3,0.2-0.5s-0.1-0.4-0.2-0.5c-0.1-0.1-0.3-0.2-0.5-0.2c-0.1,0-0.5,0-1.1,0h-0.7V129.2z
			 M47.2,131.7v1.7h1.2c0.5,0,0.8,0,0.9,0c0.2,0,0.3-0.1,0.5-0.3c0.1-0.1,0.2-0.3,0.2-0.5s0-0.4-0.1-0.5s-0.2-0.2-0.4-0.3
			s-0.6-0.1-1.2-0.1L47.2,131.7L47.2,131.7z"/>
		<path class="st2" d="M55.1,133.1l1.2,0.2c-0.2,0.5-0.4,0.8-0.7,1s-0.8,0.4-1.3,0.4c-0.8,0-1.4-0.3-1.8-0.8c-0.3-0.4-0.5-1-0.5-1.6
			c0-0.8,0.2-1.4,0.6-1.8c0.4-0.4,0.9-0.7,1.5-0.7c0.7,0,1.2,0.2,1.6,0.7c0.4,0.5,0.6,1.2,0.6,2.1h-3.1c0,0.4,0.1,0.7,0.3,0.9
			s0.4,0.3,0.7,0.3c0.2,0,0.4-0.1,0.5-0.2C55,133.5,55.1,133.3,55.1,133.1z M55.2,131.8c0-0.4-0.1-0.6-0.3-0.8s-0.4-0.3-0.6-0.3
			c-0.3,0-0.5,0.1-0.7,0.3s-0.3,0.5-0.3,0.8H55.2z"/>
		<path class="st2" d="M57.4,134.6v-6.4h1.2v6.4H57.4z"/>
		<path class="st2" d="M59.8,134.9l1.4,0.2c0,0.2,0.1,0.3,0.2,0.3c0.1,0.1,0.3,0.1,0.6,0.1s0.6,0,0.7-0.1c0.1-0.1,0.2-0.2,0.2-0.3
			s0.1-0.3,0.1-0.6v-0.7c-0.4,0.5-0.8,0.8-1.4,0.8c-0.6,0-1.1-0.3-1.5-0.8c-0.3-0.4-0.4-0.9-0.4-1.6c0-0.8,0.2-1.4,0.6-1.8
			c0.4-0.4,0.8-0.6,1.4-0.6c0.6,0,1.1,0.3,1.4,0.8v-0.7h1.2v4.2c0,0.5,0,1-0.1,1.2s-0.2,0.5-0.4,0.6s-0.4,0.3-0.7,0.4
			c-0.3,0.1-0.6,0.1-1,0.1c-0.8,0-1.4-0.1-1.7-0.4C60.1,135.7,59.9,135.4,59.8,134.9C59.8,135,59.8,134.9,59.8,134.9z M60.9,132.1
			c0,0.5,0.1,0.9,0.3,1.1c0.2,0.2,0.4,0.3,0.7,0.3s0.6-0.1,0.8-0.4c0.2-0.2,0.3-0.6,0.3-1c0-0.5-0.1-0.8-0.3-1.1
			c-0.2-0.2-0.5-0.4-0.8-0.4s-0.5,0.1-0.7,0.3C61,131.3,60.9,131.7,60.9,132.1z"/>
		<path class="st2" d="M65.4,129.3v-1.1h1.2v1.1H65.4z M65.4,134.6v-4.7h1.2v4.7H65.4z"/>
		<path class="st2" d="M71,134.6v-0.7c-0.2,0.3-0.4,0.4-0.7,0.6c-0.3,0.1-0.6,0.2-0.9,0.2s-0.6-0.1-0.8-0.2
			c-0.2-0.1-0.4-0.3-0.5-0.6c-0.1-0.2-0.2-0.6-0.2-1v-3h1.2v2.1c0,0.7,0,1.1,0.1,1.2c0,0.1,0.1,0.3,0.2,0.4c0.1,0.1,0.3,0.1,0.5,0.1
			s0.4-0.1,0.6-0.2c0.2-0.1,0.3-0.3,0.3-0.4c0.1-0.2,0.1-0.6,0.1-1.3v-2h1.2v4.7L71,134.6L71,134.6z"/>
		<path class="st2" d="M73.3,129.9h1.1v0.6c0.4-0.5,0.9-0.7,1.5-0.7c0.3,0,0.6,0.1,0.8,0.2c0.2,0.1,0.4,0.3,0.5,0.6
			c0.2-0.2,0.4-0.4,0.7-0.6c0.2-0.1,0.5-0.2,0.8-0.2s0.6,0.1,0.9,0.2c0.2,0.1,0.4,0.3,0.5,0.6c0.1,0.2,0.1,0.5,0.1,1v3H79v-2.7
			c0-0.5,0-0.8-0.1-0.9c-0.1-0.2-0.3-0.3-0.5-0.3s-0.3,0.1-0.5,0.2s-0.3,0.3-0.3,0.5c-0.1,0.2-0.1,0.5-0.1,1v2.2h-1.2V132
			c0-0.5,0-0.7-0.1-0.9c0-0.1-0.1-0.2-0.2-0.3s-0.2-0.1-0.4-0.1c-0.2,0-0.4,0.1-0.5,0.2s-0.3,0.3-0.3,0.4c-0.1,0.2-0.1,0.5-0.1,1
			v2.3h-1.2v-4.7H73.3z"/>
		<path class="st2" d="M83.8,134.3l1.1-2l-1.1-2h1l1.4,2l-1.4,2H83.8z M85.5,134.3l1.1-2l-1.1-2h1l1.4,2l-1.4,2H85.5z"/>
	</g>
</g>
</svg>
