<?xml version="1.0" encoding="utf-8"?>
<!-- Generator: Adobe Illustrator 19.2.1, SVG Export Plug-In . SVG Version: 6.00 Build 0)  -->
<svg version="1.1" id="Calque_1" xmlns="http://www.w3.org/2000/svg" xmlns:xlink="http://www.w3.org/1999/xlink" x="0px" y="0px"
	 viewBox="0 0 114.9 159.1" style="enable-background:new 0 0 114.9 159.1;" xml:space="preserve">
<style type="text/css">
	.st0{fill:none;stroke:#3E6798;stroke-width:1.2849;stroke-linecap:round;stroke-miterlimit:10;}
	.st1{fill:none;stroke:#3E6798;stroke-width:1.2849;stroke-linecap:round;stroke-miterlimit:10;stroke-dasharray:0.1914,3.1892;}
	.st2{enable-background:new    ;}
	.st3{fill:#231F20;}
</style>
<g>
	<g>
		<line class="st0" x1="4.2" y1="14" x2="4.2" y2="14"/>
		<line class="st1" x1="4.2" y1="17.2" x2="4.2" y2="154.2"/>
		<line class="st0" x1="4.2" y1="155.8" x2="4.2" y2="155.9"/>
	</g>
</g>
<g>
	<g class="st2">
		<path class="st3" d="M16.2,9.5V3.1h4.4v1.1h-3.1v1.5h2.7v1.1h-2.7v2.7H16.2z"/>
		<path class="st3" d="M22.6,6.3l-1.1-0.2c0.1-0.5,0.3-0.8,0.7-1c0.4-0.2,0.8-0.3,1.4-0.3c0.6,0,1,0.1,1.2,0.2
			c0.3,0.1,0.5,0.3,0.6,0.5s0.2,0.6,0.2,1.1V8c0,0.4,0,0.7,0.1,0.9c0,0.2,0.1,0.4,0.2,0.6h-1.4c0-0.1-0.1-0.2-0.1-0.4
			c0-0.1,0-0.1,0-0.1c-0.2,0.2-0.5,0.4-0.7,0.5c-0.3,0.1-0.5,0.1-0.8,0.1c-0.5,0-0.9-0.1-1.1-0.4c-0.3-0.2-0.4-0.6-0.4-1
			c0-0.3,0.1-0.5,0.2-0.7s0.3-0.4,0.5-0.5c0.2-0.1,0.6-0.2,1-0.3c0.6-0.1,1-0.2,1.2-0.3v0c0-0.2-0.1-0.4-0.2-0.5
			c-0.1-0.2-0.3-0.2-0.7-0.2c-0.2,0-0.4,0-0.5,0.1C22.8,5.9,22.7,6.1,22.6,6.3z M24.3,7.3c-0.2,0-0.4,0.1-0.8,0.2
			c-0.3,0-0.6,0.1-0.7,0.2c-0.1,0.1-0.2,0.2-0.2,0.4c0,0.2,0.1,0.3,0.2,0.4c0.1,0.1,0.3,0.2,0.5,0.2s0.4-0.1,0.6-0.2
			c0.1-0.1,0.2-0.2,0.3-0.4c0-0.1,0-0.3,0-0.6L24.3,7.3L24.3,7.3z"/>
		<path class="st3" d="M26.6,9.5V3.1h1.2v2.3c0.4-0.4,0.8-0.7,1.4-0.7c0.6,0,1,0.2,1.4,0.6c0.4,0.4,0.6,1,0.6,1.8S31,8.5,30.6,8.9
			c-0.4,0.4-0.8,0.6-1.4,0.6c-0.3,0-0.5-0.1-0.8-0.2c-0.3-0.1-0.5-0.3-0.7-0.6v0.7h-1.1V9.5z M27.9,7.1c0,0.5,0.1,0.8,0.2,1.1
			c0.2,0.3,0.5,0.5,0.9,0.5c0.3,0,0.5-0.1,0.7-0.3S30,7.8,30,7.3s-0.1-0.9-0.3-1.2c-0.2-0.2-0.4-0.4-0.7-0.4c-0.3,0-0.5,0.1-0.7,0.3
			C28,6.3,27.9,6.6,27.9,7.1z"/>
		<path class="st3" d="M33.4,9.5h-1.2V4.9h1.1v0.7c0.2-0.3,0.4-0.5,0.5-0.6s0.3-0.1,0.5-0.1c0.3,0,0.6,0.1,0.8,0.2l-0.4,1.1
			C34.5,6.1,34.3,6,34.1,6s-0.3,0-0.4,0.1c-0.1,0.1-0.2,0.3-0.3,0.5c-0.1,0.2-0.1,0.8-0.1,1.6v1.3H33.4z"/>
		<path class="st3" d="M35.7,4.2V3.1h1.2v1.1H35.7z M35.7,9.5V4.9h1.2v4.7h-1.2V9.5z"/>
		<path class="st3" d="M41.2,11.3V8.9c-0.2,0.2-0.4,0.4-0.6,0.5c-0.2,0.1-0.5,0.2-0.8,0.2c-0.5,0-1-0.2-1.3-0.6
			c-0.4-0.5-0.6-1.1-0.6-1.9c0-0.7,0.2-1.3,0.6-1.8c0.4-0.4,0.9-0.6,1.4-0.6c0.3,0,0.6,0.1,0.8,0.2s0.4,0.3,0.6,0.6V4.9h1.1v6.4
			H41.2z M41.3,7.1c0-0.5-0.1-0.8-0.3-1.1c-0.2-0.2-0.4-0.3-0.7-0.3s-0.5,0.1-0.7,0.4c-0.2,0.2-0.3,0.6-0.3,1.1s0.1,0.9,0.3,1.1
			c0.2,0.2,0.4,0.3,0.7,0.3s0.5-0.1,0.7-0.4C41.2,8,41.3,7.6,41.3,7.1z"/>
		<path class="st3" d="M46.8,9.5V8.8c-0.2,0.3-0.4,0.4-0.7,0.6c-0.3,0.1-0.6,0.2-0.9,0.2c-0.3,0-0.6-0.1-0.8-0.2
			c-0.2-0.1-0.4-0.3-0.5-0.6c-0.1-0.2-0.2-0.6-0.2-1v-3h1.2V7c0,0.7,0,1.1,0.1,1.2c0,0.1,0.1,0.3,0.2,0.4c0.1,0.1,0.3,0.1,0.5,0.1
			s0.4-0.1,0.6-0.2c0.2-0.1,0.3-0.3,0.3-0.4c0.1-0.2,0.1-0.6,0.1-1.3v-2h1.2v4.7H46.8z"/>
		<path class="st3" d="M51.9,8l1.2,0.2c-0.2,0.5-0.4,0.8-0.7,1s-0.8,0.4-1.3,0.4c-0.8,0-1.4-0.3-1.8-0.8c-0.3-0.4-0.5-1-0.5-1.6
			c0-0.8,0.2-1.4,0.6-1.8s1-0.7,1.6-0.7c0.7,0,1.2,0.2,1.6,0.7c0.4,0.5,0.6,1.2,0.6,2.1h-3.1c0,0.4,0.1,0.7,0.3,0.9s0.4,0.3,0.7,0.3
			c0.2,0,0.4-0.1,0.5-0.2S51.8,8.3,51.9,8z M52,6.8c0-0.4-0.1-0.6-0.3-0.8c-0.2-0.2-0.4-0.3-0.6-0.3c-0.3,0-0.5,0.1-0.7,0.3
			s-0.3,0.5-0.3,0.8H52z"/>
		<path class="st3" d="M60.9,9.5h-1.2V7.1c0-0.5,0-0.8-0.1-1c-0.1-0.1-0.1-0.3-0.3-0.3c-0.1-0.1-0.3-0.1-0.4-0.1
			c-0.2,0-0.4,0.1-0.6,0.2C58.2,6,58.1,6.1,58,6.3c-0.1,0.2-0.1,0.6-0.1,1.1v2.1h-1.2V4.9h1.1v0.7c0.4-0.5,0.9-0.8,1.5-0.8
			c0.3,0,0.5,0,0.7,0.1s0.4,0.2,0.5,0.4c0.1,0.2,0.2,0.3,0.2,0.5s0.1,0.5,0.1,0.8v2.9H60.9z"/>
		<path class="st3" d="M63.1,6.3L62,6.1c0.1-0.5,0.3-0.8,0.7-1s0.8-0.3,1.4-0.3c0.6,0,1,0.1,1.2,0.2c0.3,0.1,0.5,0.3,0.6,0.5
			c0,0.1,0.1,0.5,0.1,1V8c0,0.4,0,0.7,0.1,0.9c0,0.2,0.1,0.4,0.2,0.6H65c0-0.1-0.1-0.2-0.1-0.4c0-0.1,0-0.1,0-0.1
			c-0.2,0.2-0.4,0.4-0.7,0.5c-0.2,0.1-0.5,0.2-0.8,0.2c-0.5,0-0.9-0.1-1.1-0.4c-0.3-0.3-0.4-0.6-0.4-1c0-0.3,0.1-0.5,0.2-0.7
			c0.1-0.2,0.3-0.4,0.5-0.5s0.6-0.2,1-0.3c0.6-0.1,1-0.2,1.2-0.3V6.4c0-0.2-0.1-0.4-0.2-0.5c-0.1-0.1-0.3-0.2-0.7-0.2
			c-0.2,0-0.4,0-0.5,0.1C63.3,5.9,63.2,6.1,63.1,6.3z M64.8,7.3c-0.2,0.1-0.4,0.1-0.8,0.2c-0.3,0.1-0.6,0.1-0.7,0.2
			c-0.2,0.1-0.2,0.3-0.2,0.4c0,0.2,0.1,0.3,0.2,0.4s0.3,0.2,0.5,0.2s0.4-0.1,0.6-0.2c0.1-0.1,0.2-0.2,0.3-0.4c0-0.1,0-0.3,0-0.6V7.3
			H64.8z"/>
		<path class="st3" d="M69.3,4.9v1h-0.8v1.9c0,0.4,0,0.6,0,0.7c0,0.1,0.1,0.1,0.1,0.2c0.1,0,0.1,0.1,0.2,0.1c0.1,0,0.3,0,0.5-0.1
			l0.1,1c-0.3,0.1-0.6,0.2-1,0.2c-0.2,0-0.4,0-0.6-0.1c-0.2-0.1-0.3-0.2-0.4-0.3c-0.1-0.1-0.1-0.3-0.2-0.5c0-0.1,0-0.4,0-0.9v-2
			h-0.6v-1h0.6V3.9l1.2-0.7v1.6L69.3,4.9L69.3,4.9z"/>
		<path class="st3" d="M70.2,4.2V3.1h1.2v1.1H70.2z M70.2,9.5V4.9h1.2v4.7h-1.2V9.5z"/>
		<path class="st3" d="M72.4,7.1c0-0.4,0.1-0.8,0.3-1.2c0.2-0.4,0.5-0.7,0.9-0.9c0.4-0.2,0.8-0.3,1.2-0.3c0.7,0,1.3,0.2,1.7,0.7
			c0.5,0.5,0.7,1,0.7,1.7S77,8.4,76.5,8.9s-1,0.7-1.7,0.7c-0.4,0-0.8-0.1-1.2-0.3c-0.4-0.2-0.7-0.5-0.9-0.9
			C72.5,8.1,72.4,7.7,72.4,7.1z M73.7,7.2c0,0.5,0.1,0.8,0.3,1.1s0.5,0.4,0.8,0.4c0.3,0,0.6-0.1,0.8-0.4C75.8,8,76,7.6,76,7.2
			c0-0.5-0.1-0.8-0.3-1.1c-0.2-0.2-0.5-0.4-0.8-0.4S74.2,5.9,74,6.1S73.7,6.7,73.7,7.2z"/>
		<path class="st3" d="M82.4,9.5h-1.2V7.1c0-0.5,0-0.8-0.1-1c0-0.1-0.1-0.2-0.2-0.3s-0.3-0.1-0.4-0.1c-0.2,0-0.4,0.1-0.6,0.2
			s-0.3,0.3-0.3,0.5c-0.1,0.2-0.1,0.6-0.1,1.1v2.1h-1.2V4.9h1.1v0.7c0.4-0.5,0.9-0.8,1.5-0.8c0.3,0,0.5,0,0.7,0.1
			C81.8,5,82,5.1,82.1,5.3c0.1,0.2,0.2,0.3,0.2,0.5s0.1,0.5,0.1,0.8C82.4,6.6,82.4,9.5,82.4,9.5z"/>
		<path class="st3" d="M84.6,6.3l-1.1-0.2c0.1-0.5,0.3-0.8,0.7-1s0.8-0.3,1.4-0.3s1,0.1,1.2,0.2c0.3,0.1,0.5,0.3,0.6,0.5
			s0.2,0.6,0.2,1.1V8c0,0.4,0,0.7,0.1,0.9c0,0.2,0.1,0.4,0.2,0.6h-1.2c0-0.1-0.1-0.2-0.1-0.4c0-0.1,0-0.1,0-0.1
			c-0.2,0.2-0.4,0.4-0.7,0.5c-0.2,0.1-0.5,0.2-0.8,0.2c-0.5,0-0.9-0.1-1.1-0.4c-0.3-0.3-0.4-0.6-0.4-1c0-0.3,0.1-0.5,0.2-0.7
			s0.3-0.4,0.5-0.5s0.6-0.2,1-0.3c0.6-0.1,1-0.2,1.2-0.3V6.4c0-0.2-0.1-0.4-0.2-0.5S86,5.7,85.6,5.7c-0.2,0-0.4,0-0.5,0.1
			C84.8,5.9,84.7,6.1,84.6,6.3z M86.3,7.3c-0.2,0.1-0.4,0.1-0.8,0.2c-0.3,0.1-0.6,0.1-0.7,0.2c-0.2,0.1-0.2,0.3-0.2,0.4
			c0,0.2,0.1,0.3,0.2,0.4s0.3,0.2,0.5,0.2s0.4-0.1,0.6-0.2c0.1-0.1,0.2-0.2,0.3-0.4c0-0.1,0-0.3,0-0.6L86.3,7.3L86.3,7.3z"/>
		<path class="st3" d="M88.7,9.5V3.1h1.2v6.4H88.7z"/>
		<path class="st3" d="M93.9,8l1.2,0.2c-0.2,0.5-0.4,0.8-0.7,1c-0.3,0.2-0.8,0.4-1.3,0.4c-0.8,0-1.4-0.3-1.8-0.8
			c-0.3-0.4-0.5-1-0.5-1.6c0-0.8,0.2-1.4,0.6-1.8c0.4-0.4,1-0.7,1.6-0.7c0.7,0,1.2,0.2,1.6,0.7s0.6,1.2,0.6,2.1h-3.1
			c0,0.4,0.1,0.7,0.3,0.9c0.2,0.2,0.4,0.3,0.7,0.3c0.2,0,0.4-0.1,0.5-0.2S93.8,8.3,93.9,8z M94,6.8c0-0.4-0.1-0.6-0.3-0.8
			c-0.2-0.2-0.4-0.3-0.6-0.3c-0.3,0-0.5,0.1-0.7,0.3s-0.3,0.5-0.3,0.8H94z"/>
		<path class="st3" d="M8,19.2v-6.4h1.3v2.5h2.5v-2.5h1.3v6.4h-1.3v-2.8H9.3v2.8H8z"/>
		<path class="st3" d="M17.2,17.7l1.2,0.2c-0.2,0.5-0.4,0.8-0.7,1c-0.3,0.2-0.8,0.4-1.3,0.4c-0.8,0-1.4-0.3-1.8-0.8
			c-0.3-0.4-0.5-1-0.5-1.6c0-0.8,0.2-1.4,0.6-1.8c0.5-0.4,1-0.7,1.6-0.7c0.7,0,1.2,0.2,1.6,0.7s0.6,1.2,0.6,2.1h-3.1
			c0,0.4,0.1,0.7,0.3,0.9c0.2,0.2,0.4,0.3,0.7,0.3c0.2,0,0.4-0.1,0.5-0.2C17,18.1,17.1,18,17.2,17.7z M17.3,16.5
			c0-0.4-0.1-0.6-0.3-0.8c-0.2-0.2-0.4-0.3-0.6-0.3c-0.3,0-0.5,0.1-0.7,0.3c-0.2,0.2-0.3,0.5-0.3,0.8H17.3z"/>
		<path class="st3" d="M20.7,19.2h-1.2v-4.6h1.1v0.7c0.2-0.3,0.4-0.5,0.5-0.6c0.2-0.1,0.3-0.1,0.5-0.1c0.3,0,0.6,0.1,0.8,0.2
			L22,15.9c-0.2-0.1-0.4-0.2-0.6-0.2s-0.3,0-0.4,0.1c-0.1,0.1-0.2,0.3-0.3,0.5c-0.1,0.2-0.1,0.8-0.1,1.6L20.7,19.2L20.7,19.2z"/>
		<path class="st3" d="M22.6,17.9l1.2-0.2c0.1,0.2,0.2,0.4,0.3,0.5c0.2,0.1,0.4,0.2,0.7,0.2c0.3,0,0.6-0.1,0.7-0.2
			c0.1-0.1,0.2-0.2,0.2-0.3s0-0.2-0.1-0.2c-0.1-0.1-0.2-0.1-0.4-0.2c-1-0.2-1.6-0.4-1.9-0.6c-0.4-0.3-0.6-0.6-0.6-1.1
			c0-0.4,0.2-0.7,0.5-1s0.8-0.4,1.5-0.4c0.6,0,1.1,0.1,1.4,0.3s0.5,0.5,0.6,0.9l-1.2,0.2c0-0.2-0.1-0.3-0.3-0.4
			c-0.1-0.1-0.3-0.1-0.6-0.1c-0.3,0-0.6,0-0.7,0.1c-0.1,0.1-0.1,0.1-0.1,0.3c0,0.1,0,0.2,0.1,0.2c0.1,0.1,0.5,0.2,1.2,0.3
			s1.1,0.3,1.4,0.5c0.3,0.2,0.4,0.5,0.4,0.9s-0.2,0.8-0.5,1.1c-0.4,0.3-0.9,0.5-1.6,0.5c-0.6,0-1.1-0.1-1.5-0.4
			C22.9,18.7,22.7,18.3,22.6,17.9z"/>
		<path class="st3" d="M30.2,14.6v1h-0.9v1.9c0,0.4,0,0.6,0,0.7s0.1,0.1,0.1,0.2c0.1,0,0.1,0.1,0.2,0.1s0.3,0,0.5-0.1l0.1,1
			c-0.3,0.1-0.6,0.2-1,0.2c-0.2,0-0.4,0-0.6-0.1s-0.3-0.2-0.4-0.3s-0.1-0.3-0.2-0.5c0-0.1,0-0.4,0-0.9v-2h-0.6v-1H28v-1.2l1.2-0.7
			v1.6L30.2,14.6L30.2,14.6z"/>
		<path class="st3" d="M31.9,16l-1.1-0.2c0.1-0.5,0.3-0.8,0.7-1s0.8-0.3,1.4-0.3s1,0.1,1.2,0.2c0.3,0.1,0.5,0.3,0.6,0.5
			s0.2,0.6,0.2,1.1v1.4c0,0.4,0,0.7,0.1,0.9c0,0.2,0.1,0.4,0.2,0.6H34c0-0.1-0.1-0.2-0.1-0.4c0-0.1,0-0.1,0-0.1
			c-0.2,0.2-0.4,0.4-0.7,0.5c-0.2,0.1-0.5,0.2-0.8,0.2c-0.5,0-0.9-0.1-1.1-0.4c-0.3-0.3-0.4-0.6-0.4-1c0-0.3,0.1-0.5,0.2-0.7
			c0.1-0.2,0.3-0.4,0.5-0.5s0.6-0.2,1-0.3c0.6-0.1,1-0.2,1.2-0.3v-0.1c0-0.2-0.1-0.4-0.2-0.5c-0.1-0.1-0.3-0.2-0.7-0.2
			c-0.2,0-0.4,0-0.5,0.1C32.1,15.6,32,15.8,31.9,16z M33.6,17c-0.2,0.1-0.4,0.1-0.8,0.2c-0.3,0.1-0.6,0.1-0.7,0.2
			c-0.2,0.1-0.2,0.3-0.2,0.4c0,0.2,0.1,0.3,0.2,0.4c0.1,0.1,0.3,0.2,0.5,0.2s0.4-0.1,0.6-0.2c0.1-0.1,0.2-0.2,0.3-0.4
			c0-0.1,0-0.3,0-0.6L33.6,17L33.6,17z"/>
		<path class="st3" d="M36,19.2v-6.4h1.2v6.4H36z"/>
	</g>
</g>
<path class="st3" d="M10.4,5L9.3,7l1.1,2h-1L8,7l1.4-2H10.4z M12.1,5L11,7l1.1,2h-1L9.7,7l1.4-2H12.1z"/>
<path class="st3" d="M41,19l1.1-2L41,15h1l1.4,2L42,19H41z M42.7,19l1.1-2l-1.1-2h1l1.4,2l-1.4,2H42.7z"/>
</svg>
