<?xml version="1.0" encoding="utf-8"?>
<!-- Generator: Adobe Illustrator 19.2.1, SVG Export Plug-In . SVG Version: 6.00 Build 0)  -->
<svg version="1.1" id="Calque_1" xmlns="http://www.w3.org/2000/svg" xmlns:xlink="http://www.w3.org/1999/xlink" x="0px" y="0px"
	 viewBox="0 0 98.6 14.2" style="enable-background:new 0 0 98.6 14.2;" xml:space="preserve">
<style type="text/css">
	.st0{fill:none;stroke:#3E6798;stroke-width:1.2849;stroke-linecap:round;stroke-miterlimit:10;}
	.st1{fill:none;stroke:#3E6798;stroke-width:1.2849;stroke-linecap:round;stroke-miterlimit:10;stroke-dasharray:0.1923,3.2045;}
</style>
<g>
	<g>
		<line class="st0" x1="51.1" y1="9.3" x2="51.2" y2="9.3"/>
		<line class="st1" x1="54.4" y1="9.3" x2="93.6" y2="9.3"/>
		<line class="st0" x1="95.2" y1="9.3" x2="95.3" y2="9.3"/>
	</g>
</g>
<g>
	<path d="M4.4,8.4V7.2h3.1V10c-0.3,0.3-0.7,0.6-1.3,0.8C5.6,11,5,11.1,4.4,11.1c-0.7,0-1.4-0.2-2-0.5c-0.6-0.3-1-0.8-1.3-1.3
		C1,8.7,0.8,8.1,0.8,7.4c0-0.7,0.2-1.4,0.5-2s0.8-1,1.4-1.3c0.5-0.2,1-0.4,1.7-0.4c0.9,0,1.6,0.2,2.1,0.6c0.5,0.4,0.8,0.9,1,1.5
		L6,6.1C5.9,5.7,5.7,5.5,5.4,5.3C5.1,5.1,4.8,5,4.4,5C3.7,5,3.2,5.2,2.9,5.6s-0.6,1-0.6,1.8c0,0.8,0.2,1.5,0.6,1.9
		c0.4,0.4,0.9,0.6,1.5,0.6c0.3,0,0.6-0.1,0.9-0.2C5.6,9.6,5.8,9.4,6,9.3V8.4H4.4z"/>
	<path d="M10.1,11H8.8V5.8H10v0.7c0.2-0.3,0.4-0.6,0.6-0.7s0.4-0.2,0.6-0.2c0.3,0,0.6,0.1,0.9,0.3l-0.4,1.2
		c-0.2-0.1-0.4-0.2-0.6-0.2c-0.2,0-0.4,0.1-0.5,0.2c-0.1,0.1-0.2,0.3-0.3,0.6s-0.1,0.9-0.1,1.7V11z"/>
	<path d="M12.7,5.1V3.8h1.4v1.3H12.7z M12.7,11V5.8h1.4V11H12.7z"/>
	<path d="M15.5,5.8h1.3v0.8c0.2-0.3,0.4-0.5,0.7-0.6s0.6-0.2,0.9-0.2c0.6,0,1.1,0.2,1.5,0.7s0.6,1.1,0.6,2c0,0.9-0.2,1.5-0.6,2
		c-0.4,0.5-0.9,0.7-1.5,0.7c-0.3,0-0.5-0.1-0.8-0.2s-0.5-0.3-0.7-0.6V13h-1.4V5.8z M16.8,8.3c0,0.6,0.1,1,0.3,1.3
		C17.4,9.9,17.7,10,18,10c0.3,0,0.6-0.1,0.8-0.4C19,9.4,19.1,9,19.1,8.4c0-0.5-0.1-0.9-0.3-1.2S18.3,6.8,18,6.8
		c-0.3,0-0.6,0.1-0.8,0.4C16.9,7.4,16.8,7.8,16.8,8.3z"/>
	<path d="M24.3,5.8h1.3v0.8c0.2-0.3,0.4-0.5,0.7-0.6s0.6-0.2,0.9-0.2c0.6,0,1.1,0.2,1.5,0.7s0.6,1.1,0.6,2c0,0.9-0.2,1.5-0.6,2
		c-0.4,0.5-0.9,0.7-1.5,0.7c-0.3,0-0.5-0.1-0.8-0.2s-0.5-0.3-0.7-0.6V13h-1.4V5.8z M25.7,8.3c0,0.6,0.1,1,0.3,1.3
		c0.2,0.3,0.5,0.4,0.8,0.4c0.3,0,0.6-0.1,0.8-0.4C27.9,9.4,28,9,28,8.4c0-0.5-0.1-0.9-0.3-1.2s-0.5-0.4-0.8-0.4
		c-0.3,0-0.6,0.1-0.8,0.4C25.8,7.4,25.7,7.8,25.7,8.3z"/>
	<path d="M30.5,11V3.8h1.4V11H30.5z"/>
	<path d="M34.3,7.4l-1.2-0.2c0.1-0.5,0.4-0.9,0.7-1.1s0.8-0.4,1.5-0.4c0.6,0,1.1,0.1,1.4,0.2c0.3,0.1,0.5,0.3,0.6,0.6
		c0.1,0.2,0.2,0.6,0.2,1.2l0,1.6c0,0.5,0,0.8,0.1,1c0,0.2,0.1,0.4,0.2,0.7h-1.4c0-0.1-0.1-0.2-0.1-0.4c0-0.1,0-0.1,0-0.2
		c-0.2,0.2-0.5,0.4-0.8,0.5s-0.6,0.2-0.9,0.2c-0.5,0-1-0.1-1.3-0.4s-0.5-0.7-0.5-1.1c0-0.3,0.1-0.6,0.2-0.8c0.1-0.2,0.3-0.4,0.6-0.5
		C34,8.2,34.3,8,34.8,8c0.6-0.1,1.1-0.2,1.3-0.3V7.5c0-0.3-0.1-0.5-0.2-0.6c-0.1-0.1-0.4-0.2-0.7-0.2c-0.2,0-0.4,0-0.6,0.1
		C34.5,7,34.4,7.2,34.3,7.4z M36.1,8.5c-0.2,0.1-0.5,0.1-0.8,0.2S34.7,8.9,34.6,9c-0.2,0.1-0.3,0.3-0.3,0.5c0,0.2,0.1,0.4,0.2,0.5
		s0.3,0.2,0.5,0.2c0.2,0,0.5-0.1,0.7-0.2c0.2-0.1,0.3-0.3,0.3-0.5c0-0.1,0.1-0.3,0.1-0.7V8.5z"/>
	<path d="M41.2,5.8v1.1h-0.9V9c0,0.4,0,0.7,0,0.7c0,0.1,0.1,0.1,0.1,0.2s0.1,0.1,0.2,0.1c0.1,0,0.3,0,0.6-0.1l0.1,1.1
		c-0.3,0.1-0.7,0.2-1.1,0.2c-0.2,0-0.5,0-0.7-0.1c-0.2-0.1-0.3-0.2-0.4-0.3c-0.1-0.1-0.2-0.3-0.2-0.5c0-0.2,0-0.5,0-1V6.9h-0.6V5.8
		h0.6v-1L40.3,4v1.8H41.2z"/>
	<path d="M45.2,9.3l1.4,0.2c-0.2,0.5-0.5,0.9-0.8,1.1c-0.4,0.3-0.9,0.4-1.4,0.4c-0.9,0-1.6-0.3-2-0.9c-0.3-0.5-0.5-1.1-0.5-1.8
		c0-0.9,0.2-1.5,0.7-2c0.4-0.5,1-0.7,1.7-0.7c0.8,0,1.4,0.3,1.8,0.8c0.4,0.5,0.7,1.3,0.6,2.3h-3.4c0,0.4,0.1,0.7,0.3,0.9
		c0.2,0.2,0.5,0.3,0.8,0.3c0.2,0,0.4-0.1,0.5-0.2S45.1,9.6,45.2,9.3z M45.2,8c0-0.4-0.1-0.7-0.3-0.9c-0.2-0.2-0.4-0.3-0.7-0.3
		c-0.3,0-0.5,0.1-0.7,0.3S43.2,7.6,43.2,8H45.2z"/>
	<path d="M47.2,9.5l1.4-0.2c0.1,0.3,0.2,0.5,0.4,0.6c0.2,0.1,0.4,0.2,0.8,0.2c0.4,0,0.6-0.1,0.8-0.2c0.1-0.1,0.2-0.2,0.2-0.4
		c0-0.1,0-0.2-0.1-0.3c-0.1-0.1-0.2-0.1-0.5-0.2C49,8.9,48.3,8.7,48,8.5c-0.4-0.3-0.6-0.7-0.6-1.2c0-0.4,0.2-0.8,0.5-1.1
		s0.9-0.5,1.7-0.5c0.7,0,1.2,0.1,1.6,0.3s0.6,0.6,0.7,1l-1.3,0.2c-0.1-0.2-0.2-0.4-0.3-0.5c-0.2-0.1-0.4-0.2-0.7-0.2
		c-0.4,0-0.6,0.1-0.8,0.2c-0.1,0.1-0.2,0.2-0.2,0.3c0,0.1,0,0.2,0.1,0.2c0.1,0.1,0.6,0.2,1.3,0.4c0.7,0.2,1.2,0.4,1.5,0.6
		c0.3,0.2,0.4,0.6,0.4,1c0,0.5-0.2,0.9-0.6,1.2s-1,0.5-1.8,0.5c-0.7,0-1.3-0.1-1.7-0.4C47.6,10.4,47.4,10,47.2,9.5z"/>
</g>
</svg>
