<?xml version="1.0" encoding="utf-8"?>
<!-- Generator: Adobe Illustrator 19.2.1, SVG Export Plug-In . SVG Version: 6.00 Build 0)  -->
<svg version="1.1" id="Calque_1" xmlns="http://www.w3.org/2000/svg" xmlns:xlink="http://www.w3.org/1999/xlink" x="0px" y="0px"
	 viewBox="0 0 75.3 282.9" style="enable-background:new 0 0 75.3 282.9;" xml:space="preserve">
<style type="text/css">
	.st0{fill:none;stroke:#3E6798;stroke-width:1.2849;stroke-linecap:round;stroke-miterlimit:10;stroke-dasharray:0.1919,3.1986;}
</style>
<g>
	<g>
		<polyline class="st0" points="54.8,18.5 5.4,18.8 5.4,270.8 		"/>
	</g>
</g>
<g>
	<path d="M5.1,279.2v-7.1h1.4v5.9h3.6v1.2H5.1z"/>
	<path d="M11.2,273.3V272h1.4v1.3H11.2z M11.2,279.2V274h1.4v5.2H11.2z"/>
	<path d="M16.9,277.5l1.4,0.2c-0.2,0.5-0.5,0.9-0.8,1.1c-0.4,0.3-0.9,0.4-1.4,0.4c-0.9,0-1.6-0.3-2-0.9c-0.3-0.5-0.5-1.1-0.5-1.8
		c0-0.9,0.2-1.5,0.7-2c0.4-0.5,1-0.7,1.7-0.7c0.8,0,1.4,0.3,1.8,0.8c0.4,0.5,0.7,1.3,0.6,2.3h-3.4c0,0.4,0.1,0.7,0.3,0.9
		c0.2,0.2,0.5,0.3,0.8,0.3c0.2,0,0.4-0.1,0.5-0.2S16.9,277.8,16.9,277.5z M16.6,273.4h-0.9l-1.3-1.5H16L16.6,273.4z M17,276.1
		c0-0.4-0.1-0.7-0.3-0.9c-0.2-0.2-0.4-0.3-0.7-0.3c-0.3,0-0.5,0.1-0.7,0.3s-0.3,0.5-0.3,0.9H17z"/>
	<path d="M19.4,279.5l1.6,0.2c0,0.2,0.1,0.3,0.2,0.4c0.1,0.1,0.3,0.1,0.6,0.1c0.4,0,0.6-0.1,0.8-0.2c0.1-0.1,0.2-0.2,0.3-0.3
		c0-0.1,0.1-0.3,0.1-0.6v-0.8c-0.4,0.6-0.9,0.8-1.6,0.8c-0.7,0-1.2-0.3-1.7-0.9c-0.3-0.5-0.5-1-0.5-1.7c0-0.9,0.2-1.5,0.6-2
		s0.9-0.7,1.6-0.7c0.6,0,1.2,0.3,1.6,0.8V274h1.3v4.7c0,0.6-0.1,1.1-0.2,1.4s-0.2,0.5-0.4,0.7s-0.4,0.3-0.7,0.4s-0.7,0.1-1.2,0.1
		c-0.9,0-1.5-0.2-1.9-0.5c-0.4-0.3-0.6-0.7-0.6-1.1C19.4,279.6,19.4,279.6,19.4,279.5z M20.6,276.5c0,0.5,0.1,1,0.3,1.2
		c0.2,0.3,0.5,0.4,0.8,0.4c0.3,0,0.6-0.1,0.8-0.4c0.2-0.3,0.3-0.6,0.3-1.2c0-0.5-0.1-0.9-0.3-1.2s-0.5-0.4-0.8-0.4
		c-0.3,0-0.6,0.1-0.8,0.4C20.7,275.6,20.6,276,20.6,276.5z"/>
	<path d="M28.6,277.5l1.4,0.2c-0.2,0.5-0.5,0.9-0.8,1.1c-0.4,0.3-0.9,0.4-1.4,0.4c-0.9,0-1.6-0.3-2-0.9c-0.3-0.5-0.5-1.1-0.5-1.8
		c0-0.9,0.2-1.5,0.7-2c0.4-0.5,1-0.7,1.7-0.7c0.8,0,1.4,0.3,1.8,0.8c0.4,0.5,0.7,1.3,0.6,2.3h-3.4c0,0.4,0.1,0.7,0.3,0.9
		c0.2,0.2,0.5,0.3,0.8,0.3c0.2,0,0.4-0.1,0.5-0.2S28.5,277.8,28.6,277.5z M28.7,276.1c0-0.4-0.1-0.7-0.3-0.9
		c-0.2-0.2-0.4-0.3-0.7-0.3c-0.3,0-0.5,0.1-0.7,0.3s-0.3,0.5-0.3,0.9H28.7z"/>
	<path d="M33.5,277.7l1.4-0.2c0.1,0.3,0.2,0.5,0.4,0.6c0.2,0.1,0.4,0.2,0.8,0.2c0.4,0,0.6-0.1,0.8-0.2c0.1-0.1,0.2-0.2,0.2-0.4
		c0-0.1,0-0.2-0.1-0.3c-0.1-0.1-0.2-0.1-0.5-0.2c-1.1-0.2-1.8-0.5-2.1-0.7c-0.4-0.3-0.6-0.7-0.6-1.2c0-0.4,0.2-0.8,0.5-1.1
		s0.9-0.5,1.7-0.5c0.7,0,1.2,0.1,1.6,0.3s0.6,0.6,0.7,1l-1.3,0.2c-0.1-0.2-0.2-0.4-0.3-0.5s-0.4-0.2-0.7-0.2c-0.4,0-0.6,0.1-0.8,0.2
		c-0.1,0.1-0.2,0.2-0.2,0.3c0,0.1,0,0.2,0.1,0.2c0.1,0.1,0.6,0.2,1.3,0.4s1.2,0.4,1.5,0.6c0.3,0.2,0.4,0.6,0.4,1
		c0,0.5-0.2,0.9-0.6,1.2s-1,0.5-1.8,0.5c-0.7,0-1.3-0.1-1.7-0.4S33.6,278.2,33.5,277.7z"/>
	<path d="M41.9,274v1.1h-0.9v2.1c0,0.4,0,0.7,0,0.7c0,0.1,0.1,0.1,0.1,0.2c0.1,0,0.1,0.1,0.2,0.1c0.1,0,0.3,0,0.6-0.1l0.1,1.1
		c-0.3,0.1-0.7,0.2-1.1,0.2c-0.2,0-0.5,0-0.7-0.1c-0.2-0.1-0.3-0.2-0.4-0.3c-0.1-0.1-0.2-0.3-0.2-0.5c0-0.2,0-0.5,0-1v-2.3h-0.6V274
		h0.6v-1l1.4-0.8v1.8H41.9z"/>
	<path d="M43.9,275.6l-1.2-0.2c0.1-0.5,0.4-0.9,0.7-1.1s0.8-0.4,1.5-0.4c0.6,0,1.1,0.1,1.4,0.2c0.3,0.1,0.5,0.3,0.6,0.6
		c0.1,0.2,0.2,0.6,0.2,1.2l0,1.6c0,0.5,0,0.8,0.1,1c0,0.2,0.1,0.4,0.2,0.7H46c0-0.1-0.1-0.2-0.1-0.4c0-0.1,0-0.1,0-0.2
		c-0.2,0.2-0.5,0.4-0.8,0.5s-0.6,0.2-0.9,0.2c-0.5,0-1-0.1-1.3-0.4c-0.3-0.3-0.5-0.7-0.5-1.1c0-0.3,0.1-0.6,0.2-0.8
		c0.1-0.2,0.3-0.4,0.6-0.5c0.3-0.1,0.6-0.2,1.1-0.3c0.6-0.1,1.1-0.2,1.3-0.3v-0.1c0-0.3-0.1-0.5-0.2-0.6c-0.1-0.1-0.4-0.2-0.7-0.2
		c-0.2,0-0.4,0-0.6,0.1C44.1,275.2,43.9,275.3,43.9,275.6z M45.7,276.7c-0.2,0.1-0.5,0.1-0.8,0.2s-0.6,0.2-0.7,0.2
		c-0.2,0.1-0.3,0.3-0.3,0.5c0,0.2,0.1,0.4,0.2,0.5s0.3,0.2,0.5,0.2c0.2,0,0.5-0.1,0.7-0.2c0.2-0.1,0.3-0.3,0.3-0.5
		c0-0.1,0.1-0.3,0.1-0.7V276.7z"/>
	<path d="M48.3,274h1.3v0.7c0.5-0.5,1-0.8,1.6-0.8c0.3,0,0.6,0.1,0.9,0.2s0.4,0.3,0.6,0.6c0.2-0.3,0.5-0.5,0.7-0.6s0.5-0.2,0.8-0.2
		c0.4,0,0.7,0.1,1,0.2c0.3,0.2,0.5,0.4,0.6,0.7c0.1,0.2,0.1,0.6,0.1,1.1v3.3h-1.4v-3c0-0.5,0-0.8-0.1-1c-0.1-0.2-0.3-0.3-0.6-0.3
		c-0.2,0-0.4,0.1-0.5,0.2s-0.3,0.3-0.4,0.5c-0.1,0.2-0.1,0.6-0.1,1.1v2.5h-1.4v-2.8c0-0.5,0-0.8-0.1-1s-0.1-0.3-0.2-0.3
		c-0.1-0.1-0.2-0.1-0.4-0.1c-0.2,0-0.4,0.1-0.6,0.2s-0.3,0.3-0.4,0.5c-0.1,0.2-0.1,0.6-0.1,1.1v2.5h-1.4V274z"/>
	<path d="M57.3,274h1.3v0.8c0.2-0.3,0.4-0.5,0.7-0.6s0.6-0.2,0.9-0.2c0.6,0,1.1,0.2,1.5,0.7s0.6,1.1,0.6,2c0,0.9-0.2,1.5-0.6,2
		c-0.4,0.5-0.9,0.7-1.5,0.7c-0.3,0-0.5-0.1-0.8-0.2c-0.2-0.1-0.5-0.3-0.7-0.6v2.6h-1.4V274z M58.6,276.5c0,0.6,0.1,1,0.3,1.3
		c0.2,0.3,0.5,0.4,0.8,0.4c0.3,0,0.6-0.1,0.8-0.4c0.2-0.3,0.3-0.7,0.3-1.3c0-0.5-0.1-0.9-0.3-1.2s-0.5-0.4-0.8-0.4
		c-0.3,0-0.6,0.1-0.8,0.4C58.7,275.6,58.6,276,58.6,276.5z"/>
</g>
</svg>
