<?xml version="1.0" encoding="utf-8"?>
<!-- Generator: Adobe Illustrator 16.0.0, SVG Export Plug-In . SVG Version: 6.00 Build 0)  -->
<!DOCTYPE svg PUBLIC "-//W3C//DTD SVG 1.1//EN" "http://www.w3.org/Graphics/SVG/1.1/DTD/svg11.dtd">
<svg version="1.1" id="Layer_1" xmlns="http://www.w3.org/2000/svg" xmlns:xlink="http://www.w3.org/1999/xlink" x="0px" y="0px"
	 width="76px" height="76px" viewBox="0 0 76 76" enable-background="new 0 0 76 76" xml:space="preserve">
<path fill="#78CBEF" d="M38.21,4.244c-18.729,0-33.966,15.237-33.966,33.966c0,18.729,15.237,33.966,33.966,33.966
	c18.729,0,33.966-15.236,33.966-33.966C72.176,19.481,56.939,4.244,38.21,4.244z"/>
<path fill="#FFFFFF" d="M56.316,28.757c-1.332,0.588-2.76,0.987-4.26,1.167c1.532-0.917,2.709-2.37,3.26-4.101
	c-1.434,0.85-3.019,1.465-4.711,1.797c-1.349-1.44-3.277-2.341-5.412-2.341c-4.094,0-7.415,3.321-7.415,7.416
	c0,0.582,0.063,1.148,0.191,1.688c-6.163-0.309-11.626-3.259-15.288-7.75c-0.638,1.1-1.003,2.373-1.003,3.731
	c0,2.57,1.31,4.841,3.299,6.173c-1.214-0.037-2.358-0.375-3.361-0.926v0.092c0,3.595,2.557,6.593,5.951,7.273
	c-0.622,0.174-1.277,0.261-1.954,0.261c-0.479,0-0.943-0.046-1.396-0.132c0.943,2.946,3.68,5.091,6.927,5.146
	c-2.539,1.992-5.737,3.177-9.21,3.177c-0.599,0-1.189-0.032-1.77-0.102c3.282,2.101,7.182,3.33,11.368,3.33
	c13.646,0,21.103-11.3,21.103-21.101c0-0.323-0.007-0.644-0.021-0.961C54.064,31.55,55.326,30.243,56.316,28.757"/>
</svg>
