<?xml version="1.0" encoding="utf-8"?>
<!-- Generator: Adobe Illustrator 16.0.3, SVG Export Plug-In . SVG Version: 6.00 Build 0)  -->
<!DOCTYPE svg PUBLIC "-//W3C//DTD SVG 1.1//EN" "http://www.w3.org/Graphics/SVG/1.1/DTD/svg11.dtd">
<svg version="1.1" id="Layer_1" xmlns="http://www.w3.org/2000/svg" xmlns:xlink="http://www.w3.org/1999/xlink" x="0px" y="0px"
	 width="50px" height="50px" viewBox="0 0 50 50" enable-background="new 0 0 50 50" xml:space="preserve">
<g>
	<path fill="none" stroke="#000000" stroke-width="2" stroke-linecap="round" stroke-linejoin="round" d="M32.55,48.39l-3.74-27.55
		l7.49-1.92l0.05,1.64l-0.98,1.22l1.12,1.4l-0.8,0.98l0.8,1.03c0.62-0.06,1.14-0.06,1.54,0l0.75-1.17l-0.8-0.98l1.12-1.4l-0.98-1.22
		l-0.14-1.92l1.54-0.42v-1.68H28.2l-1.03-7.72l4.49-1.17l0.05,1.54l-0.98,1.22l1.12,1.45l-0.79,0.94l0.79,1.03
		c0.62-0.06,1.14-0.06,1.54,0l0.75-1.17l-0.8-0.94l1.12-1.45l-0.98-1.22l-0.14-1.82l1.78-0.47V5.35h-8.42l-0.56-3.74"/>
	<path fill="none" stroke="#000000" stroke-width="2" stroke-linecap="round" stroke-linejoin="round" d="M25.87,1.61h-2.01
		l-0.51,3.74h-8.42v1.26l1.31,0.37l-0.14,1.92l-0.94,1.22l1.12,1.45l-0.84,0.94l0.79,1.17c0.37-0.06,0.87-0.06,1.5,0l0.84-1.03
		l-0.84-0.94l1.12-1.45l-0.94-1.22l0.05-1.64l4.91,1.26l-1.03,7.72H10.47v1.68l1.73,0.47l-0.14,1.82l-0.94,1.22l1.08,1.4l-0.8,0.98
		l0.75,1.17c0.4-0.06,0.92-0.06,1.54,0l0.8-1.03l-0.8-0.98l1.12-1.4l-0.94-1.26v-1.5l7.35,1.87l-3.79,27.55"/>
</g>
</svg>
