<?xml version="1.0" encoding="utf-8"?>
<!-- Generator: Adobe Illustrator 16.0.3, SVG Export Plug-In . SVG Version: 6.00 Build 0)  -->
<!DOCTYPE svg PUBLIC "-//W3C//DTD SVG 1.1//EN" "http://www.w3.org/Graphics/SVG/1.1/DTD/svg11.dtd">
<svg version="1.1" id="Layer_1" xmlns="http://www.w3.org/2000/svg" xmlns:xlink="http://www.w3.org/1999/xlink" x="0px" y="0px"
	 width="50px" height="50px" viewBox="0 0 50 50" enable-background="new 0 0 50 50" xml:space="preserve">
<g>
	<path fill="none" stroke="#000000" stroke-width="2" stroke-linecap="round" stroke-linejoin="round" d="M46.84,35.2H3.16
		c0.06-2.83,0.58-5.57,1.55-8.21c1.06-2.77,2.53-5.09,4.4-6.96c3.71-3.71,8.15-5.67,13.34-5.9l-0.05-0.05
		c-0.42-0.39-0.63-0.87-0.63-1.45c0-0.55,0.21-1.03,0.63-1.45c0.39-0.39,0.87-0.58,1.45-0.58c0.55,0,1.03,0.19,1.45,0.58
		c0.39,0.42,0.58,0.9,0.58,1.45c0,0.58-0.19,1.06-0.58,1.45c-0.03,0.03-0.05,0.06-0.05,0.1c4.8,0.35,8.96,2.3,12.47,5.85
		c3.41,3.38,5.35,7.39,5.8,12.03"/>
	<polyline fill="none" stroke="#000000" stroke-width="2" stroke-linecap="round" stroke-linejoin="round" points="1.44,36.55 
		4.34,39.4 45.85,39.4 48.56,35.34 	"/>
</g>
</svg>
