<?xml version="1.0" encoding="utf-8"?>
<!-- Generator: Adobe Illustrator 16.0.3, SVG Export Plug-In . SVG Version: 6.00 Build 0)  -->
<!DOCTYPE svg PUBLIC "-//W3C//DTD SVG 1.1//EN" "http://www.w3.org/Graphics/SVG/1.1/DTD/svg11.dtd">
<svg version="1.1" id="Layer_1" xmlns="http://www.w3.org/2000/svg" xmlns:xlink="http://www.w3.org/1999/xlink" x="0px" y="0px"
	 width="50px" height="50px" viewBox="0 0 50 50" enable-background="new 0 0 50 50" xml:space="preserve">
<path fill="none" stroke="#000000" stroke-width="2" stroke-linecap="round" stroke-linejoin="round" d="M41.4,48.48
	c0.93-1.16,1.06-2.01,0.39-2.55c-0.67-0.54-1.75-0.43-3.22,0.34c-0.77,0.42-1.43,0.59-1.97,0.53c-0.51-0.06-0.83-0.37-0.96-0.91
	c-0.32-1.03,0.29-1.76,1.83-2.21c0.06,0,0.32-0.1,0.77-0.29c0.58-0.22,0.93-0.43,1.06-0.63c0.39-0.48,0.47-0.98,0.24-1.49
	c-0.64-1.41-2.02-1.51-4.14-0.29c-0.71,0.45-1.52,0.8-2.45,1.06c-2.7,0.8-5.63,0.27-8.81-1.59c-3.21-1.83-6.66-6.1-10.35-12.8
	c-3.69-6.67-5.66-11.78-5.92-15.31C7.56,8.8,8.36,5.99,10.26,3.9c1.15-1.25,2.17-2.01,3.03-2.26c0.93-0.29,1.78-0.05,2.55,0.72
	l3.75,6.02c0.74,1.25,0.83,2.33,0.29,3.23c-0.45,0.64-1.2,1.11-2.26,1.4c-0.06,0.03-0.3,0.05-0.72,0.05
	c-2.21-0.1-3.06,1.27-2.55,4.09c0.48,2.89,2.39,7.09,5.73,12.61c0.96,1.57,2.26,2.7,3.9,3.37c1.83,0.67,3.05,0.34,3.66-1.01
	c0.13-0.38,0.22-0.59,0.29-0.63c0.77-0.83,1.52-1.32,2.26-1.44c1.06-0.13,1.99,0.42,2.79,1.64l3.23,4.91"/>
</svg>
