<?xml version="1.0" encoding="utf-8"?>
<!-- Generator: Adobe Illustrator 16.0.3, SVG Export Plug-In . SVG Version: 6.00 Build 0)  -->
<!DOCTYPE svg PUBLIC "-//W3C//DTD SVG 1.1//EN" "http://www.w3.org/Graphics/SVG/1.1/DTD/svg11.dtd">
<svg version="1.1" id="Layer_1" xmlns="http://www.w3.org/2000/svg" xmlns:xlink="http://www.w3.org/1999/xlink" x="0px" y="0px"
	 width="50px" height="50px" viewBox="0 0 50 50" enable-background="new 0 0 50 50" xml:space="preserve">
<path id="Layer0_0_1_STROKES" fill="none" stroke="#000000" stroke-width="2" stroke-linecap="round" stroke-linejoin="round" d="
	M4.982,16.974l-2.251,1.617c0.538-1.771,1.212-3.407,2.021-4.908l0.173,3.176C4.924,16.897,4.943,16.936,4.982,16.974z
	 M33.274,3.405l-1.674,1.501h-0.059L21.265,5.542c0-0.039-0.039-0.059-0.116-0.059L16.992,3.29
	c4.619-1.771,9.392-1.944,14.321-0.52C32.004,2.963,32.659,3.174,33.274,3.405z M5.155,12.99c2.001-3.425,4.889-6.159,8.661-8.199
	c0.809-0.501,1.636-0.904,2.483-1.212 M20.745,5.946l-1.329,7.218l-8.083,6.351 M19.475,13.972l9.122,4.907
	c0.039,0,0.077,0,0.117,0l0.519,10.104h-0.115l-8.141,5.369 M5.27,17.379l5.891,2.598l0.635,9.583c0,0.038,0,0.096,0,0.172
	l-5.312,3.813 M33.968,3.694c4.851,1.963,8.583,5.313,11.201,10.047c0.385,0.654,0.731,1.348,1.039,2.078l-2.021,2.195
	l-7.507-5.024c-0.076-0.039-0.134-0.058-0.172-0.058l-4.505-7.621 M35.931,12.99l-7.159,5.197 M47.421,30.541
	c-0.077,0.27-0.154,0.539-0.23,0.809c-1.731,6.159-5.39,10.778-10.97,13.858c-0.193,0.076-0.349,0.136-0.463,0.173
	c-0.848-1.887-1.271-2.867-1.271-2.944c1.194-2.849,2.213-5.734,3.06-8.662l7.16-4.733 M46.382,16.339
	c1.885,4.35,2.29,8.893,1.212,13.626l-2.54-1.328c0.462-3.501,0.288-6.908-0.521-10.219 M12.027,30.138l8.603,4.62
	c0,0.037,0.038,0.058,0.115,0.058l2.887,8.314l-6.236,3.753c0-0.039-0.019-0.058-0.057-0.058
	c-4.312-1.463-7.795-3.946-10.451-7.449 M35.295,45.729c-5.351,2.655-10.932,3.155-16.744,1.5
	c-0.115-0.038-0.27-0.076-0.461-0.115 M23.979,43.533l10.047-0.981 M4.751,36.258c-0.963-1.732-1.675-3.503-2.137-5.312
	l3.695,3.118h0.058v4.677C5.752,37.933,5.213,37.105,4.751,36.258z M29.405,29.387l7.621,4.33 M2.383,29.907
	c-0.807-3.388-0.75-6.89,0.174-10.507"/>
</svg>
