
<svg  version="1.1" id="Layer_1horeca" xmlns="http://www.w3.org/2000/svg" xmlns:xlink="http://www.w3.org/1999/xlink" preserveAspectRatio="none" x="0px" y="0px" width="50px" height="50px" viewBox="0 0 50 50">

<g transform="matrix( 1, 0, 0, 1, 0,0) ">

<path id="Layer0_0_1_STROKES" stroke="#000000" stroke-width="2" stroke-linejoin="round" stroke-linecap="round" fill="none" d="
M 27 28.2
L 28.9 30.2
Q 17.75 45.1 15.15 46.75 14.85 46.9 14.7 46.95 13.25 47.25 11.8 46.75 11.2 46.55 10.6 46.2 8.5 44.95 9.45 43.6
L 24 29.15 15.35 20.45
Q 12.9 22.85 9.85 21
L 1.9 15.1
Q 1.05 14.2 2.05 13.25 3.05 12.35 3.95 12.95
L 10.05 17.9
Q 11.95 17.4 11.8 16.3
L 6.2 11.15
Q 5.5 10.4 6.5 9.5 7.5 8.6 8.3 9.2
L 13.85 14.4
Q 15.15 14.2 15.25 12.8
L 10.45 7.3
Q 10 6.5 11 5.7 11.9 4.85 12.45 5.3
L 18.8 12.6
Q 20.5 15.7 17.9 17.65
L 26.5 25.9 45.9 5.05
Q 50.65 12.5 43.35 20.75
L 31 29.95 45.15 44.75
Q 45.05 48.7 41.85 47
L 30.4 35.15"/>
</g>
</svg>
