<?xml version="1.0" encoding="utf-8"?>
<!-- Generator: Adobe Illustrator 16.0.3, SVG Export Plug-In . SVG Version: 6.00 Build 0)  -->
<!DOCTYPE svg PUBLIC "-//W3C//DTD SVG 1.1//EN" "http://www.w3.org/Graphics/SVG/1.1/DTD/svg11.dtd">
<svg version="1.1" id="Layer_1" xmlns="http://www.w3.org/2000/svg" xmlns:xlink="http://www.w3.org/1999/xlink" x="0px" y="0px"
	 width="50px" height="50px" viewBox="0 0 50 50" enable-background="new 0 0 50 50" xml:space="preserve">
<path fill="none" stroke="#000000" stroke-width="2" stroke-linecap="round" stroke-linejoin="round" d="M11.88,48.49l6.26-6.21
	c-2.86-0.93-5.71-2.44-8.55-4.53V6.93c3.98-2.74,7.92-4.44,11.81-5.09c2.55-0.44,5.08-0.44,7.57,0c3.86,0.69,7.67,2.38,11.44,5.09
	v3.36l-22.65,0.14c-2.9-0.06-4.39,1.12-4.48,3.55v8.92c0.03,1.93,1.04,3.1,3.04,3.5h16.91c1.77-0.16,2.61-1.03,2.52-2.61v-8.27
	c0.16-0.97,0.96-1.42,2.43-1.35c1.46,0,2.21,0.45,2.24,1.35v22.23c-2.52,1.87-5.03,3.27-7.52,4.2l6.49,6.54"/>
</svg>
