<?xml version="1.0" encoding="utf-8"?>
<!-- Generator: Adobe Illustrator 16.0.3, SVG Export Plug-In . SVG Version: 6.00 Build 0)  -->
<!DOCTYPE svg PUBLIC "-//W3C//DTD SVG 1.1//EN" "http://www.w3.org/Graphics/SVG/1.1/DTD/svg11.dtd">
<svg version="1.1" id="Layer_1" xmlns="http://www.w3.org/2000/svg" xmlns:xlink="http://www.w3.org/1999/xlink" x="0px" y="0px"
	 width="50px" height="50px" viewBox="0 0 50 50" enable-background="new 0 0 50 50" xml:space="preserve">
<g>
	<g>
		<g id="Layer2_0_FILL">
			<path d="M30.48,28.8c-0.63-0.58-1.36-1.03-2.17-1.36c-0.76-0.3-1.63-0.47-2.63-0.5v-2.27h-0.86v2.27
				c-0.75,0.06-1.45,0.2-2.08,0.41s-1.19,0.51-1.68,0.91c-0.45,0.39-0.8,0.86-1.04,1.4c-0.27,0.54-0.41,1.16-0.41,1.86
				c0,0.66,0.12,1.22,0.36,1.68c0.21,0.42,0.54,0.8,1,1.13c0.42,0.3,0.97,0.57,1.63,0.82c0.66,0.24,1.44,0.45,2.31,0.63v6.03
				c-1.09-0.06-2.07-0.29-2.95-0.68c-0.91-0.42-1.63-0.92-2.18-1.5l-0.72,1.27c1.6,1.42,3.52,2.19,5.75,2.31v2.27h0.86v-2.22
				c0.79-0.03,1.53-0.12,2.22-0.27c0.69-0.21,1.28-0.48,1.77-0.82c0.51-0.36,0.91-0.82,1.18-1.36c0.3-0.54,0.45-1.18,0.45-1.9
				s-0.14-1.34-0.41-1.86c-0.27-0.48-0.67-0.91-1.18-1.27c-0.48-0.33-1.09-0.6-1.81-0.82c-0.7-0.21-1.47-0.41-2.31-0.59v-6.03
				c0.88,0.03,1.68,0.2,2.4,0.5c0.72,0.33,1.3,0.73,1.72,1.18L30.48,28.8 M22.1,33.2c-0.3-0.24-0.51-0.5-0.63-0.77
				c-0.15-0.3-0.23-0.67-0.23-1.09c0-0.91,0.29-1.62,0.86-2.13c0.57-0.51,1.51-0.8,2.81-0.86v5.84c-0.63-0.12-1.18-0.27-1.63-0.45
				C22.79,33.59,22.4,33.41,22.1,33.2 M28.58,37.09c0.33,0.24,0.59,0.51,0.77,0.82c0.18,0.33,0.27,0.71,0.27,1.13
				c0,0.94-0.35,1.65-1.04,2.13c-0.72,0.45-1.72,0.68-2.99,0.68v-5.89c0.66,0.15,1.24,0.32,1.72,0.5
				C27.82,36.64,28.25,36.85,28.58,37.09z"/>
		</g>
	</g>
	<path fill="none" stroke="#000000" stroke-width="2" stroke-linecap="round" stroke-linejoin="round" d="M28.44,18.56
		c0.48,1.72,1.84,3.37,4.08,4.94c0.97,0.6,1.87,1.33,2.72,2.17c2.84,2.84,4.26,6.27,4.26,10.29c0,4.02-1.32,7.18-3.94,9.47
		c-2.62,2.29-5.92,3.36-9.88,3.22c-3.96-0.14-7.09-0.9-9.38-2.27c-2.29-1.36-3.79-2.78-4.49-4.26c-0.88-1.87-1.31-3.93-1.31-6.16
		c0-2.24,0.44-4.29,1.31-6.16c0.69-1.48,1.66-2.86,2.9-4.12c0.66-0.66,1.37-1.24,2.13-1.72c0.21-0.18,0.44-0.33,0.68-0.45
		c2.24-1.57,3.67-3.47,4.3-5.71c-1.45-0.24-2.27-0.62-2.45-1.13c-0.12-0.33,0-0.74,0.36-1.22c0.39-0.51,1.37-0.68,2.95-0.5
		c2.51,0.3,4.39,0.41,5.66,0.32h0.09c1.33,0.06,1.99-0.32,1.99-1.13c-0.03-0.82-0.68-1.28-1.95-1.4c-1.87-0.15-3.85-0.18-5.94-0.09
		c-1.51,0.09-2.33,0.08-2.45-0.05c-0.42-0.39-0.29-0.92,0.41-1.59c0.67-0.69,1.5-1.03,2.49-1c0.97,0.03,2.02,0.02,3.17-0.05
		c1.15-0.09,2.33-1,3.54-2.72c1.21-1.75,2.13-3.72,2.76-5.89c-1.18,0.97-2.42,1.48-3.71,1.54c-1.33,0.03-2.52-0.41-3.58-1.31
		c-1.93,1.87-3.99,1.87-6.16,0"/>
</g>
</svg>
