<?xml version="1.0" encoding="utf-8"?>
<!-- Generator: Adobe Illustrator 16.0.3, SVG Export Plug-In . SVG Version: 6.00 Build 0)  -->
<!DOCTYPE svg PUBLIC "-//W3C//DTD SVG 1.1//EN" "http://www.w3.org/Graphics/SVG/1.1/DTD/svg11.dtd">
<svg version="1.1" id="Layer_1" xmlns="http://www.w3.org/2000/svg" xmlns:xlink="http://www.w3.org/1999/xlink" x="0px" y="0px"
	 width="50px" height="50px" viewBox="0 0 50 50" enable-background="new 0 0 50 50" xml:space="preserve">
<path fill="none" stroke="#000000" stroke-width="2" stroke-linecap="round" stroke-linejoin="round" d="M41.67,43.55L26.58,27.5
	l14.95-14.05c2.23,2.97,3.43,6.92,3.6,11.85c1.73-2.3,2.6-4.93,2.6-7.9c0-2.87-0.8-5.4-2.4-7.6c-0.4-0.63-0.9-1.23-1.5-1.8
	c-0.57-0.57-1.13-1.07-1.7-1.5c-2.2-1.57-4.77-2.35-7.7-2.35c-2.97,0-5.6,0.87-7.9,2.6c4.9,0.23,8.83,1.42,11.8,3.55l-11.1,11.05
	c-0.53,0.57-1.07,1.13-1.6,1.7c-0.17,0.13-0.3,0.27-0.4,0.4l-1.25,1.3v-0.1l-12.35-13.1c2.97-2.23,6.92-3.43,11.85-3.6
	c-2.33-1.73-4.98-2.6-7.95-2.6c-2.83,0-5.35,0.78-7.55,2.35C7.34,8.13,6.72,8.63,6.13,9.2c-0.57,0.6-1.05,1.18-1.45,1.75
	c-1.6,2.2-2.4,4.77-2.4,7.7c0,2.97,0.87,5.58,2.6,7.85c0.23-4.87,1.43-8.8,3.6-11.8l12,12l0.75,0.7v0.05L6.83,41.8l2.2,2.25
	l14.8-13.95l14.5,15.75"/>
</svg>
