
<svg xmlns="http://www.w3.org/2000/svg" version="1.1" xmlns:xlink="http://www.w3.org/1999/xlink" preserveAspectRatio="none" x="0px" y="0px" width="550px" height="400px" viewBox="0 0 550 400">
<defs>
<g id="Layer2_0_FILL">
<path fill="#000000" stroke="none" d="
M 321.55 106.05
Q 320.5 105.1 319.15 104.55 317.9 104.05 316.25 104
L 316.25 101.5 315.3 101.5 315.3 104
Q 314.05 104.1 313 104.45 311.95 104.8 311.15 105.45 310.4 106.1 310 107 309.55 107.9 309.55 109.05 309.55 110.15 309.95 110.9 310.3 111.6 311.05 112.15 311.75 112.65 312.85 113.05 313.95 113.45 315.4 113.75
L 315.4 120.4
Q 313.6 120.3 312.15 119.65 310.65 118.95 309.75 118
L 308.95 119.4
Q 311.6 121.75 315.3 121.95
L 315.3 124.45 316.25 124.45 316.25 122
Q 317.55 121.95 318.7 121.7 319.85 121.35 320.65 120.8 321.5 120.2 321.95 119.3 322.45 118.4 322.45 117.2 322.45 116 322 115.15 321.55 114.35 320.7 113.75 319.9 113.2 318.7 112.85 317.55 112.5 316.15 112.2
L 316.15 105.55
Q 317.6 105.6 318.8 106.1 320 106.65 320.7 107.4
L 321.55 106.05
M 312.3 110.9
Q 311.8 110.5 311.6 110.05 311.35 109.55 311.35 108.85 311.35 107.35 312.3 106.5 313.25 105.65 315.4 105.55
L 315.4 112
Q 314.35 111.8 313.6 111.5 312.8 111.25 312.3 110.9
M 319.45 115.2
Q 320 115.6 320.3 116.1 320.6 116.65 320.6 117.35 320.6 118.9 319.45 119.7 318.25 120.45 316.15 120.45
L 316.15 113.95
Q 317.25 114.2 318.05 114.5 318.9 114.8 319.45 115.2 Z"/>
</g>

<path id="Layer2_0_1_STROKES" stroke="#000000" stroke-width="2" stroke-linejoin="round" stroke-linecap="round" fill="none" d="
M 319.3 94.75
Q 320.1 97.6 323.8 100.2 325.4 101.2 326.8 102.6 331.5 107.3 331.5 113.95 331.496484375 120.605078125 327.15 124.4 322.8103515625 128.184765625 316.25 127.95 309.689453125 127.715234375 305.9 125.45 302.1033203125 123.194921875 300.95 120.75 299.5 117.65 299.5 113.95 299.5 110.25 300.95 107.15 302.1 104.7 304.15 102.6 305.25 101.5 306.5 100.7 306.85 100.4 307.25 100.2 310.95 97.6 312 93.9 309.6 93.5 309.3 92.65 309.1 92.1 309.7 91.3 310.35 90.45 312.95 90.75 317.1 91.25 319.2 91.1
L 319.3 91.1
Q 321.5 91.2 321.5 89.85 321.45 88.5 319.35 88.3 316.25 88.05 312.8 88.2 310.3 88.35 310.1 88.15 309.4 87.5 310.55 86.4 311.65 85.25 313.3 85.3 314.9 85.35 316.8 85.25 318.7 85.1 320.7 82.25 322.7 79.35 323.75 75.75 321.8 77.35 319.65 77.45 317.45 77.5 315.7 76 312.5 79.1 308.9 76
M 325 179.45
L 326.9 181.45
Q 315.7658203125 196.326171875 313.125 198 312.8748046875 198.1607421875 312.7 198.2 311.2703125 198.5216796875 309.8 198 309.198828125 197.7921875 308.6 197.45 306.5 196.2 307.45 194.85
L 322 180.4 313.35 171.7
Q 310.9 174.1 307.85 172.25
L 299.9 166.35
Q 299.05 165.45 300.05 164.5 301.05 163.6 301.95 164.2
L 308.05 169.15
Q 309.95 168.65 309.8 167.55
L 304.2 162.4
Q 303.5 161.65 304.5 160.75 305.5 159.85 306.3 160.45
L 311.85 165.65
Q 313.15 165.45 313.25 164.05
L 308.45 158.55
Q 308 157.75 309 156.95 309.9 156.1 310.45 156.55
L 316.8 163.85
Q 318.5 166.95 315.9 168.9
L 324.5 177.15 343.9 156.3
Q 348.66328125 163.757421875 341.35 172
L 329 181.2 343.15 196
Q 343.05 199.95 339.85 198.25
L 328.4 186.4
M 246.5 131.25
L 242.5 101.8 250.5 99.75 250.55 101.5 249.5 102.8 250.7 104.3 249.85 105.35 250.7 106.45
Q 251.7 106.35 252.35 106.45
L 253.15 105.2 252.3 104.15 253.5 102.65 252.45 101.35 252.3 99.3 253.95 98.85 253.95 97.05 241.85 97.05 240.75 88.8 245.55 87.55 245.6 89.2 244.55 90.5 245.75 92.05 244.9 93.05 245.75 94.15
Q 246.75 94.05 247.4 94.15
L 248.2 92.9 247.35 91.9 248.55 90.35 247.5 89.05 247.35 87.1 249.25 86.6 249.25 85.25 240.25 85.25 239.65 81.25
M 239.35 81.25
L 237.2 81.25 236.65 85.25 227.65 85.25 227.65 86.6 229.05 87 228.9 89.05 227.9 90.35 229.1 91.9 228.2 92.9 229.05 94.15
Q 229.65 94.05 230.65 94.15
L 231.55 93.05 230.65 92.05 231.85 90.5 230.85 89.2 230.9 87.45 236.15 88.8 235.05 97.05 222.9 97.05 222.9 98.85 224.75 99.35 224.6 101.3 223.6 102.6 224.75 104.1 223.9 105.15 224.7 106.4
Q 225.35 106.3 226.35 106.4
L 227.2 105.3 226.35 104.25 227.55 102.75 226.55 101.4 226.55 99.8 234.4 101.8 230.35 131.25
M 173 203.95
L 157.9 187.9 172.85 173.85
Q 176.2 178.3 176.45 185.7 179.05 182.25 179.05 177.8 179.05 173.5 176.65 170.2 176.05 169.25 175.15 168.4 174.3 167.55 173.45 166.9 170.15 164.55 165.75 164.55 161.3 164.55 157.85 167.15 165.2 167.5 169.65 170.7
L 158.55 181.75
Q 157.75 182.6 156.95 183.45 156.7 183.65 156.55 183.85
L 155.3 185.15 155.3 185.05 142.95 171.95
Q 147.4 168.6 154.8 168.35 151.3 165.75 146.85 165.75 142.6 165.75 139.3 168.1 138.35 168.75 137.45 169.6 136.6 170.5 136 171.35 133.6 174.65 133.6 179.05 133.6 183.5 136.2 186.9 136.55 179.6 139.8 175.1
L 151.8 187.1 152.55 187.8 152.55 187.85 138.15 202.2 140.35 204.45 155.15 190.5 169.65 206.25
M 261.8 181.85
L 216.6 181.85
Q 216.7 177.45 218.2 173.35 219.85 169.05 222.75 166.15 228.5 160.4 236.55 160.05
L 236.5 160
Q 235.85 159.4 235.85 158.5 235.85 157.65 236.5 157 237.1 156.4 238 156.4 238.85 156.4 239.5 157 240.1 157.65 240.1 158.5 240.1 159.4 239.5 160 239.45 160.05 239.45 160.1 246.9 160.65 252.35 166.15 257.65 171.4 258.35 178.6
M 213.35 183.25
L 216.35 186.2 259.3 186.2 262.1 182
M 168.4 127.1
L 162.5 87.95 158.75 87.95 154.45 120 150.45 120 150.45 109.7 140.25 119.85 140.25 109.7 130.3 119.65 130.3 109.7 121.4 118.6 121.4 133.2
Q 121.35 138.2 126.15 137.95
L 167.65 137.95
M 152.55 187.85
L 151.8 187.1
M 156.55 183.85
L 155.3 185.05"/>

<path id="Layer0_0_1_STROKES" stroke="#000000" stroke-width="2" stroke-linejoin="round" stroke-linecap="round" fill="none" d="
M 418.75 201.9
Q 420.2 200.1 419.15 199.25 418.1 198.4 415.8 199.6 414.6 200.25 413.75 200.15 412.95 200.05 412.75 199.2 412.25 197.6 414.65 196.9 414.75 196.9 415.45 196.6 416.35 196.25 416.55 195.95 417.15 195.2 416.8 194.4 415.8 192.2 412.5 194.1 411.4 194.8 409.95 195.2 405.75 196.45 400.8 193.55 395.8 190.7 390.05 180.25 384.3 169.85 383.9 164.35 383.45 158.85 386.4 155.6 388.2 153.65 389.55 153.25 391 152.8 392.2 154
L 396.1 160.25
Q 397.25 162.2 396.4 163.6 395.7 164.6 394.05 165.05 393.95 165.1 393.3 165.1 389.85 164.95 390.65 169.35 391.4 173.85 396.6 182.45 398.1 184.9 400.65 185.95 403.5 187 404.45 184.9 404.65 184.3 404.75 184.25 405.95 182.95 407.1 182.75 408.75 182.55 410 184.45
L 413.35 189.55
M 219.05 266
L 225.75 259.35
Q 221.15 257.85 216.6 254.5
L 216.6 221.5
Q 223 217.1 229.25 216.05 233.35 215.35 237.35 216.05 243.55 217.15 249.6 221.5
L 249.6 225.1 225.35 225.25
Q 220.7 225.15 220.55 229.05
L 220.55 238.6
Q 220.6 241.7 223.8 242.35
L 241.9 242.35
Q 244.75 242.1 244.6 239.55
L 244.6 230.7
Q 244.85 229.15 247.2 229.25 249.55 229.25 249.6 230.7
L 249.6 254.5
Q 245.55 257.5 241.55 259
L 248.5 266"/>
</defs>

<g transform="matrix( 1, 0, 0, 1, 0,0) ">
<use xlink:href="#Layer2_0_FILL"/>

<use xlink:href="#Layer2_0_1_STROKES"/>
</g>

<g transform="matrix( 1, 0, 0, 1, 0,0) ">
<use xlink:href="#Layer0_0_1_STROKES"/>
</g>
</svg>
